<svg id="Layer_1" xmlns="http://www.w3.org/2000/svg" viewBox="0 0 40 40"><style>.st0{fill:#f39aa2}.st1{fill:#fff}</style><path class="st0" d="M0 0h40v40H0z"/><path class="st1" d="M19.9 21.1s.1 0 0 0h.2c1.7 0 3.2-.6 4.2-1.8 2.3-2.6 1.9-7 1.9-7.5-.1-3.2-1.7-4.7-2.9-5.4-.9-.5-2-.8-3.2-.8-.7 0-2 .1-3.2.8-1.3.7-2.8 2.2-2.9 5.4 0 .4-.4 4.9 1.9 7.5.8 1.2 2.2 1.8 4 1.8zM15.4 12c.2-4.3 3.2-4.8 4.5-4.8 1.6 0 4.4.7 4.5 4.7 0 0 .4 4.1-1.5 6.2-.8.8-1.8 1.3-3.1 1.3s-2.3-.4-3.1-1.3c-1.7-2-1.3-6.1-1.3-6.1z"/><path class="st1" d="M32.3 28.5v-.2c0-1.2-.1-3.9-2.7-4.8h-.1c-2.7-.7-4.9-2.2-5-2.3-.4-.3-.9-.2-1.1.2-.3.4-.2.9.2 1.1.1.1 2.5 1.7 5.4 2.5 1.4.5 1.5 2 1.6 3.3v.1c0 .5 0 1.4-.1 1.8-1 .5-4.8 2.4-10.5 2.4s-9.6-1.9-10.5-2.5c-.1-.5-.1-1.3-.1-1.8v-.1c0-1.4.2-2.8 1.6-3.3 3-.8 5.3-2.4 5.4-2.5.4-.3.5-.8.2-1.1-.3-.4-.8-.5-1.1-.2 0 0-2.2 1.6-5 2.3h-.1c-2.6.9-2.7 3.7-2.7 4.8v.1c0 .3 0 1.9.3 2.7.1.2.2.3.3.4.2.1 4.5 2.9 11.6 2.9s11.5-2.7 11.6-2.9c.1-.1.3-.2.3-.4.5-.6.5-2.2.5-2.5z"/></svg>