<svg id="Capa_1" xmlns="http://www.w3.org/2000/svg" width="100" height="50" viewBox="0 0 100 50"><style>.st0{fill:#ff9da2}.st1{fill:#a4a6ab}</style><path class="st0" d="M74.9 10.1c2-4.8 6.6-8.1 12-8.1 7.2 0 12.4 6.2 13.1 13.5 0 0 .4 1.8-.4 5.1-1.1 4.5-3.5 8.5-6.9 11.5L74.9 48 57.5 32.2c-3.4-3-5.8-7-6.9-11.5-.8-3.3-.4-5.1-.4-5.1C50.8 8.2 56 2 63.3 2c5.3 0 9.5 3.3 11.6 8.1z"/><path class="st1" d="M24.9 10.1c2-4.8 6.6-8.1 12-8.1C44.1 2 49.3 8.2 50 15.5c0 0 .4 1.8-.4 5.1-1.1 4.5-3.5 8.5-6.9 11.5L24.9 48 7.4 32.2c-3.4-3-5.8-7-6.9-11.5-.8-3.3-.4-5.1-.4-5.1C.7 8.2 5.9 2 13.2 2c5.3 0 9.6 3.3 11.7 8.1z"/></svg>