<svg id="Capa_1" xmlns="http://www.w3.org/2000/svg" viewBox="0 0 61.2 61.2"><style>.st0{fill:#c6c6c6}</style><path class="st0" d="M30.9 27.6c3.9 0 7-3.1 7-7s-3.1-7-7-7-7 3.1-7 7 3.2 7 7 7zm0-12c2.8 0 5 2.2 5 5s-2.2 5-5 5-5-2.2-5-5 2.3-5 5-5z"/><path class="st0" d="M41.7 40.6l4.4-6.4c5.8-7.7 4.9-20.3-1.8-27-3.6-3.6-8.4-5.6-13.6-5.6-5.1 0-9.9 2-13.6 5.6-6.7 6.7-7.5 19.3-1.8 27l4.5 6.4M17 33c-5.2-6.9-4.5-18.3 1.6-24.4 3.2-3.2 7.6-5 12.1-5s8.9 1.8 12.1 5c6 6 6.8 17.4 1.6 24.4L30.8 52.8l-9.9-14.2L17 33zm2.8 7.6l10.9 15.8 10.9-15.8M9.3 57.3h42.5v2.4H9.3z"/><path class="st0" d="M31.1 13.9l.3-11.1c-.9 0-9.5-.2-14.9 6.8-3.6 4.7-3.6 9.9-3.6 11.4 0 1.9.2 4.6 1.1 7.7 1.3 4.4 3.5 7.1 7.5 12.4 2 2.7 5.2 6.9 9.1 12.3 3.1-4 5.8-7.6 8.3-10.8 5.9-7.8 7.3-9.9 8.4-13 1.6-4.7 1.6-8.9 1.4-11.7-.4-1.2-2.7-10.2-10.8-13.6-2.6-1.1-5-1.3-6.8-1.3v10.9c.9.3 2.9 1 4.6 2.9 1.3 1.4 1.9 2.9 2.2 3.8-.5 1.1-1.4 2.8-3.1 4.4-1.4 1.4-2.9 2.1-3.9 2.6-1.3-.7-3.1-1.8-4.8-3.8-1-1.2-1.7-2.3-2.2-3.2.2-.8.7-2.4 2-3.8 2-2.2 4.4-2.7 5.2-2.9z"/></svg>