<svg id="Capa_1" xmlns="http://www.w3.org/2000/svg" viewBox="0 0 525.2 525.2"><style>.st0{fill:#a4a6ab}</style><path class="st0" d="M420.7 371.2c-20 0-37.9 7.9-51.6 20.2L181.1 282c1.4-6.1 2.4-12.2 2.4-18.5 0-6.3-1.1-12.4-2.4-18.5L367 136.8c14.2 13.1 32.9 21.3 53.7 21.3 43.8 0 79.1-35.3 79.1-79.1 0-43.7-35.3-79.1-79.1-79.1-43.7 0-79.1 35.3-79.1 79.1 0 6.4 1.1 12.4 2.4 18.5L158.2 205.9c-14.2-13.2-32.9-21.4-53.7-21.4-43.8 0-79.1 35.3-79.1 79.1s35.3 79.1 79.1 79.1c20.8 0 39.5-8.2 53.7-21.3L345.8 431c-1.3 5.6-2.1 11.4-2.1 17.2 0 42.5 34.6 77 77 77s77-34.5 77-77-34.5-77-77-77z"/></svg>