<svg id="Layer_1" xmlns="http://www.w3.org/2000/svg" width="100" height="25" viewBox="0 0 100 25"><style>.st0{fill:#3d5a99}.st1{fill:#fff}.st2{fill:#2ba7d2}.st3{fill:#ca2428}.st4{fill:#dd4f42}</style><circle class="st0" cx="12.5" cy="12.5" r="12.5"/><path class="st1" d="M15.6 12.6h-2.2v7.8H10v-7.8H8.4V9.9H10V8.1c0-1.3.6-3.3 3.4-3.3h2.5v2.7h-1.8c-.3 0-.7.1-.7.7v1.6h2.5l-.3 2.8z"/><path class="st2" d="M37.5 0C44.4 0 50 5.6 50 12.5S44.4 25 37.5 25 25 19.4 25 12.5 30.6 0 37.5 0z"/><path class="st1" d="M45.3 8.4c-.5.2-1.1.4-1.7.5.6-.4 1.1-.9 1.3-1.6-.6.3-1.2.5-1.9.7-.6-.6-1.4-1-2.3-1-1.7 0-3 1.3-3 3 0 .2 0 .5.1.7-2.5-.1-4.8-1.3-6.3-3.1-.3.4-.4.9-.4 1.5 0 1 .5 1.9 1.4 2.5-.5 0-1-.1-1.4-.4 0 1.4 1 2.6 2.4 2.9-.3.1-.5.1-.8.1-.2 0-.4 0-.6-.1.4 1.2 1.5 2 2.8 2.1-1 .8-2.4 1.3-3.8 1.3h-.7c1.3.8 2.9 1.3 4.7 1.3 5.6 0 8.7-4.5 8.7-8.4V10c.6-.5 1.1-1 1.5-1.6z"/><circle class="st3" cx="62.5" cy="12.5" r="12.5"/><path class="st1" d="M62.5 5.4c-3.9 0-7.2 3.2-7.2 7.1 0 2.9 1.8 5.4 4.3 6.5 0-.5 0-1.1.1-1.6.1-.6.9-3.9.9-3.9s-.2-.5-.2-1.1c0-1.1.6-1.9 1.4-1.9.6 0 1 .5 1 1.1 0 .7-.4 1.6-.6 2.5-.2.8.4 1.4 1.1 1.4 1.4 0 2.3-1.7 2.3-3.8 0-1.6-1.1-2.7-3-2.7-2.2 0-3.5 1.6-3.5 3.4 0 .6.2 1.1.5 1.4.1.2.2.2.1.4 0 .1-.1.4-.1.6 0 .2-.2.2-.4.2-1-.4-1.5-1.5-1.5-2.7 0-2 1.7-4.5 5.1-4.5 2.7 0 4.5 2 4.5 4.1 0 2.8-1.6 4.9-3.9 4.9-.8 0-1.5-.4-1.7-.9l-.5 2c-.2.5-.4 1.1-.7 1.5.6.2 1.3.3 2 .3 3.9 0 7.1-3.2 7.1-7.1 0-4-3.2-7.2-7.1-7.2z"/><circle id="XMLID_30_" class="st4" cx="87.5" cy="12.5" r="12.5"/><path class="st4" d="M79.3 12.7c0 2.2 1.4 4.2 3.5 4.9 1.9.6 4.3.2 5.6-1.5.9-1.2 1.1-2.7 1-4.1h-4.9v1.8h3c-.2.9-.8 1.6-1.7 2-1.7.7-3.8-.2-4.3-2-.6-1.7.4-3.7 2.1-4.2 1.1-.4 2.1 0 3 .6.5-.4.9-.9 1.3-1.3-1-.9-2.3-1.4-3.7-1.3-2.7-.1-5 2.4-4.9 5.1zm13.3-2.3v1.5h-1.5v1.5h1.5v1.5h1.5v-1.5h1.5v-1.5h-1.5v-1.5h-1.5z"/><path class="st1" d="M79.3 12.7c-.1-2.7 2.2-5.1 4.9-5.1 1.4-.1 2.7.4 3.7 1.3-.4.5-.8.9-1.3 1.3-.9-.5-2-1-3-.6-1.7.5-2.7 2.5-2.1 4.2.5 1.7 2.6 2.7 4.3 2 .9-.3 1.4-1.1 1.7-2h-3V12h4.9c.1 1.4-.1 3-1 4.1-1.3 1.6-3.6 2.1-5.6 1.5-2.1-.7-3.5-2.8-3.5-4.9zm13.3-2.3h1.5v1.5h1.5v1.5h-1.5v1.5h-1.5v-1.5h-1.5v-1.5h1.5v-1.5z"/></svg>