<svg id="Layer_1" xmlns="http://www.w3.org/2000/svg" viewBox="0 0 27 27"><style>.st0{fill:#fff}.st1{fill:none;stroke:#fff;stroke-width:.25;stroke-miterlimit:10}</style><path class="st0" d="M27 11.7h-2.7c-1.5-5.2-4.7-8-9-9V0h-3.7v2.7c-5.1 1.2-7.7 4.8-9 9H0v3.7h2.7c1.6 5 3 6.6 9 9V27h3.7v-2.7c5.7-1.8 7.2-3.9 9-9H27v-3.6zm-12.7 10h-1.7c-4-.3-7-3.3-7.3-7.3v-1.7c.3-4 3.3-7 7.3-7.3h1.7c4 .3 7 3.5 7.3 7.3v1.7c-.3 3.9-3.3 6.9-7.3 7.3z"/><circle class="st0" cx="13.4" cy="13.6" r="5.5"/><circle class="st1" cx="13.5" cy="13.5" r="10.8"/></svg>