<svg id="Layer_1" xmlns="http://www.w3.org/2000/svg" viewBox="0 0 276 82.7"><style>.st0{fill:none}.st1{enable-background:new}.st2{fill:#fff}</style><path class="st0" d="M59.2 35.8h221.3v54.3H59.2z"/><g class="st1"><path class="st2" d="M68.4 60.7l-3.5 10.6h-4.5l11.5-33.7h5.3l11.5 33.7H84l-3.6-10.6h-12zm11.1-3.4l-3.3-9.7c-.8-2.2-1.3-4.2-1.8-6.2h-.1c-.5 2-1 4.1-1.7 6.1l-3.3 9.8h10.2zM93.3 55c0-3.1-.1-5.6-.2-7.9h4l.2 4.2h.1c1.8-3 4.7-4.7 8.6-4.7 5.9 0 10.3 5 10.3 12.3 0 8.7-5.3 13-11 13-3.2 0-6-1.4-7.5-3.8h-.1v13.2h-4.4V55zm4.3 6.5c0 .7.1 1.3.2 1.8.8 3.1 3.5 5.2 6.6 5.2 4.7 0 7.4-3.8 7.4-9.4 0-4.8-2.5-9-7.2-9-3 0-5.8 2.2-6.7 5.5-.2.5-.3 1.2-.3 1.8v4.1zm24.1-6.5c0-3.1-.1-5.6-.2-7.9h4l.2 4.2h.1c1.8-3 4.7-4.7 8.6-4.7 5.9 0 10.3 5 10.3 12.3 0 8.7-5.3 13-11 13-3.2 0-6-1.4-7.5-3.8h-.1v13.2h-4.4V55zm4.4 6.5c0 .7.1 1.3.2 1.8.8 3.1 3.5 5.2 6.6 5.2 4.7 0 7.4-3.8 7.4-9.4 0-4.8-2.5-9-7.2-9-3 0-5.8 2.2-6.7 5.5-.2.5-.3 1.2-.3 1.8v4.1zm34.2 4.5c2 1.2 4.8 2.2 7.8 2.2 4.5 0 7-2.3 7-5.8 0-3.2-1.8-5-6.3-6.7-5.5-2-8.9-4.8-8.9-9.6 0-5.3 4.4-9.2 10.9-9.2 3.5 0 6 .8 7.5 1.6l-1.2 3.6c-1.1-.6-3.4-1.6-6.4-1.6-4.6 0-6.4 2.7-6.4 5.1 0 3.2 2.1 4.7 6.7 6.5 5.7 2.2 8.6 5 8.6 9.9 0 5.2-3.8 9.7-11.8 9.7-3.3 0-6.8-1-8.6-2.2l1.1-3.5zm30.3-25.8v6.9h6.3v3.4h-6.3v13.1c0 3 .9 4.7 3.3 4.7 1.1 0 2-.1 2.5-.3l.2 3.3c-.9.3-2.2.6-3.9.6-2 0-3.7-.7-4.8-1.8-1.3-1.3-1.7-3.5-1.7-6.3V50.5h-3.8v-3.4h3.8v-5.8l4.4-1.1zM223.4 59c0 9-6.2 12.9-12.1 12.9-6.6 0-11.6-4.8-11.6-12.5 0-8.1 5.3-12.9 12-12.9 7 .1 11.7 5.1 11.7 12.5zm-19.2.3c0 5.3 3 9.3 7.4 9.3 4.2 0 7.4-4 7.4-9.4 0-4.1-2.1-9.3-7.3-9.3s-7.5 4.8-7.5 9.4zm24.8-4.6c0-2.8 0-5.3-.2-7.6h3.9l.1 4.8h.2c1.1-3.3 3.8-5.3 6.7-5.3.5 0 .9 0 1.3.2V51c-.4-.1-.9-.2-1.5-.2-3.1 0-5.3 2.4-5.9 5.7-.1.6-.2 1.3-.2 2.1v12.9H229V54.7zm18.3 5.3c.1 6 3.9 8.4 8.3 8.4 3.2 0 5.1-.5 6.7-1.3l.8 3.2c-1.6.7-4.2 1.5-8.1 1.5-7.5 0-11.9-4.9-11.9-12.2 0-7.3 4.3-13.1 11.4-13.1 7.9 0 10 7 10 11.4 0 .9-.1 1.6-.1 2h-17.1zm12.9-3.1c0-2.8-1.1-7.2-6.1-7.2-4.5 0-6.4 4.1-6.8 7.2h12.9z"/></g><path class="st0" d="M59.2 3.8H278v21.9H59.2z"/><g class="st1"><path class="st2" d="M61.5 5.2c1.6-.3 3.5-.5 5.5-.5 3.8 0 6.4.9 8.2 2.5 1.8 1.7 2.8 4 2.8 7.3s-1 6-2.9 7.9c-1.9 1.9-5 2.9-8.9 2.9-1.9 0-3.4-.1-4.7-.2V5.2zM64.1 23c.7.1 1.6.2 2.6.2 5.6 0 8.6-3.1 8.6-8.6 0-4.8-2.7-7.8-8.2-7.8-1.4 0-2.4.1-3.1.3V23zm30.5-5.3c0 5.4-3.7 7.7-7.2 7.7-3.9 0-7-2.9-7-7.5 0-4.9 3.2-7.7 7.2-7.7 4.2.1 7 3.1 7 7.5zm-11.5.2c0 3.2 1.8 5.6 4.4 5.6 2.5 0 4.4-2.4 4.4-5.6 0-2.5-1.2-5.6-4.4-5.6-3-.1-4.4 2.8-4.4 5.6zm15.7-7.3l1.9 7.4c.4 1.6.8 3.1 1.1 4.6h.1c.3-1.5.8-3 1.3-4.6l2.4-7.4h2.2l2.2 7.3c.5 1.7 1 3.3 1.3 4.7h.1c.2-1.5.6-3 1.1-4.7l2.1-7.3h2.6l-4.7 14.5h-2.4l-2.2-6.9c-.5-1.6-.9-3.1-1.3-4.8h-.1c-.4 1.7-.8 3.2-1.3 4.8l-2.3 6.9h-2.4l-4.4-14.5h2.7zm21 3.9c0-1.5 0-2.7-.1-3.9h2.3l.1 2.4h.1c.7-1.4 2.4-2.7 4.8-2.7 2 0 5.1 1.2 5.1 6.2v8.7h-2.6v-8.4c0-2.3-.9-4.3-3.4-4.3-1.7 0-3.1 1.2-3.5 2.7-.1.3-.2.8-.2 1.2v8.7h-2.6V14.5zm16.7-10.7h2.6v21.3h-2.6V3.8zm20.2 13.9c0 5.4-3.7 7.7-7.2 7.7-3.9 0-7-2.9-7-7.5 0-4.9 3.2-7.7 7.2-7.7 4.2.1 7 3.1 7 7.5zm-11.5.2c0 3.2 1.8 5.6 4.4 5.6 2.5 0 4.4-2.4 4.4-5.6 0-2.5-1.2-5.6-4.4-5.6-3.1-.1-4.4 2.8-4.4 5.6zm22.9 7.2l-.2-1.8h-.1c-.8 1.1-2.4 2.2-4.4 2.2-2.9 0-4.4-2.1-4.4-4.2 0-3.5 3.1-5.4 8.7-5.4v-.3c0-1.2-.3-3.4-3.3-3.4-1.3 0-2.8.4-3.8 1.1l-.6-1.7c1.2-.8 2.9-1.3 4.8-1.3 4.4 0 5.5 3 5.5 5.9v5.4c0 1.3.1 2.5.2 3.5h-2.4zm-.4-7.4c-2.9-.1-6.2.5-6.2 3.3 0 1.7 1.1 2.5 2.5 2.5 1.9 0 3.1-1.2 3.5-2.4.1-.3.2-.6.2-.8v-2.6zM187 3.8v17.5c0 1.3 0 2.8.1 3.8h-2.4l-.1-2.5h-.1c-.8 1.6-2.6 2.8-5 2.8-3.5 0-6.2-3-6.2-7.4 0-4.8 3-7.8 6.5-7.8 2.2 0 3.7 1 4.4 2.2h.1V3.8h2.7zm-2.6 12.7c0-.3 0-.8-.1-1.1-.4-1.7-1.8-3.1-3.8-3.1-2.7 0-4.3 2.4-4.3 5.6 0 2.9 1.4 5.4 4.3 5.4 1.8 0 3.4-1.2 3.9-3.2.1-.4.1-.7.1-1.1v-2.5zm26.5 1.2c0 5.4-3.7 7.7-7.2 7.7-3.9 0-7-2.9-7-7.5 0-4.9 3.2-7.7 7.2-7.7 4.2.1 7 3.1 7 7.5zm-11.5.2c0 3.2 1.8 5.6 4.4 5.6 2.5 0 4.4-2.4 4.4-5.6 0-2.5-1.2-5.6-4.4-5.6-3.1-.1-4.4 2.8-4.4 5.6zm14.8-3.4c0-1.5 0-2.7-.1-3.9h2.3l.1 2.4h.1c.7-1.4 2.4-2.7 4.8-2.7 2 0 5.1 1.2 5.1 6.2v8.7H224v-8.4c0-2.3-.9-4.3-3.4-4.3-1.7 0-3.1 1.2-3.5 2.7-.1.3-.2.8-.2 1.2v8.7h-2.6V14.5zm26.2-8.1v4.2h3.8v2h-3.8v7.8c0 1.8.5 2.8 2 2.8.7 0 1.2-.1 1.5-.2l.1 2c-.5.2-1.3.4-2.3.4-1.2 0-2.2-.4-2.9-1.1-.8-.8-1-2.1-1-3.8v-7.9h-2.3v-2h2.3V7.1l2.6-.7zm6.8-2.6h2.6v9.1h.1c.4-.8 1.1-1.4 1.9-1.9.8-.5 1.7-.8 2.7-.8 2 0 5.1 1.2 5.1 6.2V25H257v-8.3c0-2.3-.9-4.3-3.4-4.3-1.7 0-3.1 1.2-3.5 2.6-.2.4-.2.8-.2 1.3v8.8h-2.6V3.8zm18.1 14.5c.1 3.6 2.3 5 5 5 1.9 0 3-.3 4-.8l.5 1.9c-.9.4-2.5.9-4.8.9-4.5 0-7.1-2.9-7.1-7.3s2.6-7.8 6.8-7.8c4.7 0 6 4.2 6 6.8 0 .5-.1 1-.1 1.2h-10.3zm7.7-1.9c0-1.7-.7-4.3-3.7-4.3-2.7 0-3.8 2.5-4 4.3h7.7z"/></g><path class="st2" d="M41.2 40.9c-.1-7.5 6.1-11.1 6.4-11.3-3.5-5.1-8.9-5.8-10.8-5.9-4.6-.5-9 2.7-11.3 2.7s-5.9-2.6-9.7-2.6c-5 .1-9.6 2.9-12.2 7.4-5.2 9-1.3 22.4 3.7 29.8 2.5 3.6 5.4 7.6 9.3 7.5 3.7-.1 5.2-2.4 9.7-2.4s5.8 2.4 9.8 2.3 6.6-3.7 9-7.3c2.9-4.2 4-8.2 4.1-8.4-.1.1-7.9-2.9-8-11.8zm-7.4-22c2.1-2.5 3.5-6 3.1-9.4-3 .1-6.6 2-8.7 4.5-1.9 2.2-3.6 5.7-3.1 9.1 3.2.3 6.6-1.7 8.7-4.2z"/></svg>