<svg xmlns="http://www.w3.org/2000/svg" viewBox="0 0 500 500"><g fill="#1476c6"><path d="M282 469.6c-.8.8-2.4 1.6-3.2 1.6-3.2 1.6-6.4 1.6-8.8 1.6-3.2 0-8 0-12.8-4-6.4-4.8-9.6-12.8-9.6-20 0-14.4 12-21.6 21.6-21.6 3.2 0 7.2.8 9.6 2.4 4.8 3.2 5.6 7.2 6.4 9.6l-22.4 8.8-7.2.8c2.4 12 10.4 19.2 19.2 19.2 4.8 0 8-1.6 11.2-3.2l-4 4.8zm-8.8-28c1.6-.8 2.4-1.6 2.4-2.4 0-4-4-8-9.6-8-4 0-10.4 3.2-10.4 12.8v4.8l17.6-7.2"/><path d="M246 471.2h-16.8c2.4-2.4 2.4-3.2 2.4-4.8V424c0-4.8.8-10.4.8-15.2h-7.2l7.2-3.2H246c-3.2 1.6-4 2.4-4 5.6-.8 7.2-.8 18.4-.8 32v21.6c0 4 .8 4 4 4.8 1.6 0 3.2 0 4.8.8l-4 .8M214.8 432c2.4 1.6 6.4 5.6 6.4 12.8 0 7.2-4 10.4-8 13.6-1.6 1.6-2.4 2.4-2.4 4.8s1.6 3.2 2.4 4l3.2 2.4c4 3.2 8 6.4 8 12.8 0 8.8-8.8 17.6-24.8 17.6-13.6 0-20-6.4-20-13.6 0-3.2 1.6-8 7.2-11.2 5.6-3.2 13.6-4 17.6-4-1.6-1.6-3.2-3.2-3.2-6.4 0-1.6.8-2.4.8-4h-3.2c-9.6 0-15.2-7.2-15.2-14.4 0-4 1.6-8.8 5.6-12.8 5.6-4 12-4.8 16.8-4.8h19.2l-6.4 3.2h-4zm-6.4 41.6H206c-.8 0-5.6 0-9.6 1.6-2.4.8-8 3.2-8 9.6s6.4 11.2 16.8 11.2c8.8 0 13.6-4 13.6-10.4 0-4-3.2-6.4-10.4-12m2.4-17.6c2.4-2.4 2.4-4.8 2.4-7.2 0-6.4-4-17.6-12-17.6-2.4 0-4.8 1.6-6.4 3.2-1.6 1.6-2.4 4.8-2.4 7.2 0 6.4 4 16.8 12 16.8 2.4.8 5.6-.8 6.4-2.4m-53.6 16.8c-15.2 0-23.2-12-23.2-22.4 0-12 10.4-22.4 24-22.4s22.4 10.4 22.4 22.4c.8 10.4-8 22.4-23.2 22.4m12-8c2.4-3.2 2.4-6.4 2.4-10.4 0-8-4-24-15.2-24-3.2 0-6.4 1.6-8.8 3.2-4 3.2-4 7.2-4 11.2 0 9.6 4.8 24.8 16 24.8 3.2 0 7.2-1.6 9.6-4.8m-61.6 8c-15.2 0-23.2-12-23.2-22.4 0-12 10.4-22.4 24-22.4s22.4 10.4 22.4 22.4c0 10.4-8 22.4-23.2 22.4m11.2-8c2.4-3.2 3.2-6.4 3.2-10.4 0-8-4-24-15.2-24-3.2 0-6.4 1.6-8.8 3.2-4 3.2-4 7.2-4 11.2 0 9.6 4.8 24.8 16 24.8 3.2 0 7.2-1.6 8.8-4.8m-40 4.8L66 472c-4.8.8-9.6 1.6-14.4 1.6-24 0-33.6-17.6-33.6-32 0-16.8 12.8-32.8 35.2-32.8 4.8 0 9.6.8 13.6 1.6 6.4 1.6 9.6 4 11.2 5.6l-7.2 7.2-3.2.8 2.4-3.2c-3.2-3.2-8.8-8-18.4-8-13.6 0-24 10.4-24 25.6 0 16.8 12 32 31.2 32 5.6 0 8.8-.8 11.2-2.4v-14.4l-13.6.8 7.2-4H82l-2.4 2.4c-.8.8-.8.8-.8 1.6v15.2m244 1.6h-6.4L306 428.8h5.6l8 38.4 8-38.4h6.4l8.8 38.4 8-38.4h4.8l-9.6 42.4h-6.4l-8-37.6-8.8 37.6m64-28.8c0-7.2-3.2-9.6-10.4-9.6-5.6 0-8.8 3.2-9.6 8l-4.8-.8c.8-7.2 6.4-11.2 14.4-11.2 9.6 0 14.4 4 14.4 13.6V464c0 4 0 6.4.8 8h-4.8c-.8-.8-.8-3.2-.8-4.8-2.4 3.2-6.4 5.6-11.2 5.6-8 0-13.6-4.8-13.6-14.4 0-8.8 6.4-13.6 15.2-13.6 4 0 8 .8 10.4 1.6v-4zm0 8.8c-2.4-.8-5.6-2.4-10.4-2.4-5.6 0-10.4 3.2-10.4 8.8 0 6.4 4 9.6 9.6 9.6 4.8 0 8.8-3.2 11.2-7.2v-8.8m14.4 20h4.8v-60.8h-4.8v60.8zm15.2 0h4.8v-60.8h-4.8v60.8zm28.8-3.2c4.8 0 8.8-3.2 9.6-11.2l4.8.8c-1.6 10.4-7.2 15.2-14.4 15.2-10.4 0-16-7.2-16-22.4 0-13.6 4.8-21.6 15.2-21.6 11.2 0 15.2 8.8 15.2 21.6v1.6H434c0 10.4 4 16 11.2 16m9.6-21.6c0-8-3.2-14.4-10.4-14.4-6.4 0-10.4 5.6-10.4 14.4h20.8m27.2 24.8c-.8.8-3.2.8-4.8.8-6.4 0-8-3.2-8-9.6v-29.6h-5.6v-4h5.6v-13.6l4.8-1.6v15.2h8v4h-8.8v28.8c0 4 .8 4.8 4 4.8 1.6 0 3.2 0 4-.8v5.6M194 164c-20.8-28.8-49.6-53.6-82.4-71.2-4.8-2.4-10.4-4-16-4-12.8 0-24 7.2-30.4 18.4-8.8 16.8-2.4 37.6 14.4 46.4C130 180.8 162.8 232 166.8 292c-.8-6.4.8-12.8 3.2-19.2.8-.8.8-1.6 1.6-2.4 16-25.6 24-56 24-86.4-.8-7.2-.8-13.6-1.6-20"/></g><path d="M393.2 99.2C386.8 72.8 378 46.4 366 21.6 359.6 8.8 346 0 331.6 0c-5.6 0-11.2 1.6-16 4-19.2 8.8-27.2 32-17.6 50.4 19.2 40.8 28.8 84 28.8 128.8s-9.6 88-28.8 128c0 .8-4 8-4 16 0 2.4 0 5.6.8 8.8 2.4 10.4 9.6 20.8 20.8 25.6 4.8 2.4 10.4 4 16 4 13.6 0 26.4-8 33.6-20 7.2-14.4 15.2-32.8 21.6-56.8 2.4-7.2 4-14.4 5.6-21.6 6.4-27.2 9.6-55.2 9.6-84 .8-28-2.4-56.8-8.8-84" fill="#47ae33"/><path d="M233.2 60c-.8-.8-1.6-2.4-2.4-3.2-2.4-3.2-5.6-6.4-8.8-8-5.6-4.8-12.8-6.4-20-6.4-5.6 0-8.8.8-12.8 2.4s-8.8 4-12.8 8-6.4 8.8-8 13.6c-3.2 8.8-3.2 21.6 3.2 31.2 12.8 20 20 43.2 22.4 67.2.8 6.4.8 12.8.8 19.2 0 30.4-8 60-24 86.4-.8.8-.8 1.6-1.6 2.4-3.2 6.4-4 12.8-3.2 19.2.8 11.2 7.2 21.6 17.6 28 2.4 1.6 5.6 2.4 8 4 3.2.8 7.2 1.6 10.4 1.6 12.8 0 24-6.4 31.2-17.6 20-32.8 31.2-69.6 34.4-108 0-4.8.8-10.4.8-15.2-.8-45.6-12.8-88-35.2-124.8" fill="#ed114c"/><path d="M298 311.2c19.2-40 28.8-83.2 28.8-128 0-15.2-.8-26.4-1.6-33.6-24.8-40-60.8-75.2-103.2-101.6l.8.8c3.2 2.4 5.6 4 8 8 .8.8 1.6 1.6 2.4 3.2 22.4 36.8 34.4 80 34.4 123.2 0 5.6 0 10.4-.8 15.2 18.4 34.4 28 73.6 28 114.4v12c0-4 1.6-8.8 2.4-12.8.8 0 .8-.8.8-.8" fill="#fbbf16"/><path d="M222.8 48.8c.8.8 2.4 1.6 3.2 2.4-.8 0-.8-.8-1.6-.8-.8-.8-1.6-1.6-3.2-1.6.8-.8 1.6 0 1.6 0zm73.6 144.8c-12-56-36-104-64.8-136.8.8.8 1.6 1.6 1.6 2.4 22.4 36.8 34.4 80 34.4 123.2 0 5.6 0 10.4-.8 15.2 18.4 34.4 28 73.6 28 114.4v12c0-4 1.6-8.8 2.4-12.8 0-.8.8-1.6.8-1.6l5.6-32c.8-25.6-.8-54.4-7.2-84z" fill="#f98e19"/><path d="M166 292s0-.8 0 0c0-.8 0 0 0 0zm28-128c-13.6-19.2-32-36.8-52-52 3.2 9.6 6.4 20 8.8 29.6 12.8 50.4 17.6 99.2 14.4 140 0 3.2.8 6.4.8 8.8-.8-6.4.8-12.8 3.2-19.2.8-.8.8-1.6 1.6-2.4 16-25.6 24-56 24-86.4 0-5.6 0-12-.8-18.4z" fill="#0f51b2"/><path d="M298 312c36.8-45.6 62.4-136.8 62.4-241.6 0-20.8-.8-40.8-3.2-60C350 4 341.2.8 332.4.8c-5.6 0-11.2 1.6-16 4-19.2 8.8-27.2 32-17.6 50.4 19.2 40.8 28.8 84 28.8 128.8s-9.6 88-28.8 128c-.8-.8-.8-.8-.8 0z" fill="#48c92d"/><path d="M169.2 272c-1.6 3.2-2.4 7.2-3.2 11.2 30.4-36 52-109.6 52-194.4 0-15.2-.8-29.6-1.6-44-4.8-1.6-9.6-2.4-14.4-2.4-5.6 0-8.8.8-12.8 2.4s-8.8 4-12.8 8-6.4 8.8-8 13.6c-3.2 8.8-3.2 21.6 3.2 31.2 12.8 20 20 43.2 22.4 67.2.8 6.4.8 12.8.8 19.2 0 30.4-8 60-24 86.4l-1.6 1.6z" fill="#ff4382"/></svg>