<svg id="Layer_1" xmlns="http://www.w3.org/2000/svg" viewBox="0 0 276 82.7"><style>.st0{fill:#5cdadd}.st1{fill:#bdecc4}.st2{fill:#dc68a1}.st3{fill:#ffca96}.st4{fill:#282828}</style><path class="st0" d="M0 12.2v56.5l29.7-28.8z"/><path class="st1" d="M37.5 32.1l-11.8-6.7L0 12.2l29.7 27.7z"/><path class="st2" d="M0 68.7l25.7-14.2 11.8-6.7-7.8-7.9z"/><path class="st3" d="M37.5 32.1l-7.7 7.8 7.7 7.8 12-6.9c.7-.4.7-1.3 0-1.7l-12-7z"/><path class="st4" d="M191.4 67.3c-.4.4-1.2.8-1.6.8-1.6.8-3.2.8-4.4.8-1.6 0-4 0-6.5-2-3.2-2.4-4.9-6.5-4.9-10.1 0-7.3 6.1-10.9 10.9-10.9 1.6 0 3.6.4 4.9 1.2 2.4 1.6 2.8 3.6 3.2 4.9l-11.3 4.4-3.6.4c1.2 6.1 5.3 9.7 9.7 9.7 2.4 0 4-.8 5.7-1.6l-2.1 2.4zM187 53.2c.8-.4 1.2-.8 1.2-1.2 0-2-2-4-4.9-4-2 0-5.3 1.6-5.3 6.5v2.4l9-3.7"/><path class="st4" d="M173.3 68.1h-8.5c1.2-1.2 1.2-1.6 1.2-2.4V44.3c0-2.4.4-5.3.4-7.7h-3.6l3.6-1.6h6.9c-1.6.8-2 1.2-2 2.8-.4 3.6-.4 9.3-.4 16.2v10.9c0 2 .4 2 2 2.4.8 0 1.6 0 2.4.4l-2 .4m-15.8-19.8c1.2.8 3.2 2.8 3.2 6.5 0 3.6-2 5.3-4 6.9-.8.8-1.2 1.2-1.2 2.4s.8 1.6 1.2 2l1.6 1.2c2 1.6 4 3.2 4 6.5 0 4.4-4.4 8.9-12.5 8.9-6.9 0-10.1-3.2-10.1-6.9 0-1.6.8-4 3.6-5.7 2.8-1.6 6.9-2 8.9-2-.8-.8-1.6-1.6-1.6-3.2 0-.8.4-1.2.4-2h-1.6c-4.9 0-7.7-3.6-7.7-7.3 0-2 .8-4.4 2.8-6.5 2.8-2 6.1-2.4 8.5-2.4h9.7l-3.2 1.6h-2zm-3.3 21H153c-.4 0-2.8 0-4.9.8-1.2.4-4 1.6-4 4.9s3.2 5.7 8.5 5.7c4.4 0 6.9-2 6.9-5.3 0-2-1.6-3.2-5.3-6.1m1.3-8.9c1.2-1.2 1.2-2.4 1.2-3.6 0-3.2-2-8.9-6.1-8.9-1.2 0-2.4.8-3.2 1.6-.8.8-1.2 2.4-1.2 3.6 0 3.2 2 8.5 6.1 8.5 1.1.5 2.8-.3 3.2-1.2m-27.1 8.5c-7.7 0-11.7-6.1-11.7-11.3 0-6.1 5.3-11.3 12.1-11.3 6.9 0 11.3 5.3 11.3 11.3.4 5.3-4.1 11.3-11.7 11.3m6-4c1.2-1.6 1.2-3.2 1.2-5.3 0-4-2-12.1-7.7-12.1-1.6 0-3.2.8-4.4 1.6-2 1.6-2 3.6-2 5.7 0 4.9 2.4 12.5 8.1 12.5 1.6 0 3.6-.8 4.8-2.4m-31.1 4c-7.7 0-11.7-6.1-11.7-11.3 0-6.1 5.3-11.3 12.1-11.3S115 51.5 115 57.6c0 5.3-4 11.3-11.7 11.3m5.7-4c1.2-1.6 1.6-3.2 1.6-5.3 0-4-2-12.1-7.7-12.1-1.6 0-3.2.8-4.4 1.6-2 1.6-2 3.6-2 5.7 0 4.9 2.4 12.5 8.1 12.5 1.5 0 3.5-.8 4.4-2.4m-20.3 2.4l-6.5 1.2c-2.4.4-4.9.8-7.3.8-12.1 0-17-8.9-17-16.2 0-8.5 6.5-16.6 17.8-16.6 2.4 0 4.9.4 6.9.8 3.2.8 4.9 2 5.7 2.8l-3.6 3.6-1.6.4 1.2-1.6c-1.6-1.6-4.4-4-9.3-4-6.9 0-12.1 5.3-12.1 12.9 0 8.5 6.1 16.2 15.8 16.2 2.8 0 4.4-.4 5.7-1.2v-7.3l-6.9.4 3.6-2h9.3l-1.2 1.2c-.4.4-.4.4-.4.8v7.8m117.5-13.1c0-2.8-.1-5-.2-7.1h3.6l.2 3.7h.1c1.6-2.7 4.2-4.2 7.7-4.2 5.3 0 9.2 4.5 9.2 11.1 0 7.8-4.8 11.7-9.9 11.7-2.9 0-5.4-1.3-6.7-3.4h-.1v11.8h-3.9V54.2zm3.9 5.8c0 .6.1 1.1.2 1.6.7 2.7 3.1 4.6 5.9 4.6 4.2 0 6.6-3.4 6.6-8.4 0-4.4-2.3-8.1-6.5-8.1-2.7 0-5.2 1.9-6 4.9-.1.5-.3 1.1-.3 1.6V60zm19.9-23h4v31.9h-4V37zm20.8 31.9l-.3-2.7h-.1c-1.2 1.7-3.6 3.2-6.7 3.2-4.4 0-6.7-3.1-6.7-6.3 0-5.3 4.7-8.1 13.1-8.1v-.5c0-1.8-.5-5-4.9-5-2 0-4.1.6-5.7 1.6l-.9-2.6c1.8-1.2 4.4-1.9 7.2-1.9 6.7 0 8.3 4.5 8.3 8.9v8.1c0 1.9.1 3.7.4 5.2h-3.7zm-.5-11.1c-4.3-.1-9.2.7-9.2 4.9 0 2.6 1.7 3.8 3.7 3.8 2.8 0 4.6-1.8 5.3-3.6.1-.4.2-.9.2-1.3v-3.8zm9.4-10.7l4.8 12.9c.5 1.4 1 3.1 1.4 4.5h.1c.4-1.3.9-3 1.4-4.5l4.3-12.8h4.2l-5.9 15.5c-2.8 7.5-4.8 11.3-7.5 13.6-1.9 1.7-3.9 2.4-4.9 2.6l-1-3.3c1-.3 2.3-.9 3.5-1.9 1.1-.9 2.4-2.4 3.3-4.4.2-.4.3-.7.3-.9 0-.2-.1-.5-.3-1l-8.1-20.1h4.4zM74.9 24.2c-1.2.4-3.5 1.1-6.2 1.1-3.1 0-5.6-.8-7.6-2.7-1.7-1.7-2.8-4.4-2.8-7.5 0-6 4.2-10.4 10.9-10.4 2.3 0 4.2.5 5 .9l-.6 2.1c-1.1-.5-2.4-.9-4.5-.9-4.9.1-8.1 3.1-8.1 8.2s3.1 8.2 7.8 8.2c1.7 0 2.9-.2 3.5-.5v-6h-4.1v-2.1h6.7v9.6zm5.5-5.9c.1 3.6 2.3 5 5 5 1.9 0 3-.3 4-.8l.5 1.9c-.9.4-2.5.9-4.8.9-4.5 0-7.1-2.9-7.1-7.3s2.6-7.8 6.8-7.8c4.7 0 6 4.2 6 6.8 0 .5-.1 1-.1 1.2H80.4zm7.7-1.9c0-1.7-.7-4.3-3.7-4.3-2.7 0-3.8 2.5-4 4.3h7.7zm9-10v4.2h3.8v2h-3.8v7.8c0 1.8.5 2.8 2 2.8.7 0 1.2-.1 1.5-.2l.1 2c-.5.2-1.3.4-2.3.4-1.2 0-2.2-.4-2.9-1.1-.8-.8-1-2.1-1-3.8v-7.9h-2.3v-2h2.3V7.1l2.6-.7zm16.1.1c0 .9-.6 1.6-1.7 1.6-.9 0-1.6-.7-1.6-1.6 0-.9.7-1.6 1.6-1.6 1 0 1.7.7 1.7 1.6zm-3 18.6V10.6h2.6v14.5h-2.6zm10.2-18.7v4.2h3.8v2h-3.8v7.8c0 1.8.5 2.8 2 2.8.7 0 1.2-.1 1.5-.2l.1 2c-.5.2-1.3.4-2.3.4-1.2 0-2.2-.4-2.9-1.1-.8-.8-1-2.1-1-3.8v-7.9h-2.3v-2h2.3V7.1l2.6-.7zm26.3 11.3c0 5.4-3.7 7.7-7.2 7.7-3.9 0-7-2.9-7-7.5 0-4.9 3.2-7.7 7.2-7.7 4.2.1 7 3.1 7 7.5zm-11.5.2c0 3.2 1.8 5.6 4.4 5.6 2.5 0 4.4-2.4 4.4-5.6 0-2.5-1.2-5.6-4.4-5.6-3.1-.1-4.4 2.8-4.4 5.6zm14.8-3.4c0-1.5 0-2.7-.1-3.9h2.3l.1 2.4h.1c.7-1.4 2.4-2.7 4.8-2.7 2 0 5.1 1.2 5.1 6.2v8.7h-2.6v-8.4c0-2.3-.9-4.3-3.4-4.3-1.7 0-3.1 1.2-3.5 2.7-.1.3-.2.8-.2 1.2v8.7H150V14.5zm23 .8c0-1.9-.1-3.4-.1-4.7h2.4l.1 2.5h.1c1.1-1.8 2.8-2.8 5.2-2.8 3.5 0 6.2 3 6.2 7.4 0 5.2-3.2 7.8-6.6 7.8-1.9 0-3.6-.8-4.5-2.3h-.1v7.9H173V15.3zm2.6 3.9c0 .4.1.8.1 1.1.5 1.8 2.1 3.1 4 3.1 2.8 0 4.4-2.3 4.4-5.6 0-2.9-1.5-5.4-4.3-5.4-1.8 0-3.5 1.3-4 3.3-.1.3-.2.7-.2 1.1v2.4zm14.5-15.4h2.6v21.3h-2.6V3.8zm15.1 21.3l-.2-1.8h-.1c-.8 1.1-2.4 2.2-4.4 2.2-2.9 0-4.4-2.1-4.4-4.2 0-3.5 3.1-5.4 8.7-5.4v-.3c0-1.2-.3-3.4-3.3-3.4-1.3 0-2.8.4-3.8 1.1l-.6-1.7c1.2-.8 2.9-1.3 4.8-1.3 4.4 0 5.5 3 5.5 5.9v5.4c0 1.3.1 2.5.2 3.5h-2.4zm-.4-7.4c-2.9-.1-6.2.4-6.2 3.3 0 1.7 1.1 2.5 2.5 2.5 1.9 0 3.1-1.2 3.5-2.4.1-.3.2-.6.2-.8v-2.6zm7.5-7.1l3.2 8.6c.3 1 .7 2.1.9 3h.1c.3-.9.6-2 .9-3l2.9-8.5h2.8l-4 10.3c-1.9 5-3.2 7.5-5 9.1-1.3 1.1-2.6 1.6-3.2 1.7l-.7-2.2c.7-.2 1.5-.6 2.3-1.3.7-.6 1.6-1.6 2.2-2.9.1-.3.2-.5.2-.6 0-.1-.1-.4-.2-.7l-5.4-13.4h3z"/></svg>