<svg id="Layer_1" xmlns="http://www.w3.org/2000/svg" viewBox="0 0 512 512"><style>.st0{fill:#00b956}.st1{fill:#00952f}.st2{fill:#fff}.st3{fill:#b8d1e6}.st4{fill:#e6cb05}.st5{fill:#f2f9ff}.st6{fill:#ffd006}.st7{fill:#ffd60a}</style><path class="st0" d="M512 256c0 141.4-114.6 256-256 256S0 397.4 0 256 114.6 0 256 0s256 114.6 256 256z"/><path class="st1" d="M384 147.5L128 258.4 359.6 490c84.3-37.4 144.6-118.9 151.6-215.3L384 147.5z"/><path class="st2" d="M217.5 345.1c-.7 0-1.2-.6-1.2-1.2.1-1.8 0-3.6-.1-5.4 0-.7.5-1.2 1.1-1.3.6-.1 1.2.5 1.3 1.1.1 1.9.1 3.8.1 5.6 0 .7-.5 1.2-1.2 1.2zm-97.6 109.8c-.3 0-.7-.2-.9-.4-.4-.5-.3-1.3.2-1.7 2.8-2.3 5.6-4.6 8.3-7.1.5-.4 1.2-.4 1.7.1.4.5.4 1.2-.1 1.7-2.8 2.4-5.6 4.8-8.4 7.1-.3.2-.5.3-.8.3zm16.5-14.5c-.3 0-.6-.1-.9-.4-.4-.5-.4-1.2.1-1.7 2.7-2.5 5.3-5.1 7.8-7.6.5-.5 1.2-.5 1.7 0s.5 1.2 0 1.7c-2.6 2.6-5.2 5.2-7.9 7.7-.2.2-.5.3-.8.3zm15.4-15.6c-.3 0-.6-.1-.8-.3-.5-.4-.5-1.2-.1-1.7 2.5-2.7 4.9-5.5 7.2-8.2.4-.5 1.2-.6 1.7-.2s.6 1.2.2 1.7c-2.3 2.8-4.7 5.6-7.2 8.3-.4.3-.7.4-1 .4zm14-16.8c-.2 0-.5-.1-.7-.2-.5-.4-.6-1.1-.2-1.7 2.2-3 4.3-6.1 6.2-9 .4-.5 1.1-.7 1.6-.4.6.4.7 1.1.4 1.6-1.9 3-4 6-6.3 9.1-.3.4-.7.6-1 .6zm12.2-19h-.6c-.7 0-1.2-.6-1.1-1.2 0-.5.3-.9.7-1 1.5-3 2.8-6 3.9-8.9.2-.6.9-.9 1.5-.7.6.2.9.9.7 1.5-1 2.6-2.1 5.2-3.4 7.9 2.8-.1 5.6-.6 8.2-1.4.6-.2 1.3.2 1.5.8.2.6-.2 1.3-.8 1.5-3.4.9-7 1.5-10.6 1.5zm-11.4-1.8h-.3c-3.6-1-7.1-2.5-10.4-4.3-.6-.3-.8-1-.5-1.6.3-.6 1-.8 1.6-.5 3.1 1.7 6.4 3 9.9 4.1.6.2 1 .8.8 1.5-.1.5-.6.8-1.1.8zm31.5-4.5c-.4 0-.8-.2-1-.5-.4-.5-.2-1.3.3-1.7 2.9-1.9 5.5-4.3 7.9-7.1.4-.5 1.2-.6 1.7-.1.5.4.6 1.2.1 1.7-2.5 2.9-5.3 5.5-8.4 7.5-.2.1-.4.2-.6.2zm-50.5-5.9c-.3 0-.6-.1-.8-.3-2.8-2.5-5.3-5.3-7.5-8.3-.4-.5-.3-1.3.3-1.7s1.3-.3 1.7.3c2.1 2.9 4.4 5.6 7.1 7.9.5.4.5 1.2.1 1.7-.3.3-.6.4-.9.4zm37.4-7.9h-.2c-.6-.1-1.1-.8-.9-1.4.6-3.2 1-6.4 1-9.4v-1.2c0-.7.5-1.2 1.2-1.2.8 0 1.2.5 1.2 1.2v1.3c0 3.2-.3 6.5-1 9.9-.2.4-.7.8-1.3.8zm27.2-2.7c-.2 0-.4 0-.5-.1-.6-.3-.8-1-.5-1.6 1.6-3.1 2.8-6.5 3.7-10 .2-.6.8-1 1.4-.9.6.2 1 .8.9 1.4-.9 3.7-2.2 7.2-3.9 10.5-.3.5-.7.7-1.1.7zm-77.2-7.1c-.5 0-.9-.3-1.1-.8-1.4-3.6-2.3-7.2-2.7-10.9-.1-.7.4-1.2 1.1-1.3.6-.1 1.2.4 1.3 1.1.4 3.4 1.2 6.9 2.6 10.3.2.6-.1 1.3-.7 1.5-.2 0-.3.1-.5.1zm49.5-11.9c-.5 0-1-.4-1.2-.9-.8-3.6-2.1-6.9-3.6-10-.3-.6-.1-1.3.5-1.6.6-.3 1.3-.1 1.6.5 1.6 3.3 2.9 6.8 3.8 10.5.2.6-.2 1.3-.9 1.4 0 .1-.1.1-.2.1zm-51.6-9.7h-.3c-.6-.1-1.1-.8-.9-1.4.8-3.9 2.4-7.4 4.5-10.4.4-.5 1.1-.7 1.7-.3.5.4.7 1.1.3 1.7-2 2.8-3.4 6-4.1 9.6-.2.5-.7.8-1.2.8zm41.9-9.7c-.3 0-.6-.1-.9-.4-2.5-2.8-5.2-5-8.2-6.6-.6-.3-.8-1-.5-1.6.3-.6 1-.8 1.6-.5 3.2 1.7 6.2 4.1 8.8 7.1.4.5.4 1.2-.1 1.7-.2.2-.5.3-.7.3zm-29.5-7.5c-.4 0-.8-.2-1-.6-.3-.6-.1-1.3.5-1.6 3.1-1.7 6.5-2.5 10.1-2.5h1.1c.7 0 1.2.6 1.1 1.3 0 .7-.6 1.3-1.2 1.1h-1c-3.2 0-6.2.8-9 2.2-.3.1-.4.1-.6.1zm-36.7 143.4c-.4 0-.7-.2-1-.5-.4-.5-.3-1.3.2-1.7 1.4-1.1 2.9-2.2 4.4-3.3.5-.4 1.3-.3 1.7.2.4.5.3 1.3-.2 1.7-1.5 1.1-2.9 2.2-4.4 3.3-.2.2-.5.3-.7.3z"/><path class="st3" d="M183.3 274.2l33.3 72.7L384 147.5z"/><path class="st4" d="M242 237.1l-58.7 37.1 33.3 72.7 49-58.3z"/><path class="st5" d="M208.1 281.2l90.8 25.9L384 147.5zM128 258.4l55.3 15.8L384 147.5z"/><path class="st6" d="M216.6 346.9l-8.5-65.7 51.4 14.6z"/><path class="st7" d="M128 258.4l114-21.3-58.7 37.1zm131.5-16.2l-51.4 39 90.8 25.9z"/></svg>