<svg xmlns="http://www.w3.org/2000/svg" viewBox="0 0 512 512"><circle cx="256" cy="256" r="256" fill="#273b7a"/><path d="M512 256c0-7.982-.384-15.87-1.098-23.666L350.594 72.027l-14.489 58.515v-7.856l-171.911 44.497 46.282 46.28 5.875 40.239 44.229 27.583-3.644 29.018L256 444.48l60.347 60.347C428.606 477.696 512 376.596 512 256zm-225.475 74.771l-.212-.212h.266l-.054.212z" fill="#121149"/><path d="M305.131 377.82c5.236 0 9.481-4.246 9.481-9.481s-4.246-9.481-9.481-9.481h-39.65v-74.867c27.826-4.546 49.131-28.743 49.131-57.835 0-32.32-26.293-58.613-58.613-58.613s-58.613 26.293-58.613 58.613c0 29.091 21.306 53.288 49.131 57.835v150.973c0 5.236 4.246 9.481 9.481 9.481 5.236 0 9.481-4.246 9.481-9.481v-8.011h39.65c5.236 0 9.481-4.246 9.481-9.481s-4.246-9.481-9.481-9.481h-39.65v-5.603h15.084c5.236 0 9.481-4.246 9.481-9.481s-4.246-9.481-9.481-9.481h-15.084v-5.603h39.652v-.003zM216.35 226.156c0-21.864 17.786-39.65 39.65-39.65s39.65 17.786 39.65 39.65-17.786 39.65-39.65 39.65-39.65-17.788-39.65-39.65z" fill="#fff"/><path d="M305.131 377.82c5.236 0 9.481-4.246 9.481-9.481s-4.246-9.481-9.481-9.481h-39.65v-74.867c27.826-4.546 49.131-28.743 49.131-57.835 0-32.32-26.293-58.613-58.613-58.613-.193 0-.383.012-.574.014v18.963c.191-.003.381-.014.574-.014 21.864 0 39.65 17.786 39.65 39.65s-17.786 39.65-39.65 39.65c-.193 0-.383-.012-.574-.014v178.626c.191.012.381.029.574.029 5.236 0 9.481-4.246 9.481-9.481v-8.011h39.65c5.236 0 9.481-4.246 9.481-9.481s-4.246-9.481-9.481-9.481h-39.65v-5.603h15.084c5.236 0 9.481-4.246 9.481-9.481s-4.246-9.481-9.481-9.481H265.48v-5.603h39.65v-.005z" fill="#d0d1d3"/><path d="M341.342 68.73H170.658c-8.089 0-14.645 6.556-14.645 14.645v70.682c0 8.089 6.556 14.645 14.645 14.645h65.345l13.955 26.15c2.579 4.832 9.506 4.832 12.083 0l13.957-26.15h65.345c8.089 0 14.645-6.556 14.645-14.645V83.375c-.001-8.089-6.557-14.645-14.646-14.645z" fill="#ffc61b"/><path d="M341.342 68.73h-85.916v129.708c2.56.21 5.222-.976 6.616-3.587l13.955-26.15h65.345c8.089 0 14.645-6.556 14.645-14.645V83.375c0-8.089-6.556-14.645-14.645-14.645z" fill="#eaa22f"/><path d="M312.889 119.811H199.111a6.034 6.034 0 1 1 0-12.068h113.778a6.034 6.034 0 1 1 0 12.068z" fill="#ffedb5"/><path d="M312.889 107.744h-57.463v12.067h57.463a6.034 6.034 0 1 0 0-12.067z" fill="#fee187"/></svg>