<svg id="Layer_1" xmlns="http://www.w3.org/2000/svg" width="125" height="25" viewBox="0 0 125 25"><style>.st0{fill:#505a91}.st1{fill:#374371}.st2{fill:#fff}.st3{fill:#d1d1d1}.st4{fill:#67a2d8}.st5{fill:#3c7da6}.st6{fill:#d04e3c}.st7{fill:#ae3228}.st8{fill:#dc4373}.st9{fill:#c13467}.st10{fill:#f0f1f1}.st11{fill:#4162ab}.st12{fill:#3655a2}</style><circle class="st0" cx="12.5" cy="12.5" r="12.5"/><path class="st1" d="M25 11.8l-5.9-5.9c-.1 0-.3-.1-.4-.1-2.5.4-5 0-7.4.7-1.2.4-1.3 1.8-1.7 2.7-.6 1.7-.6 3.6-1.3 5.2-.5 1.1-1.7 1.8-2.1 3-.1.5-.1 1.2-.3 1.7l5.9 5.9h.7C19.4 25 25 19.4 25 12.5v-.7z"/><path class="st2" d="M17.7 5.3H7.3c-1.1 0-1.9.9-1.9 1.9v10.5c0 1.1.9 1.9 1.9 1.9h5.2v-5.1h-1.3c-.2 0-.3-.1-.3-.3v-1.6c0-.2.1-.3.3-.3h1.3v-1.6c0-1.8 1.1-2.9 2.8-2.9h1.4c.2 0 .3.1.3.3v1.4c0 .2-.1.3-.3.3h-.8c-.9 0-1.1.4-1.1 1.1v1.4h2c.2 0 .3.2.3.4l-.2 1.6c0 .2-.2.3-.3.3h-1.8v5.1h3.1c1.1 0 1.9-.9 1.9-1.9V7.3c-.1-1.1-1-2-2.1-2zm-5.3 14.4v-5.2 5.2z"/><path class="st3" d="M17.7 5.3h-5.3v6.9-1.6c0-1.8 1.1-2.9 2.8-2.9h1.4c.2 0 .3.1.3.3v1.4c0 .2-.1.3-.3.3h-.8c-.9 0-1.1.4-1.1 1.1v1.4h2c.2 0 .3.2.3.4l-.2 1.6c0 .2-.2.3-.3.3h-1.8v5.1h3.1c1.1 0 1.9-.9 1.9-1.9V7.3c0-1.1-.9-2-2-2z"/><circle class="st4" cx="37.5" cy="12.5" r="12.5"/><path class="st5" d="M44.2 6.8c-1.3 1.1-2.6 2.1-3.7 3.5-2.6 3.1-5.8 7.6-10.1 6.9l7.7 7.7c6.6-.3 11.8-5.7 11.8-12.4l-5.7-5.7z"/><path class="st2" d="M44.4 7.9c-.3.1-.6.3-1 .3.4-.4.7-.8.8-1.3 0-.1-.1-.3-.2-.2-.5.3-1 .5-1.5.6h-.1c-.1 0-.2 0-.3-.1-.6-.5-1.3-.8-2-.8-.3 0-.7.1-1 .2-1 .3-1.8 1.1-2 2.2-.1.4-.1.8-.1 1.2v.1h-.1c-2.2-.2-4.2-1.3-5.6-3-.1-.1-.2-.1-.3 0-.3.5-.4 1-.4 1.6 0 .8.3 1.6.9 2.2-.2-.1-.5-.1-.7-.3-.1-.1-.2 0-.2.1 0 1.2.7 2.3 1.8 2.8h-.6c-.1 0-.2.1-.2.2.4 1.1 1.3 1.9 2.4 2.1-.9.6-2 1-3.2 1h-.4c-.1 0-.2.1-.2.2s0 .2.1.3c1.3.8 2.8 1.1 4.3 1.1 1.3 0 2.5-.3 3.6-.8 1-.5 1.9-1.1 2.7-2 .7-.8 1.2-1.7 1.6-2.7.4-1 .6-2 .6-3 0-.2.1-.3.2-.4.5-.4.9-.8 1.2-1.3.2-.2.1-.3-.1-.3z"/><path class="st3" d="M44.4 7.9c-.3.1-.6.3-1 .3.4-.4.7-.8.8-1.3 0-.1-.1-.3-.2-.2-.5.3-1 .5-1.5.6h-.1c-.1 0-.2 0-.3-.1-.6-.5-1.3-.8-2-.8-.3 0-.7.1-1 .2-.7.2-1.3.7-1.7 1.3v10l.9-.3c1-.5 1.9-1.1 2.7-2 .7-.8 1.2-1.7 1.6-2.7.4-1 .6-2 .6-3 0-.2.1-.3.2-.4.5-.4.9-.8 1.2-1.3.1-.2 0-.3-.2-.3z"/><circle class="st6" cx="62.5" cy="12.5" r="12.5"/><path class="st7" d="M68.2 10.5l-1.8 2.1L63 9.1h-4.6l-1.9 2v4.4l9 9c4.1-1 7.4-4.1 8.7-8l-6-6z"/><path class="st2" d="M60.4 13.4h2.2c-.4 1.1-1.5 1.9-2.7 1.9-1.5 0-2.8-1.2-2.8-2.7-.1-1.6 1.2-3 2.8-3 .7 0 1.4.3 1.9.7.1.1.3.1.4 0l.8-.8c.1-.1.1-.3 0-.4-.8-.8-1.9-1.2-3.1-1.3-2.5 0-4.7 2-4.7 4.5s2 4.6 4.6 4.6c2.4 0 4.4-1.9 4.6-4.3v-1.1h-4.1c-.2 0-.3.1-.3.3v1.1c.1.4.2.5.4.5z"/><path class="st3" d="M68.3 11.8v-1.1c0-.1-.1-.3-.3-.3h-.9c-.1 0-.3.1-.3.3v1.1h-1.1c-.1 0-.3.1-.3.3v.9c0 .1.1.3.3.3h1.1v1.1c0 .1.1.3.3.3h.9c.1 0 .3-.1.3-.3v-1.1h1.1c.1 0 .3-.1.3-.3v-.9c0-.1-.1-.3-.3-.3h-1.1z"/><circle class="st8" cx="87.5" cy="12.5" r="12.5"/><path class="st9" d="M92.5 7.4c-.3.1-.7.1-.9 0-2.1-1.2-4.4-1.5-6.5-.9-3 .9-4.2 4.2-4.2 7.3.6 1 1.3 2.6 1.5 3.7l7.3 7.3c5.1-.9 9.2-5 10.1-10.1l-7.3-7.3z"/><path class="st10" d="M87.5 5.4c-3.9 0-7.2 3.2-7.2 7.1s3.2 7.1 7.2 7.1c3.9 0 7.2-3.2 7.2-7.1 0-3.9-3.3-7.1-7.2-7.1zm4.7 3.3c.8 1 1.3 2.3 1.3 3.7-.3-.1-1.4-.3-2.8-.3-.4 0-.9 0-1.4.1 0-.1-.1-.2-.1-.3-.1-.3-.3-.6-.4-.8C91 10.2 92 9 92.2 8.7zm-4.7-2.2c1.5 0 2.9.6 4 1.5-.2.2-1.1 1.4-3.1 2.1-.9-1.7-2-3.2-2.2-3.5.4-.1.8-.1 1.3-.1zm-2.6.6c.2.3 1.2 1.7 2.2 3.4-2.6.7-4.9.7-5.5.7h-.1c.5-1.8 1.7-3.3 3.4-4.1zm-3.4 5.4v-.1h.2c.8 0 3.4-.1 6-.9.2.3.3.6.5 1-.1 0-.1 0-.2.1-3 1-4.7 3.6-4.9 4-1.1-1.2-1.6-2.6-1.6-4.1zm6 6c-1.4 0-2.7-.5-3.7-1.3.2-.3 1.4-2.6 4.7-3.7.8 2.2 1.2 4 1.3 4.5-.7.4-1.5.5-2.3.5zm3.4-1c-.1-.5-.4-2.2-1.2-4.2.4-.1.8-.1 1.2-.1 1.3 0 2.3.3 2.5.3-.2 1.6-1.2 3.1-2.5 4z"/><path class="st3" d="M87.5 5.4v1.1c1.5 0 2.9.6 4 1.5-.2.2-1.1 1.4-3.1 2.1-.3-.5-.6-1.1-.9-1.5v3c.1 0 .1 0 .2-.1.2.3.3.6.5 1-.1 0-.1 0-.2.1-.2 0-.3.1-.4.2V14c.3-.2.7-.3 1.1-.4.8 2.2 1.2 4 1.3 4.5-.7.3-1.5.5-2.3.5v1.1c3.9 0 7.2-3.2 7.2-7.1-.2-4-3.5-7.2-7.4-7.2zm1.7 6.5c-.1-.3-.3-.6-.4-.8C91 10.2 92 9 92.2 8.7c.8 1 1.3 2.3 1.3 3.7-.3-.1-1.4-.3-2.8-.3-.4 0-.9 0-1.4.1 0-.1 0-.2-.1-.3zm1.7 5.6c-.1-.5-.4-2.2-1.2-4.2.4-.1.8-.1 1.2-.1 1.3 0 2.3.3 2.5.3-.2 1.6-1.2 3.1-2.5 4z"/><circle class="st11" cx="112.5" cy="12.5" r="12.5"/><path class="st12" d="M124.3 16.7l-5.7-5.7-4.3.7-3.3-3-4.6.6-1 7.4 7.8 8.3c5.1-.3 9.4-3.7 11.1-8.3z"/><path class="st2" d="M111.4 11.8c.2-.4.4-.8.4-1.3 0-1.3-1.1-2.4-2.4-2.4h-3.7c-.2 0-.3.1-.3.3v8.1c0 .2.1.3.3.3h4.1c1.5 0 2.8-1.2 2.8-2.8 0-.9-.5-1.7-1.2-2.2zM107 9.7h2.4c.4 0 .8.4.8.8s-.4.8-.8.8H107V9.7zm2.8 5.5H107v-2.3h2.8c.6 0 1.1.5 1.1 1.1.1.7-.5 1.2-1.1 1.2z"/><path class="st3" d="M119.7 13.5c0-1.9-1.5-3.4-3.3-3.4-1.8 0-3.3 1.5-3.3 3.4s1.5 3.4 3.3 3.4c1.1 0 2.1-.6 2.8-1.5.1-.1.1-.2.2-.4 0-.1 0-.2-.1-.2h-1.7c-.3.3-.7.4-1.1.4-.8 0-1.5-.6-1.7-1.4h4.6c.1.1.3-.1.3-.3zm-3.4-1.8c.6 0 1.1.3 1.4.8h-2.8c.3-.5.8-.8 1.4-.8zm1.4-2h-2.9c-.1 0-.2-.1-.2-.2v-.8c0-.1.1-.2.2-.2h2.9c.1 0 .2.1.2.2v.7c.1.2 0 .3-.2.3z"/></svg>