<svg xmlns="http://www.w3.org/2000/svg" viewBox="0 0 512 512"><circle cx="256" cy="256" r="256" fill="#ff8e31"/><path d="M492.539 353.974L333.837 195.267l-5.893-5.893c-14.057-12.611-32.607-20.326-53.02-20.326-36.974 0-68.052 25.303-76.803 59.538a58.908 58.908 0 0 0-12.49-1.326c-19.507 0-36.716 9.623-47.219 24.433h-30.003c-.986 0-1.861.832-1.861 1.83v3.94h-6.144v30.83l12.288 12.283h-4.28c-.986 0-1.861.829-1.861 1.864v3.94h-6.144v30.787L274.5 511.265c98.651-7.055 181.825-69.944 218.039-157.291z" fill="#ed7425"/><path d="M364.006 247.788c-3.377 0-6.676.366-9.861 1.039 0-.189.015-.343.015-.525 0-43.786-35.487-79.263-79.258-79.263-36.969 0-68.024 25.316-76.782 59.543a58.931 58.931 0 0 0-12.475-1.352c-31.962 0-57.876 25.902-57.876 57.871 0 31.956 25.917 57.859 57.876 57.859h178.358c26.284 0 47.59-21.294 47.59-47.583.001-26.288-21.303-47.589-47.587-47.589z" fill="#fff"/><path d="M261.12 257.469l-.719.714-.74-.719-5.24-5.263c-.33-.323-.806-.509-1.331-.509h-43.638l-4.306 4.303-17.718 17.733 58.65 69.235H346.63l-85.51-85.494z" fill="#e1effa"/><path fill="#283a4d" d="M114.406 294.067h132.71v6.49h-132.71z"/><path d="M254.961 292.216a1.855 1.855 0 0 1-1.846 1.856H108.408a1.855 1.855 0 0 1-1.846-1.856v-38.697c0-1.021.835-1.851 1.846-1.851h144.704c1.014 0 1.846.829 1.846 1.851v38.697h.003z" fill="#5d6d7e"/><path fill="#cee2f2" d="M110.874 255.974h139.75v33.769h-139.75z"/><path d="M241.252 272.855a3.892 3.892 0 0 1-7.782 0c0-2.135 1.741-3.878 3.891-3.878s3.891 1.743 3.891 3.878zm-115.658-8.356h3.415v3.407h-3.415zm10.547 0h3.415v3.407h-3.415zm10.547 0h3.42v3.407h-3.42zm10.547 0h3.42v3.407h-3.42zm10.547 0h3.4v3.407h-3.4zm-42.188 13.338h3.415v3.412h-3.415zm10.547 0h3.415v3.412h-3.415zm10.547 0h3.42v3.412h-3.42zm10.547 0h3.42v3.412h-3.42zm10.547 0h3.4v3.412h-3.4zm-37.068-6.682h3.418v3.42h-3.418zm10.547 0h3.428v3.42h-3.428zm10.547 0h3.42v3.42h-3.42zm10.547 0h3.402v3.42h-3.402zm10.522 0h3.412v3.42h-3.412zm17.408 0h29.189v3.42h-29.189zm64.665-13.696h6.159v30.797h-6.159z" fill="#283a4d"/><path d="M259.013 260.523c0 .527-.438.97-.968.97a.985.985 0 0 1-.983-.97.99.99 0 0 1 .983-.986c.53.001.968.446.968.986zm0 24.692a.974.974 0 0 1-.968.978.982.982 0 0 1-.983-.978c0-.532.445-.975.983-.975a.977.977 0 0 1 .968.975z" fill="#b8d1e6"/><path fill="#283a4d" d="M100.403 257.459h6.159v30.797h-6.159z"/><path d="M104.463 260.523c0 .527-.443.97-.98.97a.977.977 0 0 1 0-1.956c.538 0 .98.446.98.986zm0 24.692c0 .543-.443.978-.98.978s-.973-.435-.973-.978c0-.532.435-.975.973-.975s.98.442.98.975z" fill="#b8d1e6"/><path d="M254.961 341.12a1.849 1.849 0 0 1-1.846 1.841H108.408a1.85 1.85 0 0 1-1.846-1.841v-38.697c0-1.024.835-1.861 1.846-1.861h144.704c1.014 0 1.846.835 1.846 1.861v38.697h.003z" fill="#5d6d7e"/><path fill="#cee2f2" d="M110.874 304.87h139.75v33.774h-139.75z"/><g fill="#283a4d"><circle cx="237.363" cy="321.766" r="3.891"/><path d="M125.594 313.395h3.415v3.412h-3.415zm10.547 0h3.415v3.412h-3.415zm10.547 0h3.42v3.412h-3.42zm10.547 0h3.42v3.412h-3.42zm10.547 0h3.4v3.412h-3.4zm-42.188 13.338h3.415v3.412h-3.415zm10.547 0h3.415v3.412h-3.415zm10.547 0h3.42v3.412h-3.42zm10.547 0h3.42v3.412h-3.42zm10.547 0h3.4v3.412h-3.4zm-37.068-6.682h3.418v3.412h-3.418zm10.547 0h3.428v3.412h-3.428zm10.547 0h3.42v3.412h-3.42zm10.547 0h3.402v3.412h-3.402zm10.522 0h3.412v3.412h-3.412zm17.408 0h29.189v3.412h-29.189zm64.665-13.696h6.159v30.797h-6.159z"/></g><path d="M259.013 309.425a.974.974 0 0 1-1.951 0c0-.556.445-.983.983-.983a.97.97 0 0 1 .968.983zm0 24.693c0 .527-.438.97-.968.97a.985.985 0 0 1-.983-.97c0-.532.445-.975.983-.975.53 0 .968.443.968.975z" fill="#b8d1e6"/><path fill="#283a4d" d="M100.403 306.355h6.159v30.797h-6.159z"/><path d="M104.463 309.425c0 .532-.443.97-.98.97s-.973-.438-.973-.97c0-.556.435-.983.973-.983s.98.427.98.983zm0 24.693c0 .527-.443.97-.98.97s-.973-.443-.973-.97c0-.532.435-.975.973-.975s.98.443.98.975z" fill="#b8d1e6"/></svg>