<svg id="Capa_1" xmlns="http://www.w3.org/2000/svg" width="35.1" height="30.2" viewBox="0 0 35.1 30.2"><style>.st0{fill:#fff}</style><path class="st0" d="M13.4 16.2c-.8 1.2-1.6 2.3-2.6 3.4-2.3 2.4-5.3 3.1-8.6 2.9-2.9-.1-2.9 4.4 0 4.5 6.1.3 10.4-2.3 13.9-6.8-.6-.7-1.1-1.5-1.6-2.2-.4-.6-.8-1.2-1.1-1.8zm5.9-3.6l.9 1.5c.6-.8 1.2-1.6 1.9-2.3 1.7-1.8 3.7-2.5 5.9-2.7-.1.2-.3.3-.4.5-.8.9-.9 2.3 0 3.2.8.8 2.4.9 3.2 0 1.2-1.5 2.4-3 3.6-4.4.8-.8 1.1-2.1.1-3.2L30.4.8c-2-2.2-5.2 1.1-3.2 3.2l.5.6c-2.2.2-4.4.7-6.4 2-1.5 1-2.7 2.2-3.8 3.6.2.3.4.6.7 1 .4.3.7.9 1.1 1.4z"/><path class="st0" d="M30.8 17.5c-.4-.5-1-.7-1.5-.7-.6 0-1.3.2-1.7.7-.9.9-.8 2.3 0 3.2.1.2.3.3.4.5-2.2-.2-4.2-.9-5.9-2.7-1-1-1.8-2.2-2.6-3.3-.8-1.1-1.5-2.3-2.2-3.4-.1-.2-.3-.4-.4-.6-3.5-5-7.7-8-13.7-8h-1C-.7 3.3-.7 7.7 2 7.7h1c2.9 0 5.6.7 7.7 2.9C12 12 13 13.5 14 15.1c.5.7.9 1.5 1.4 2.2.4.6.9 1.3 1.3 1.9 1.3 1.7 2.8 3.3 4.6 4.5 2 1.3 4.1 1.9 6.4 2l-.5.6c-1.5 1.6 0 3.9 1.7 3.9.5 0 1-.2 1.5-.7l4.1-4.4c1-1.1.7-2.4-.1-3.2-1.2-1.5-2.4-3-3.6-4.4z"/></svg>