<?xml version="1.0" standalone="no"?>
<!DOCTYPE svg PUBLIC "-//W3C//DTD SVG 20010904//EN"
 "http://www.w3.org/TR/2001/REC-SVG-20010904/DTD/svg10.dtd">
<svg version="1.0" xmlns="http://www.w3.org/2000/svg"
 width="952.000000pt" height="952.000000pt" viewBox="0 0 952.000000 952.000000"
 preserveAspectRatio="xMidYMid meet">
<metadata>
Created by potrace 1.11, written by Peter Selinger 2001-2013
</metadata>
<g transform="translate(0.000000,952.000000) scale(0.100000,-0.100000)"
fill="#000000" stroke="none">
<path d="M1520 6902 l0 -2619 873 3 c479 2 895 5 922 7 178 15 234 22 360 43
50 9 101 17 115 19 14 1 25 4 25 5 0 1 11 4 25 7 14 2 30 6 35 7 6 2 24 6 40
10 17 4 37 10 45 13 8 3 22 7 31 9 31 6 196 72 274 110 89 42 228 124 233 136
2 4 8 8 13 8 9 0 44 27 81 63 10 9 20 17 23 17 6 0 145 139 190 191 35 39 135
193 135 207 0 5 7 15 15 22 8 6 14 15 13 18 -1 8 8 32 40 102 11 25 32 81 45
125 24 74 29 94 42 165 3 14 7 37 10 51 5 21 14 129 17 194 1 24 -12 204 -17
235 -3 19 -12 62 -20 95 -9 33 -18 71 -21 85 -20 92 -158 327 -230 392 -11 10
-39 36 -62 57 -122 114 -331 225 -512 273 -25 6 -47 12 -50 13 -3 1 -23 5 -45
10 -22 5 -43 10 -47 11 -5 1 -19 2 -33 3 -45 2 -26 17 70 55 89 35 251 121
279 148 7 7 28 24 46 38 38 29 119 107 168 163 41 46 125 186 137 227 1 3 8
21 17 40 8 19 20 53 27 75 7 22 15 47 18 55 4 8 7 22 8 30 0 8 5 31 10 50 27
110 38 358 21 470 -13 83 -18 108 -32 164 -14 56 -35 117 -55 161 -5 11 -13
31 -19 45 -13 32 -67 127 -83 146 -6 9 -19 23 -27 33 -8 9 -27 32 -42 51 -49
65 -170 180 -188 180 -5 0 -10 4 -10 8 0 20 -295 193 -365 215 -11 3 -65 22
-120 42 -114 41 -181 57 -321 80 -128 21 -134 22 -229 30 -44 4 -102 9 -130
12 -27 2 -431 7 -897 10 l-848 5 0 -2620z m1605 2034 c177 -6 214 -9 330 -26
166 -23 280 -56 421 -121 27 -13 51 -25 54 -28 3 -4 23 -18 45 -33 53 -37 124
-103 163 -155 31 -40 89 -156 98 -195 2 -10 6 -28 9 -40 16 -68 20 -115 19
-233 -1 -133 -2 -146 -29 -250 -19 -71 -72 -192 -97 -219 -10 -11 -18 -24 -18
-29 0 -16 -158 -167 -175 -167 -8 0 -15 -4 -15 -10 0 -8 -155 -89 -185 -96
-13 -4 -33 -9 -138 -38 -48 -14 -116 -28 -150 -31 -34 -4 -339 -9 -678 -12
l-617 -5 -1 169 c-1 92 -1 177 -1 188 1 692 3 1331 5 1335 4 7 751 4 960 -4z
m-787 -2261 c6 -2 12 0 12 6 0 6 9 7 23 3 12 -4 29 -7 37 -6 12 1 67 2 208 1
98 0 161 0 225 1 27 0 53 -2 58 -5 5 -4 9 -1 9 5 0 7 8 9 23 4 12 -4 29 -6 37
-6 43 5 162 2 170 -3 6 -3 10 -2 10 2 0 12 114 10 122 -2 5 -6 8 -5 8 3 0 7 4
11 9 7 5 -3 70 -7 143 -10 73 -2 144 -6 158 -8 14 -2 50 -7 80 -11 75 -11 236
-45 286 -61 153 -51 294 -150 393 -276 26 -33 89 -157 94 -184 2 -11 9 -38 15
-60 20 -73 25 -129 25 -255 -1 -143 -4 -173 -27 -256 -24 -84 -84 -212 -113
-242 -7 -7 -13 -17 -13 -21 0 -14 -117 -128 -184 -180 -118 -90 -344 -183
-501 -206 -22 -4 -47 -8 -55 -10 -20 -5 -80 -13 -155 -21 -33 -3 -80 -8 -105
-10 -25 -3 -297 -7 -606 -10 l-561 -6 -2 409 c-1 224 -1 415 -1 423 0 8 1 233
1 500 1 267 5 487 9 490 10 6 150 2 168 -5z"/>
<path d="M6757 5454 c-1 -1 -65 -4 -142 -7 -77 -3 -147 -8 -155 -11 -8 -2 -45
-7 -82 -10 -36 -3 -72 -8 -80 -10 -7 -3 -31 -7 -53 -10 -82 -10 -367 -84 -435
-113 -8 -3 -17 -7 -20 -7 -3 -1 -16 -8 -30 -16 -14 -7 -25 -12 -25 -11 0 19
-365 -169 -495 -256 -210 -140 -431 -346 -555 -518 -8 -11 -33 -45 -55 -75
-22 -30 -43 -59 -48 -65 -45 -54 -178 -307 -235 -445 -37 -89 -106 -297 -113
-340 -3 -14 -9 -38 -14 -55 -5 -16 -12 -41 -14 -55 -3 -14 -11 -47 -16 -75
-15 -65 -23 -115 -24 -142 -1 -13 -3 -23 -6 -23 -3 0 -5 -10 -6 -22 0 -13 -4
-52 -8 -88 -18 -139 -28 -306 -27 -445 0 -118 10 -329 16 -365 2 -14 7 -54 10
-90 6 -62 10 -90 19 -135 2 -11 7 -40 11 -65 52 -340 248 -811 431 -1040 7 -8
39 -49 72 -90 77 -96 174 -194 270 -272 43 -35 79 -66 80 -70 2 -5 10 -8 17
-8 7 0 15 -3 17 -7 5 -12 167 -118 211 -139 20 -10 37 -21 37 -26 0 -4 5 -8
10 -8 6 0 61 -24 123 -54 61 -29 123 -57 137 -61 14 -4 39 -13 55 -20 73 -32
336 -105 460 -129 153 -29 309 -49 470 -60 75 -5 431 -6 503 -1 180 12 331 29
428 49 12 2 37 7 55 10 90 15 232 51 342 86 71 23 97 35 98 48 4 101 3 542 -2
542 -3 0 -42 -11 -85 -25 -68 -22 -144 -40 -244 -59 -14 -2 -59 -11 -100 -20
-81 -17 -111 -22 -180 -31 -25 -3 -56 -8 -70 -10 -24 -5 -71 -11 -175 -22 -77
-8 -472 -8 -545 0 -36 4 -81 9 -100 11 -34 4 -140 21 -190 31 -69 13 -175 40
-265 68 -55 17 -102 31 -105 32 -9 3 -44 18 -110 46 -221 95 -429 247 -577
421 -62 74 -69 82 -123 162 -42 63 -184 324 -181 334 1 1 -5 17 -13 36 -36 86
-96 300 -111 396 -2 14 -6 40 -9 58 -3 17 -8 44 -10 60 -5 26 -16 147 -22 227
-4 59 -3 382 1 440 2 28 6 77 9 110 2 33 7 71 10 85 3 14 8 45 11 70 11 81 14
97 34 180 7 25 14 54 16 64 22 93 106 307 168 426 47 90 124 213 171 272 12
14 32 41 46 59 42 55 181 193 250 249 108 86 156 120 169 120 5 0 11 4 13 8 5
13 260 150 291 156 7 2 23 8 37 13 35 15 121 44 145 49 23 6 25 6 80 22 22 6
51 13 65 16 14 3 36 7 50 10 45 10 75 16 108 21 17 3 44 7 60 10 155 26 661
26 795 -1 12 -2 42 -7 67 -10 39 -5 126 -21 225 -40 17 -3 37 -10 46 -15 9 -4
18 -6 21 -4 2 2 51 -9 109 -26 57 -16 111 -31 119 -34 8 -2 15 -4 15 -5 0 -1
7 -3 15 -5 13 -2 15 32 15 277 l0 280 -85 29 c-47 17 -110 37 -140 45 -30 9
-59 17 -65 18 -35 10 -63 16 -85 20 -14 2 -45 9 -70 14 -25 6 -64 13 -87 17
-23 3 -57 8 -75 11 -44 7 -104 14 -153 19 -93 9 -413 23 -418 19z"/>
</g>
</svg>
