<?xml version="1.0" standalone="no"?>
<!DOCTYPE svg PUBLIC "-//W3C//DTD SVG 1.1//EN" "http://www.w3.org/Graphics/SVG/1.1/DTD/svg11.dtd">
<svg xmlns="http://www.w3.org/2000/svg"><metadata>This SVG WebFont was generated by YouWorkForThem.
Copyright (c) 2013 by Francesco Canovaro. All rights reserved.</metadata><defs><font horiz-adv-x="1206" id="ywftsvg"><font-face ascent="1649" bbox="-174 -835 2308 1974" cap-height="1467" descent="-399" font-family="" font-stretch="normal" font-weight="600" panose-1="2 0 5 3 2 0 0 2 0 4" underline-position="0" underline-thickness="0" unicode-range="U+000D-FB06" units-per-em="2048" x-height="1075"/><missing-glyph d="M982 367q-67 -57 -149.5 -90.5t-179.5 -33.5q-95 0 -177 33t-148 91h654zM287 404q-59 68 -90.5 151t-31.5 178q0 90 28 168t83 142h649zM325 1099q68 59 150.5 91.5t177.5 32.5q96 0 178.5 -33t146.5 -91h-653zM1109 912q17 -42 25.5 -86t8.5 -93q0 -90 -29 -169.5 t-83 -143.5h-650l638 642q30 -34 52.5 -71t37.5 -79zM812 163q-39 -11 -77.5 -16.5t-81.5 -5.5q-126 0 -234.5 48t-187 129t-124 188.5t-45.5 226.5q0 126 48 234.5t128.5 188.5t188.5 125.5t226 45.5q128 0 236.5 -49t187.5 -131.5t123 -189.5t44 -224q0 -108 -33.5 -200 t-92 -165t-137.5 -125t-169 -80zM798 1258q-67 18 -145 19q-117 0 -216 -44.5t-171 -119.5t-113 -173t-41 -207q0 -110 41.5 -208.5t114 -174t171.5 -119.5t214 -44q112 0 211 42.5t173 116.5t117 174t43 213q0 99 -31.5 185.5t-86 154t-127 114.5t-154.5 71z" horiz-adv-x="1305"/><glyph d="M982 367q-67 -57 -149.5 -90.5t-179.5 -33.5q-95 0 -177 33t-148 91h654zM287 404q-59 68 -90.5 151t-31.5 178q0 90 28 168t83 142h649zM325 1099q68 59 150.5 91.5t177.5 32.5q96 0 178.5 -33t146.5 -91h-653zM1109 912q17 -42 25.5 -86t8.5 -93q0 -90 -29 -169.5 t-83 -143.5h-650l638 642q30 -34 52.5 -71t37.5 -79zM812 163q-39 -11 -77.5 -16.5t-81.5 -5.5q-126 0 -234.5 48t-187 129t-124 188.5t-45.5 226.5q0 126 48 234.5t128.5 188.5t188.5 125.5t226 45.5q128 0 236.5 -49t187.5 -131.5t123 -189.5t44 -224q0 -108 -33.5 -200 t-92 -165t-137.5 -125t-169 -80zM798 1258q-67 18 -145 19q-117 0 -216 -44.5t-171 -119.5t-113 -173t-41 -207q0 -110 41.5 -208.5t114 -174t171.5 -119.5t214 -44q112 0 211 42.5t173 116.5t117 174t43 213q0 99 -31.5 185.5t-86 154t-127 114.5t-154.5 71z" glyph-name=".notdef" horiz-adv-x="1305"/><glyph glyph-name="glyph1" horiz-adv-x="0"/><glyph glyph-name="glyph3" horiz-adv-x="0"/><glyph glyph-name="glyph3" horiz-adv-x="0"/><glyph glyph-name="space" horiz-adv-x="631" unicode=" "/><glyph d="M249 488v980h226v-980h-226zM513 134q0 -31 -12 -58.5t-32 -47.5t-48 -31.5t-59 -11.5q-32 0 -59.5 11.5t-48 31.5t-32 47.5t-11.5 58.5q0 32 11.5 59t32 47t48.5 32t59 12t59 -12t48 -32t32 -47t12 -59z" glyph-name="exclam" horiz-adv-x="716" unicode="!"/><glyph d="M474 1467h210v-385q0 -23 -8.5 -42t-23 -33t-33.5 -21.5t-40 -7.5q-22 0 -41 7.5t-33.5 21.5t-22.5 33.5t-8 41.5v385zM105 1467h211v-385q0 -23 -8.5 -42t-23.5 -33t-34 -21.5t-40 -7.5q-22 0 -40.5 7.5t-33 21.5t-23 33.5t-8.5 41.5v385z" glyph-name="quotedbl" horiz-adv-x="824" unicode="&quot;"/><glyph d="M811 1360q4 25 19 44.5t36.5 33.5t46.5 21.5t52 7.5h78l-87 -441h202l-16 -81q-5 -25 -17 -47t-29.5 -39t-40 -27.5t-48.5 -10.5h-92l-41 -214h222l-16 -78q-5 -25 -17 -47.5t-29.5 -40t-40 -28.5t-49.5 -11h-110l-58 -296q-5 -25 -19 -44.5t-34 -33.5t-44 -21t-49 -7 h-86l79 402h-195l-57 -294q-5 -26 -20 -46t-36 -34t-46 -21t-51 -7h-80l79 402h-188l16 82q5 25 17 47.5t29 39.5t39.5 27t48.5 10h78q0 1 3 16t7.5 38t10 49.5t10 49.5t7.5 40t4 20h-209l16 79q5 25 17 48t29.5 40.5t40 28t50.5 10.5h97q1 5 6 30.5t12 60.5t15 75.5 t14.5 75.5t11.5 60.5t7 30.5q4 25 17.5 44.5t33.5 33.5t44.5 21.5t51.5 7.5h85l-86 -440h192zM469 608h194q0 1 3 16l7.5 37.5t9.5 48.5t9.5 49.5t7.5 40.5t5 21h-194z" glyph-name="numbersign" horiz-adv-x="1197" unicode="#"/><glyph d="M487 1619h107v-137q59 -4 115.5 -26t106 -54t91 -70t70.5 -72l-52 -40q-27 -24 -60.5 -36t-63.5 -12q-35 0 -63 14q-41 18 -75 35.5t-69 22.5v-342l104 -39q81 -30 145.5 -69t109 -91t68 -116.5t23.5 -142.5q0 -94 -36 -173.5t-97.5 -138t-143.5 -96t-173 -46.5v-171 h-107v167q-179 7 -302 116q-27 24 -47 48t-35.5 46t-25 41t-16.5 31l-6 13l51 29q24 13 48 22.5t54 9.5q32 0 61.5 -10t66.5 -38q33 -26 69.5 -45t81.5 -26v465q-74 29 -140.5 63.5t-117.5 83t-80.5 114t-29.5 155.5q0 81 30 146t81 112.5t117.5 77t139.5 39.5v140zM809 444 q0 44 -18 76t-47.5 55t-68.5 40t-81 32v-421q40 8 78.5 26t69 46t49 64t18.5 82zM360 1094q0 -31 7.5 -53t23 -39.5t39.5 -32t57 -27.5v292q-55 -17 -91 -53.5t-36 -86.5z" glyph-name="dollar" horiz-adv-x="1097" unicode="$"/><glyph d="M475 92q-33 -44 -77 -68t-103 -24h-170l1030 1375q33 44 77 68t103 24h170zM76 1108q0 78 26 146.5t73 119t112 80.5t143 30t143.5 -30t112.5 -80.5t73 -119t26 -146.5t-26 -146.5t-73 -119t-112.5 -80t-143.5 -29.5t-143 29.5t-112 80t-73 119t-26 146.5zM280 1108 q0 -35 10 -65.5t29.5 -53.5t47.5 -36.5t63 -13.5t63 13.5t47.5 36.5t30 53.5t10.5 65.5t-10.5 65.5t-30 53t-47.5 36t-63 13.5t-63 -13.5t-47.5 -36t-29.5 -53t-10 -65.5zM853 360q0 78 26 146.5t73 119.5t112 80.5t143 29.5t143.5 -29.5t112.5 -80.5t73.5 -119.5 t26.5 -146.5t-26.5 -146.5t-73.5 -119t-112.5 -79.5t-143.5 -29t-143 29t-112 79.5t-73 119t-26 146.5zM1057 360q0 -35 10 -65.5t29.5 -53.5t47.5 -36.5t63 -13.5t63 13.5t47.5 36.5t30 54t10.5 65q0 35 -10.5 66t-30 53.5t-47.5 35.5t-63 13t-63 -13t-47.5 -35.5 t-29.5 -53.5t-10 -66z" glyph-name="percent" horiz-adv-x="1642" unicode="%"/><glyph d="M962 505l92 124q33 47 81 72t111 25h163l-285 -383l347 -343h-165q-65 0 -108.5 12t-77.5 33.5t-62.5 51t-64.5 65.5q-92 -90 -201.5 -133t-227.5 -43q-103 0 -192.5 35.5t-155.5 97.5t-103.5 146t-37.5 181q0 53 13.5 106.5t38.5 101.5t58 88t72 68q10 7 25 7 q20 0 39.5 -9t39.5 -22q-58 58 -85.5 132.5t-27.5 148.5q0 92 33 168.5t89 131t128.5 85.5t152.5 31q131 0 248 -61.5t202 -191.5l-66 -25q-58 -23 -104 -22q-39 0 -63.5 11.5t-40.5 19.5q-39 17 -81.5 29.5t-90.5 12.5q-27 0 -59.5 -10t-60.5 -32.5t-47 -58.5t-19 -87 q0 -36 12.5 -68.5t43.5 -65.5q37 -38 77 -77t84.5 -82t93 -90.5t104.5 -101.5zM710 444q-58 59 -119 118t-120 118q-36 -14 -67.5 -38t-55.5 -54t-38.5 -66t-14.5 -76q0 -61 23 -106.5t61.5 -76t88 -45t102.5 -14.5q145 0 266 113z" glyph-name="ampersand" horiz-adv-x="1455" unicode="&amp;"/><glyph d="M123 1467h246l-23 -406q-3 -45 -30.5 -75t-70.5 -30t-70.5 30t-29.5 75z" glyph-name="quotesingle" horiz-adv-x="493" unicode="'"/><glyph d="M340 646q0 -203 43.5 -366.5t113.5 -291.5q15 -28 25 -70.5t10 -83.5q0 -35 -9 -68.5t-30 -50.5l-44 -32q-59 78 -118.5 179.5t-106 223.5t-75.5 262.5t-29 296.5t28.5 296t74.5 261.5t104.5 223t117.5 180.5l44 -34q22 -17 31 -50.5t9 -68.5q0 -42 -10 -84t-25 -71 q-70 -128 -111 -288.5t-43 -363.5z" glyph-name="parenleft" horiz-adv-x="637" unicode="("/><glyph d="M281 646q-2 201 -43.5 363t-111.5 290q-14 28 -24.5 70t-10.5 84q0 36 9 69.5t30 50.5l44 33q59 -79 117.5 -180.5t105 -223t75.5 -261.5t29 -296t-29.5 -296.5t-76.5 -262.5t-106 -224t-118 -179l-44 32q-20 16 -29.5 50t-9.5 69q0 41 10.5 83.5t24.5 70.5 q70 128 114 291.5t44 366.5z" glyph-name="parenright" horiz-adv-x="628" unicode=")"/><glyph d="M172 981l-90 159l121 70q25 14 51.5 19.5t52.5 7.5q-26 2 -52.5 7.5t-50.5 20.5l-123 71l92 159l122 -71q27 -14 41.5 -32.5t30.5 -38.5q-11 24 -18 46t-7 52v141h184v-141q0 -30 -7 -52.5t-18 -46.5q15 22 31 39.5t41 31.5l123 71l90 -160l-121 -70q-27 -15 -52 -20 t-51 -7q25 -2 51 -7.5t52 -20.5l121 -71l-92 -158l-122 71q-26 14 -42.5 33t-30.5 39q11 -23 18.5 -46.5t7.5 -52.5v-141h-183v141q0 30 7 53.5t18 44.5q-14 -19 -31 -37.5t-42 -32.5z" glyph-name="asterisk" horiz-adv-x="819" unicode="*"/><glyph d="M482 195v377h-378v220h378v379h219v-379h380v-220h-380v-377h-219z" glyph-name="plus" horiz-adv-x="1191" unicode="+"/><glyph d="M67 136q0 31 11.5 58t32 47t48 32t58.5 12q32 0 59 -12t47.5 -32t32.5 -47t12 -58q0 -109 -44 -202.5t-144 -177.5q-18 18 -29.5 32t-11.5 38q0 26 9.5 43t20.5 33.5t21 36.5t11 51q-28 7 -52.5 19.5t-42.5 29.5t-28.5 41t-10.5 56z" glyph-name="comma" horiz-adv-x="434" unicode=","/><glyph d="M636 573h-541v220h541v-220z" glyph-name="hyphen" horiz-adv-x="735" unicode="-"/><glyph d="M387 134q0 -32 -11.5 -59t-32 -47t-48.5 -31.5t-59 -11.5t-58.5 11.5t-48 31.5t-32.5 47t-12 59q0 31 12 58.5t32.5 47.5t48 32t58.5 12q32 0 59.5 -12t48 -32t32 -47.5t11.5 -58.5z" glyph-name="period" horiz-adv-x="473" unicode="."/><glyph d="M643 1404q20 46 61 74.5t94 28.5h114l-653 -1497q-20 -46 -63.5 -74t-96.5 -28h-108z" glyph-name="slash" horiz-adv-x="905" unicode="/"/><glyph d="M94 734q0 103 26.5 199t76 179t118 151.5t151.5 117.5t179 75.5t200 26.5q103 0 199 -26.5t179.5 -75.5t152 -117.5t117.5 -151.5t75.5 -178.5t26.5 -199.5q0 -103 -26.5 -199t-75.5 -179.5t-117.5 -151.5t-152 -117t-179.5 -75.5t-199 -26.5q-156 0 -292.5 58.5 t-238.5 160.5t-161 238t-59 292zM330 734q0 -106 40.5 -200t110.5 -163.5t163.5 -110t200.5 -40.5q105 0 199 40.5t164 110t110.5 163.5t40.5 200q0 105 -40.5 199t-110.5 163.5t-164 110t-199 40.5q-106 0 -200 -40.5t-164 -110t-110.5 -163.5t-40.5 -199z" glyph-name="zero" horiz-adv-x="1689" unicode="0"/><glyph d="M589 -1v1163q-17 -25 -34 -47t-37.5 -39t-46 -27t-56.5 -10q-48 0 -79 31l-72 71q87 83 173 165t173 164h214v-1471h-235z" glyph-name="one" horiz-adv-x="1210" unicode="1"/><glyph d="M1087 0h-964v79q0 15 1 35.5t6 42.5t17 45t32 45l48 48t101.5 102.5t131.5 136t138.5 149.5t122.5 142.5t83 114.5q35 56 35 107q0 50 -24.5 89.5t-62.5 65.5t-84 39.5t-89 13.5q-104 0 -170 -59q-37 -33 -68.5 -47.5t-66.5 -14.5q-23 0 -44 7t-42 18l-63 34 q7 13 18.5 34t27 45t36.5 49.5t48 48.5q131 116 324 116q97 0 186 -32.5t157 -91t108.5 -140t40.5 -180.5q0 -34 -4.5 -63.5t-13.5 -56.5t-22 -54t-31 -56q-29 -47 -71.5 -102.5t-91.5 -111.5t-99 -109.5t-91.5 -96.5t-70.5 -72l-36 -36q-24 -26 -50.5 -38t-37.5 -16h635 v-230z" glyph-name="two" horiz-adv-x="1200" unicode="2"/><glyph d="M1019 437q0 -93 -36.5 -175.5t-98.5 -144t-145 -96.5t-176 -35q-99 0 -184 29.5t-152 87.5q-28 24 -49 50.5t-37.5 52t-28.5 47t-19 36.5q37 19 75 38.5t79 19.5q36 0 68.5 -15t56.5 -38l12 -9q34 -30 79 -49t100 -19q46 0 86.5 17.5t71.5 47.5t48.5 70t17.5 85 q0 46 -17.5 87.5t-48.5 73t-71.5 50t-86.5 18.5h-112v218h112q38 0 71.5 15t58 41t38.5 59.5t14 71.5q0 37 -14.5 68.5t-39.5 55t-58 36.5t-69 13h-10t-10 -1q-2 0 -3.5 0.5t-3.5 0.5q-36 -5 -75 -24.5t-82 -39.5q-14 -10 -29.5 -13.5t-33.5 -3.5q-35 0 -64.5 12.5 t-55.5 32.5l-58 43q42 50 88.5 92.5t98.5 73.5t109 48.5t118 17.5q87 0 164 -31.5t134 -86.5t91 -130.5t34 -162.5q0 -42 -14 -85t-36.5 -82.5t-50.5 -71t-57 -50.5q38 -22 74 -59.5t64 -84t45.5 -99t17.5 -103.5z" glyph-name="three" horiz-adv-x="1114" unicode="3"/><glyph d="M715 0v334h-633v124q0 28 8 53.5t20 45.5q12 24 28 44q9 17 20 34.5t22 35.5q108 178 213 354.5t212 354.5q24 40 60.5 62.5t79.5 22.5h208v-901h192v-230h-192v-334h-238zM679 1062l-252 -433q-14 -26 -32 -42.5t-29 -22.5h352v585z" glyph-name="four" horiz-adv-x="1200" unicode="4"/><glyph d="M1032 1237h-518q-8 -54 -17 -110.5t-17 -110.5q24 12 51 21.5t60 9.5q101 0 193 -37.5t161.5 -104t110.5 -159.5t41 -203q0 -116 -44 -217.5t-120.5 -176.5t-178.5 -119t-216 -44q-122 0 -230.5 51t-191.5 140l51 51q20 20 49 35.5t58 17.5h4h5q15 0 35.5 -4t33.5 -11 q44 -17 88.5 -33t97.5 -16q68 0 127 25.5t103.5 69t70 103t25.5 127.5q0 67 -25.5 121t-70 92.5t-103.5 59t-126 20.5q-25 0 -50.5 -7t-50.5 -15.5t-49.5 -15t-48.5 -6.5q-22 0 -41.5 9.5t-35 26.5t-25 41t-9.5 52v10t2 11l79 526h722v-230z" glyph-name="five" horiz-adv-x="1205" unicode="5"/><glyph d="M93 565q3 18 7 39t15 55t31.5 87t55 135.5t85.5 200.5t124 282q10 23 27 41.5t38.5 32.5t46 21.5t48.5 7.5h143l-169 -386q-14 -33 -35.5 -57.5t-31.5 -37.5q30 10 59 15.5t62 5.5q104 0 196 -40.5t160.5 -110.5t108.5 -162.5t40 -196.5q0 -105 -40.5 -198.5t-110 -163 t-163 -110t-198.5 -40.5q-103 0 -195 38.5t-161.5 106.5t-110 158t-40.5 192q0 22 2.5 43.5t5.5 41.5zM871 497q0 57 -22 108t-59.5 89.5t-89 60.5t-108.5 22q-58 0 -109 -22t-89.5 -60.5t-60.5 -89.5t-22 -108q0 -58 22 -109t60.5 -89.5t89.5 -60.5t109 -22q57 0 108.5 22 t89 60.5t59.5 89.5t22 109z" glyph-name="six" horiz-adv-x="1212" unicode="6"/><glyph d="M122 1467h965v-79q0 -46 -12 -77t-20 -48l-505 -1161q-23 -52 -66 -77t-95 -25h-141l503 1159q6 15 15.5 27.5t19.5 23t18 17t12 9.5h-694v231z" glyph-name="seven" horiz-adv-x="1148" unicode="7"/><glyph d="M183 1115q0 80 31 150.5t84 123.5t125 84t152 31q81 0 152.5 -31t124.5 -84t84 -123.5t31 -150.5q0 -78 -29.5 -147t-81.5 -120q95 -66 150.5 -166.5t55.5 -222.5q0 -100 -37.5 -187.5t-103 -152t-154.5 -101.5t-192 -37t-191.5 37t-154.5 101.5t-103.5 152t-37.5 188.5 q0 61 15 117t41.5 105.5t64 91t83.5 74.5q-49 50 -79 120t-30 147zM316 463q0 -53 20.5 -101t55.5 -83t82 -55.5t101 -20.5q53 0 100 20.5t82.5 55.5t56 83t20.5 101t-20.5 100t-55.5 83t-82 57t-101 21t-101 -21t-82.5 -57t-55.5 -83t-20 -100zM407 1110q0 -36 12.5 -67 t35 -54t54 -36.5t66.5 -13.5q36 0 68 13.5t55 36.5t36.5 54t13.5 67t-13.5 67t-36.5 54.5t-55 37.5t-68 14t-67 -14t-53.5 -37.5t-35 -54.5t-12.5 -67z" glyph-name="eight" horiz-adv-x="1156" unicode="8"/><glyph d="M1096 887q-3 -18 -7.5 -39t-15 -55t-31 -87t-55 -135.5t-85.5 -200.5t-124 -282q-10 -23 -27 -41.5t-38.5 -32.5t-46 -21.5t-49.5 -7.5h-142l169 386q14 33 35 57.5t32 37.5q-30 -10 -59 -15.5t-62 -5.5q-104 0 -196 40.5t-160.5 110.5t-108.5 162.5t-40 196.5 q0 105 40.5 198.5t110 163t163 110t198.5 40.5q102 0 194.5 -38.5t162 -106.5t110 -158t40.5 -192q0 -22 -2.5 -43.5t-5.5 -41.5zM317 955q0 -57 22 -108t60 -89.5t89.5 -60.5t108.5 -22q58 0 109 22t89.5 60.5t60.5 89.5t22 108q0 58 -22 109t-60.5 89.5t-89.5 60.5 t-109 22q-57 0 -108.5 -22t-89.5 -60.5t-60 -89.5t-22 -109z" glyph-name="nine" horiz-adv-x="1212" unicode="9"/><glyph d="M420 134q0 -32 -12 -59t-32.5 -47t-48 -31.5t-58.5 -11.5q-32 0 -59.5 11.5t-48 31.5t-32 47t-11.5 59q0 31 11.5 58.5t32 47.5t48.5 32t59 12t58.5 -12t48 -32t32.5 -47.5t12 -58.5zM420 925q0 -31 -12 -58.5t-32.5 -47.5t-48 -32t-59.5 -12q-31 0 -58.5 12t-48 32 t-32 47.5t-11.5 58.5q0 32 11.5 59t32 47.5t48.5 32t58 11.5q32 0 59.5 -11.5t48 -32t32.5 -47.5t12 -59z" glyph-name="colon" horiz-adv-x="543" unicode=":"/><glyph d="M420 927q0 -31 -12 -58.5t-32.5 -47.5t-48 -32t-58.5 -12q-32 0 -59.5 12t-48 32t-32 47.5t-11.5 58.5q0 32 11.5 59t32 47t48.5 31.5t59 11.5t58.5 -11.5t48 -31.5t32.5 -47t12 -59zM118 135q0 31 11.5 58.5t32 47.5t48 32t58.5 12t58.5 -12t48 -32t32.5 -47.5t12 -58.5 q0 -109 -44.5 -202.5t-144.5 -176.5q-20 20 -30.5 32.5t-10.5 36.5q0 26 9.5 43t20.5 34t21 36.5t11 50.5q-28 7 -52 19t-42 29.5t-28.5 41.5t-10.5 56z" glyph-name="semicolon" horiz-adv-x="536" unicode=";"/><glyph d="M122 743q0 52 28.5 85.5t74.5 54.5l749 322v-125q0 -39 -14.5 -68t-39 -51t-57.5 -39t-69 -32q-118 -48 -224.5 -96t-219.5 -97q-10 -5 -24 -8t-20 -5q13 -3 31 -10t33 -12l359 -156l88 -40t79 -44.5t56.5 -56.5t21.5 -77v-126l-749 322q-46 20 -74.5 54t-28.5 87v118z " glyph-name="less" horiz-adv-x="1187" unicode="&lt;"/><glyph d="M1030 355h-874v219h874v-219zM1030 792h-874v219h874v-219z" glyph-name="equal" horiz-adv-x="1187" unicode="="/><glyph d="M1060 625q0 -53 -29 -86.5t-76 -54.5l-747 -322v126q0 51 31.5 95t91.5 70q6 3 44 19t91.5 39.5t114.5 50.5t115 50t91.5 39.5t43.5 19.5q2 1 8.5 3t14.5 4l20 6l-20 6q-8 2 -14.5 4t-9.5 3q-7 3 -44.5 20t-90.5 40t-114 49.5t-114.5 49.5t-92.5 39.5t-47 19.5 q-53 23 -86 68t-33 97v125l747 -322q46 -20 75.5 -53.5t29.5 -86.5v-118z" glyph-name="greater" horiz-adv-x="1187" unicode=">"/><glyph d="M9 1218q23 46 57 93t85 84.5t120 61t161 23.5q103 0 185 -25t139.5 -74.5t88.5 -121.5t31 -166q0 -65 -23 -121t-68 -108q-31 -37 -73 -77.5t-80 -80.5t-65 -78.5t-27 -71.5v-82h-221v75q0 73 25 130t62 103t80 85t80.5 74t62 70t24.5 73q0 33 -8 66t-31 59t-65 42 t-109 16q-49 0 -90.5 -13t-70.5 -35q-6 -5 -17 -13t-25.5 -16t-33.5 -14t-40 -6q-18 0 -39.5 4.5t-45.5 13.5zM583 134q0 -32 -12 -59t-32.5 -47t-48 -31.5t-58.5 -11.5q-32 0 -59.5 11.5t-48 31.5t-32 47t-11.5 59q0 31 11.5 58.5t32 47.5t48 32t59.5 12q31 0 58.5 -12 t48 -32t32.5 -47.5t12 -58.5z" glyph-name="question" horiz-adv-x="897" unicode="?"/><glyph d="M1214 966q-26 -114 -43.5 -196.5t-30 -140t-19.5 -93t-11 -57t-5 -32t-1 -16.5q0 -39 14.5 -54.5t34.5 -15.5q77 0 135 34t95.5 84t56.5 109t19 110q0 91 -26 165t-70 130.5t-101.5 96.5t-120.5 66t-126.5 38t-119.5 12q-95 0 -179 -25.5t-155 -70t-126.5 -106 t-94.5 -132.5t-59.5 -150t-20.5 -159q0 -90 24.5 -170.5t68 -149t103.5 -123t130.5 -93.5t149 -59.5t159.5 -20.5q110 0 220.5 30.5t208.5 82.5q32 17 70 18q36 0 66.5 -17t45.5 -35l34 -41q-3 -2 -26 -19.5t-63.5 -42.5t-98 -53.5t-128 -52.5t-153.5 -40t-176 -16 q-108 0 -210 28t-193.5 78.5t-168 122.5t-132 161.5t-86.5 193.5t-31 218q0 117 30.5 223.5t86 198.5t131.5 167t167.5 128t194 82.5t211.5 29.5q93 0 184.5 -22.5t175 -64.5t155 -103t124 -138.5t82.5 -169t30 -196.5q0 -65 -16 -129t-46.5 -123t-74 -109t-97.5 -87 t-118.5 -58t-137.5 -21q-39 0 -72.5 11t-59 29t-39.5 41.5t-14 50.5q-16 -17 -47 -30.5t-68 -13.5q-3 0 -6.5 0.5t-6.5 0.5q-8 -22 -23.5 -37t-35 -25.5t-41 -15t-41.5 -4.5q-52 0 -96.5 18.5t-76 53t-49.5 83.5t-18 110q0 132 56 230.5t151 163.5t219.5 97.5t260.5 33.5 q16 0 32 -0.5t33 -1.5zM714 355q41 0 72.5 13.5t56 34.5t42.5 48t30.5 55.5t20.5 55t13 46.5l42 173q-87 -13 -152 -43.5t-108 -74t-64.5 -98t-21.5 -115.5q0 -27 6 -45t16 -29t22.5 -16t24.5 -5z" glyph-name="at" horiz-adv-x="1705" unicode="@"/><glyph d="M605 1467h220l640 -1467h-141q-52 0 -95.5 27t-65.5 75l-94 216h-709l-93 -216q-20 -46 -64 -74t-97 -28h-142zM465 555h501l-230 528q-11 25 -15.5 48.5t-5.5 43.5q-2 -19 -7 -43.5t-15 -48.5z" glyph-name="A" horiz-adv-x="1429" unicode="A"/><glyph d="M829 1q-109 0 -217 -0.5t-217 -0.5h-218v1467h594q87 0 164.5 -33t134 -90t90 -133.5t33.5 -163.5q0 -42 -13 -90t-35.5 -89t-51.5 -69t-61 -31q46 -3 87.5 -36t73 -81.5t50.5 -107t19 -112.5q0 -89 -34 -167.5t-92.5 -136.5t-137.5 -92t-169 -34zM833 237q38 0 72.5 15 t61 41t43 62t16.5 77q0 40 -15.5 75.5t-41.5 61.5t-61 41.5t-74 15.5h-421v-389h420zM413 1231v-369h361q38 0 72 14.5t59 39.5t39 58.5t14 71.5t-14 71.5t-39 59t-59 40t-72 14.5h-361z" glyph-name="B" horiz-adv-x="1373" unicode="B"/><glyph d="M328 734q0 -106 40.5 -200t110.5 -163.5t163.5 -110t200.5 -40.5q82 0 155 24.5t136 67.5q20 13 44 20.5t50 7.5q42 0 71.5 -13.5t55.5 -38.5l50 -50q-54 -58 -118.5 -105t-136 -80.5t-149 -50.5t-158.5 -17q-156 0 -292.5 58.5t-238.5 160.5t-161 238.5t-59 291.5 q0 103 26.5 199t76 179t118 151.5t151.5 117.5t179 75.5t200 26.5q81 0 158.5 -17.5t149 -51t136 -80t118.5 -104.5l-50 -50q-26 -25 -57 -39.5t-70 -14.5q-50 0 -94 30q-63 43 -136.5 67t-154.5 24q-106 0 -200 -40.5t-164 -110t-110.5 -163.5t-40.5 -199z" glyph-name="C" horiz-adv-x="1490" unicode="C"/><glyph d="M178 0v1467h564q101 0 195.5 -26t176 -74t149 -115t115 -148.5t74.5 -175t27 -195.5q0 -101 -27 -195t-74.5 -175t-115 -148.5t-149 -115t-175.5 -73.5t-196 -26h-564zM742 236q102 0 193.5 38.5t159.5 106.5t107.5 158.5t39.5 193.5q0 102 -39.5 193t-107.5 158.5 t-159 107t-194 39.5h-328v-995h328z" glyph-name="D" horiz-adv-x="1570" unicode="D"/><glyph d="M1103 0h-925v1467h925v-230h-689v-382h558v-230h-558v-395h689v-230z" glyph-name="E" horiz-adv-x="1210" unicode="E"/><glyph d="M993 827v-230h-579v-597h-236v1467h925v-230h-689v-410h579z" glyph-name="F" horiz-adv-x="1179" unicode="F"/><glyph d="M1394 766v-603q-53 -54 -116.5 -88.5t-134 -54t-146 -27t-153.5 -7.5q-103 0 -199 26.5t-179.5 75t-151.5 117t-117.5 151.5t-76 179t-26.5 199t26.5 199t76 179t117.5 151.5t151.5 117.5t179 75.5t199.5 26.5q82 0 159.5 -17.5t149 -51t135.5 -80t118 -104.5l-49 -50 q-27 -27 -57.5 -40.5t-69.5 -13.5q-28 0 -51 8t-43 22q-63 43 -136.5 67t-155.5 24q-106 0 -199.5 -40.5t-163.5 -110t-110.5 -163t-40.5 -199.5q0 -108 42 -201.5t114 -163t167 -109.5t201 -40q93 0 166.5 14t137.5 42v260h-60q-40 0 -72 13t-55 35.5t-35 53t-12 64.5v64 h470z" glyph-name="G" horiz-adv-x="1534" unicode="G"/><glyph d="M1405 0h-236v623h-755v-623h-236v1467h236v-614h755v614h236v-1467z" glyph-name="H" horiz-adv-x="1586" unicode="H"/><glyph d="M451 0h-236v1467h236v-1467z" glyph-name="I" horiz-adv-x="664" unicode="I"/><glyph d="M460 1467h235v-1311q0 -106 -31.5 -197.5t-95 -158t-158.5 -104.5t-221 -38q-99 0 -188 34.5t-161 103.5l70 70q52 51 124 51q20 0 37.5 -5t35 -11.5t37.5 -12t45 -5.5q69 0 119.5 21t84.5 58t50.5 86.5t16.5 107.5v1311z" glyph-name="J" horiz-adv-x="908" unicode="J"/><glyph d="M1011 1369q30 46 77 72t106 26h181l-501 -681q-12 -16 -24 -23t-15 -8l15 -10t24 -23l535 -722h-181q-120 0 -185 97l-440 594q-13 17 -26.5 29t-24.5 19t-19 11t-9 5q1 0 9 3t19 10t24.5 19.5t26.5 30.5zM433 0h-235v1467h235v-1467z" glyph-name="K" horiz-adv-x="1427" unicode="K"/><glyph d="M178 0v1467h236v-1237h620v-230h-856z" glyph-name="L" horiz-adv-x="1076" unicode="L"/><glyph d="M1792 0h-236v1120q-3 -8 -7 -22.5t-8 -30.5t-8.5 -33t-10.5 -29l-40 -91q-96 -230 -193.5 -457.5t-193.5 -456.5h-222q-108 253 -213.5 502.5t-214.5 502.5q-10 23 -18.5 55t-13.5 51v-1111h-236v1467h218q53 0 97 -28.5t63 -74.5q102 -245 203.5 -486t204.5 -485 q9 -23 14 -51t6 -47q2 19 6 47t15 51q26 57 50 113.5t49 114.5l308 743q20 49 64.5 76t96.5 27h220v-1467z" glyph-name="M" horiz-adv-x="1969" unicode="M"/><glyph d="M1450 0h-207l-770 1062q-10 14 -19 31.5t-16 34t-12.5 30t-9.5 20.5v-1178h-236v1467h191q49 0 86 -14t58 -44q19 -27 53.5 -75t78.5 -110t95.5 -133t104 -144t103.5 -144t95.5 -133t78.5 -110t54 -75q15 -23 24 -52t12 -52v1086h236v-1467z" glyph-name="N" horiz-adv-x="1629" unicode="N"/><glyph d="M94 734q0 103 26.5 199t76 179t118 151.5t151.5 117.5t179 75.5t200 26.5q103 0 199 -26.5t179.5 -75.5t152 -117.5t117.5 -151.5t75.5 -178.5t26.5 -199.5q0 -103 -26.5 -199t-75.5 -179.5t-117.5 -151.5t-152 -117t-179.5 -75.5t-199 -26.5q-156 0 -292.5 58.5 t-238.5 160.5t-161 238t-59 292zM330 734q0 -106 40.5 -200t110.5 -163.5t163.5 -110t200.5 -40.5q105 0 199 40.5t164 110t110.5 163.5t40.5 200q0 105 -40.5 199t-110.5 163.5t-164 110t-199 40.5q-106 0 -200 -40.5t-164 -110t-110.5 -163.5t-40.5 -199z" glyph-name="O" horiz-adv-x="1689" unicode="O"/><glyph d="M440 0h-235v1467h530q97 0 183 -36.5t150 -100t100.5 -148.5t36.5 -183q0 -97 -36.5 -182t-100.5 -148.5t-149.5 -100.5t-183.5 -37h-295v-531zM738 767q48 0 90 18t73.5 49.5t49.5 74t18 90.5t-18 90.5t-49.5 74t-73.5 49.5t-90 18h-298v-464h298z" glyph-name="P" horiz-adv-x="1293" unicode="P"/><glyph d="M969 240q38 -50 74.5 -101t74.5 -101q-67 -27 -135.5 -39.5t-137.5 -12.5q-103 0 -199.5 26.5t-179.5 75t-151.5 117t-118 151.5t-76 179t-26.5 199t26.5 199t76 179t118 151.5t151.5 117.5t179 75.5t200 26.5q103 0 199 -26.5t179.5 -75.5t152 -117.5t117.5 -151.5 t75.5 -178.5t26.5 -199.5q0 -147 -53 -277t-146 -231l393 -530h-173q-63 0 -112 24.5t-81 73.5q-88 121 -175.5 239.5t-176.5 238.5q65 34 117.5 83t90.5 109t59 129t21 141q0 105 -40.5 199t-110.5 163.5t-164 110t-199 40.5q-106 0 -200 -40.5t-164 -110t-110.5 -163 t-40.5 -199.5q0 -108 41 -201t111.5 -161.5t165 -108t201.5 -39.5q62 1 120 16z" glyph-name="Q" horiz-adv-x="1689" unicode="Q"/><glyph d="M433 0h-235v1467h532q91 0 171 -34t140 -93.5t94 -139.5t34 -170q0 -70 -21 -132.5t-58 -115.5t-88.5 -93t-112.5 -63l464 -626h-175q-65 0 -114 24.5t-79 72.5q-6 10 -33.5 48t-66.5 90.5t-83 111.5t-83 110.5t-67 89.5t-36 47h-183v-594zM433 1231v-402h300q41 0 78 16 t63.5 43t42.5 63.5t16 78.5q0 41 -16 78t-42.5 64t-63.5 43t-78 16h-300z" glyph-name="R" horiz-adv-x="1353" unicode="R"/><glyph d="M571 1246q-42 0 -80 -11t-67.5 -31t-46.5 -48.5t-17 -61.5q0 -48 18.5 -77t59.5 -51.5t105 -45t155 -57.5q81 -30 145.5 -69t109 -91t68 -116.5t23.5 -142.5q0 -101 -41.5 -185.5t-113 -145.5t-164 -94t-194.5 -33q-104 0 -191.5 33t-157.5 98q-49 45 -78 91.5t-44 78.5 q19 9 37 19t35.5 18t35.5 13t40 5q32 0 64 -11.5t56 -30.5l8 -6q41 -31 87.5 -52.5t107.5 -21.5q46 0 95 14.5t90 43t67 70.5t26 96q0 53 -25 88t-65 59.5t-89.5 42.5t-100.5 38q-76 30 -148.5 62t-129.5 78.5t-92 113.5t-35 168q0 92 38.5 164.5t101 122.5t142.5 76t165 26 q62 0 122.5 -21t113 -53.5t96.5 -72.5t74 -76l-52 -40q-27 -24 -60.5 -36t-63.5 -12q-35 0 -63 14q-47 22 -86.5 41t-80.5 19z" glyph-name="S" horiz-adv-x="1117" unicode="S"/><glyph d="M28 1237v231h1124v-231h-443v-1237h-236v1237h-445z" glyph-name="T" horiz-adv-x="1182" unicode="T"/><glyph d="M394 578q0 -74 28.5 -139.5t77.5 -114.5t114.5 -77t139.5 -28t139 28t114 77t77.5 114.5t28.5 139.5v889h237v-889q0 -123 -47 -231t-127.5 -189t-189 -127.5t-232.5 -46.5q-123 0 -231.5 46.5t-189 127.5t-127.5 189t-47 231v889h235v-889z" glyph-name="U" horiz-adv-x="1499" unicode="U"/><glyph d="M1189 1364q20 47 64 75t97 28h141l-640 -1467h-220l-640 1467h141q26 0 50.5 -7.5t46 -21t38.5 -33t26 -41.5l427 -979q10 -24 14 -50.5t6 -45.5q0 18 6 44.5t16 50.5z" glyph-name="V" horiz-adv-x="1466" unicode="V"/><glyph d="M1244 0q-46 105 -92 213t-86 209q-11 28 -17.5 51.5t-6.5 45.5q0 15 3 29t7 24l-250 -572h-220l-640 1467h141q26 0 51 -7.5t46 -21t37 -33t26 -41.5l429 -981q9 -24 13.5 -48.5t5.5 -43.5q3 37 17.5 75t31.5 83l400 915q20 46 64 74.5t96 28.5h142q-73 -167 -144 -331.5 t-144 -330.5q26 -61 51.5 -120.5t50.5 -120.5q14 -34 30.5 -68t30 -68.5t24.5 -68.5t14 -69q1 20 5 44.5t14 48.5l429 981q20 46 64.5 74.5t96.5 28.5h141l-640 -1467h-221v0z" glyph-name="W" horiz-adv-x="2045" unicode="W"/><glyph d="M1392 1467q-127 -172 -252.5 -342.5t-253.5 -342.5q-7 -8 -10 -17.5t-3 -18.5q-1 -6 1.5 -17t10.5 -21q129 -175 262 -355t261 -353h-151q-51 0 -87.5 11t-66 30.5t-54 48.5t-51.5 66q-70 93 -137.5 186t-137.5 187q-10 14 -15 31.5t-6 22.5q0 -8 -5.5 -21t-14.5 -28.5 t-20.5 -31.5t-21.5 -31l-231 -315q-31 -39 -57 -68.5t-55 -49t-63.5 -29t-83.5 -9.5h-151l504 682q10 13 19 30t10 31q0 20 -11 37l-508 687h151q51 0 87 -10t64 -30t52.5 -48t53.5 -65q65 -90 131 -178t132 -179q5 -7 8.5 -16.5t6 -18.5t3.5 -14l1 -6q0 10 5.5 25.5 t13.5 29.5l28 38q58 80 117 159t117 159q29 39 54.5 68t54.5 48t64.5 28.5t83.5 9.5h151v0z" glyph-name="X" horiz-adv-x="1405" unicode="X"/><glyph d="M825 0h-236v621q0 19 -4 35t-11.5 30.5t-17.5 30t-24 33.5l-529 717h172q129 0 193 -98l318 -430q10 -14 15 -31.5t6 -24.5q0 5 5 23.5t16 32.5l318 430q32 49 80.5 73.5t111.5 24.5h174l-530 -717q-27 -36 -42 -63.5t-15 -65.5v-621z" glyph-name="Y" horiz-adv-x="1411" unicode="Y"/><glyph d="M409 208q6 6 14 11q7 4 16.5 7.5t20.5 3.5h740v-230h-1112v82q0 40 11 73.5t28 65t39 60.5t45 59l658 897h-742v231h1078v-101q0 -75 -41 -129z" glyph-name="Z" horiz-adv-x="1290" unicode="Z"/><glyph d="M145 1570h405l-25 -212h-169v-1443h169l25 -211h-405v1866z" glyph-name="bracketleft" horiz-adv-x="663" unicode="["/><glyph d="M903 -92h-108q-52 0 -96 28t-64 75l-653 1496h114q52 0 93 -28.5t62 -74.5z" glyph-name="backslash" horiz-adv-x="875" unicode="\"/><glyph d="M503 -296h-405l24 211h170v1443h-170l-24 212h405v-1866z" glyph-name="bracketright" horiz-adv-x="647" unicode="]"/><glyph d="M549 1483q52 0 96 -28.5t65 -75.5q53 -124 106 -247t107 -248h-84q-38 0 -66.5 8.5t-48 22t-32.5 30.5t-20 32q-15 32 -31 70.5t-32.5 78t-31.5 78t-27 70.5q-5 11 -7 19.5t-4 14.5l-11 -38l-20 -46q-11 -25 -23.5 -57.5t-26 -66.5t-26.5 -66.5t-25 -56.5 q-19 -40 -60.5 -66.5t-104.5 -26.5h-86q52 125 106 248t107 247q19 45 63.5 74.5t96.5 29.5h20z" glyph-name="asciicircum" horiz-adv-x="1094" unicode="^"/><glyph d="M809 -353h-809v218h809v-218z" glyph-name="underscore" horiz-adv-x="806" unicode="_"/><glyph d="M89 1502h152q92 0 131 -51q6 -6 42 -68t110 -195h-105q-92 0 -132 52z" glyph-name="grave" horiz-adv-x="667" unicode="`"/><glyph d="M174 904q11 17 28 36q14 15 33.5 33.5t44.5 35.5q61 39 131.5 60t157.5 21q91 0 158.5 -21.5t114.5 -60t77 -91t47 -114t23 -129.5t6 -137v-537h-192q-14 17 -22.5 44.5t-8.5 50.5q-29 -25 -67 -45t-78.5 -34.5t-81 -22t-73.5 -7.5q-83 0 -151.5 23.5t-118 67 t-77.5 104.5t-28 135q0 83 32 148.5t95.5 112t159 71t224.5 24.5q28 0 53 -1.5t45 -3.5t34 -3.5t19 -3.5q-4 58 -19.5 99t-40.5 66.5t-58.5 36.5t-72.5 11q-48 0 -76.5 -8t-50 -17.5t-42.5 -18t-53 -8.5q-30 0 -56 10.5t-50 27.5zM472 201q66 0 144 23t149 63v165 q-5 1 -21 1.5t-38.5 1.5t-50 1.5t-56.5 0.5q-57 0 -107 -8.5t-86 -25t-57 -42.5t-21 -62q0 -59 39.5 -88.5t104.5 -29.5z" glyph-name="a" horiz-adv-x="1120" unicode="a"/><glyph d="M156 0v1467h235v-467q57 51 122.5 70t128.5 19q115 0 212 -44t169 -118.5t112.5 -175.5t40.5 -214q0 -114 -40.5 -215t-112.5 -175.5t-169 -118t-212 -43.5q-67 0 -135 19.5t-127 73.5q-11 -33 -17 -55.5t-12 -22.5h-195zM642 216q67 0 122 25t95 68.5t62 102t22 125.5 t-22 125t-62 101.5t-95 68.5t-122 25q-71 0 -136.5 -27t-114.5 -75v-437q49 -46 115 -74t136 -28z" glyph-name="b" horiz-adv-x="1248" unicode="b"/><glyph d="M629 857q-66 0 -124.5 -25t-102.5 -68t-69.5 -101.5t-25.5 -124.5q0 -68 25.5 -126.5t69.5 -101.5t102.5 -68t124.5 -25q51 0 95.5 13.5t90.5 31.5q13 8 29.5 10.5t33.5 2.5q19 0 37.5 -5.5t35.5 -14.5t30.5 -20t25.5 -21l40 -39q-82 -88 -189.5 -138.5t-228.5 -50.5 q-114 0 -215 43.5t-176 118t-118.5 175.5t-43.5 215t43.5 214.5t118.5 175t176 118.5t215 44q121 0 228.5 -51.5t189.5 -138.5l-40 -40q-27 -27 -63.5 -43t-75.5 -16q-17 0 -29.5 2t-25.5 10q-46 17 -91 30t-93 14z" glyph-name="c" horiz-adv-x="1067" unicode="c"/><glyph d="M1094 0h-197l-4 6t-9 17t-10.5 24.5t-6.5 30.5q-58 -54 -126 -73.5t-134 -19.5q-114 0 -211.5 43.5t-169 118t-112 175.5t-40.5 215t40.5 214.5t112 175t169.5 118.5t211 44q65 0 129.5 -19.5t121.5 -72.5v470h236v-1467zM607 856q-67 0 -122 -25t-95 -68t-62 -101.5 t-22 -124.5q0 -68 22 -126.5t62 -101.5t95.5 -68t121.5 -25q70 0 136 27t115 74v438q-49 47 -115 74t-136 27z" glyph-name="d" horiz-adv-x="1236" unicode="d"/><glyph d="M1167 626q0 -39 -15 -69.5t-38 -50.5t-51 -30t-52 -10h-694q7 -47 33.5 -93t67 -83t93.5 -59.5t116 -22.5q43 0 83 10.5t74 30.5q41 24 90 23q36 0 65.5 -13t54.5 -39l50 -50q-82 -88 -189 -136.5t-228 -48.5q-114 0 -215 43.5t-176 118.5t-118.5 176t-43.5 215 t43.5 214.5t118.5 175t176 118.5t215 44q95 0 182 -32t157.5 -87.5t121.5 -131t74 -163.5q4 -13 4 -26t1 -24zM921 679q-15 36 -42.5 69.5t-65 60t-84 42t-99.5 15.5q-59 0 -110 -18.5t-90 -48.5t-66 -69.5t-39 -80.5q6 8 21 19t40 11h535z" glyph-name="e" horiz-adv-x="1242" unicode="e"/><glyph d="M210 0v844h-173v130q0 46 34.5 70t119.5 24h19v110q0 65 20 119t57.5 93.5t90.5 61.5t120 22q29 0 66 -9.5t75 -25t71.5 -35t55.5 -39.5q-8 -12 -15.5 -24.5t-15.5 -24.5q-24 -38 -59 -57t-80 -19q-10 0 -17 1t-15.5 2.5t-21 3t-33.5 1.5q-16 0 -28 -7t-20 -19t-12.5 -26 t-4.5 -29v-47.5t1 -52.5h257v-223h-257v-844h-235z" glyph-name="f" horiz-adv-x="743" unicode="f"/><glyph d="M1031 943q-9 -22 -21 -39.5t-29 -30.5t-41.5 -20t-56.5 -7q13 -33 22.5 -75t9.5 -85q0 -82 -31.5 -155.5t-86.5 -129t-129 -88t-159 -32.5q-92 0 -178 38q-30 -18 -41.5 -33.5t-11.5 -26.5q0 -8 4 -13l6 -6q10 -10 33 -16.5t52.5 -9.5t64 -4t68.5 -1h67q53 -2 105.5 -7.5 t99.5 -22.5q85 -30 127 -94.5t42 -143.5q0 -62 -25 -115.5t-73 -93t-119 -61.5t-163 -22q-72 0 -141.5 11.5t-135.5 29.5t-127.5 40.5t-116.5 44.5q11 31 23 59t30 49.5t44 34t66 12.5q24 0 48 -5t44 -13q14 -5 40 -15t59.5 -19t74 -15.5t85.5 -6.5q20 0 49.5 4.5t56 14 t45.5 26t19 41.5q0 22 -12.5 34t-54.5 21q-43 11 -95 14t-107 4.5t-110 5.5t-103.5 15.5t-87 36t-61.5 67.5q-17 33 -17 75q0 41 34.5 91.5t104.5 89.5q-58 59 -89.5 132t-31.5 156q0 84 32.5 157.5t87.5 129t129.5 87.5t158.5 32q65 0 123 -19t107 -53q20 11 57.5 21 t84.5 10q46 0 91.5 -11.5t83.5 -22.5zM318 684q0 -39 15 -74t40.5 -60.5t60.5 -40t74 -14.5t73 14.5t60 40t40.5 60.5t14.5 74t-14.5 73.5t-40.5 60t-60 40t-73 14.5t-74 -14.5t-60.5 -40t-40.5 -60t-15 -73.5z" glyph-name="g" horiz-adv-x="1073" unicode="g"/><glyph d="M345 1467q10 -13 20 -29q8 -14 14 -33t6 -40v-393q19 30 49.5 52t67.5 36.5t78.5 22t84.5 7.5q92 0 167 -34t129 -97t83.5 -151.5t29.5 -199.5v-608h-236v605q0 120 -42.5 189t-130.5 69q-54 0 -104 -13t-88 -35t-61.5 -52t-26.5 -62v-701h-235v1467h195z" glyph-name="h" unicode="h"/><glyph d="M406 1062v-1062h-236v1062h236zM135 1346q0 32 12.5 59.5t33 48t48.5 32.5t60 12t59.5 -12t48.5 -32.5t32.5 -48.5t11.5 -59q0 -32 -11.5 -60t-32.5 -48.5t-48.5 -32.5t-59.5 -12t-60 12t-48.5 32.5t-33 48.5t-12.5 60z" glyph-name="i" horiz-adv-x="577" unicode="i"/><glyph d="M406 1062v-1015q0 -6 -1.5 -12t-3.5 -12q-5 -71 -30.5 -135t-66.5 -118t-95 -95.5t-116 -66.5q-17 37 -34 76.5t-17 79.5q0 32 12.5 56.5t29.5 46.5t35.5 44.5t31.5 51.5q9 22 13.5 46t4.5 47v1006h237zM135 1346q0 32 12.5 59.5t33 48t48.5 32.5t60 12t60 -12 t48.5 -32.5t32.5 -48.5t12 -59q0 -32 -12 -60t-32.5 -48.5t-48.5 -32.5t-60 -12t-60 12t-48.5 32.5t-33 48.5t-12.5 60z" glyph-name="j" horiz-adv-x="573" unicode="j"/><glyph d="M391 0h-235v1467h235v-1467zM802 977q30 46 77 72t106 26h181l-359 -488q-11 -16 -24 -24t-16 -9q3 -1 16 -8.5t24 -23.5l387 -522h-181q-61 0 -107 24.5t-78 72.5l-291 393q-13 17 -26.5 29t-25 19.5t-19 11t-8.5 4.5q1 0 8.5 3t19 10t24.5 19.5t27 30.5z" glyph-name="k" horiz-adv-x="1193" unicode="k"/><glyph d="M406 1467v-1467h-236v1467h236z" glyph-name="l" horiz-adv-x="575" unicode="l"/><glyph d="M1284 1090q100 0 171 -41.5t115 -109.5t64 -155t20 -178v-606h-240v603q0 37 -6 82t-22.5 84.5t-45.5 66t-75 26.5q-54 0 -99 -14.5t-77 -38.5t-50.5 -53t-19.5 -57v-699h-239v605q0 38 -6 83t-23 83.5t-46 64.5t-74 26q-48 0 -91.5 -13t-77 -35.5t-54 -52.5t-23.5 -62 v-699h-235v1075h198q1 -4 5.5 -11.5t9.5 -20t9 -31t4 -43.5q19 31 50 53t67.5 37.5t77 23t79.5 7.5q58 0 104 -12.5t80 -36.5t58 -58t41 -77q23 48 61.5 83t86.5 57t101 33t102 11z" glyph-name="m" horiz-adv-x="1760" unicode="m"/><glyph d="M345 1075q0 -1 10.5 -16.5t12.5 -39.5q2 -11 4 -24t4 -27q22 31 53 53t69.5 37.5t81 23.5t85.5 8q92 0 167 -34t129 -97t83.5 -151.5t29.5 -199.5v-608h-236v605q0 56 -10 103.5t-31.5 80.5t-55 51.5t-81.5 18.5q-53 0 -101.5 -11.5t-86 -31.5t-61 -48.5t-26.5 -59.5 v-708h-235v1075h195z" glyph-name="n" unicode="n"/><glyph d="M74 538q0 114 43.5 214.5t118.5 176t176 119t215 43.5t214.5 -43.5t176 -119t119 -176.5t43.5 -214q0 -114 -43.5 -215t-119 -176t-176.5 -118.5t-214 -43.5q-114 0 -215 43.5t-176 118.5t-118.5 176t-43.5 215zM305 537q0 -67 25 -125t69 -101.5t102 -68.5t125 -25 q66 0 124 25t102 68.5t69 101.5t25 125t-25 125t-69 101.5t-102.5 68.5t-123.5 25q-67 0 -125 -25t-102 -68.5t-69 -101.5t-25 -125z" glyph-name="o" horiz-adv-x="1255" unicode="o"/><glyph d="M345 1075q5 -8 17 -33t12 -74q9 35 41 58t72.5 37t81 20.5t67.5 6.5q115 0 212.5 -44t169.5 -118.5t112 -175.5t40 -214q0 -114 -40 -215t-112 -175.5t-169.5 -118t-212.5 -43.5q-31 0 -63.5 4t-65 13.5t-63.5 26.5t-59 43v-420h-235v1422h195zM636 217q67 0 122 25 t95 68t62 101.5t22 126.5q0 67 -22 125t-62 101.5t-95.5 68.5t-121.5 25q-71 0 -136.5 -27t-114.5 -75v-438q49 -47 115 -74t136 -27z" glyph-name="p" horiz-adv-x="1235" unicode="p"/><glyph d="M1094 1074v-1421h-236v420q-57 -51 -122.5 -69t-128.5 -18q-115 0 -212.5 43.5t-168.5 118t-111.5 175.5t-40.5 215t40.5 214.5t111.5 175t169 118.5t212 44q62 0 132 -21t130 -76q0 14 4.5 28.5t10 26.5t10 19t5.5 7h195zM607 217q70 0 136 27t115 74v438 q-49 48 -114.5 75t-136.5 27q-67 0 -122 -25t-95 -68.5t-62 -102t-22 -124.5q0 -68 22 -126.5t62 -101.5t95 -68t122 -25z" glyph-name="q" horiz-adv-x="1247" unicode="q"/><glyph d="M332 1075q0 -1 4.5 -6.5t9 -15.5t9 -22.5t4.5 -28.5q1 -16 1 -31.5v-29.5q19 31 50.5 58t69.5 47t80.5 32t86.5 12q43 0 88 -10t86 -26q-5 -25 -9 -50l-8 -50q-11 -48 -46 -75t-82 -27h-5t-3 0.5t-7.5 0.5h-15.5q-60 0 -110.5 -17t-87 -44.5t-57.5 -63t-22 -72.5v-656 h-236v1075h200z" glyph-name="r" horiz-adv-x="798" unicode="r"/><glyph d="M62 222q19 9 38.5 19.5t39 19.5t39.5 15.5t41 6.5q26 1 49.5 -10.5t54.5 -32.5q22 -15 48.5 -25t56.5 -10q26 0 52.5 8t48 24.5t35 40t13.5 54.5q0 25 -8 42t-27.5 32t-51 29t-80.5 31q-57 19 -112.5 45t-99 62.5t-70.5 89t-27 125.5q0 65 29.5 120t77 95t108.5 63.5 t124 23.5q65 0 119 -24t94 -53.5t64 -56.5t30 -34q-23 -20 -41.5 -37t-36.5 -29t-37.5 -19t-42.5 -7q-16 0 -32 6.5t-33.5 14t-36.5 14t-42 6.5q-28 0 -49.5 -9t-37 -22.5t-23 -28.5t-7.5 -27q0 -26 13 -43.5t34 -30.5t48 -22t53 -17q65 -19 124 -44.5t105 -64t73 -93 t27 -133.5q0 -71 -27.5 -134.5t-78 -111.5t-119 -76t-151.5 -28q-56 0 -110.5 16t-102 46.5t-87.5 74.5t-68 99z" glyph-name="s" horiz-adv-x="887" unicode="s"/><glyph d="M437 844v-551q0 -32 17 -57t48 -25q24 0 45.5 6t39.5 6q33 0 59.5 -12.5t47.5 -31.5t36.5 -41.5t28.5 -41.5q-22 -22 -55.5 -41.5t-71.5 -35t-76 -24.5t-67 -9q-67 0 -120.5 22t-90.5 61t-57 93t-20 119v563h-173v140q0 26 11.5 42t31.5 25.5t46.5 13t56.5 3.5h27v224 q0 35 8.5 64.5t19.5 51.5q12 26 29 45h179v-385h287v-224h-287z" glyph-name="t" horiz-adv-x="782" unicode="t"/><glyph d="M853 0q-10 10 -20.5 38.5t-10.5 67.5q-22 -31 -53 -53t-68.5 -37.5t-80.5 -22.5t-86 -7q-92 0 -167.5 33.5t-129.5 96t-83 151t-29 199.5v609h235v-605q0 -57 10.5 -104.5t32 -80.5t54.5 -51t81 -18q53 0 101.5 12.5t86 34t61 50t26.5 61.5v701h237v-1075h-197z" glyph-name="u" unicode="u"/><glyph d="M425 0q-117 270 -231 537.5t-230 537.5h141q26 0 50.5 -7t45.5 -21t37.5 -33t25.5 -41l250 -583q11 -27 19.5 -56.5t13.5 -67.5q-1 36 15 77t42 102l226 529q20 46 63.5 74t95.5 28h140l-460 -1076h-244v0z" glyph-name="v" horiz-adv-x="1100" unicode="v"/><glyph d="M434 0q-116 270 -230.5 537.5t-229.5 537.5h141q52 0 95.5 -28t62.5 -74q65 -156 131.5 -308t133.5 -308q10 -24 13 -47t5 -47q1 25 6 47t13 43.5t17.5 43t18.5 43.5l229 534q9 22 25.5 40t37.5 32t45.5 22t49.5 8h142l-118 -273l191 -444q8 -22 13 -43.5t7 -45.5 q3 39 17.5 77.5t37.5 92.5l229 534q9 22 25.5 40t37.5 32t45.5 22t49.5 8h142l-461 -1076h-245q-43 104 -86.5 207.5t-86.5 208.5q-26 60 -26 113q0 13 3 25t7 25q-9 -28 -70.5 -173t-173.5 -406h-244v0z" glyph-name="w" horiz-adv-x="1762" unicode="w"/><glyph d="M625 727q52 68 103.5 135t104.5 134q30 43 75 61t116 18h142l-358 -486q-5 -8 -6.5 -16t-1.5 -14q0 -19 10 -33l389 -526h-142q-61 0 -112.5 15t-87.5 64q-50 61 -100.5 131.5t-111.5 150.5q-16 20 -27 42t-11 36q-2 -4 -3.5 -14.5t-6.5 -20.5q-6 -10 -12.5 -21 t-15.5 -22q-36 -48 -65.5 -88.5t-55 -74.5t-48.5 -63.5t-45 -55.5q-37 -49 -87 -64t-111 -15h-142l387 525q12 16 13 34q0 8 -2.5 15.5t-6.5 14.5q-90 122 -179 243t-179 243h142q60 0 111 -15.5t88 -64.5l200 -268q11 -14 13.5 -31t4.5 -20q1 3 4 20t14 31z" glyph-name="x" horiz-adv-x="1209" unicode="x"/><glyph d="M29 1075h142q26 0 51 -7t46.5 -21t37.5 -33t24 -42q53 -124 105 -247t106 -247q14 -35 22 -66.5t8 -62.5q0 -11 -0.5 -24t-5.5 -24q23 58 90.5 214t179.5 417l17 41q20 46 63 73.5t96 28.5h143l-596 -1366q-9 -25 -25.5 -44.5t-38 -33.5t-46.5 -21.5t-51 -7.5h-142 q52 121 103.5 239t103.5 238z" glyph-name="y" horiz-adv-x="1183" unicode="y"/><glyph d="M386 211q8 5 17 9q8 4 18.5 7t23.5 3h449v-230h-822v98q0 81 49 140q118 156 230.5 306.5t225.5 300.5h-473v230h802v-99q0 -74 -41 -128z" glyph-name="z" horiz-adv-x="984" unicode="z"/><glyph d="M88 726q20 0 41.5 8t38.5 25t28.5 42t11.5 59q0 51 -6.5 88t-14.5 71.5t-14 73.5t-6 94q0 100 35 186.5t113 143.5q29 20 56.5 34t51 21.5t42 11t28.5 3.5q5 -31 7.5 -49t4 -29t2 -17t0.5 -10q0 -34 -11 -59t-25 -43.5t-29 -31.5t-23 -22q-24 -29 -32 -70t-8 -76 q0 -50 6.5 -85t15 -70.5t15 -78.5t6.5 -109q0 -36 -7.5 -69t-22 -60t-36.5 -47t-51 -29q30 -9 52 -29t37 -47t22 -60t7 -68q0 -69 -6.5 -112.5t-15.5 -78.5t-15.5 -69t-6.5 -82q0 -41 8.5 -81t31.5 -65q8 -9 23 -22.5t29 -32t25 -43.5t11 -59q0 -5 -0.5 -10.5t-2 -16.5 t-4 -29.5t-7.5 -48.5q-2 0 -11 2t-22 5.5t-28 9t-30 14.5q-65 24 -109 62t-71.5 86t-40.5 104.5t-13 117.5q0 54 6 93t14 74.5t14.5 72.5t6.5 90q0 39 -14.5 64t-34 39t-40 20t-32.5 7v187z" glyph-name="braceleft" horiz-adv-x="635" unicode="{"/><glyph d="M215 1616h211v-1911h-211v1911z" glyph-name="bar" horiz-adv-x="614" unicode="|"/><glyph d="M558 539q-20 -1 -41.5 -10t-39 -25.5t-29 -41.5t-11.5 -59q0 -50 6.5 -86.5t14 -71t14 -73.5t6.5 -94q0 -101 -34 -186.5t-114 -142.5q-33 -24 -62 -37.5t-52 -20.5t-39.5 -10t-23.5 -3q-5 30 -8 48.5t-4 29.5l-1.5 16.5t-0.5 10.5q0 34 10.5 59t24.5 43.5t29 31t23 23.5 q23 26 32 65t9 81q0 50 -7 85t-15 69.5t-15.5 77.5t-7.5 110q0 35 8 68t22 60t36 47t52 29q-29 9 -51 29t-36 47t-22 60t-8 69q0 69 7 112t15.5 78.5t15 69t6.5 83.5q0 36 -8.5 76.5t-32.5 69.5q-8 9 -22.5 22t-28.5 31.5t-25 43.5t-11 59q0 4 0.5 10t1.5 17t3.5 29t8.5 49 q7 0 22 -2.5t35.5 -8.5t44.5 -16t48 -25q94 -57 134.5 -148.5t40.5 -201.5q0 -54 -6.5 -93t-14 -74t-14 -72.5t-6.5 -89.5q0 -39 14 -64.5t33.5 -40t40 -20t33.5 -5.5v-187z" glyph-name="braceright" horiz-adv-x="651" unicode="}"/><glyph d="M96 509q2 7 12 30t28 54.5t43.5 65t60.5 63t80.5 48t100.5 20.5q65 0 115.5 -16t94 -34.5t84.5 -34.5t86 -16q27 0 44 16.5t35 36t40.5 36t60.5 16.5q16 -2 33.5 -4t37.5 -6l70 -15q0 -4 -3.5 -18.5t-10.5 -35t-18 -45t-25 -48.5q-46 -76 -113.5 -114.5t-147.5 -38.5 q-65 0 -115 15.5t-93.5 33.5t-82.5 33t-80 15q-29 0 -48.5 -14.5t-37 -32.5t-37 -33t-48.5 -15q-25 0 -62.5 9t-103.5 29z" glyph-name="asciitilde" horiz-adv-x="1211" unicode="~"/><glyph d="M475 633v-979h-226v979h226zM513 986q0 -31 -12 -58.5t-32 -47.5t-48 -31.5t-59 -11.5q-32 0 -59.5 11.5t-48 31.5t-32 47.5t-11.5 58.5q0 32 11.5 59t32 47.5t48.5 32.5t59 12t59 -12t48 -32.5t32 -47.5t12 -59z" glyph-name="exclamdown" horiz-adv-x="722" unicode="¡"/><glyph d="M510 -1q-93 19 -172.5 69t-138 121.5t-91 160.5t-32.5 188q0 98 32.5 187t91 160t138 121t172.5 70v358h211v-353q94 -17 176.5 -63.5t149.5 -117.5l-40 -40q-27 -27 -63.5 -43t-75.5 -16q-17 0 -29.5 2t-25.5 10q-24 8 -46.5 16t-45.5 14v-614q24 6 47.5 14.5t46.5 18.5 q13 8 29.5 10.5t33.5 2.5q19 0 37.5 -5.5t35.5 -14.5t30.5 -20t25.5 -21l40 -39q-67 -71 -149.5 -118t-176.5 -63v-350h-211v355zM307 538q0 -51 15.5 -97.5t42 -85.5t64 -68.5t81.5 -46.5v594q-44 -17 -81.5 -47t-64 -68.5t-42 -84.5t-15.5 -96z" glyph-name="cent" horiz-adv-x="1067" unicode="¢"/><glyph d="M843 746v-116h-369v-208q0 -38 -6.5 -66.5t-19 -50.5t-30.5 -40t-40 -36h757l23 -229h-1057v122q0 29 4 47t19 32q9 8 28.5 28t38.5 48.5t33.5 63.5t14.5 74v215h-147v116h147v272q0 96 36.5 181t100 148t148.5 100t183 37q68 0 130 -19.5t117 -55t99.5 -84.5t75.5 -108 l-58 -32q-31 -17 -57 -24t-48 -7q-25 0 -45.5 6t-37.5 15t-30 18.5t-24 16.5q-24 16 -58 26.5t-63 10.5q-47 0 -89 -18t-74.5 -48.5t-51.5 -72.5t-19 -90v-272h369z" glyph-name="sterling" horiz-adv-x="1207" unicode="£"/><glyph d="M196 684q0 63 20.5 122.5t54.5 107.5l-85 85l94 94l81 -83q49 34 109.5 54t125.5 20q63 0 123.5 -21t109.5 -54q3 3 15.5 15t27.5 27t26.5 27.5t13.5 14.5l94 -94l-84 -85q34 -49 54.5 -107.5t20.5 -122.5q0 -65 -20.5 -124t-53.5 -108l85 -85l-94 -95l-86 86 q-49 -33 -109 -53t-123 -20q-65 0 -124 19.5t-107 52.5l-85 -85l-95 94l84 85q-34 49 -53.5 108.5t-19.5 124.5zM403 684q0 -40 15 -75.5t41 -61.5t61.5 -41.5t75.5 -15.5t75 15.5t61 41.5t40.5 61.5t14.5 75.5t-14.5 75t-40.5 61t-61 41.5t-75 15.5t-75.5 -15.5 t-61.5 -41.5t-41 -61t-15 -75z" glyph-name="currency" horiz-adv-x="1187" unicode="¤"/><glyph d="M333 603h234v18q0 19 -4 35t-11 30.5t-17.5 30t-23.5 33.5l-529 717h155q46 0 81 -10t62.5 -29.5t51.5 -46.5t51 -62q71 -96 141 -190t141 -190q10 -14 14 -31.5t6 -24.5q0 7 5 24.5t17 31.5l280 379q30 40 56.5 68.5t56 46.5t66 26t85.5 8h140l-531 -717 q-27 -36 -41.5 -63.5t-14.5 -65.5v-18h233v-118h-233v-83h233v-117h-233v-285h-237v285h-234v117h234v83h-234v118z" glyph-name="yen" horiz-adv-x="1368" unicode="¥"/><glyph d="M215 1616h211v-817h-211v817zM215 522h211v-817h-211v817z" glyph-name="brokenbar" horiz-adv-x="631" unicode="¦"/><glyph d="M918 694q0 -46 -14 -93.5t-39.5 -88.5t-62 -72t-80.5 -47q34 -10 58.5 -31.5t40.5 -50.5t23 -63.5t7 -70.5q0 -73 -30 -130.5t-80 -97.5t-113.5 -61t-130.5 -21q-49 0 -99 18.5t-95 47t-82.5 62.5t-61.5 64l54 40q19 16 43 25.5t50 9.5q30 0 55 -10t48 -22.5t45 -22.5 t45 -10q25 0 50 7t46 21t34.5 33.5t13.5 42.5q0 30 -12.5 50.5t-39 38.5t-69 34.5t-102.5 38.5q-2 0 -6 2q-71 26 -125.5 57.5t-91 72t-55.5 91.5t-19 116q0 48 14 93.5t40 85.5t61.5 73t80.5 56q-36 7 -60.5 28t-39.5 50.5t-22 63t-7 67.5q0 72 30.5 129t80 97t113 61 t130.5 21q49 0 98.5 -19t94.5 -47.5t82.5 -63t62.5 -64.5l-59 -43q-23 -16 -45 -23.5t-46 -7.5q-17 0 -36 4t-33 12q-33 18 -63 33t-56 15q-23 0 -42 -8q-47 -8 -75.5 -35t-28.5 -60q0 -30 12 -50.5t38 -37.5t68.5 -32.5t103.5 -37.5l8 -3q70 -25 124 -56.5t91 -72.5t56 -93 t19 -115zM525 834q-33 0 -67.5 -10.5t-63 -31t-47 -50t-18.5 -68.5q0 -33 16 -59t42.5 -44.5t60 -28.5t67.5 -10q33 0 68 11t64 31.5t47.5 50.5t18.5 69q0 32 -17 57.5t-43.5 44t-60 28.5t-67.5 10z" glyph-name="section" horiz-adv-x="1030" unicode="§"/><glyph d="M32 1327q0 27 9.5 50.5t27 41.5t41 28t50.5 10t50 -10t41 -28t28.5 -41.5t10.5 -50.5t-10.5 -50.5t-28.5 -40.5t-41.5 -27t-49.5 -10q-27 0 -50.5 10t-41 27t-27 40.5t-9.5 50.5zM392 1327q0 27 10.5 50.5t27.5 41.5t40.5 28t49.5 10q27 0 50.5 -10t41.5 -28t28 -41.5 t10 -50.5t-10 -50.5t-28 -40.5t-41.5 -27t-50.5 -10t-50 10t-40 27t-27.5 40.5t-10.5 50.5z" glyph-name="dieresis" horiz-adv-x="689" unicode="¨"/><glyph d="M71 734q0 103 26.5 199t75.5 179t117 151.5t151.5 117.5t179.5 75.5t199 26.5t199.5 -26.5t179.5 -75.5t151.5 -117.5t118 -151.5t76 -178.5t26.5 -199.5q0 -156 -59 -292t-161 -238t-238.5 -160.5t-292.5 -58.5t-292 58.5t-238 160.5t-160.5 238t-58.5 292zM202 734 q0 -85 22.5 -163.5t63 -148t96.5 -125.5t125 -96.5t147.5 -62.5t163.5 -22t164 22t148 62.5t125.5 96.5t97 125.5t63 148t22.5 163.5t-22.5 164t-63 147.5t-97 125t-125.5 97t-148 62.5t-164 22t-163.5 -22t-147.5 -62.5t-125 -97t-96.5 -125t-63 -147.5t-22.5 -164z M495 733q0 -71 26 -130.5t70.5 -103t104 -68t124.5 -24.5q50 0 95.5 15t83.5 42q13 8 32 13.5t36 5.5q53 0 84 -32l29 -30q-71 -77 -163.5 -121t-196.5 -44q-98 0 -185 37.5t-152 102.5t-103 152t-38 185t38 185t103 152t152 102t185 37q103 0 196 -44t164 -121l-29 -29 q-17 -16 -37 -25t-47 -9q-17 0 -35 5.5t-33 14.5q-39 27 -84 42.5t-95 15.5q-66 0 -125 -24.5t-103.5 -68.5t-70.5 -103.5t-26 -129.5z" glyph-name="copyright" horiz-adv-x="1636" unicode="©"/><glyph d="M101 1509q9 13 21 27q10 11 24 24.5t31 24.5q45 29 96 44.5t114 15.5q99 0 160 -34.5t94.5 -91t44 -128.5t10.5 -148v-389h-140q-8 11 -14.5 27t-9.5 31q-20 -17 -47 -30.5t-56.5 -21.5t-58.5 -12t-53 -4q-60 0 -109.5 17.5t-86 48.5t-56.5 75.5t-20 99.5q0 119 92 187.5 t280 68.5q39 0 69.5 -2.5t37.5 -4.5q-1 41 -12 70t-29.5 47t-43 26.5t-52.5 8.5q-35 0 -55.5 -5.5t-36 -13t-31 -13t-38.5 -5.5q-41 0 -78 29zM316 1001q48 0 104.5 16.5t106.5 45.5v114q-7 2 -41 5.5t-76 3.5t-77.5 -5.5t-62 -18t-41.5 -31.5t-15 -45q0 -43 28 -64t74 -21z " glyph-name="ordfeminine" horiz-adv-x="765" unicode="ª"/><glyph d="M292 876q24 54 73 85t107 31h76l-162 -384q-11 -24 -28 -41t-35 -26q17 -9 35 -25.5t28 -40.5l162 -384h-76q-65 0 -110.5 31t-69.5 86q-5 12 -15.5 36.5t-23 55t-26.5 63.5t-27 63.5t-23 55t-15 36.5t-13 17t-9 7q2 0 9 5.5t13 18.5zM636 876q24 54 72.5 85t107.5 31h76 l-163 -384q-11 -24 -28 -41t-35 -26q18 -9 35.5 -25.5t27.5 -40.5l163 -384h-76q-65 0 -111 31t-69 86q-5 12 -15.5 36.5t-23 55t-27 63.5t-27.5 63.5t-23 55t-15 36.5t-12.5 17t-9.5 7q2 0 9.5 5.5t12.5 18.5z" glyph-name="guillemotleft" horiz-adv-x="1039" unicode="«"/><glyph d="M830 314v226h-676v219h896v-445h-220z" glyph-name="logicalnot" unicode="¬"/><glyph d="M641 503h-546v219h546v-219z" glyph-name="uni00AD" horiz-adv-x="740" unicode="­"/><glyph d="M71 734q0 103 26.5 199t75.5 179t117 151.5t151.5 117.5t179.5 75.5t199 26.5t199.5 -26.5t179.5 -75.5t151.5 -117.5t118 -151.5t76 -178.5t26.5 -199.5q0 -103 -26.5 -199t-76 -179t-118 -151.5t-151.5 -117t-179 -75t-200 -26.5q-103 0 -199 26.5t-179.5 75 t-151.5 117t-117 151.5t-75.5 179t-26.5 199zM684 279h-144v909h330q56 0 105.5 -21t86.5 -58t58.5 -86t21.5 -105q0 -43 -13 -82t-36.5 -72t-55.5 -58t-70 -39l280 -379q90 85 141.5 199.5t51.5 246.5q0 85 -22.5 164t-63 147.5t-97 125t-125.5 97t-148 62.5t-164 22 t-163.5 -22t-147.5 -62.5t-125 -97t-96.5 -125t-63 -147.5t-22.5 -164t22.5 -163.5t63 -148t96.5 -125.5t125 -96.5t147.5 -62.5t163.5 -22q86 0 164.5 22t148.5 63l-332 447h-117v-369zM677 1044v-251h187q26 0 49 9.5t40 26.5t26.5 39.5t9.5 49.5q0 26 -9.5 49t-26.5 40 t-40 27t-49 10h-187z" glyph-name="registered" horiz-adv-x="1634" unicode="®"/><glyph d="M31 1417h584v-188h-584v188z" glyph-name="macron" horiz-adv-x="649" unicode="¯"/><glyph d="M77 1154q0 71 27 132.5t73 107.5t108 72.5t133 26.5t132.5 -26.5t108 -72.5t73.5 -107.5t27 -132.5t-27 -133t-73.5 -108t-108.5 -72.5t-132 -26.5q-71 0 -133 26.5t-108 72.5t-73 108t-27 133zM253 1153q0 -34 13.5 -64t35.5 -52t52 -35.5t64 -13.5t64 13.5t52.5 35.5 t36 52t13.5 64t-13.5 64t-36 52.5t-52.5 36t-64 13.5t-64 -13.5t-52 -36t-35.5 -52.5t-13.5 -64z" glyph-name="degree" horiz-adv-x="840" unicode="°"/><glyph d="M104 390h976v-219h-976v219zM482 430v340h-378v219h378v379h219v-379h380v-219h-380v-340h-219z" glyph-name="plusminus" horiz-adv-x="1187" unicode="±"/><glyph d="M629 879h-536v69q0 16 4.5 38t18.5 37q0 2 14.5 17.5t38.5 40t54 55.5t61 65t61.5 68t54 64t38 53.5t14.5 36.5q0 25 -13 41t-30.5 25.5t-37 13.5t-32.5 4q-27 0 -47 -9t-37 -21t-34 -21t-37 -9q-13 0 -24.5 5t-22.5 10l-51 26q13 33 36.5 66.5t56.5 60.5t75 44.5 t93 17.5q54 0 104 -18t87 -50.5t60 -78t23 -99.5q0 -31 -13.5 -66t-35.5 -71t-49.5 -71t-56.5 -67.5t-56 -60t-48 -46.5h267v-170z" glyph-name="uni00B2" horiz-adv-x="709" unicode="²"/><glyph d="M359 884q-121 0 -196 63q-13 12 -25 28t-22.5 32.5t-18 32t-12.5 25.5l51 25q13 7 23.5 11t27.5 4t36.5 -7t33.5 -20q0 -1 3.5 -4t4.5 -3q15 -13 34.5 -21t44.5 -8q38 0 64 26.5t26 63.5q0 39 -25 67t-63 28h-76v145h76q29 0 51 21t22 55q0 31 -22 52t-51 21 q-5 0 -10 -2.5t-8 -5.5q-9 -1 -20.5 -7t-24.5 -13t-28 -12.5t-33 -5.5h-4q-18 0 -34 7t-29 17l-49 38q50 61 108.5 100t125.5 39q46 0 88 -17.5t74 -47.5t50.5 -71.5t18.5 -89.5q0 -17 -5.5 -37t-14.5 -40t-20.5 -38t-23.5 -31q36 -30 60.5 -78t24.5 -98q0 -49 -18 -92.5 t-49 -76.5t-74 -53t-92 -22z" glyph-name="uni00B3" horiz-adv-x="679" unicode="³"/><glyph d="M342 1240q-39 -51 -131 -51h-106q75 132 111 194t42 69q37 50 131 50h152z" glyph-name="acute" horiz-adv-x="678" unicode="´"/><glyph d="M125 1075h226v-705q3 -34 21 -64t49 -52t73 -35.5t93 -14.5q50 1 92.5 14.5t73 36.5t49 52t21.5 63v705h227v-1075h-187q-3 1 -8 9.5t-10 23t-8.5 33.5t-3.5 42q-38 -61 -101.5 -91.5t-143.5 -30.5q-79 0 -139 28.5t-98 91.5v-454h-226v1423z" glyph-name="uni00B5" horiz-adv-x="1191" unicode="µ"/><glyph d="M41 993q0 98 37 185t101.5 151t151 101t184.5 37h825v-212h-208v-1458h-211v1458h-215v-1458h-211v724q-95 3 -178.5 41.5t-144 102t-96 148t-35.5 180.5z" glyph-name="paragraph" horiz-adv-x="1377" unicode="¶"/><glyph d="M142 609q0 32 12.5 60t33 48.5t48.5 33t61 12.5q32 0 60.5 -12.5t49.5 -33t33.5 -48.5t12.5 -60q0 -33 -12.5 -61t-33.5 -48.5t-49.5 -32.5t-60.5 -12q-33 0 -61 12t-48.5 32.5t-33 48.5t-12.5 61z" glyph-name="periodcentered" horiz-adv-x="594" unicode="·"/><glyph d="M205 10h127l-1 -79q41 -4 76.5 -17.5t62 -34.5t41 -48.5t14.5 -56.5q0 -33 -17.5 -62.5t-48 -51.5t-73 -35t-93.5 -13q-26 0 -50 7t-42 15q-22 10 -41 24v93q20 -9 43 -16q19 -6 43 -11.5t49 -5.5q33 0 56 15t23 36q0 24 -24 39t-57 15q-7 0 -15 -0.5t-19 -0.5 q-24 0 -39 10t-15 49v129z" glyph-name="cedilla" horiz-adv-x="651" unicode="¸"/><glyph d="M629 888h-455v172h149v374q-32 -20 -64 -21q-14 0 -31 4.5t-25 13.5l-51 49l201 193h143v-613h133v-172z" glyph-name="uni00B9" horiz-adv-x="718" unicode="¹"/><glyph d="M55 1108q0 80 30.5 150t82.5 122.5t122 82.5t150 30t151 -30t123.5 -82.5t82.5 -122.5t30 -150t-30 -150t-82.5 -122t-123.5 -82t-151 -30t-150 30t-122 82t-82.5 122t-30.5 150zM263 1108q0 -37 14 -69t38.5 -56.5t56.5 -38t69 -13.5t69 13.5t56 38t37.5 56.5t13.5 69 t-13.5 69t-37.5 56t-56 38t-69 14t-69 -14t-56.5 -38t-38.5 -56t-14 -69z" glyph-name="ordmasculine" horiz-adv-x="910" unicode="º"/><glyph d="M859 566q6 -14 13.5 -19t8.5 -5q-2 -2 -9.5 -7t-12.5 -17l-136 -323q-20 -46 -64.5 -75t-95.5 -29h-90l163 384q9 24 27 40t36 26q-18 9 -35 26.5t-28 40.5l-163 384h90q51 0 95 -28.5t65 -74.5zM516 566q6 -14 13 -19t8 -5q-2 -2 -9 -7t-12 -17l-136 -323 q-20 -46 -64.5 -75t-96.5 -29h-89l162 384q10 24 27.5 40t35.5 26q-18 9 -35 26.5t-28 40.5l-162 384h89q52 0 96 -28.5t65 -74.5z" glyph-name="guillemotright" horiz-adv-x="1024" unicode="»"/><glyph d="M1177 0v163h-323v93q0 11 3.5 23t8 22t9 18t6.5 11q51 87 110.5 184.5t130.5 215.5q14 25 37 38t48 13h127v-459h92v-159h-92v-163h-157zM338 0q165 343 326 682t326 682q20 46 61.5 74.5t93.5 28.5h99q-164 -344 -325.5 -683t-326.5 -682q-22 -46 -65 -74t-95 -28h-94z M563 855q0 -43 1 -86l2 -86h-458v172h148v374q-14 -10 -31 -15.5t-32 -5.5q-14 0 -31 5t-25 13l-51 49l201 193h142v-613h134zM1184 322v212l-128 -212h128z" glyph-name="onequarter" horiz-adv-x="1458" unicode="¼"/><glyph d="M338 0q165 343 326 682t326 682q20 46 61.5 74.5t93.5 28.5h99q-164 -344 -325.5 -683t-326.5 -682q-22 -46 -65 -74t-95 -28h-94zM563 855q0 -43 1 -86l2 -86h-458v172h148v374q-14 -10 -31 -15.5t-32 -5.5q-14 0 -31 5t-25 13l-51 49l201 193h142v-613h134zM1458 0 h-535v69q0 16 5 37.5t17 36.5q0 2 15 17t38.5 39.5t53.5 56t61.5 65t61.5 68t53.5 64t38 53.5t14.5 38q0 25 -13 41t-30.5 26t-36.5 14t-32 4q-30 0 -50 -10t-37 -21t-32.5 -21t-34.5 -10q-14 0 -25.5 5.5t-21.5 10.5l-52 25q13 33 36.5 67t56 61.5t75 45t94.5 17.5 q54 0 103.5 -18t87 -51t60 -78.5t22.5 -100.5q0 -32 -14 -66.5t-35.5 -70.5t-49.5 -71t-56.5 -66.5t-56 -59.5t-46.5 -48h265v-169z" glyph-name="onehalf" horiz-adv-x="1458" unicode="½"/><glyph d="M1177 0v163h-323v93q0 11 3.5 23t8 22t9 18t6.5 11q51 87 110.5 184.5t130.5 215.5q14 25 37 38t48 13h127v-459h92v-159h-92v-163h-157zM338 0q165 343 326 682t326 682q20 46 61.5 74.5t93.5 28.5h99q-164 -344 -325.5 -683t-326.5 -682q-22 -46 -65 -74t-95 -28h-94z M1184 322v212l-128 -212h128zM359 682q-60 0 -108.5 15.5t-87.5 47.5q-13 11 -25 27t-22.5 32.5t-18 32t-12.5 26.5l40 20q16 8 31.5 14t30.5 6q17 0 37 -7.5t36 -22.5l5 -4q14 -13 35 -21t44 -8q38 0 64 26.5t26 63.5q0 39 -25 67t-63 28h-76v144h76q27 0 49 20t22 50 t-19 54.5t-53 24.5q-12 0 -24.5 -7t-26.5 -15.5t-31.5 -15.5t-40.5 -7q-20 0 -37 6.5t-30 17.5l-49 38q50 61 108.5 100.5t125.5 39.5q46 0 88 -17.5t74 -48t50.5 -72t18.5 -89.5q0 -17 -5.5 -37.5t-14.5 -40t-20.5 -37.5t-23.5 -31q36 -30 60.5 -78t24.5 -97t-18 -92.5 t-49 -77t-74 -53.5t-92 -22z" glyph-name="threequarters" horiz-adv-x="1460" unicode="¾"/><glyph d="M886 -102q-23 -46 -57 -93t-85 -84t-120 -61t-161 -24q-103 0 -185 25.5t-139.5 74.5t-88.5 121t-31 167q0 65 23 120t68 108q31 37 73 77.5t80 80.5t65 78t27 72v82h220v-75q0 -73 -24.5 -130t-61.5 -103t-80 -85t-80.5 -74t-62 -69.5t-24.5 -73.5q0 -33 8 -66t31 -59 t65 -42t109 -16q49 0 90.5 12.5t70.5 36.5q6 4 16.5 12t25.5 15.5t33.5 14t40.5 6.5q18 0 39.5 -4t45.5 -14zM312 982q0 31 12 58.5t32.5 47.5t48 32t58.5 12q32 0 59.5 -12t48 -32t32 -47.5t11.5 -58.5q0 -32 -11.5 -59t-32 -47t-48 -31.5t-59.5 -11.5q-31 0 -58.5 11.5 t-48 31.5t-32.5 47t-12 59z" glyph-name="questiondown" horiz-adv-x="883" unicode="¿"/><glyph d="M505 1855h151q94 0 131 -50q6 -7 39 -59q32 -52 99 -166h-106q-93 0 -131 52zM605 1467h220l640 -1467h-141q-52 0 -96 27t-65 75l-94 216h-709l-93 -216q-20 -46 -64 -74t-97 -28h-142zM465 555h501l-230 528q-11 25 -16 49t-5 43q-2 -19 -7 -44q-5 -24 -15 -48z" glyph-name="Agrave" horiz-adv-x="1429" unicode="À"/><glyph d="M742 1632q-39 -51 -132 -51h-105q67 113 99 165t38 59q39 51 131 52h152zM605 1467h220l640 -1467h-141q-52 0 -96 27t-65 75l-94 216h-709l-93 -216q-20 -46 -64 -74t-97 -28h-142zM465 555h501l-230 528q-11 25 -16 49t-5 43q-2 -19 -7 -44q-5 -24 -15 -48z" glyph-name="Aacute" horiz-adv-x="1429" unicode="Á"/><glyph d="M730 1680q-6 7 -10 16q-4 8 -5 13q-3 -5 -7 -13t-9 -15l-31 -32q-26 -27 -46 -46t-41 -33q-21 -13 -46 -19q-26 -6 -62 -6h-82l176 233q18 27 52 39q33 12 79 12h33q91 0 130 -51q44 -58 88 -117q44 -58 89 -116h-82q-45 0 -76 11q-32 11 -57 31q-25 19 -47 43 q-21 23 -46 50zM605 1467h220l640 -1467h-141q-52 0 -96 27t-65 75l-94 216h-709l-93 -216q-20 -46 -64 -74t-97 -28h-142zM465 555h501l-230 528q-11 25 -16 49t-5 43q-2 -19 -7 -44q-5 -24 -15 -48z" glyph-name="Acircumflex" horiz-adv-x="1429" unicode="Â"/><glyph d="M834 1539q-37 0 -71 13q-33 13 -63 30q-30 16 -56 30q-26 13 -46 13q-15 0 -24 -8t-13 -19q-5 -12 -7 -25t-1 -25h-157q0 50 12 94q11 44 35 77t60 51t85 19q34 0 65 -13q32 -13 61 -30q29 -16 55 -29q27 -13 51 -13q33 0 42 19t9 49h161q-4 -54 -13 -97q-9 -42 -31 -71 t-58 -45q-37 -17 -96 -20zM605 1467h220l640 -1467h-141q-52 0 -96 27t-65 75l-94 216h-709l-93 -216q-20 -46 -64 -74t-97 -28h-142zM465 555h501l-230 528q-11 25 -16 49t-5 43q-2 -19 -7 -44q-5 -24 -15 -48z" glyph-name="Atilde" horiz-adv-x="1429" unicode="Ã"/><glyph d="M406 1701q0 27 9 50q10 24 27 42t41 28t51 10t50 -10q24 -10 41 -28q18 -18 28 -42t11 -50q0 -27 -11 -50q-10 -24 -28 -41t-41 -27q-24 -10 -50 -10q-27 0 -51 10t-41 27t-27 41q-9 23 -9 50zM766 1701q0 27 10 50q10 24 28 42q17 18 40 28t50 10t50 -10q24 -10 42 -28 t28 -42t10 -50q0 -27 -10 -50q-10 -24 -28 -41t-42 -27t-50 -10q-27 0 -50 10t-40 27t-28 41q-10 23 -10 50zM605 1467h220l640 -1467h-141q-52 0 -96 27t-65 75l-94 216h-709l-93 -216q-20 -46 -64 -74t-97 -28h-142zM465 555h501l-230 528q-11 25 -16 49t-5 43 q-2 -19 -7 -44q-5 -24 -15 -48z" glyph-name="Adieresis" horiz-adv-x="1429" unicode="Ä"/><glyph d="M510 1770q0 42 16 80q16 37 43 65q28 28 65 43q37 16 81 16q42 0 79 -16t65 -43q28 -28 44 -65t16 -80q0 -42 -16 -79t-44 -65t-65 -43q-37 -16 -79 -16q-43 0 -81 16q-37 16 -65 43q-28 28 -43 65q-16 37 -16 79zM644 1770q0 -30 21 -49q20 -20 50 -20t49 20 q20 20 20 49q0 30 -20 51q-20 20 -49 20q-30 0 -50 -20q-21 -21 -21 -51zM605 1467h220l640 -1467h-141q-52 0 -96 27t-65 75l-94 216h-709l-93 -216q-20 -46 -64 -74t-97 -28h-142zM465 555h501l-230 528q-11 25 -16 49t-5 43q-2 -19 -7 -44q-5 -24 -15 -48z" glyph-name="Aring" horiz-adv-x="1429" unicode="Å"/><glyph d="M1828 0h-483q-53 0 -94.5 27.5t-58.5 76.5l-74 214h-702l-114 -217q-26 -46 -71.5 -73.5t-97.5 -27.5h-148q194 367 387.5 733.5t388.5 733.5h1067v-236h-764l129 -373h504v-236h-424l133 -386h422v-236zM1038 555q-45 133 -89 263.5t-88 263.5q-7 20 -10.5 44t-3.5 38 q-2 -13 -8 -35t-19 -46l-278 -528h496z" glyph-name="AE" horiz-adv-x="1949" unicode="Æ"/><glyph d="M751 10h127l-1 -79q41 -4 76 -18q36 -14 62 -34q26 -21 41 -48t15 -57q0 -33 -17 -63t-48 -51q-31 -22 -74 -35q-42 -13 -93 -13q-26 0 -50 7t-43 15q-22 10 -40 24v93q20 -9 43 -16q19 -6 43 -11t49 -6q33 0 56 15t23 36q0 24 -25 38q-24 15 -56 16q-7 0 -15 -1t-19 0 q-24 0 -39 10t-15 49v129zM328 734q0 105 40 199t111 164q70 70 164 110t200 40q81 0 154 -24t137 -67q44 -30 94 -30q39 0 70 15q31 14 57 39l50 50q-54 58 -119 105t-136 80t-149 50t-158 18q-103 0 -200 -27q-96 -27 -179 -75q-83 -49 -152 -117q-69 -69 -117 -152 q-49 -83 -76 -179t-27 -199q0 -156 59 -292t161 -238t238 -160q137 -59 293 -59q81 0 158 17q78 17 149 51q71 33 136 80t119 105l-50 50q-26 26 -56 39t-71 13q-26 0 -50 -7t-44 -21q-62 -43 -136 -67q-73 -25 -155 -25q-106 0 -200 41q-94 40 -164 110t-111 163 q-40 94 -40 200z" glyph-name="Ccedilla" horiz-adv-x="1490" unicode="Ç"/><glyph d="M395 1855h152q94 0 131 -50q6 -7 38 -59t99 -166h-105q-93 0 -131 52zM1103 0h-925v1467h925v-230h-689v-382h558v-230h-558v-395h689v-230z" glyph-name="Egrave" horiz-adv-x="1210" unicode="È"/><glyph d="M633 1632q-39 -51 -132 -51h-106q67 113 99 165t38 59q39 51 132 52h151zM1103 0h-925v1467h925v-230h-689v-382h558v-230h-558v-395h689v-230z" glyph-name="Eacute" horiz-adv-x="1210" unicode="É"/><glyph d="M621 1680q-6 7 -10 16q-4 8 -6 13q-3 -5 -6 -13q-4 -8 -9 -15l-32 -32q-26 -27 -45 -46q-20 -19 -41 -33q-21 -13 -47 -19t-61 -6h-82l176 233q18 27 51 39t80 12h33q91 0 130 -51q44 -58 88 -117q44 -58 89 -116h-82q-45 0 -77 11t-57 31q-25 19 -46 43q-21 23 -46 50z M1103 0h-925v1467h925v-230h-689v-382h558v-230h-558v-395h689v-230z" glyph-name="Ecircumflex" horiz-adv-x="1210" unicode="Ê"/><glyph d="M296 1701q0 27 10 50q10 24 27 42t41 28t50 10q27 0 50 -10q24 -10 42 -28t28 -42t10 -50q0 -27 -10 -50q-10 -24 -28 -41t-42 -27t-50 -10q-27 0 -50 10q-24 10 -41 27t-27 41q-10 23 -10 50zM656 1701q0 27 11 50q10 24 27 42t41 28q23 10 49 10q27 0 51 -10t41 -28 q18 -18 28 -42t10 -50q0 -27 -10 -50q-10 -24 -28 -41t-41 -27q-24 -10 -51 -10t-49 10q-23 10 -41 27q-17 17 -27 41q-11 23 -11 50zM1103 0h-925v1467h925v-230h-689v-382h558v-230h-558v-395h689v-230z" glyph-name="Edieresis" horiz-adv-x="1210" unicode="Ë"/><glyph d="M40 1855h151q94 0 132 -50q6 -7 38 -59t99 -166h-106q-93 0 -131 52zM451 0h-236v1467h236v-1467z" glyph-name="Igrave" horiz-adv-x="664" unicode="Ì"/><glyph d="M359 1632q-39 -51 -132 -51h-105q67 113 99 165t38 59q39 51 131 52h152zM451 0h-236v1467h236v-1467z" glyph-name="Iacute" horiz-adv-x="664" unicode="Í"/><glyph d="M348 1680q-6 7 -10 16q-4 8 -5 13q-3 -5 -7 -13t-9 -15l-31 -32q-26 -27 -46 -46t-41 -33q-21 -13 -46 -19q-26 -6 -62 -6h-82l176 233q18 27 52 39q33 12 79 12h33q91 0 130 -51q44 -58 88 -117q44 -58 89 -116h-82q-45 0 -76 11q-32 11 -57 31q-25 19 -47 43 q-21 23 -46 50zM451 0h-236v1467h236v-1467z" glyph-name="Icircumflex" horiz-adv-x="664" unicode="Î"/><glyph d="M23 1701q0 27 9 50q10 24 27 42t41 28t51 10t50 -10q24 -10 41 -28q18 -18 28 -42t11 -50q0 -27 -11 -50q-10 -24 -28 -41t-41 -27q-24 -10 -50 -10q-27 0 -51 10t-41 27t-27 41q-9 23 -9 50zM383 1701q0 27 10 50q10 24 28 42q17 18 40 28t50 10t50 -10q24 -10 42 -28 t28 -42t10 -50q0 -27 -10 -50q-10 -24 -28 -41t-42 -27t-50 -10q-27 0 -50 10t-40 27t-28 41q-10 23 -10 50zM451 0h-236v1467h236v-1467z" glyph-name="Idieresis" horiz-adv-x="664" unicode="Ï"/><glyph d="M178 0v1467h564q101 0 195.5 -26t176 -74t149 -115t115 -148.5t74.5 -175t27 -195.5q0 -101 -27 -195t-74.5 -175t-115 -148.5t-149 -115t-175.5 -73.5t-196 -26h-564zM742 236q102 0 193.5 38.5t159.5 106.5t107.5 158.5t39.5 193.5q0 102 -39.5 193t-107.5 158.5 t-159 107t-194 39.5h-328v-995h328zM612 611h-540v219h540v-219z" glyph-name="Eth" horiz-adv-x="1570" unicode="Ð"/><glyph d="M934 1539q-37 0 -70 13t-64 30q-30 16 -56 30q-26 13 -46 13q-15 0 -24 -8t-13 -19q-5 -12 -6 -25q-2 -13 -2 -25h-156q0 50 11 94t35 77t60 51t85 19q34 0 66 -13t60 -30q29 -16 55 -29q27 -13 52 -13q33 0 42 19t9 49h161q-4 -54 -14 -97q-9 -42 -30 -71 q-22 -29 -59 -45q-37 -17 -96 -20zM1450 0h-207l-770 1062q-10 14 -19 32q-9 17 -16 33t-13 31q-6 14 -9 20v-1178h-236v1467h191q49 0 86 -14t58 -44q19 -27 54 -75q34 -48 78 -110t95 -133t104 -144t104 -144t96 -133q44 -62 78 -110t54 -75q15 -23 24 -51q9 -29 12 -53 v1086h236v-1467z" glyph-name="Ntilde" horiz-adv-x="1629" unicode="Ñ"/><glyph d="M635 1855h151q94 0 132 -50q6 -7 38 -59t99 -166h-106q-93 0 -131 52zM94 734q0 103 27 199t76 179t117 152q69 69 152 117q83 49 179 75q96 27 200 27q103 0 199 -27t179 -75q83 -49 152 -117q69 -69 118 -152t76 -179t26 -199q0 -103 -26 -199q-27 -96 -76 -179 t-118 -152q-69 -68 -152 -117t-179 -76t-199 -26q-156 0 -293 59t-238 160q-102 102 -161 238t-59 292zM330 734q0 -106 40 -200t111 -163q70 -70 164 -110t200 -41q105 0 199 41q94 40 164 110t110 163q40 94 41 200q0 105 -41 199q-40 94 -110 164t-164 110t-199 40 q-106 0 -200 -40t-164 -110t-111 -164q-40 -94 -40 -199z" glyph-name="Ograve" horiz-adv-x="1689" unicode="Ò"/><glyph d="M872 1632q-39 -51 -132 -51h-105q67 113 99 165t38 59q39 51 131 52h152zM94 734q0 103 27 199t76 179t117 152q69 69 152 117q83 49 179 75q96 27 200 27q103 0 199 -27t179 -75q83 -49 152 -117q69 -69 118 -152t76 -179t26 -199q0 -103 -26 -199q-27 -96 -76 -179 t-118 -152q-69 -68 -152 -117t-179 -76t-199 -26q-156 0 -293 59t-238 160q-102 102 -161 238t-59 292zM330 734q0 -106 40 -200t111 -163q70 -70 164 -110t200 -41q105 0 199 41q94 40 164 110t110 163q40 94 41 200q0 105 -41 199q-40 94 -110 164t-164 110t-199 40 q-106 0 -200 -40t-164 -110t-111 -164q-40 -94 -40 -199z" glyph-name="Oacute" horiz-adv-x="1689" unicode="Ó"/><glyph d="M860 1680q-6 7 -10 16q-4 8 -5 13q-3 -5 -7 -13t-9 -15l-31 -32q-26 -27 -46 -46t-41 -33q-21 -13 -46 -19q-26 -6 -62 -6h-82l176 233q18 27 52 39q33 12 79 12h33q91 0 130 -51q44 -58 88 -117q44 -58 89 -116h-82q-45 0 -76 11q-32 11 -57 31q-25 19 -47 43 q-21 23 -46 50zM94 734q0 103 27 199t76 179t117 152q69 69 152 117q83 49 179 75q96 27 200 27q103 0 199 -27t179 -75q83 -49 152 -117q69 -69 118 -152t76 -179t26 -199q0 -103 -26 -199q-27 -96 -76 -179t-118 -152q-69 -68 -152 -117t-179 -76t-199 -26q-156 0 -293 59 t-238 160q-102 102 -161 238t-59 292zM330 734q0 -106 40 -200t111 -163q70 -70 164 -110t200 -41q105 0 199 41q94 40 164 110t110 163q40 94 41 200q0 105 -41 199q-40 94 -110 164t-164 110t-199 40q-106 0 -200 -40t-164 -110t-111 -164q-40 -94 -40 -199z" glyph-name="Ocircumflex" horiz-adv-x="1689" unicode="Ô"/><glyph d="M964 1539q-37 0 -71 13q-33 13 -63 30q-30 16 -56 30q-26 13 -46 13q-15 0 -24 -8t-13 -19q-5 -12 -6 -25q-2 -13 -2 -25h-157q0 50 12 94q11 44 35 77t60 51t85 19q34 0 65 -13q32 -13 61 -30q29 -16 55 -29q27 -13 51 -13q33 0 42 19t9 49h161q-4 -54 -13 -97 q-9 -42 -31 -71t-58 -45q-37 -17 -96 -20zM94 734q0 103 27 199t76 179t117 152q69 69 152 117q83 49 179 75q96 27 200 27q103 0 199 -27t179 -75q83 -49 152 -117q69 -69 118 -152t76 -179t26 -199q0 -103 -26 -199q-27 -96 -76 -179t-118 -152q-69 -68 -152 -117 t-179 -76t-199 -26q-156 0 -293 59t-238 160q-102 102 -161 238t-59 292zM330 734q0 -106 40 -200t111 -163q70 -70 164 -110t200 -41q105 0 199 41q94 40 164 110t110 163q40 94 41 200q0 105 -41 199q-40 94 -110 164t-164 110t-199 40q-106 0 -200 -40t-164 -110 t-111 -164q-40 -94 -40 -199z" glyph-name="Otilde" horiz-adv-x="1689" unicode="Õ"/><glyph d="M536 1701q0 27 9 50q10 24 27 42t41 28t51 10t50 -10q24 -10 41 -28q18 -18 28 -42t11 -50q0 -27 -11 -50q-10 -24 -28 -41t-41 -27q-24 -10 -50 -10q-27 0 -51 10t-41 27t-27 41q-9 23 -9 50zM896 1701q0 27 10 50q10 24 28 42q17 18 40 28t50 10t50 -10q24 -10 42 -28 t28 -42t10 -50q0 -27 -10 -50q-10 -24 -28 -41t-42 -27t-50 -10q-27 0 -50 10t-40 27t-28 41q-10 23 -10 50zM94 734q0 103 27 199t76 179t117 152q69 69 152 117q83 49 179 75q96 27 200 27q103 0 199 -27t179 -75q83 -49 152 -117q69 -69 118 -152t76 -179t26 -199 q0 -103 -26 -199q-27 -96 -76 -179t-118 -152q-69 -68 -152 -117t-179 -76t-199 -26q-156 0 -293 59t-238 160q-102 102 -161 238t-59 292zM330 734q0 -106 40 -200t111 -163q70 -70 164 -110t200 -41q105 0 199 41q94 40 164 110t110 163q40 94 41 200q0 105 -41 199 q-40 94 -110 164t-164 110t-199 40q-106 0 -200 -40t-164 -110t-111 -164q-40 -94 -40 -199z" glyph-name="Odieresis" horiz-adv-x="1689" unicode="Ö"/><glyph d="M350 257q-32 -34 -57 -43.5t-38 -13.5q-8 -8 -18.5 -11t-21.5 -3q-54 0 -91.5 27.5t-72.5 65.5l412 411q-81 82 -140.5 141t-101.5 101.5t-69.5 70t-46 46.5t-30.5 31.5t-22 23.5l32.5 32.5t35.5 29.5t40.5 20.5t48.5 7.5t61 -13.5t61 -37.5l284 -284q74 71 143.5 142 t142.5 142q23 22 55 37t62 15q39 0 68 -13.5t53 -35.5l44 -43l-413 -412q81 -81 140.5 -140t101.5 -101t69.5 -70.5t46.5 -47.5t30.5 -31t22.5 -23l-41 -40q-24 -23 -52.5 -37.5t-64.5 -13.5q-11 0 -22 3t-19 11q-19 4 -44 14t-57 43l-265 265z" glyph-name="multiply" horiz-adv-x="1239" unicode="×"/><glyph d="M82 734q0 103 26.5 199t75.5 179t117.5 151.5t152 117.5t179 75.5t198.5 26.5q105 0 201 -27.5t180 -77.5q13 19 27 39.5t28.5 38t32 30.5t38.5 20q10 14 18.5 20t24.5 6h140l-182 -248q56 -51 102 -112.5t77 -131.5t48 -147t17 -159q0 -156 -59 -292t-161 -237.5 t-239 -160t-293 -58.5q-102 0 -195.5 25.5t-176.5 73.5l-97 -131q-24 -33 -58.5 -48t-66.5 -15h-117q53 72 105.5 143t104.5 143q-57 51 -103 113.5t-78 133.5t-49.5 149t-17.5 161zM321 734q0 -108 40 -201t111 -162l598 815q-53 30 -113.5 45.5t-125.5 15.5 q-105 0 -197.5 -40.5t-162.5 -110t-110 -163.5t-40 -199zM831 220q106 0 199.5 40.5t163 110t109 163t39.5 199.5q0 105 -38.5 196t-107.5 161l-597 -811q52 -28 111 -43.5t121 -15.5z" glyph-name="Oslash" horiz-adv-x="1687" unicode="Ø"/><glyph d="M540 1855h151q94 0 131 -50q6 -7 39 -59q32 -52 98 -166h-105q-93 0 -131 52zM394 578q0 -74 28 -140t78 -114q49 -49 114 -77q66 -28 140 -28t139 28q66 28 114 77q49 49 77 114q29 66 29 140v889h237v-889q0 -123 -47 -231t-127 -189q-81 -81 -190 -128t-232 -46 q-123 0 -232 46q-109 47 -189 128t-127 189t-47 231v889h235v-889z" glyph-name="Ugrave" horiz-adv-x="1499" unicode="Ù"/><glyph d="M777 1632q-39 -51 -132 -51h-105q67 113 98 165q32 52 39 59q39 51 131 52h151zM394 578q0 -74 28 -140t78 -114q49 -49 114 -77q66 -28 140 -28t139 28q66 28 114 77q49 49 77 114q29 66 29 140v889h237v-889q0 -123 -47 -231t-127 -189q-81 -81 -190 -128t-232 -46 q-123 0 -232 46q-109 47 -189 128t-127 189t-47 231v889h235v-889z" glyph-name="Uacute" horiz-adv-x="1499" unicode="Ú"/><glyph d="M765 1680q-6 7 -10 16q-4 8 -5 13q-3 -5 -7 -13t-9 -15l-32 -32q-26 -27 -45 -46q-20 -19 -41 -33q-21 -13 -47 -19t-61 -6h-82l176 233q18 27 52 39q33 12 79 12h33q91 0 130 -51q44 -58 88 -117q44 -58 89 -116h-82q-45 0 -77 11t-56 31q-25 19 -47 43q-21 23 -46 50z M394 578q0 -74 28 -140t78 -114q49 -49 114 -77q66 -28 140 -28t139 28q66 28 114 77q49 49 77 114q29 66 29 140v889h237v-889q0 -123 -47 -231t-127 -189q-81 -81 -190 -128t-232 -46q-123 0 -232 46q-109 47 -189 128t-127 189t-47 231v889h235v-889z" glyph-name="Ucircumflex" horiz-adv-x="1499" unicode="Û"/><glyph d="M440 1701q0 27 10 50q10 24 27 42t41 28t50 10q27 0 50 -10q24 -10 42 -28t28 -42t10 -50q0 -27 -10 -50q-10 -24 -28 -41t-42 -27t-50 -10q-27 0 -50 10q-24 10 -41 27t-27 41q-10 23 -10 50zM801 1701q0 27 10 50q10 24 28 42q17 18 40 28t50 10t50 -10q24 -10 41 -28 q18 -18 29 -42q10 -24 10 -50q0 -27 -10 -50q-10 -24 -29 -41q-18 -17 -41 -27q-24 -10 -50 -10q-27 0 -50 10t-40 27t-28 41q-10 23 -10 50zM394 578q0 -74 28 -140t78 -114q49 -49 114 -77q66 -28 140 -28t139 28q66 28 114 77q49 49 77 114q29 66 29 140v889h237v-889 q0 -123 -47 -231t-127 -189q-81 -81 -190 -128t-232 -46q-123 0 -232 46q-109 47 -189 128t-127 189t-47 231v889h235v-889z" glyph-name="Udieresis" horiz-adv-x="1499" unicode="Ü"/><glyph d="M774 1632q-39 -51 -132 -51h-105q67 113 98 165q32 52 39 59q39 51 131 52h151zM825 0h-236v621q0 19 -4 35t-12 31q-7 15 -17 30t-24 33l-529 717h172q129 0 193 -98l318 -430q10 -14 15 -32q5 -17 6 -24q0 5 5 23t16 33l318 430q32 49 80 74q49 25 112 24h174 l-530 -717q-27 -36 -42 -63t-15 -66v-621z" glyph-name="Yacute" horiz-adv-x="1411" unicode="Ý"/><glyph d="M199 1467h235v-249h295q97 0 182.5 -37t149.5 -100.5t101 -148.5t37 -182t-37 -182.5t-101 -149t-149.5 -100t-182.5 -36.5h-295v-282h-235v1467zM733 518q48 0 90 18t73.5 49.5t49.5 73.5t18 91q0 48 -18 90.5t-49.5 73.5t-73.5 49.5t-90 18.5h-299v-464h299z" glyph-name="Thorn" horiz-adv-x="1254" unicode="Þ"/><glyph d="M400 0q-16 0 -38 2.5t-64 2.5q-20 0 -47 -1t-61 -4v850q0 165 33.5 284t97 196.5t155.5 114.5t210 37q74 0 143.5 -20t124.5 -61t88 -105t33 -151q0 -60 -15.5 -101.5t-40 -69t-56 -44t-64.5 -27.5t-64.5 -20.5t-56 -21t-40 -29.5t-15.5 -48q0 -31 13.5 -47.5t34.5 -27.5 t46 -18t49 -19q60 -20 118 -47t103 -66.5t72 -94.5t27 -132q0 -70 -28 -133t-77 -110.5t-117 -75t-150 -27.5q-53 0 -104.5 14.5t-97 44t-83 73t-64.5 100.5l52 26q20 10 41.5 17t42.5 7q28 0 53 -10t60 -35h-1q22 -14 48 -21t53 -7q23 0 51 8.5t52.5 25.5t41.5 43t17 60 q0 26 -8.5 44t-28.5 34t-54.5 31t-86.5 33q-56 19 -108 43t-91 59t-62.5 85.5t-23.5 122.5q0 83 26 135t65 83.5t85 48.5t85 31t65 29t26 45q0 35 -18 57.5t-45 35.5t-58 18t-58 5q-67 0 -119.5 -23t-89.5 -74t-57 -131t-20 -194v-850z" glyph-name="germandbls" horiz-adv-x="1247" unicode="ß"/><glyph d="M342 1502h152q92 0 131 -51q6 -6 42 -68t110 -195h-105q-92 0 -132 52zM174 904q11 17 28 36q14 15 34 34q19 18 44 35q61 39 132 60t157 21q91 0 159 -22q67 -22 114 -60t77 -90t47 -114q17 -61 23 -130q6 -68 6 -137v-537h-192q-14 17 -23 45q-8 27 -8 50 q-29 -25 -67 -45t-79 -35q-40 -14 -81 -22q-40 -8 -73 -7q-83 0 -151 23q-69 24 -119 67q-50 44 -77 105q-28 61 -28 135q0 83 32 149t95 112t159 70q96 25 225 25q28 0 53 -2t45 -3q20 -2 34 -4t19 -3q-4 58 -20 99q-15 40 -40 66t-58 37t-73 11q-48 0 -76 -8 q-29 -8 -51 -18t-42 -18q-21 -8 -53 -8q-30 0 -56 10t-50 28zM472 201q66 0 144 23t149 63v165q-5 1 -21 1q-16 1 -38 2q-23 1 -51 1q-28 1 -56 1q-57 0 -107 -8t-86 -26q-36 -17 -57 -42q-21 -26 -21 -62q0 -59 40 -89q39 -29 104 -29z" glyph-name="agrave" horiz-adv-x="1120" unicode="à"/><glyph d="M579 1240q-39 -51 -132 -51h-105q75 132 111 194t42 69q37 50 131 50h151zM174 904q11 17 28 36q14 15 34 34q19 18 44 35q61 39 132 60t157 21q91 0 159 -22q67 -22 114 -60t77 -90t47 -114q17 -61 23 -130q6 -68 6 -137v-537h-192q-14 17 -23 45q-8 27 -8 50 q-29 -25 -67 -45t-79 -35q-40 -14 -81 -22q-40 -8 -73 -7q-83 0 -151 23q-69 24 -119 67q-50 44 -77 105q-28 61 -28 135q0 83 32 149t95 112t159 70q96 25 225 25q28 0 53 -2t45 -3q20 -2 34 -4t19 -3q-4 58 -20 99q-15 40 -40 66t-58 37t-73 11q-48 0 -76 -8 q-29 -8 -51 -18t-42 -18q-21 -8 -53 -8q-30 0 -56 10t-50 28zM472 201q66 0 144 23t149 63v165q-5 1 -21 1q-16 1 -38 2q-23 1 -51 1q-28 1 -56 1q-57 0 -107 -8t-86 -26q-36 -17 -57 -42q-21 -26 -21 -62q0 -59 40 -89q39 -29 104 -29z" glyph-name="aacute" horiz-adv-x="1120" unicode="á"/><glyph d="M575 1339q-6 6 -9 15q-4 8 -6 13q-3 -5 -7 -13t-8 -15l-27 -32q-14 -17 -30 -37q-15 -19 -31 -36q-24 -27 -57 -36t-82 -9h-81q65 95 107 158q42 62 66 92q17 28 51 42t83 14h33q43 0 72 -11q30 -11 49 -32q10 -8 28 -31q17 -23 40 -58t53 -79t65 -95h-82q-40 0 -74 6 q-24 5 -44 21q-21 16 -40 37t-36 44q-18 23 -33 42zM174 904q11 17 28 36q14 15 34 34q19 18 44 35q61 39 132 60t157 21q91 0 159 -22q67 -22 114 -60t77 -90t47 -114q17 -61 23 -130q6 -68 6 -137v-537h-192q-14 17 -23 45q-8 27 -8 50q-29 -25 -67 -45t-79 -35 q-40 -14 -81 -22q-40 -8 -73 -7q-83 0 -151 23q-69 24 -119 67q-50 44 -77 105q-28 61 -28 135q0 83 32 149t95 112t159 70q96 25 225 25q28 0 53 -2t45 -3q20 -2 34 -4t19 -3q-4 58 -20 99q-15 40 -40 66t-58 37t-73 11q-48 0 -76 -8q-29 -8 -51 -18t-42 -18q-21 -8 -53 -8 q-30 0 -56 10t-50 28zM472 201q66 0 144 23t149 63v165q-5 1 -21 1q-16 1 -38 2q-23 1 -51 1q-28 1 -56 1q-57 0 -107 -8t-86 -26q-36 -17 -57 -42q-21 -26 -21 -62q0 -59 40 -89q39 -29 104 -29z" glyph-name="acircumflex" horiz-adv-x="1120" unicode="â"/><glyph d="M679 1229q-37 0 -70 13t-64 30q-30 16 -56 30q-26 13 -47 13q-14 0 -23 -9t-13 -22q-5 -13 -6 -28q-2 -15 -2 -26h-156q0 50 11 96t35 79q24 34 59 54q36 20 85 20q35 0 66 -14q31 -13 61 -29q29 -16 55 -29t51 -13q16 0 26 6t16 17t8 24t2 28h161q-4 -55 -14 -99 q-9 -44 -30 -76q-22 -32 -59 -48q-37 -17 -96 -17zM174 904q11 17 28 36q14 15 34 34q19 18 44 35q61 39 132 60t157 21q91 0 159 -22q67 -22 114 -60t77 -90t47 -114q17 -61 23 -130q6 -68 6 -137v-537h-192q-14 17 -23 45q-8 27 -8 50q-29 -25 -67 -45t-79 -35 q-40 -14 -81 -22q-40 -8 -73 -7q-83 0 -151 23q-69 24 -119 67q-50 44 -77 105q-28 61 -28 135q0 83 32 149t95 112t159 70q96 25 225 25q28 0 53 -2t45 -3q20 -2 34 -4t19 -3q-4 58 -20 99q-15 40 -40 66t-58 37t-73 11q-48 0 -76 -8q-29 -8 -51 -18t-42 -18q-21 -8 -53 -8 q-30 0 -56 10t-50 28zM472 201q66 0 144 23t149 63v165q-5 1 -21 1q-16 1 -38 2q-23 1 -51 1q-28 1 -56 1q-57 0 -107 -8t-86 -26q-36 -17 -57 -42q-21 -26 -21 -62q0 -59 40 -89q39 -29 104 -29z" glyph-name="atilde" horiz-adv-x="1120" unicode="ã"/><glyph d="M251 1327q0 27 10 50q10 24 27 42t41 28t50 10q27 0 50 -10q24 -10 42 -28t28 -42t10 -50q0 -27 -10 -50q-10 -24 -28 -41t-42 -27t-50 -10q-27 0 -50 10q-24 10 -41 27t-27 41q-10 23 -10 50zM611 1327q0 27 11 50q10 24 27 42t41 28q23 10 49 10q27 0 51 -10t41 -28 q18 -18 28 -42t10 -50q0 -27 -10 -50q-10 -24 -28 -41t-41 -27q-24 -10 -51 -10t-49 10q-23 10 -41 27q-17 17 -27 41q-11 23 -11 50zM174 904q11 17 28 36q14 15 34 34q19 18 44 35q61 39 132 60t157 21q91 0 159 -22q67 -22 114 -60t77 -90t47 -114q17 -61 23 -130 q6 -68 6 -137v-537h-192q-14 17 -23 45q-8 27 -8 50q-29 -25 -67 -45t-79 -35q-40 -14 -81 -22q-40 -8 -73 -7q-83 0 -151 23q-69 24 -119 67q-50 44 -77 105q-28 61 -28 135q0 83 32 149t95 112t159 70q96 25 225 25q28 0 53 -2t45 -3q20 -2 34 -4t19 -3q-4 58 -20 99 q-15 40 -40 66t-58 37t-73 11q-48 0 -76 -8q-29 -8 -51 -18t-42 -18q-21 -8 -53 -8q-30 0 -56 10t-50 28zM472 201q66 0 144 23t149 63v165q-5 1 -21 1q-16 1 -38 2q-23 1 -51 1q-28 1 -56 1q-57 0 -107 -8t-86 -26q-36 -17 -57 -42q-21 -26 -21 -62q0 -59 40 -89 q39 -29 104 -29z" glyph-name="adieresis" horiz-adv-x="1120" unicode="ä"/><glyph d="M355 1361q0 42 16 79t44 65t65 44t80 16q42 0 79 -16t66 -44q28 -28 43 -65q16 -37 16 -79t-16 -79t-43 -65q-28 -28 -66 -44q-37 -16 -79 -16q-43 0 -80 16t-65 44t-44 65t-16 79zM489 1361q0 -30 21 -50q20 -20 50 -20t50 20t20 50t-20 50t-50 21q-30 0 -50 -21 q-21 -20 -21 -50zM174 904q11 17 28 36q14 15 34 34q19 18 44 35q61 39 132 60t157 21q91 0 159 -22q67 -22 114 -60t77 -90t47 -114q17 -61 23 -130q6 -68 6 -137v-537h-192q-14 17 -23 45q-8 27 -8 50q-29 -25 -67 -45t-79 -35q-40 -14 -81 -22q-40 -8 -73 -7 q-83 0 -151 23q-69 24 -119 67q-50 44 -77 105q-28 61 -28 135q0 83 32 149t95 112t159 70q96 25 225 25q28 0 53 -2t45 -3q20 -2 34 -4t19 -3q-4 58 -20 99q-15 40 -40 66t-58 37t-73 11q-48 0 -76 -8q-29 -8 -51 -18t-42 -18q-21 -8 -53 -8q-30 0 -56 10t-50 28zM472 201 q66 0 144 23t149 63v165q-5 1 -21 1q-16 1 -38 2q-23 1 -51 1q-28 1 -56 1q-57 0 -107 -8t-86 -26q-36 -17 -57 -42q-21 -26 -21 -62q0 -59 40 -89q39 -29 104 -29z" glyph-name="aring" horiz-adv-x="1120" unicode="å"/><glyph d="M184 904l8 10q7 11 20.5 26t32.5 33.5t44 35.5q60 39 131.5 60t158.5 21q113 0 193.5 -34.5t127.5 -92.5q7 -5 15 -13.5t8 -15.5q0 -4 -1 -7l-8 -18l43 43q69 65 156.5 101t199.5 36q89 0 171.5 -30.5t150.5 -83.5t116.5 -126t69.5 -158q4 -16 5.5 -32.5t1.5 -32.5 q0 -39 -15 -69.5t-38 -50.5t-50.5 -30t-52.5 -10h-610q-20 0 -37 -6t-17 -22q0 -2 0.5 -2.5t0.5 -2.5q12 -43 39.5 -83.5t67 -72t89 -50.5t107.5 -19q41 0 81.5 10t75.5 31q22 11 42.5 17t47.5 6q37 0 65.5 -13t53.5 -39l51 -50q-82 -88 -189 -136t-228 -48q-61 0 -119.5 12 t-111.5 37q-17 8 -38.5 21t-42.5 28.5t-40 33.5t-31 38q2 -3 3.5 -12t2.5 -17q0 -6 -1 -11t-5 -7l-32 -17q-39 -20 -87 -39t-102 -34t-112 -24t-118 -9q-82 0 -152 23.5t-121 66.5t-80 104t-29 136q0 171 135.5 263t402.5 92q44 0 82.5 -3.5t55.5 -5.5q-8 63 -24.5 104.5 t-41 66t-57.5 35t-72 10.5q-44 0 -71.5 -9t-49.5 -19.5t-44 -19.5t-56 -9q-30 0 -56.5 10.5t-49.5 27.5zM478 201q39 0 82.5 8.5t87 23t85 33t76.5 37.5q-14 32 -27.5 71.5t-16.5 69.5q-5 1 -19.5 3.5t-35.5 4.5t-46.5 3.5t-52.5 1.5q-58 0 -109.5 -8t-91 -24.5t-62 -43 t-22.5 -62.5q0 -30 11.5 -51.5t32.5 -36.5t48.5 -22.5t59.5 -7.5zM1579 679q-15 36 -38.5 69.5t-56.5 60t-76 42t-97 15.5q-62 0 -113 -18.5t-89.5 -48.5t-64 -69.5t-37.5 -80.5q6 8 21 19t40 11h511z" glyph-name="ae" horiz-adv-x="1907" unicode="æ"/><glyph d="M556 10h127l-1 -79q41 -4 77 -18t62 -34q26 -21 41 -48t15 -57q0 -33 -18 -63q-17 -30 -48 -51q-31 -22 -73 -35t-94 -13q-26 0 -50 7t-42 15q-22 10 -41 24v93q20 -9 43 -16q19 -6 44 -11q24 -5 48 -6q33 0 56 15t23 36q0 24 -24 38q-24 15 -57 16q-7 0 -15 -1t-19 0 q-24 0 -39 10t-15 49v129zM629 857q48 -1 93 -14t91 -30q13 -8 26 -10q12 -2 29 -2q39 0 76 16q36 16 63 43l40 40q-82 87 -190 138t-228 52q-114 0 -215 -44t-176 -118q-75 -75 -119 -176t-43 -214q0 -114 43 -215q44 -101 119 -176t176 -118q101 -44 215 -43q121 0 228 50 q108 51 190 139l-40 39q-11 10 -25 21t-31 20t-36 15q-18 6 -37 5q-16 0 -33 -2q-16 -3 -30 -11q-46 -18 -91 -32q-45 -13 -95 -13q-66 0 -124 25t-103 68q-44 43 -69 102q-26 58 -26 126q0 67 26 125t69 101q44 43 103 68q58 25 124 25z" glyph-name="ccedilla" horiz-adv-x="1067" unicode="ç"/><glyph d="M403 1502h152q92 0 131 -51q6 -6 42 -68t111 -195h-106q-92 0 -132 52zM1167 626q0 -39 -15 -69t-38 -51q-23 -20 -51 -30t-52 -10h-694q7 -47 34 -93q26 -46 66 -83t94 -60q53 -23 116 -22q43 0 83 11t74 30q41 24 90 23q36 0 66 -13q29 -13 54 -39l50 -50 q-82 -88 -189 -137q-108 -49 -228 -48q-114 0 -215 43q-101 44 -176 119t-119 176t-43 215q0 114 43 214q44 101 119 176t176 118q101 44 215 44q95 0 182 -32t158 -87t121 -131q51 -76 74 -164q4 -13 4 -26t1 -24zM921 679q-15 36 -43 70q-27 34 -64 59q-37 26 -84 42 t-100 16q-59 0 -110 -18t-90 -49q-39 -30 -66 -69t-39 -81q6 8 21 19t40 11h535z" glyph-name="egrave" horiz-adv-x="1242" unicode="è"/><glyph d="M640 1240q-39 -51 -131 -51h-106q75 132 111 194t42 69q37 50 131 50h152zM1167 626q0 -39 -15 -69t-38 -51q-23 -20 -51 -30t-52 -10h-694q7 -47 34 -93q26 -46 66 -83t94 -60q53 -23 116 -22q43 0 83 11t74 30q41 24 90 23q36 0 66 -13q29 -13 54 -39l50 -50 q-82 -88 -189 -137q-108 -49 -228 -48q-114 0 -215 43q-101 44 -176 119t-119 176t-43 215q0 114 43 214q44 101 119 176t176 118q101 44 215 44q95 0 182 -32t158 -87t121 -131q51 -76 74 -164q4 -13 4 -26t1 -24zM921 679q-15 36 -43 70q-27 34 -64 59q-37 26 -84 42 t-100 16q-59 0 -110 -18t-90 -49q-39 -30 -66 -69t-39 -81q6 8 21 19t40 11h535z" glyph-name="eacute" horiz-adv-x="1242" unicode="é"/><glyph d="M636 1339q-6 6 -10 15q-4 8 -5 13q-3 -5 -7 -13t-9 -15l-26 -32q-14 -17 -30 -37q-15 -19 -32 -36q-24 -27 -56 -36q-33 -9 -82 -9h-82q65 95 107 158q42 62 66 92q17 28 52 42q34 14 82 14h33q43 0 73 -11t49 -32q10 -8 27 -31t41 -58q23 -35 53 -79t64 -95h-82 q-40 0 -74 6q-24 5 -44 21q-21 16 -40 37t-36 44t-32 42zM1167 626q0 -39 -15 -69t-38 -51q-23 -20 -51 -30t-52 -10h-694q7 -47 34 -93q26 -46 66 -83t94 -60q53 -23 116 -22q43 0 83 11t74 30q41 24 90 23q36 0 66 -13q29 -13 54 -39l50 -50q-82 -88 -189 -137 q-108 -49 -228 -48q-114 0 -215 43q-101 44 -176 119t-119 176t-43 215q0 114 43 214q44 101 119 176t176 118q101 44 215 44q95 0 182 -32t158 -87t121 -131q51 -76 74 -164q4 -13 4 -26t1 -24zM921 679q-15 36 -43 70q-27 34 -64 59q-37 26 -84 42t-100 16q-59 0 -110 -18 t-90 -49q-39 -30 -66 -69t-39 -81q6 8 21 19t40 11h535z" glyph-name="ecircumflex" horiz-adv-x="1242" unicode="ê"/><glyph d="M311 1327q0 27 10 50q10 24 27 42t41 28t50 10q27 0 50 -10q24 -10 42 -28t28 -42t10 -50q0 -27 -10 -50q-10 -24 -28 -41t-42 -27t-50 -10q-27 0 -50 10q-24 10 -41 27t-27 41q-10 23 -10 50zM672 1327q0 27 10 50q10 24 28 42q17 18 40 28t50 10t50 -10q24 -10 41 -28 q18 -18 29 -42q10 -24 10 -50q0 -27 -10 -50q-10 -24 -29 -41q-18 -17 -41 -27q-24 -10 -50 -10q-27 0 -50 10t-40 27t-28 41q-10 23 -10 50zM1167 626q0 -39 -15 -69t-38 -51q-23 -20 -51 -30t-52 -10h-694q7 -47 34 -93q26 -46 66 -83t94 -60q53 -23 116 -22q43 0 83 11 t74 30q41 24 90 23q36 0 66 -13q29 -13 54 -39l50 -50q-82 -88 -189 -137q-108 -49 -228 -48q-114 0 -215 43q-101 44 -176 119t-119 176t-43 215q0 114 43 214q44 101 119 176t176 118q101 44 215 44q95 0 182 -32t158 -87t121 -131q51 -76 74 -164q4 -13 4 -26t1 -24z M921 679q-15 36 -43 70q-27 34 -64 59q-37 26 -84 42t-100 16q-59 0 -110 -18t-90 -49q-39 -30 -66 -69t-39 -81q6 8 21 19t40 11h535z" glyph-name="edieresis" horiz-adv-x="1242" unicode="ë"/><glyph d="M55 1502h152q92 0 131 -51q6 -6 42 -68t110 -195h-105q-92 0 -132 52zM384 1038v-1038h-236v1038h236z" glyph-name="igrave" horiz-adv-x="577" unicode="ì"/><glyph d="M292 1240q-39 -51 -131 -51h-106q75 132 111 194t42 69q37 50 131 50h151zM384 1038v-1038h-236v1038h236z" glyph-name="iacute" horiz-adv-x="577" unicode="í"/><glyph d="M288 1339q-6 6 -10 15q-4 8 -6 13q-3 -5 -6 -13q-4 -8 -9 -15l-27 -32q-14 -17 -29 -37q-15 -19 -32 -36q-24 -27 -56 -36q-33 -9 -82 -9h-82q65 95 107 158q42 62 66 92q17 28 52 42q34 14 82 14h33q43 0 72 -11q30 -11 50 -32q10 -8 27 -31t41 -58q23 -35 52 -79 q30 -44 65 -95h-82q-40 0 -74 6q-24 5 -44 21q-21 16 -40 37t-36 44t-32 42zM384 1038v-1038h-236v1038h236z" glyph-name="icircumflex" horiz-adv-x="577" unicode="î"/><glyph d="M-37 1327q0 27 10 50q10 24 27 42t41 28t50 10q27 0 50 -10q24 -10 42 -28t28 -42t10 -50q0 -27 -10 -50q-10 -24 -28 -41t-42 -27t-50 -10q-27 0 -50 10q-24 10 -41 27t-27 41q-10 23 -10 50zM324 1327q0 27 10 50q10 24 27 42t41 28q23 10 50 10t50 -10q24 -10 41 -28 q18 -18 28 -42t11 -50q0 -27 -11 -50q-10 -24 -28 -41t-41 -27q-24 -10 -50 -10q-27 0 -50 10t-41 27q-17 17 -27 41q-10 23 -10 50zM384 1038v-1038h-236v1038h236z" glyph-name="idieresis" horiz-adv-x="577" unicode="ï"/><glyph d="M578 1168l51 74q-55 29 -109.5 49.5t-105.5 38.5l52 206q153 -34 269 -105q14 20 28.5 41t30.5 41q28 -15 55.5 -31t54.5 -32q-14 -20 -28.5 -40t-29.5 -41q96 -61 162.5 -147.5t107 -191.5t58.5 -227t18 -255v-4q0 -116 -44 -217.5t-120.5 -177t-178 -119.5t-216.5 -44 q-116 0 -218 44t-177.5 119t-119.5 176.5t-44 217.5q0 114 43.5 214.5t118 176.5t175.5 120.5t215 45.5q38 0 83 -10.5t86.5 -29.5t75 -45t50.5 -57q-32 77 -78 132t-102 95l-55 -80zM307 543q0 -68 25.5 -127.5t70 -104t103.5 -70t127 -25.5t126.5 25.5t102.5 70t69.5 104 t25.5 127.5t-25.5 127t-69.5 103.5t-103 70t-126 25.5q-68 0 -127 -25.5t-103.5 -70t-70 -103.5t-25.5 -127z" glyph-name="eth" horiz-adv-x="1247" unicode="ð"/><glyph d="M724 1229q-37 0 -70 13t-64 30q-30 16 -55 30q-26 13 -48 13q-14 0 -23 -9t-13 -22q-5 -13 -6 -28q-2 -15 -2 -26h-156q0 50 11 96t35 79q24 34 59 54q36 20 85 20q35 0 66 -14q31 -13 61 -29q29 -16 55 -29t51 -13q16 0 26 6t16 17t8 24t2 28h161q-4 -55 -14 -99 q-9 -44 -30 -76q-22 -32 -59 -48q-37 -17 -96 -17zM345 1075q0 -1 10 -16t13 -40q2 -11 4 -24t4 -27q22 31 53 53q31 23 69 38t81 23q42 8 86 8q92 0 167 -34t129 -97t83 -152q30 -89 30 -199v-608h-236v605q0 56 -10 104q-10 47 -31 80q-22 33 -56 52q-34 18 -81 18 q-53 0 -101 -12q-49 -12 -86 -31q-37 -20 -61 -49q-24 -28 -27 -59v-708h-235v1075h195z" glyph-name="ntilde" unicode="ñ"/><glyph d="M410 1502h151q92 0 131 -51q6 -6 42 -68t111 -195h-106q-92 0 -132 52zM74 538q0 114 43 214q44 101 119 176t176 119t215 44t214 -44q101 -44 176 -119t119 -176t44 -214q0 -114 -44 -215t-119 -176t-176 -119t-214 -43q-114 0 -215 43q-101 44 -176 119t-119 176 q-43 101 -43 215zM305 537q0 -67 25 -125t69 -101q44 -44 102 -69t125 -25q66 0 124 25t102 69t69 101q25 58 25 125t-25 125t-69 101q-44 44 -102 69t-124 25q-67 0 -125 -25t-102 -69t-69 -101q-25 -58 -25 -125z" glyph-name="ograve" horiz-adv-x="1255" unicode="ò"/><glyph d="M646 1240q-39 -51 -131 -51h-105q75 132 110 194q36 62 42 69q37 50 131 50h152zM74 538q0 114 43 214q44 101 119 176t176 119t215 44t214 -44q101 -44 176 -119t119 -176t44 -214q0 -114 -44 -215t-119 -176t-176 -119t-214 -43q-114 0 -215 43q-101 44 -176 119 t-119 176q-43 101 -43 215zM305 537q0 -67 25 -125t69 -101q44 -44 102 -69t125 -25q66 0 124 25t102 69t69 101q25 58 25 125t-25 125t-69 101q-44 44 -102 69t-124 25q-67 0 -125 -25t-102 -69t-69 -101q-25 -58 -25 -125z" glyph-name="oacute" horiz-adv-x="1255" unicode="ó"/><glyph d="M643 1339q-6 6 -10 15q-4 8 -5 13q-3 -5 -7 -13t-9 -15l-26 -32q-14 -17 -30 -37q-15 -19 -32 -36q-24 -27 -56 -36q-33 -9 -82 -9h-82q65 95 107 158q42 62 66 92q17 28 52 42q34 14 82 14h33q43 0 73 -11t49 -32q10 -8 28 -31q17 -23 40 -58t53 -79t64 -95h-82 q-40 0 -73 6q-24 5 -45 21t-40 37t-36 44t-32 42zM74 538q0 114 43 214q44 101 119 176t176 119t215 44t214 -44q101 -44 176 -119t119 -176t44 -214q0 -114 -44 -215t-119 -176t-176 -119t-214 -43q-114 0 -215 43q-101 44 -176 119t-119 176q-43 101 -43 215zM305 537 q0 -67 25 -125t69 -101q44 -44 102 -69t125 -25q66 0 124 25t102 69t69 101q25 58 25 125t-25 125t-69 101q-44 44 -102 69t-124 25q-67 0 -125 -25t-102 -69t-69 -101q-25 -58 -25 -125z" glyph-name="ocircumflex" horiz-adv-x="1255" unicode="ô"/><glyph d="M746 1229q-37 0 -70 13t-63 30q-30 16 -56 30q-26 13 -47 13q-14 0 -23 -9t-13 -22q-5 -13 -7 -28t-1 -26h-157q0 50 12 96q11 46 34 79q24 34 60 54t85 20q35 0 66 -14q31 -13 60 -29t55 -29t51 -13q16 0 27 6q10 6 16 17t7 24q2 13 2 28h161q-4 -55 -13 -99t-31 -76 t-58 -48q-38 -17 -97 -17zM74 538q0 114 43 214q44 101 119 176t176 119t215 44t214 -44q101 -44 176 -119t119 -176t44 -214q0 -114 -44 -215t-119 -176t-176 -119t-214 -43q-114 0 -215 43q-101 44 -176 119t-119 176q-43 101 -43 215zM305 537q0 -67 25 -125t69 -101 q44 -44 102 -69t125 -25q66 0 124 25t102 69t69 101q25 58 25 125t-25 125t-69 101q-44 44 -102 69t-124 25q-67 0 -125 -25t-102 -69t-69 -101q-25 -58 -25 -125z" glyph-name="otilde" horiz-adv-x="1255" unicode="õ"/><glyph d="M318 1327q0 27 10 50q10 24 27 42t41 28t50 10q27 0 51 -10t41 -28q18 -18 28 -42t11 -50q0 -27 -11 -50q-10 -24 -28 -41t-41 -27q-24 -10 -51 -10t-50 10q-24 10 -41 27t-27 41q-10 23 -10 50zM679 1327q0 27 10 50q10 24 28 42q17 18 40 28t50 10t50 -10 q24 -10 42 -28t28 -42t10 -50q0 -27 -10 -50q-10 -24 -28 -41t-42 -27t-50 -10q-27 0 -50 10t-40 27t-28 41q-10 23 -10 50zM74 538q0 114 43 214q44 101 119 176t176 119t215 44t214 -44q101 -44 176 -119t119 -176t44 -214q0 -114 -44 -215t-119 -176t-176 -119t-214 -43 q-114 0 -215 43q-101 44 -176 119t-119 176q-43 101 -43 215zM305 537q0 -67 25 -125t69 -101q44 -44 102 -69t125 -25q66 0 124 25t102 69t69 101q25 58 25 125t-25 125t-69 101q-44 44 -102 69t-124 25q-67 0 -125 -25t-102 -69t-69 -101q-25 -58 -25 -125z" glyph-name="odieresis" horiz-adv-x="1255" unicode="ö"/><glyph d="M1098 575h-995v219h995v-219zM756 312q0 -32 -13 -60t-34.5 -49.5t-50 -33.5t-60.5 -12q-33 0 -61 12t-49.5 33.5t-34 50t-12.5 59.5q0 32 12.5 60.5t34 50t49.5 34t61 12.5q32 0 60.5 -12.5t50 -34t34.5 -50t13 -60.5zM756 1057q0 -33 -13 -61t-34.5 -49.5t-50 -34 t-60.5 -12.5q-33 0 -61 12.5t-49.5 34t-34 49.5t-12.5 61q0 32 12.5 60t34 49.5t49.5 33.5t61 12q32 0 60.5 -12t50 -33.5t34.5 -49.5t13 -60z" glyph-name="divide" horiz-adv-x="1187" unicode="÷"/><glyph d="M825 1234q20 46 62 75q41 29 93 28h115l-654 -1497q-20 -46 -64 -74t-95 -28h-109zM74 538q0 114 43 214q44 101 119 176t176 119t215 44t214 -44q101 -44 176 -119t119 -176t44 -214q0 -114 -44 -215t-119 -176t-176 -119t-214 -43q-114 0 -215 43q-101 44 -176 119 t-119 176q-43 101 -43 215zM305 537q0 -67 25 -125t69 -101q44 -44 102 -69t125 -25q66 0 124 25t102 69t69 101q25 58 25 125t-25 125t-69 101q-44 44 -102 69t-124 25q-67 0 -125 -25t-102 -69t-69 -101q-25 -58 -25 -125z" glyph-name="oslash" horiz-adv-x="1255" unicode="ø"/><glyph d="M385 1502h152q92 0 131 -51q6 -6 42 -68t110 -195h-105q-92 0 -132 52zM853 0q-10 10 -20 38t-11 68q-22 -31 -52 -53q-31 -23 -70 -38q-38 -15 -80 -22q-43 -7 -86 -7q-92 0 -168 33q-75 34 -129 97q-54 62 -83 151t-29 199v609h235v-605q0 -57 11 -104q10 -47 31 -81 q22 -33 55 -51t81 -18q53 0 101 12q49 12 87 34q37 22 60 50q24 29 27 62v701h237v-1075h-197z" glyph-name="ugrave" unicode="ù"/><glyph d="M622 1240q-39 -51 -132 -51h-105q75 132 111 194t42 69q37 50 131 50h151zM853 0q-10 10 -20 38t-11 68q-22 -31 -52 -53q-31 -23 -70 -38q-38 -15 -80 -22q-43 -7 -86 -7q-92 0 -168 33q-75 34 -129 97q-54 62 -83 151t-29 199v609h235v-605q0 -57 11 -104 q10 -47 31 -81q22 -33 55 -51t81 -18q53 0 101 12q49 12 87 34q37 22 60 50q24 29 27 62v701h237v-1075h-197z" glyph-name="uacute" unicode="ú"/><glyph d="M618 1339q-6 6 -9 15q-4 8 -6 13q-3 -5 -7 -13t-8 -15l-27 -32q-14 -17 -30 -37q-15 -19 -31 -36q-24 -27 -57 -36t-82 -9h-81q65 95 107 158q42 62 66 92q17 28 51 42t83 14h33q43 0 72 -11q30 -11 49 -32q10 -8 28 -31q17 -23 40 -58t53 -79t65 -95h-82q-40 0 -74 6 q-24 5 -44 21q-21 16 -40 37t-36 44q-18 23 -33 42zM853 0q-10 10 -20 38t-11 68q-22 -31 -52 -53q-31 -23 -70 -38q-38 -15 -80 -22q-43 -7 -86 -7q-92 0 -168 33q-75 34 -129 97q-54 62 -83 151t-29 199v609h235v-605q0 -57 11 -104q10 -47 31 -81q22 -33 55 -51t81 -18 q53 0 101 12q49 12 87 34q37 22 60 50q24 29 27 62v701h237v-1075h-197z" glyph-name="ucircumflex" unicode="û"/><glyph d="M294 1327q0 27 10 50q10 24 27 42t41 28t50 10q27 0 50 -10q24 -10 42 -28t28 -42t10 -50q0 -27 -10 -50q-10 -24 -28 -41t-42 -27t-50 -10q-27 0 -50 10q-24 10 -41 27t-27 41q-10 23 -10 50zM654 1327q0 27 11 50q10 24 27 42t41 28q23 10 49 10q27 0 51 -10t41 -28 q18 -18 28 -42t10 -50q0 -27 -10 -50q-10 -24 -28 -41t-41 -27q-24 -10 -51 -10t-49 10q-23 10 -41 27q-17 17 -27 41q-11 23 -11 50zM853 0q-10 10 -20 38t-11 68q-22 -31 -52 -53q-31 -23 -70 -38q-38 -15 -80 -22q-43 -7 -86 -7q-92 0 -168 33q-75 34 -129 97 q-54 62 -83 151t-29 199v609h235v-605q0 -57 11 -104q10 -47 31 -81q22 -33 55 -51t81 -18q53 0 101 12q49 12 87 34q37 22 60 50q24 29 27 62v701h237v-1075h-197z" glyph-name="udieresis" unicode="ü"/><glyph d="M610 1240q-39 -51 -131 -51h-105q75 132 110 194q36 62 42 69q37 50 131 50h152zM29 1075h142q26 0 51 -7t46 -21q22 -14 38 -33t24 -42q53 -124 105 -247t106 -247q14 -35 22 -66q8 -32 8 -63v-24q-1 -13 -6 -24q23 58 90 214q68 156 180 417l17 41q20 46 63 74t96 28 h143l-596 -1366q-9 -25 -26 -44q-16 -20 -37 -34q-22 -14 -47 -22t-51 -7h-142q52 121 103 239t104 238z" glyph-name="yacute" horiz-adv-x="1183" unicode="ý"/><glyph d="M385 1466v-491q9 34 39.5 56t68.5 34.5t77.5 18.5t65.5 6q115 0 212 -44t169 -118.5t112 -175.5t40 -214q0 -114 -40 -215t-112 -176t-169 -118.5t-212 -43.5q-62 0 -128.5 18.5t-122.5 69.5v-420h-235v1813h235zM636 217q67 1 122.5 26t95.5 68t62.5 101t22.5 126 q0 67 -22.5 125t-62.5 101t-96 68t-122 25q-71 0 -136.5 -26.5t-114.5 -74.5v-438q49 -47 115 -74t136 -27z" glyph-name="thorn" horiz-adv-x="1239" unicode="þ"/><glyph d="M283 1327q0 27 9 50q10 24 27 42t41 28t51 10t50 -10q24 -10 41 -28q18 -18 28 -42t11 -50q0 -27 -11 -50q-10 -24 -28 -41t-41 -27q-24 -10 -50 -10q-27 0 -51 10t-41 27t-27 41q-9 23 -9 50zM643 1327q0 27 10 50q10 24 28 42q17 18 40 28t50 10t50 -10q24 -10 42 -28 t28 -42t10 -50q0 -27 -10 -50q-10 -24 -28 -41t-42 -27t-50 -10q-27 0 -50 10t-40 27t-28 41q-10 23 -10 50zM29 1075h142q26 0 51 -7t46 -21q22 -14 38 -33t24 -42q53 -124 105 -247t106 -247q14 -35 22 -66q8 -32 8 -63v-24q-1 -13 -6 -24q23 58 90 214q68 156 180 417 l17 41q20 46 63 74t96 28h143l-596 -1366q-9 -25 -26 -44q-16 -20 -37 -34q-22 -14 -47 -22t-51 -7h-142q52 121 103 239t104 238z" glyph-name="ydieresis" horiz-adv-x="1183" unicode="ÿ"/><glyph d="M422 1766h585v-188h-585v188zM605 1467h220l640 -1467h-141q-52 0 -96 27t-65 75l-94 216h-709l-93 -216q-20 -46 -64 -74t-97 -28h-142zM465 555h501l-230 528q-11 25 -16 49t-5 43q-2 -19 -7 -44q-5 -24 -15 -48z" glyph-name="Amacron" horiz-adv-x="1429" unicode="Ā"/><glyph d="M267 1417h585v-188h-585v188zM174 904q11 17 28 36q14 15 34 34q19 18 44 35q61 39 132 60t157 21q91 0 159 -22q67 -22 114 -60t77 -90t47 -114q17 -61 23 -130q6 -68 6 -137v-537h-192q-14 17 -23 45q-8 27 -8 50q-29 -25 -67 -45t-79 -35q-40 -14 -81 -22 q-40 -8 -73 -7q-83 0 -151 23q-69 24 -119 67q-50 44 -77 105q-28 61 -28 135q0 83 32 149t95 112t159 70q96 25 225 25q28 0 53 -2t45 -3q20 -2 34 -4t19 -3q-4 58 -20 99q-15 40 -40 66t-58 37t-73 11q-48 0 -76 -8q-29 -8 -51 -18t-42 -18q-21 -8 -53 -8q-30 0 -56 10 t-50 28zM472 201q66 0 144 23t149 63v165q-5 1 -21 1q-16 1 -38 2q-23 1 -51 1q-28 1 -56 1q-57 0 -107 -8t-86 -26q-36 -17 -57 -42q-21 -26 -21 -62q0 -59 40 -89q39 -29 104 -29z" glyph-name="amacron" horiz-adv-x="1120" unicode="ā"/><glyph d="M1017 1835q0 -65 -25 -117q-25 -53 -66 -91q-42 -38 -97 -60q-55 -21 -115 -21t-115 21q-54 21 -96 60q-42 38 -67 91t-24 117h60q34 0 63 -16t43 -43q20 -34 55 -51q35 -16 81 -16t81 16t55 51q15 29 43 44t63 15h61zM605 1467h220l640 -1467h-141q-52 0 -96 27t-65 75 l-94 216h-709l-93 -216q-20 -46 -64 -74t-97 -28h-142zM465 555h501l-230 528q-11 25 -16 49t-5 43q-2 -19 -7 -44q-5 -24 -15 -48z" glyph-name="Abreve" horiz-adv-x="1429" unicode="Ă"/><glyph d="M862 1458q0 -65 -24 -119q-25 -54 -67 -93t-97 -62t-114 -23q-60 0 -115 23t-96 62t-67 93q-25 54 -25 119h60q34 0 63 -16t44 -44q20 -33 58 -52t78 -19q39 0 77 19q38 18 58 52q16 30 44 45t63 15h60zM174 904q11 17 28 36q14 15 34 34q19 18 44 35q61 39 132 60 t157 21q91 0 159 -22q67 -22 114 -60t77 -90t47 -114q17 -61 23 -130q6 -68 6 -137v-537h-192q-14 17 -23 45q-8 27 -8 50q-29 -25 -67 -45t-79 -35q-40 -14 -81 -22q-40 -8 -73 -7q-83 0 -151 23q-69 24 -119 67q-50 44 -77 105q-28 61 -28 135q0 83 32 149t95 112t159 70 q96 25 225 25q28 0 53 -2t45 -3q20 -2 34 -4t19 -3q-4 58 -20 99q-15 40 -40 66t-58 37t-73 11q-48 0 -76 -8q-29 -8 -51 -18t-42 -18q-21 -8 -53 -8q-30 0 -56 10t-50 28zM472 201q66 0 144 23t149 63v165q-5 1 -21 1q-16 1 -38 2q-23 1 -51 1q-28 1 -56 1q-57 0 -107 -8 t-86 -26q-36 -17 -57 -42q-21 -26 -21 -62q0 -59 40 -89q39 -29 104 -29z" glyph-name="abreve" horiz-adv-x="1120" unicode="ă"/><glyph d="M1389 0q-61 -35 -96 -73q-34 -38 -35 -79q0 -39 28 -57q28 -19 67 -19q18 1 39 4t42 3q26 0 50 -9q25 -9 39 -35l19 -42q-43 -30 -103 -48t-123 -19q-56 0 -101 13q-45 12 -76 34q-31 23 -48 55t-17 70q0 31 15 61t40 57q25 28 58 52q33 25 68 46zM605 1467h220 l640 -1467h-141q-52 0 -96 27t-65 75l-94 216h-709l-93 -216q-20 -46 -64 -74t-97 -28h-142zM465 555h501l-230 528q-11 25 -16 49t-5 43q-2 -19 -7 -44q-5 -24 -15 -48z" glyph-name="Aogonek" horiz-adv-x="1429" unicode="Ą"/><glyph d="M957 0q-61 -35 -95 -73t-35 -79q0 -39 28 -57q28 -19 67 -19q18 1 39 4t41 3q26 0 51 -9t39 -35l19 -42q-43 -30 -103 -48t-123 -19q-56 0 -101 13q-45 12 -76 34q-31 23 -48 55t-17 70q0 31 15 61t40 57q25 28 58 52q33 25 68 46zM174 904q11 17 28 36q14 15 34 34 q19 18 44 35q61 39 132 60t157 21q91 0 159 -22q67 -22 114 -60t77 -90t47 -114q17 -61 23 -130q6 -68 6 -137v-537h-192q-14 17 -23 45q-8 27 -8 50q-29 -25 -67 -45t-79 -35q-40 -14 -81 -22q-40 -8 -73 -7q-83 0 -151 23q-69 24 -119 67q-50 44 -77 105q-28 61 -28 135 q0 83 32 149t95 112t159 70q96 25 225 25q28 0 53 -2t45 -3q20 -2 34 -4t19 -3q-4 58 -20 99q-15 40 -40 66t-58 37t-73 11q-48 0 -76 -8q-29 -8 -51 -18t-42 -18q-21 -8 -53 -8q-30 0 -56 10t-50 28zM472 201q66 0 144 23t149 63v165q-5 1 -21 1q-16 1 -38 2q-23 1 -51 1 q-28 1 -56 1q-57 0 -107 -8t-86 -26q-36 -17 -57 -42q-21 -26 -21 -62q0 -59 40 -89q39 -29 104 -29z" glyph-name="aogonek" horiz-adv-x="1120" unicode="ą"/><glyph d="M874 1632q-39 -51 -132 -51h-105q67 113 99 165t38 59q39 51 131 52h152zM328 734q0 -106 40 -200t111 -163q70 -70 164 -110t200 -41q82 0 155 25t136 67q20 13 44 21q24 7 50 7q42 0 71 -13q30 -13 56 -39l50 -50q-54 -58 -119 -105t-136 -80t-149 -51 q-78 -17 -158 -17q-156 0 -293 59t-238 160q-102 102 -161 238t-59 292q0 103 27 199t76 179t117 152q69 69 152 117q83 49 179 75q96 27 200 27q81 0 158 -18q78 -17 149 -50t136 -80t119 -105l-50 -50q-26 -25 -57 -39t-70 -15q-50 0 -94 30q-63 43 -137 67 q-73 24 -154 24q-106 0 -200 -40t-164 -110t-111 -164q-40 -94 -40 -199z" glyph-name="Cacute" horiz-adv-x="1490" unicode="Ć"/><glyph d="M552 1240q-39 -51 -131 -51h-106q75 132 111 194t42 69q37 50 131 50h152zM629 857q-66 0 -124 -25t-103 -68q-44 -43 -69 -101q-26 -58 -26 -125q0 -68 26 -126t69 -102q44 -43 103 -68q58 -25 124 -25q51 0 95 13q45 13 91 32q13 8 30 11q16 3 33 2q19 0 37 -5 q18 -6 36 -15q17 -9 31 -20t25 -21l40 -39q-82 -88 -190 -139t-228 -50q-114 0 -215 43q-101 44 -176 118q-75 75 -119 176t-43 215q0 114 43 214q44 101 119 176t176 118q101 44 215 44q121 0 228 -52q108 -51 190 -138l-40 -40q-27 -27 -63 -43t-76 -16q-17 0 -29 2 t-26 10q-46 17 -91 30t-93 14z" glyph-name="cacute" horiz-adv-x="1067" unicode="ć"/><glyph d="M838 1680q-6 7 -10 16q-4 8 -6 13q-3 -5 -6 -13q-4 -8 -9 -15l-32 -32q-26 -27 -45 -46q-20 -19 -41 -33q-21 -13 -47 -19t-61 -6h-82l176 233q18 27 52 39q33 12 79 12h33q91 0 130 -51q44 -58 88 -117q44 -58 89 -116h-82q-45 0 -77 11t-57 31q-25 19 -46 43 q-21 23 -46 50zM328 734q0 -106 40 -200t111 -163q70 -70 164 -110t200 -41q82 0 155 25t136 67q20 13 44 21q24 7 50 7q42 0 71 -13q30 -13 56 -39l50 -50q-54 -58 -119 -105t-136 -80t-149 -51q-78 -17 -158 -17q-156 0 -293 59t-238 160q-102 102 -161 238t-59 292 q0 103 27 199t76 179t117 152q69 69 152 117q83 49 179 75q96 27 200 27q81 0 158 -18q78 -17 149 -50t136 -80t119 -105l-50 -50q-26 -25 -57 -39t-70 -15q-50 0 -94 30q-63 43 -137 67q-73 24 -154 24q-106 0 -200 -40t-164 -110t-111 -164q-40 -94 -40 -199z" glyph-name="Ccircumflex" horiz-adv-x="1490" unicode="Ĉ"/><glyph d="M549 1339q-6 6 -10 15q-4 8 -5 13q-3 -5 -7 -13t-9 -15l-26 -32q-14 -17 -30 -37q-15 -19 -32 -36q-24 -27 -56 -36q-33 -9 -82 -9h-82q65 95 107 158q42 62 66 92q17 28 52 42q34 14 82 14h33q43 0 73 -11t49 -32q10 -8 27 -31t41 -58q23 -35 53 -79t64 -95h-82 q-40 0 -74 6q-24 5 -44 21q-21 16 -40 37t-36 44t-32 42zM629 857q-66 0 -124 -25t-103 -68q-44 -43 -69 -101q-26 -58 -26 -125q0 -68 26 -126t69 -102q44 -43 103 -68q58 -25 124 -25q51 0 95 13q45 13 91 32q13 8 30 11q16 3 33 2q19 0 37 -5q18 -6 36 -15q17 -9 31 -20 t25 -21l40 -39q-82 -88 -190 -139t-228 -50q-114 0 -215 43q-101 44 -176 118q-75 75 -119 176t-43 215q0 114 43 214q44 101 119 176t176 118q101 44 215 44q121 0 228 -52q108 -51 190 -138l-40 -40q-27 -27 -63 -43t-76 -16q-17 0 -29 2t-26 10q-46 17 -91 30t-93 14z " glyph-name="ccircumflex" horiz-adv-x="1067" unicode="ĉ"/><glyph d="M698 1717q0 31 12 58q11 27 31 46q20 20 47 31t58 12q31 0 57 -12q27 -11 47 -31t32 -46q12 -27 11 -58q0 -31 -11 -57q-12 -27 -32 -47t-47 -31q-27 -12 -57 -12q-31 0 -58 12t-47 31q-20 20 -31 47q-12 26 -12 57zM328 734q0 -106 40 -200t111 -163q70 -70 164 -110 t200 -41q82 0 155 25t136 67q20 13 44 21q24 7 50 7q42 0 71 -13q30 -13 56 -39l50 -50q-54 -58 -119 -105t-136 -80t-149 -51q-78 -17 -158 -17q-156 0 -293 59t-238 160q-102 102 -161 238t-59 292q0 103 27 199t76 179t117 152q69 69 152 117q83 49 179 75q96 27 200 27 q81 0 158 -18q78 -17 149 -50t136 -80t119 -105l-50 -50q-26 -25 -57 -39t-70 -15q-50 0 -94 30q-63 43 -137 67q-73 24 -154 24q-106 0 -200 -40t-164 -110t-111 -164q-40 -94 -40 -199z" glyph-name="Cdotaccent" horiz-adv-x="1490" unicode="Ċ"/><glyph d="M386 1327q0 31 11 57q11 27 32 47q20 20 47 31t58 12q31 0 57 -12q27 -11 46 -31q20 -20 32 -47t12 -57q0 -31 -12 -57q-12 -27 -32 -47t-46 -31q-27 -11 -57 -11q-31 0 -58 11t-47 31t-32 47q-11 26 -11 57zM629 857q-66 0 -124 -25t-103 -68q-44 -43 -69 -101 q-26 -58 -26 -125q0 -68 26 -126t69 -102q44 -43 103 -68q58 -25 124 -25q51 0 95 13q45 13 91 32q13 8 30 11q16 3 33 2q19 0 37 -5q18 -6 36 -15q17 -9 31 -20t25 -21l40 -39q-82 -88 -190 -139t-228 -50q-114 0 -215 43q-101 44 -176 118q-75 75 -119 176t-43 215 q0 114 43 214q44 101 119 176t176 118q101 44 215 44q121 0 228 -52q108 -51 190 -138l-40 -40q-27 -27 -63 -43t-76 -16q-17 0 -29 2t-26 10q-46 17 -91 30t-93 14z" glyph-name="cdotaccent" horiz-adv-x="1067" unicode="ċ"/><glyph d="M511 1905q14 0 28 -1t27 -3q28 -4 50 -20q23 -16 42 -38t37 -45q17 -24 34 -45q5 -8 9 -16l6 -12q5 8 11 18t13 19q22 29 40 55q19 26 42 45t53 31t75 12h90q-67 -99 -110 -162q-43 -62 -63 -89q-20 -28 -53 -42q-32 -14 -81 -15h-32q-30 0 -52 5t-39 14t-30 23t-25 31 q-27 38 -67 96t-94 139h89zM328 734q0 -106 40 -200t111 -163q70 -70 164 -110t200 -41q82 0 155 25t136 67q20 13 44 21q24 7 50 7q42 0 71 -13q30 -13 56 -39l50 -50q-54 -58 -119 -105t-136 -80t-149 -51q-78 -17 -158 -17q-156 0 -293 59t-238 160q-102 102 -161 238 t-59 292q0 103 27 199t76 179t117 152q69 69 152 117q83 49 179 75q96 27 200 27q81 0 158 -18q78 -17 149 -50t136 -80t119 -105l-50 -50q-26 -25 -57 -39t-70 -15q-50 0 -94 30q-63 43 -137 67q-73 24 -154 24q-106 0 -200 -40t-164 -110t-111 -164q-40 -94 -40 -199z" glyph-name="Ccaron" horiz-adv-x="1490" unicode="Č"/><glyph d="M299 1495q14 0 28 -1t27 -3q28 -4 50 -20q23 -16 42 -37q19 -22 37 -46q17 -24 34 -45q5 -8 9 -16t6 -11q5 8 11 18t13 19q22 29 40 54q19 26 42 45t53 31t75 12h90q-67 -99 -110 -162q-43 -62 -63 -89q-20 -28 -53 -42q-32 -14 -81 -14h-32q-30 0 -52 4q-22 5 -39 14 t-30 23t-25 32q-27 38 -67 96t-94 138h89zM629 857q-66 0 -124 -25t-103 -68q-44 -43 -69 -101q-26 -58 -26 -125q0 -68 26 -126t69 -102q44 -43 103 -68q58 -25 124 -25q51 0 95 13q45 13 91 32q13 8 30 11q16 3 33 2q19 0 37 -5q18 -6 36 -15q17 -9 31 -20t25 -21l40 -39 q-82 -88 -190 -139t-228 -50q-114 0 -215 43q-101 44 -176 118q-75 75 -119 176t-43 215q0 114 43 214q44 101 119 176t176 118q101 44 215 44q121 0 228 -52q108 -51 190 -138l-40 -40q-27 -27 -63 -43t-76 -16q-17 0 -29 2t-26 10q-46 17 -91 30t-93 14z" glyph-name="ccaron" horiz-adv-x="1067" unicode="č"/><glyph d="M551 1905q14 0 28 -1t27 -3q28 -4 50 -20q23 -16 42 -38t37 -45q17 -24 34 -45q5 -8 9 -16l6 -12q5 8 11 18t13 19q22 29 40 55q19 26 42 45t53 31t75 12h90q-67 -99 -110 -162q-43 -62 -63 -89q-20 -28 -53 -42q-32 -14 -81 -15h-32q-30 0 -52 5t-39 14t-30 23t-25 31 q-27 38 -67 96t-94 139h89zM178 0v1467h564q101 0 196 -26q94 -26 176 -74q81 -48 149 -115t115 -149q48 -81 74 -175q27 -94 27 -195t-27 -195t-74 -175q-48 -81 -115 -148q-68 -67 -149 -115t-176 -74q-94 -26 -196 -26h-564zM742 236q102 0 194 38q91 39 159 107t108 158 q39 91 39 194q0 102 -39 193t-108 158q-68 68 -159 107t-194 40h-328v-995h328z" glyph-name="Dcaron" horiz-adv-x="1570" unicode="Ď"/><glyph d="M1282 1478h98q40 0 61 -22t21 -58v-10t-1 -10l-20 -130q-5 -36 -32 -58t-62 -22h-65v310zM1094 0h-197l-4 6q-4 6 -9 17t-11 25q-5 14 -6 30q-58 -54 -126 -74q-68 -19 -134 -19q-114 0 -211 43q-98 44 -170 118q-72 75 -112 176t-40 215t40 214q40 101 112 176t170 118 q98 44 211 44q65 0 129 -20q65 -19 122 -72v470h236v-1467zM607 856q-67 0 -122 -25t-95 -68t-62 -101t-22 -125q0 -68 22 -126t62 -102q40 -43 95 -68t122 -25q70 0 136 27t115 74v438q-49 47 -115 74t-136 27z" glyph-name="dcaron" horiz-adv-x="1236" unicode="ď"/><glyph d="M26 828h584v-188h-584v188zM178 0v1467h564q101 0 196 -26q94 -26 176 -74q81 -48 149 -115t115 -149q48 -81 74 -175q27 -94 27 -195t-27 -195t-74 -175q-48 -81 -115 -148q-68 -67 -149 -115t-176 -74q-94 -26 -196 -26h-564zM742 236q102 0 194 38q91 39 159 107 t108 158q39 91 39 194q0 102 -39 193t-108 158q-68 68 -159 107t-194 40h-328v-995h328z" glyph-name="Dcroat" horiz-adv-x="1570" unicode="Đ"/><glyph d="M647 1405h211v62h236v-62h102v-193h-102v-1212h-197q-8 10 -14 22q-5 10 -10 24t-6 34q-57 -54 -124.5 -74.5t-135.5 -20.5q-114 0 -211.5 43.5t-169 118t-112 175.5t-40.5 215t40.5 214.5t112 175t169.5 118.5t211 44q65 0 129.5 -19.5t121.5 -72.5v215h-211v193z M607 856q-67 0 -122 -25t-95 -68t-62 -101.5t-22 -124.5q0 -68 22 -126.5t62 -101.5t95.5 -68t121.5 -25q70 0 136 27t115 74v438q-49 47 -115 74t-136 27z" glyph-name="dcroat" horiz-adv-x="1236" unicode="đ"/><glyph d="M312 1766h585v-188h-585v188zM1103 0h-925v1467h925v-230h-689v-382h558v-230h-558v-395h689v-230z" glyph-name="Emacron" horiz-adv-x="1210" unicode="Ē"/><glyph d="M329 1417h584v-188h-584v188zM1167 626q0 -39 -15 -69t-38 -51q-23 -20 -51 -30t-52 -10h-694q7 -47 34 -93q26 -46 66 -83t94 -60q53 -23 116 -22q43 0 83 11t74 30q41 24 90 23q36 0 66 -13q29 -13 54 -39l50 -50q-82 -88 -189 -137q-108 -49 -228 -48q-114 0 -215 43 q-101 44 -176 119t-119 176t-43 215q0 114 43 214q44 101 119 176t176 118q101 44 215 44q95 0 182 -32t158 -87t121 -131q51 -76 74 -164q4 -13 4 -26t1 -24zM921 679q-15 36 -43 70q-27 34 -64 59q-37 26 -84 42t-100 16q-59 0 -110 -18t-90 -49q-39 -30 -66 -69t-39 -81 q6 8 21 19t40 11h535z" glyph-name="emacron" horiz-adv-x="1242" unicode="ē"/><glyph d="M907 1835q0 -65 -24 -117q-25 -53 -67 -91t-97 -60q-55 -21 -115 -21t-115 21q-54 21 -96 60q-42 38 -66 91q-25 53 -25 117h60q34 0 63 -16t43 -43q20 -34 55 -51q35 -16 81 -16t81 16t55 51q15 29 43 44t64 15h60zM1103 0h-925v1467h925v-230h-689v-382h558v-230h-558 v-395h689v-230z" glyph-name="Ebreve" horiz-adv-x="1210" unicode="Ĕ"/><glyph d="M924 1458q0 -65 -25 -119t-66 -93q-42 -39 -97 -62t-114 -23q-60 0 -116 23q-55 23 -96 62t-66 93t-26 119h61q34 0 63 -16t43 -44q20 -33 59 -52q38 -19 78 -19q39 0 76 19q38 18 59 52q16 30 44 45t62 15h61zM1167 626q0 -39 -15 -69t-38 -51q-23 -20 -51 -30t-52 -10 h-694q7 -47 34 -93q26 -46 66 -83t94 -60q53 -23 116 -22q43 0 83 11t74 30q41 24 90 23q36 0 66 -13q29 -13 54 -39l50 -50q-82 -88 -189 -137q-108 -49 -228 -48q-114 0 -215 43q-101 44 -176 119t-119 176t-43 215q0 114 43 214q44 101 119 176t176 118q101 44 215 44 q95 0 182 -32t158 -87t121 -131q51 -76 74 -164q4 -13 4 -26t1 -24zM921 679q-15 36 -43 70q-27 34 -64 59q-37 26 -84 42t-100 16q-59 0 -110 -18t-90 -49q-39 -30 -66 -69t-39 -81q6 8 21 19t40 11h535z" glyph-name="ebreve" horiz-adv-x="1242" unicode="ĕ"/><glyph d="M458 1717q0 31 11 58t31 46q20 20 47 31t58 12q31 0 58 -12q27 -11 46 -31q20 -20 32 -46q12 -27 12 -58t-12 -57q-12 -27 -32 -47t-46 -31q-27 -12 -58 -12t-58 12t-47 31q-20 20 -31 47q-11 26 -11 57zM1103 0h-925v1467h925v-230h-689v-382h558v-230h-558v-395h689 v-230z" glyph-name="Edotaccent" horiz-adv-x="1210" unicode="Ė"/><glyph d="M473 1327q0 31 11 57q11 27 32 47q20 20 47 31t58 12q31 0 57 -12q27 -11 46 -31q20 -20 32 -47t12 -57q0 -31 -12 -57q-12 -27 -32 -47t-46 -31q-27 -11 -57 -11q-31 0 -58 11t-47 31t-32 47q-11 26 -11 57zM1167 626q0 -39 -15 -69t-38 -51q-23 -20 -51 -30t-52 -10 h-694q7 -47 34 -93q26 -46 66 -83t94 -60q53 -23 116 -22q43 0 83 11t74 30q41 24 90 23q36 0 66 -13q29 -13 54 -39l50 -50q-82 -88 -189 -137q-108 -49 -228 -48q-114 0 -215 43q-101 44 -176 119t-119 176t-43 215q0 114 43 214q44 101 119 176t176 118q101 44 215 44 q95 0 182 -32t158 -87t121 -131q51 -76 74 -164q4 -13 4 -26t1 -24zM921 679q-15 36 -43 70q-27 34 -64 59q-37 26 -84 42t-100 16q-59 0 -110 -18t-90 -49q-39 -30 -66 -69t-39 -81q6 8 21 19t40 11h535z" glyph-name="edotaccent" horiz-adv-x="1242" unicode="ė"/><glyph d="M949 -1q-61 -35 -95 -73t-35 -79q0 -39 28 -57q28 -19 66 -19q18 1 40 4q21 3 41 3q26 0 51 -9t38 -35l20 -42q-43 -30 -103 -48t-123 -19q-56 0 -101 13q-45 12 -76 34q-31 23 -48 55t-17 70q0 31 15 61t40 57q25 28 58 52q33 25 68 46zM1103 0h-925v1467h925v-230h-689 v-382h558v-230h-558v-395h689v-230z" glyph-name="Eogonek" horiz-adv-x="1210" unicode="Ę"/><glyph d="M738 -1q-61 -35 -95 -73t-35 -79q0 -39 28 -57q28 -19 66 -19q18 1 40 4q21 3 41 3q26 0 51 -9t38 -35l20 -42q-43 -30 -103 -48t-123 -19q-56 0 -101 13q-45 12 -76 34q-31 23 -48 55t-17 70q0 31 15 61t40 57q25 28 58 52q33 25 68 46zM1167 626q-1 11 -1 24t-4 26 q-24 88 -74 164q-51 76 -121 131q-71 55 -158 87t-182 32q-114 0 -215 -44t-176 -118q-75 -75 -119 -176t-43 -214q0 -114 43 -215q44 -101 119 -176t176 -119t215 -43q121 0 228 48q108 49 189 137l-50 50q-26 26 -54 39q-29 13 -66 13q-49 0 -90 -23q-35 -19 -74 -30 q-40 -11 -83 -11q-62 0 -116 22q-53 23 -94 60q-40 37 -66 83t-34 93h694q25 0 52 10q28 10 51 30t38 51q15 30 15 69zM921 679h-535q-25 0 -40 -11t-21 -19q12 41 39 81q27 39 66 69t90 49q51 18 110 18q53 0 100 -16t84 -42t64 -59q28 -34 43 -70z" glyph-name="eogonek" horiz-adv-x="1242" unicode="ę"/><glyph d="M371 1905q14 0 28 -1t27 -3q28 -4 50 -20q23 -16 42 -38t37 -45q17 -24 34 -45q5 -8 9 -16l6 -12q5 8 11 18t13 19q22 29 40 55q19 26 42 45t52 31q30 12 76 12h90q-67 -99 -110 -162q-43 -62 -63 -89q-20 -28 -53 -42q-32 -14 -81 -15h-32q-30 0 -52 5t-39 14t-30 23 t-26 31q-27 38 -66 96q-40 58 -94 139h89zM1103 0h-925v1467h925v-230h-689v-382h558v-230h-558v-395h689v-230z" glyph-name="Ecaron" horiz-adv-x="1210" unicode="Ě"/><glyph d="M387 1495q14 0 28 -1t27 -3q28 -4 51 -20t42 -37q19 -22 36 -46t34 -45q5 -8 9 -16t7 -11q5 8 10 18q6 10 13 19q22 29 41 54q19 26 41 45q23 19 53 31t75 12h90q-67 -99 -109 -162q-43 -62 -64 -89q-20 -28 -53 -42q-32 -14 -81 -14h-32q-30 0 -52 4q-22 5 -38 14 q-17 9 -31 23q-13 14 -25 32q-27 38 -67 96t-94 138h89zM1167 626q0 -39 -15 -69t-38 -51q-23 -20 -51 -30t-52 -10h-694q7 -47 34 -93q26 -46 66 -83t94 -60q53 -23 116 -22q43 0 83 11t74 30q41 24 90 23q36 0 66 -13q29 -13 54 -39l50 -50q-82 -88 -189 -137 q-108 -49 -228 -48q-114 0 -215 43q-101 44 -176 119t-119 176t-43 215q0 114 43 214q44 101 119 176t176 118q101 44 215 44q95 0 182 -32t158 -87t121 -131q51 -76 74 -164q4 -13 4 -26t1 -24zM921 679q-15 36 -43 70q-27 34 -64 59q-37 26 -84 42t-100 16q-59 0 -110 -18 t-90 -49q-39 -30 -66 -69t-39 -81q6 8 21 19t40 11h535z" glyph-name="ecaron" horiz-adv-x="1242" unicode="ě"/><glyph d="M929 1680q-6 7 -10 16q-4 8 -6 13q-3 -5 -6 -13q-4 -8 -9 -15l-32 -32q-26 -27 -45 -46q-20 -19 -41 -33q-21 -13 -47 -19t-61 -6h-82l176 233q18 27 52 39q33 12 79 12h33q91 0 130 -51q44 -58 88 -117q44 -58 89 -116h-82q-45 0 -77 11t-57 31q-25 19 -46 43 q-21 23 -46 50zM1394 766v-603q-53 -54 -117 -89q-63 -34 -133 -54q-71 -19 -147 -27t-153 -7q-103 0 -199 26q-96 27 -180 76q-83 49 -151 117q-68 69 -117 151q-49 83 -76 179t-27 199t27 199t76 179t117 152t151 117q83 49 180 75q96 27 199 27q82 0 160 -18 q78 -17 149 -50t135 -80t118 -105l-49 -50q-27 -27 -58 -40t-69 -14q-28 0 -51 8t-43 22q-63 43 -137 67q-73 24 -155 24q-106 0 -200 -40q-93 -40 -163 -110t-111 -164q-40 -94 -40 -199q0 -108 42 -201q42 -94 114 -163q72 -70 167 -110t201 -40q93 0 166 14t138 42v260 h-60q-40 0 -72 13t-55 36t-35 52q-12 30 -12 65v64h470z" glyph-name="Gcircumflex" horiz-adv-x="1534" unicode="Ĝ"/><glyph d="M552 1339q-6 6 -10 15q-4 8 -5 13q-3 -5 -7 -13t-9 -15l-26 -32q-14 -17 -30 -37q-15 -19 -32 -36q-24 -27 -56 -36q-33 -9 -82 -9h-82q65 95 107 158q42 62 66 92q17 28 52 42q34 14 82 14h33q43 0 73 -11t49 -32q10 -8 27 -31t41 -58q23 -35 53 -79t64 -95h-82 q-40 0 -73 6q-24 5 -45 21t-40 37t-36 44t-32 42zM1031 943q-9 -22 -21 -39q-12 -18 -29 -31t-41 -20t-57 -7q13 -33 23 -75t9 -85q0 -82 -31 -156q-32 -74 -87 -129t-129 -88t-159 -32q-92 0 -178 38q-30 -18 -42 -33t-11 -27q0 -8 4 -13l6 -6q10 -10 33 -17q23 -6 53 -9 t64 -4t68 -1h67q53 -2 106 -8q52 -6 99 -22q85 -30 127 -94q42 -65 42 -144q0 -62 -25 -116q-25 -53 -73 -93q-48 -39 -119 -61t-163 -22q-72 0 -141 12q-70 12 -136 29q-66 18 -127 41t-117 44q11 31 23 59t30 49q18 22 44 35t66 12q24 0 48 -5t44 -13q14 -5 40 -15t59 -19 q34 -9 75 -16q40 -7 85 -6q20 0 50 4q29 5 56 15t45 26q19 16 19 41q0 22 -13 33q-13 12 -54 22q-43 11 -95 14t-107 5t-110 5q-55 4 -104 15q-49 12 -87 37t-61 67q-17 33 -17 75q0 41 34 92t105 89q-58 59 -89 132t-32 156q0 84 33 158q32 74 87 129t130 87q74 32 158 32 q65 0 123 -19t107 -53q20 11 58 21q37 10 84 10q46 0 91 -12q46 -11 84 -22zM318 684q0 -39 15 -74t41 -60q26 -26 60 -41q35 -15 74 -14q39 0 73 14q34 15 60 41t40 60q15 35 15 74t-15 73t-40 60q-26 26 -60 41t-73 14q-39 0 -74 -14q-35 -15 -60 -41q-26 -26 -41 -60 t-15 -73z" glyph-name="gcircumflex" horiz-adv-x="1073" unicode="ĝ"/><glyph d="M1070 1835q0 -65 -24 -117q-25 -53 -67 -91t-97 -60q-55 -21 -115 -21t-115 21q-54 21 -96 60q-42 38 -67 91t-24 117h60q34 0 63 -16t43 -43q20 -34 55 -51q35 -16 81 -16t81 16t55 51q15 29 43 44t64 15h60zM1394 766v-603q-53 -54 -117 -89q-63 -34 -133 -54 q-71 -19 -147 -27t-153 -7q-103 0 -199 26q-96 27 -180 76q-83 49 -151 117q-68 69 -117 151q-49 83 -76 179t-27 199t27 199t76 179t117 152t151 117q83 49 180 75q96 27 199 27q82 0 160 -18q78 -17 149 -50t135 -80t118 -105l-49 -50q-27 -27 -58 -40t-69 -14 q-28 0 -51 8t-43 22q-63 43 -137 67q-73 24 -155 24q-106 0 -200 -40q-93 -40 -163 -110t-111 -164q-40 -94 -40 -199q0 -108 42 -201q42 -94 114 -163q72 -70 167 -110t201 -40q93 0 166 14t138 42v260h-60q-40 0 -72 13t-55 36t-35 52q-12 30 -12 65v64h470z" glyph-name="Gbreve" horiz-adv-x="1534" unicode="Ğ"/><glyph d="M839 1458q0 -65 -25 -119t-66 -93q-42 -39 -97 -62t-114 -23q-60 0 -116 23q-55 23 -96 62t-66 93t-26 119h61q34 0 63 -16t43 -44q20 -33 59 -52q38 -19 78 -19q39 0 76 19q38 18 59 52q16 30 44 45t62 15h61zM1031 943q-9 -22 -21 -39q-12 -18 -29 -31t-41 -20t-57 -7 q13 -33 23 -75t9 -85q0 -82 -31 -156q-32 -74 -87 -129t-129 -88t-159 -32q-92 0 -178 38q-30 -18 -42 -33t-11 -27q0 -8 4 -13l6 -6q10 -10 33 -17q23 -6 53 -9t64 -4t68 -1h67q53 -2 106 -8q52 -6 99 -22q85 -30 127 -94q42 -65 42 -144q0 -62 -25 -116q-25 -53 -73 -93 q-48 -39 -119 -61t-163 -22q-72 0 -141 12q-70 12 -136 29q-66 18 -127 41t-117 44q11 31 23 59t30 49q18 22 44 35t66 12q24 0 48 -5t44 -13q14 -5 40 -15t59 -19q34 -9 75 -16q40 -7 85 -6q20 0 50 4q29 5 56 15t45 26q19 16 19 41q0 22 -13 33q-13 12 -54 22 q-43 11 -95 14t-107 5t-110 5q-55 4 -104 15q-49 12 -87 37t-61 67q-17 33 -17 75q0 41 34 92t105 89q-58 59 -89 132t-32 156q0 84 33 158q32 74 87 129t130 87q74 32 158 32q65 0 123 -19t107 -53q20 11 58 21q37 10 84 10q46 0 91 -12q46 -11 84 -22zM318 684 q0 -39 15 -74t41 -60q26 -26 60 -41q35 -15 74 -14q39 0 73 14q34 15 60 41t40 60q15 35 15 74t-15 73t-40 60q-26 26 -60 41t-73 14q-39 0 -74 -14q-35 -15 -60 -41q-26 -26 -41 -60t-15 -73z" glyph-name="gbreve" horiz-adv-x="1073" unicode="ğ"/><glyph d="M620 1717q0 31 11 58t31 46q20 20 47 31t58 12q31 0 57 -12q27 -11 47 -31t32 -46q12 -27 11 -58q0 -31 -11 -57q-12 -27 -32 -47t-47 -31q-27 -12 -57 -12q-31 0 -58 12t-47 31q-20 20 -31 47q-11 26 -11 57zM1394 766v-603q-53 -54 -117 -89q-63 -34 -133 -54 q-71 -19 -147 -27t-153 -7q-103 0 -199 26q-96 27 -180 76q-83 49 -151 117q-68 69 -117 151q-49 83 -76 179t-27 199t27 199t76 179t117 152t151 117q83 49 180 75q96 27 199 27q82 0 160 -18q78 -17 149 -50t135 -80t118 -105l-49 -50q-27 -27 -58 -40t-69 -14 q-28 0 -51 8t-43 22q-63 43 -137 67q-73 24 -155 24q-106 0 -200 -40q-93 -40 -163 -110t-111 -164q-40 -94 -40 -199q0 -108 42 -201q42 -94 114 -163q72 -70 167 -110t201 -40q93 0 166 14t138 42v260h-60q-40 0 -72 13t-55 36t-35 52q-12 30 -12 65v64h470z" glyph-name="Gdotaccent" horiz-adv-x="1534" unicode="Ġ"/><glyph d="M389 1327q0 31 11 57q11 27 32 47q20 20 47 31t58 12q31 0 57 -12q27 -11 47 -31t31 -47q12 -27 12 -57q0 -31 -12 -57q-12 -27 -31 -47q-20 -20 -47 -31t-57 -11q-31 0 -58 11t-47 31t-32 47q-11 26 -11 57zM1031 943q-9 -22 -21 -39q-12 -18 -29 -31t-41 -20t-57 -7 q13 -33 23 -75t9 -85q0 -82 -31 -156q-32 -74 -87 -129t-129 -88t-159 -32q-92 0 -178 38q-30 -18 -42 -33t-11 -27q0 -8 4 -13l6 -6q10 -10 33 -17q23 -6 53 -9t64 -4t68 -1h67q53 -2 106 -8q52 -6 99 -22q85 -30 127 -94q42 -65 42 -144q0 -62 -25 -116q-25 -53 -73 -93 q-48 -39 -119 -61t-163 -22q-72 0 -141 12q-70 12 -136 29q-66 18 -127 41t-117 44q11 31 23 59t30 49q18 22 44 35t66 12q24 0 48 -5t44 -13q14 -5 40 -15t59 -19q34 -9 75 -16q40 -7 85 -6q20 0 50 4q29 5 56 15t45 26q19 16 19 41q0 22 -13 33q-13 12 -54 22 q-43 11 -95 14t-107 5t-110 5q-55 4 -104 15q-49 12 -87 37t-61 67q-17 33 -17 75q0 41 34 92t105 89q-58 59 -89 132t-32 156q0 84 33 158q32 74 87 129t130 87q74 32 158 32q65 0 123 -19t107 -53q20 11 58 21q37 10 84 10q46 0 91 -12q46 -11 84 -22zM318 684 q0 -39 15 -74t41 -60q26 -26 60 -41q35 -15 74 -14q39 0 73 14q34 15 60 41t40 60q15 35 15 74t-15 73t-40 60q-26 26 -60 41t-73 14q-39 0 -74 -14q-35 -15 -60 -41q-26 -26 -41 -60t-15 -73z" glyph-name="gdotaccent" horiz-adv-x="1073" unicode="ġ"/><glyph d="M677 -171h98q40 0 61 -22t21 -58v-10t-1 -9l-20 -130q-5 -36 -32 -58q-26 -22 -63 -22h-64v309zM1394 766v-603q-53 -54 -117 -89q-63 -34 -133 -54q-71 -19 -147 -27t-153 -7q-103 0 -199 26q-96 27 -180 76q-83 49 -151 117q-68 69 -117 151q-49 83 -76 179t-27 199 t27 199t76 179t117 152t151 117q83 49 180 75q96 27 199 27q82 0 160 -18q78 -17 149 -50t135 -80t118 -105l-49 -50q-27 -27 -58 -40t-69 -14q-28 0 -51 8t-43 22q-63 43 -137 67q-73 24 -155 24q-106 0 -200 -40q-93 -40 -163 -110t-111 -164q-40 -94 -40 -199 q0 -108 42 -201q42 -94 114 -163q72 -70 167 -110t201 -40q93 0 166 14t138 42v260h-60q-40 0 -72 13t-55 36t-35 52q-12 30 -12 65v64h470z" glyph-name="Gcommaaccent" horiz-adv-x="1534" unicode="Ģ"/><glyph d="M467 1570h98q40 0 61 -22t21 -58v-10t-1 -10l-20 -130q-5 -36 -32 -57q-26 -22 -63 -22h-64v309zM1031 943q-9 -22 -21 -39q-12 -18 -29 -31t-41 -20t-57 -7q13 -33 23 -75t9 -85q0 -82 -31 -156q-32 -74 -87 -129t-129 -88t-159 -32q-92 0 -178 38q-30 -18 -42 -33 t-11 -27q0 -8 4 -13l6 -6q10 -10 33 -17q23 -6 53 -9t64 -4t68 -1h67q53 -2 106 -8q52 -6 99 -22q85 -30 127 -94q42 -65 42 -144q0 -62 -25 -116q-25 -53 -73 -93q-48 -39 -119 -61t-163 -22q-72 0 -141 12q-70 12 -136 29q-66 18 -127 41t-117 44q11 31 23 59t30 49 q18 22 44 35t66 12q24 0 48 -5t44 -13q14 -5 40 -15t59 -19q34 -9 75 -16q40 -7 85 -6q20 0 50 4q29 5 56 15t45 26q19 16 19 41q0 22 -13 33q-13 12 -54 22q-43 11 -95 14t-107 5t-110 5q-55 4 -104 15q-49 12 -87 37t-61 67q-17 33 -17 75q0 41 34 92t105 89 q-58 59 -89 132t-32 156q0 84 33 158q32 74 87 129t130 87q74 32 158 32q65 0 123 -19t107 -53q20 11 58 21q37 10 84 10q46 0 91 -12q46 -11 84 -22zM318 684q0 -39 15 -74t41 -60q26 -26 60 -41q35 -15 74 -14q39 0 73 14q34 15 60 41t40 60q15 35 15 74t-15 73t-40 60 q-26 26 -60 41t-73 14q-39 0 -74 -14q-35 -15 -60 -41q-26 -26 -41 -60t-15 -73z" glyph-name="gcommaaccent" horiz-adv-x="1073" unicode="ģ"/><glyph d="M810 1680q-6 7 -10 16q-4 8 -5 13q-3 -5 -7 -13t-9 -15l-31 -32q-26 -27 -46 -46t-41 -33q-21 -13 -47 -19t-61 -6h-82l176 233q18 27 52 39q33 12 79 12h33q91 0 130 -51q44 -58 88 -117q44 -58 89 -116h-82q-45 0 -77 11t-56 31q-25 19 -47 43q-21 23 -46 50zM1407 0 h-236v623h-755v-623h-236v1467h236v-614h755v614h236v-1467z" glyph-name="Hcircumflex" horiz-adv-x="1629" unicode="Ĥ"/><glyph d="M729 1626q-6 6 -10 14t-5 14q-3 -5 -7 -14q-4 -8 -9 -14l-26 -33q-14 -17 -30 -36q-15 -19 -32 -36q-24 -27 -56 -36q-33 -9 -82 -9h-82q65 95 107 157t66 92q17 28 52 42q34 14 82 15h33q43 0 73 -11t49 -32q10 -8 28 -31q17 -23 40 -58t53 -79t64 -95h-82q-40 0 -73 6 q-24 5 -45 21t-40 37t-36 44t-32 42zM345 1467q10 -13 20 -29q8 -14 14 -33q6 -18 6 -40v-393q19 30 50 51q30 22 67 37t78 22t85 8q92 0 167 -34t129 -97t83 -152q30 -89 30 -199v-608h-236v605q0 120 -43 189q-42 69 -130 69q-54 0 -104 -13t-88 -35t-61 -52 q-24 -30 -27 -62v-701h-235v1467h195z" glyph-name="hcircumflex" unicode="ĥ"/><glyph d="M1405 0h-236v623h-755v-623h-236v1467h236v-237h755v237h236v-1467zM1169 853v180h-755v-180h755z" glyph-name="Hbar" horiz-adv-x="1586" unicode="Ħ"/><glyph d="M345 1467q10 -13 20 -29q8 -14 14 -33t6 -40v-11h307v-219h-307v-163q19 30 49.5 52t67.5 36.5t78.5 22t84.5 7.5q92 0 167 -34t129 -97t83.5 -151.5t29.5 -199.5v-608h-236v605q0 120 -42.5 189t-130.5 69q-54 0 -104 -13t-88 -35t-61.5 -52t-26.5 -62v-701h-235v1135 h-124v219h124v113h195z" glyph-name="hbar" horiz-adv-x="1191" unicode="ħ"/><glyph d="M452 1539q-37 0 -71 13q-33 13 -63 30q-30 16 -56 30q-26 13 -46 13q-15 0 -24 -8t-13 -19q-5 -12 -6 -25q-2 -13 -2 -25h-157q0 50 12 94q11 44 35 77t60 51t85 19q34 0 65 -13q32 -13 61 -30q29 -16 55 -29q27 -13 51 -13q33 0 42 19t9 49h161q-4 -54 -13 -97 q-9 -42 -31 -71t-58 -45q-37 -17 -96 -20zM451 0h-236v1467h236v-1467z" glyph-name="Itilde" horiz-adv-x="664" unicode="Ĩ"/><glyph d="M392 1229q-37 0 -70 13t-63 30q-30 16 -56 30q-26 13 -47 13q-14 0 -23 -9t-14 -22t-6 -28q-2 -15 -1 -26h-157q0 50 11 96t35 79q24 34 59 54q36 20 85 20q35 0 66 -14q31 -13 61 -29q29 -16 55 -29t51 -13q16 0 26 6t16 17t8 24t2 28h161q-4 -55 -13 -99t-31 -76 t-59 -48q-37 -17 -96 -17zM384 1038v-1038h-236v1038h236z" glyph-name="itilde" horiz-adv-x="577" unicode="ĩ"/><glyph d="M40 1827h585v-189h-585v189zM451 0h-236v1467h236v-1467z" glyph-name="Imacron" horiz-adv-x="664" unicode="Ī"/><glyph d="M-19 1417h584v-188h-584v188zM384 1038v-1038h-236v1038h236z" glyph-name="imacron" horiz-adv-x="577" unicode="ī"/><glyph d="M635 1835q0 -65 -25 -117q-25 -53 -66 -91q-42 -38 -97 -60q-55 -21 -115 -21t-115 21q-54 21 -96 60q-42 38 -67 91t-24 117h60q34 0 63 -16t43 -43q20 -34 55 -51q35 -16 81 -16t81 16t55 51q15 29 43 44t63 15h61zM451 0h-236v1467h236v-1467z" glyph-name="Ibreve" horiz-adv-x="664" unicode="Ĭ"/><glyph d="M575 1458q0 -65 -24 -119q-25 -54 -67 -93t-96 -62q-55 -23 -115 -23t-115 23t-96 62t-67 93q-25 54 -25 119h61q34 0 63 -16t43 -44q20 -33 59 -52q38 -19 77 -19t77 19q38 18 59 52q16 30 44 45t62 15h60zM384 1038v-1038h-236v1038h236z" glyph-name="ibreve" horiz-adv-x="577" unicode="ĭ"/><glyph d="M370 0q-61 -35 -96 -73q-34 -38 -34 -79q0 -39 27 -57q28 -19 67 -19q18 1 39 4t42 3q26 0 50 -9q25 -9 39 -35l19 -42q-43 -30 -103 -48t-123 -19q-56 0 -101 13q-45 12 -76 34q-31 23 -48 55t-17 70q0 31 15 61t40 57q25 28 58 52q33 25 69 46zM451 0h-236v1467h236 v-1467z" glyph-name="Iogonek" horiz-adv-x="664" unicode="Į"/><glyph d="M324 -1q-61 -35 -96 -73q-34 -38 -34 -79q0 -39 27 -57q28 -19 67 -19q18 1 39 4t42 3q26 0 50 -9q25 -9 39 -35l19 -42q-43 -30 -103 -48t-123 -19q-56 0 -101 13q-45 12 -76 34q-31 23 -48 55t-17 70q0 31 15 61t40 57q25 28 58 52q33 25 68 46zM406 1062v-1062h-236 v1062h236zM135 1346q0 32 12 59q12 28 33 48q20 20 49 33q28 12 60 12t59 -12q28 -12 49 -33q21 -20 33 -48t11 -59q0 -32 -11 -60q-12 -28 -33 -48q-21 -21 -49 -33t-59 -12q-32 0 -60 12t-49 33q-20 21 -33 48q-12 28 -12 60z" glyph-name="iogonek" horiz-adv-x="577" unicode="į"/><glyph d="M184 1717q0 31 12 58q11 27 31 46q20 20 47 31t58 12q31 0 57 -12q27 -11 47 -31t31 -46q12 -27 12 -58t-12 -57q-12 -27 -31 -47q-20 -20 -47 -31q-27 -12 -57 -12q-31 0 -58 12t-47 31q-20 20 -31 47q-12 26 -12 57zM451 0h-236v1467h236v-1467z" glyph-name="Idotaccent" horiz-adv-x="664" unicode="İ"/><glyph d="M384 1038v-1038h-236v1038h236z" glyph-name="dotlessi" horiz-adv-x="577" unicode="ı"/><glyph d="M1124 1467h236v-1311q0 -106 -32 -198q-32 -91 -95 -158t-158 -104q-95 -38 -221 -38q-99 0 -188 34t-161 104l69 70q52 51 124 51q20 0 38 -5q17 -5 35 -12q17 -7 37 -12t46 -5q69 0 119 21q51 21 85 58t50 87t16 107v1311zM451 0h-236v1467h236v-1467z" glyph-name="IJ" horiz-adv-x="1572" unicode="Ĳ"/><glyph d="M983 1062v-1015q0 -6 -1 -12t-3 -12q-5 -71 -31 -135t-66 -118q-41 -54 -96 -95q-54 -41 -115 -67q-17 37 -35 76q-17 39 -16 80q0 32 12 57t30 46q17 22 35 45t31 51q9 22 14 46t4 47v1006h237zM713 1346q0 32 12 59q12 28 33 48q20 20 48 33q28 12 60 12t60 -12t49 -33 q20 -20 33 -48q12 -28 12 -59q0 -32 -12 -60t-33 -48q-20 -21 -49 -33q-28 -12 -60 -12t-60 12t-48 33t-33 48q-12 28 -12 60zM406 1062v-1062h-236v1062h236zM135 1346q0 32 12 59q12 28 33 48q20 20 49 33q28 12 60 12t59 -12q28 -12 49 -33q21 -20 33 -48t11 -59 q0 -32 -11 -60q-12 -28 -33 -48q-21 -21 -49 -33t-59 -12q-32 0 -60 12t-49 33q-20 21 -33 48q-12 28 -12 60z" glyph-name="ij" horiz-adv-x="1150" unicode="ĳ"/><glyph d="M602 1680q-6 7 -10 16q-4 8 -5 13q-3 -5 -7 -13t-9 -15l-31 -32q-26 -27 -46 -46t-41 -33q-21 -13 -46 -19q-26 -6 -62 -6h-82l176 233q18 27 52 39q33 12 79 12h33q91 0 130 -51q44 -58 88 -117q44 -58 89 -116h-82q-45 0 -76 11q-32 11 -57 31q-25 19 -47 43 q-21 23 -46 50zM460 1467h235v-1311q0 -106 -31 -198q-32 -91 -96 -158q-63 -67 -158 -104q-95 -38 -221 -38q-99 0 -188 34t-161 104l70 70q52 51 124 51q20 0 38 -5q17 -5 34 -12t38 -12q20 -5 45 -5q69 0 120 21t84 58q34 37 50 87t17 107v1311z" glyph-name="Jcircumflex" horiz-adv-x="908" unicode="Ĵ"/><glyph d="M484 1062v-1015q0 -6 -1 -12t-3 -12q-5 -71 -30.5 -135t-66.5 -118t-95.5 -95.5t-115.5 -66.5q-17 37 -34 76.5t-17 79.5q0 32 12 56.5t29.5 46.5t36 44.5t30.5 51.5q9 22 14 46t5 47v1006h236zM381 1339q-6 6 -9.5 14.5t-5.5 13.5q-3 -5 -7 -13t-9 -15l-26 -32 q-14 -17 -29.5 -36.5t-32.5 -36.5q-24 -27 -56.5 -36t-81.5 -9h-82q65 95 107 157.5t66 92.5q17 28 51.5 42t82.5 14h33q43 0 72.5 -10.5t49.5 -32.5q10 -8 27.5 -31t40.5 -58t52.5 -79t64.5 -95h-82q-40 0 -73 6q-24 5 -45 21t-40 37t-36 44t-32 42z" glyph-name="jcircumflex" horiz-adv-x="573" unicode="ĵ"/><glyph d="M624 -171h98q40 0 61 -22t21 -58v-10t-1 -9l-21 -130q-5 -36 -31 -58t-63 -22h-64v309zM1011 1369q30 46 76 72q47 26 107 26h181l-501 -681q-12 -16 -24 -23t-15 -8l15 -10t24 -23l535 -722h-181q-120 0 -185 97l-440 594q-13 17 -26 29t-25 19q-11 7 -19 11t-9 5 q1 0 9 3t19 10t25 19q13 12 26 31zM433 0h-235v1467h235v-1467z" glyph-name="Kcommaaccent" horiz-adv-x="1427" unicode="Ķ"/><glyph d="M507 -171h98q40 0 61 -22t21 -58v-10t-1 -9l-20 -130q-5 -36 -32 -58q-26 -22 -63 -22h-64v309zM391 0h-235v1467h235v-1467zM802 977q30 46 77 72t106 26h181l-359 -488q-11 -16 -24 -24t-16 -9q3 -1 16 -9t24 -23l387 -522h-181q-61 0 -107 25t-78 72l-291 393 q-13 17 -27 30q-13 12 -25 19q-11 7 -19 10q-8 4 -8 5q1 0 8 3q8 3 19 10t25 20q13 12 27 30z" glyph-name="kcommaaccent" horiz-adv-x="1193" unicode="ķ"/><glyph d="M392 0h-236v1075h236v-1075zM802 977q30 46 77.5 72t106.5 26h181l-359 -488q-12 -16 -24.5 -24t-15.5 -9q3 -1 15.5 -8.5t24.5 -23.5l386 -522h-180q-61 0 -107 24.5t-79 72.5l-291 393q-13 17 -26.5 29t-25 19.5t-19 11t-8.5 4.5q1 0 8.5 3t19 10t24.5 19.5t27 30.5z " glyph-name="kgreenlandic" horiz-adv-x="1193" unicode="ĸ"/><glyph d="M565 1632q-39 -51 -132 -51h-105q67 113 98 165q32 52 39 59q39 51 131 52h152zM178 0v1467h236v-1237h620v-230h-856z" glyph-name="Lacute" horiz-adv-x="1076" unicode="Ĺ"/><glyph d="M413 1667q-39 -51 -131 -51h-106q75 132 111 194t42 69q37 50 131 50h151zM406 1467v-1467h-236v1467h236z" glyph-name="lacute" horiz-adv-x="575" unicode="ĺ"/><glyph d="M447 -171h99q40 0 61 -22t21 -58v-10t-1 -9l-21 -130q-5 -36 -31 -58t-63 -22h-65v309zM178 0v1467h236v-1237h620v-230h-856z" glyph-name="Lcommaaccent" horiz-adv-x="1076" unicode="Ļ"/><glyph d="M198 -171h98q40 0 61 -22t21 -58v-10t-1 -9l-21 -130q-5 -36 -31 -58t-63 -22h-64v309zM406 1467v-1467h-236v1467h236z" glyph-name="lcommaaccent" horiz-adv-x="575" unicode="ļ"/><glyph d="M584 1490h98q40 0 61 -22t21 -58v-10t-1 -9l-21 -130q-5 -36 -31 -58t-63 -22h-64v309zM178 0v1467h236v-1237h620v-230h-856z" glyph-name="Lcaron" horiz-adv-x="1076" unicode="Ľ"/><glyph d="M583 1478h98q40 0 61 -22t21 -58v-10t-1 -10l-21 -130q-5 -36 -31 -58q-27 -22 -63 -22h-64v310zM406 1467v-1467h-236v1467h236z" glyph-name="lcaron" horiz-adv-x="1049" unicode="ľ"/><glyph d="M485 609q0 32 13 60q12 28 32 49q20 20 49 33q28 12 61 12q32 0 60 -12q29 -12 50 -33q21 -20 33 -49q12 -28 13 -60q0 -33 -13 -61q-12 -28 -33 -48t-50 -33q-29 -12 -60 -12q-33 0 -61 12t-49 33q-20 20 -32 48q-13 28 -13 61zM178 0v1467h236v-1237h620v-230h-856z " glyph-name="Ldot" horiz-adv-x="1076" unicode="Ŀ"/><glyph d="M551 609q0 32 12 60t33 49q20 20 49 33q28 12 61 12q32 0 60 -12q29 -12 50 -33q21 -20 33 -49q12 -28 12 -60q0 -33 -12 -61t-33 -48t-50 -33q-29 -12 -60 -12q-33 0 -61 12t-49 33q-20 20 -33 48q-12 28 -12 61zM406 1467v-1467h-236v1467h236z" glyph-name="ldot" horiz-adv-x="1170" unicode="ŀ"/><glyph d="M178 0v509l-271 -198v87q0 31 13 63t46 55l212 155v796h236v-630l330 241v-108q0 -36 -12.5 -54t-42.5 -39l-275 -201v-446h620v-230h-856z" glyph-name="Lslash" horiz-adv-x="1076" unicode="Ł"/><glyph d="M142 377q-26 -34 -59.5 -49t-67.5 -15h-90l494 671q11 15 21 26t20.5 18t24 10t31.5 3h116zM406 1467v-1467h-236v1467h236z" glyph-name="lslash" horiz-adv-x="575" unicode="ł"/><glyph d="M842 1632q-39 -51 -132 -51h-106q67 113 99 165t38 59q39 51 131 52h152zM1450 0h-207l-770 1062q-10 14 -19 32q-9 17 -16 33t-13 31q-6 14 -9 20v-1178h-236v1467h191q49 0 86 -14t58 -44q19 -27 54 -75q34 -48 78 -110t95 -133t104 -144t104 -144t96 -133 q44 -62 78 -110t54 -75q15 -23 24 -51q9 -29 12 -53v1086h236v-1467z" glyph-name="Nacute" horiz-adv-x="1629" unicode="Ń"/><glyph d="M624 1240q-39 -51 -131 -51h-106q75 132 111 194t42 69q37 50 131 50h151zM345 1075q0 -1 10 -16t13 -40q2 -11 4 -24t4 -27q22 31 53 53q31 23 69 38t81 23q42 8 86 8q92 0 167 -34t129 -97t83 -152q30 -89 30 -199v-608h-236v605q0 56 -10 104q-10 47 -31 80 q-22 33 -56 52q-34 18 -81 18q-53 0 -101 -12q-49 -12 -86 -31q-37 -20 -61 -49q-24 -28 -27 -59v-708h-235v1075h195z" glyph-name="nacute" unicode="ń"/><glyph d="M724 -171h98q40 0 61 -22t21 -58v-10t-1 -9l-20 -130q-5 -36 -32 -58q-26 -22 -63 -22h-64v309zM1450 0h-207l-770 1062q-10 14 -19 32q-9 17 -16 33t-13 31q-6 14 -9 20v-1178h-236v1467h191q49 0 86 -14t58 -44q19 -27 54 -75q34 -48 78 -110t95 -133t104 -144 t104 -144t96 -133q44 -62 78 -110t54 -75q15 -23 24 -51q9 -29 12 -53v1086h236v-1467z" glyph-name="Ncommaaccent" horiz-adv-x="1629" unicode="Ņ"/><glyph d="M513 -171h98q40 0 61 -22t21 -58v-10t-1 -9l-20 -130q-5 -36 -31 -58t-63 -22h-65v309zM345 1075q0 -1 10 -16t13 -40q2 -11 4 -24t4 -27q22 31 53 53q31 23 69 38t81 23q42 8 86 8q92 0 167 -34t129 -97t83 -152q30 -89 30 -199v-608h-236v605q0 56 -10 104 q-10 47 -31 80q-22 33 -56 52q-34 18 -81 18q-53 0 -101 -12q-49 -12 -86 -31q-37 -20 -61 -49q-24 -28 -27 -59v-708h-235v1075h195z" glyph-name="ncommaaccent" unicode="ņ"/><glyph d="M581 1905q14 0 28 -1t27 -3q28 -4 50 -20q23 -16 42 -38t37 -45q17 -24 34 -45q5 -8 8 -16q4 -8 7 -12q5 8 11 18t13 19q22 29 40 55q19 26 42 45t52 31q30 12 76 12h90q-67 -99 -110 -162q-43 -62 -63 -89q-20 -28 -53 -42q-32 -14 -82 -15h-31q-30 0 -52 5t-39 14 t-30 23t-26 31q-27 38 -66 96q-40 58 -94 139h89zM1450 0h-207l-770 1062q-10 14 -19 32q-9 17 -16 33t-13 31q-6 14 -9 20v-1178h-236v1467h191q49 0 86 -14t58 -44q19 -27 54 -75q34 -48 78 -110t95 -133t104 -144t104 -144t96 -133q44 -62 78 -110t54 -75q15 -23 24 -51 q9 -29 12 -53v1086h236v-1467z" glyph-name="Ncaron" horiz-adv-x="1629" unicode="Ň"/><glyph d="M371 1495q14 0 28 -1t27 -3q28 -4 50 -20q23 -16 42 -37q19 -22 37 -46q17 -24 34 -45q5 -8 9 -16t6 -11q5 8 11 18t13 19q22 29 40 54q19 26 42 45t52 31q30 12 76 12h90q-67 -99 -110 -162q-43 -62 -63 -89q-20 -28 -53 -42q-32 -14 -81 -14h-32q-30 0 -52 4 q-22 5 -39 14t-30 23t-26 32q-27 38 -66 96q-40 58 -94 138h89zM345 1075q0 -1 10 -16t13 -40q2 -11 4 -24t4 -27q22 31 53 53q31 23 69 38t81 23q42 8 86 8q92 0 167 -34t129 -97t83 -152q30 -89 30 -199v-608h-236v605q0 56 -10 104q-10 47 -31 80q-22 33 -56 52 q-34 18 -81 18q-53 0 -101 -12q-49 -12 -86 -31q-37 -20 -61 -49q-24 -28 -27 -59v-708h-235v1075h195z" glyph-name="ncaron" unicode="ň"/><glyph d="M150 -525h98q40 0 61 -22t21 -58v-10t-1 -10l-21 -130q-5 -36 -31 -58t-63 -22h-64v310zM345 1075q0 -1 10 -16t13 -40q2 -11 4 -24t4 -27q22 31 53 53q31 23 69 38t81 23q42 8 86 8q92 0 167 -34t129 -97t83 -152q30 -89 30 -199v-608h-236v605q0 56 -10 104 q-10 47 -31 80q-22 33 -56 52q-34 18 -81 18q-53 0 -101 -12q-49 -12 -86 -31q-37 -20 -61 -49q-24 -28 -27 -59v-708h-235v1075h195z" glyph-name="napostrophe" horiz-adv-x="1209" unicode="ŉ"/><glyph d="M1214 1467h236v-1311q0 -106 -32 -197.5t-95 -158t-158 -104.5t-221 -38q-99 0 -188 34.5t-161 103.5l70 70q52 51 123 51q20 0 38 -5t35.5 -11.5t37.5 -12t45 -5.5q106 0 170 49t87 125l-728 1005q-10 14 -19 31.5t-16 34t-12.5 30t-9.5 20.5v-1178h-236v1467h191 q49 0 86 -14t58 -44q19 -27 53.5 -75t78.5 -110t95.5 -133t104 -144t103.5 -144t95.5 -133t78.5 -110t54 -75q15 -23 24 -52t12 -52v1086z" glyph-name="Eng" horiz-adv-x="1629" unicode="Ŋ"/><glyph d="M345 1075q0 -1 10.5 -16.5t12.5 -39.5q2 -11 4 -24t4 -27q22 31 53 53t69.5 37.5t81 23.5t85.5 8q92 0 167 -34t129 -97t83.5 -151.5t29.5 -199.5v-561q0 -74 -25 -142t-68 -125.5t-100 -101.5t-119 -70q-17 37 -34 76.5t-17 79.5q0 32 12 56.5t29.5 46.5t36 44.5 t30.5 51.5q8 19 13 41t6 43v558q0 56 -10 103.5t-31.5 80.5t-55 51.5t-81.5 18.5q-53 0 -101.5 -11.5t-86 -31.5t-61 -48.5t-26.5 -59.5v-708h-235v1075h195z" glyph-name="eng" unicode="ŋ"/><glyph d="M552 1766h585v-188h-585v188zM94 734q0 103 27 199t76 179t117 152q69 69 152 117q83 49 179 75q96 27 200 27q103 0 199 -27t179 -75q83 -49 152 -117q69 -69 118 -152t76 -179t26 -199q0 -103 -26 -199q-27 -96 -76 -179t-118 -152q-69 -68 -152 -117t-179 -76 t-199 -26q-156 0 -293 59t-238 160q-102 102 -161 238t-59 292zM330 734q0 -106 40 -200t111 -163q70 -70 164 -110t200 -41q105 0 199 41q94 40 164 110t110 163q40 94 41 200q0 105 -41 199q-40 94 -110 164t-164 110t-199 40q-106 0 -200 -40t-164 -110t-111 -164 q-40 -94 -40 -199z" glyph-name="Omacron" horiz-adv-x="1689" unicode="Ō"/><glyph d="M335 1417h585v-188h-585v188zM74 538q0 114 43 214q44 101 119 176t176 119t215 44t214 -44q101 -44 176 -119t119 -176t44 -214q0 -114 -44 -215t-119 -176t-176 -119t-214 -43q-114 0 -215 43q-101 44 -176 119t-119 176q-43 101 -43 215zM305 537q0 -67 25 -125 t69 -101q44 -44 102 -69t125 -25q66 0 124 25t102 69t69 101q25 58 25 125t-25 125t-69 101q-44 44 -102 69t-124 25q-67 0 -125 -25t-102 -69t-69 -101q-25 -58 -25 -125z" glyph-name="omacron" horiz-adv-x="1255" unicode="ō"/><glyph d="M1147 1835q0 -65 -25 -117q-25 -53 -66 -91q-42 -38 -97 -60q-55 -21 -115 -21t-115 21q-54 21 -96 60q-42 38 -67 91t-24 117h60q34 0 63 -16t43 -43q20 -34 55 -51q35 -16 81 -16t81 16t55 51q15 29 43 44t63 15h61zM94 734q0 103 27 199t76 179t117 152q69 69 152 117 q83 49 179 75q96 27 200 27q103 0 199 -27t179 -75q83 -49 152 -117q69 -69 118 -152t76 -179t26 -199q0 -103 -26 -199q-27 -96 -76 -179t-118 -152q-69 -68 -152 -117t-179 -76t-199 -26q-156 0 -293 59t-238 160q-102 102 -161 238t-59 292zM330 734q0 -106 40 -200 t111 -163q70 -70 164 -110t200 -41q105 0 199 41q94 40 164 110t110 163q40 94 41 200q0 105 -41 199q-40 94 -110 164t-164 110t-199 40q-106 0 -200 -40t-164 -110t-111 -164q-40 -94 -40 -199z" glyph-name="Obreve" horiz-adv-x="1689" unicode="Ŏ"/><glyph d="M930 1458q0 -65 -25 -119t-66 -93q-42 -39 -97 -62t-114 -23q-60 0 -115 23t-97 62q-41 39 -66 93t-25 119h60q34 0 63 -16t44 -44q20 -33 58 -52t78 -19q39 0 77 19q38 18 58 52q16 30 44 45t62 15h61zM74 538q0 114 43 214q44 101 119 176t176 119t215 44t214 -44 q101 -44 176 -119t119 -176t44 -214q0 -114 -44 -215t-119 -176t-176 -119t-214 -43q-114 0 -215 43q-101 44 -176 119t-119 176q-43 101 -43 215zM305 537q0 -67 25 -125t69 -101q44 -44 102 -69t125 -25q66 0 124 25t102 69t69 101q25 58 25 125t-25 125t-69 101 q-44 44 -102 69t-124 25q-67 0 -125 -25t-102 -69t-69 -101q-25 -58 -25 -125z" glyph-name="obreve" horiz-adv-x="1255" unicode="ŏ"/><glyph d="M988 1647q-23 -28 -59 -38t-94 -11h-78l187 265q22 30 61 39q39 10 98 10h116zM691 1650q-23 -30 -60 -41q-38 -11 -95 -11h-66q74 132 110 195q36 62 43 69q23 30 63 40q41 10 99 10h104zM94 734q0 103 27 199t76 179t117 152q69 69 152 117q83 49 179 75q96 27 200 27 q103 0 199 -27t179 -75q83 -49 152 -117q69 -69 118 -152t76 -179t26 -199q0 -103 -26 -199q-27 -96 -76 -179t-118 -152q-69 -68 -152 -117t-179 -76t-199 -26q-156 0 -293 59t-238 160q-102 102 -161 238t-59 292zM330 734q0 -106 40 -200t111 -163q70 -70 164 -110 t200 -41q105 0 199 41q94 40 164 110t110 163q40 94 41 200q0 105 -41 199q-40 94 -110 164t-164 110t-199 40q-106 0 -200 -40t-164 -110t-111 -164q-40 -94 -40 -199z" glyph-name="Ohungarumlaut" horiz-adv-x="1689" unicode="Ő"/><glyph d="M771 1237q-23 -28 -59 -38t-95 -10h-77l187 264q22 30 60 39q39 10 99 10h115zM474 1240q-23 -30 -60 -40q-38 -11 -96 -11h-65q74 132 110 194t43 69q23 30 63 40q41 10 99 10h104zM74 538q0 114 43 214q44 101 119 176t176 119t215 44t214 -44q101 -44 176 -119 t119 -176t44 -214q0 -114 -44 -215t-119 -176t-176 -119t-214 -43q-114 0 -215 43q-101 44 -176 119t-119 176q-43 101 -43 215zM305 537q0 -67 25 -125t69 -101q44 -44 102 -69t125 -25q66 0 124 25t102 69t69 101q25 58 25 125t-25 125t-69 101q-44 44 -102 69t-124 25 q-67 0 -125 -25t-102 -69t-69 -101q-25 -58 -25 -125z" glyph-name="ohungarumlaut" horiz-adv-x="1255" unicode="ő"/><glyph d="M85 734q0 103 26.5 199t76 179t118 151.5t152 117.5t179 75.5t199.5 26.5q39 0 77.5 -4t75.5 -12h1129v-236h-725q71 -76 118.5 -170.5t63.5 -202.5h412v-236h-409q-16 -113 -64.5 -210.5t-121.5 -175.5h726v-236h-1133q-73 -15 -149 -15q-156 0 -292 58.5t-238.5 160.5 t-161.5 238t-59 292zM324 734q0 -106 40 -200t109.5 -163.5t162.5 -110t200 -40.5q105 0 198.5 40.5t163 110t110 163.5t40.5 200q0 105 -40.5 199t-110 163.5t-163 110t-198.5 40.5q-106 0 -199.5 -40.5t-163 -110t-109.5 -163.5t-40 -199z" glyph-name="OE" horiz-adv-x="2244" unicode="Œ"/><glyph d="M74 538q0 114 43.5 214.5t118.5 176t176 119t215 43.5q65 0 137 -19t136.5 -53.5t113.5 -83.5t67 -110q1 7 5.5 17.5t9.5 20t10.5 19t10.5 15.5q77 89 185 141t234 52q94 0 186 -34t166.5 -93.5t124.5 -140t62 -173.5q2 -6 1.5 -12t0.5 -11q0 -39 -15.5 -69.5 t-38.5 -50.5t-50.5 -30t-52.5 -10h-693q7 -47 33 -93t66.5 -83t94 -59.5t115.5 -22.5q43 0 83 10.5t75 30.5q41 24 90 23q29 0 49.5 -7.5t39.5 -21.5t38 -32t43 -41q-82 -88 -189.5 -136t-228.5 -48q-132 0 -244.5 56.5t-189.5 153.5q-2 2 -10.5 16.5t-10.5 34.5 q-2 -20 -10.5 -34.5t-10.5 -16.5q-77 -97 -189 -154t-244 -57q-114 0 -215 43.5t-176 118.5t-118.5 176t-43.5 215zM305 537q0 -67 25 -125t69 -101.5t102 -68.5t125 -25q62 0 118 22.5t99 62.5t70 93.5t32 114.5q0 7 -0.5 13t-0.5 14q0 7 0.5 13.5t0.5 12.5q-5 61 -32 115 t-70 93.5t-99 62.5t-118 23q-67 0 -125 -25t-102 -68.5t-69 -101.5t-25 -125zM1830 679q-15 36 -42.5 69.5t-64.5 60t-84 42t-100 15.5q-59 0 -110 -18.5t-90 -48.5t-66 -69.5t-39 -80.5q6 8 21.5 19t39.5 11h535z" glyph-name="oe" horiz-adv-x="2148" unicode="œ"/><glyph d="M705 1632q-39 -51 -133 -51h-105q67 113 99 165t38 59q39 51 131 52h152zM433 0h-235v1467h532q91 0 171 -34t140 -94q60 -59 94 -139t34 -170q0 -70 -21 -132q-21 -63 -58 -116t-89 -93q-51 -40 -112 -63l464 -626h-175q-65 0 -114 25t-79 72q-6 10 -34 48t-66 91 q-39 52 -83 111t-83 110q-39 52 -67 90t-36 47h-183v-594zM433 1231v-402h300q41 0 78 16t63 43q27 27 43 64q16 36 16 78q0 41 -16 78t-43 64t-63 43q-37 16 -78 16h-300z" glyph-name="Racute" horiz-adv-x="1353" unicode="Ŕ"/><glyph d="M418 1240q-39 -51 -131 -51h-106q75 132 111 194t42 69q37 50 131 50h151zM332 1075q0 -1 4 -6q5 -6 10 -16t9 -22q5 -13 4 -29q1 -16 1 -31v-30q19 31 51 58q31 27 69 47t81 32q42 12 86 12q43 0 88 -10t86 -26q-5 -25 -9 -50l-8 -50q-11 -48 -46 -75t-82 -27h-5h-3 q-2 1 -8 1h-15q-60 0 -110 -17t-88 -44q-37 -28 -57 -63q-21 -35 -22 -73v-656h-236v1075h200z" glyph-name="racute" horiz-adv-x="798" unicode="ŕ"/><glyph d="M587 -171h98q40 0 61 -22t21 -58v-10t-1 -9l-21 -130q-5 -36 -31 -58t-63 -22h-64v309zM433 0h-235v1467h532q91 0 171 -34t140 -94q60 -59 94 -139t34 -170q0 -70 -21 -132q-21 -63 -58 -116t-89 -93q-51 -40 -112 -63l464 -626h-175q-65 0 -114 25t-79 72q-6 10 -34 48 t-66 91q-39 52 -83 111t-83 110q-39 52 -67 90t-36 47h-183v-594zM433 1231v-402h300q41 0 78 16t63 43q27 27 43 64q16 36 16 78q0 41 -16 78t-43 64t-63 43q-37 16 -78 16h-300z" glyph-name="Rcommaaccent" horiz-adv-x="1353" unicode="Ŗ"/><glyph d="M168 -171h98q40 0 61 -22t21 -58v-10t-1 -9l-20 -130q-5 -36 -32 -58q-26 -22 -63 -22h-64v309zM332 1075q0 -1 4 -6q5 -6 10 -16t9 -22q5 -13 4 -29q1 -16 1 -31v-30q19 31 51 58q31 27 69 47t81 32q42 12 86 12q43 0 88 -10t86 -26q-5 -25 -9 -50l-8 -50 q-11 -48 -46 -75t-82 -27h-5h-3q-2 1 -8 1h-15q-60 0 -110 -17t-88 -44q-37 -28 -57 -63q-21 -35 -22 -73v-656h-236v1075h200z" glyph-name="rcommaaccent" horiz-adv-x="798" unicode="ŗ"/><glyph d="M442 1905q14 0 29 -1q14 -1 27 -3q28 -4 50 -20q23 -16 42 -38t37 -45q17 -24 33 -45q5 -8 9 -16t7 -12q5 8 11 18t12 19q22 29 41 55t41 45q23 19 53 31t75 12h90q-67 -99 -109 -162q-43 -62 -64 -89q-20 -28 -52 -42t-82 -15h-32q-30 0 -51 5q-22 5 -39 14t-30 23 t-26 31q-27 38 -67 96t-94 139h89zM433 0h-235v1467h532q91 0 171 -34t140 -94q60 -59 94 -139t34 -170q0 -70 -21 -132q-21 -63 -58 -116t-89 -93q-51 -40 -112 -63l464 -626h-175q-65 0 -114 25t-79 72q-6 10 -34 48t-66 91q-39 52 -83 111t-83 110q-39 52 -67 90t-36 47 h-183v-594zM433 1231v-402h300q41 0 78 16t63 43q27 27 43 64q16 36 16 78q0 41 -16 78t-43 64t-63 43q-37 16 -78 16h-300z" glyph-name="Rcaron" horiz-adv-x="1353" unicode="Ř"/><glyph d="M221 1495q14 0 28 -1t27 -3q28 -4 51 -20t42 -37q19 -22 37 -46q17 -24 33 -45q5 -8 9 -16t7 -11q5 8 10 18q6 10 13 19q22 29 41 54q19 26 41 45q23 19 53 31t75 12h90q-67 -99 -109 -162q-43 -62 -64 -89q-20 -28 -53 -42q-32 -14 -81 -14h-32q-30 0 -51 4 q-22 5 -39 14t-31 23q-13 14 -25 32q-27 38 -67 96t-94 138h89zM388 1075q0 -1 5 -6q5 -6 9 -16q5 -10 9 -22q5 -13 5 -29q1 -16 1 -31v-30q19 31 50 58t70 47q38 20 80 32t86 12q43 0 89 -10q45 -10 86 -26l-10 -50l-8 -50q-11 -48 -46 -75t-82 -27h-5h-3q-2 1 -7 1h-16 q-60 0 -110 -17t-87 -44q-37 -28 -58 -63t-22 -73v-656h-236v1075h200z" glyph-name="rcaron" horiz-adv-x="798" unicode="ř"/><glyph d="M586 1632q-39 -51 -132 -51h-106q67 113 99 165t38 59q39 51 131 52h152zM571 1246q-42 0 -80 -11t-68 -31q-29 -20 -46 -48t-17 -62q0 -48 19 -77q18 -29 59 -51q41 -23 105 -45q64 -23 155 -58q81 -30 146 -69t109 -91q45 -52 68 -116q24 -65 23 -143q0 -101 -42 -185 t-113 -146q-71 -61 -163 -94q-93 -33 -195 -33q-104 0 -192 33t-157 98q-49 45 -78 91q-29 47 -44 79q19 9 37 19q17 10 35 18q17 8 36 13q18 5 40 5q32 0 64 -11t56 -31l8 -6q41 -31 87 -52q47 -22 108 -22q46 0 95 14t90 44q41 29 67 70q26 42 26 96q0 53 -25 88t-65 60 t-90 42q-50 18 -100 38q-76 30 -148 62q-73 32 -130 79t-92 113q-35 67 -35 168q0 92 38 164q38 73 101 123q62 50 143 76q80 26 165 26q62 0 123 -21q60 -21 112 -53q53 -32 97 -73q44 -40 74 -76l-52 -40q-27 -24 -60 -36t-64 -12q-35 0 -63 14q-47 22 -86 41 q-40 19 -81 19z" glyph-name="Sacute" horiz-adv-x="1117" unicode="Ś"/><glyph d="M463 1240q-39 -51 -131 -51h-106q75 132 111 194t42 69q37 50 131 50h152zM62 222q19 9 39 20q19 10 38 19t40 15q20 6 41 7q26 1 49 -11q24 -11 55 -32q22 -15 48 -25q27 -10 57 -10q26 0 52 8q27 8 48 25q22 16 35 40t14 54q0 25 -8 42t-27 32t-51 29t-81 31 q-57 19 -113 45q-55 26 -99 62q-44 37 -70 90q-27 52 -27 125q0 65 30 120q29 55 76 95q48 40 109 63t124 24q65 0 119 -24t94 -53q40 -30 64 -57t30 -34q-23 -20 -41 -37q-18 -16 -37 -29q-18 -12 -37 -19t-43 -7q-16 0 -32 7q-16 6 -34 13q-17 8 -36 15t-42 6 q-28 0 -49 -9q-22 -9 -38 -22q-15 -13 -23 -29q-8 -15 -7 -27q0 -26 13 -43q13 -18 34 -31t48 -22t53 -17q65 -19 124 -45q59 -25 105 -63t73 -93t27 -134q0 -71 -28 -134t-78 -112q-50 -48 -118 -76q-69 -28 -152 -28q-56 0 -111 16q-54 16 -101 47q-48 30 -88 74t-68 99z " glyph-name="sacute" horiz-adv-x="887" unicode="ś"/><glyph d="M573 1680q-6 7 -9 16q-4 8 -6 13q-3 -5 -7 -13t-8 -15l-32 -32q-26 -27 -46 -46t-41 -33q-21 -13 -46 -19q-26 -6 -62 -6h-82l177 233q18 27 51 39t80 12h32q91 0 131 -51q44 -58 88 -117q44 -58 89 -116h-82q-45 0 -77 11t-57 31q-25 19 -46 43q-22 23 -47 50zM571 1246 q-42 0 -80 -11t-68 -31q-29 -20 -46 -48t-17 -62q0 -48 19 -77q18 -29 59 -51q41 -23 105 -45q64 -23 155 -58q81 -30 146 -69t109 -91q45 -52 68 -116q24 -65 23 -143q0 -101 -42 -185t-113 -146q-71 -61 -163 -94q-93 -33 -195 -33q-104 0 -192 33t-157 98q-49 45 -78 91 q-29 47 -44 79q19 9 37 19q17 10 35 18q17 8 36 13q18 5 40 5q32 0 64 -11t56 -31l8 -6q41 -31 87 -52q47 -22 108 -22q46 0 95 14t90 44q41 29 67 70q26 42 26 96q0 53 -25 88t-65 60t-90 42q-50 18 -100 38q-76 30 -148 62q-73 32 -130 79t-92 113q-35 67 -35 168 q0 92 38 164q38 73 101 123q62 50 143 76q80 26 165 26q62 0 123 -21q60 -21 112 -53q53 -32 97 -73q44 -40 74 -76l-52 -40q-27 -24 -60 -36t-64 -12q-35 0 -63 14q-47 22 -86 41q-40 19 -81 19z" glyph-name="Scircumflex" horiz-adv-x="1117" unicode="Ŝ"/><glyph d="M459 1339q-6 6 -10 15q-4 8 -6 13q-3 -5 -6 -13q-4 -8 -9 -15l-27 -32q-14 -17 -29 -37q-15 -19 -32 -36q-24 -27 -56 -36q-33 -9 -82 -9h-82q65 95 107 158q42 62 66 92q17 28 52 42q34 14 82 14h33q43 0 72 -11q30 -11 50 -32q10 -8 27 -31t41 -58q23 -35 52 -79 q30 -44 65 -95h-82q-40 0 -74 6q-24 5 -44 21q-21 16 -40 37t-36 44t-32 42zM62 222q19 9 39 20q19 10 38 19t40 15q20 6 41 7q26 1 49 -11q24 -11 55 -32q22 -15 48 -25q27 -10 57 -10q26 0 52 8q27 8 48 25q22 16 35 40t14 54q0 25 -8 42t-27 32t-51 29t-81 31 q-57 19 -113 45q-55 26 -99 62q-44 37 -70 90q-27 52 -27 125q0 65 30 120q29 55 76 95q48 40 109 63t124 24q65 0 119 -24t94 -53q40 -30 64 -57t30 -34q-23 -20 -41 -37q-18 -16 -37 -29q-18 -12 -37 -19t-43 -7q-16 0 -32 7q-16 6 -34 13q-17 8 -36 15t-42 6 q-28 0 -49 -9q-22 -9 -38 -22q-15 -13 -23 -29q-8 -15 -7 -27q0 -26 13 -43q13 -18 34 -31t48 -22t53 -17q65 -19 124 -45q59 -25 105 -63t73 -93t27 -134q0 -71 -28 -134t-78 -112q-50 -48 -118 -76q-69 -28 -152 -28q-56 0 -111 16q-54 16 -101 47q-48 30 -88 74t-68 99z " glyph-name="scircumflex" horiz-adv-x="887" unicode="ŝ"/><glyph d="M421 10h127l-1 -79q41 -4 77 -18t62 -34q26 -21 41 -48t14 -57q0 -33 -17 -63t-48 -51q-31 -22 -73 -35t-94 -13q-26 0 -50 7t-42 15q-22 10 -41 24v93q20 -9 43 -16q19 -6 43 -11t49 -6q33 0 56 15t23 36q0 24 -24 38q-24 15 -57 16q-7 0 -15 -1t-19 0q-24 0 -39 10 t-15 49v129zM571 1246q41 0 81 -19q39 -19 86 -41q28 -13 63 -14q31 0 64 12t60 36l52 40q-30 37 -74 76q-44 40 -97 73q-53 32 -112 53q-60 21 -123 21q-85 0 -165 -26t-143 -76q-62 -50 -101 -123q-38 -73 -38 -164q0 -100 35 -168q35 -67 92 -113q57 -47 130 -79t148 -62 l100 -38q50 -18 90 -42q40 -25 65 -60t25 -88q0 -54 -26 -96t-67 -70q-41 -29 -90 -44q-49 -14 -95 -14q-61 0 -108 22t-87 52l-8 6q-24 19 -56 31q-32 11 -64 11q-22 0 -40 -5t-36 -13q-17 -8 -35 -18q-17 -10 -37 -19q14 -32 44 -79q29 -47 78 -91q70 -65 157 -98 q88 -33 192 -33q101 0 195 33q93 33 163 94q71 61 113 146q42 84 42 185q0 78 -23 143q-24 65 -68 116q-45 52 -109 91q-65 39 -146 69q-91 35 -155 58t-105 45q-41 23 -59 51q-18 29 -19 77q0 34 17 62t46 48t68 31q38 11 80 11z" glyph-name="Scedilla" horiz-adv-x="1117" unicode="Ş"/><glyph d="M306 10h127l-1 -79q41 -4 77 -18t62 -34q26 -21 41 -48t15 -57q0 -33 -18 -63q-17 -30 -48 -51q-31 -22 -73 -35t-94 -13q-26 0 -49 7q-24 7 -43 15q-22 10 -41 24v93q20 -9 43 -16q19 -6 44 -11q24 -5 48 -6q33 0 56 15t23 36q0 24 -24 38q-24 15 -57 16q-7 0 -15 -1 t-19 0q-24 0 -38 10q-15 10 -16 49v129zM62 222q28 -55 68 -99t88 -74t101 -47q54 -16 111 -16q83 0 152 28t118 76q50 48 78 112q28 63 28 134q0 79 -27 134t-73 93t-105 63t-124 45q-27 8 -53 17q-27 9 -48 22t-34 31t-13 43q0 11 7 27q8 15 23 29q15 13 38 22q22 9 49 9 q23 0 42 -6q19 -7 36 -15t34 -13q16 -6 32 -7q24 0 43 7t37 19t37 29q18 16 41 37q-5 7 -30 34q-24 27 -64 57t-94 53q-54 24 -119 24q-63 0 -124 -24q-61 -23 -109 -63t-76 -95q-29 -55 -30 -120q0 -74 27 -125q27 -52 70 -90q44 -37 99 -62q55 -26 113 -45q49 -17 81 -31 t51 -29t27 -32t8 -42q0 -31 -14 -54q-13 -24 -35 -40t-48 -25q-27 -8 -52 -8q-30 0 -57 10t-48 25q-31 22 -55 32q-24 11 -49 11q-22 0 -41 -7q-20 -6 -40 -15q-19 -9 -38 -19q-20 -11 -39 -20z" glyph-name="scedilla" horiz-adv-x="887" unicode="ş"/><glyph d="M325 1905q14 0 28 -1t27 -3q28 -4 50 -20q23 -16 42 -38t37 -45q17 -24 34 -45q5 -8 8 -16q4 -8 7 -12q5 8 11 18t13 19q22 29 40 55q19 26 42 45t52 31q30 12 76 12h90q-67 -99 -110 -162q-43 -62 -63 -89q-20 -28 -53 -42q-32 -14 -82 -15h-31q-30 0 -52 5t-39 14 t-30 23t-26 31q-27 38 -66 96q-40 58 -94 139h89zM571 1246q-42 0 -80 -11t-68 -31q-29 -20 -46 -48t-17 -62q0 -48 19 -77q18 -29 59 -51q41 -23 105 -45q64 -23 155 -58q81 -30 146 -69t109 -91q45 -52 68 -116q24 -65 23 -143q0 -101 -42 -185t-113 -146 q-71 -61 -163 -94q-93 -33 -195 -33q-104 0 -192 33t-157 98q-49 45 -78 91q-29 47 -44 79q19 9 37 19q17 10 35 18q17 8 36 13q18 5 40 5q32 0 64 -11t56 -31l8 -6q41 -31 87 -52q47 -22 108 -22q46 0 95 14t90 44q41 29 67 70q26 42 26 96q0 53 -25 88t-65 60t-90 42 q-50 18 -100 38q-76 30 -148 62q-73 32 -130 79t-92 113q-35 67 -35 168q0 92 38 164q38 73 101 123q62 50 143 76q80 26 165 26q62 0 123 -21q60 -21 112 -53q53 -32 97 -73q44 -40 74 -76l-52 -40q-27 -24 -60 -36t-64 -12q-35 0 -63 14q-47 22 -86 41q-40 19 -81 19z" glyph-name="Scaron" horiz-adv-x="1117" unicode="Š"/><glyph d="M210 1495q14 0 28 -1t27 -3q28 -4 50 -20q23 -16 42 -37q19 -22 37 -46q17 -24 34 -45q5 -8 9 -16t6 -11q5 8 11 18t13 19q22 29 40 54q19 26 42 45t53 31t75 12h90q-67 -99 -110 -162q-43 -62 -63 -89q-20 -28 -53 -42q-32 -14 -81 -14h-32q-30 0 -52 4q-22 5 -39 14 t-30 23t-25 32q-27 38 -67 96t-94 138h89zM62 222q19 9 39 20q19 10 38 19t40 15q20 6 41 7q26 1 49 -11q24 -11 55 -32q22 -15 48 -25q27 -10 57 -10q26 0 52 8q27 8 48 25q22 16 35 40t14 54q0 25 -8 42t-27 32t-51 29t-81 31q-57 19 -113 45q-55 26 -99 62q-44 37 -70 90 q-27 52 -27 125q0 65 30 120q29 55 76 95q48 40 109 63t124 24q65 0 119 -24t94 -53q40 -30 64 -57t30 -34q-23 -20 -41 -37q-18 -16 -37 -29q-18 -12 -37 -19t-43 -7q-16 0 -32 7q-16 6 -34 13q-17 8 -36 15t-42 6q-28 0 -49 -9q-22 -9 -38 -22q-15 -13 -23 -29 q-8 -15 -7 -27q0 -26 13 -43q13 -18 34 -31t48 -22t53 -17q65 -19 124 -45q59 -25 105 -63t73 -93t27 -134q0 -71 -28 -134t-78 -112q-50 -48 -118 -76q-69 -28 -152 -28q-56 0 -111 16q-54 16 -101 47q-48 30 -88 74t-68 99z" glyph-name="scaron" horiz-adv-x="887" unicode="š"/><glyph d="M501 -171h98q40 0 61 -22t21 -58v-10t-1 -9l-21 -130q-5 -36 -31 -58t-63 -22h-64v309zM28 1237v231h1124v-231h-443v-1237h-236v1237h-445z" glyph-name="Tcommaaccent" horiz-adv-x="1182" unicode="Ţ"/><glyph d="M301 -171h98q40 0 61 -22t21 -58v-10t-1 -9l-20 -130q-5 -36 -31 -58t-63 -22h-65v309zM437 844v-551q0 -32 17 -57t48 -25q24 0 45 6q22 6 40 6q33 0 59 -13q27 -13 48 -31q21 -19 37 -42t28 -41q-22 -22 -56 -41q-34 -20 -71 -36q-38 -15 -76 -24t-67 -9q-67 0 -120 22 q-54 22 -91 61t-57 93t-20 119v563h-173v140q0 26 11 42q12 16 32 26q20 9 47 12q27 4 56 4h27v224q0 35 8 65q9 30 20 51q12 26 29 45h179v-385h287v-224h-287z" glyph-name="tcommaaccent" horiz-adv-x="782" unicode="ţ"/><glyph d="M357 1905q14 0 29 -1q14 -1 27 -3q28 -4 50 -20q23 -16 42 -38t37 -45q17 -24 33 -45q5 -8 9 -16t7 -12q5 8 11 18t12 19q22 29 41 55t41 45q23 19 53 31t75 12h90q-67 -99 -109 -162q-43 -62 -64 -89q-20 -28 -52 -42t-82 -15h-32q-30 0 -51 5q-22 5 -39 14t-30 23 t-26 31q-27 38 -67 96t-94 139h89zM28 1237v231h1124v-231h-443v-1237h-236v1237h-445z" glyph-name="Tcaron" horiz-adv-x="1182" unicode="Ť"/><glyph d="M783 1478h99q40 0 61 -22t21 -58v-10t-1 -10l-21 -130q-5 -36 -32 -58t-62 -22h-65v310zM437 844v-551q0 -32 17 -57t48 -25q24 0 45 6q22 6 40 6q33 0 59 -13q27 -13 48 -31q21 -19 37 -42t28 -41q-22 -22 -56 -41q-34 -20 -71 -36q-38 -15 -76 -24t-67 -9 q-67 0 -120 22q-54 22 -91 61t-57 93t-20 119v563h-173v140q0 26 11 42q12 16 32 26q20 9 47 12q27 4 56 4h27v224q0 35 8 65q9 30 20 51q12 26 29 45h179v-385h287v-224h-287z" glyph-name="tcaron" horiz-adv-x="782" unicode="ť"/><glyph d="M299 1827h585v-189h-585v189zM28 1237v231h1124v-231h-443v-1237h-236v1237h-445z" glyph-name="Tbar" horiz-adv-x="1182" unicode="Ŧ"/><glyph d="M28 722h177v129h-173v84q0 32 3 58t17.5 44.5t44 28.5t82.5 10h26v216q0 35 8.5 64.5t19.5 51.5q12 26 29 45h179v-377h287v-225h-287v-129h287v-162h-287v-267q0 -32 17 -57t48 -25q20 0 36.5 5t34.5 5q29 0 53.5 -8t45.5 -21t37.5 -30t28.5 -35l21 -31 q-22 -23 -56 -42.5t-72.5 -34.5t-77 -23.5t-68.5 -8.5q-77 0 -130.5 26t-87.5 72t-50 108t-16 135v232h-177v162z" glyph-name="tbar" horiz-adv-x="782" unicode="ŧ"/><glyph d="M868 1539q-37 0 -70 13t-63 30q-30 16 -56 30q-26 13 -46 13q-15 0 -24 -8t-14 -19q-5 -12 -6 -25q-2 -13 -1 -25h-157q0 50 11 94t36 77q24 33 60 51t85 19q34 0 65 -13q32 -13 61 -30q29 -16 55 -29q27 -13 51 -13q33 0 42 19t9 49h161q-4 -54 -13 -97q-9 -42 -31 -71 t-58 -45q-38 -17 -97 -20zM394 578q0 -74 28 -140t78 -114q49 -49 114 -77q66 -28 140 -28t139 28q66 28 114 77q49 49 77 114q29 66 29 140v889h237v-889q0 -123 -47 -231t-127 -189q-81 -81 -190 -128t-232 -46q-123 0 -232 46q-109 47 -189 128t-127 189t-47 231v889h235 v-889z" glyph-name="Utilde" horiz-adv-x="1499" unicode="Ũ"/><glyph d="M722 1229q-37 0 -70 13t-64 30q-30 16 -56 30q-26 13 -47 13q-14 0 -23 -9t-13 -22q-5 -13 -6 -28q-2 -15 -2 -26h-156q0 50 11 96t35 79q24 34 59 54q36 20 85 20q35 0 66 -14q31 -13 61 -29q29 -16 55 -29t51 -13q16 0 26 6t16 17t8 24t2 28h161q-4 -55 -14 -99 q-9 -44 -30 -76q-22 -32 -59 -48q-37 -17 -96 -17zM853 0q-10 10 -20 38t-11 68q-22 -31 -52 -53q-31 -23 -70 -38q-38 -15 -80 -22q-43 -7 -86 -7q-92 0 -168 33q-75 34 -129 97q-54 62 -83 151t-29 199v609h235v-605q0 -57 11 -104q10 -47 31 -81q22 -33 55 -51t81 -18 q53 0 101 12q49 12 87 34q37 22 60 50q24 29 27 62v701h237v-1075h-197z" glyph-name="utilde" unicode="ũ"/><glyph d="M457 1766h584v-188h-584v188zM394 578q0 -74 28 -140t78 -114q49 -49 114 -77q66 -28 140 -28t139 28q66 28 114 77q49 49 77 114q29 66 29 140v889h237v-889q0 -123 -47 -231t-127 -189q-81 -81 -190 -128t-232 -46q-123 0 -232 46q-109 47 -189 128t-127 189t-47 231 v889h235v-889z" glyph-name="Umacron" horiz-adv-x="1499" unicode="Ū"/><glyph d="M310 1417h585v-188h-585v188zM853 0q-10 10 -20 38t-11 68q-22 -31 -52 -53q-31 -23 -70 -38q-38 -15 -80 -22q-43 -7 -86 -7q-92 0 -168 33q-75 34 -129 97q-54 62 -83 151t-29 199v609h235v-605q0 -57 11 -104q10 -47 31 -81q22 -33 55 -51t81 -18q53 0 101 12 q49 12 87 34q37 22 60 50q24 29 27 62v701h237v-1075h-197z" glyph-name="umacron" unicode="ū"/><glyph d="M1052 1835q0 -65 -25 -117q-25 -53 -66 -91q-42 -38 -97 -60q-55 -21 -115 -21t-115 21q-54 21 -96 60q-42 38 -67 91t-25 117h61q34 0 62 -16q29 -16 43 -43q20 -34 56 -51q35 -16 81 -16t80 16q35 16 56 51q15 29 43 44t63 15h61zM394 578q0 -74 28 -140t78 -114 q49 -49 114 -77q66 -28 140 -28t139 28q66 28 114 77q49 49 77 114q29 66 29 140v889h237v-889q0 -123 -47 -231t-127 -189q-81 -81 -190 -128t-232 -46q-123 0 -232 46q-109 47 -189 128t-127 189t-47 231v889h235v-889z" glyph-name="Ubreve" horiz-adv-x="1499" unicode="Ŭ"/><glyph d="M905 1458q0 -65 -24 -119q-25 -54 -67 -93t-97 -62t-114 -23q-60 0 -115 23t-96 62t-67 93q-25 54 -25 119h60q34 0 63 -16t44 -44q20 -33 58 -52t78 -19q39 0 77 19q38 18 58 52q16 30 44 45t63 15h60zM853 0q-10 10 -20 38t-11 68q-22 -31 -52 -53q-31 -23 -70 -38 q-38 -15 -80 -22q-43 -7 -86 -7q-92 0 -168 33q-75 34 -129 97q-54 62 -83 151t-29 199v609h235v-605q0 -57 11 -104q10 -47 31 -81q22 -33 55 -51t81 -18q53 0 101 12q49 12 87 34q37 22 60 50q24 29 27 62v701h237v-1075h-197z" glyph-name="ubreve" unicode="ŭ"/><glyph d="M545 1770q0 42 16 80q16 37 43 65q28 28 65 43q37 16 81 16q42 0 79 -16t65 -43q28 -28 43 -65q16 -37 16 -80q0 -42 -16 -79t-43 -65q-28 -28 -65 -43q-37 -16 -79 -16q-43 0 -81 16q-37 16 -65 43q-28 28 -43 65q-16 37 -16 79zM679 1770q0 -30 20 -49q20 -20 51 -20 q30 0 49 20q20 20 20 49q0 30 -20 51q-20 20 -49 20q-30 0 -51 -20q-20 -21 -20 -51zM394 578q0 -74 28 -140t78 -114q49 -49 114 -77q66 -28 140 -28t139 28q66 28 114 77q49 49 77 114q29 66 29 140v889h237v-889q0 -123 -47 -231t-127 -189q-81 -81 -190 -128t-232 -46 q-123 0 -232 46q-109 47 -189 128t-127 189t-47 231v889h235v-889z" glyph-name="Uring" horiz-adv-x="1499" unicode="Ů"/><glyph d="M398 1361q0 42 16 79t44 65t65 44t80 16q42 0 79 -16t66 -44q28 -28 43 -65q16 -37 16 -79t-16 -79t-43 -65q-28 -28 -66 -44q-37 -16 -79 -16q-43 0 -80 16t-65 44t-44 65t-16 79zM532 1361q0 -30 21 -50q20 -20 50 -20t50 20t20 50t-20 50t-50 21q-30 0 -50 -21 q-21 -20 -21 -50zM853 0q-10 10 -20 38t-11 68q-22 -31 -52 -53q-31 -23 -70 -38q-38 -15 -80 -22q-43 -7 -86 -7q-92 0 -168 33q-75 34 -129 97q-54 62 -83 151t-29 199v609h235v-605q0 -57 11 -104q10 -47 31 -81q22 -33 55 -51t81 -18q53 0 101 12q49 12 87 34 q37 22 60 50q24 29 27 62v701h237v-1075h-197z" glyph-name="uring" unicode="ů"/><glyph d="M893 1647q-23 -28 -59 -38t-95 -11h-77l187 265q22 30 60 39q39 10 99 10h115zM596 1650q-23 -30 -60 -41q-38 -11 -96 -11h-65q74 132 110 195q36 62 42 69q23 30 64 40t99 10h104zM394 578q0 -74 28 -140t78 -114q49 -49 114 -77q66 -28 140 -28t139 28q66 28 114 77 q49 49 77 114q29 66 29 140v889h237v-889q0 -123 -47 -231t-127 -189q-81 -81 -190 -128t-232 -46q-123 0 -232 46q-109 47 -189 128t-127 189t-47 231v889h235v-889z" glyph-name="Uhungarumlaut" horiz-adv-x="1499" unicode="Ű"/><glyph d="M746 1237q-23 -28 -58 -38q-36 -10 -95 -10h-78l187 264q22 30 61 39q39 10 98 10h116zM450 1240q-23 -30 -61 -40q-38 -11 -95 -11h-66q74 132 110 194t43 69q23 30 63 40q41 10 100 10h103zM853 0q-10 10 -20 38t-11 68q-22 -31 -52 -53q-31 -23 -70 -38 q-38 -15 -80 -22q-43 -7 -86 -7q-92 0 -168 33q-75 34 -129 97q-54 62 -83 151t-29 199v609h235v-605q0 -57 11 -104q10 -47 31 -81q22 -33 55 -51t81 -18q53 0 101 12q49 12 87 34q37 22 60 50q24 29 27 62v701h237v-1075h-197z" glyph-name="uhungarumlaut" unicode="ű"/><glyph d="M887 -1q-61 -35 -96 -73q-34 -38 -34 -79q0 -39 27 -57q28 -19 67 -19q18 1 39 4t42 3q26 0 51 -9t38 -35l19 -42q-43 -30 -103 -48t-123 -19q-56 0 -101 13q-45 12 -76 34q-31 23 -48 55t-17 70q0 31 15 61t40 57q25 28 58 52q33 25 69 46zM394 578v889h-235v-889 q0 -123 47 -231t127 -189t189 -128t232 -46q124 0 232 46q109 47 190 128t127 189q47 108 47 231v889h-237v-889q0 -74 -29 -140t-77 -114q-49 -49 -114 -77q-66 -28 -139 -28q-74 0 -140 28t-114 77q-49 49 -78 114q-28 66 -28 140z" glyph-name="Uogonek" horiz-adv-x="1499" unicode="Ų"/><glyph d="M977 0q-61 -35 -96 -73q-34 -38 -34 -79q0 -39 27 -57q28 -19 67 -19q18 1 39 4t42 3q26 0 51 -9t38 -35l19 -42q-43 -30 -102 -48q-60 -18 -124 -19q-56 0 -101 13q-45 12 -75 34q-31 23 -49 55q-17 32 -16 70q0 31 14 61q15 30 40 57q25 28 58 52q33 25 69 46zM853 0 q-10 10 -20 38t-11 68q-22 -31 -52 -53q-31 -23 -70 -38q-38 -15 -80 -22q-43 -7 -86 -7q-92 0 -168 33q-75 34 -129 97q-54 62 -83 151t-29 199v609h235v-605q0 -57 11 -104q10 -47 31 -81q22 -33 55 -51t81 -18q53 0 101 12q49 12 87 34q37 22 60 50q24 29 27 62v701h237 v-1075h-197z" glyph-name="uogonek" unicode="ų"/><glyph d="M1038 1680q-6 7 -9 16q-4 8 -6 13q-3 -5 -7 -13t-8 -15l-32 -32q-26 -27 -46 -46t-41 -33q-21 -13 -46 -19q-26 -6 -62 -6h-82l177 233q18 27 51 39t80 12h32q91 0 130 -51q44 -58 88 -117q44 -58 90 -116h-82q-45 0 -77 11t-57 31q-25 19 -47 43q-21 23 -46 50zM1244 0 q-46 105 -92 213t-86 209q-11 28 -17 51q-6 24 -7 46q0 15 3 29t7 24l-250 -572h-220l-640 1467h141q26 0 51 -7q25 -8 46 -21t37 -33q16 -19 26 -42l429 -981q9 -24 14 -48q5 -25 5 -44q3 37 18 75q14 38 31 83l400 915q20 46 64 75t96 28h142q-73 -167 -144 -331 q-71 -165 -144 -331q26 -61 51 -121q26 -59 51 -120q14 -34 31 -68q16 -34 29 -68q14 -34 25 -69q11 -34 14 -69q1 20 5 45t14 48l429 981q20 46 65 75q44 29 96 28h141l-640 -1467h-221v0z" glyph-name="Wcircumflex" horiz-adv-x="2045" unicode="Ŵ"/><glyph d="M896 1339q-6 6 -10 15q-4 8 -5 13q-3 -5 -7 -13t-9 -15l-26 -32q-14 -17 -30 -37q-15 -19 -32 -36q-24 -27 -56 -36q-33 -9 -82 -9h-82q65 95 107 158q42 62 66 92q17 28 52 42q34 14 82 14h33q43 0 73 -11t49 -32q10 -8 28 -31q17 -23 40 -58t53 -79t64 -95h-82 q-40 0 -73 6q-24 5 -45 21t-40 37t-36 44t-32 42zM434 0q-116 270 -230 538q-115 267 -230 537h141q52 0 95 -28q44 -28 63 -74q65 -156 131 -308q67 -152 134 -308q10 -24 13 -47q3 -24 5 -47q1 25 6 47t13 43q8 22 17 43q10 22 19 44l229 534q9 22 25 40t38 32 q21 14 45 22q25 8 50 8h142l-118 -273l191 -444q8 -22 13 -43q5 -22 7 -46q3 39 17 78q14 38 38 92l229 534q9 22 25 40t38 32q21 14 45 22q25 8 50 8h142l-461 -1076h-245l-86 208q-44 103 -87 208q-26 60 -26 113q0 13 3 25t7 25q-9 -28 -71 -173q-61 -145 -173 -406h-244 v0z" glyph-name="wcircumflex" horiz-adv-x="1762" unicode="ŵ"/><glyph d="M721 1680q-6 7 -10 16q-4 8 -5 13q-3 -5 -7 -13t-9 -15l-32 -32q-26 -27 -45 -46q-20 -19 -41 -33q-21 -13 -47 -19t-61 -6h-82l176 233q18 27 52 39q33 12 79 12h33q91 0 130 -51q44 -58 88 -117q44 -58 89 -116h-82q-45 0 -77 11t-56 31q-25 19 -47 43q-21 23 -46 50z M825 0h-236v621q0 19 -4 35t-12 31q-7 15 -17 30t-24 33l-529 717h172q129 0 193 -98l318 -430q10 -14 15 -32q5 -17 6 -24q0 5 5 23t16 33l318 430q32 49 80 74q49 25 112 24h174l-530 -717q-27 -36 -42 -63t-15 -66v-621z" glyph-name="Ycircumflex" horiz-adv-x="1411" unicode="Ŷ"/><glyph d="M607 1339q-6 6 -9 15q-4 8 -6 13q-3 -5 -7 -13t-8 -15l-27 -32q-14 -17 -30 -37q-15 -19 -32 -36q-24 -27 -56 -36q-33 -9 -82 -9h-82q65 95 107 158q42 62 66 92q17 28 52 42q34 14 82 14h33q43 0 73 -11t49 -32q10 -8 28 -31q17 -23 40 -58t53 -79t64 -95h-81 q-40 0 -74 6q-24 5 -45 21t-40 37t-36 44t-32 42zM29 1075h142q26 0 51 -7t46 -21q22 -14 38 -33t24 -42q53 -124 105 -247t106 -247q14 -35 22 -66q8 -32 8 -63v-24q-1 -13 -6 -24q23 58 90 214q68 156 180 417l17 41q20 46 63 74t96 28h143l-596 -1366q-9 -25 -26 -44 q-16 -20 -37 -34q-22 -14 -47 -22t-51 -7h-142q52 121 103 239t104 238z" glyph-name="ycircumflex" horiz-adv-x="1183" unicode="ŷ"/><glyph d="M396 1701q0 27 10 50q10 24 27 42t41 28t50 10q27 0 50 -10q24 -10 42 -28t28 -42t10 -50q0 -27 -10 -50q-10 -24 -28 -41t-42 -27t-50 -10q-27 0 -50 10q-24 10 -41 27t-27 41q-10 23 -10 50zM757 1701q0 27 10 50q10 24 28 42q17 18 40 28t50 10t50 -10q24 -10 41 -28 q18 -18 29 -42q10 -24 10 -50q0 -27 -10 -50q-10 -24 -29 -41q-18 -17 -41 -27q-24 -10 -50 -10q-27 0 -50 10t-40 27t-28 41q-10 23 -10 50zM825 0h-236v621q0 19 -4 35t-12 31q-7 15 -17 30t-24 33l-529 717h172q129 0 193 -98l318 -430q10 -14 15 -32q5 -17 6 -24 q0 5 5 23t16 33l318 430q32 49 80 74q49 25 112 24h174l-530 -717q-27 -36 -42 -63t-15 -66v-621z" glyph-name="Ydieresis" horiz-adv-x="1411" unicode="Ÿ"/><glyph d="M673 1632q-39 -51 -132 -51h-106q67 113 99 165t38 59q39 51 131 52h152zM409 208q6 6 14 11q7 4 16 8t21 3h740v-230h-1112v82q0 40 11 74t28 65t39 60t45 59l658 897h-742v231h1078v-101q0 -75 -41 -129z" glyph-name="Zacute" horiz-adv-x="1290" unicode="Ź"/><glyph d="M511 1240q-39 -51 -131 -51h-106q75 132 111 194t42 69q37 50 131 50h152zM386 211q8 5 17 9q8 4 19 7q10 3 23 3h449v-230h-822v98q0 81 49 140q118 156 230 306q113 151 226 301h-473v230h802v-99q0 -74 -41 -128z" glyph-name="zacute" horiz-adv-x="984" unicode="ź"/><glyph d="M498 1717q0 31 11 58t31 46q20 20 47 31t58 12q31 0 57 -12q27 -11 47 -31t32 -46q12 -27 12 -58t-12 -57q-12 -27 -32 -47t-47 -31q-27 -12 -57 -12q-31 0 -58 12t-47 31q-20 20 -31 47q-11 26 -11 57zM409 208q6 6 14 11q7 4 16 8t21 3h740v-230h-1112v82q0 40 11 74 t28 65t39 60t45 59l658 897h-742v231h1078v-101q0 -75 -41 -129z" glyph-name="Zdotaccent" horiz-adv-x="1290" unicode="Ż"/><glyph d="M344 1327q0 31 11 57q11 27 32 47q20 20 47 31t58 12q31 0 57 -12q27 -11 46 -31q20 -20 32 -47t12 -57q0 -31 -12 -57q-12 -27 -32 -47t-46 -31q-27 -11 -57 -11q-31 0 -58 11t-47 31t-32 47q-11 26 -11 57zM386 211q8 5 17 9q8 4 19 7q10 3 23 3h449v-230h-822v98 q0 81 49 140q118 156 230 306q113 151 226 301h-473v230h802v-99q0 -74 -41 -128z" glyph-name="zdotaccent" horiz-adv-x="984" unicode="ż"/><glyph d="M411 1905q14 0 28 -1t27 -3q28 -4 50 -20q23 -16 42 -38t37 -45q17 -24 34 -45q5 -8 8 -16q4 -8 7 -12q5 8 11 18t13 19q22 29 40 55q19 26 42 45t52 31q30 12 76 12h90q-67 -99 -110 -162q-43 -62 -63 -89q-20 -28 -53 -42q-32 -14 -82 -15h-31q-30 0 -52 5t-39 14 t-30 23t-26 31q-27 38 -66 96q-40 58 -94 139h89zM409 208q6 6 14 11q7 4 16 8t21 3h740v-230h-1112v82q0 40 11 74t28 65t39 60t45 59l658 897h-742v231h1078v-101q0 -75 -41 -129z" glyph-name="Zcaron" horiz-adv-x="1290" unicode="Ž"/><glyph d="M258 1495q14 0 28 -1t27 -3q28 -4 51 -20t42 -37q19 -22 36 -46t34 -45q5 -8 9 -16t7 -11q5 8 10 18q6 10 13 19q22 29 41 54q19 26 41 45q23 19 53 31t75 12h90q-67 -99 -109 -162q-43 -62 -64 -89q-20 -28 -53 -42q-32 -14 -81 -14h-32q-30 0 -52 4q-22 5 -38 14 q-17 9 -31 23q-13 14 -25 32q-27 38 -67 96t-94 138h89zM386 211q8 5 17 9q8 4 19 7q10 3 23 3h449v-230h-822v98q0 81 49 140q118 156 230 306q113 151 226 301h-473v230h802v-99q0 -74 -41 -128z" glyph-name="zcaron" horiz-adv-x="984" unicode="ž"/><glyph d="M184 0v792h-173v131q0 46 35 70t120 24h18v161q0 65 20 119t57.5 93.5t91 61.5t119.5 22q29 0 67 -9.5t75 -24.5t71 -34.5t55 -40.5q-8 -12 -15 -24.5t-15 -24.5q-24 -36 -59.5 -57.5t-80.5 -21.5q-11 0 -18.5 1.5t-17 4t-21 4t-30.5 1.5q-16 0 -28 -7t-20 -19t-12 -26 t-4 -29v-1167h-235z" glyph-name="longs" horiz-adv-x="670" unicode="ſ"/><glyph d="M183 844h-172v125q0 27 11 44t32.5 28t53.5 17t75 10v110q0 65 20 119t58 93.5t91.5 61.5t119.5 22q29 0 66 -9.5t75 -25t72 -35t54 -40.5q-18 -29 -35 -52t-35.5 -40t-41.5 -26t-55 -9q-9 0 -16.5 1.5t-17 3t-21 3t-30.5 1.5q-32 0 -49.5 -23t-17.5 -64v-92h267v-223 h-267v-837q0 -20 -0.5 -39.5t-1.5 -40.5q-3 -60 -24 -110.5t-58 -87t-88.5 -57t-115.5 -20.5q-29 0 -66.5 9t-75 24t-71.5 34.5t-55 40.5l28 45q24 36 54 56t74 20q11 0 21.5 -2t21.5 -5t23.5 -5t29.5 -2q18 0 31 7.5t21 19.5t11.5 26t3.5 27v897z" glyph-name="florin" horiz-adv-x="719" unicode="ƒ"/><glyph d="M1060 1632q-39 -51 -132 -51h-106q67 113 99 165t38 59q39 51 132 52h151zM1828 0h-483q-53 0 -95 28q-41 28 -58 76l-74 214h-702l-114 -217q-26 -46 -71 -73q-46 -28 -98 -28h-148q194 367 387 733q194 367 389 734h1067v-236h-764l129 -373h504v-236h-424l133 -386 h422v-236zM1038 555q-45 133 -89 264t-88 263q-7 20 -11 44t-3 38q-2 -13 -8 -35t-19 -46l-278 -528h496z" glyph-name="AEacute" horiz-adv-x="1949" unicode="Ǽ"/><glyph d="M973 1240q-39 -51 -131 -51h-106q75 132 111 194t42 69q37 50 131 50h151zM184 904l7 10q7 10 21 26q14 15 33 34q19 18 44 35q60 39 131 60t159 21q113 0 193 -35q81 -34 128 -92q7 -5 15 -14q8 -8 8 -15q0 -4 -1 -7l-8 -18l43 43q69 65 157 101t199 36q89 0 171 -31 q82 -30 151 -83q68 -53 117 -126t69 -158q4 -16 5 -33q2 -16 2 -32q0 -39 -15 -69t-38 -51q-23 -20 -51 -30t-52 -10h-610q-20 0 -37 -6t-17 -22v-2q1 -1 1 -3q12 -43 40 -83t67 -72t89 -51t107 -19q41 0 81 10t76 31q22 11 42 17t48 6q37 0 65 -13q29 -13 54 -39l51 -50 q-82 -88 -189 -136t-228 -48q-61 0 -120 12q-58 12 -111 37q-17 8 -39 21t-42 28q-21 16 -40 34t-31 38q2 -3 3 -12q2 -9 3 -17q0 -6 -1 -11t-5 -7l-32 -17q-39 -20 -87 -39t-102 -34t-112 -24t-118 -9q-82 0 -152 23q-70 24 -121 67t-80 104t-29 136q0 171 135 263t403 92 q44 0 82 -4t56 -5q-8 63 -24 104t-41 67q-25 25 -58 34q-33 10 -72 11q-44 0 -72 -9q-27 -9 -49 -20t-44 -19q-22 -9 -56 -9q-30 0 -56 10q-27 10 -50 28zM478 201q39 0 83 8q44 9 87 23q44 14 85 33q41 18 76 38q-14 32 -28 71q-13 39 -16 70q-5 1 -20 3l-35 5q-21 2 -46 3 q-26 2 -53 2q-58 0 -110 -8t-91 -25t-62 -43t-22 -62q0 -30 11 -51q12 -22 33 -37t49 -23q27 -7 59 -7zM1579 679q-15 36 -39 70t-56 59q-33 26 -76 42t-97 16q-62 0 -113 -18t-90 -49q-38 -30 -64 -69t-37 -81q6 8 21 19t40 11h511z" glyph-name="aeacute" horiz-adv-x="1907" unicode="ǽ"/><glyph d="M871 1632q-39 -51 -132 -51h-105q67 113 99 165t38 59q39 51 131 52h152zM82 734q0 103 27 199t75 179q49 83 118 152q68 69 151 117q83 49 179 75q96 27 199 27q105 0 202 -27q96 -27 179 -78q13 19 28 40q14 20 28 37t31 31q17 13 39 20q10 14 19 20q8 6 24 6h140 l-182 -248q56 -51 102 -113q46 -61 77 -131t48 -147t17 -159q0 -156 -59 -292t-161 -237t-239 -160t-293 -59q-102 0 -196 25q-94 26 -176 74l-97 -131q-24 -33 -58 -48q-35 -15 -67 -15h-117q53 72 105 143t105 143q-57 51 -103 114q-46 62 -78 133t-50 149q-17 78 -17 161 zM321 734q0 -108 40 -200q40 -93 111 -163l598 815q-53 30 -114 45q-60 16 -125 16q-105 0 -198 -40t-162 -110q-70 -70 -110 -164t-40 -199zM831 220q106 0 200 41q93 40 162 110t110 163q40 93 39 199q0 105 -38 196q-39 91 -108 161l-597 -811q52 -28 111 -43 q59 -16 121 -16z" glyph-name="Oslashacute" horiz-adv-x="1687" unicode="Ǿ"/><glyph d="M825 1234q20 46 62 75q41 29 93 28h115l-654 -1497q-20 -46 -64 -74t-95 -28h-109zM74 538q0 114 43 214q44 101 119 176t176 119t215 44t214 -44q101 -44 176 -119t119 -176t44 -214q0 -114 -44 -215t-119 -176t-176 -119t-214 -43q-114 0 -215 43q-101 44 -176 119 t-119 176q-43 101 -43 215zM305 537q0 -67 25 -125t69 -101q44 -44 102 -69t125 -25q66 0 124 25t102 69t69 101q25 58 25 125t-25 125t-69 101q-44 44 -102 69t-124 25q-67 0 -125 -25t-102 -69t-69 -101q-25 -58 -25 -125zM646 1240q-39 -51 -131 -51h-105q75 132 110 194 q36 62 42 69q37 50 131 50h152z" glyph-name="oslashacute" horiz-adv-x="1255" unicode="ǿ"/><glyph d="M500 -171h98q40 0 61 -22t21 -58v-10t-1 -9l-21 -130q-5 -36 -31 -58t-63 -22h-64v309zM571 1246q-42 0 -80 -11t-68 -31q-29 -20 -46 -48t-17 -62q0 -48 19 -77q18 -29 59 -51q41 -23 105 -45q64 -23 155 -58q81 -30 146 -69t109 -91q45 -52 68 -116q24 -65 23 -143 q0 -101 -42 -185t-113 -146q-71 -61 -163 -94q-93 -33 -195 -33q-104 0 -192 33t-157 98q-49 45 -78 91q-29 47 -44 79q19 9 37 19q17 10 35 18q17 8 36 13q18 5 40 5q32 0 64 -11t56 -31l8 -6q41 -31 87 -52q47 -22 108 -22q46 0 95 14t90 44q41 29 67 70q26 42 26 96 q0 53 -25 88t-65 60t-90 42q-50 18 -100 38q-76 30 -148 62q-73 32 -130 79t-92 113q-35 67 -35 168q0 92 38 164q38 73 101 123q62 50 143 76q80 26 165 26q62 0 123 -21q60 -21 112 -53q53 -32 97 -73q44 -40 74 -76l-52 -40q-27 -24 -60 -36t-64 -12q-35 0 -63 14 q-47 22 -86 41q-40 19 -81 19z" glyph-name="Scommaaccent" horiz-adv-x="1117" unicode="Ș"/><glyph d="M353 -171h99q40 0 61 -22t21 -58v-10t-2 -9l-20 -130q-5 -36 -31 -58t-63 -22h-65v309zM62 222q19 9 39 20q19 10 38 19t40 15q20 6 41 7q26 1 49 -11q24 -11 55 -32q22 -15 48 -25q27 -10 57 -10q26 0 52 8q27 8 48 25q22 16 35 40t14 54q0 25 -8 42t-27 32t-51 29 t-81 31q-57 19 -113 45q-55 26 -99 62q-44 37 -70 90q-27 52 -27 125q0 65 30 120q29 55 76 95q48 40 109 63t124 24q65 0 119 -24t94 -53q40 -30 64 -57t30 -34q-23 -20 -41 -37q-18 -16 -37 -29q-18 -12 -37 -19t-43 -7q-16 0 -32 7q-16 6 -34 13q-17 8 -36 15t-42 6 q-28 0 -49 -9q-22 -9 -38 -22q-15 -13 -23 -29q-8 -15 -7 -27q0 -26 13 -43q13 -18 34 -31t48 -22t53 -17q65 -19 124 -45q59 -25 105 -63t73 -93t27 -134q0 -71 -28 -134t-78 -112q-50 -48 -118 -76q-69 -28 -152 -28q-56 0 -111 16q-54 16 -101 47q-48 30 -88 74t-68 99z " glyph-name="scommaaccent" horiz-adv-x="887" unicode="ș"/><glyph d="M28 1237v231h1124v-231h-443v-1237h-236v1237h-445z" glyph-name="uni021A" horiz-adv-x="1182" unicode="Ț"/><glyph d="M301 -171h98q40 0 61 -22t21 -58v-10t-1 -9l-20 -130q-5 -36 -31 -58t-63 -22h-65v309zM437 844v-551q0 -32 17 -57t48 -25q24 0 45 6q22 6 40 6q33 0 59 -13q27 -13 48 -31q21 -19 37 -42t28 -41q-22 -22 -56 -41q-34 -20 -71 -36q-38 -15 -76 -24t-67 -9q-67 0 -120 22 q-54 22 -91 61t-57 93t-20 119v563h-173v140q0 26 11 42q12 16 32 26q20 9 47 12q27 4 56 4h27v224q0 35 8 65q9 30 20 51q12 26 29 45h179v-385h287v-224h-287z" glyph-name="uni021B" horiz-adv-x="782" unicode="ț"/><glyph d="M349 1339q-6 6 -9.5 14.5t-5.5 13.5q-3 -5 -6.5 -13t-9.5 -15l-26 -32q-14 -17 -29.5 -36.5t-32.5 -36.5q-24 -27 -56.5 -36t-81.5 -9h-82q65 95 107.5 157.5t65.5 92.5q17 28 51.5 42t82.5 14h33q43 0 73 -10.5t49 -32.5q10 -8 27.5 -31t40.5 -58t53 -79t64 -95h-82 q-40 0 -73 6q-24 5 -45 21t-40 37t-36 44t-32 42z" glyph-name="circumflex" horiz-adv-x="679" unicode="ˆ"/><glyph d="M100 1495q14 0 28 -1t28 -3q28 -4 50 -20t41.5 -37.5t37 -45.5t33.5 -45q5 -8 9 -16t7 -11q5 8 10.5 17.5t12.5 19.5q22 29 41 54.5t41.5 44.5t52.5 31t75 12h90q-67 -99 -109.5 -161.5t-63.5 -89.5q-20 -28 -52.5 -42t-81.5 -14h-32q-30 0 -51.5 4.5t-38.5 13.5 t-30.5 23t-25.5 32q-27 38 -66.5 96t-94.5 138h89z" glyph-name="caron" horiz-adv-x="678" unicode="ˇ"/><glyph glyph-name="uni02C9" horiz-adv-x="628" unicode="ˉ"/><glyph d="M634 1458q0 -65 -24.5 -119t-66.5 -93.5t-97 -62t-114 -22.5q-60 0 -115 22.5t-96.5 62t-66.5 94t-25 118.5h60q34 0 63 -16t44 -44q20 -33 58 -52t78 -19q39 0 76.5 18.5t58.5 52.5q16 30 44 45t62 15h61z" glyph-name="breve" horiz-adv-x="665" unicode="˘"/><glyph d="M175 1327q0 31 11.5 57.5t31.5 46.5t47 31.5t58 11.5t57.5 -11.5t46 -31.5t31.5 -46.5t12 -57.5t-12 -57.5t-31.5 -46.5t-46.5 -31t-57 -11q-31 0 -58 11t-47 31t-31.5 46.5t-11.5 57.5z" glyph-name="dotaccent" horiz-adv-x="642" unicode="˙"/><glyph d="M123 1361q0 42 16 79.5t43.5 65t65 43.5t80.5 16q42 0 79 -16t65 -43.5t43.5 -65t15.5 -79.5t-15.5 -79.5t-43.5 -65t-65 -43.5t-79 -16q-43 0 -80.5 16t-65 43.5t-43.5 65t-16 79.5zM257 1361q0 -30 20.5 -50t50.5 -20t49.5 20t19.5 50t-20 50.5t-49 20.5 q-30 0 -50.5 -20.5t-20.5 -50.5z" glyph-name="ring" horiz-adv-x="656" unicode="˚"/><glyph d="M422 -1q-61 -35 -95.5 -73t-34.5 -79q0 -39 27.5 -57.5t66.5 -18.5q18 1 39 4t42 3q26 0 51 -9t38 -35l19 -42q-43 -30 -102.5 -48.5t-123.5 -18.5q-56 0 -100.5 12.5t-76 35t-48 54t-16.5 70.5q0 31 14.5 60.5t39.5 57.5t58 52.5t69 45.5z" glyph-name="ogonek" horiz-adv-x="663" unicode="˛"/><glyph d="M433 1229q-37 0 -70 13t-63.5 29.5t-56 30t-46.5 13.5q-14 0 -23 -9.5t-13.5 -22t-6 -27.5t-1.5 -26h-157q0 50 11 95.5t35 79.5t59.5 54t84.5 20q35 0 66.5 -13.5t60.5 -29.5t55 -29t51 -13q16 0 26.5 6t16 16.5t7.5 24t2 28.5h161q-4 -55 -13.5 -99t-31 -75.5 t-58.5 -48.5t-96 -17z" glyph-name="tilde" horiz-adv-x="628" unicode="˜"/><glyph d="M614 1237q-23 -28 -59 -38t-94 -10h-78l187 264q22 30 61 39.5t98 9.5h116zM317 1240q-23 -30 -60.5 -40.5t-94.5 -10.5h-66q74 132 110.5 194t42.5 69q23 30 63.5 40t99.5 10h103z" glyph-name="hungarumlaut" horiz-adv-x="733" unicode="˝"/><glyph d="M58 846v230h1113v-230h-186q-6 -45 -14.5 -112.5t-17.5 -143.5t-15 -152.5t-6 -138.5q0 -17 1.5 -34t6.5 -31t16 -22t28 -8q23 0 43 6t37 6q43 0 73.5 -21t56.5 -58l-8 -50q-20 -20 -45 -38.5t-52.5 -32.5t-58 -22t-59.5 -8q-67 0 -116.5 23t-82.5 63t-49 95t-16 120 q0 61 5 138t12.5 154t16.5 147.5t15 119.5h-305v-846h-231v846h-162z" glyph-name="pi" horiz-adv-x="1341" unicode="π"/><glyph d="M813 1855h152q94 0 131 -50q6 -7 38 -59t99 -166h-106q-93 0 -131 52zM1244 0q-46 105 -92 213t-86 209q-11 28 -17 51q-6 24 -7 46q0 15 3 29t7 24l-250 -572h-220l-640 1467h141q26 0 51 -7q25 -8 46 -21t37 -33q16 -19 26 -42l429 -981q9 -24 14 -48q5 -25 5 -44 q3 37 18 75q14 38 31 83l400 915q20 46 64 75t96 28h142q-73 -167 -144 -331q-71 -165 -144 -331q26 -61 51 -121q26 -59 51 -120q14 -34 31 -68q16 -34 29 -68q14 -34 25 -69q11 -34 14 -69q1 20 5 45t14 48l429 981q20 46 65 75q44 29 96 28h141l-640 -1467h-221v0z" glyph-name="Wgrave" horiz-adv-x="2045" unicode="Ẁ"/><glyph d="M664 1502h151q92 0 131 -51q6 -6 42 -68t111 -195h-106q-92 0 -132 52zM434 0q-116 270 -230 538q-115 267 -230 537h141q52 0 95 -28q44 -28 63 -74q65 -156 131 -308q67 -152 134 -308q10 -24 13 -47q3 -24 5 -47q1 25 6 47t13 43q8 22 17 43q10 22 19 44l229 534 q9 22 25 40t38 32q21 14 45 22q25 8 50 8h142l-118 -273l191 -444q8 -22 13 -43q5 -22 7 -46q3 39 17 78q14 38 38 92l229 534q9 22 25 40t38 32q21 14 45 22q25 8 50 8h142l-461 -1076h-245l-86 208q-44 103 -87 208q-26 60 -26 113q0 13 3 25t7 25q-9 -28 -71 -173 q-61 -145 -173 -406h-244v0z" glyph-name="wgrave" horiz-adv-x="1762" unicode="ẁ"/><glyph d="M1051 1632q-39 -51 -132 -51h-106q67 113 99 165t38 59q39 51 131 52h152zM1244 0q-46 105 -92 213t-86 209q-11 28 -17 51q-6 24 -7 46q0 15 3 29t7 24l-250 -572h-220l-640 1467h141q26 0 51 -7q25 -8 46 -21t37 -33q16 -19 26 -42l429 -981q9 -24 14 -48q5 -25 5 -44 q3 37 18 75q14 38 31 83l400 915q20 46 64 75t96 28h142q-73 -167 -144 -331q-71 -165 -144 -331q26 -61 51 -121q26 -59 51 -120q14 -34 31 -68q16 -34 29 -68q14 -34 25 -69q11 -34 14 -69q1 20 5 45t14 48l429 981q20 46 65 75q44 29 96 28h141l-640 -1467h-221v0z" glyph-name="Wacute" horiz-adv-x="2045" unicode="Ẃ"/><glyph d="M900 1240q-39 -51 -131 -51h-105q75 132 110 194q36 62 42 69q37 50 131 50h152zM434 0q-116 270 -230 538q-115 267 -230 537h141q52 0 95 -28q44 -28 63 -74q65 -156 131 -308q67 -152 134 -308q10 -24 13 -47q3 -24 5 -47q1 25 6 47t13 43q8 22 17 43q10 22 19 44 l229 534q9 22 25 40t38 32q21 14 45 22q25 8 50 8h142l-118 -273l191 -444q8 -22 13 -43q5 -22 7 -46q3 39 17 78q14 38 38 92l229 534q9 22 25 40t38 32q21 14 45 22q25 8 50 8h142l-461 -1076h-245l-86 208q-44 103 -87 208q-26 60 -26 113q0 13 3 25t7 25 q-9 -28 -71 -173q-61 -145 -173 -406h-244v0z" glyph-name="wacute" horiz-adv-x="1762" unicode="ẃ"/><glyph d="M714 1701q0 27 9 50q10 24 28 42q17 18 41 28t50 10q27 0 50 -10q24 -10 41 -28q18 -18 29 -42q10 -24 10 -50q0 -27 -10 -50q-10 -24 -29 -41q-18 -17 -41 -27q-24 -10 -50 -10q-27 0 -50 10q-24 10 -41 27t-28 41q-9 23 -9 50zM1074 1701q0 27 10 50q10 24 28 42 q17 18 41 28q23 10 49 10q27 0 50 -10q24 -10 42 -28t28 -42t10 -50q0 -27 -10 -50q-10 -24 -28 -41t-42 -27t-50 -10q-27 0 -49 10q-23 10 -41 27q-17 17 -28 41q-10 23 -10 50zM1244 0q-46 105 -92 213t-86 209q-11 28 -17 51q-6 24 -7 46q0 15 3 29t7 24l-250 -572h-220 l-640 1467h141q26 0 51 -7q25 -8 46 -21t37 -33q16 -19 26 -42l429 -981q9 -24 14 -48q5 -25 5 -44q3 37 18 75q14 38 31 83l400 915q20 46 64 75t96 28h142q-73 -167 -144 -331q-71 -165 -144 -331q26 -61 51 -121q26 -59 51 -120q14 -34 31 -68q16 -34 29 -68 q14 -34 25 -69q11 -34 14 -69q1 20 5 45t14 48l429 981q20 46 65 75q44 29 96 28h141l-640 -1467h-221v0z" glyph-name="Wdieresis" horiz-adv-x="2045" unicode="Ẅ"/><glyph d="M571 1327q0 27 10 50q10 24 27 42t41 28t50 10q27 0 51 -10t41 -28q18 -18 28 -42t10 -50q0 -27 -10 -50q-10 -24 -28 -41t-41 -27q-24 -10 -51 -10t-50 10q-24 10 -41 27t-27 41q-10 23 -10 50zM932 1327q0 27 10 50q10 24 28 42q17 18 40 28t50 10t50 -10 q24 -10 41 -28q18 -18 29 -42q10 -24 10 -50q0 -27 -10 -50q-10 -24 -29 -41q-18 -17 -41 -27q-24 -10 -50 -10q-27 0 -50 10t-40 27t-28 41q-10 23 -10 50zM434 0q-116 270 -230 538q-115 267 -230 537h141q52 0 95 -28q44 -28 63 -74q65 -156 131 -308q67 -152 134 -308 q10 -24 13 -47q3 -24 5 -47q1 25 6 47t13 43q8 22 17 43q10 22 19 44l229 534q9 22 25 40t38 32q21 14 45 22q25 8 50 8h142l-118 -273l191 -444q8 -22 13 -43q5 -22 7 -46q3 39 17 78q14 38 38 92l229 534q9 22 25 40t38 32q21 14 45 22q25 8 50 8h142l-461 -1076h-245 l-86 208q-44 103 -87 208q-26 60 -26 113q0 13 3 25t7 25q-9 -28 -71 -173q-61 -145 -173 -406h-244v0z" glyph-name="wdieresis" horiz-adv-x="1762" unicode="ẅ"/><glyph d="M455 1855h151q94 0 131 -50q6 -7 39 -59q32 -52 98 -166h-105q-93 0 -131 52zM825 0h-236v621q0 19 -4 35t-12 31q-7 15 -17 30t-24 33l-529 717h172q129 0 193 -98l318 -430q10 -14 15 -32q5 -17 6 -24q0 5 5 23t16 33l318 430q32 49 80 74q49 25 112 24h174l-530 -717 q-27 -36 -42 -63t-15 -66v-621z" glyph-name="Ygrave" horiz-adv-x="1411" unicode="Ỳ"/><glyph d="M374 1502h151q92 0 131 -51q6 -6 42 -68t111 -195h-106q-92 0 -132 52zM29 1075h142q26 0 51 -7t46 -21q22 -14 38 -33t24 -42q53 -124 105 -247t106 -247q14 -35 22 -66q8 -32 8 -63v-24q-1 -13 -6 -24q23 58 90 214q68 156 180 417l17 41q20 46 63 74t96 28h143 l-596 -1366q-9 -25 -26 -44q-16 -20 -37 -34q-22 -14 -47 -22t-51 -7h-142q52 121 103 239t104 238z" glyph-name="ygrave" horiz-adv-x="1183" unicode="ỳ"/><glyph d="M999 572h-840v220h840v-220z" glyph-name="endash" horiz-adv-x="1160" unicode="–"/><glyph d="M1544 572h-1385v220h1385v-220z" glyph-name="emdash" horiz-adv-x="1701" unicode="—"/><glyph d="M150 1014q-3 5 -14.5 26t-23.5 55.5t-21.5 82.5t-9.5 105q0 49 16.5 93.5t42.5 85t59 77.5t68 72l30 -30q27 -29 36.5 -54.5t9.5 -48.5q-1 -29 -9.5 -53t-19 -47t-18.5 -46.5t-8 -51.5q-1 -35 8 -64t21 -49.5t21 -32.5l10 -12z" glyph-name="quoteleft" horiz-adv-x="477" unicode="‘"/><glyph d="M299 1584q3 -5 14.5 -26t23 -55.5t21.5 -82t10 -104.5q0 -50 -16.5 -94.5t-42.5 -85t-59.5 -77.5t-68.5 -72l-29 31q-27 29 -37 54t-10 48q1 29 10 53t19 47t18.5 46.5t8.5 51.5q1 35 -8.5 64t-21 50t-21.5 32l-10 12z" glyph-name="quoteright" horiz-adv-x="474" unicode="’"/><glyph d="M297 298q3 -5 14.5 -26t23 -55.5t21.5 -82t10 -104.5q0 -50 -16.5 -95t-42.5 -85t-60 -77t-69 -72l-28 31q-28 29 -38 54t-9 48q1 29 9.5 53t18.5 47t18.5 46.5t8.5 51.5q1 36 -8.5 64.5t-20.5 48.5q-13 25 -31 44z" glyph-name="quotesinglbase" horiz-adv-x="471" unicode="‚"/><glyph d="M472 1017q-3 5 -14.5 26t-23 55.5t-21.5 82t-10 104.5q0 50 16.5 94.5t42.5 85t60 77.5t69 72l29 -31q28 -29 37.5 -54.5t8.5 -48.5q-1 -29 -10 -53t-18.5 -47t-18 -46t-8.5 -51q-2 -36 8 -65t21 -50q13 -25 31 -44zM132 1017q-3 5 -14.5 26t-23.5 55.5t-22 82t-10 104.5 q0 50 16.5 94.5t43 85t60 77.5t68.5 72l29 -31q28 -29 37.5 -54.5t8.5 -48.5q0 -29 -9 -53t-19 -47t-18.5 -46t-8.5 -51q-1 -36 8.5 -65t21 -49.5t21.5 -32.5l10 -12z" glyph-name="quotedblleft" horiz-adv-x="826" unicode="“"/><glyph d="M299 1591q3 -5 14.5 -26t23 -55.5t21.5 -82t10 -105.5q0 -49 -16.5 -93.5t-42.5 -85t-60 -77.5t-69 -72l-28 30q-28 30 -38 55t-9 48q0 29 9 53t19 47t18.5 46.5t8.5 51.5q1 35 -8.5 64t-20.5 49.5t-21 32.5l-11 12zM639 1591q3 -5 14.5 -26t23 -55.5t21.5 -82t10 -105.5 q0 -49 -16.5 -93.5t-42.5 -85t-59.5 -77.5t-68.5 -72l-29 30q-27 30 -37 55t-10 48q1 29 10 53t19 47t18.5 46.5t8.5 51.5q1 35 -8.5 64t-21 49.5t-21.5 32.5l-10 12z" glyph-name="quotedblright" horiz-adv-x="827" unicode="”"/><glyph d="M299 295q3 -5 14.5 -26t23 -55.5t21.5 -82t10 -104.5q0 -50 -16.5 -95t-42.5 -85.5t-59.5 -77t-68.5 -71.5l-29 31q-27 29 -37 53.5t-10 48.5q1 29 10 53t19 47t18.5 46.5t8.5 51.5q1 35 -8.5 64t-21 50t-21.5 32l-10 11zM642 295q3 -5 14.5 -26t23 -55.5t21.5 -82 t10 -104.5q0 -50 -16.5 -95t-42.5 -85.5t-59.5 -77t-68.5 -71.5l-29 31q-27 29 -36.5 53.5t-9.5 48.5q1 29 9.5 53t18.5 47t18.5 46.5t8.5 51.5q1 35 -8.5 64t-21 50t-21.5 32l-10 11z" glyph-name="quotedblbase" horiz-adv-x="839" unicode="„"/><glyph d="M498 553l22 309h-379v167h379v438h166v-438h380v-167h-380l23 -309v-904h-211v904z" glyph-name="dagger" horiz-adv-x="1187" unicode="†"/><glyph d="M498 585l22 277h-379v167h379v438h166v-438h380v-167h-380l23 -277v-49l-23 -282h380v-167h-380v-438h-166v438h-379v167h379l-22 282v49z" glyph-name="daggerdbl" horiz-adv-x="1207" unicode="‡"/><glyph d="M247 621q0 74 28 138.5t76.5 113.5t114 77t139.5 28t139.5 -28t114 -77t77 -114t28.5 -138q0 -74 -28.5 -139.5t-77 -114t-114 -76.5t-139.5 -28t-139.5 28t-114 76.5t-76.5 114t-28 139.5z" glyph-name="bullet" horiz-adv-x="1218" unicode="•"/><glyph d="M85 138q0 32 12.5 60.5t33 49t48.5 33t61 12.5q32 0 60.5 -12.5t49.5 -33t33 -49t12 -60.5t-12 -60t-33 -48.5t-50 -32.5t-60 -12q-33 0 -61 12t-48.5 32.5t-33 48.5t-12.5 60zM507 138q0 32 12 60.5t33 49t49.5 33t61.5 12.5q32 0 60.5 -12.5t49.5 -33t33 -49t12 -60.5 t-12 -60t-33 -48.5t-50 -32.5t-60 -12q-33 0 -61.5 12t-49.5 32.5t-33 48.5t-12 60zM930 138q0 32 12 60.5t33 49t49.5 33t60.5 12.5t61 -12.5t50 -33t33 -49t12 -60.5t-12 -60t-33 -48.5t-50 -32.5t-61 -12q-33 0 -61 12t-49 32.5t-33 48.5t-12 60z" glyph-name="ellipsis" horiz-adv-x="1331" unicode="…"/><glyph d="M474 92q-33 -44 -77 -68t-103 -24h-170l1030 1375q33 44 77 68t103 24h170zM75 1108q0 78 26 146.5t73 119t112 80.5t143 30t143.5 -30t112.5 -80.5t73 -119t26 -146.5t-26 -146.5t-73 -119t-112.5 -80t-143.5 -29.5t-143 29.5t-112 80t-73 119t-26 146.5zM279 1108 q0 -35 10 -65.5t29.5 -53.5t47.5 -36.5t63 -13.5t63 13.5t47.5 36.5t30 53.5t10.5 65.5t-10.5 65.5t-30 53t-47.5 36t-63 13.5t-63 -13.5t-47.5 -36t-29.5 -53t-10 -65.5zM852 360q0 78 26 146.5t73 119.5t112 80.5t143 29.5t143.5 -29.5t112.5 -80.5t73.5 -119.5 t26.5 -146.5t-26.5 -146.5t-73.5 -119t-112.5 -79.5t-143.5 -29t-143 29t-112 79.5t-73 119t-26 146.5zM1056 360q0 -35 10 -65.5t29.5 -53.5t47.5 -36.5t63 -13.5t63 13.5t47.5 36.5t30 54t10.5 65q0 35 -10.5 66t-30 53.5t-47.5 35.5t-63 13t-63 -13t-47.5 -35.5 t-29.5 -53.5t-10 -66zM1598 360q0 78 26.5 146.5t73.5 119.5t112 80.5t143 29.5t143.5 -29.5t112.5 -80.5t73 -119.5t26 -146.5t-26 -146.5t-73 -119t-112.5 -79.5t-143.5 -29t-143 29t-112 79.5t-73.5 119t-26.5 146.5zM1802 360q0 -35 10.5 -65.5t30 -53.5t47.5 -36.5 t63 -13.5t63 13.5t48 36.5t30 54t10 65q0 35 -10 66t-30 53.5t-48 35.5t-63 13t-63 -13t-47.5 -35.5t-30 -53.5t-10.5 -66z" glyph-name="perthousand" horiz-adv-x="2388" unicode="‰"/><glyph d="M292 876q24 54 73 85t107 31h76l-162 -384q-11 -24 -28 -41t-35 -26q17 -9 35 -25.5t28 -40.5l162 -384h-76q-65 0 -110.5 31t-69.5 86q-5 12 -15.5 36.5t-23 55t-26.5 63.5t-27 63.5t-23 55t-15 36.5t-13 17t-9 7q2 0 9 5.5t13 18.5z" glyph-name="guilsinglleft" horiz-adv-x="691" unicode="‹"/><glyph d="M516 566q6 -14 13 -19t8 -5q-2 -2 -9 -7t-12 -17l-136 -323q-20 -46 -64.5 -75t-96.5 -29h-89l162 384q10 24 27.5 40t35.5 26q-18 9 -35 26.5t-28 40.5l-162 384h89q52 0 96 -28.5t65 -74.5z" glyph-name="guilsinglright" horiz-adv-x="687" unicode="›"/><glyph d="M-174 0q164 343 325 682t326 682q20 46 61.5 74.5t93.5 28.5h123l-653 -1365q-22 -46 -65 -74t-94 -28h-117v0z" glyph-name="fraction" horiz-adv-x="589" unicode="⁄"/><glyph d="M10 895h120q27 126 92.5 233.5t159.5 186.5t213.5 123.5t253.5 44.5q81 0 158.5 -17.5t149 -51t136 -80t118.5 -104.5l-50 -50q-26 -26 -57 -40t-69 -14q-28 0 -50.5 8t-44.5 22q-65 42 -137 66.5t-154 24.5q-85 0 -161 -26t-137.5 -73t-106.5 -111.5t-69 -141.5h324 v-117h-348q-2 -11 -2 -22v-22q0 -30 3 -55h347v-118h-320q25 -75 70.5 -137.5t106 -108t135.5 -70.5t158 -25t154.5 24.5t136.5 67.5q19 13 43.5 20.5t51.5 7.5q41 0 70.5 -13.5t55.5 -38.5l50 -50q-54 -58 -118.5 -105t-136 -80t-149 -50t-158.5 -17q-133 0 -251 43.5 t-212 120t-159.5 182t-93.5 229.5h-123v118h106q-1 13 -1.5 27t-0.5 28v22t1 22h-105v117z" glyph-name="Euro" horiz-adv-x="1500" unicode="€"/><glyph d="M51 1336v132h552v-133h-210v-512h-132v512zM1453 823h-133v394l-18 -36t-35.5 -72t-44 -89.5t-44 -89.5t-35.5 -72t-17 -35h-114l-193 388v-388h-132v645h97q25 0 49.5 -16.5t35.5 -38.5l200 -395l201 395q11 24 34.5 39.5t50.5 15.5h98v-645z" glyph-name="trademark" horiz-adv-x="1580" unicode="™"/><glyph d="M626 0h-536v225h310v117q-73 38 -130 92t-96.5 120.5t-60 141t-20.5 154.5q0 87 22.5 168t64 151t99.5 128t128.5 99.5t151.5 64t169 22.5t169 -22.5t151.5 -64t128.5 -99.5t99.5 -128t64 -151t22.5 -168q0 -80 -23 -156t-64 -142.5t-98 -120.5t-125 -91v-115h310v-225 h-537v493q67 7 124 39.5t98.5 82t65 110t23.5 125.5q0 83 -32 156t-86.5 128.5t-129 87.5t-158.5 32q-85 0 -159 -32t-129.5 -87.5t-87 -128.5t-31.5 -156q0 -67 23 -127t64 -108t96 -80t119 -42v-493z" glyph-name="uni2126" horiz-adv-x="1467" unicode="Ω"/><glyph d="M74 543q0 114 43.5 214.5t118 176.5t175.5 120.5t215 45.5q38 0 83 -10.5t86.5 -29.5t75 -45t50.5 -57q-40 93 -108.5 158.5t-149 110t-166.5 72t-160 46.5l33 220q162 -27 286 -79t215.5 -125t152.5 -163.5t98.5 -195t53.5 -219t16 -234.5v-5q0 -116 -44 -218 t-120.5 -177.5t-178 -119.5t-216.5 -44q-116 0 -218 44t-177.5 119.5t-119.5 177t-44 217.5zM307 543q0 -68 25.5 -127.5t70 -104t103.5 -70t127 -25.5t126.5 25.5t102.5 70t69.5 104t25.5 127.5t-25.5 127t-69.5 103.5t-103 70t-126 25.5q-68 0 -127 -25.5t-103.5 -70 t-70 -103.5t-25.5 -127z" glyph-name="partialdiff" horiz-adv-x="1291" unicode="∂"/><glyph d="M650 1467h220l640 -1467h-1500zM778 1101q-8 20 -13 40.5t-5 39.5q0 -13 -6 -38.5t-12 -41.5l-381 -871h798z" glyph-name="uni2206" horiz-adv-x="1539" unicode="∆"/><glyph d="M65 1237v230h1272v-230h-184v-1585h-235v1585h-438v-1585h-235v1585h-180z" glyph-name="product" horiz-adv-x="1400" unicode="∏"/><glyph d="M906 562q-20 -28 -59 -81t-88 -119.5t-103 -140t-103 -140t-88.5 -119.5t-60.5 -81h910v-231h-1240v101q0 73 41 129q20 28 59 81t87.5 120t102.5 140t102.5 140t87.5 120.5t59 80.5l-498 675q-41 55 -41 129v101h1240v-231h-904z" glyph-name="summation" horiz-adv-x="1400" unicode="∑"/><glyph d="M1097 571h-993v220h993v-220z" glyph-name="minus" horiz-adv-x="1203" unicode="−"/><glyph d="M299 638h-100q-40 0 -69 14.5t-46.5 38t-26.5 52.5t-9 59v64h413l149 -457q5 -17 9.5 -39.5t7.5 -42.5t4.5 -34t2.5 -18q0 4 1.5 18.5t4.5 34t7 40.5t9 39l370 1182q10 36 32 61t49.5 41t56 23t51.5 7h88l-528 -1686q-12 -39 -49.5 -57.5t-86.5 -18.5t-89.5 17t-51.5 53z " glyph-name="radical" horiz-adv-x="1235" unicode="√"/><glyph d="M1368 946q52 -52 80.5 -119t28.5 -141q0 -75 -29.5 -142t-79 -117t-116.5 -79.5t-143 -29.5t-142.5 30.5t-118.5 82.5q-18 23 -37.5 45.5t-38.5 45.5l-78 -92q-52 -52 -118.5 -82t-140.5 -30q-77 0 -144 29.5t-116.5 79.5t-78.5 117t-29 142t29 142t79 117t117 79.5 t143 29.5q75 0 141.5 -30.5t118.5 -82.5l77 -91l76 91q52 52 119 82.5t142 30.5q74 0 140.5 -28t118.5 -80zM432 544q13 0 30 4.5t41.5 20t58.5 43.5t81 74q-47 46 -81.5 73.5t-59 42.5t-41.5 20t-29 5q-30 0 -55 -11t-44 -30.5t-29.5 -45t-10.5 -54.5t10.5 -54.5t29.5 -45 t44 -31t55 -11.5zM1111 544q29 0 54.5 11.5t44.5 31t29.5 45t10.5 54.5t-10.5 54.5t-29.5 45t-44.5 30.5t-54.5 11q-15 0 -33 -5t-41.5 -20.5t-57 -43t-79.5 -72.5q47 -46 81 -74t58.5 -43.5t41.5 -20t30 -4.5z" glyph-name="infinity" horiz-adv-x="1567" unicode="∞"/><glyph d="M266 1113v41t1 41q0 65 19.5 122.5t56 101.5t89.5 69.5t121 25.5q30 0 67.5 -9t75.5 -24.5t72 -35.5t55 -41q-18 -29 -34.5 -52.5t-35 -40.5t-42 -26t-55.5 -9q-24 0 -55 9q-5 1 -14.5 3t-24.5 2q-17 0 -29.5 -9.5t-20 -24.5t-11.5 -31.5t-4 -28.5v-1176q0 -20 -0.5 -40 t-0.5 -40q-3 -65 -22 -123t-54.5 -102t-88 -69.5t-121.5 -25.5q-30 0 -68 9.5t-75.5 24.5t-71.5 35t-55 42l37 56q22 33 53 52.5t75 19.5q23 0 56 -10q5 -1 14 -3t24 -2q17 0 30 10t21 24t12 30.5t4 30.5v1174z" glyph-name="integral" horiz-adv-x="766" unicode="∫"/><glyph d="M799 401q-61 0 -116 16t-104.5 34.5t-94 34.5t-87.5 16q-35 0 -66.5 -6.5t-57.5 -14t-44 -14.5t-24 -9v216q18 4 38 12t43.5 15.5t50.5 13t57 5.5q58 0 110.5 -16t101.5 -34.5t96.5 -34t96.5 -15.5t100 11t91 22v-206q-12 -3 -31.5 -10.5t-44 -15t-54 -14t-61.5 -6.5z M798 589q32 0 61.5 6t54.5 13.5t44.5 16t31.5 11.5v206q-39 -11 -90.5 -23t-101.5 -12q-48 0 -95 16t-95.5 34.5t-100 34t-110.5 15.5q-32 0 -59 -5t-50.5 -12.5t-44 -15.5t-38.5 -13v-215q6 2 24 9.5t43 15t56 13t65 5.5q43 0 88.5 -16t95.5 -34t105 -34t116 -16z" glyph-name="approxequal" horiz-adv-x="1210" unicode="≈"/><glyph d="M669 1187l111 -30l-43 -161h312v-219h-371l-50 -186h421v-219h-479l-55 -208l-113 30l48 178h-294v219h351l50 186h-401v219h460z" glyph-name="notequal" horiz-adv-x="1204" unicode="≠"/><glyph d="M122 956q0 52 28.5 85t74.5 55l749 322v-126q0 -52 -33 -97t-87 -68q-9 -3 -48 -19.5t-93.5 -40t-115.5 -49.5t-115 -49t-92 -40t-45 -20q-2 -1 -8.5 -3t-14.5 -4l-21 -6l20 -6q8 -2 14.5 -4t8.5 -3q6 -3 44.5 -19.5t92.5 -39.5t116 -50.5t116 -50.5t92.5 -39t44.5 -19 q59 -26 91.5 -70t32.5 -94v-126l-749 322q-46 20 -74.5 53t-28.5 87v119zM122 616l747 -324q49 -20 77 -61t28 -91v-131l-749 323q-46 20 -74.5 53t-28.5 86v145z" glyph-name="lessequal" horiz-adv-x="1187" unicode="≤"/><glyph d="M1058 837q0 -53 -29 -86t-76 -54l-747 -322v126q0 50 31.5 94t91.5 70q6 3 44.5 19t92 39t116 50.5t116.5 50.5t92 39.5t45 19.5q2 1 8.5 3t14.5 4l21 6l-21 6q-8 2 -14.5 4t-8.5 3q-7 3 -45.5 20t-92.5 40t-115.5 49t-115.5 49.5t-93.5 40t-47.5 19.5q-53 23 -86 68 t-33 97v126l747 -322q45 -22 75 -55t30 -85v-119zM1058 464q0 -52 -29.5 -85.5t-75.5 -53.5l-747 -323v131q0 25 7.5 49t21.5 45t33 38t42 27l748 324v-152z" glyph-name="greaterequal" horiz-adv-x="1187" unicode="≥"/><glyph d="M1106 684l-386 -888h-220l-386 888l386 887h220zM629 1199q-8 20 -13.5 48t-6.5 47q-2 -19 -6 -46.5t-12 -48.5l-225 -515l225 -517q9 -24 13 -50.5t5 -45.5q2 19 6.5 47t13.5 49l226 517z" glyph-name="lozenge" horiz-adv-x="1187" unicode="◊"/><glyph d="M243 -171h98q40 0 61 -22t21 -58v-9.5t-1 -9.5l-21 -130q-5 -36 -31 -58t-63 -22h-64v309z" glyph-name="uniF6C3" horiz-adv-x="663" unicode=""/><glyph glyph-name="uniF731" horiz-adv-x="0" unicode=""/><glyph d="M953 0v844h-508v-844h-235v844h-173v130q0 46 34.5 70t119.5 24h19v110q0 65 20 119t57.5 93.5t90.5 61.5t120 22q29 0 66 -9.5t75 -25t71.5 -35t55.5 -39.5q-8 -12 -15.5 -24.5t-15.5 -24.5q-24 -38 -59 -57t-80 -19q-10 0 -17 1t-15.5 2.5t-21 3t-33.5 1.5 q-16 0 -28 -7t-20 -19t-12.5 -26t-4.5 -29v-47.5t1 -51.5h508v110q0 65 20 119t57.5 93.5t91 61.5t119.5 22q29 0 66.5 -9.5t75 -25t71.5 -35t55 -39.5q-8 -12 -15 -24.5t-15 -24.5q-24 -38 -59.5 -57t-80.5 -19q-10 0 -16.5 1t-15.5 2.5t-21 3t-34 1.5q-16 0 -28 -7 t-20 -19t-12 -26t-4 -29v-47.5t1 -52.5h257v-223h-257v-844h-236z" glyph-name="uniFB00" horiz-adv-x="1486" unicode="ﬀ"/><glyph d="M210 0v844h-173v130q0 46 34.5 70t119.5 24h19v110q0 65 20 119t57.5 93.5t90.5 61.5t120 22q29 0 66 -9.5t75 -25t71.5 -35t55.5 -39.5q-8 -12 -15.5 -24.5t-15.5 -24.5q-24 -38 -59 -57t-80 -19q-10 0 -17 1t-15.5 2.5t-21 3t-33.5 1.5q-16 0 -28 -7t-20 -19t-12.5 -26 t-4.5 -29v-47.5t1 -52.5h704v-1067h-236v844h-468v-844h-235zM879 1346q0 32 12 59.5t32.5 48t48.5 32.5t60 12t59.5 -12t48.5 -32.5t33 -48.5t12 -59q0 -32 -12 -60t-33 -48.5t-48.5 -32.5t-59.5 -12t-60 12t-48.5 32.5t-32.5 48.5t-12 60z" glyph-name="uniFB01" horiz-adv-x="1320" unicode="ﬁ"/><glyph d="M1149 1467v-1467h-236v1467h236zM210 0v844h-173v130q0 46 35 70t119 24h19v110q0 65 20 118q20 54 57 94q37 39 91 62q53 22 120 22q29 0 66 -10q37 -9 75 -24t72 -35q34 -19 55 -40q-8 -12 -15 -25q-7 -12 -16 -24q-24 -38 -59 -57t-80 -19q-10 0 -17 1t-15 3 q-9 2 -21 3q-12 2 -34 1q-16 0 -28 -7t-20 -19t-12 -26t-5 -29v-47q0 -25 1 -53h257v-223h-257v-844h-235z" glyph-name="uniFB02" horiz-adv-x="1318" unicode="ﬂ"/><glyph d="M953 0v844h-508v-844h-235v844h-173v130q0 46 34.5 70t119.5 24h19v110q0 65 20 119t57.5 93.5t90.5 61.5t120 22q29 0 66 -9.5t75 -25t71.5 -35t55.5 -39.5q-8 -12 -15.5 -24.5t-15.5 -24.5q-24 -38 -59 -57t-80 -19q-10 0 -17 1t-15.5 2.5t-21 3t-33.5 1.5 q-16 0 -28 -7t-20 -19t-12.5 -26t-4.5 -29v-47.5t1 -51.5h508v110q0 65 20 119t57.5 93.5t91 61.5t119.5 22q29 0 66.5 -9.5t75 -25t71.5 -35t55 -39.5q-8 -12 -15 -24.5t-15 -24.5q-24 -38 -59.5 -57t-80.5 -19q-10 0 -16.5 1t-15.5 2.5t-21 3t-34 1.5q-16 0 -28 -7 t-20 -19t-12 -26t-4 -29v-48t1 -57h703v-1062h-235v844h-468v-844h-236zM1622 1346q0 32 12.5 59.5t33 48t48.5 32.5t60 12t59.5 -12t48.5 -32.5t32.5 -48.5t11.5 -59q0 -32 -11.5 -60t-32.5 -48.5t-49 -32.5t-59 -12q-32 0 -60 12t-48.5 32.5t-33 48.5t-12.5 60z" glyph-name="uniFB03" horiz-adv-x="2064" unicode="ﬃ"/><glyph d="M953 0v844h-508v-844h-235v844h-173v130q0 46 34.5 70t119.5 24h19v110q0 65 20 119t57.5 93.5t90.5 61.5t120 22q29 0 66 -9.5t75 -25t71.5 -35t55.5 -39.5q-8 -12 -15.5 -24.5t-15.5 -24.5q-24 -38 -59 -57t-80 -19q-10 0 -17 1t-15.5 2.5t-21 3t-33.5 1.5 q-16 0 -28 -7t-20 -19t-12.5 -26t-4.5 -29v-47.5t1 -52.5h458q7 0 15.5 0.5t16.5 0.5h18v110q0 65 20 119t57.5 93.5t91 61.5t119.5 22q29 0 66.5 -9.5t75 -25t71.5 -35t55 -39.5q-8 -12 -15 -24.5t-15 -24.5q-24 -38 -59.5 -57t-80.5 -19q-10 0 -16.5 1t-15.5 2.5t-21 3 t-34 1.5q-16 0 -28 -7t-20 -19t-12 -26t-4 -29v-47.5t1 -52.5h257v-223h-257v-844h-236zM1892 1467v-1467h-235v1467h235z" glyph-name="uniFB04" horiz-adv-x="2062" unicode="ﬄ"/><glyph d="M1325 844v-551q0 -32 17 -57t48 -25q24 0 45 6q22 6 40 6q33 0 59 -13q27 -13 48 -31q21 -19 36 -42q16 -23 29 -41q-22 -22 -56 -41q-34 -20 -71 -36q-38 -15 -76 -24t-67 -9q-67 0 -120 22q-54 22 -91 61t-58 93q-20 54 -19 119v563h-174v140q0 26 12 42t32 26 q20 9 47 12q27 4 56 4h27v224q0 35 8 65q9 30 20 51q12 26 29 45h179v-385h287v-224h-287zM62 222q19 9 39 20q19 10 38 19t40 15q20 6 41 7q26 1 49 -11q24 -11 55 -32q22 -15 48 -25q27 -10 57 -10q26 0 52 8q27 8 48 25q22 16 35 40t14 54q0 25 -8 42t-27 32t-51 29 t-81 31q-57 19 -113 45q-55 26 -99 62q-44 37 -70 90q-27 52 -27 125q0 65 30 120q29 55 76 95q48 40 109 63t124 24q65 0 119 -24t94 -53q40 -30 64 -57t30 -34q-23 -20 -41 -37q-18 -16 -37 -29q-18 -12 -37 -19t-43 -7q-16 0 -32 7q-16 6 -34 13q-17 8 -36 15t-42 6 q-28 0 -49 -9q-22 -9 -38 -22q-15 -13 -23 -29q-8 -15 -7 -27q0 -26 13 -43q13 -18 34 -31t48 -22t53 -17q65 -19 124 -45q59 -25 105 -63t73 -93t27 -134q0 -71 -28 -134t-78 -112q-50 -48 -118 -76q-69 -28 -152 -28q-56 0 -111 16q-54 16 -101 47q-48 30 -88 74t-68 99z " glyph-name="uniFB06" horiz-adv-x="1670" unicode="ﬆ"/><glyph d="M231 -80h98q39 0 61 -21t22 -58q0 -4 -0.5 -9.5t-1.5 -10.5l-21 -130q-5 -35 -31 -57t-62 -22h-65v308z" glyph-name="glyph389" horiz-adv-x="650"/><glyph d="M615 1835q0 -65 -24.5 -117.5t-66.5 -91t-96.5 -59.5t-115.5 -21q-60 0 -114.5 21t-96.5 59.5t-66.5 91t-24.5 117.5h61q34 0 62.5 -16t42.5 -43q20 -34 55 -50.5t81 -16.5t81 16t56 51q15 29 42.5 44t63.5 15h60z" glyph-name="glyph390" horiz-adv-x="628"/><glyph d="M110 1706q0 42 15.5 79.5t43.5 65t65 43.5t79 16q43 0 80.5 -16t65 -43.5t43.5 -65t16 -79.5t-16 -79.5t-43.5 -65t-65 -43.5t-80.5 -16q-42 0 -79 16t-65 43.5t-43.5 65t-15.5 79.5zM244 1706q0 -30 20 -50t49 -20q30 0 50.5 20t20.5 50t-20.5 50.5t-50.5 20.5 t-49.5 -20.5t-19.5 -50.5z" glyph-name="glyph391" horiz-adv-x="628"/><glyph d="M432 1539q-37 0 -70 13.5t-63.5 29.5t-56 29.5t-45.5 13.5q-15 0 -24 -7.5t-13.5 -19.5t-6 -25t-1.5 -25h-157q0 50 11 94.5t35.5 77t60 51t84.5 18.5q34 0 66 -13.5t60.5 -29t55 -29t51.5 -13.5q33 0 42 19t9 49h161q-4 -54 -13.5 -96.5t-31 -71.5t-58.5 -45.5 t-96 -19.5z" glyph-name="glyph392" horiz-adv-x="628"/><glyph d="M583 1623q-23 -25 -59.5 -33.5t-94.5 -8.5h-78l188 228q22 27 60 35t99 8h116zM286 1626q-24 -27 -61.5 -36.5t-95.5 -8.5h-66q75 115 111 168t42 59q24 27 64.5 35.5t99.5 8.5h103z" glyph-name="glyph393" horiz-adv-x="730"/><glyph d="M232 1478h99q40 0 61 -22t21 -58v-10t-1 -10l-21 -130q-5 -36 -31.5 -58t-62.5 -22h-65v310z" glyph-name="glyph394" horiz-adv-x="628"/><glyph d="M109 1855h151q94 0 131 -50q6 -7 38.5 -59t98.5 -166h-105q-93 0 -131 52z" glyph-name="glyph395" horiz-adv-x="628"/><glyph d="M346 1632q-39 -51 -132 -51h-105q67 113 99 165t38 59q39 51 131 52h151z" glyph-name="glyph396" horiz-adv-x="675"/><glyph d="M175 1717q0 31 11.5 57.5t31.5 46.5t47 31.5t58 11.5t57.5 -11.5t46 -31.5t31.5 -46.5t12 -57.5t-12 -57.5t-31.5 -46.5t-46.5 -31.5t-57 -11.5q-31 0 -58 11.5t-47 31.5t-31.5 46.5t-11.5 57.5z" glyph-name="glyph397" horiz-adv-x="650"/><glyph d="M4 1701q0 27 10 50.5t27 41t40.5 28t50.5 10.5t50.5 -10.5t41.5 -28t28 -41.5t10 -50q0 -27 -10 -50.5t-28 -41t-41.5 -27t-50.5 -9.5t-50.5 9.5t-40.5 27t-27 41t-10 50.5zM365 1701q0 27 10 50.5t27.5 41t40.5 28t50 10.5t50 -10.5t41 -28t28.5 -41.5t10.5 -50 q0 -27 -10.5 -50.5t-28.5 -41t-41.5 -27t-49.5 -9.5q-27 0 -50 9.5t-40.5 27t-27.5 41t-10 50.5z" glyph-name="glyph398" horiz-adv-x="628"/><glyph d="M31 1766h584v-188h-584v188z" glyph-name="glyph399" horiz-adv-x="628"/><glyph d="M355 1680q-6 7 -9.5 15.5t-5.5 13.5q-3 -5 -6.5 -13t-8.5 -15l-32 -32q-26 -27 -46 -46.5t-41 -32t-46.5 -19t-61.5 -6.5h-82l177 233q18 27 51.5 39t79.5 12h32q91 0 130 -51l88 -116t90 -117h-82q-45 0 -77 11.5t-57 30.5t-46.5 42.5t-46.5 50.5z" glyph-name="glyph400" horiz-adv-x="688"/><glyph d="M339 1663q2 2 5.5 11.5t9.5 18.5q38 35 61.5 60t46 41.5t49.5 25t70 8.5h82l-178 -233q-19 -26 -51 -39t-79 -12h-32q-92 0 -132 51l-176 233h82q43 0 74.5 -11.5t56.5 -30t47 -43t49 -50.5q7 -7 10 -17.5t5 -12.5z" glyph-name="glyph401" horiz-adv-x="688"/><glyph glyph-name="glyph402" horiz-adv-x="1427"/><glyph d="M953 0v844h-508v-844h-235v844h-173v130q0 46 34.5 70t119.5 24h19v110q0 65 20 119t57.5 93.5t90.5 61.5t120 22q29 0 66 -9.5t75 -25t71.5 -35t55.5 -39.5q-8 -12 -15.5 -24.5t-15.5 -24.5q-24 -38 -59 -57t-80 -19q-10 0 -17 1t-15.5 2.5t-21 3t-33.5 1.5 q-16 0 -28 -7t-20 -19t-12.5 -26t-4.5 -29v-47.5t1 -51.5h508v110q0 65 20 119t57.5 93.5t91 61.5t119.5 22q29 0 66.5 -9.5t75 -25t71.5 -35t55 -39.5q-8 -12 -15 -24.5t-15 -24.5q-24 -38 -59.5 -57t-80.5 -19q-10 0 -16.5 1t-15.5 2.5t-21 3t-34 1.5q-16 0 -28 -7 t-20 -19t-12 -26t-4 -29v-48t1 -57h703v-1015q0 -6 -1 -12t-3 -12q-5 -71 -30.5 -135t-66.5 -118t-95.5 -95.5t-115.5 -66.5q-17 37 -34 76.5t-17 79.5q0 32 12 56.5t29.5 46.5t36 44.5t30.5 51.5q9 22 14 46t5 47v788h-467v-844h-236zM1622 1346q0 32 12.5 59.5t33 48 t48.5 32.5t60 12t60 -12t48.5 -32.5t32.5 -48.5t12 -59q0 -32 -12 -60t-32.5 -48.5t-49 -32.5t-59.5 -12q-32 0 -60 12t-48.5 32.5t-33 48.5t-12.5 60z" glyph-name="glyph403" horiz-adv-x="2060"/><glyph d="M210 0v844h-173v130q0 46 34.5 70t119.5 24h19v110q0 65 20 119t57.5 93.5t90.5 61.5t120 22q29 0 66 -9.5t75 -25t71.5 -35t55.5 -39.5q-8 -12 -15.5 -24.5t-15.5 -24.5q-24 -38 -59 -57t-80 -19q-10 0 -17 1t-15.5 2.5t-21 3t-33.5 1.5q-16 0 -28 -7t-20 -19t-12.5 -26 t-4.5 -29v-48t1 -57h704v-1015q0 -6 -1 -12t-3 -12q-5 -71 -30.5 -135t-66.5 -118t-95.5 -95.5t-115.5 -66.5q-17 37 -34.5 76.5t-17.5 79.5q0 32 12.5 56.5t30 46.5t36 44.5t30.5 51.5q9 22 13.5 46t4.5 47v788h-467v-844h-235zM879 1346q0 32 12 59.5t32.5 48t48.5 32.5 t60 12t60 -12t48.5 -32.5t33 -48.5t12.5 -59q0 -32 -12.5 -60t-33 -48.5t-48.5 -32.5t-60 -12t-60 12t-48.5 32.5t-32.5 48.5t-12 60z" glyph-name="glyph404" horiz-adv-x="1316"/></font>
</defs>
</svg>
