<?xml version="1.0" standalone="no"?>
<!DOCTYPE svg PUBLIC "-//W3C//DTD SVG 1.1//EN" "http://www.w3.org/Graphics/SVG/1.1/DTD/svg11.dtd">
<svg xmlns="http://www.w3.org/2000/svg"><metadata>This SVG WebFont was generated by YouWorkForThem.
Copyright  2013 by Jan Tonellato. All rights reserved.</metadata><defs><font horiz-adv-x="1368" id="ywftsvg"><font-face ascent="1681" bbox="-141 -461 2398 1997" cap-height="1434" descent="-367" font-family="" font-stretch="expanded" font-weight="700" panose-1="0 0 8 5 0 0 0 0 0 0" underline-position="0" underline-thickness="0" unicode-range="U+0020-F8FF" units-per-em="2048" x-height="1147"/><missing-glyph d="M115 174v1086q0 80 49 127t125 47h719q76 0 125 -47.5t49 -126.5v-1086q0 -82 -48.5 -128t-125.5 -46h-719q-78 0 -126 46t-48 128zM313 45h670q78 0 115 36t37 120v1032q0 84 -41 120t-131 36h-629q-96 0 -134 -35t-38 -121v-1032q-1 -156 151 -156zM852 717l229 -228 l-204 -204l-230 225l-227 -225l-205 204l227 228l-229 227l207 205l227 -225l230 225l206 -205z" horiz-adv-x="1296"/><glyph d="M115 174v1086q0 80 49 127t125 47h719q76 0 125 -47.5t49 -126.5v-1086q0 -82 -48.5 -128t-125.5 -46h-719q-78 0 -126 46t-48 128zM313 45h670q78 0 115 36t37 120v1032q0 84 -41 120t-131 36h-629q-96 0 -134 -35t-38 -121v-1032q-1 -156 151 -156zM852 717l229 -228 l-204 -204l-230 225l-227 -225l-205 204l227 228l-229 227l207 205l227 -225l230 225l206 -205z" glyph-name=".notdef" horiz-adv-x="1296"/><glyph glyph-name="glyph1" horiz-adv-x="0"/><glyph glyph-name="glyph2" horiz-adv-x="681"/><glyph glyph-name="space" horiz-adv-x="512" unicode=" "/><glyph d="M528 1434v-1024h-344v1024h344zM356 -18q-84 0 -130 45t-46 115t46 115.5t130 45.5t129 -45t45 -116t-45 -115.5t-129 -44.5z" glyph-name="exclam" horiz-adv-x="712" unicode="!"/><glyph d="M424 1434l-16 -514h-287l-17 514h320zM879 1434l-19 -514h-285l-18 514h322z" glyph-name="quotedbl" horiz-adv-x="985" unicode="&quot;"/><glyph d="M1020 444h137l-84 -301h-135l-39 -143h-260l39 143h-225l-39 -143h-258l39 143h-138l84 301h135l70 258h-139l86 302h133l39 143h258l-39 -143h225l39 143h260l-39 -143h140l-84 -302h-135zM592 721l-80 -293h260l80 293h-260z" glyph-name="numbersign" horiz-adv-x="1366" unicode="#"/><glyph d="M639 -184h-229v170q-301 43 -355 303l295 78q10 -57 53 -101.5t125 -44.5q127 0 127 98q0 74 -62 96t-126 37t-90 23q-143 41 -224 116t-81 224t84 236.5t235 109.5v170h232v-170q272 -43 338 -278l-281 -76q-23 121 -164 121t-141 -94q0 -57 46.5 -83.5t146.5 -50.5 t183 -51.5t153.5 -100t70.5 -216.5t-90 -233t-246 -113v-170z" glyph-name="dollar" horiz-adv-x="1030" unicode="$"/><glyph d="M358.5 463q-147.5 0 -219 93t-71.5 259t71.5 260t219 94t219 -94t71.5 -260t-71.5 -259t-219 -93zM1040 1147l-385 -1147h-166l383 1147h168zM359 651q46 0 66.5 34t20.5 130t-20 130t-66 34t-68 -35t-22 -129t21.5 -129t67.5 -35zM1175.5 -12q-147.5 0 -220 94 t-72.5 259t72.5 259t220 94t218 -94t70.5 -259t-70.5 -259t-218 -94zM1175 178q46 0 68.5 34t22.5 129t-22.5 129t-68.5 34t-69 -34t-23 -129t23 -129t69 -34z" glyph-name="percent" horiz-adv-x="1531" unicode="%"/><glyph d="M1061 469v-100q0 -193 -129 -293.5t-371 -100.5t-361.5 93.5t-119.5 248.5q0 100 49 171t129 96v4q-72 18 -123 84.5t-51 179.5q0 317 444 317q203 0 327 -70.5t192 -219.5l-297 -80q-49 106 -190.5 106t-141.5 -90q0 -115 162 -115h647v-231h-166zM735 469h-174 q-152 0 -151 -115q0 -118 162 -118t163 151v82z" glyph-name="ampersand" horiz-adv-x="1269" unicode="&amp;"/><glyph d="M424 1434l-16 -514h-287l-17 514h320z" glyph-name="quotesingle" horiz-adv-x="530" unicode="'"/><glyph d="M430 585.5q0 -614.5 367 -726.5l-84 -316q-82 27 -148.5 59.5t-159 111.5t-154 183.5t-106.5 283.5t-45 404.5t45 404.5t107.5 283.5t155 183.5t158 110.5t147.5 58.5l84 -315q-367 -111 -367 -725.5z" glyph-name="parenleft" horiz-adv-x="845" unicode="("/><glyph d="M416 587q0 613 -367 726l84 315q82 -27 148.5 -58.5t158.5 -110.5t153.5 -184.5t106.5 -284.5t45 -403t-45 -403.5t-107.5 -284t-154.5 -183t-157.5 -111.5t-147.5 -60l-84 316q367 113 367 726z" glyph-name="parenright" horiz-adv-x="845" unicode=")"/><glyph d="M580 1434v-201l190 61l64 -204l-193 -56l123 -162l-174 -129l-115 170l-117 -170l-176 127l125 164l-192 56l65 204l187 -61l-2 201h215z" glyph-name="asterisk" horiz-adv-x="948" unicode="*"/><glyph d="M1100 434h-266v-293h-295l-2 293h-269v281h269v293h294v-293h269v-281z" glyph-name="plus" unicode="+"/><glyph d="M115 156q0 60 46 102.5t125 42.5t134 -55.5t55 -152.5t-66.5 -180t-179.5 -116l-125 140q92 20 125 94q-53 -2 -83.5 31.5t-30.5 93.5z" glyph-name="comma" horiz-adv-x="579" unicode=","/><glyph d="M1001 434h-833v281h833v-281z" glyph-name="hyphen" horiz-adv-x="1169" unicode="-"/><glyph d="M291 -18q-84 0 -130 45t-46 115t46 115.5t130 45.5t129 -45t45 -116t-45 -115.5t-129 -44.5z" glyph-name="period" horiz-adv-x="579" unicode="."/><glyph d="M1018 1434l-705 -1434h-286l714 1434h277z" glyph-name="slash" horiz-adv-x="1044" unicode="/"/><glyph d="M553 1169q225 0 355 -150.5t130 -445t-130 -445.5t-355 -151t-355 151t-130 445.5t130 445t355 150.5zM553 872q-86 0 -123 -66.5t-37 -232t37 -232.5t122 -67t124 68t39 232t-38 231t-124 67z" glyph-name="zero" horiz-adv-x="1105" unicode="0"/><glyph d="M356 0v530q0 86 6 203l3 39h-7q-43 -60 -71 -80l-49 -45l-189 234l328 266h303v-1147h-324z" glyph-name="one" horiz-adv-x="813" unicode="1"/><glyph d="M92 0v350l387 262q90 63 127 101.5t37 83.5t-34 72.5t-97 27.5q-113 0 -135 -102l-305 82q74 293 458 292q215 0 329 -92t114 -256t-72 -233.5t-115 -99t-116 -70.5l-213 -127l2 -10q115 8 174 8h344v-289h-885z" glyph-name="two" horiz-adv-x="1048" unicode="2"/><glyph d="M995 322q0 -156 -119.5 -250.5t-319.5 -94.5q-406 0 -488 324l286 78q35 -127 176 -127q72 0 111 31.5t39 85.5q0 106 -141 106h-133v225h118q66 0 104 30t38 77t-36 74.5t-102 27.5t-103.5 -30.5t-43.5 -77.5l-291 76q74 293 467 292q207 0 316.5 -77.5t109.5 -213.5 t-70.5 -203t-152.5 -75v-8q100 -6 167.5 -78t67.5 -192z" glyph-name="three" horiz-adv-x="1062" unicode="3"/><glyph d="M915 0h-323v244h-526v282l356 621h493v-633h164v-270h-164v-244zM594 907h-14l-215 -385l4 -8h223v56v136z" glyph-name="four" horiz-adv-x="1150" unicode="4"/><glyph d="M582 750q188 0 291.5 -102.5t103.5 -275.5t-121.5 -284t-317.5 -111t-315 80t-151 203l278 70q37 -86 162 -86q74 0 117 36.5t43 98t-43 98.5t-128 37t-132 -57l-263 69l115 621h684v-301h-473l-10 -64l-14 -63l10 -4q61 35 164 35z" glyph-name="five" horiz-adv-x="1048" unicode="5"/><glyph d="M635 731q154 0 260 -98t106 -268t-129 -279t-342 -109t-344 109t-131 311q0 119 51.5 229.5t157.5 245.5l221 275h340l-346 -453l6 -6q49 43 150 43zM534.5 252q75.5 0 118.5 36t43 99.5t-42 98t-118 34.5t-119.5 -35t-43.5 -99t43 -99t118.5 -35z" glyph-name="six" horiz-adv-x="1058" unicode="6"/><glyph d="M61 846v301h947v-232l-516 -915h-332l317 559q89 151 144 240l22 39l-6 8h-576z" glyph-name="seven" horiz-adv-x="1050" unicode="7"/><glyph d="M68 319q0 119 66.5 190t160.5 95v6q-59 16 -118.5 80t-59.5 184t113.5 207.5t302 87.5t302 -87t113.5 -209t-58.5 -185t-117.5 -78v-6q92 -25 159.5 -94.5t67.5 -203.5t-117.5 -232.5t-341.5 -98.5t-348 96t-124 248zM397 844q0 -106 136 -106t137 106q0 53 -38 79.5 t-99.5 26.5t-98.5 -27.5t-37 -78.5zM377 340q0 -59 43.5 -92t113.5 -33t113 33t43 92t-44 91t-115 32t-112.5 -32t-41.5 -91z" glyph-name="eight" horiz-adv-x="1069" unicode="8"/><glyph d="M66 778q0 166 134 278.5t338 112.5t340 -111.5t136 -297.5t-73 -300.5t-153 -199.5l-233 -260h-358l393 436l-6 8q-43 -39 -146 -38q-166 0 -269 103t-103 269zM533 895q-75 0 -118.5 -35t-43.5 -102q1 -137 163 -137t162 139q0 66 -44 100.5t-119 34.5z" glyph-name="nine" horiz-adv-x="1071" unicode="9"/><glyph d="M291 655q-84 0 -130 45t-46 116t46 116t130 45t129 -45t45 -116t-45 -116t-129 -45zM291 -18q-84 0 -130 45t-46 115t46 115.5t130 45.5t129 -45t45 -116t-45 -115.5t-129 -44.5z" glyph-name="colon" horiz-adv-x="579" unicode=":"/><glyph d="M291 655q-84 0 -130 45t-46 116t46 116t130 45t129 -45t45 -116t-45 -116t-129 -45zM115 158q0 60 46 102.5t125 42.5t134 -56.5t55 -152.5t-66.5 -179t-179.5 -116l-125 140q92 20 125 94q-53 -2 -83.5 31.5t-30.5 93.5z" glyph-name="semicolon" horiz-adv-x="579" unicode=";"/><glyph d="M1122 66l-923 397v219l923 399v-290l-538 -216v-6l538 -213v-290z" glyph-name="less" unicode="&lt;"/><glyph d="M1100 678h-832v280h832v-280zM1100 203h-832v280h832v-280z" glyph-name="equal" unicode="="/><glyph d="M784 569v6l-538 216v290l923 -399v-219l-923 -397v290z" glyph-name="greater" unicode=">"/><glyph d="M408 410v348q213 66 290.5 119t77.5 115t-42 103.5t-133 41.5t-141 -35t-79 -107l-324 86q47 174 192 277.5t371 103.5t364 -119.5t138 -304.5q0 -301 -368 -436v-192h-346zM580 -18q-84 0 -130.5 45t-46.5 115t46.5 115.5t130.5 45.5t129 -45t45 -116t-45 -115.5 t-129 -44.5z" glyph-name="question" horiz-adv-x="1179" unicode="?"/><glyph d="M806 678q-62 0 -98 -43t-36 -120t35.5 -120t97 -43t96.5 43t37 117v397h283v-407q0 -109 16 -156t70 -47q106 0 106 254t-155.5 415.5t-424.5 161.5t-431 -173t-162 -453t159.5 -426t425.5 -146q182 0 314 80l172 -86q-197 -160 -494 -159q-350 0 -555 193.5t-205 550.5 t211 571t566 214t559 -211t204 -546q0 -186 -90 -309.5t-243 -123.5q-193 0 -256 154h-7q-23 -66 -93 -114t-181 -48q-172 0 -266 113t-94 305t89 304t269 112q76 0 131 -32t76 -66h6v-314q0 74 -35 116t-97 42z" glyph-name="at" horiz-adv-x="1654" unicode="@"/><glyph d="M1071 238h-596l-86 -238h-362l553 1434h391l555 -1434h-369zM770 1047q0 -2 -80 -209l-102 -287h370l-102 285q-18 45 -38.5 102t-31.5 82l-10 27h-6z" glyph-name="A" horiz-adv-x="1552" unicode="A"/><glyph d="M1245 418q0 -178 -130 -298t-384 -120h-616v1434h618q188 0 312 -110t124 -263q0 -109 -57 -186.5t-127 -102.5v-8q113 -33 186.5 -122t73.5 -224zM459 866h209q70 0 112.5 39t42.5 101t-43 102.5t-114 40.5h-207v-283zM459 285h241q86 0 134.5 45t48.5 120t-49.5 118.5 t-133.5 43.5h-241v-327z" glyph-name="B" horiz-adv-x="1294" unicode="B"/><glyph d="M801 -29q-324 0 -534 208t-210 538t210 537.5t534 207.5q238 0 415 -115.5t252 -297.5l-340 -93q-117 182 -344 183q-174 0 -277.5 -117t-103.5 -305.5t105.5 -304t273.5 -115.5q133 0 224.5 60.5t138.5 156.5l338 -90q-80 -209 -264.5 -331t-417.5 -122z" glyph-name="C" horiz-adv-x="1533" unicode="C"/><glyph d="M115 1434h610q326 0 541 -202t215 -521.5t-215 -515t-539 -195.5h-612v1434zM459 319h248q178 0 303 97.5t125 294t-126 300t-302 103.5h-248v-795z" glyph-name="D" horiz-adv-x="1538" unicode="D"/><glyph d="M115 0v1434h1044v-320h-700v-246h516v-286h-516v-263h710v-319h-1054z" glyph-name="E" horiz-adv-x="1255" unicode="E"/><glyph d="M1141 1114h-682v-274h530v-320h-530v-520h-344v1434h1026v-320z" glyph-name="F" horiz-adv-x="1214" unicode="F"/><glyph d="M1202 100h-4q-66 -55 -175.5 -92t-227.5 -37q-307 0 -522.5 210t-215.5 538t210 535.5t534 207.5q238 0 417 -115.5t250 -297.5l-340 -93q-109 182 -344 183q-172 0 -276.5 -117t-104.5 -306t115 -304t305 -115q133 0 228.5 45t136.5 102v68h-361v319h680v-831h-307v50 l2 42v8z" glyph-name="G" horiz-adv-x="1597" unicode="G"/><glyph d="M1010 0v563h-551v-563h-344v1434h344v-541h551v541h344v-1434h-344z" glyph-name="H" horiz-adv-x="1468" unicode="H"/><glyph d="M115 0v1434h344v-1434h-344z" glyph-name="I" horiz-adv-x="573" unicode="I"/><glyph d="M954 1434v-797q0 -324 -144 -495t-410 -171t-400 142l199 264q69 -80 195 -80t171 85t45 288v764h344z" glyph-name="J" horiz-adv-x="1058" unicode="J"/><glyph d="M459 0h-344v1434h344v-619h6l518 619h410l-510 -580l538 -854h-401l-391 604l-170 -190v-414z" glyph-name="K" horiz-adv-x="1443" unicode="K"/><glyph d="M115 0v1434h344v-1115h643v-319h-987z" glyph-name="L" horiz-adv-x="1165" unicode="L"/><glyph d="M459 0h-344v1434h364l361 -641h6l362 641h351v-1434h-345v138l1 314l1 226l2 85l1 97h-5l-20 -37q-20 -35 -55 -99.5t-66 -117.5l-139 -252h-193l-139 248q-31 55 -66.5 119.5t-56.5 101.5l-18 37h-6v-6l1 -32v-59l2 -85z" glyph-name="M" horiz-adv-x="1673" unicode="M"/><glyph d="M1077 1434h344v-1434h-350l-610 856h-6v-12l2 -73v-59l2 -142v-570h-344v1434h348l610 -840h6v42l-2 100v698z" glyph-name="N" horiz-adv-x="1536" unicode="N"/><glyph d="M57 716.5q0 327.5 213 536.5t543 209t543 -209t213 -536.5t-213 -536.5t-543 -209t-543 209t-213 536.5zM403 716.5q0 -190.5 115 -305t295 -114.5t295 114.5t115 305t-115 306.5t-295 116t-295 -116t-115 -306.5z" glyph-name="O" horiz-adv-x="1626" unicode="O"/><glyph d="M115 1434h534q264 0 414.5 -131.5t150.5 -360.5t-151.5 -362.5t-413.5 -133.5h-190v-446h-344v1434zM459 745h200q106 0 158.5 50.5t52.5 138.5t-52 137t-159 49h-200v-375z" glyph-name="P" horiz-adv-x="1257" unicode="P"/><glyph d="M1569 717q0 -283 -160 -479.5t-424 -249.5v-277h-344v277q-264 53 -424 249.5t-160 479.5q0 328 213 536.5t543 208.5t543 -208.5t213 -536.5zM812 297q179 0 295 115.5t116 305.5t-115 305.5t-295 115.5t-295 -116t-115 -306.5t115 -305t294 -114.5z" glyph-name="Q" horiz-adv-x="1626" unicode="Q"/><glyph d="M459 473v-473h-344v1434h544q268 0 420 -130t152 -356q0 -147 -69.5 -252.5t-200.5 -154.5l327 -541h-407l-269 473h-153zM459 748h223q197 0 197 184q0 90 -50.5 140t-148.5 50h-221v-374z" glyph-name="R" horiz-adv-x="1320" unicode="R"/><glyph d="M668 274q211 0 211 138q0 78 -74 108q-56 22 -146 38q-89 14 -153 30q-144 34 -264 118q-148 102 -148 316.5t146.5 327t396.5 112.5q465 0 582 -375l-328 -88q-53 162 -249.5 162t-197.5 -127q0 -90 117 -128q45 -14 80 -21.5t81 -18t98 -20.5q142 -27 262 -110 q146 -100 145.5 -320.5t-146 -332.5t-411.5 -112q-513 0 -615 387l328 88q23 -82 95.5 -127t189.5 -45z" glyph-name="S" horiz-adv-x="1284" unicode="S"/><glyph d="M1284 1114h-438v-1114h-344v1114h-439v320h1221v-320z" glyph-name="T" horiz-adv-x="1347" unicode="T"/><glyph d="M1352 1434v-795q0 -319 -169 -493.5t-456 -174.5t-456 174t-169 494v795h349v-785q0 -182 69.5 -267t210.5 -85q281 0 281 352v785h340z" glyph-name="U" horiz-adv-x="1454" unicode="U"/><glyph d="M973 0h-438l-512 1434h391l221 -680q25 -76 46 -142.5t25 -77.5l54 -165h6l29 93q29 93 94 286l223 686h373z" glyph-name="V" horiz-adv-x="1507" unicode="V"/><glyph d="M1085 903q0 -23 -84 -325l-157 -578h-393l-418 1434h383l162 -613q23 -88 46 -180t34.5 -133t11.5 -43h8q2 4 80 301l143 532h418l141 -536q76 -289 80 -297h6q4 8 92 344l170 625h342l-417 -1434h-377l-176 592q-43 144 -78 274l-8 37h-9z" glyph-name="W" horiz-adv-x="2181" unicode="W"/><glyph d="M768 453q-2 0 -143 -205l-168 -248h-416l532 737l-507 697h417l164 -238l144 -201h2q4 0 133 201l153 238h412l-502 -697l520 -737h-432l-307 453h-2z" glyph-name="X" horiz-adv-x="1550" unicode="X"/><glyph d="M901 0h-344v565l-534 869l397 2q221 -392 230 -408l75 -131l12 -23h6l15 23q36 75 82 147l229 390h367l-535 -869v-565z" glyph-name="Y" horiz-adv-x="1460" unicode="Y"/><glyph d="M1288 319v-319h-1212v319l645 654q37 37 72.5 70.5t50.5 50.5l16 14l-4 8h-12l-206 -1q-206 -1 -542 -1v320h1192v-332l-606 -619q-85 -85 -145 -139l-21 -18l4 -9h14l206 1q204 1 548 1z" glyph-name="Z" horiz-adv-x="1366" unicode="Z"/><glyph d="M811 -127v-307h-623v2074h623v-305h-297v-1462h297z" glyph-name="bracketleft" horiz-adv-x="888" unicode="["/><glyph d="M1018 0h-287l-704 1434h278z" glyph-name="backslash" horiz-adv-x="1044" unicode="\"/><glyph d="M78 1341v308h622v-2075h-622v305h295v1462h-295z" glyph-name="bracketright" horiz-adv-x="888" unicode="]"/><glyph d="M682 1151l-303 -403l-250 163l410 525h286l412 -525l-250 -163z" glyph-name="asciicircum" unicode="^"/><glyph d="M1399 -272h-1284v272h1284v-272z" glyph-name="underscore" horiz-adv-x="1511" unicode="_"/><glyph d="M618 1915l230 -371h-305l-191 287z" glyph-name="grave" horiz-adv-x="1198" unicode="`"/><glyph d="M850 201h-430l-64 -201h-329l407 1147h408l407 -1147h-336zM639 885h-8q-2 -4 -86 -275l-41 -133h260l-47 146q-78 244 -78 262z" glyph-name="a" horiz-adv-x="1275" unicode="a"/><glyph d="M1090 336q0 -139 -112 -237.5t-329 -98.5h-534v1147h542q160 0 266.5 -92t106.5 -215q0 -86 -45 -143.5t-104 -82.5v-8q94 -31 151.5 -100.5t57.5 -169.5zM438 694h148q119 0 119 93t-119 94h-148v-187zM438 266h185q129 0 129 104.5t-129 104.5h-185v-209z" glyph-name="b" horiz-adv-x="1138" unicode="b"/><glyph d="M682 -23q-279 0 -452 167t-173 426t173 429t450 170q195 0 340 -89t211 -249l-307 -81q-100 123 -239.5 122.5t-218.5 -83t-79 -217t81 -216.5t212 -82q162 0 240 121l311 -82q-74 -156 -213 -246t-336 -90z" glyph-name="c" horiz-adv-x="1284" unicode="c"/><glyph d="M115 1147h471q281 0 461 -155.5t180 -423.5t-179.5 -418t-463.5 -150h-469v1147zM438 301h142q158 0 237.5 62.5t79.5 205.5q0 276 -313 277h-146v-545z" glyph-name="d" horiz-adv-x="1284" unicode="d"/><glyph d="M115 0v1147h903v-301h-580v-139h398v-254h-398v-152h590v-301h-913z" glyph-name="e" horiz-adv-x="1114" unicode="e"/><glyph d="M965 846h-527v-203h381v-283h-381v-360h-323v1147h850v-301z" glyph-name="f" horiz-adv-x="1038" unicode="f"/><glyph d="M991 96h-4q-49 -51 -137 -85t-197 -34q-252 0 -424 169t-172 428t174.5 427t450.5 168q193 0 339 -87t216 -251l-297 -79q-76 125 -258 125q-137 0 -216 -79t-79 -221.5t88 -223.5t248 -81q72 0 151.5 19.5t112.5 44.5v63h-297v285h588v-684h-289l2 84v12z" glyph-name="g" unicode="g"/><glyph d="M1159 0h-325v422h-396v-422h-323v1147h323v-424h396v424h325v-1147z" glyph-name="h" horiz-adv-x="1273" unicode="h"/><glyph d="M115 0v1147h323v-1147h-323z" glyph-name="i" horiz-adv-x="552" unicode="i"/><glyph d="M836 1147v-619q0 -268 -127 -409.5t-359 -141.5t-350 113l178 236q57 -52 162 -52t138.5 61.5t33.5 215.5v596h324z" glyph-name="j" horiz-adv-x="937" unicode="j"/><glyph d="M438 0h-323v1147h323v-473h8q12 12 101 119l303 354h403l-411 -451l428 -696h-371l-293 475l-168 -184v-291z" glyph-name="k" horiz-adv-x="1294" unicode="k"/><glyph d="M115 0v1147h323v-846h504v-301h-827z" glyph-name="l" horiz-adv-x="1007" unicode="l"/><glyph d="M1044 0v666h-6l-196 -392h-205l-201 412h-8v-686h-313v1147h395l152 -287q23 -43 46 -90t35 -70l13 -24h8q4 0 41 73.5t57 112.5l148 285h360v-1147h-326z" glyph-name="m" horiz-adv-x="1482" unicode="m"/><glyph d="M438 0h-323v1147h336l448 -623h6v623h326v-1147h-340l-447 645h-8v-27l2 -74v-544z" glyph-name="n" horiz-adv-x="1345" unicode="n"/><glyph d="M57 573.5q0 260.5 174.5 428t445.5 167.5t445 -167.5t174 -428t-174 -428.5t-445 -168t-445.5 168t-174.5 428.5zM387 573.5q0 -133.5 79 -216.5t210 -83t211 82t80 217.5t-80 217t-211 81.5t-210 -82.5t-79 -216z" glyph-name="o" horiz-adv-x="1353" unicode="o"/><glyph d="M115 1147h471q225 0 355 -112.5t130 -300.5t-129 -296t-356 -108h-148v-330h-323v1147zM438 594h160q70 0 106.5 37t36.5 96t-35.5 97t-107.5 38h-160v-268z" glyph-name="p" horiz-adv-x="1116" unicode="p"/><glyph d="M1296 573q0 -219 -126 -375.5t-334 -203.5v-232h-324v234q-207 47 -331 203.5t-124 373.5q0 260 174.5 428t445.5 168t445 -168t174 -428zM676 274q131 0 211 82t80 217.5t-80 217t-211 81.5t-210 -82.5t-79 -216t79 -216.5t210 -83z" glyph-name="q" horiz-adv-x="1347" unicode="q"/><glyph d="M438 360v-360h-323v1147h483q231 0 360 -106.5t129 -288.5q0 -238 -192 -324l260 -428h-348l-217 362l-105 -2h-47zM438 608h178q139 0 139.5 123t-139.5 123h-178v-246z" glyph-name="r" horiz-adv-x="1187" unicode="r"/><glyph d="M567 227q152 0 152 105q0 44 -22.5 61t-40.5 25q-27 12 -176.5 43t-203.5 53q-54 24 -101 60q-99 75 -99 245t122 260q120 90 332 90q421 0 506 -286l-282 -76q-33 113 -188.5 113t-155.5 -97q0 -47 48 -68.5t128 -36.5t96 -20q369 -70 369 -360q0 -184 -132.5 -272.5 t-326.5 -88.5q-468 0 -537 312l295 78q12 -53 64.5 -96.5t152.5 -43.5z" glyph-name="s" horiz-adv-x="1105" unicode="s"/><glyph d="M1118 846h-364v-846h-326v846h-365v301h1055v-301z" glyph-name="t" horiz-adv-x="1181" unicode="t"/><glyph d="M1198 1147v-592q0 -291 -147.5 -434.5t-401.5 -143.5t-400.5 143.5t-146.5 434.5v592h330v-623q0 -250 221 -250t221 250v623h324z" glyph-name="u" horiz-adv-x="1300" unicode="u"/><glyph d="M858 0h-397l-438 1147h362l162 -453q78 -221 121 -350h6q23 62 41 117t38.5 113.5t41.5 121.5l153 451h346z" glyph-name="v" horiz-adv-x="1318" unicode="v"/><glyph d="M1120 0l-202 674h-7l-204 -674h-340l-334 1147h346l115 -424q56 -200 71 -272l8 -29h7l6 29q21 72 69 241l103 363h352l98 -365q48 -189 60 -239l6 -29h6l6 29q8 29 28.5 105.5t45.5 166.5l121 424h313l-334 -1147h-340z" glyph-name="w" horiz-adv-x="1826" unicode="w"/><glyph d="M631 340q-4 0 -107 -158l-116 -182h-367l403 582l-376 565h387l106 -168q104 -166 107 -166h2q4 0 112 174l97 160h350l-379 -565l407 -582h-391l-233 340h-2z" glyph-name="x" horiz-adv-x="1298" unicode="x"/><glyph d="M766 0h-326v391l-417 756h370l121 -232q41 -80 92 -186l15 -29h6l14 29q14 27 41 83t51 103l119 232h336l-422 -756v-391z" glyph-name="y" horiz-adv-x="1210" unicode="y"/><glyph d="M1098 301v-301h-1022v313l438 385q47 41 58 50l102 88l-4 10h-576v301h1004v-313l-404 -361q-76 -68 -136 -116t-60 -50l4 -8h24l33 1z" glyph-name="z" horiz-adv-x="1173" unicode="z"/><glyph d="M588 1032v-106q0 -146 -57.5 -222t-94.5 -92t-47 -16q26 0 68.5 -36t86.5 -97.5t44 -194.5v-108q0 -184 81 -249t218 -65v-290q-289 0 -450 150.5t-161 399.5v142q0 138 -60.5 169.5t-72.5 31.5t-20 2h-8v292l8 2h17q18 0 45.5 15.5t59 48.5t31.5 137v141 q0 248 161 397.5t450 149.5v-293q-221 0 -260 -106.5t-39 -202.5z" glyph-name="braceleft" horiz-adv-x="966" unicode="{"/><glyph d="M123 1587h268v-1739h-268v1739z" glyph-name="bar" horiz-adv-x="514" unicode="|"/><glyph d="M379 160v106q0 146 58 222t94 92t47 16q-29 0 -70 36t-85 97.5t-44 194.5v108q0 184 -81 249t-218 65v290q289 0 448.5 -150.5t159.5 -400.5v-141q0 -136 61 -168.5t74 -32.5t21 -2h8v-292l-8 -3h-18q-18 0 -46 -15t-60 -47t-32 -138v-142q0 -248 -159.5 -397 t-448.5 -149v292q222 0 260.5 107t38.5 203z" glyph-name="braceright" horiz-adv-x="966" unicode="}"/><glyph d="M918 379q-80 0 -216.5 41t-220.5 41q-137 0 -217 -88l-55 270q25 33 93.5 64.5t148 31.5t216.5 -39.5t237 -39.5t202 88l51 -271q-20 -33 -89.5 -65.5t-149.5 -32.5z" glyph-name="asciitilde" unicode="~"/><glyph d="M356 1452q84 0 130 -45t46 -116t-46 -116t-130 -45t-129 46t-45 116t45 115t129 45zM184 0v1024h344v-1024h-344z" glyph-name="exclamdown" horiz-adv-x="712" unicode="¡"/><glyph d="M610 315q143 0 213 131l301 -79q-47 -123 -148.5 -211t-232.5 -121v-197h-276v199q-180 45 -295 194.5t-115 355.5t111 347t299 182v213h276v-213q133 -29 234.5 -108.5t148.5 -212.5l-299 -86q-68 139 -215 139q-117 0 -178 -70.5t-61 -193.5t63 -196t174 -73z" glyph-name="cent" horiz-adv-x="1177" unicode="¢"/><glyph d="M1014 301v-301h-940v301q57 8 74.5 29.5t17.5 77.5v4h-96v217h75q-16 147 -16 198q0 158 104.5 250t309.5 92q412 0 465 -348l-299 -82q-23 92 -60 125t-92 33t-84 -27.5t-29 -93.5t13 -147h325v-217h-297v-15q0 -59 -32 -90l4 -8h27l41 1z" glyph-name="sterling" horiz-adv-x="1087" unicode="£"/><glyph d="M1235 573.5q0 -161.5 -92 -307.5l133 -135l-166 -168l-137 137q-137 -88 -301 -88t-295 86l-135 -135l-168 168l133 135q-92 145 -92 308t86 298l-140 140l166 168l142 -140q133 92 301 92t313 -92l139 140l168 -168l-141 -140q86 -137 86 -298.5zM676 829 q-108 0 -183 -72.5t-75 -186.5t73.5 -183.5t183.5 -69.5t182.5 70.5t72.5 184.5t-73 185.5t-181 71.5z" glyph-name="currency" horiz-adv-x="1351" unicode="¤"/><glyph d="M1010 786v-174h-191l-37 -77h228v-175h-293v-360h-326v360h-285v175h220l-37 77h-183v174h103l-168 361h356l109 -303q49 -141 51 -142h6q2 0 51 142l109 303h346l-168 -361h109z" glyph-name="yen" horiz-adv-x="1110" unicode="¥"/><glyph d="M391 1004h-268v583h268v-583zM391 -152h-268v584h268v-584z" glyph-name="brokenbar" horiz-adv-x="514" unicode="¦"/><glyph d="M678 209q186 0 186 92q0 35 -22.5 49.5t-54.5 25t-116.5 23.5t-195.5 35q-311 61 -311 271q0 156 149 229q-129 70 -129 223.5t122 229t345 75.5q444 0 549 -276l-280 -76q-63 133 -256 133q-137 0 -138 -78q0 -38 20.5 -51.5t36 -21t50.5 -14.5t207 -33t277.5 -94 t105.5 -199q0 -158 -152 -224q145 -84 146 -241q0 -315 -498 -316q-225 0 -380 69t-189 218l319 86q23 -135 209 -135zM473 758q0 -81 96.5 -101t168 -33.5t102.5 -19.5q70 31 69.5 98.5t-69.5 96.5t-240 53l-29 6q-98 -28 -98 -100z" glyph-name="section" unicode="§"/><glyph d="M380.5 1561q-63.5 0 -106.5 44t-43 105.5t43.5 106.5t107.5 45t106 -45t42 -106.5t-43 -105.5t-106.5 -44zM817.5 1561q-63.5 0 -106.5 44t-43 105.5t44 106.5t106 45t106.5 -45t44.5 -106.5t-44 -105.5t-107.5 -44z" glyph-name="dieresis" horiz-adv-x="1198" unicode="¨"/><glyph d="M800.5 1288q313.5 0 529.5 -208t216 -536t-216 -537.5t-529.5 -209.5t-528.5 209t-215 538t215 536.5t528.5 207.5zM801 1124q-252 0 -414 -161.5t-162 -417.5t162 -420t414 -164t413.5 163t161.5 420t-161.5 418.5t-413.5 161.5zM797 150q-178 0 -288 108.5t-110 280.5 t111 282.5t287 110.5q127 0 218 -59.5t132 -163.5l-203 -54q-47 70 -136 70t-138 -50t-49 -134t50 -133.5t139 -49.5t138 68l205 -68q-45 -94 -138 -151t-218 -57z" glyph-name="copyright" horiz-adv-x="1603" unicode="©"/><glyph d="M272 481h-198l231 666h266l226 -666h-205l-35 109h-250zM436 979h-8l-18 -55q-17 -56 -27 -88l-29 -97h156l-31 97q-10 35 -13 44zM801 354v-207h-729v207h729z" glyph-name="ordfeminine" horiz-adv-x="872" unicode="ª"/><glyph d="M606 1055l185 -185l-308 -290v-9l310 -288l-189 -189l-481 481zM1200 1055l184 -185l-305 -290v-9l307 -288l-188 -189l-481 481z" glyph-name="guillemotleft" horiz-adv-x="1509" unicode="«"/><glyph d="M1001 434h-833v281h833v-281z" glyph-name="uni00AD" horiz-adv-x="1169" unicode="­"/><glyph d="M800.5 1288q313.5 0 529.5 -208t216 -536t-216 -537.5t-529.5 -209.5t-528.5 209t-215 538t215 536.5t528.5 207.5zM801 1124q-252 0 -414 -161.5t-162 -417.5t162 -420t414 -164t413.5 163t161.5 420t-161.5 418.5t-413.5 161.5zM705 422v-254h-226v756h330 q156 0 243 -72t87 -203t-131 -186l159 -295h-249l-134 254h-79zM705 586h116q88 0 88 71.5t-88 71.5h-116v-143z" glyph-name="registered" horiz-adv-x="1603" unicode="®"/><glyph d="M940 1550h-682v283h682v-283z" glyph-name="macron" horiz-adv-x="1198" unicode="¯"/><glyph d="M310 1159q-128 0 -207.5 75t-79.5 200t79.5 199.5t207.5 74.5t207 -73.5t79 -199.5t-79 -201t-207 -75zM310 1325q48 0 78 29.5t30 79.5t-30 80t-79 30t-77.5 -29.5t-28.5 -79.5t29.5 -80t77.5 -30z" glyph-name="degree" horiz-adv-x="618" unicode="°"/><glyph d="M1100 952v-280h-264v-242h-299l-2 242h-267v280h267v279h299v-279h266zM268 283h832v-281h-832v281z" glyph-name="plusminus" unicode="±"/><glyph d="M61 975v252l267 162q96 55 96 116q0 80 -88 80t-107 -82l-178 49q57 229 307 230q133 0 207 -63.5t74 -190.5t-119 -217q-31 -25 -83 -59.5t-89 -59.5l-37 -23l4 -10q74 6 105 6h229v-190h-588z" glyph-name="uni00B2" horiz-adv-x="696" unicode="²"/><glyph d="M653 1180q0 -88 -79.5 -155t-202.5 -67q-276 0 -328 228l188 57q14 -98 115 -98q47 0 75 23.5t28 60.5t-27 59.5t-74 22.5h-55v135h45q45 0 71.5 23.5t26.5 58.5t-24.5 55.5t-67.5 20.5q-92 0 -108 -101l-179 47q16 106 91 169t210.5 63t207 -59.5t71.5 -145.5 t-37 -136.5t-90 -58.5v-8q57 -8 100 -57t43 -137z" glyph-name="uni00B3" horiz-adv-x="696" unicode="³"/><glyph d="M655 1544h-303l228 371l268 -84z" glyph-name="acute" horiz-adv-x="1198" unicode="´"/><glyph d="M961 -287v1114h-138v-1114h-344v668q-205 0 -313.5 100.5t-108.5 286.5t108.5 282.5t313.5 96.5h826v-1434h-344z" glyph-name="paragraph" horiz-adv-x="1419" unicode="¶"/><glyph d="M291 416q-84 0 -130 45t-46 116t46 115.5t130 44.5t129 -45.5t45 -115.5t-45 -115t-129 -45z" glyph-name="periodcentered" horiz-adv-x="579" unicode="·"/><glyph d="M856 -150q0 -215 -315 -215q-125 0 -189 25v209q49 -16 135 -16q135 0 136 47q0 61 -256 59v166h227v-66q119 -4 190.5 -55.5t71.5 -153.5z" glyph-name="cedilla" horiz-adv-x="1198" unicode="¸"/><glyph d="M647 975h-516v188h150v195q0 106 14 153h-10l-19 -21q-18 -22 -28 -32l-48 -49l-137 131l238 225h207v-600h149v-190z" glyph-name="uni00B9" horiz-adv-x="696" unicode="¹"/><glyph d="M72 819q0 152 101 251t248.5 99t250 -99t102.5 -251t-102.5 -251t-250 -99t-248.5 99t-101 251zM272 818q0 -71 39 -115t112 -44t111.5 44.5t38.5 114.5t-38.5 115.5t-111.5 45.5t-112 -45t-39 -116zM754 143h-662v205h662v-205z" glyph-name="ordmasculine" horiz-adv-x="845" unicode="º"/><glyph d="M905 94l-188 189l309 288v9l-307 290l184 185l483 -480zM311 94l-188 189l307 288v9l-305 290l184 185l484 -480z" glyph-name="guillemotright" horiz-adv-x="1509" unicode="»"/><glyph d="M647 643h-516v188h150v195q0 106 14 154h-10q-6 -9 -47 -54l-48 -49l-137 131l238 226h207v-600h149v-191zM1186 1434l-428 -1434h-203l428 1434h203zM1618 2h-207v162h-344v178l231 451h320v-439h100v-190h-100v-162zM1411 354v154q0 88 4 121h-12q-2 0 -63.5 -128 t-65.5 -139l6 -8h131z" glyph-name="onequarter" horiz-adv-x="1740" unicode="¼"/><glyph d="M647 643h-516v188h150v195q0 106 14 154h-10q-6 -9 -47 -54l-48 -49l-137 131l238 226h207v-600h149v-191zM1186 1434l-428 -1434h-203l428 1434h203zM1106 2v252l266 162q96 57 96 116q0 80 -88 80t-106 -82l-178 50q57 229 307 229q133 0 206.5 -63.5t73.5 -190.5 t-118 -217q-55 -44 -172 -117l-37 -24l4 -11q74 6 104 7h230v-191h-588z" glyph-name="onehalf" horiz-adv-x="1740" unicode="½"/><glyph d="M653 848q0 -88 -79.5 -154.5t-202.5 -66.5q-276 0 -328 227l188 57q14 -98 115 -98q47 0 75 23.5t28 60.5t-27 59.5t-74 22.5h-55v135h45q45 0 71.5 23.5t26.5 58.5t-24.5 55.5t-67.5 20.5q-92 0 -108 -101l-179 48q16 106 91 168.5t210.5 62.5t207 -59.5t71.5 -145.5 t-37 -136t-90 -58v-9q57 -8 100 -57t43 -137zM1186 1434l-428 -1434h-203l428 1434h203zM1618 2h-207v162h-344v178l231 451h320v-439h100v-190h-100v-162zM1411 354v154q0 88 4 121h-12q-2 0 -63.5 -128t-65.5 -139l6 -8h131z" glyph-name="threequarters" horiz-adv-x="1740" unicode="¾"/><glyph d="M600 1452q84 0 130 -45t46 -116t-46 -116t-130 -45t-129 46t-45 116t45 115t129 45zM772 1024v-348q-213 -66 -291 -119t-78 -115t42.5 -103.5t134.5 -41.5t141 35t78 106l323 -86q-47 -174 -192.5 -277.5t-371.5 -103.5t-363.5 120t-137.5 304q0 301 371 436v193h344z " glyph-name="questiondown" horiz-adv-x="1179" unicode="¿"/><glyph d="M631 1544l-191 287l267 84l229 -371h-305zM1071 238h-596l-86 -238h-362l553 1434h391l555 -1434h-369zM770 1047q0 -2 -80 -209l-102 -287h370l-102 285q-18 45 -38.5 102t-31.5 82l-10 27h-6z" glyph-name="Agrave" horiz-adv-x="1552" unicode="À"/><glyph d="M920 1544h-306l230 371l268 -84zM1071 238h-596l-86 -238h-362l553 1434h391l555 -1434h-369zM770 1047q0 -2 -80 -209l-102 -287h370l-102 285q-18 45 -38.5 102t-31.5 82l-10 27h-6z" glyph-name="Aacute" horiz-adv-x="1552" unicode="Á"/><glyph d="M549 1513l-148 181l365 266l364 -266l-145 -181l-219 154zM1071 238h-596l-86 -238h-362l553 1434h391l555 -1434h-369zM770 1047q0 -2 -80 -209l-102 -287h370l-102 285q-18 45 -38.5 102t-31.5 82l-10 27h-6z" glyph-name="Acircumflex" horiz-adv-x="1552" unicode="Â"/><glyph d="M610 1626q-117 0 -182 -57l-49 248q18 23 72.5 44t123.5 21t177 -30.5t194 -30.5t162 57l49 -248q-18 -23 -72.5 -44t-122.5 -21t-177 30.5t-175 30.5zM1071 238h-596l-86 -238h-362l553 1434h391l555 -1434h-369zM770 1047q0 -2 -80 -209l-102 -287h370l-102 285 q-18 45 -38.5 102t-31.5 82l-10 27h-6z" glyph-name="Atilde" horiz-adv-x="1552" unicode="Ã"/><glyph d="M556 1561q-62 0 -106 44t-44 105.5t45 106.5t107 45t105.5 -45t43.5 -106.5t-44.5 -105.5t-106.5 -44zM993.5 1561q-63.5 0 -106.5 44t-43 105.5t43 106.5t105 45t106.5 -45t44.5 -106.5t-43 -105.5t-106.5 -44zM1071 238h-596l-86 -238h-362l553 1434h391l555 -1434 h-369zM770 1047q0 -2 -80 -209l-102 -287h370l-102 285q-18 45 -38.5 102t-31.5 82l-10 27h-6z" glyph-name="Adieresis" horiz-adv-x="1552" unicode="Ä"/><glyph d="M775 1495q-128 0 -207 65.5t-79 185.5t79 185.5t207 65.5t207 -65.5t79 -185.5t-79 -185.5t-207 -65.5zM774 1831q-45 0 -71.5 -22.5t-26.5 -62.5t26.5 -62.5t71.5 -22.5q98 0 98 85t-98 85zM1071 238h-596l-86 -238h-362l553 1434h391l555 -1434h-369zM770 1047 q0 -2 -80 -209l-102 -287h370l-102 285q-18 45 -38.5 102t-31.5 82l-10 27h-6z" glyph-name="Aring" horiz-adv-x="1552" unicode="Å"/><glyph d="M1978 301v-301h-1046v254h-449l-92 -254h-364l555 1434h1384v-301h-700v-259h534v-288h-534v-285h712zM932 541v592h-127l-217 -592h344z" glyph-name="AE" horiz-adv-x="2064" unicode="Æ"/><glyph d="M1094 -150q0 -215 -316 -215q-125 0 -188 25v209q45 -16 135 -16q135 0 135 47q0 61 -258 59v37q-246 59 -395.5 253.5t-149.5 471.5q0 326 210 533.5t534 207.5q238 0 415 -115.5t252 -297.5l-340 -93q-117 182 -344 183q-174 0 -277.5 -117t-103.5 -305.5t105.5 -304 t273.5 -115.5q133 0 224.5 60.5t138.5 156.5l338 -90q-59 -156 -180 -264.5t-279 -155.5q70 -57 70 -154z" glyph-name="Ccedilla" horiz-adv-x="1533" unicode="Ç"/><glyph d="M594 1915l229 -371h-305l-192 287zM115 0v1434h1044v-320h-700v-246h516v-286h-516v-263h710v-319h-1054z" glyph-name="Egrave" horiz-adv-x="1255" unicode="È"/><glyph d="M807 1544h-305l229 371l266 -84zM115 0v1434h1044v-320h-700v-246h516v-286h-516v-263h710v-319h-1054z" glyph-name="Eacute" horiz-adv-x="1255" unicode="É"/><glyph d="M1018 1694l-148 -181l-217 154l-219 -154l-145 181l364 266zM115 0v1434h1044v-320h-700v-246h516v-286h-516v-263h710v-319h-1054z" glyph-name="Ecircumflex" horiz-adv-x="1255" unicode="Ê"/><glyph d="M442.5 1561q-63.5 0 -106.5 44t-43 105.5t45 106.5t107 45t105.5 -45t43.5 -106.5t-44 -105.5t-107.5 -44zM880.5 1561q-63.5 0 -107.5 44t-44 105.5t44 106.5q45 45 107 45t106 -45t44 -106.5t-43 -105.5t-106.5 -44zM115 0v1434h1044v-320h-700v-246h516v-286h-516 v-263h710v-319h-1054z" glyph-name="Edieresis" horiz-adv-x="1255" unicode="Ë"/><glyph d="M219 1915l227 -371h-303l-192 287zM115 0v1434h344v-1434h-344z" glyph-name="Igrave" horiz-adv-x="573" unicode="Ì"/><glyph d="M432 1544h-305l229 371l267 -84zM115 0v1434h344v-1434h-344z" glyph-name="Iacute" horiz-adv-x="573" unicode="Í"/><glyph d="M571 1706l-157 -172l-127 113l-127 -113l-158 172l285 254zM115 0v1434h344v-1434h-344z" glyph-name="Icircumflex" horiz-adv-x="573" unicode="Î"/><glyph d="M114.5 1561q-63.5 0 -106.5 44t-43 105.5t45.5 106.5t107.5 45t105 -45t43 -106.5t-44 -105.5t-107.5 -44zM458 1561q-62 0 -106.5 44t-44.5 105.5t44.5 106.5t106.5 45t106 -45t44 -106.5t-44 -105.5t-106 -44zM115 0v1434h344v-1434h-344z" glyph-name="Idieresis" horiz-adv-x="573" unicode="Ï"/><glyph d="M115 1434h610q326 0 541 -202t215 -521.5t-215 -515t-539 -195.5h-612v575h-95v304h95v555zM459 319h248q178 0 303 97.5t125 294t-126 300t-302 103.5h-248v-235h293v-304h-293v-256z" glyph-name="Eth" horiz-adv-x="1538" unicode="Ð"/><glyph d="M952 1565q-68 0 -178 30.5t-176 30.5q-119 0 -180 -57l-51 248q18 23 72.5 44t123 21t178 -30.5t195.5 -30.5t162 57l49 -248q-18 -23 -72.5 -44t-122.5 -21zM1077 1434h344v-1434h-350l-610 856h-6v-12l2 -73v-59l2 -142v-570h-344v1434h348l610 -840h6v42l-2 100v698z " glyph-name="Ntilde" horiz-adv-x="1536" unicode="Ñ"/><glyph d="M748 1915l227 -371h-303l-193 287zM57 716.5q0 327.5 213 536.5t543 209t543 -209t213 -536.5t-213 -536.5t-543 -209t-543 209t-213 536.5zM403 716.5q0 -190.5 115 -305t295 -114.5t295 114.5t115 305t-115 306.5t-295 116t-295 -116t-115 -306.5z" glyph-name="Ograve" horiz-adv-x="1626" unicode="Ò"/><glyph d="M961 1544h-306l230 371l266 -84zM57 716.5q0 327.5 213 536.5t543 209t543 -209t213 -536.5t-213 -536.5t-543 -209t-543 209t-213 536.5zM403 716.5q0 -190.5 115 -305t295 -114.5t295 114.5t115 305t-115 306.5t-295 116t-295 -116t-115 -306.5z" glyph-name="Oacute" horiz-adv-x="1626" unicode="Ó"/><glyph d="M1171 1694l-147 -181l-217 154l-219 -154l-148 181l367 266zM57 716.5q0 327.5 213 536.5t543 209t543 -209t213 -536.5t-213 -536.5t-543 -209t-543 209t-213 536.5zM403 716.5q0 -190.5 115 -305t295 -114.5t295 114.5t115 305t-115 306.5t-295 116t-295 -116 t-115 -306.5z" glyph-name="Ocircumflex" horiz-adv-x="1626" unicode="Ô"/><glyph d="M1002 1565q-69 0 -177 30.5t-176 30.5q-115 0 -180 -57l-51 248q18 23 74 44t124 21t176.5 -30.5t194.5 -30.5t162 57l49 -248q-18 -23 -72.5 -44t-123.5 -21zM57 716.5q0 327.5 213 536.5t543 209t543 -209t213 -536.5t-213 -536.5t-543 -209t-543 209t-213 536.5z M403 716.5q0 -190.5 115 -305t294 -114.5t295 115.5t116 305.5t-115 305.5t-295 115.5t-295 -116t-115 -306.5z" glyph-name="Otilde" horiz-adv-x="1626" unicode="Õ"/><glyph d="M595.5 1561q-63.5 0 -106.5 44t-43 105.5t45.5 106.5t107.5 45t105.5 -45t43.5 -106.5t-44.5 -105.5t-108 -44zM1033 1561q-62 0 -106 44t-44 105.5t44 106.5t106 45t106.5 -45t44.5 -106.5t-44.5 -105.5t-106.5 -44zM57 716.5q0 327.5 213 536.5t543 209t543 -209 t213 -536.5t-213 -536.5t-543 -209t-543 209t-213 536.5zM403 716.5q0 -190.5 115 -305t295 -114.5t295 114.5t115 305t-115 306.5t-295 116t-295 -116t-115 -306.5z" glyph-name="Odieresis" horiz-adv-x="1626" unicode="Ö"/><glyph d="M889 575l229 -227l-205 -207l-229 228l-229 -228l-205 207l229 227l-229 228l205 203l229 -224l229 224l205 -205z" glyph-name="multiply" unicode="×"/><glyph d="M1569 708q0 -320 -213 -528.5t-543 -208.5q-193 0 -350 76l-166 -215l-221 170l164 211q-182 205 -182 519t212.5 522t542.5 208q182 0 338 -69l168 219l221 -164l-164 -215q193 -205 193 -525zM813 1139q-180 0 -295 -116t-115 -306q0 -145 70 -250l496 643 q-74 29 -156 29zM813 297q178 0 294 115.5t116 291.5t-82 281l-502 -655q82 -33 174 -33z" glyph-name="Oslash" horiz-adv-x="1626" unicode="Ø"/><glyph d="M670 1915l229 -371h-305l-191 287zM1352 1434v-795q0 -319 -169 -493.5t-456 -174.5t-456 174t-169 494v795h349v-785q0 -182 69.5 -267t210.5 -85q281 0 281 352v785h340z" glyph-name="Ugrave" horiz-adv-x="1454" unicode="Ù"/><glyph d="M885 1544h-305l229 371l266 -84zM1352 1434v-795q0 -319 -169 -493.5t-456 -174.5t-456 174t-169 494v795h349v-785q0 -182 69.5 -267t210.5 -85q281 0 281 352v785h340z" glyph-name="Uacute" horiz-adv-x="1454" unicode="Ú"/><glyph d="M1096 1694l-148 -181l-217 154l-219 -154l-147 181l366 266zM1352 1434v-795q0 -319 -169 -493.5t-456 -174.5t-456 174t-169 494v795h349v-785q0 -182 69.5 -267t210.5 -85q281 0 281 352v785h340z" glyph-name="Ucircumflex" horiz-adv-x="1454" unicode="Û"/><glyph d="M520.5 1561q-63.5 0 -106.5 44t-43 105.5t45 106.5t107 45t105.5 -45t43.5 -106.5t-44 -105.5t-107.5 -44zM956.5 1561q-63.5 0 -106.5 44t-43 105.5t44 106.5t106 45t106.5 -45t44.5 -106.5t-44 -105.5t-107.5 -44zM1352 1434v-795q0 -319 -169 -493.5t-456 -174.5 t-456 174t-169 494v795h349v-785q0 -182 69.5 -267t210.5 -85q281 0 281 352v785h340z" glyph-name="Udieresis" horiz-adv-x="1454" unicode="Ü"/><glyph d="M909 1544h-305l230 371l266 -84zM901 0h-344v565l-534 869l397 2q221 -392 230 -408l75 -131l12 -23h6l15 23q36 75 82 147l229 390h367l-535 -869v-565z" glyph-name="Yacute" horiz-adv-x="1460" unicode="Ý"/><glyph d="M459 1190h176q264 0 413.5 -130t149.5 -353t-149.5 -347t-413.5 -124h-176v-236h-344v1434h344v-244zM459 541h196q98 0 148.5 44t50.5 121t-50 120.5t-149 43.5h-196v-329z" glyph-name="Thorn" horiz-adv-x="1243" unicode="Þ"/><glyph d="M870 694q143 0 239.5 -98t96.5 -254t-100 -263.5t-294 -107.5t-280 99l132 227q63 -59 118 -59t85 31.5t30 76.5t-36 77t-105 32h-176v213l92 172l-4 6h-230v-846h-323v1147h991l-244 -447l2 -6h6z" glyph-name="germandbls" horiz-adv-x="1249" unicode="ß"/><glyph d="M498 1257l-193 287l268 84l230 -371h-305zM850 201h-430l-64 -201h-329l407 1147h408l407 -1147h-336zM639 885h-8q-2 -4 -86 -275l-41 -133h260l-47 146q-78 244 -78 262z" glyph-name="agrave" horiz-adv-x="1275" unicode="à"/><glyph d="M786 1257h-305l230 371l266 -84zM850 201h-430l-64 -201h-329l407 1147h408l407 -1147h-336zM639 885h-8q-2 -4 -86 -275l-41 -133h260l-47 146q-78 244 -78 262z" glyph-name="aacute" horiz-adv-x="1275" unicode="á"/><glyph d="M514 1247l-158 172l285 254l285 -254l-158 -172l-127 113zM850 201h-430l-64 -201h-329l407 1147h408l407 -1147h-336zM639 885h-8q-2 -4 -86 -275l-41 -133h260l-47 146q-78 244 -78 262z" glyph-name="acircumflex" horiz-adv-x="1275" unicode="â"/><glyph d="M476 1339q-76 0 -142 -57l-51 248q14 23 65.5 44t111.5 21t157 -30.5t175 -30.5t144 57l49 -248q-12 -20 -64.5 -42.5t-111.5 -22.5t-158 30.5t-175 30.5zM850 201h-430l-64 -201h-329l407 1147h408l407 -1147h-336zM639 885h-8q-2 -4 -86 -275l-41 -133h260l-47 146 q-78 244 -78 262z" glyph-name="atilde" horiz-adv-x="1275" unicode="ã"/><glyph d="M421.5 1274q-63.5 0 -106.5 44t-43 105.5t45 106.5t107 45t105.5 -45t43.5 -106.5t-44 -105.5t-107.5 -44zM860.5 1274q-63.5 0 -107.5 44t-44 105.5t44 106.5t106 45t106.5 -45t44.5 -106.5t-43 -105.5t-106.5 -44zM850 201h-430l-64 -201h-329l407 1147h408l407 -1147 h-336zM639 885h-8q-2 -4 -86 -275l-41 -133h260l-47 146q-78 244 -78 262z" glyph-name="adieresis" horiz-adv-x="1275" unicode="ä"/><glyph d="M642 1208q-128 0 -207 65.5t-79 185.5t79 185.5t207 65.5t207 -66.5t79 -185.5t-79 -184.5t-207 -65.5zM641 1544q-45 0 -71.5 -22.5t-26.5 -62.5t26.5 -62.5t71.5 -22.5q98 0 98 85t-98 85zM850 201h-430l-64 -201h-329l407 1147h408l407 -1147h-336zM639 885h-8 q-2 -4 -86 -275l-41 -133h260l-47 146q-78 244 -78 262z" glyph-name="aring" horiz-adv-x="1275" unicode="å"/><glyph d="M1632 301v-301h-895v201h-319l-62 -201h-329l413 1147h1182v-301h-578v-139h396v-254h-396v-152h588zM737 459v399h-116l-123 -399h239z" glyph-name="ae" horiz-adv-x="1718" unicode="æ"/><glyph d="M588 -147q133 0 133 47q0 66 -256 59v49q-188 59 -298 210t-110 353q0 258 173 428t450 170q195 0 340 -89t211 -249l-307 -81q-100 123 -239.5 122.5t-218.5 -83t-79 -217t81 -216.5t212 -82q162 0 240 121l311 -82q-113 -236 -348 -307q72 -51 71 -156 q0 -213 -315 -212q-125 0 -188 24v207q49 -16 137 -16z" glyph-name="ccedilla" horiz-adv-x="1284" unicode="ç"/><glyph d="M502 1628l229 -371h-305l-193 287zM115 0v1147h903v-301h-580v-139h398v-254h-398v-152h590v-301h-913z" glyph-name="egrave" horiz-adv-x="1114" unicode="è"/><glyph d="M715 1257h-305l229 371l266 -84zM115 0v1147h903v-301h-580v-139h398v-254h-398v-152h590v-301h-913z" glyph-name="eacute" horiz-adv-x="1114" unicode="é"/><glyph d="M926 1407l-148 -180l-217 153l-219 -153l-145 180l364 266zM115 0v1147h903v-301h-580v-139h398v-254h-398v-152h590v-301h-913z" glyph-name="ecircumflex" horiz-adv-x="1114" unicode="ê"/><glyph d="M350.5 1274q-63.5 0 -106.5 44t-43 105.5t45 106.5t107 45t105.5 -45t43.5 -106.5t-44 -105.5t-107.5 -44zM788.5 1274q-63.5 0 -107.5 44t-44 105.5t44 106.5t106 45t106.5 -45t44.5 -106.5t-43 -105.5t-106.5 -44zM115 0v1147h903v-301h-580v-139h398v-254h-398v-152 h590v-301h-913z" glyph-name="edieresis" horiz-adv-x="1114" unicode="ë"/><glyph d="M211 1628l229 -371h-305l-190 287zM115 0v1147h323v-1147h-323z" glyph-name="igrave" horiz-adv-x="552" unicode="ì"/><glyph d="M424 1257h-305l229 371l268 -84zM115 0v1147h323v-1147h-323z" glyph-name="iacute" horiz-adv-x="552" unicode="í"/><glyph d="M563 1419l-157 -172l-127 113l-125 -113l-158 172l283 254zM115 0v1147h323v-1147h-323z" glyph-name="icircumflex" horiz-adv-x="552" unicode="î"/><glyph d="M108.5 1274q-63.5 0 -107.5 44t-44 105.5t45.5 106.5t107.5 45t105 -45t43 -106.5t-43 -105.5t-106.5 -44zM450.5 1274q-63.5 0 -106.5 44t-43 105.5t44.5 106.5t106.5 45t106 -45t44 -106.5t-44 -105.5t-107.5 -44zM115 0v1147h323v-1147h-323z" glyph-name="idieresis" horiz-adv-x="552" unicode="ï"/><glyph d="M115 1147h471q281 0 461 -155.5t180 -423.5t-179.5 -418t-463.5 -150h-469v457h-95v231h95v459zM438 301h142q158 0 237.5 62.5t79.5 205.5q0 276 -313 277h-146v-158h275v-231h-275v-156z" glyph-name="eth" horiz-adv-x="1284" unicode="ð"/><glyph d="M833.5 1278q-59.5 0 -157.5 30.5t-175 30.5t-143 -57l-51 248q14 23 66.5 44t111.5 21t155.5 -30.5t175.5 -30.5t145 57l49 -248q-14 -23 -65.5 -44t-111 -21zM438 0h-323v1147h336l448 -623h6v623h326v-1147h-340l-447 645h-8v-27l2 -74v-544z" glyph-name="ntilde" horiz-adv-x="1345" unicode="ñ"/><glyph d="M606 1628l230 -371h-304l-192 287zM57 573.5q0 260.5 174.5 428t445.5 167.5t445 -167.5t174 -428t-174 -428.5t-445 -168t-445.5 168t-174.5 428.5zM387 573.5q0 -133.5 79 -216.5t210 -83t211 82t80 217.5t-80 217t-211 81.5t-210 -82.5t-79 -216z" glyph-name="ograve" horiz-adv-x="1353" unicode="ò"/><glyph d="M821 1257h-305l229 371l267 -84zM57 573.5q0 260.5 174.5 428t445.5 167.5t445 -167.5t174 -428t-174 -428.5t-445 -168t-445.5 168t-174.5 428.5zM387 573.5q0 -133.5 79 -216.5t210 -83t211 82t80 217.5t-80 217t-211 81.5t-210 -82.5t-79 -216z" glyph-name="oacute" horiz-adv-x="1353" unicode="ó"/><glyph d="M1032 1407l-147 -180l-217 153l-219 -153l-148 180l367 266zM57 573.5q0 260.5 174.5 428t445.5 167.5t445 -167.5t174 -428t-174 -428.5t-445 -168t-445.5 168t-174.5 428.5zM387 573.5q0 -133.5 79 -216.5t210 -83t211 82t80 217.5t-80 217t-211 81.5t-210 -82.5 t-79 -216z" glyph-name="ocircumflex" horiz-adv-x="1353" unicode="ô"/><glyph d="M843 1278q-58 0 -156.5 30.5t-177.5 30.5t-140 -57l-54 248q16 23 68.5 44t110.5 21t156 -30.5t176 -30.5t143 57l51 -248q-14 -23 -66.5 -44t-110.5 -21zM57 573.5q0 260.5 174.5 428t445.5 167.5t445 -167.5t174 -428t-174 -428.5t-445 -168t-445.5 168t-174.5 428.5z M387 573.5q0 -133.5 79 -216.5t210 -83t211 82t80 217.5t-80 217t-211 81.5t-210 -82.5t-79 -216z" glyph-name="otilde" horiz-adv-x="1353" unicode="õ"/><glyph d="M456.5 1274q-63.5 0 -106.5 44t-43 105.5t45.5 106.5t107.5 45t105 -45t43 -106.5t-44 -105.5t-107.5 -44zM894 1274q-62 0 -106.5 44t-44.5 105.5t44.5 106.5t106.5 45t106 -45t44 -106.5t-44 -105.5t-106 -44zM57 573.5q0 260.5 174.5 428t445.5 167.5t445 -167.5 t174 -428t-174 -428.5t-445 -168t-445.5 168t-174.5 428.5zM387 573.5q0 -133.5 79 -216.5t210 -83t211 82t80 217.5t-80 217t-211 81.5t-210 -82.5t-79 -216z" glyph-name="odieresis" horiz-adv-x="1353" unicode="ö"/><glyph d="M686 821q-84 0 -130 45t-46 116t46 116t130 45t129 -45t45 -116t-45 -116t-129 -45zM1100 434h-832v281h832v-281zM686 6q-84 0 -130 45t-46 116t46 116t130 45t129 -45t45 -116t-45 -116t-129 -45z" glyph-name="divide" unicode="÷"/><glyph d="M1296 559q0 -246 -174 -414t-446 -168q-133 0 -252 46l-109 -142l-227 164l107 139q-137 160 -137 404t174 412.5t444 168.5q133 0 244 -43l116 150l228 -164l-111 -143q143 -164 143 -410zM676 872q-131 0 -210 -82.5t-79 -216.5q0 -94 41 -165l336 454q-45 10 -88 10z M676 274q131 0 211 82t80 200t-47 194l-342 -461q43 -15 98 -15z" glyph-name="oslash" horiz-adv-x="1347" unicode="ø"/><glyph d="M588 1628l229 -371h-305l-190 287zM1198 1147v-592q0 -291 -147.5 -434.5t-401.5 -143.5t-400.5 143.5t-146.5 434.5v592h330v-623q0 -250 221 -250t221 250v623h324z" glyph-name="ugrave" horiz-adv-x="1300" unicode="ù"/><glyph d="M801 1257h-305l229 371l268 -84zM1198 1147v-592q0 -291 -147.5 -434.5t-401.5 -143.5t-400.5 143.5t-146.5 434.5v592h330v-623q0 -250 221 -250t221 250v623h324z" glyph-name="uacute" horiz-adv-x="1300" unicode="ú"/><glyph d="M1012 1407l-146 -180l-219 153l-217 -153l-147 180l364 266zM1198 1147v-592q0 -291 -147.5 -434.5t-401.5 -143.5t-400.5 143.5t-146.5 434.5v592h330v-623q0 -250 221 -250t221 250v623h324z" glyph-name="ucircumflex" horiz-adv-x="1300" unicode="û"/><glyph d="M438.5 1274q-63.5 0 -106.5 44t-43 105.5t44 106.5t106 45t105.5 -45t43.5 -106.5t-43 -105.5t-106.5 -44zM874.5 1274q-63.5 0 -106.5 44t-43 105.5t44 106.5t106 45t106.5 -45t44.5 -106.5t-44 -105.5t-107.5 -44zM1198 1147v-592q0 -291 -147.5 -434.5t-401.5 -143.5 t-400.5 143.5t-146.5 434.5v592h330v-623q0 -250 221 -250t221 250v623h324z" glyph-name="udieresis" horiz-adv-x="1300" unicode="ü"/><glyph d="M780 1257h-305l230 371l266 -84zM766 0h-326v391l-417 756h370l121 -232q41 -80 92 -186l15 -29h6l14 29q14 27 41 83t51 103l119 232h336l-422 -756v-391z" glyph-name="yacute" horiz-adv-x="1210" unicode="ý"/><glyph d="M438 952h121q227 0 355 -104.5t128 -281.5t-128 -277.5t-355 -100.5h-121v-188h-323v1147h323v-195zM438 442h133q141 0 142 113q0 49 -35 80t-107 31h-133v-224z" glyph-name="thorn" horiz-adv-x="1087" unicode="þ"/><glyph d="M415.5 1274q-63.5 0 -106.5 44t-43 105.5t45 106.5t107 45t105.5 -45t43.5 -106.5t-44 -105.5t-107.5 -44zM853 1274q-62 0 -106.5 44t-44.5 105.5t44.5 106.5t106.5 45t106.5 -45t44.5 -106.5t-44.5 -105.5t-106.5 -44zM766 0h-326v391l-417 756h370l121 -232 q41 -80 92 -186l15 -29h6l14 29q14 27 41 83t51 103l119 232h336l-422 -756v-391z" glyph-name="ydieresis" horiz-adv-x="1210" unicode="ÿ"/><glyph d="M1116 1550h-682v283h682v-283zM1071 238h-596l-86 -238h-362l553 1434h391l555 -1434h-369zM770 1047q0 -2 -80 -209l-102 -287h370l-102 285q-18 45 -38.5 102t-31.5 82l-10 27h-6z" glyph-name="Amacron" horiz-adv-x="1552" unicode="Ā"/><glyph d="M981 1264h-680v282h680v-282zM850 201h-430l-64 -201h-329l407 1147h408l407 -1147h-336zM639 885h-8q-2 -4 -86 -275l-41 -133h260l-47 146q-78 244 -78 262z" glyph-name="amacron" horiz-adv-x="1275" unicode="ā"/><glyph d="M773 1522q-171 0 -271.5 83t-108.5 234h250q6 -106 133 -106t127 106h250q-8 -152 -108.5 -234.5t-271.5 -82.5zM1071 238h-596l-86 -238h-362l553 1434h391l555 -1434h-369zM770 1047q0 -2 -80 -209l-102 -287h370l-102 285q-18 45 -38.5 102t-31.5 82l-10 27h-6z" glyph-name="Abreve" horiz-adv-x="1552" unicode="Ă"/><glyph d="M639 1235q-170 0 -270.5 83t-108.5 234h248q10 -106 136 -106t126 106h250q-8 -152 -109.5 -234.5t-271.5 -82.5zM850 201h-430l-64 -201h-329l407 1147h408l407 -1147h-336zM639 885h-8q-2 -4 -86 -275l-41 -133h260l-47 146q-78 244 -78 262z" glyph-name="abreve" horiz-adv-x="1275" unicode="ă"/><glyph d="M1264 -88q0 -49 91 -49t185 33v-224q-102 -37 -239 -37t-223.5 63.5t-86.5 168.5q0 131 133 223l-53 148h-596l-86 -238h-362l553 1434h391l555 -1434h-49q-213 0 -213 -88zM770 1047q0 -2 -80 -209l-102 -287h370l-102 285q-18 45 -38.5 102t-31.5 82l-10 27h-6z" glyph-name="Aogonek" horiz-adv-x="1552" unicode="Ą"/><glyph d="M1096 -137q93 0 182 33v-224q-98 -37 -236 -37t-224.5 63.5t-86.5 168.5q0 141 150 235l-31 99h-430l-64 -201h-329l407 1147h408l407 -1147h-32q-213 0 -213 -88q-1 -49 92 -49zM639 885h-8q-2 -4 -86 -275l-41 -133h260l-47 146q-78 244 -78 262z" glyph-name="aogonek" horiz-adv-x="1275" unicode="ą"/><glyph d="M944 1544h-305l229 371l267 -84zM801 -29q-324 0 -534 208t-210 538t210 537.5t534 207.5q238 0 415 -115.5t252 -297.5l-340 -93q-117 182 -344 183q-174 0 -277.5 -117t-103.5 -305.5t105.5 -304t273.5 -115.5q133 0 224.5 60.5t138.5 156.5l338 -90 q-80 -209 -264.5 -331t-417.5 -122z" glyph-name="Cacute" horiz-adv-x="1533" unicode="Ć"/><glyph d="M813 1257h-305l229 371l267 -84zM682 -23q-279 0 -452 167t-173 426t173 429t450 170q195 0 340 -89t211 -249l-307 -81q-100 123 -239.5 122.5t-218.5 -83t-79 -217t81 -216.5t212 -82q162 0 240 121l311 -82q-74 -156 -213 -246t-336 -90z" glyph-name="cacute" horiz-adv-x="1284" unicode="ć"/><glyph d="M1155 1694l-147 -181l-217 154l-220 -154l-145 181l365 266zM801 -29q-324 0 -534 208t-210 538t210 537.5t534 207.5q238 0 415 -115.5t252 -297.5l-340 -93q-117 182 -344 183q-174 0 -277.5 -117t-103.5 -305.5t105.5 -304t273.5 -115.5q133 0 224.5 60.5t138.5 156.5 l338 -90q-80 -209 -264.5 -331t-417.5 -122z" glyph-name="Ccircumflex" horiz-adv-x="1533" unicode="Ĉ"/><glyph d="M1024 1407l-147 -180l-220 153l-217 -153l-147 180l364 266zM682 -23q-279 0 -452 167t-173 426t173 429t450 170q195 0 340 -89t211 -249l-307 -81q-100 123 -239.5 122.5t-218.5 -83t-79 -217t81 -216.5t212 -82q162 0 240 121l311 -82q-74 -156 -213 -246t-336 -90z " glyph-name="ccircumflex" horiz-adv-x="1284" unicode="ĉ"/><glyph d="M798.5 1561q-63.5 0 -106.5 44t-43 105.5t44 106.5t106.5 45t106.5 -45t44 -106.5t-44 -105.5t-107.5 -44zM801 -29q-324 0 -534 208t-210 538t210 537.5t534 207.5q238 0 415 -115.5t252 -297.5l-340 -93q-117 182 -344 183q-174 0 -277.5 -117t-103.5 -305.5 t105.5 -304t273.5 -115.5q133 0 224.5 60.5t138.5 156.5l338 -90q-80 -209 -264.5 -331t-417.5 -122z" glyph-name="Cdotaccent" horiz-adv-x="1533" unicode="Ċ"/><glyph d="M667.5 1274q-63.5 0 -107.5 44t-44 105.5t44 106.5t106.5 45t106.5 -45t44 -106.5t-43 -105.5t-106.5 -44zM682 -23q-279 0 -452 167t-173 426t173 429t450 170q195 0 340 -89t211 -249l-307 -81q-100 123 -239.5 122.5t-218.5 -83t-79 -217t81 -216.5t212 -82 q162 0 240 121l311 -82q-74 -156 -213 -246t-336 -90z" glyph-name="cdotaccent" horiz-adv-x="1284" unicode="ċ"/><glyph d="M434 1763l148 181l217 -140l219 140l147 -181l-366 -250zM801 -29q-324 0 -534 208t-210 538t210 537.5t534 207.5q238 0 415 -115.5t252 -297.5l-340 -93q-117 182 -344 183q-174 0 -277.5 -117t-103.5 -305.5t105.5 -304t273.5 -115.5q133 0 224.5 60.5t138.5 156.5 l338 -90q-80 -209 -264.5 -331t-417.5 -122z" glyph-name="Ccaron" horiz-adv-x="1533" unicode="Č"/><glyph d="M303 1477l146 180l219 -139l217 139l147 -180l-364 -250zM682 -23q-279 0 -452 167t-173 426t173 429t450 170q195 0 340 -89t211 -249l-307 -81q-100 123 -239.5 122.5t-218.5 -83t-79 -217t81 -216.5t212 -82q162 0 240 121l311 -82q-74 -156 -213 -246t-336 -90z" glyph-name="ccaron" horiz-adv-x="1284" unicode="č"/><glyph d="M373 1763l147 181l219 -140l217 140l148 -181l-365 -250zM115 1434h610q326 0 541 -202t215 -521.5t-215 -515t-539 -195.5h-612v1434zM459 319h248q178 0 303 97.5t125 294t-126 300t-302 103.5h-248v-795z" glyph-name="Dcaron" horiz-adv-x="1538" unicode="Ď"/><glyph d="M225 1477l148 180l217 -139l219 139l147 -180l-366 -250zM115 1147h471q281 0 461 -155.5t180 -423.5t-179.5 -418t-463.5 -150h-469v1147zM438 301h142q158 0 237.5 62.5t79.5 205.5q0 276 -313 277h-146v-545z" glyph-name="dcaron" horiz-adv-x="1284" unicode="ď"/><glyph d="M115 1434h610q326 0 541 -202t215 -521.5t-215 -515t-539 -195.5h-612v575h-95v304h95v555zM459 319h248q178 0 303 97.5t125 294t-126 300t-302 103.5h-248v-235h293v-304h-293v-256z" glyph-name="Dcroat" horiz-adv-x="1538" unicode="Đ"/><glyph d="M115 1147h471q281 0 461 -155.5t180 -423.5t-179.5 -418t-463.5 -150h-469v457h-95v231h95v459zM438 301h142q158 0 237.5 62.5t79.5 205.5q0 276 -313 277h-146v-158h275v-231h-275v-156z" glyph-name="dcroat" horiz-adv-x="1284" unicode="đ"/><glyph d="M1001 1550h-679v283h679v-283zM115 0v1434h1044v-320h-700v-246h516v-286h-516v-263h710v-319h-1054z" glyph-name="Emacron" horiz-adv-x="1255" unicode="Ē"/><glyph d="M909 1264h-680v282h680v-282zM115 0v1147h903v-301h-580v-139h398v-254h-398v-152h590v-301h-913z" glyph-name="emacron" horiz-adv-x="1114" unicode="ē"/><glyph d="M661.5 1561q-63.5 0 -106.5 44t-43 105.5t44 106.5t106 45t106.5 -45t44.5 -106.5t-44 -105.5t-107.5 -44zM115 0v1434h1044v-320h-700v-246h516v-286h-516v-263h710v-319h-1054z" glyph-name="Edotaccent" horiz-adv-x="1255" unicode="Ė"/><glyph d="M569.5 1274q-63.5 0 -106.5 44t-43 105.5t44 106.5t106 45t106.5 -45t44.5 -106.5t-44 -105.5t-107.5 -44zM115 0v1147h903v-301h-580v-139h398v-254h-398v-152h590v-301h-913z" glyph-name="edotaccent" horiz-adv-x="1114" unicode="ė"/><glyph d="M1034 -137q63 0 140 33v-224q-82 -37 -210 -37t-221.5 51.5t-93.5 153.5t74 160h-608v1434h1044v-320h-700v-246h516v-286h-516v-263h710v-319h-79q-168 -4 -168 -72q-1 -65 112 -65z" glyph-name="Eogonek" horiz-adv-x="1255" unicode="Ę"/><glyph d="M1028 0h-88q-168 -4 -168 -71t115 -66q61 0 137 33v-224q-82 -37 -210 -37t-220 51.5t-92 154.5t73 159h-460v1147h903v-301h-580v-139h398v-254h-398v-152h590v-301z" glyph-name="eogonek" horiz-adv-x="1114" unicode="ę"/><glyph d="M297 1763l147 181l218 -140l219 140l147 -181l-366 -250zM115 0v1434h1044v-320h-700v-246h516v-286h-516v-263h710v-319h-1054z" glyph-name="Ecaron" horiz-adv-x="1255" unicode="Ě"/><glyph d="M205 1477l147 180l217 -139l219 139l148 -180l-367 -250zM115 0v1147h903v-301h-580v-139h398v-254h-398v-152h590v-301h-913z" glyph-name="ecaron" horiz-adv-x="1114" unicode="ě"/><glyph d="M1155 1694l-147 -181l-217 154l-220 -154l-145 181l365 266zM1202 100h-4q-66 -55 -175.5 -92t-227.5 -37q-307 0 -522.5 210t-215.5 538t210 535.5t534 207.5q238 0 417 -115.5t250 -297.5l-340 -93q-109 182 -344 183q-172 0 -276.5 -117t-104.5 -306t115 -304 t305 -115q133 0 228.5 45t136.5 102v68h-361v319h680v-831h-307v50l2 42v8z" glyph-name="Gcircumflex" horiz-adv-x="1597" unicode="Ĝ"/><glyph d="M1024 1407l-147 -180l-220 153l-217 -153l-147 180l364 266zM991 96h-4q-49 -51 -137 -85t-197 -34q-252 0 -424 169t-172 428t174.5 427t450.5 168q193 0 339 -87t216 -251l-297 -79q-76 125 -258 125q-137 0 -216 -79t-79 -221.5t88 -223.5t248 -81q72 0 151.5 19.5 t112.5 44.5v63h-297v285h588v-684h-289l2 84v12z" glyph-name="gcircumflex" unicode="ĝ"/><glyph d="M802 1733q126 0 126 106h250q-8 -152 -109.5 -234.5t-271.5 -82.5t-270.5 82.5t-108.5 234.5h248q10 -106 136 -106zM1202 100h-4q-66 -55 -175.5 -92t-227.5 -37q-307 0 -522.5 210t-215.5 538t210 535.5t534 207.5q238 0 417 -115.5t250 -297.5l-340 -93 q-109 182 -344 183q-172 0 -276.5 -117t-104.5 -306t115 -304t305 -115q133 0 228.5 45t136.5 102v68h-361v319h680v-831h-307v50l2 42v8z" glyph-name="Gbreve" horiz-adv-x="1597" unicode="Ğ"/><glyph d="M667 1446q126 0 130 106h247q-6 -152 -107 -234.5t-271 -82.5t-271.5 82.5t-109.5 234.5h250q6 -106 132 -106zM991 96h-4q-49 -51 -137 -85t-197 -34q-252 0 -424 169t-172 428t174.5 427t450.5 168q193 0 339 -87t216 -251l-297 -79q-76 125 -258 125q-137 0 -216 -79 t-79 -221.5t88 -223.5t248 -81q72 0 151.5 19.5t112.5 44.5v63h-297v285h588v-684h-289l2 84v12z" glyph-name="gbreve" unicode="ğ"/><glyph d="M798.5 1561q-63.5 0 -106.5 44t-43 105.5t44 106.5t106.5 45t106.5 -45t44 -106.5t-44 -105.5t-107.5 -44zM1202 100h-4q-66 -55 -175.5 -92t-227.5 -37q-307 0 -522.5 210t-215.5 538t210 535.5t534 207.5q238 0 417 -115.5t250 -297.5l-340 -93q-109 182 -344 183 q-172 0 -276.5 -117t-104.5 -306t115 -304t305 -115q133 0 228.5 45t136.5 102v68h-361v319h680v-831h-307v50l2 42v8z" glyph-name="Gdotaccent" horiz-adv-x="1597" unicode="Ġ"/><glyph d="M667.5 1274q-63.5 0 -107.5 44t-44 105.5t44 106.5t106.5 45t106.5 -45t44 -106.5t-43 -105.5t-106.5 -44zM991 96h-4q-49 -51 -137 -85t-197 -34q-252 0 -424 169t-172 428t174.5 427t450.5 168q193 0 339 -87t216 -251l-297 -79q-76 125 -258 125q-137 0 -216 -79 t-79 -221.5t88 -223.5t248 -81q72 0 151.5 19.5t112.5 44.5v63h-297v285h588v-684h-289l2 84v12z" glyph-name="gdotaccent" unicode="ġ"/><glyph d="M1202 100h-4q-66 -55 -175.5 -92t-227.5 -37q-307 0 -522.5 210t-215.5 538t210 535.5t534 207.5q238 0 417 -115.5t250 -297.5l-340 -93q-109 182 -344 183q-172 0 -276.5 -117t-104.5 -306t115 -304t305 -115q133 0 228.5 45t136.5 102v68h-361v319h680v-831h-307v50 l2 42v8zM662 -170q0 53 45 87t119.5 34t120.5 -40t46 -124t-58 -150.5t-167 -97.5l-104 117q77 14 104 63q-49 -2 -77.5 28t-28.5 83z" glyph-name="Gcommaaccent" horiz-adv-x="1597" unicode="Ģ"/><glyph d="M991 96h-4q-49 -51 -137 -85t-197 -34q-252 0 -424 169t-172 428t174.5 427t450.5 168q193 0 339 -87t216 -251l-297 -79q-76 125 -258 125q-137 0 -216 -79t-79 -221.5t88 -223.5t248 -81q72 0 151.5 19.5t112.5 44.5v63h-297v285h588v-684h-289l2 84v12zM563 -170 q0 53 44 87t120 34t121 -40t45 -124t-58.5 -150.5t-166.5 -97.5l-105 117q76 14 107 63q-51 -2 -79 28t-28 83z" glyph-name="gcommaaccent" unicode="ģ"/><glyph d="M1090 1694l-146 -181l-219 154l-217 -154l-148 181l365 266zM1010 0v563h-551v-563h-344v1434h344v-541h551v541h344v-1434h-344z" glyph-name="Hcircumflex" horiz-adv-x="1468" unicode="Ĥ"/><glyph d="M995 1407l-147 -180l-217 153l-219 -153l-148 180l367 266zM1159 0h-325v422h-396v-422h-323v1147h323v-424h396v424h325v-1147z" glyph-name="hcircumflex" horiz-adv-x="1273" unicode="ĥ"/><glyph d="M1546 930h-133v-930h-344v465h-551v-465h-344v930h-133v282h133v222h344v-222h551v222h344v-222h133v-282zM1069 930h-551v-135h551v135z" glyph-name="Hbar" horiz-adv-x="1587" unicode="Ħ"/><glyph d="M1292 815h-110v-815h-324v430h-395v-430h-324v815h-110v201h110v131h324v-131h395v131h324v-131h110v-201zM858 815h-395v-96h395v96z" glyph-name="hbar" horiz-adv-x="1320" unicode="ħ"/><glyph d="M555 1546h-539v283h539v-283zM115 0v1434h344v-1434h-344z" glyph-name="Imacron" horiz-adv-x="573" unicode="Ī"/><glyph d="M549 1260h-539v282h539v-282zM115 0v1147h323v-1147h-323z" glyph-name="imacron" horiz-adv-x="552" unicode="ī"/><glyph d="M399 -139q87 0 140 24v-213q-84 -37 -160 -37t-124 12.5t-94 39t-75 78t-29 135.5t58 149v1385h344l-2 -1434q-145 -4 -146 -76q1 -63 88 -63z" glyph-name="Iogonek" horiz-adv-x="573" unicode="Į"/><glyph d="M349 -139q87 0 140 24v-213q-83 -37 -191 -37t-199 59.5t-91 190.5t107 211v1051h323v-1147h-30q-145 -4 -146 -76q0 -63 87 -63z" glyph-name="iogonek" horiz-adv-x="552" unicode="į"/><glyph d="M286.5 1561q-63.5 0 -107.5 44t-44 105.5t44.5 106.5t106.5 45t106 -45t44 -106.5t-43 -105.5t-106.5 -44zM115 0v1434h344v-1434h-344z" glyph-name="Idotaccent" horiz-adv-x="573" unicode="İ"/><glyph d="M115 0v1147h323v-1147h-323z" glyph-name="dotlessi" horiz-adv-x="552" unicode="ı"/><glyph d="M115 0v1434h344v-1434h-344zM1534 1434v-797q0 -324 -144.5 -495t-409.5 -171t-400 142l198 264q70 -80 196 -80t171 85t45 288v764h344z" glyph-name="IJ" horiz-adv-x="1638" unicode="Ĳ"/><glyph d="M115 0v1147h323v-1147h-323zM1391 1147v-619q0 -268 -126.5 -409.5t-358.5 -141.5t-351 113l178 236q57 -52 163 -52t138.5 60.5t32.5 216.5v596h324z" glyph-name="ij" horiz-adv-x="1495" unicode="ĳ"/><glyph d="M1149 1694l-145 -181l-220 154l-217 -154l-147 181l364 266zM954 1434v-797q0 -324 -144 -495t-410 -171t-400 142l199 264q69 -80 195 -80t171 85t45 288v764h344z" glyph-name="Jcircumflex" horiz-adv-x="1058" unicode="Ĵ"/><glyph d="M1032 1407l-147 -180l-217 153l-217 -153l-148 180l365 266zM836 1147v-619q0 -268 -127 -409.5t-359 -141.5t-350 113l178 236q57 -52 162 -52t138.5 61.5t33.5 215.5v596h324z" glyph-name="jcircumflex" horiz-adv-x="937" unicode="ĵ"/><glyph d="M459 0h-344v1434h344v-619h6l518 619h410l-510 -580l538 -854h-401l-391 604l-170 -190v-414zM712 -49q75 0 121 -40t46 -124t-58.5 -150.5t-167.5 -97.5l-104 117q29 4 60.5 22.5t43.5 40.5q-49 -2 -77.5 28t-28.5 83t45 87t120 34z" glyph-name="Kcommaaccent" horiz-adv-x="1443" unicode="Ķ"/><glyph d="M438 0h-323v1147h323v-473h8q12 12 101 119l303 354h403l-411 -451l428 -696h-371l-293 475l-168 -184v-291zM661 -49q76 0 122 -40t46 -124t-58 -150.5t-167 -97.5l-104 117q29 4 60.5 22.5t43.5 40.5q-49 -2 -77.5 28t-28.5 83t43.5 87t119.5 34z" glyph-name="kcommaaccent" horiz-adv-x="1294" unicode="ķ"/><glyph d="M424 1544h-305l229 371l266 -84zM115 0v1434h344v-1115h643v-319h-987z" glyph-name="Lacute" horiz-adv-x="1165" unicode="Ĺ"/><glyph d="M465 1257h-305l229 371l266 -84zM115 0v1147h323v-846h504v-301h-827z" glyph-name="lacute" horiz-adv-x="1007" unicode="ĺ"/><glyph d="M115 0v1434h344v-1115h643v-319h-987zM422 -170q0 53 44 87t120 34t121 -40t45 -124t-57.5 -150.5t-166.5 -97.5l-104 117q29 4 60.5 22t43.5 41q-49 -2 -77.5 28t-28.5 83z" glyph-name="Lcommaaccent" horiz-adv-x="1165" unicode="Ļ"/><glyph d="M115 0v1147h323v-846h504v-301h-827zM373 -170q0 53 44 87t120 34t120.5 -40t44.5 -124t-57 -150.5t-166 -97.5l-104 117q27 4 59.5 22t44.5 41q-49 -2 -77.5 28t-28.5 83z" glyph-name="lcommaaccent" horiz-adv-x="1007" unicode="ļ"/><glyph d="M115 0v1434h344v-1115h643v-319h-987zM811 1434h266q4 -78 -26.5 -205t-69.5 -197h-244q31 66 53.5 193t20.5 209z" glyph-name="Lcaron" horiz-adv-x="1165" unicode="Ľ"/><glyph d="M115 0v1147h323v-846h504v-301h-827zM647 1147h266q4 -78 -26.5 -205t-69.5 -197h-244q31 66 53.5 193t20.5 209z" glyph-name="lcaron" horiz-adv-x="1007" unicode="ľ"/><glyph d="M115 0v1434h344v-1115h643v-319h-987zM862 633q-84 0 -130 45t-46 116t46 115.5t130 44.5t130 -45t46 -115t-46 -115.5t-130 -45.5z" glyph-name="Ldot" horiz-adv-x="1165" unicode="Ŀ"/><glyph d="M115 0v1147h323v-846h504v-301h-827zM767 481q-77 0 -120 46t-43 116t42 115t120 45t120 -44t42 -115t-42 -117t-119 -46z" glyph-name="ldot" horiz-adv-x="1007" unicode="ŀ"/><glyph d="M1102 319v-319h-987v1434h344v-592l487 219v-324l-487 -219v-199h643z" glyph-name="Lslash" horiz-adv-x="1165" unicode="Ł"/><glyph d="M942 301v-301h-827v1147h323v-426l359 160v-303l-359 -158v-119h504z" glyph-name="lslash" horiz-adv-x="1007" unicode="ł"/><glyph d="M909 1544h-305l230 371l266 -84zM1077 1434h344v-1434h-350l-610 856h-6v-12l2 -73v-59l2 -142v-570h-344v1434h348l610 -840h6v42l-2 100v698z" glyph-name="Nacute" horiz-adv-x="1536" unicode="Ń"/><glyph d="M811 1257h-305l229 371l266 -84zM438 0h-323v1147h336l448 -623h6v623h326v-1147h-340l-447 645h-8v-27l2 -74v-544z" glyph-name="nacute" horiz-adv-x="1345" unicode="ń"/><glyph d="M1077 1434h344v-1434h-350l-610 856h-6v-12l2 -73v-59l2 -142v-570h-344v1434h348l610 -840h6v42l-2 100v698zM598 -170q0 53 45 87t120 34t121 -40t46 -124t-58.5 -150.5t-166.5 -97.5l-105 117q78 14 105 63q-49 -2 -78 28t-29 83z" glyph-name="Ncommaaccent" horiz-adv-x="1536" unicode="Ņ"/><glyph d="M438 0h-323v1147h336l448 -623h6v623h326v-1147h-340l-447 645h-8v-27l2 -74v-544zM502 -170q0 53 44 87t120 34t120.5 -40t44.5 -124t-57 -150.5t-166 -97.5l-106 117q75 14 106 63q-49 -2 -77.5 28t-28.5 83z" glyph-name="ncommaaccent" horiz-adv-x="1345" unicode="ņ"/><glyph d="M399 1763l146 181l219 -140l219 140l145 -181l-364 -250zM1077 1434h344v-1434h-350l-610 856h-6v-12l2 -73v-59l2 -142v-570h-344v1434h348l610 -840h6v42l-2 100v698z" glyph-name="Ncaron" horiz-adv-x="1536" unicode="Ň"/><glyph d="M301 1477l148 180l217 -139l219 139l145 -180l-364 -250zM438 0h-323v1147h336l448 -623h6v623h326v-1147h-340l-447 645h-8v-27l2 -74v-544z" glyph-name="ncaron" horiz-adv-x="1345" unicode="ň"/><glyph d="M1077 1434h344v-1434q1 -214 -115 -278q-94 -52 -243 -52h-143v242h108q35 0 46 23.5t-3 64.5l-610 856h-6v-12l2 -73v-59l2 -142v-570h-344v1434h348l610 -840h6v42l-2 100v698z" glyph-name="Eng" horiz-adv-x="1536" unicode="Ŋ"/><glyph d="M438 0h-323v1147h336l448 -623h6v623h326v-1147q-2 -330 -379 -330h-133v252h125q68 0 47 78l-447 645h-8v-27l2 -74v-544z" glyph-name="eng" horiz-adv-x="1345" unicode="ŋ"/><glyph d="M1155 1550h-680v283h680v-283zM57 716.5q0 327.5 213 536.5t543 209t543 -209t213 -536.5t-213 -536.5t-543 -209t-543 209t-213 536.5zM403 716.5q0 -190.5 115 -305t295 -114.5t295 114.5t115 305t-115 306.5t-295 116t-295 -116t-115 -306.5z" glyph-name="Omacron" horiz-adv-x="1626" unicode="Ō"/><glyph d="M1016 1264h-680v282h680v-282zM57 573.5q0 260.5 174.5 428t445.5 167.5t445 -167.5t174 -428t-174 -428.5t-445 -168t-445.5 168t-174.5 428.5zM387 573.5q0 -133.5 79 -216.5t210 -83t211 82t80 217.5t-80 217t-211 81.5t-210 -82.5t-79 -216z" glyph-name="omacron" horiz-adv-x="1353" unicode="ō"/><glyph d="M717 1544h-305l229 371l266 -84zM1174 1544h-306l230 371l266 -84zM57 716.5q0 327.5 213 536.5t543 209t543 -209t213 -536.5t-213 -536.5t-543 -209t-543 209t-213 536.5zM403 716.5q0 -190.5 115 -305t295 -114.5t295 114.5t115 305t-115 306.5t-295 116t-295 -116 t-115 -306.5z" glyph-name="Ohungarumlaut" horiz-adv-x="1626" unicode="Ő"/><glyph d="M578 1257h-306l230 371l266 -84zM1034 1257h-305l229 371l267 -84zM57 573.5q0 260.5 174.5 428t445.5 167.5t445 -167.5t174 -428t-174 -428.5t-445 -168t-445.5 168t-174.5 428.5zM387 573.5q0 -133.5 79 -216.5t210 -83t211 82t80 217.5t-80 217t-211 81.5t-210 -82.5 t-79 -216z" glyph-name="ohungarumlaut" horiz-adv-x="1353" unicode="ő"/><glyph d="M2007 0h-1001q-61 -8 -197 -8q-315 0 -533.5 201.5t-218.5 523t218.5 523.5t533.5 202q129 0 197 -8h991v-320h-701v-235h533v-304h-533v-256h711v-319zM403 716.5q0 -196.5 113 -308t299 -111.5q86 0 146 18v807q-55 14 -146 15q-186 0 -299 -112t-113 -308.5z" glyph-name="OE" horiz-adv-x="2095" unicode="Œ"/><glyph d="M1679 0h-837q-55 -6 -170 -6q-266 0 -440.5 158.5t-174.5 421t173 421t440 158.5q119 0 176 -6h823v-301h-577v-139h395v-254h-395v-152h587v-301zM383 573.5q0 -131.5 78 -211t215 -79.5q39 0 108 8v565q-70 8 -108 8q-137 0 -215 -79.5t-78 -211z" glyph-name="oe" horiz-adv-x="1767" unicode="œ"/><glyph d="M772 1544h-305l229 371l269 -84zM459 473v-473h-344v1434h544q268 0 420 -130t152 -356q0 -147 -69.5 -252.5t-200.5 -154.5l327 -541h-407l-269 473h-153zM459 748h223q197 0 197 184q0 90 -50.5 140t-148.5 50h-221v-374z" glyph-name="Racute" horiz-adv-x="1320" unicode="Ŕ"/><glyph d="M690 1257h-303l227 371l269 -84zM438 360v-360h-323v1147h483q231 0 360 -106.5t129 -288.5q0 -238 -192 -324l260 -428h-348l-217 362l-105 -2h-47zM438 608h178q139 0 139.5 123t-139.5 123h-178v-246z" glyph-name="racute" horiz-adv-x="1187" unicode="ŕ"/><glyph d="M459 473v-473h-344v1434h544q268 0 420 -130t152 -356q0 -147 -69.5 -252.5t-200.5 -154.5l327 -541h-407l-269 473h-153zM459 748h223q197 0 197 184q0 90 -50.5 140t-148.5 50h-221v-374zM547 -170q0 53 44 87t120 34t121 -40t45 -124t-57.5 -150.5t-166.5 -97.5 l-106 117q75 14 106 63q-49 -2 -77.5 28t-28.5 83z" glyph-name="Rcommaaccent" horiz-adv-x="1320" unicode="Ŗ"/><glyph d="M438 360v-360h-323v1147h483q231 0 360 -106.5t129 -288.5q0 -238 -192 -324l260 -428h-348l-217 362l-105 -2h-47zM438 608h178q139 0 139.5 123t-139.5 123h-178v-246zM467 -170q0 53 44 87t120 34t121 -40t45 -124t-58.5 -150.5t-167.5 -97.5l-104 117q75 14 106 63 q-51 -2 -78.5 28t-27.5 83z" glyph-name="rcommaaccent" horiz-adv-x="1187" unicode="ŗ"/><glyph d="M262 1763l148 181l219 -140l217 140l147 -181l-364 -250zM459 473v-473h-344v1434h544q268 0 420 -130t152 -356q0 -147 -69.5 -252.5t-200.5 -154.5l327 -541h-407l-269 473h-153zM459 748h223q197 0 197 184q0 90 -50.5 140t-148.5 50h-221v-374z" glyph-name="Rcaron" horiz-adv-x="1320" unicode="Ř"/><glyph d="M182 1477l146 180l219 -139l217 139l147 -180l-364 -250zM438 360v-360h-323v1147h483q231 0 360 -106.5t129 -288.5q0 -238 -192 -324l260 -428h-348l-217 362l-105 -2h-47zM438 608h178q139 0 139.5 123t-139.5 123h-178v-246z" glyph-name="rcaron" horiz-adv-x="1187" unicode="ř"/><glyph d="M786 1544h-305l230 371l268 -84zM668 274q211 0 211 138q0 78 -74 108q-56 22 -146 38q-89 14 -153 30q-144 34 -264 118q-148 102 -148 316.5t146.5 327t396.5 112.5q465 0 582 -375l-328 -88q-53 162 -249.5 162t-197.5 -127q0 -90 117 -128q45 -14 80 -21.5t81 -18 t98 -20.5q142 -27 262 -110q146 -100 145.5 -320.5t-146 -332.5t-411.5 -112q-513 0 -615 387l328 88q23 -82 95.5 -127t189.5 -45z" glyph-name="Sacute" horiz-adv-x="1284" unicode="Ś"/><glyph d="M694 1257h-305l229 371l267 -84zM567 227q152 0 152 105q0 44 -22.5 61t-40.5 25q-27 12 -176.5 43t-203.5 53q-54 24 -101 60q-99 75 -99 245t122 260q120 90 332 90q421 0 506 -286l-282 -76q-33 113 -188.5 113t-155.5 -97q0 -47 48 -68.5t128 -36.5t96 -20 q369 -70 369 -360q0 -184 -132.5 -272.5t-326.5 -88.5q-468 0 -537 312l295 78q12 -53 64.5 -96.5t152.5 -43.5z" glyph-name="sacute" horiz-adv-x="1105" unicode="ś"/><glyph d="M997 1694l-147 -181l-217 154l-217 -154l-148 181l365 266zM668 274q211 0 211 138q0 78 -74 108q-56 22 -146 38q-89 14 -153 30q-144 34 -264 118q-148 102 -148 316.5t146.5 327t396.5 112.5q465 0 582 -375l-328 -88q-53 162 -249.5 162t-197.5 -127q0 -90 117 -128 q45 -14 80 -21.5t81 -18t98 -20.5q142 -27 262 -110q146 -100 145.5 -320.5t-146 -332.5t-411.5 -112q-513 0 -615 387l328 88q23 -82 95.5 -127t189.5 -45z" glyph-name="Scircumflex" horiz-adv-x="1284" unicode="Ŝ"/><glyph d="M905 1407l-147 -180l-217 153l-219 -153l-148 180l367 266zM567 227q152 0 152 105q0 44 -22.5 61t-40.5 25q-27 12 -176.5 43t-203.5 53q-54 24 -101 60q-99 75 -99 245t122 260q120 90 332 90q421 0 506 -286l-282 -76q-33 113 -188.5 113t-155.5 -97q0 -47 48 -68.5 t128 -36.5t96 -20q369 -70 369 -360q0 -184 -132.5 -272.5t-326.5 -88.5q-468 0 -537 312l295 78q12 -53 64.5 -96.5t152.5 -43.5z" glyph-name="scircumflex" horiz-adv-x="1105" unicode="ŝ"/><glyph d="M1227 414q0 -332 -332 -416q63 -53 63 -148q0 -215 -315 -215q-125 0 -188 25v209q49 -16 135 -16q135 0 135 47q0 61 -256 59v33q-334 68 -414 366l328 88q23 -82 95.5 -127t189.5 -45q211 0 211 138q0 78 -74 108q-56 22 -146 38q-89 14 -153 30q-144 34 -264 118 q-148 102 -148 316.5t146.5 327t396.5 112.5q465 0 582 -375l-328 -88q-53 162 -249.5 162t-197.5 -127q0 -90 117 -128q45 -14 80 -21.5t81 -18t98 -20.5q142 -27 262 -110q146 -100 145 -322z" glyph-name="Scedilla" horiz-adv-x="1284" unicode="Ş"/><glyph d="M1051 338q0 -252 -250 -330q78 -51 78 -158q0 -215 -316 -215q-125 0 -188 25v209q49 -16 135 -16q135 0 135 47q0 61 -256 59v35q-283 59 -334 295l295 78q12 -53 64.5 -96.5t152.5 -43.5q152 0 152 105q0 44 -22.5 61t-40.5 25q-27 12 -176.5 43t-203.5 53 q-54 24 -101 60q-99 75 -99 245t122 260q120 90 332 90q421 0 506 -286l-282 -76q-33 113 -188.5 113t-155.5 -97q0 -47 48 -68.5t128 -36.5t96 -20q369 -69 369 -360z" glyph-name="scedilla" horiz-adv-x="1105" unicode="ş"/><glyph d="M276 1763l148 181l217 -140l219 140l148 -181l-367 -250zM668 274q211 0 211 138q0 78 -74 108q-56 22 -146 38q-89 14 -153 30q-144 34 -264 118q-148 102 -148 316.5t146.5 327t396.5 112.5q465 0 582 -375l-328 -88q-53 162 -249.5 162t-197.5 -127q0 -90 117 -128 q45 -14 80 -21.5t81 -18t98 -20.5q142 -27 262 -110q146 -100 145.5 -320.5t-146 -332.5t-411.5 -112q-513 0 -615 387l328 88q23 -82 95.5 -127t189.5 -45z" glyph-name="Scaron" horiz-adv-x="1284" unicode="Š"/><glyph d="M184 1477l146 180l219 -139l217 139l147 -180l-364 -250zM567 227q152 0 152 105q0 44 -22.5 61t-40.5 25q-27 12 -176.5 43t-203.5 53q-54 24 -101 60q-99 75 -99 245t122 260q120 90 332 90q421 0 506 -286l-282 -76q-33 113 -188.5 113t-155.5 -97q0 -47 48 -68.5 t128 -36.5t96 -20q369 -70 369 -360q0 -184 -132.5 -272.5t-326.5 -88.5q-468 0 -537 312l295 78q12 -53 64.5 -96.5t152.5 -43.5z" glyph-name="scaron" horiz-adv-x="1105" unicode="š"/><glyph d="M846 1114v-1073q147 -45 147 -191q0 -215 -315 -215q-127 0 -191 25v209q49 -16 138 -16q133 0 133 47q0 61 -256 59v1155h-439v320h1221v-320h-438z" glyph-name="Tcommaaccent" horiz-adv-x="1347" unicode="Ţ"/><glyph d="M754 846v-799q166 -41 166 -197q0 -215 -316 -215q-125 0 -188 25v209q45 -16 135 -16q135 0 135 47q0 61 -258 59v887h-365v301h1055v-301h-364z" glyph-name="tcommaaccent" horiz-adv-x="1181" unicode="ţ"/><glyph d="M309 1763l148 181l217 -140l219 140l145 -181l-364 -250zM1284 1114h-438v-1114h-344v1114h-439v320h1221v-320z" glyph-name="Tcaron" horiz-adv-x="1347" unicode="Ť"/><glyph d="M213 1477l147 180l220 -139l217 139l147 -180l-364 -250zM1118 846h-364v-846h-326v846h-365v301h1055v-301z" glyph-name="tcaron" horiz-adv-x="1181" unicode="ť"/><glyph d="M846 1114v-278h225v-320h-225v-516h-344v516h-226v320h226v278h-439v320h1221v-320h-438z" glyph-name="Tbar" horiz-adv-x="1347" unicode="Ŧ"/><glyph d="M754 846v-182h180v-240h-180v-424h-326v424h-176v240h176v182h-365v301h1055v-301h-364z" glyph-name="tbar" horiz-adv-x="1181" unicode="ŧ"/><glyph d="M1079 1550h-682v283h682v-283zM1352 1434v-795q0 -319 -169 -493.5t-456 -174.5t-456 174t-169 494v795h349v-785q0 -182 69.5 -267t210.5 -85q281 0 281 352v785h340z" glyph-name="Umacron" horiz-adv-x="1454" unicode="Ū"/><glyph d="M997 1264h-682v282h682v-282zM1198 1147v-592q0 -291 -147.5 -434.5t-401.5 -143.5t-400.5 143.5t-146.5 434.5v592h330v-623q0 -250 221 -250t221 250v623h324z" glyph-name="umacron" horiz-adv-x="1300" unicode="ū"/><glyph d="M738 1733q126 0 130 106h250q-8 -152 -109.5 -234.5t-271.5 -82.5t-271.5 82.5t-109.5 234.5h250q6 -106 132 -106zM1352 1434v-795q0 -319 -169 -493.5t-456 -174.5t-456 174t-169 494v795h349v-785q0 -182 69.5 -267t210.5 -85q281 0 281 352v785h340z" glyph-name="Ubreve" horiz-adv-x="1454" unicode="Ŭ"/><glyph d="M656 1446q126 0 130 106h248q-6 -152 -107.5 -234.5t-272.5 -82.5t-271.5 82.5t-108.5 234.5h250q6 -106 132 -106zM1198 1147v-592q0 -291 -147.5 -434.5t-401.5 -143.5t-400.5 143.5t-146.5 434.5v592h330v-623q0 -250 221 -250t221 250v623h324z" glyph-name="ubreve" horiz-adv-x="1300" unicode="ŭ"/><glyph d="M738 1495q-128 0 -206.5 65.5t-78.5 184.5t78.5 185.5t206.5 66.5t207 -65.5t79 -185.5t-79 -185.5t-207 -65.5zM739 1661q45 0 72 22.5t27 62.5t-27 62.5t-72 22.5q-98 0 -98 -85t98 -85zM1352 1434v-795q0 -319 -169 -493.5t-456 -174.5t-456 174t-169 494v795h349 v-785q0 -182 69.5 -267t210.5 -85q281 0 281 352v785h340z" glyph-name="Uring" horiz-adv-x="1454" unicode="Ů"/><glyph d="M656 1208q-128 0 -206.5 65.5t-78.5 185.5t78.5 185.5t206.5 65.5t207 -65.5t79 -185.5t-79 -185.5t-207 -65.5zM656 1374q46 0 73 22.5t27 62.5t-27 62.5t-72 22.5q-100 0 -100 -86q0 -39 26.5 -61.5t72.5 -22.5zM1198 1147v-592q0 -291 -147.5 -434.5t-401.5 -143.5 t-400.5 143.5t-146.5 434.5v592h330v-623q0 -250 221 -250t221 250v623h324z" glyph-name="uring" horiz-adv-x="1300" unicode="ů"/><glyph d="M641 1544h-305l229 371l266 -84zM1098 1544h-305l229 371l266 -84zM1352 1434v-795q0 -319 -169 -493.5t-456 -174.5t-456 174t-169 494v795h349v-785q0 -182 69.5 -267t210.5 -85q281 0 281 352v785h340z" glyph-name="Uhungarumlaut" horiz-adv-x="1454" unicode="Ű"/><glyph d="M557 1257h-305l229 371l269 -84zM1014 1257h-303l227 371l268 -84zM1198 1147v-592q0 -291 -147.5 -434.5t-401.5 -143.5t-400.5 143.5t-146.5 434.5v592h330v-623q0 -250 221 -250t221 250v623h324z" glyph-name="uhungarumlaut" horiz-adv-x="1300" unicode="ű"/><glyph d="M1352 1434v-795q0 -276 -130 -446t-358 -209q-49 -16 -49 -64q0 -61 96.5 -61t157.5 35v-224q-104 -35 -190 -35q-145 0 -242.5 58.5t-97.5 177.5q0 63 32 117q-219 43 -344 211t-125 440v795h349v-785q0 -182 69.5 -267t210.5 -85q281 0 281 352v785h340z" glyph-name="Uogonek" horiz-adv-x="1452" unicode="Ų"/><glyph d="M717 -68q0 -66 119 -65q78 0 172 29v-224q-92 -37 -228 -37t-239 58.5t-103 177.5q0 72 41 125q-178 43 -277.5 182t-99.5 377v592h330v-623q0 -250 221 -250t221 250v623h324v-592q0 -254 -112.5 -395t-311.5 -174q-57 -12 -57 -54z" glyph-name="uogonek" horiz-adv-x="1298" unicode="ų"/><glyph d="M1489 1694l-148 -181l-217 154l-219 -154l-147 181l366 266zM1085 903q0 -23 -84 -325l-157 -578h-393l-418 1434h383l162 -613q23 -88 46 -180t34.5 -133t11.5 -43h8q2 4 80 301l143 532h418l141 -536q76 -289 80 -297h6q4 8 92 344l170 625h342l-417 -1434h-377 l-176 592q-43 144 -78 274l-8 37h-9z" glyph-name="Wcircumflex" horiz-adv-x="2181" unicode="Ŵ"/><glyph d="M1286 1407l-147 -180l-217 153l-220 -153l-145 180l365 266zM1120 0l-202 674h-7l-204 -674h-340l-334 1147h346l115 -424q56 -200 71 -272l8 -29h7l6 29q21 72 69 241l103 363h352l98 -365q48 -189 60 -239l6 -29h6l6 29q8 29 28.5 105.5t45.5 166.5l121 424h313 l-334 -1147h-340z" glyph-name="wcircumflex" horiz-adv-x="1826" unicode="ŵ"/><glyph d="M1120 1694l-147 -181l-217 154l-219 -154l-148 181l367 266zM901 0h-344v565l-534 869l397 2q221 -392 230 -408l75 -131l12 -23h6l15 23q36 75 82 147l229 390h367l-535 -869v-565z" glyph-name="Ycircumflex" horiz-adv-x="1460" unicode="Ŷ"/><glyph d="M991 1407l-147 -180l-217 153l-219 -153l-148 180l367 266zM766 0h-326v391l-417 756h370l121 -232q41 -80 92 -186l15 -29h6l14 29q14 27 41 83t51 103l119 232h336l-422 -756v-391z" glyph-name="ycircumflex" horiz-adv-x="1210" unicode="ŷ"/><glyph d="M544.5 1561q-63.5 0 -106.5 44t-43 105.5t45.5 106.5t107.5 45t105 -45t43 -106.5t-44 -105.5t-107.5 -44zM981 1561q-63 0 -106.5 44t-43.5 105.5t44.5 106.5t106.5 45t106.5 -45t44.5 -106.5t-44.5 -105.5t-107.5 -44zM901 0h-344v565l-534 869l397 2 q221 -392 230 -408l75 -131l12 -23h6l15 23q36 75 82 147l229 390h367l-535 -869v-565z" glyph-name="Ydieresis" horiz-adv-x="1460" unicode="Ÿ"/><glyph d="M848 1544h-305l229 371l268 -84zM1288 319v-319h-1212v319l645 654q37 37 72.5 70.5t50.5 50.5l16 14l-4 8h-12l-206 -1q-206 -1 -542 -1v320h1192v-332l-606 -619q-85 -85 -145 -139l-21 -18l4 -9h14l206 1q204 1 548 1z" glyph-name="Zacute" horiz-adv-x="1366" unicode="Ź"/><glyph d="M737 1257h-305l230 371l266 -84zM1098 301v-301h-1022v313l438 385q47 41 58 50l102 88l-4 10h-576v301h1004v-313l-404 -361q-76 -68 -136 -116t-60 -50l4 -8h24l33 1z" glyph-name="zacute" horiz-adv-x="1173" unicode="ź"/><glyph d="M704 1561q-62 0 -106.5 44t-44.5 105.5t44.5 106.5t106.5 45t106 -45t44 -106.5t-44 -105.5t-106 -44zM1288 319v-319h-1212v319l645 654q37 37 72.5 70.5t50.5 50.5l16 14l-4 8h-12l-206 -1q-206 -1 -542 -1v320h1192v-332l-606 -619q-85 -85 -145 -139l-21 -18l4 -9h14 l206 1q204 1 548 1z" glyph-name="Zdotaccent" horiz-adv-x="1366" unicode="Ż"/><glyph d="M591.5 1274q-63.5 0 -106.5 44t-43 105.5t44 106.5t106 45t106.5 -45t44.5 -106.5t-44 -105.5t-107.5 -44zM1098 301v-301h-1022v313l438 385q47 41 58 50l102 88l-4 10h-576v301h1004v-313l-404 -361q-76 -68 -136 -116t-60 -50l4 -8h24l33 1z" glyph-name="zdotaccent" horiz-adv-x="1173" unicode="ż"/><glyph d="M338 1763l147 181l220 -140l217 140l147 -181l-364 -250zM1288 319v-319h-1212v319l645 654q37 37 72.5 70.5t50.5 50.5l16 14l-4 8h-12l-206 -1q-206 -1 -542 -1v320h1192v-332l-606 -619q-85 -85 -145 -139l-21 -18l4 -9h14l206 1q204 1 548 1z" glyph-name="Zcaron" horiz-adv-x="1366" unicode="Ž"/><glyph d="M227 1477l148 180l217 -139l219 139l147 -180l-366 -250zM1098 301v-301h-1022v313l438 385q47 41 58 50l102 88l-4 10h-576v301h1004v-313l-404 -361q-76 -68 -136 -116t-60 -50l4 -8h24l33 1z" glyph-name="zcaron" horiz-adv-x="1173" unicode="ž"/><glyph d="M668 274q211 0 211 138q0 78 -74 108q-56 22 -146 38q-89 14 -153 30q-144 34 -264 118q-148 102 -148 316.5t146.5 327t396.5 112.5q465 0 582 -375l-328 -88q-53 162 -249.5 162t-197.5 -127q0 -90 117 -128q45 -14 80 -21.5t81 -18t98 -20.5q142 -27 262 -110 q146 -100 145.5 -320.5t-146 -332.5t-411.5 -112q-513 0 -615 387l328 88q23 -82 95.5 -127t189.5 -45zM475 -170q0 53 44 87t120 34t122 -40t46 -124t-58.5 -150.5t-166.5 -97.5l-105 117q29 4 61 22t44 41q-49 -2 -78 28t-29 83z" glyph-name="Scommaaccent" horiz-adv-x="1284" unicode="Ș"/><glyph d="M567 227q152 0 152 105q0 44 -22.5 61t-40.5 25q-27 12 -176.5 43t-203.5 53q-54 24 -101 60q-99 75 -99 245t122 260q120 90 332 90q421 0 506 -286l-282 -76q-33 113 -188.5 113t-155.5 -97q0 -47 48 -68.5t128 -36.5t96 -20q369 -70 369 -360q0 -184 -132.5 -272.5 t-326.5 -88.5q-468 0 -537 312l295 78q12 -53 64.5 -96.5t152.5 -43.5zM395 -170q0 53 44 87t120 34t121 -40t45 -124t-57.5 -150.5t-165.5 -97.5l-105 117q29 4 61 22t44 41q-49 -2 -78 28t-29 83z" glyph-name="scommaaccent" horiz-adv-x="1105" unicode="ș"/><glyph d="M1284 1114h-438v-1114h-344v1114h-439v320h1221v-320zM510 -170q0 53 44 87t120 34t121 -40t45 -124t-58.5 -150.5t-167.5 -97.5l-104 117q77 14 104 63q-49 -2 -76.5 28t-27.5 83z" glyph-name="uni021A" horiz-adv-x="1347" unicode="Ț"/><glyph d="M1118 846h-364v-846h-326v846h-365v301h1055v-301zM436 -170q0 53 44 87t120 34t121 -40t45 -124t-57.5 -150.5t-165.5 -97.5l-105 117q27 4 60 22t45 41q-49 -2 -78 28t-29 83z" glyph-name="uni021B" horiz-adv-x="1181" unicode="ț"/><glyph d="M836 1147v-619q0 -268 -127 -409.5t-359 -141.5t-350 113l178 236q57 -52 162 -52t138.5 61.5t33.5 215.5v596h324z" glyph-name="uni0237" horiz-adv-x="937" unicode="ȷ"/><glyph d="M965 1694l-148 -181l-217 154l-219 -154l-148 181l367 266z" glyph-name="circumflex" horiz-adv-x="1198" unicode="ˆ"/><glyph d="M233 1763l148 181l219 -140l217 140l148 -181l-365 -250z" glyph-name="caron" horiz-adv-x="1198" unicode="ˇ"/><glyph d="M599 1733q126 0 130 106h250q-8 -152 -109.5 -234.5t-271.5 -82.5t-271.5 82.5t-109.5 234.5h250q6 -106 132 -106z" glyph-name="breve" horiz-adv-x="1198" unicode="˘"/><glyph d="M600.5 1561q-63.5 0 -107.5 44t-44 105.5t44 106.5t106 45t106.5 -45t44.5 -106.5t-43 -105.5t-106.5 -44z" glyph-name="dotaccent" horiz-adv-x="1198" unicode="˙"/><glyph d="M600 1497q-129 0 -208 65.5t-79 184.5t79 184.5t207 65.5t207 -65.5t79 -184.5t-78 -184.5t-207 -65.5zM600 1661q45 0 71.5 22.5t26.5 62.5t-26.5 63.5t-71.5 23.5t-71.5 -22.5t-26.5 -63.5q0 -86 98 -86z" glyph-name="ring" horiz-adv-x="1198" unicode="˚"/><glyph d="M545 -71q0 -67 112 -66q63 0 140 33v-224q-84 -37 -211 -37t-220.5 51.5t-93.5 157.5q0 145 118.5 185.5t248.5 62.5l74 -92q-168 -4 -168 -71z" glyph-name="ogonek" horiz-adv-x="1198" unicode="˛"/><glyph d="M772 1565q-59 0 -157.5 30.5t-174.5 30.5t-143 -57l-53 248q16 23 68.5 44t110.5 21t155.5 -30.5t177.5 -30.5t141 57l51 -248q-14 -23 -65.5 -44t-110.5 -21z" glyph-name="tilde" horiz-adv-x="1198" unicode="˜"/><glyph d="M492 1544h-306l230 371l266 -84zM948 1544h-305l229 371l267 -84z" glyph-name="hungarumlaut" horiz-adv-x="1198" unicode="˝"/><glyph d="M436 -170q0 53 45 87t120 34t121 -40t46 -124t-58.5 -150.5t-166.5 -97.5l-105 117q78 14 105 63q-49 -2 -78 28t-29 83z" glyph-name="uni0326" horiz-adv-x="0" unicode="̦"/><glyph d="M1063 1915l229 -371h-305l-190 287zM1085 903q0 -23 -84 -325l-157 -578h-393l-418 1434h383l162 -613q23 -88 46 -180t34.5 -133t11.5 -43h8q2 4 80 301l143 532h418l141 -536q76 -289 80 -297h6q4 8 92 344l170 625h342l-417 -1434h-377l-176 592q-43 144 -78 274 l-8 37h-9z" glyph-name="Wgrave" horiz-adv-x="2181" unicode="Ẁ"/><glyph d="M862 1628l230 -371h-306l-192 287zM1120 0l-202 674h-7l-204 -674h-340l-334 1147h346l115 -424q56 -200 71 -272l8 -29h7l6 29q21 72 69 241l103 363h352l98 -365q48 -189 60 -239l6 -29h6l6 29q8 29 28.5 105.5t45.5 166.5l121 424h313l-334 -1147h-340z" glyph-name="wgrave" horiz-adv-x="1826" unicode="ẁ"/><glyph d="M1278 1544h-305l229 371l266 -84zM1085 903q0 -23 -84 -325l-157 -578h-393l-418 1434h383l162 -613q23 -88 46 -180t34.5 -133t11.5 -43h8q2 4 80 301l143 532h418l141 -536q76 -289 80 -297h6q4 8 92 344l170 625h342l-417 -1434h-377l-176 592q-43 144 -78 274l-8 37 h-9z" glyph-name="Wacute" horiz-adv-x="2181" unicode="Ẃ"/><glyph d="M1075 1257h-305l229 371l267 -84zM1120 0l-202 674h-7l-204 -674h-340l-334 1147h346l115 -424q56 -200 71 -272l8 -29h7l6 29q21 72 69 241l103 363h352l98 -365q48 -189 60 -239l6 -29h6l6 29q8 29 28.5 105.5t45.5 166.5l121 424h313l-334 -1147h-340z" glyph-name="wacute" horiz-adv-x="1826" unicode="ẃ"/><glyph d="M913.5 1561q-63.5 0 -106.5 44t-43 105.5t45 106.5t107 45t105.5 -45t43.5 -106.5t-44 -105.5t-107.5 -44zM1351 1561q-62 0 -106.5 44t-44.5 105.5t44 106.5t106 45t106.5 -45t44.5 -106.5t-44 -105.5t-106 -44zM1085 903q0 -23 -84 -325l-157 -578h-393l-418 1434h383 l162 -613q23 -88 46 -180t34.5 -133t11.5 -43h8q2 4 80 301l143 532h418l141 -536q76 -289 80 -297h6q4 8 92 344l170 625h342l-417 -1434h-377l-176 592q-43 144 -78 274l-8 37h-9z" glyph-name="Wdieresis" horiz-adv-x="2181" unicode="Ẅ"/><glyph d="M712 1274q-62 0 -106.5 44t-44.5 105.5t45.5 106.5t107.5 45t105 -45t43 -106.5t-44 -105.5t-106 -44zM1148.5 1274q-63.5 0 -107.5 44t-44 105.5t44.5 106.5t106.5 45t106 -45t44 -106.5t-43 -105.5t-106.5 -44zM1120 0l-202 674h-7l-204 -674h-340l-334 1147h346 l115 -424q56 -200 71 -272l8 -29h7l6 29q21 72 69 241l103 363h352l98 -365q48 -189 60 -239l6 -29h6l6 29q8 29 28.5 105.5t45.5 166.5l121 424h313l-334 -1147h-340z" glyph-name="wdieresis" horiz-adv-x="1826" unicode="ẅ"/><glyph d="M977 881q176 0 289.5 -126.5t113.5 -316.5t-120.5 -328.5t-364.5 -138.5q-203 0 -340 121l147 256q68 -68 156 -68t132 46t44 120t-49 121t-141 47h-199v267l117 227l-6 6h-297v-1114h-344v1434h1142l-296 -547l6 -6h10z" glyph-name="uni1E9E" horiz-adv-x="1423" unicode="ẞ"/><glyph d="M694 1915l230 -371h-306l-190 287zM901 0h-344v565l-534 869l397 2q221 -392 230 -408l75 -131l12 -23h6l15 23q36 75 82 147l229 390h367l-535 -869v-565z" glyph-name="Ygrave" horiz-adv-x="1460" unicode="Ỳ"/><glyph d="M567 1628l228 -371h-303l-193 287zM766 0h-326v391l-417 756h370l121 -232q41 -80 92 -186l15 -29h6l14 29q14 27 41 83t51 103l119 232h336l-422 -756v-391z" glyph-name="ygrave" horiz-adv-x="1210" unicode="ỳ"/><glyph glyph-name="uni2002" horiz-adv-x="716" unicode=" "/><glyph glyph-name="uni2003" horiz-adv-x="1316" unicode=" "/><glyph glyph-name="uni2007" unicode=" "/><glyph glyph-name="uni2008" horiz-adv-x="579" unicode=" "/><glyph glyph-name="uni2009" horiz-adv-x="256" unicode=" "/><glyph glyph-name="uni200A" horiz-adv-x="81" unicode=" "/><glyph glyph-name="uni200B" horiz-adv-x="0" unicode="​"/><glyph d="M1200 434h-1032v281h1032v-281z" glyph-name="endash" unicode="–"/><glyph d="M1792 434h-1624v281h1624v-281z" glyph-name="emdash" horiz-adv-x="1959" unicode="—"/><glyph d="M467 1092q0 -59 -47 -101.5t-126 -42.5t-133.5 55.5t-54.5 152.5t66 179t178 117l127 -141q-92 -20 -125 -94q53 2 84 -32t31 -93z" glyph-name="quoteleft" horiz-adv-x="579" unicode="‘"/><glyph d="M115 1314q0 60 46 102t125 42t134 -55t55 -153t-66.5 -180.5t-179.5 -115.5l-125 142q92 20 125 92q-51 -2 -82.5 32t-31.5 94z" glyph-name="quoteright" horiz-adv-x="579" unicode="’"/><glyph d="M115 154q0 60 46 102.5t125 42.5t134 -55.5t55 -152.5t-66.5 -179t-179.5 -117l-125 142q92 20 125 92q-51 -2 -82.5 31.5t-31.5 93.5z" glyph-name="quotesinglbase" horiz-adv-x="579" unicode="‚"/><glyph d="M934 1092q0 -59 -46 -101.5t-125 -42.5t-133.5 55.5t-54.5 152.5t66 179t178 117l127 -141q-94 -20 -127 -94q53 2 84 -32t31 -93zM463 1092q0 -59 -46 -101.5t-125 -42.5t-133.5 55.5t-54.5 152.5t66 179t178 117l127 -141q-94 -20 -127 -94q53 2 84 -32t31 -93z" glyph-name="quotedblleft" horiz-adv-x="1050" unicode="“"/><glyph d="M115 1314q0 60 46 102t125 42t134 -55t55 -153t-66.5 -180.5t-179.5 -115.5l-125 142q92 20 125 92q-51 -2 -82.5 32t-31.5 94zM586 1314q0 60 46 102t125 42t134 -55t55 -153t-66.5 -180.5t-179.5 -115.5l-125 142q92 20 125 92q-51 -2 -82.5 32t-31.5 94z" glyph-name="quotedblright" horiz-adv-x="1050" unicode="”"/><glyph d="M115 154q0 60 46 102.5t125 42.5t134 -55.5t55 -152.5t-66.5 -179t-179.5 -117l-125 142q92 20 125 92q-51 -2 -82.5 31.5t-31.5 93.5zM586 154q0 60 46 102.5t126 42.5t134 -55.5t54 -152.5t-65.5 -179t-178.5 -117l-127 142q92 20 125 92q-51 -2 -82.5 31.5t-31.5 93.5 z" glyph-name="quotedblbase" horiz-adv-x="1052" unicode="„"/><glyph d="M856 1106h293v-297h-293v-186q0 -305 -19.5 -463t-21.5 -160h-262q-2 2 -21.5 160t-19.5 463v186h-293v297h293v328h344v-328z" glyph-name="dagger" unicode="†"/><glyph d="M219 315v299h293v195h-293v297h293v328h344v-328h293v-297h-293v-195h293v-299h-303q-7 -150 -18 -231.5t-13 -83.5h-262q-18 146 -31 315h-303z" glyph-name="daggerdbl" unicode="‡"/><glyph d="M349 362q-103 0 -168.5 61t-65.5 159t65.5 158.5t168.5 60.5t168 -60.5t65 -157.5t-65 -159t-168 -62z" glyph-name="bullet" horiz-adv-x="696" unicode="•"/><glyph d="M259 -23q-69 0 -106.5 39t-37.5 96.5t37.5 94.5t106.5 37t106.5 -37t37.5 -94.5t-37.5 -96.5t-106.5 -39zM782.5 -23q-69.5 0 -107.5 39t-38 96.5t38 94.5t107.5 37t106.5 -37t37 -95t-37 -96.5t-106.5 -38.5zM1327 -23q-70 0 -107.5 39t-37.5 96.5t37.5 94.5t106.5 37 t106.5 -37t37.5 -95t-36.5 -96.5t-106.5 -38.5z" glyph-name="ellipsis" horiz-adv-x="1587" unicode="…"/><glyph d="M358.5 463q-147.5 0 -219 93t-71.5 259t71.5 260t219 94t219 -94t71.5 -260t-71.5 -259t-219 -93zM1040 1147l-385 -1147h-166l383 1147h168zM359 651q46 0 66.5 34t20.5 130t-20 130t-66 34t-68 -35t-22 -129t21.5 -129t67.5 -35zM1800.5 -12q-147.5 0 -220.5 94 t-73 259t73 259t220.5 94t219 -94t71.5 -259t-71.5 -259t-219 -94zM1175.5 -12q-147.5 0 -220 94t-72.5 259t72.5 259t220 94t218 -94t70.5 -259t-70.5 -259t-218 -94zM1175 178q46 0 68.5 34t22.5 129t-22.5 129t-68.5 34t-69 -34t-23 -129t23 -129t69 -34zM1800 178 q45 0 67.5 34t22.5 129t-22.5 129t-67.5 34t-67.5 -34t-22.5 -129t22.5 -129t67.5 -34z" glyph-name="perthousand" horiz-adv-x="2156" unicode="‰"/><glyph d="M606 1055l185 -185l-308 -290v-9l310 -288l-189 -189l-481 481z" glyph-name="guilsinglleft" horiz-adv-x="915" unicode="‹"/><glyph d="M311 94l-188 189l307 288v9l-305 290l184 185l484 -480z" glyph-name="guilsinglright" horiz-adv-x="915" unicode="›"/><glyph d="M489 1434l-428 -1434h-202l428 1434h202z" glyph-name="fraction" horiz-adv-x="348" unicode="⁄"/><glyph d="M654 260q130 0 173 115l322 -84q-43 -127 -162 -220.5t-334 -93.5q-414 0 -506 383h-90v175h68l-2 53v24h-64v174h82q80 383 505 383t505 -346l-320 -86q-18 76 -60 115t-126 39q-129 0 -168 -105h201v-174h-227v-77h227v-175h-195q41 -100 171 -100z" glyph-name="Euro" horiz-adv-x="1204" unicode="€"/><glyph d="M989 721h-160q-12 -115 -83.5 -197t-190.5 -108l246 -416h-395l-236 422v223h162q66 0 102.5 14.5t52.5 61.5h-372v174h370q-27 78 -133 78h-237v174h874v-174h-201l-2 -15q18 -25 29 -63h174v-174z" glyph-name="uni20B9" horiz-adv-x="1058" unicode="₹"/><glyph d="M616 0h-399v414l-106 -19v174l106 19v78l-106 -19v174l106 19v307h326v-250l178 31v-174l-178 -31v-78l178 31v-174l-178 -31v-170h57q191 0 234 178l307 -82q-31 -170 -164 -283.5t-361 -113.5z" glyph-name="uni20BA" horiz-adv-x="1204" unicode="₺"/><glyph d="M1417 819q0 152 101.5 251t249 99t250 -99t102.5 -251t-102.5 -251t-250 -99t-249 99t-101.5 251zM438 0h-323v1147h336l448 -623h6v623h326v-1147h-340l-447 645h-8v-7v-32zM1616 818q0 -71 40 -115t111.5 -44t111.5 44.5t40 114.5t-40 115.5t-111.5 45.5t-111.5 -45 t-40 -116zM2099 143h-661v205h661v-205z" glyph-name="afii61352" horiz-adv-x="2191" unicode="№"/><glyph d="M800.5 1288q313.5 0 529.5 -208t216 -536t-216 -537.5t-529.5 -209.5t-528.5 209t-215 538t215 536.5t528.5 207.5zM801 1124q-252 0 -414 -161.5t-162 -417.5t162 -420t414 -164t413.5 163t161.5 420t-161.5 418.5t-413.5 161.5zM518 924h328q145 0 229 -78t84 -206 t-85 -198.5t-263 -70.5h-70v-203h-223v756zM741 545h103q94 0 94 85t-94 85h-103v-170z" glyph-name="uni2117" horiz-adv-x="1603" unicode="℗"/><glyph d="M1563 768h-199v385h-2l-10 -18q-26 -53 -64 -123l-51 -97h-92l-51 97l-32 54q-32 54 -42 73l-12 20h-2l2 -201v-190h-193v666h223l92 -162q63 -113 66 -115h2l137 277h228v-666zM694 1434v-191h-211v-475h-207v475h-213v191h631z" glyph-name="trademark" horiz-adv-x="1677" unicode="™"/><glyph d="M647 643h-516v188h150v195q0 106 14 154h-10q-6 -9 -47 -54l-48 -49l-137 131l238 226h207v-600h149v-191zM1186 1434l-428 -1434h-203l428 1434h203zM1360 602h-244v191h572v-197l-306 -594h-219l203 406q88 176 102 190l-6 8q-12 -4 -102 -4z" glyph-name="uni2150" horiz-adv-x="1740" unicode="⅐"/><glyph d="M647 643h-516v188h150v195q0 106 14 154h-10q-6 -9 -47 -54l-48 -49l-137 131l238 226h207v-600h149v-191zM1186 1434l-428 -1434h-203l428 1434h203zM1311 289q-106 0 -170 68.5t-64 184.5t87 191.5t220 75.5t222.5 -76.5t89.5 -226.5t-137 -326l-142 -178h-241l260 324 l-9 6q-51 -43 -116 -43zM1376 629q-47 0 -76.5 -24.5t-30.5 -70.5t29.5 -70t77.5 -24t78 23.5t31 69t-31 71t-78 25.5z" glyph-name="uni2151" horiz-adv-x="1740" unicode="⅑"/><glyph d="M647 643h-516v188h150v195q0 106 14 154h-10q-6 -9 -47 -54l-48 -49l-137 131l238 226h207v-600h149v-191zM1186 1434l-428 -1434h-203l428 1434h203zM2089 -14q-309 0 -309 412t309 411q309 1 309 -411t-309 -412zM1692 2h-516v191h149v192q0 106 14 154h-10 q-6 -9 -47 -54l-45 -49l-139 131l237 226h207v-600h150v-191zM2091 188q45 0 62.5 43t17.5 165t-17.5 165t-62.5 43t-64.5 -44t-19.5 -164t19.5 -164t64.5 -44z" glyph-name="uni2152" horiz-adv-x="2437" unicode="⅒"/><glyph d="M647 643h-516v188h150v195q0 106 14 154h-10q-6 -9 -47 -54l-48 -49l-137 131l238 226h207v-600h149v-191zM1186 1434l-428 -1434h-203l428 1434h203zM1700 206q0 -87 -81 -153.5t-204 -66.5q-272 0 -328 227l189 57q14 -98 115 -98q49 0 75.5 23.5t26.5 61.5t-26.5 59.5 t-73.5 21.5h-56v135h45q47 0 73 23.5t26 58.5t-24.5 55.5t-67.5 20.5q-92 0 -109 -101l-178 48q16 106 91 168.5t210 62.5t206.5 -59.5t71.5 -145.5t-37 -136t-90 -58v-9q59 -8 102.5 -58t43.5 -137z" glyph-name="onethird" horiz-adv-x="1740" unicode="⅓"/><glyph d="M61 643v252l267 162q96 55 96 117q0 80 -88 80t-107 -83l-178 50q57 229 307 229q133 0 207 -63.5t74 -190.5t-119 -217q-31 -25 -83 -59.5t-89 -59.5l-37 -22l4 -11q74 6 105 7h229v-191h-588zM1186 1434l-428 -1434h-203l428 1434h203zM1700 206q0 -87 -81 -153.5 t-204 -66.5q-272 0 -328 227l189 57q14 -98 115 -98q49 0 75.5 23.5t26.5 61.5t-26.5 59.5t-73.5 21.5h-56v135h45q47 0 73 23.5t26 58.5t-24.5 55.5t-67.5 20.5q-92 0 -109 -101l-178 48q16 106 91 168.5t210 62.5t206.5 -59.5t71.5 -145.5t-37 -136t-90 -58v-9 q59 -8 102.5 -58t43.5 -137z" glyph-name="twothirds" horiz-adv-x="1740" unicode="⅔"/><glyph d="M647 643h-516v188h150v195q0 106 14 154h-10q-6 -9 -47 -54l-48 -49l-137 131l238 226h207v-600h149v-191zM1186 1434l-428 -1434h-203l428 1434h203zM1447 498q102 0 174.5 -65.5t72.5 -182.5t-76 -190.5t-214 -73.5t-218 66.5t-92 150.5l184 47q6 -35 33 -62.5 t77 -27.5t78.5 24.5t28.5 69.5t-28.5 70.5t-83.5 25.5t-87 -45l-188 49l86 439h455v-191h-326l-14 -59q-4 -16 -5 -21l-18 -59l8 -4q51 39 153 39z" glyph-name="uni2155" horiz-adv-x="1740" unicode="⅕"/><glyph d="M61 643v252l267 162q96 55 96 117q0 80 -88 80t-107 -83l-178 50q57 229 307 229q133 0 207 -63.5t74 -190.5t-119 -217q-31 -25 -83 -59.5t-89 -59.5l-37 -22l4 -11q74 6 105 7h229v-191h-588zM1186 1434l-428 -1434h-203l428 1434h203zM1447 498q102 0 174.5 -65.5 t72.5 -182.5t-76 -190.5t-214 -73.5t-218 66.5t-92 150.5l184 47q6 -35 33 -62.5t77 -27.5t78.5 24.5t28.5 69.5t-28.5 70.5t-83.5 25.5t-87 -45l-188 49l86 439h455v-191h-326l-14 -59q-4 -16 -5 -21l-18 -59l8 -4q51 39 153 39z" glyph-name="uni2156" horiz-adv-x="1740" unicode="⅖"/><glyph d="M653 848q0 -88 -79.5 -154.5t-202.5 -66.5q-276 0 -328 227l188 57q14 -98 115 -98q47 0 75 23.5t28 60.5t-27 59.5t-74 22.5h-55v135h45q45 0 71.5 23.5t26.5 58.5t-24.5 55.5t-67.5 20.5q-92 0 -108 -101l-179 48q16 106 91 168.5t210.5 62.5t207 -59.5t71.5 -145.5 t-37 -136t-90 -58v-9q57 -8 100 -57t43 -137zM1186 1434l-428 -1434h-203l428 1434h203zM1447 498q102 0 174.5 -65.5t72.5 -182.5t-76 -190.5t-214 -73.5t-218 66.5t-92 150.5l184 47q6 -35 33 -62.5t77 -27.5t78.5 24.5t28.5 69.5t-28.5 70.5t-83.5 25.5t-87 -45l-188 49 l86 439h455v-191h-326l-14 -59q-4 -16 -5 -21l-18 -59l8 -4q51 39 153 39z" glyph-name="uni2157" horiz-adv-x="1740" unicode="⅗"/><glyph d="M1186 1434l-428 -1434h-203l428 1434h203zM573 643h-206v162h-344v178l231 451h319v-439h101v-190h-101v-162zM367 995v154q0 88 4 121h-13q-2 0 -63.5 -128t-65.5 -138l7 -9h131zM1447 498q102 0 174.5 -65.5t72.5 -182.5t-76 -190.5t-214 -73.5t-218 66.5t-92 150.5 l184 47q6 -35 33 -62.5t77 -27.5t78.5 24.5t28.5 69.5t-28.5 70.5t-83.5 25.5t-87 -45l-188 49l86 439h455v-191h-326l-14 -59q-4 -16 -5 -21l-18 -59l8 -4q51 39 153 39z" glyph-name="uni2158" horiz-adv-x="1740" unicode="⅘"/><glyph d="M647 643h-516v188h150v195q0 106 14 154h-10q-6 -9 -47 -54l-48 -49l-137 131l238 226h207v-600h149v-191zM1186 1434l-428 -1434h-203l428 1434h203zM1485 489q88 0 156.5 -60t68.5 -179t-82 -191.5t-219 -72.5t-228 76t-91 218t98 275l174 238h244l-256 -347l10 -6 q37 49 125 49zM1407 160q47 0 78 25.5t31 70.5t-31 69.5t-78 24.5t-78 -24.5t-31 -69.5t31 -70.5t78 -25.5z" glyph-name="uni2159" horiz-adv-x="1740" unicode="⅙"/><glyph d="M402 1139q102 0 174.5 -65.5t72.5 -182.5t-76.5 -190.5t-214.5 -73.5t-217.5 66.5t-93.5 150.5l186 47q6 -35 33 -62.5t77 -27.5t79 24.5t29 69.5t-29 70.5t-84 25.5t-86 -45l-189 49l87 439h454v-191h-325l-15 -59q-4 -16 -10 -37t-8 -33l-4 -10l8 -4q50 39 152 39z M1186 1434l-428 -1434h-203l428 1434h203zM1485 489q88 0 156.5 -60t68.5 -179t-82 -191.5t-219 -72.5t-228 76t-91 218t98 275l174 238h244l-256 -347l10 -6q37 49 125 49zM1407 160q47 0 78 25.5t31 70.5t-31 69.5t-78 24.5t-78 -24.5t-31 -69.5t31 -70.5t78 -25.5z" glyph-name="uni215A" horiz-adv-x="1740" unicode="⅚"/><glyph d="M647 643h-516v188h150v195q0 106 14 154h-10q-6 -9 -47 -54l-48 -49l-137 131l238 226h207v-600h149v-191zM1186 1434l-428 -1434h-203l428 1434h203zM1083 215q0 80 45.5 132t106.5 71v8q-43 10 -79 53t-36 130t74 143.5t198 56.5t198.5 -56.5t74.5 -142.5t-36 -129 t-77 -55v-8q59 -18 104.5 -70.5t45.5 -132.5q0 -111 -82 -170t-227.5 -59t-227.5 59t-82 170zM1298 583.5q0 -34.5 26 -55t69 -20.5t69.5 20.5t26.5 55t-26.5 55t-69.5 20.5t-69 -20.5t-26 -55zM1284 236q0 -41 29.5 -65t79 -24t79 24t29.5 64.5t-29.5 63.5t-78.5 23 q-109 0 -109 -86z" glyph-name="oneeighth" horiz-adv-x="1740" unicode="⅛"/><glyph d="M653 848q0 -88 -79.5 -154.5t-202.5 -66.5q-276 0 -328 227l188 57q14 -98 115 -98q47 0 75 23.5t28 60.5t-27 59.5t-74 22.5h-55v135h45q45 0 71.5 23.5t26.5 58.5t-24.5 55.5t-67.5 20.5q-92 0 -108 -101l-179 48q16 106 91 168.5t210.5 62.5t207 -59.5t71.5 -145.5 t-37 -136t-90 -58v-9q57 -8 100 -57t43 -137zM1186 1434l-428 -1434h-203l428 1434h203zM1083 215q0 80 45.5 132t106.5 71v8q-43 10 -79 53t-36 130t74 143.5t198 56.5t198.5 -56.5t74.5 -142.5t-36 -129t-77 -55v-8q59 -18 104.5 -70.5t45.5 -132.5q0 -111 -82 -170 t-227.5 -59t-227.5 59t-82 170zM1298 583.5q0 -34.5 26 -55t69 -20.5t69.5 20.5t26.5 55t-26.5 55t-69.5 20.5t-69 -20.5t-26 -55zM1284 236q0 -41 29.5 -65t79 -24t79 24t29.5 64.5t-29.5 63.5t-78.5 23q-109 0 -109 -86z" glyph-name="threeeighths" horiz-adv-x="1740" unicode="⅜"/><glyph d="M402 1139q102 0 174.5 -65.5t72.5 -182.5t-76.5 -190.5t-214.5 -73.5t-217.5 66.5t-93.5 150.5l186 47q6 -35 33 -62.5t77 -27.5t79 24.5t29 69.5t-29 70.5t-84 25.5t-86 -45l-189 49l87 439h454v-191h-325l-15 -59q-4 -16 -10 -37t-8 -33l-4 -10l8 -4q50 39 152 39z M1186 1434l-428 -1434h-203l428 1434h203zM1083 215q0 80 45.5 132t106.5 71v8q-43 10 -79 53t-36 130t74 143.5t198 56.5t198.5 -56.5t74.5 -142.5t-36 -129t-77 -55v-8q59 -18 104.5 -70.5t45.5 -132.5q0 -111 -82 -170t-227.5 -59t-227.5 59t-82 170zM1298 583.5 q0 -34.5 26 -55t69 -20.5t69.5 20.5t26.5 55t-26.5 55t-69.5 20.5t-69 -20.5t-26 -55zM1284 236q0 -41 29.5 -65t79 -24t79 24t29.5 64.5t-29.5 63.5t-78.5 23q-109 0 -109 -86z" glyph-name="fiveeighths" horiz-adv-x="1740" unicode="⅝"/><glyph d="M315 1243h-243v191h571v-197l-305 -594h-219l203 406q88 176 102 190l-6 8q-16 -4 -103 -4zM1186 1434l-428 -1434h-203l428 1434h203zM1083 215q0 80 45.5 132t106.5 71v8q-43 10 -79 53t-36 130t74 143.5t198 56.5t198.5 -56.5t74.5 -142.5t-36 -129t-77 -55v-8 q59 -18 104.5 -70.5t45.5 -132.5q0 -111 -82 -170t-227.5 -59t-227.5 59t-82 170zM1298 583.5q0 -34.5 26 -55t69 -20.5t69.5 20.5t26.5 55t-26.5 55t-69.5 20.5t-69 -20.5t-26 -55zM1284 236q0 -41 29.5 -65t79 -24t79 24t29.5 64.5t-29.5 63.5t-78.5 23q-109 0 -109 -86z " glyph-name="seveneighths" horiz-adv-x="1740" unicode="⅞"/><glyph d="M647 643h-516v188h150v195q0 106 14 154h-10q-6 -9 -47 -54l-48 -49l-137 131l238 226h207v-600h149v-191zM1186 1434l-428 -1434h-203l428 1434h203z" glyph-name="uni215F" horiz-adv-x="1044" unicode="⅟"/><glyph d="M348 627q-309 -1 -309 411t309 412t309 -412t-309 -411zM1149 1434l-428 -1434h-203l428 1434h203zM350 829q45 0 62.5 43t17.5 165t-17.5 165t-63.5 43t-64.5 -43t-18.5 -164t19.5 -165t64.5 -44zM1663 206q0 -87 -81 -153.5t-204 -66.5q-272 0 -327 227l188 57 q14 -98 115 -98q49 0 75.5 23.5t26.5 61.5t-26.5 59.5t-73.5 21.5h-56v135h46q47 0 72.5 23.5t25.5 58.5t-24.5 55.5t-67.5 20.5q-92 0 -109 -101l-178 48q16 106 91 168.5t210 62.5t207 -59.5t72 -145.5t-37 -136t-90 -58v-9q59 -8 102 -58t43 -137z" glyph-name="uni2189" horiz-adv-x="1703" unicode="↉"/><glyph d="M1100 434h-832v281h832v-281z" glyph-name="minus" unicode="−"/><glyph d="M1100 483v-280h-422l-74 -185h-285l74 185h-125v280h240l80 195h-320v280h434l72 179h277l-72 -179h121v-280h-234l-75 -195h309z" glyph-name="notequal" unicode="≠"/><glyph d="M1145 322l-924 268v323l924 269v-291l-608 -135v-8l608 -136v-290zM1145 281v-281h-924v281h924z" glyph-name="lessequal" unicode="≤"/><glyph d="M831 748v8l-608 135v291l924 -269v-323l-924 -268v290zM1147 0h-924v281h924v-281z" glyph-name="greaterequal" unicode="≥"/><glyph d="M772 1462l746 -745l-746 -746l-745 746zM772 358l358 359l-358 358l-358 -358z" glyph-name="lozenge" horiz-adv-x="1544" unicode="◊"/><glyph d="M1380 168h-90q-351 0 -398.5 16.5t-64.5 32.5l-55 47l-27 21l-77 -68q-16 -16 -60.5 -32.5t-404.5 -16.5h-88v88q0 363 16 406t31 59l49 55l20 25l-69 78q-14 18 -30.5 59.5t-16.5 404.5v91h88q195 0 301 -9.5t128.5 -16.5t39.5 -22l78 -71l34 33l41 34q18 16 64.5 34 t400.5 18h90v-91q0 -352 -17 -400t-34 -64l-45 -54l-22 -24l73 -86q12 -18 19.5 -39t16.5 -125.5t9 -290.5v-92zM469 801l-162 -183q-6 -43 -14 -270q219 4 270 14l182 162l185 -162q55 -10 272 -14q-6 193 -14 266l-166 187l166 182q6 43 14 272q-199 -4 -270 -14 l-187 -166l-180 166q-72 10 -272 14q8 -231 14 -272zM166 31q0 6 -25 14t-24 31q0 35 43 35q20 0 30 -7l-6 -24q-16 8 -27 8t-12 -8q0 -6 26 -15t26 -32q0 -35 -50 -35q-20 0 -32 6l8 25q25 -9 34 -9t9 11zM1073 -2q-57 0 -57 53q0 29 16.5 44.5t39.5 15.5t32 -5l-8 -24 q-6 6 -19 6q-31 0 -31 -34t31 -34q12 0 19 7l6 -25q-12 -4 -29 -4zM1217 53q0 -55 -55.5 -55t-55.5 55q0 25 15.5 41.5t40 16.5t40 -16.5t15.5 -41.5zM262 0h-29v41l-34 68h34l15 -48l16 48h33l-35 -68v-41zM307 0v109h37l33 -66v66h26v-109h-30l-39 72l2 -72h-29zM442 0v86 h-28v23h84v-23h-29v-86h-27zM508 109h31v-41h36v41h29v-109h-29v43h-36v-43h-31v109zM682 0h-33l-35 109h33l19 -80l20 80h31zM727 109h31v-109h-31v109zM844 66v-23h-39v-20h43v-23h-74v109h74v-23h-43v-20h39zM913 0h-30l-27 109h31l14 -74l12 74h31l12 -74l15 74h28 l-26 -109h-33l-12 72zM1321 0v82l-23 -80h-20l-23 80l-2 -82h-28l8 109h39l16 -70l19 70h39l4 -109h-29zM1137 54q-1 -34 23 -34t24 34t-24 34t-23 -34zM1001.5 -2q-12.5 0 -12.5 12.5t12.5 12.5t12.5 -12.5t-12.5 -12.5z" glyph-name="uniF8FF" horiz-adv-x="1495" unicode=""/><glyph d="M934 1544h-268l127 400l268 -46zM801 -29q-324 0 -534 208t-210 538t210 537.5t534 207.5q238 0 415 -115.5t252 -297.5l-340 -93q-117 182 -344 183q-174 0 -277.5 -117t-103.5 -305.5t105.5 -304t273.5 -115.5q133 0 224.5 60.5t138.5 156.5l338 -90 q-80 -209 -264.5 -331t-417.5 -122z" glyph-name="Cacute.aalt" horiz-adv-x="1533"/><glyph d="M721 319h268v-319h-880v319h268v795h-268v320h880v-320h-268v-795z" glyph-name="I.aalt" horiz-adv-x="1099"/><glyph d="M721 319h268v-319h-880v319h268v795h-268v320h880v-320h-268v-795zM2054 1434v-797q0 -324 -144.5 -495t-409.5 -171t-400 142l198 264q70 -80 196 -80t171 85t45 288v764h344z" glyph-name="IJ.ss03" horiz-adv-x="2158"/><glyph d="M109 1434h880v-320h-268v-795h268v-319h-880v319h268v795h-268v320zM2054 1434v-797q0 -324 -144.5 -495t-409.5 -171t-400 142l198 264q70 -80 196 -80t171 85t45 288v444h-481v320h825z" glyph-name="IJ.salt" horiz-adv-x="2158"/><glyph d="M115 1434h344v-1434h-344v1434zM1528 1434v-797q0 -324 -144 -495t-410 -171t-401 142l199 264q70 -80 196 -80t171 85t45 288v444h-482v320h826z" glyph-name="IJ.ss04" horiz-adv-x="1632"/><glyph d="M694 1544h-305l229 371l269 -84zM721 319h268v-319h-880v319h268v795h-268v320h880v-320h-268v-795z" glyph-name="Iacute.aalt" horiz-adv-x="1099"/><glyph d="M432 1544h-305l229 371l267 -84zM1518 1544h-306l230 371l266 -84zM115 0v1434h344v-1434h-344zM1534 1434v-797q0 -324 -144.5 -495t-409.5 -171t-400 142l198 264q70 -80 196 -80t171 85t45 288v764h344z" glyph-name="Iacute_J.locl" horiz-adv-x="1638"/><glyph d="M905 1694l-145 -181l-219 154l-217 -154l-148 181l365 266zM721 319h268v-319h-880v319h268v795h-268v320h880v-320h-268v-795z" glyph-name="Icircumflex.aalt" horiz-adv-x="1099"/><glyph d="M331.5 1561q-63.5 0 -107.5 44t-44 105.5t45 106.5t107 45t105.5 -45t43.5 -106.5t-43 -105.5t-106.5 -44zM768 1561q-63 0 -106.5 44t-43.5 105.5t43.5 106.5t106.5 45t107.5 -45t44.5 -106.5t-44.5 -105.5t-107.5 -44zM721 319h268v-319h-880v319h268v795h-268v320h880 v-320h-268v-795z" glyph-name="Idieresis.aalt" horiz-adv-x="1099"/><glyph d="M550 1561q-62 0 -106.5 44t-44.5 105.5t44.5 106.5t106.5 45t106 -45t44 -106.5t-44 -105.5t-106 -44zM721 319h268v-319h-880v319h268v795h-268v320h880v-320h-268v-795z" glyph-name="Idotaccent.aalt" horiz-adv-x="1099"/><glyph d="M481 1915l230 -371h-305l-191 287zM721 319h268v-319h-880v319h268v795h-268v320h880v-320h-268v-795z" glyph-name="Igrave.aalt" horiz-adv-x="1099"/><glyph d="M995 1569h-880v264h880v-264zM727 319h268v-319h-880v319h268v795h-268v320h880v-320h-268v-795z" glyph-name="Imacron.aalt" horiz-adv-x="1110"/><glyph d="M868 -137q61 0 138 33v-224q-84 -37 -211 -37t-220.5 51.5t-93.5 153.5t74 160h-446v319h268v795h-268v320h880v-320h-268v-795h268v-319h-67q-168 -4 -168 -72q-1 -65 114 -65z" glyph-name="Iogonek.aalt" horiz-adv-x="1099"/><glyph d="M954 1434v-797q0 -324 -144 -495t-410 -171t-400 142l199 264q69 -80 195 -80t171 85t45 288v444h-479v320h823z" glyph-name="J.aalt" horiz-adv-x="1058"/><glyph d="M322 1513l-148 181l367 266l364 -266l-147 -181l-217 154zM954 1434v-797q0 -324 -144 -495t-410 -171t-400 142l199 264q69 -80 195 -80t171 85t45 288v444h-479v320h823z" glyph-name="Jcircumflex.aalt" horiz-adv-x="1058"/><glyph d="M1421 0h-344v446l-612 539h-6v-985h-344v1434h346l608 -539h8v539h344v-1434z" glyph-name="N.aalt" horiz-adv-x="1536"/><glyph d="M899 1544h-270l129 400l268 -46zM1077 1434h344v-1434h-350l-610 856h-6v-12l2 -73v-59l2 -142v-570h-344v1434h348l610 -840h6v42l-2 100v698z" glyph-name="Nacute.locl" horiz-adv-x="1536"/><glyph d="M901 1544h-270l129 400l268 -46zM1421 0h-344v446l-612 539h-6v-985h-344v1434h346l608 -539h8v539h344v-1434z" glyph-name="Nacute.salt.locl" horiz-adv-x="1536"/><glyph d="M909 1544h-303l228 371l268 -84zM1421 0h-344v446l-612 539h-6v-985h-344v1434h346l608 -539h8v539h344v-1434z" glyph-name="Nacute.salt" horiz-adv-x="1536"/><glyph d="M401 1763l146 181l219 -140l217 140l147 -181l-364 -250zM1421 0h-344v446l-612 539h-6v-985h-344v1434h346l608 -539h8v539h344v-1434z" glyph-name="Ncaron.aalt" horiz-adv-x="1536"/><glyph d="M1421 0h-344v446l-612 539h-6v-985h-344v1434h346l608 -539h8v539h344v-1434zM598 -170q0 53 45 87t120 34t121 -40t46 -124t-58.5 -150.5t-166.5 -97.5l-105 117q78 14 105 63q-49 -2 -78 28t-29 83z" glyph-name="Ncommaaccent.aalt" horiz-adv-x="1536"/><glyph d="M1421 1434v-1434q0 -168 -78 -239q-77 -71 -217 -85q-54 -6 -133 -6h-73v242h96q43 0 61.5 20.5t18.5 67.5v512l-355 289q-262 211 -276 225h-6v-1026h-344v1434h346l346 -281q154 -127 262 -207h8v488h344z" glyph-name="Eng.aalt" horiz-adv-x="1536"/><glyph d="M953 1565q-69 0 -177 30.5t-176 30.5q-119 0 -180 -57l-51 248q18 23 72.5 44t123 21t177 -30.5t194.5 -30.5t162 57l49 -248q-16 -20 -70.5 -42.5t-123.5 -22.5zM1421 0h-344v446l-612 539h-6v-985h-344v1434h346l608 -539h8v539h344v-1434z" glyph-name="Ntilde.aalt" horiz-adv-x="1536"/><glyph d="M950 1544h-270l129 400l268 -46zM57 716.5q0 327.5 213 536.5t543 209t543 -209t213 -536.5t-213 -536.5t-543 -209t-543 209t-213 536.5zM403 716.5q0 -190.5 115 -305t295 -114.5t295 114.5t115 305t-115 306.5t-295 116t-295 -116t-115 -306.5z" glyph-name="Oacute.aalt" horiz-adv-x="1626"/><glyph d="M1552 319h105v-319h-848q-311 0 -531.5 208t-220.5 528t218.5 524t532.5 204t535.5 -204t221.5 -506t-170 -432l6 -11h8q32 8 143 8zM401 732q0 -181 114 -294.5t295 -113.5t296 113.5t115 294.5t-115 294t-296 113t-295 -113t-114 -294z" glyph-name="Q.aalt" horiz-adv-x="1714"/><glyph d="M776 1544h-268l129 400l268 -46zM668 274q211 0 211 138q0 78 -74 108q-56 22 -146 38q-89 14 -153 30q-144 34 -264 118q-148 102 -148 316.5t146.5 327t396.5 112.5q465 0 582 -375l-328 -88q-53 162 -249.5 162t-197.5 -127q0 -90 117 -128q45 -14 80 -21.5t81 -18 t98 -20.5q142 -27 262 -110q146 -100 145.5 -320.5t-146 -332.5t-411.5 -112q-513 0 -615 387l328 88q23 -82 95.5 -127t189.5 -45z" glyph-name="Sacute.aalt" horiz-adv-x="1284"/><glyph d="M1227 770v-319h-326v-451h-344v451h-321v319h196l-409 664l397 2q221 -392 230 -408l75 -131l12 -23h6l15 23q36 75 82 147l229 390h367l-408 -664h199z" glyph-name="Y.aalt" horiz-adv-x="1460"/><glyph d="M891 1544h-305l229 371l266 -84zM1227 770v-319h-326v-451h-344v451h-321v319h196l-409 664l397 2q221 -392 230 -408l75 -131l12 -23h6l15 23q36 75 82 147l229 390h367l-408 -664h199z" glyph-name="Yacute.aalt" horiz-adv-x="1460"/><glyph d="M518 1513l-145 181l364 266l365 -266l-148 -181l-217 154zM1227 770v-319h-326v-451h-344v451h-321v319h196l-409 664l397 2q221 -392 230 -408l75 -131l12 -23h6l15 23q36 75 82 147l229 390h367l-408 -664h199z" glyph-name="Ycircumflex.aalt" horiz-adv-x="1460"/><glyph d="M527 1561q-62 0 -106 44t-44 105.5t45 106.5t107 45t105.5 -45t43.5 -106.5t-44.5 -105.5t-106.5 -44zM964.5 1561q-63.5 0 -107.5 44t-44 105.5t44.5 106.5t106.5 45t106 -45t44 -106.5t-43 -105.5t-106.5 -44zM1227 770v-319h-326v-451h-344v451h-321v319h196l-409 664 l397 2q221 -392 230 -408l75 -131l12 -23h6l15 23q36 75 82 147l229 390h367l-408 -664h199z" glyph-name="Ydieresis.aalt" horiz-adv-x="1460"/><glyph d="M602 1544l-192 287l268 84l229 -371h-305zM1227 770v-319h-326v-451h-344v451h-321v319h196l-409 664l397 2q221 -392 230 -408l75 -131l12 -23h6l15 23q36 75 82 147l229 390h367l-408 -664h199z" glyph-name="Ygrave.aalt" horiz-adv-x="1460"/><glyph d="M838 1544h-269l129 400l269 -46zM1288 319v-319h-1212v319l645 654q37 37 72.5 70.5t50.5 50.5l16 14l-4 8h-12l-206 -1q-206 -1 -542 -1v320h1192v-332l-606 -619q-85 -85 -145 -139l-21 -18l4 -9h14l206 1q204 1 548 1z" glyph-name="Zacute.aalt" horiz-adv-x="1366"/><glyph d="M803 1257h-271l130 400l268 -45zM682 -23q-279 0 -452 167t-173 426t173 429t450 170q195 0 340 -89t211 -249l-307 -81q-100 123 -239.5 122.5t-218.5 -83t-79 -217t81 -216.5t212 -82q162 0 240 121l311 -82q-74 -156 -213 -246t-336 -90z" glyph-name="cacute.aalt" horiz-adv-x="1284"/><glyph d="M647 301h215v-301h-753v301h215v545h-215v301h753v-301h-215v-545z" glyph-name="i.salt" horiz-adv-x="970"/><glyph d="M647 301h215v-301h-753v301h215v545h-215v301h753v-301h-215v-545z" glyph-name="dotlessi.aalt" horiz-adv-x="970"/><glyph d="M621 1257h-306l230 371l266 -84zM647 301h215v-301h-753v301h215v545h-215v301h753v-301h-215v-545z" glyph-name="iacute.aalt" horiz-adv-x="970"/><glyph d="M424 1257h-305l229 371l268 -84zM1378 1257h-305l230 371l266 -84zM115 1147h323v-1147h-323v1147zM1067 1147h324v-619q0 -268 -126.5 -409.5t-358.5 -141.5t-351 113l178 236q57 -52 163 -52t138.5 60.5t32.5 216.5v596z" glyph-name="iacute_j.locl" horiz-adv-x="1495"/><glyph d="M831 1407l-147 -180l-217 153l-219 -153l-146 180l365 266zM647 301h215v-301h-753v301h215v545h-215v301h753v-301h-215v-545z" glyph-name="icircumflex.aalt" horiz-adv-x="970"/><glyph d="M257 1274q-62 0 -106.5 44t-44.5 105.5t45.5 106.5t107.5 45t105.5 -45t43.5 -106.5t-44.5 -105.5t-106.5 -44zM694.5 1274q-63.5 0 -107.5 44t-44 105.5t44 106.5t106 45t106.5 -45t44.5 -106.5t-43 -105.5t-106.5 -44zM647 301h215v-301h-753v301h215v545h-215v301h753 v-301h-215v-545z" glyph-name="idieresis.aalt" horiz-adv-x="970"/><glyph d="M280 1274q-62 0 -106.5 44t-44.5 105.5t44.5 106.5t106.5 45t106 -45t44 -106.5t-44 -105.5t-106 -44zM115 0v1147h323v-1147h-323z" glyph-name="i.locl" horiz-adv-x="552"/><glyph d="M475.5 1274q-63.5 0 -106.5 44t-43 105.5t44 106.5t106 45t106.5 -45t44.5 -106.5t-44 -105.5t-107.5 -44zM647 301h215v-301h-753v301h215v545h-215v301h753v-301h-215v-545z" glyph-name="i.salt.locl" horiz-adv-x="970"/><glyph d="M408 1628l229 -371h-305l-193 287zM647 301h215v-301h-753v301h215v545h-215v301h753v-301h-215v-545z" glyph-name="igrave.aalt" horiz-adv-x="970"/><glyph d="M1804 1147v-619q0 -270 -126 -410.5t-357 -140.5t-350 113l178 236q57 -52 161 -52t138.5 61.5t34.5 215.5v596h321zM647 301h215v-301h-753v301h215v545h-215v301h753v-301h-215v-545z" glyph-name="ij.ss03" horiz-adv-x="1908"/><glyph d="M1804 1147v-619q0 -270 -126 -410.5t-357 -140.5t-350 113l178 236q57 -52 161 -52t138.5 61.5t34.5 215.5v295h-373v301h694zM109 1147h753v-301h-215v-545h215v-301h-753v301h215v545h-215v301z" glyph-name="ij.salt" horiz-adv-x="1908"/><glyph d="M115 1147h323v-1147h-323v1147zM1389 1147v-619q0 -268 -126.5 -409.5t-358.5 -141.5t-351 113l178 236q57 -52 163 -52t138.5 60.5t32.5 216.5v295h-371v301h695z" glyph-name="ij.ss04" horiz-adv-x="1492"/><glyph d="M866 1264h-751v282h751v-282zM653 301h213v-301h-751v301h213v545h-213v301h751v-301h-213v-545z" glyph-name="imacron.aalt" horiz-adv-x="980"/><glyph d="M647 846v-545h215v-301h-86q-168 -4 -168 -71t113 -66q63 0 139 33v-224q-82 -37 -210 -37t-221 51.5t-93 153.5t74 160h-301v301h215v545h-215v301h753v-301h-215z" glyph-name="iogonek.aalt" horiz-adv-x="970"/><glyph d="M836 1147v-619q0 -268 -127 -409.5t-359 -141.5t-350 113l178 236q57 -52 162 -52t138.5 61.5t33.5 215.5v295h-373v301h697z" glyph-name="j.aalt" horiz-adv-x="937"/><glyph d="M836 1147v-619q0 -268 -127 -409.5t-359 -141.5t-350 113l178 236q57 -52 162 -52t138.5 61.5t33.5 215.5v295h-373v301h697z" glyph-name="uni0237.aalt" horiz-adv-x="937"/><glyph d="M238 1227l-148 180l365 266l366 -266l-147 -180l-219 153zM836 1147v-619q0 -268 -127 -409.5t-359 -141.5t-350 113l178 236q57 -52 162 -52t138.5 61.5t33.5 215.5v295h-373v301h697z" glyph-name="jcircumflex.aalt" horiz-adv-x="937"/><glyph d="M438 0h-323v1147h342l440 -389h6l2 16v373h326v-1147h-326v344l-461 418h-8v-47l2 -277v-438z" glyph-name="n.aalt" horiz-adv-x="1345"/><glyph d="M801 1257h-271l129 400l269 -45zM438 0h-323v1147h336l448 -623h6v623h326v-1147h-340l-447 645h-8v-27l2 -74v-544z" glyph-name="nacute.locl" horiz-adv-x="1345"/><glyph d="M801 1257h-271l129 400l269 -45zM438 0h-323v1147h342l440 -389h6l2 16v373h326v-1147h-326v344l-461 418h-8v-47l2 -277v-438z" glyph-name="nacute.salt.locl" horiz-adv-x="1345"/><glyph d="M811 1257h-305l229 371l266 -84zM438 0h-323v1147h342l440 -389h6l2 16v373h326v-1147h-326v344l-461 418h-8v-47l2 -277v-438z" glyph-name="nacute.salt" horiz-adv-x="1345"/><glyph d="M301 1477l148 180l217 -139l219 139l145 -180l-364 -250zM438 0h-323v1147h342l440 -389h6l2 16v373h326v-1147h-326v344l-461 418h-8v-47l2 -277v-438z" glyph-name="ncaron.aalt" horiz-adv-x="1345"/><glyph d="M438 0h-323v1147h342l440 -389h6l2 16v373h326v-1147h-326v344l-461 418h-8v-47l2 -277v-438zM518 -170q0 53 44 87t120 34t121 -40t45 -124t-57.5 -150.5t-167.5 -97.5l-105 117q76 14 107 63q-51 -2 -79 28t-28 83z" glyph-name="ncommaaccent.aalt" horiz-adv-x="1345"/><glyph d="M438 0h-323v1147h342l440 -389h6l2 16v373h326v-1147q0 -184 -94.5 -257t-266.5 -73h-98v234h62q43 0 57 24.5t14 71.5v344l-461 418h-8v-47l2 -277v-438z" glyph-name="eng.aalt" horiz-adv-x="1345"/><glyph d="M833.5 1278q-59.5 0 -157.5 30.5t-175 30.5t-143 -57l-51 248q14 23 66.5 44t111.5 21t155.5 -30.5t175.5 -30.5t145 57l49 -248q-14 -23 -65.5 -44t-111 -21zM438 0h-323v1147h342l440 -389h6l2 16v373h326v-1147h-326v344l-461 418h-8v-47l2 -277v-438z" glyph-name="ntilde.aalt" horiz-adv-x="1345"/><glyph d="M811 1257h-270l129 400l268 -45zM57 573.5q0 260.5 174.5 428t445.5 167.5t445 -167.5t174 -428t-174 -428.5t-445 -168t-445.5 168t-174.5 428.5zM387 573.5q0 -133.5 79 -216.5t210 -83t211 82t80 217.5t-80 217t-211 81.5t-210 -82.5t-79 -216z" glyph-name="oacute.aalt" horiz-adv-x="1353"/><glyph d="M1350 0h-682q-258 0 -434.5 162t-176.5 425t176.5 422.5t440.5 159.5t440 -153.5t176 -405.5q0 -207 -135 -311l4 -6q16 8 137 8h54v-301zM387 586q0 -129 81 -209t210 -80t210 80t81 209t-81 208.5t-210 79.5t-210 -79.5t-81 -208.5z" glyph-name="q.aalt" horiz-adv-x="1406"/><glyph d="M684 1257h-270l129 400l268 -45zM567 227q152 0 152 105q0 44 -22.5 61t-40.5 25q-27 12 -176.5 43t-203.5 53q-54 24 -101 60q-99 75 -99 245t122 260q120 90 332 90q421 0 506 -286l-282 -76q-33 113 -188.5 113t-155.5 -97q0 -47 48 -68.5t128 -36.5t96 -20 q369 -70 369 -360q0 -184 -132.5 -272.5t-326.5 -88.5q-468 0 -537 312l295 78q12 -53 64.5 -96.5t152.5 -43.5z" glyph-name="sacute.aalt" horiz-adv-x="1105"/><glyph d="M977 881q176 0 289.5 -126.5t113.5 -316.5t-120.5 -328.5t-364.5 -138.5q-203 0 -340 121l147 256q68 -68 156 -68t132 46t44 120t-49 121t-141 47h-199v267l117 227l-6 6h-297v-1114h-344v1434h1142l-296 -547l6 -6h10z" glyph-name="germandbls.aalt" horiz-adv-x="1423"/><glyph d="M1032 571v-274h-266v-297h-326v297h-254v274h156l-319 576h370l121 -232q41 -80 92 -186l15 -29h6l14 29q14 27 41 83t51 103l119 232h336l-322 -576h166z" glyph-name="y.aalt" horiz-adv-x="1210"/><glyph d="M780 1257h-305l230 371l266 -84zM1032 571v-274h-266v-297h-326v297h-254v274h156l-319 576h370l121 -232q41 -80 92 -186l15 -29h6l14 29q14 27 41 83t51 103l119 232h336l-322 -576h166z" glyph-name="yacute.aalt" horiz-adv-x="1210"/><glyph d="M408 1227l-148 180l367 266l364 -266l-147 -180l-217 153zM1032 571v-274h-266v-297h-326v297h-254v274h156l-319 576h370l121 -232q41 -80 92 -186l15 -29h6l14 29q14 27 41 83t51 103l119 232h336l-322 -576h166z" glyph-name="ycircumflex.aalt" horiz-adv-x="1210"/><glyph d="M415.5 1274q-63.5 0 -106.5 44t-43 105.5t45 106.5t107 45t105.5 -45t43.5 -106.5t-44 -105.5t-107.5 -44zM853 1274q-62 0 -106.5 44t-44.5 105.5t44.5 106.5t106.5 45t106.5 -45t44.5 -106.5t-44.5 -105.5t-106.5 -44zM1032 571v-274h-266v-297h-326v297h-254v274h156 l-319 576h370l121 -232q41 -80 92 -186l15 -29h6l14 29q14 27 41 83t51 103l119 232h336l-322 -576h166z" glyph-name="ydieresis.aalt" horiz-adv-x="1210"/><glyph d="M492 1257l-193 287l268 84l228 -371h-303zM1032 571v-274h-266v-297h-326v297h-254v274h156l-319 576h370l121 -232q41 -80 92 -186l15 -29h6l14 29q14 27 41 83t51 103l119 232h336l-322 -576h166z" glyph-name="ygrave.aalt" horiz-adv-x="1210"/><glyph d="M727 1257h-268l127 400l268 -45zM1098 301v-301h-1022v313l438 385q47 41 58 50l102 88l-4 10h-576v301h1004v-313l-404 -361q-76 -68 -136 -116t-60 -50l4 -8h24l33 1z" glyph-name="zacute.aalt" horiz-adv-x="1173"/><glyph d="M694 1544h-305l229 371l269 -84zM2038 1544h-305l229 371l266 -84zM721 319h268v-319h-880v319h268v795h-268v320h880v-320h-268v-795zM2054 1434v-797q0 -324 -144.5 -495t-409.5 -171t-400 142l198 264q70 -80 196 -80t171 85t45 288v764h344z" glyph-name="Iacute.aalt_J.locl" horiz-adv-x="2158"/><glyph d="M694 1544h-305l229 371l269 -84zM1792 1544h-305l229 371l269 -84zM109 1434h880v-320h-268v-795h268v-319h-880v319h268v795h-268v320zM2054 1434v-797q0 -324 -144.5 -495t-409.5 -171t-400 142l198 264q70 -80 196 -80t171 85t45 288v444h-481v320h825z" glyph-name="Iacute.aalt_J.aalt.locl" horiz-adv-x="2158"/><glyph d="M432 1544h-305l229 371l267 -84zM1266 1544h-305l229 371l268 -84zM115 1434h344v-1434h-344v1434zM1528 1434v-797q0 -324 -144 -495t-410 -171t-401 142l199 264q70 -80 196 -80t171 85t45 288v444h-482v320h826z" glyph-name="Iacute_J.aalt.locl" horiz-adv-x="1632"/><glyph d="M1792 1257h-305l229 371l266 -84zM621 1257h-306l230 371l266 -84zM647 301h215v-301h-753v301h215v545h-215v301h753v-301h-215v-545zM1804 1147v-619q0 -270 -126 -410.5t-357 -140.5t-350 113l178 236q57 -52 161 -52t138.5 61.5t34.5 215.5v596h321z" glyph-name="iacute.aalt_j.locl" horiz-adv-x="1908"/><glyph d="M621 1257h-306l230 371l266 -84zM1579 1257h-303l227 371l269 -84zM1804 1147v-619q0 -270 -126 -410.5t-357 -140.5t-350 113l178 236q57 -52 161 -52t138.5 61.5t34.5 215.5v295h-373v301h694zM109 1147h753v-301h-215v-545h215v-301h-753v301h215v545h-215v301z" glyph-name="iacute.aalt_j.aalt.locl" horiz-adv-x="1908"/><glyph d="M424 1257h-305l229 371l268 -84zM1163 1257h-305l229 371l267 -84zM115 1147h323v-1147h-323v1147zM1389 1147v-619q0 -268 -126.5 -409.5t-358.5 -141.5t-351 113l178 236q57 -52 163 -52t138.5 60.5t32.5 216.5v295h-371v301h695z" glyph-name="iacute_j.aalt.locl" horiz-adv-x="1492"/><glyph d="M272 768h-198l231 666h266l226 -666h-205l-35 109h-250zM436 1266h-8l-18 -56q-17 -55 -27 -88l-29 -96h156l-31 96q-33 116 -43 144zM801 641v-207h-729v207h729z" glyph-name="ordfeminine.aalt" horiz-adv-x="872"/><glyph d="M72 1106q0 152 101 251t248.5 99t250 -99t102.5 -251t-102.5 -251t-250 -99t-248.5 99t-101 251zM272 1105q0 -71 39 -115t112 -44t111.5 44t38.5 115t-38.5 116t-111.5 45t-112 -45t-39 -116zM754 430h-662v205h662v-205z" glyph-name="ordmasculine.aalt" horiz-adv-x="845"/><glyph d="M39 400q0 412 309 411q309 0 309 -412t-307 -411q-311 0 -311 412zM346 606q-41 0 -60.5 -44t-19.5 -165v-49l142 227q-21 31 -62 31zM354 190q41 0 58.5 43t17.5 164v35l-133 -217q16 -25 57 -25z" glyph-name="zero.dnom.zero" horiz-adv-x="696"/><glyph d="M653 1462q297 0 442.5 -205.5t145.5 -545.5t-143.5 -540t-444.5 -200t-443 200t-142 540t144 545.5t441 205.5zM654 1139q-134 0 -187 -100.5t-53 -321.5t53 -321.5t187 -100.5t187.5 100.5t53.5 321.5t-53.5 321.5t-187.5 100.5z" glyph-name="zero.lnum" horiz-adv-x="1308"/><glyph d="M434 0v649q0 80 4 177.5t6 152.5l2 55h-8q-28 -28 -86 -76l-78 -71l-190 221l375 326h319v-1434h-344z" glyph-name="one.lnum" horiz-adv-x="980"/><glyph d="M98 0v391l443 324q25 18 66.5 49t59 43t50 39.5t57.5 63t25 102.5t-54.5 112t-145.5 45t-145.5 -45t-62.5 -125l-315 84q31 166 157.5 272.5t384.5 106.5t395.5 -115t137.5 -311t-101.5 -315t-299.5 -240l-250 -162l2 -8q90 8 196 8h457v-319h-1057z" glyph-name="two.lnum" horiz-adv-x="1239"/><glyph d="M1174 410q0 -199 -142 -319t-380 -120t-387.5 103.5t-192.5 302.5l317 88q41 -178 227 -178q96 0 151.5 45t55.5 122t-52 116.5t-140 39.5h-148v275h133q94 0 144.5 42t50.5 111.5t-49 105.5t-137 36q-199 0 -219 -181l-316 84q78 379 537 379q256 0 394 -104.5 t138 -278.5q0 -143 -88 -230t-182 -91v-8q129 -16 207 -101.5t78 -238.5z" glyph-name="three.lnum" horiz-adv-x="1245"/><glyph d="M1061 0h-344v309h-643v301l458 824h529v-824h180v-301h-180v-309zM717 610v110l1 238l1 191h-12l-312 -531l8 -10l109 1q108 1 205 1z" glyph-name="four.lnum" horiz-adv-x="1298"/><glyph d="M672 930q211 0 345 -122t134 -339t-145.5 -357.5t-375.5 -140.5t-371.5 101.5t-182.5 261.5l319 82q16 -57 72.5 -97t146.5 -40t144.5 56t54.5 143t-56.5 141.5t-156.5 54.5q-133 0 -190 -92l-293 77l137 775h852v-320h-608l-45 -233l10 -2q90 51 209 51z" glyph-name="five.lnum" horiz-adv-x="1234"/><glyph d="M1194 458q0 -212 -154.5 -349.5t-406.5 -137.5t-408.5 137.5t-156.5 387.5q0 143 60 276t183 295l275 367h381l-416 -560l8 -6q66 51 189 52q186 0 316 -125t130 -337zM637 281q96 0 156.5 53t60.5 144t-59.5 144.5t-156.5 53.5t-157.5 -53.5t-60.5 -143.5t60.5 -144 t156.5 -54z" glyph-name="six.lnum" horiz-adv-x="1257"/><glyph d="M115 1114v320h1071v-260l-625 -1174h-368l397 768q73 142 166 293l28 49l-6 8h-12l-34 -1z" glyph-name="seven.lnum" horiz-adv-x="1210"/><glyph d="M72 397q0 152 82 242t198 119v8q-74 14 -147.5 95t-73.5 233t135 260t360.5 108t360.5 -108t135 -260t-73.5 -233t-145.5 -95v-8q111 -29 196 -118t85 -258t-141.5 -291t-407.5 -122t-414.5 120t-148.5 308zM442 1060q0 -75 50.5 -115t134.5 -40t134 40t50 116t-50 116 t-133 40t-134.5 -41t-51.5 -116zM416 420q0 -86 58 -133t154 -47t154 48t58 133t-59.5 132t-154.5 47t-152.5 -47t-57.5 -133z" glyph-name="eight.lnum" horiz-adv-x="1253"/><glyph d="M514 506q-201 0 -327 130t-126 338t160 348t404 140t404.5 -138t160.5 -386q0 -125 -48 -249t-97.5 -194.5t-126.5 -162.5l-283 -332h-399l469 545l-7 6q-72 -45 -184 -45zM620 1153q-95 0 -157 -52t-62 -146.5t61.5 -145.5t156.5 -51t157 53t62 145.5t-61.5 144.5 t-156.5 52z" glyph-name="nine.lnum" horiz-adv-x="1261"/><glyph d="M653 1462q297 0 442.5 -205.5t145.5 -545.5t-143.5 -540t-444.5 -200t-443 200t-142 540t144 545.5t441 205.5zM653 1139q-133 0 -186 -100.5t-53 -321.5q0 -121 16 -215l361 596q-54 41 -138 41zM653 295q135 0 188.5 100.5t53.5 321.5q0 127 -18 215l-359 -596 q53 -41 135 -41z" glyph-name="zero.lnum.zero" horiz-adv-x="1308"/><glyph d="M39 1038q0 412 309 412t309 -412t-307 -411q-311 -1 -311 411zM345 1245q-42 0 -60.5 -43t-18.5 -166v-49l142 227q-21 31 -63 31zM354 829q41 0 58.5 43t17.5 164v35l-133 -217q16 -25 57 -25z" glyph-name="zero.numr.zero" horiz-adv-x="696"/><glyph d="M553 1169q225 0 355 -150.5t130 -445t-130 -445.5t-355 -151t-355 151t-130 445.5t130 445t355 150.5zM553 872q-86 0 -123 -66.5t-37 -232.5q0 -66 6 -114l240 391q-33 22 -86 22zM553 274q84 0 123 68t39 231q0 57 -6 105l-236 -385q35 -19 80 -19z" glyph-name="zero.zero" horiz-adv-x="1105"/><glyph d="M1270 711q0 -340 -142.5 -540t-443.5 -200t-443.5 199t-142.5 535t139 546.5t442 210.5q302 0 446.5 -205.5t144.5 -545.5zM684 1139q-133 0 -186.5 -100.5t-53.5 -282.5t19 -262l362 600q-55 45 -141 45zM684 295q133 0 186.5 100.5t53.5 321.5q0 127 -15 207l-356 -592 q49 -37 131 -37z" glyph-name="zero.tnum.zero"/><glyph d="M348 958q-309 0 -309 412t309 412t309 -412t-309 -412zM350 1161q45 0 62.5 43t17.5 165t-17.5 165t-63.5 43t-64.5 -43t-18.5 -164t19.5 -165t64.5 -44z" glyph-name="zero.superior" horiz-adv-x="696"/><glyph d="M573 975h-206v162h-344v178l231 450h319v-438h101v-190h-101v-162zM367 1327v154q0 88 4 121h-13q-2 0 -63.5 -128t-65.5 -139l7 -8h131z" glyph-name="four.superior" horiz-adv-x="696"/><glyph d="M649 1222.5q0 -116.5 -76.5 -190.5t-214.5 -74t-217.5 67t-93.5 151l186 47q6 -35 33 -62.5t77 -27.5t79 24.5t29 69.5t-29 70.5t-84 25.5t-86 -45l-189 49l87 438h454v-190h-325l-15 -59q-4 -16 -10 -37t-8 -33l-4 -10l8 -4q50 38 152 38t174.5 -65.5t72.5 -182z" glyph-name="five.superior" horiz-adv-x="696"/><glyph d="M444 1460q84 0 153 -60t69 -178t-82 -191t-220 -73t-228.5 77t-90.5 218t98 275l174 237h244l-256 -346l8 -6q47 47 131 47zM362 1133q104 0 109 96q0 45 -30.5 69.5t-78 24.5t-78 -24.5t-30.5 -69.5t30.5 -70.5t77.5 -25.5z" glyph-name="six.superior" horiz-adv-x="696"/><glyph d="M315 1575h-243v190h571v-196l-305 -594h-219l203 405q88 176 102 191l-6 8q-16 -4 -103 -4z" glyph-name="seven.superior" horiz-adv-x="696"/><glyph d="M39 1188q0 80 45 132t106 71v8q-43 10 -78.5 53t-35.5 130t73.5 143.5t197.5 56.5t199 -56.5t75 -142.5t-36 -129t-79 -55v-8q61 -18 106 -70.5t45 -132.5q0 -111 -81.5 -170.5t-227 -59.5t-227.5 59.5t-82 170.5zM254 1556.5q0 -34.5 25.5 -55t68.5 -20.5t68.5 20.5 t25.5 55t-25.5 55t-68.5 20.5t-68.5 -20.5t-25.5 -55zM240 1208q0 -41 29.5 -64.5t78.5 -23.5t79 23.5t30 64.5t-30 63.5t-79 22.5q-108 0 -108 -86z" glyph-name="eight.superior" horiz-adv-x="696"/><glyph d="M266 1262q-106 0 -169.5 69t-63.5 185t87 191t219 75t222 -77t90 -227t-137 -325l-141 -178h-242l260 323l-8 7q-51 -43 -117 -43zM332 1602q-47 0 -77 -25t-31 -71t30 -69.5t78 -23.5t77.5 23.5t30.5 68.5t-30.5 71t-77.5 26z" glyph-name="nine.superior" horiz-adv-x="696"/><glyph d="M348 1782q309 0 309 -412t-309 -412t-309 412t309 412zM345 1577q-42 0 -60.5 -43t-18.5 -166v-49l142 227q-21 31 -63 31zM354 1161q41 0 58.5 43t17.5 164v35l-133 -217q16 -25 57 -25z" glyph-name="zero.superior.zero" horiz-adv-x="696"/><glyph d="M1270 711q0 -340 -142.5 -540t-443.5 -200t-443.5 199t-142.5 535t139 546.5t442 210.5q302 0 446.5 -205.5t144.5 -545.5zM684 1139q-133 0 -186.5 -100.5t-53.5 -321.5t53.5 -321.5t186.5 -100.5t186.5 100.5t53.5 321.5t-53.5 321.5t-186.5 100.5z" glyph-name="zero.tnum"/><glyph d="M1225 0h-992v319h326v463q0 150 6 258l2 37h-8l-27 -20q-25 -20 -65.5 -54t-71.5 -57l-94 -80l-174 234l408 334h368v-1115h322v-319z" glyph-name="one.tnum"/><glyph d="M172 0v391l440 324q25 18 67 49t59.5 43t50.5 40t57 63.5t24 101.5q0 67 -54 112t-145 45t-144.5 -45t-61.5 -125l-315 84q31 166 157.5 272.5t383.5 106.5t394.5 -114.5t137.5 -315.5t-90.5 -299t-151.5 -145t-158 -107l-252 -162l2 -8q90 8 197 8h457v-319h-1055z" glyph-name="two.tnum"/><glyph d="M1219 410q0 -199 -141.5 -319t-379.5 -120t-388 103.5t-193 302.5l315 88q41 -178 230 -178q96 0 151 45t55 122t-52 116.5t-142 39.5h-146v275h134q94 0 144 42t50 111.5t-49 105.5t-137 36q-199 0 -219 -181l-316 84q78 379 537 379q256 0 394 -104.5t138 -278.5 q0 -143 -88 -230t-182 -91v-8q129 -16 207 -101.5t78 -238.5z" glyph-name="three.tnum"/><glyph d="M1065 0h-344v309h-643v301l459 824h528v-824h180v-301h-180v-309zM721 610v110l1 238l1 191h-12l-312 -531l7 -10h30z" glyph-name="four.tnum"/><glyph d="M733 930q211 0 345 -122t134 -339t-145 -357.5t-375 -140.5t-372 101.5t-183 261.5l320 82q16 -57 71.5 -97t146.5 -40t145 56t54 143t-56 141.5t-156 54.5q-133 0 -191 -92l-293 77l137 775h852v-320h-608l-45 -233l10 -2q90 51 209 51z" glyph-name="five.tnum"/><glyph d="M1233 458q0 -212 -154.5 -349.5t-406.5 -137.5t-409 137.5t-157 387.5q0 143 60.5 276t183.5 295l275 367h379l-414 -560l6 -6q70 51 190 52q186 0 316.5 -125t130.5 -337zM676 281q96 0 156.5 53t60.5 144t-59.5 144.5t-157.5 53.5t-157.5 -53.5t-59.5 -143.5t60.5 -144 t156.5 -54z" glyph-name="six.tnum"/><glyph d="M143 1133v301h1090v-260l-625 -1174h-368l397 768q69 134 166 305l31 53l-5 9h-31l-37 -1z" glyph-name="seven.tnum"/><glyph d="M106 397q0 150 82 241t199 120v8q-72 14 -145.5 95t-73.5 233t135 260t360.5 108t360.5 -108t135 -260t-73.5 -233t-147.5 -95v-8q113 -27 197 -117t84 -259t-141.5 -291t-407.5 -122t-415 120t-149 308zM479 1061q0 -76 50.5 -116t134.5 -40t134 40t50 116t-52 116 t-134 40t-132.5 -40t-50.5 -116zM451 420q0 -86 58.5 -133t154.5 -47t153 48t57 133t-58 132t-153 47t-153.5 -47t-58.5 -133z" glyph-name="eight.tnum"/><glyph d="M590 506q-201 0 -327 130t-126 338t159.5 348t403.5 140t405 -138t161 -386q0 -125 -48.5 -248t-98.5 -194.5t-128 -163.5l-280 -332h-400l469 545l-8 6q-68 -45 -182 -45zM695 1153q-95 0 -156.5 -52t-61.5 -146.5t60.5 -145.5t157 -51t157.5 53t61 145.5t-61.5 144.5 t-156.5 52z" glyph-name="nine.tnum"/><glyph d="M682 1169q225 0 355 -150.5t130 -445t-130 -445.5t-355 -151t-355 151t-130 445.5t130 445t355 150.5zM682 872q-86 0 -123 -66.5t-37 -232t37 -232.5t122 -67t124 68t39 232t-38 231t-124 67z" glyph-name="zero.tnum.oldstyle"/><glyph d="M1165 0h-866v301h274v227l13 275h-8q-21 -19 -39.5 -40.5t-30.5 -31.5l-105 -100l-176 205l369 309h303v-844h266v-301z" glyph-name="one.tnum.oldstyle"/><glyph d="M285 0v350l387 262q90 61 127 100.5t37 84.5t-33 72.5t-98 27.5q-113 0 -134 -102l-307 82q74 293 461 292q215 0 327.5 -92t112.5 -255t-71.5 -233.5t-114.5 -100t-117 -70.5l-213 -127l2 -10q123 8 174 8h346v-289h-886z" glyph-name="two.tnum.oldstyle"/><glyph d="M1139 322q0 -156 -119.5 -250.5t-319.5 -94.5q-410 0 -487 324l285 78q35 -127 176 -127q72 0 110.5 31.5t38.5 85.5q0 106 -141 106h-133v225h119q68 0 105.5 30t37.5 77t-37.5 74.5t-101.5 27.5t-102 -30.5t-46 -77.5l-291 76q74 293 469 292q207 0 316.5 -77.5 t109.5 -213.5t-71.5 -203t-153.5 -75v-8q100 -6 168 -78t68 -192z" glyph-name="three.tnum.oldstyle"/><glyph d="M1059 0h-324v244h-526v282l354 621h496v-633h164v-270h-164v-244zM737 907h-14l-217 -385l6 -8h223v56l1 136z" glyph-name="four.tnum.oldstyle"/><glyph d="M741 750q188 0 292 -102.5t104 -275.5t-121.5 -284t-317.5 -111t-315 80t-152 203l279 70q37 -86 162 -86q74 0 116.5 36.5t42.5 98t-43.5 98.5t-127.5 37t-132 -57l-262 69l115 621h684v-301h-473l-10 -64l-15 -63l11 -4q61 35 163 35z" glyph-name="five.tnum.oldstyle"/><glyph d="M782 731q154 0 260.5 -98t106.5 -268t-129 -279t-342 -109t-344 109t-131 311q0 119 51 229.5t158 245.5l221 275h340l-346 -453l6 -6q49 43 149 43zM682 252q76 0 119 36t43 99.5t-43 98t-119 34.5t-119 -35t-43 -99t43 -99t119 -35z" glyph-name="six.tnum.oldstyle"/><glyph d="M225 846v301h949v-232l-519 -915h-329l315 559q37 63 79 133t64 107l23 39l-6 8h-576z" glyph-name="seven.tnum.oldstyle"/><glyph d="M215 319q0 119 66.5 190t160.5 95v6q-59 16 -117.5 80t-58.5 184t114 207.5t302 87.5t301 -87t113 -209t-58.5 -185t-117.5 -78v-6q92 -25 160.5 -94.5t68.5 -203.5t-119 -232.5t-343 -98.5t-348 96t-124 248zM545 844q0 -106 136 -106t136 106q0 53 -38 79.5t-98 26.5 t-98 -27.5t-38 -78.5zM524 339q0 -60 44 -92t115 -32t113 33t42 92t-43 91t-114 32t-114 -32t-43 -92z" glyph-name="eight.tnum.oldstyle"/><glyph d="M225 778q0 166 134.5 278.5t338.5 112.5t340 -111.5t136 -297.5t-71 -297.5t-155 -202.5l-233 -260h-359l396 436l-9 8q-43 -39 -145 -38q-166 0 -269.5 103t-103.5 269zM693 895q-75 0 -119 -35t-44 -102q0 -137 163 -137t163 139q0 66 -44 100.5t-119 34.5z" glyph-name="nine.tnum.oldstyle"/><glyph d="M680 1169q225 0 355 -150.5t130 -445t-130 -445.5t-355 -151t-355 151t-130 445.5t130 445t355 150.5zM680 872q-88 0 -125 -66.5t-37 -232.5q0 -70 6 -120l244 395q-33 24 -88 24zM680 274q84 0 122 68t38 231q0 70 -4 101l-234 -383q27 -17 78 -17z" glyph-name="zero.tnum.oldstyle.zero"/><glyph d="M348 -14q-309 0 -309 412t309 411q309 1 309 -411t-309 -412zM350 188q45 0 62.5 43t17.5 165t-17.5 165t-63.5 43t-64.5 -43t-18.5 -164t19.5 -165t64.5 -44z" glyph-name="zero.dnom" horiz-adv-x="696"/><glyph d="M647 2h-516v191h150v192q0 106 14 154h-10q-6 -9 -47 -54l-48 -49l-137 131l238 226h207v-600h149v-191z" glyph-name="one.dnom" horiz-adv-x="696"/><glyph d="M61 2v252l267 162q96 57 96 116q0 80 -88 80t-107 -82l-178 50q57 229 307 229q133 0 207 -63.5t74 -190.5t-119 -217q-55 -44 -172 -117l-37 -24l4 -11q74 6 105 7h229v-191h-588z" glyph-name="two.dnom" horiz-adv-x="696"/><glyph d="M653 207q0 -88 -79.5 -154.5t-202.5 -66.5q-276 0 -328 227l188 57q14 -98 115 -98q47 0 75 23.5t28 61.5t-27 59.5t-74 21.5h-55v135h45q45 0 71.5 23.5t26.5 58.5t-24.5 55.5t-67.5 20.5q-92 0 -108 -101l-179 48q16 106 91 168.5t210.5 62.5t207 -59.5t71.5 -145.5 t-37 -136t-90 -58v-9q57 -8 100 -57t43 -137z" glyph-name="three.dnom" horiz-adv-x="696"/><glyph d="M573 2h-206v162h-344v178l231 451h319v-439h101v-190h-101v-162zM367 354v154q0 88 4 121h-13q-2 0 -63.5 -128t-65.5 -139l7 -8h131z" glyph-name="four.dnom" horiz-adv-x="696"/><glyph d="M402 498q102 0 174.5 -65.5t72.5 -182.5t-76.5 -190.5t-214.5 -73.5t-217.5 66.5t-93.5 150.5l186 47q6 -35 33 -62.5t77 -27.5t79 24.5t29 69.5t-29 70.5t-84 25.5t-86 -45l-189 49l87 439h454v-191h-325l-15 -59q-4 -16 -6 -21l-16 -59l8 -4q50 39 152 39z" glyph-name="five.dnom" horiz-adv-x="696"/><glyph d="M446 489q84 0 152 -60t68 -179t-82 -191.5t-220 -72.5t-228.5 76t-90.5 218t98 275l174 238h244l-256 -347l8 -6q49 49 133 49zM362 160q104 0 109 96q0 45 -30.5 69.5t-78 24.5t-78 -24.5t-30.5 -69.5t30.5 -70.5t77.5 -25.5z" glyph-name="six.dnom" horiz-adv-x="696"/><glyph d="M315 602h-243v191h571v-197l-305 -594h-219l203 406q88 176 102 190l-6 8q-16 -4 -103 -4z" glyph-name="seven.dnom" horiz-adv-x="696"/><glyph d="M39 215q0 80 45 132t106 71v8q-43 10 -78.5 53t-35.5 130t73.5 143.5t197.5 56.5t199 -56.5t75 -142.5t-36 -129t-79 -55v-8q61 -18 106 -70.5t45 -132.5q0 -111 -81.5 -170t-227 -59t-227.5 59t-82 170zM254 583.5q0 -34.5 25.5 -55t68.5 -20.5t68.5 20.5t25.5 55 t-25.5 55t-68.5 20.5t-68.5 -20.5t-25.5 -55zM240 236q0 -41 29.5 -65t78.5 -24t79 24t30 64.5t-30 63.5t-79 23q-108 0 -108 -86z" glyph-name="eight.dnom" horiz-adv-x="696"/><glyph d="M266 289q-106 0 -169.5 68.5t-63.5 184.5t87 191.5t219 75.5t222 -76.5t90 -226.5t-137 -326l-141 -178h-242l260 324l-8 6q-51 -43 -117 -43zM332 629q-47 0 -77 -24.5t-31 -70.5t30 -70t78 -24t77.5 23.5t30.5 69t-30.5 71t-77.5 25.5z" glyph-name="nine.dnom" horiz-adv-x="696"/><glyph d="M348 627q-309 -1 -309 411t309 412t309 -412t-309 -411zM350 829q45 0 62.5 43t17.5 165t-17.5 165t-63.5 43t-64.5 -43t-18.5 -164t19.5 -165t64.5 -44z" glyph-name="zero.numr" horiz-adv-x="696"/><glyph d="M647 643h-516v188h150v195q0 106 14 154h-10q-6 -9 -47 -54l-48 -49l-137 131l238 226h207v-600h149v-191z" glyph-name="one.numr" horiz-adv-x="696"/><glyph d="M61 643v252l267 162q96 55 96 117q0 80 -88 80t-107 -83l-178 50q57 229 307 229q133 0 207 -63.5t74 -190.5t-119 -217q-31 -25 -83 -59.5t-89 -59.5l-37 -22l4 -11q74 6 105 7h229v-191h-588z" glyph-name="two.numr" horiz-adv-x="696"/><glyph d="M653 848q0 -88 -79.5 -154.5t-202.5 -66.5q-276 0 -328 227l188 57q14 -98 115 -98q47 0 75 23.5t28 60.5t-27 59.5t-74 22.5h-55v135h45q45 0 71.5 23.5t26.5 58.5t-24.5 55.5t-67.5 20.5q-92 0 -108 -101l-179 48q16 106 91 168.5t210.5 62.5t207 -59.5t71.5 -145.5 t-37 -136t-90 -58v-9q57 -8 100 -57t43 -137z" glyph-name="three.numr" horiz-adv-x="696"/><glyph d="M573 643h-206v162h-344v178l231 451h319v-439h101v-190h-101v-162zM367 995v154q0 88 4 121h-13q-2 0 -63.5 -128t-65.5 -138l7 -9h131z" glyph-name="four.numr" horiz-adv-x="696"/><glyph d="M402 1139q102 0 174.5 -65.5t72.5 -182.5t-76.5 -190.5t-214.5 -73.5t-217.5 66.5t-93.5 150.5l186 47q6 -35 33 -62.5t77 -27.5t79 24.5t29 69.5t-29 70.5t-84 25.5t-86 -45l-189 49l87 439h454v-191h-325l-15 -59q-4 -16 -10 -37t-8 -33l-4 -10l8 -4q50 39 152 39z" glyph-name="five.numr" horiz-adv-x="696"/><glyph d="M444 1128q84 0 153 -60t69 -178t-82 -190.5t-220 -72.5t-228.5 76.5t-90.5 218.5t98 274l174 238h244l-256 -347l8 -6q47 47 131 47zM362 801q104 0 109 96q0 45 -30.5 69.5t-78 24.5t-78 -24.5t-30.5 -69.5t30.5 -70.5t77.5 -25.5z" glyph-name="six.numr" horiz-adv-x="696"/><glyph d="M315 1243h-243v191h571v-197l-305 -594h-219l203 406q88 176 102 190l-6 8q-16 -4 -103 -4z" glyph-name="seven.numr" horiz-adv-x="696"/><glyph d="M39 856q0 80 45 132t106 71v8q-43 10 -78.5 53t-35.5 130t73.5 143.5t197.5 56.5t199 -56.5t75 -142.5t-36 -129t-79 -55v-8q61 -18 106 -70.5t45 -132.5q0 -111 -81.5 -170t-227 -59t-227.5 59t-82 170zM254 1225q0 -35 25.5 -55.5t68.5 -20.5t68.5 20.5t25.5 55.5 t-25.5 55t-68.5 20t-68.5 -20t-25.5 -55zM240 877q0 -41 29.5 -65t78.5 -24t79 24t30 65t-30 63.5t-79 22.5q-108 0 -108 -86z" glyph-name="eight.numr" horiz-adv-x="696"/><glyph d="M266 930q-106 0 -169.5 68.5t-63.5 185.5t87 191.5t219 74.5t222 -77t90 -227t-137 -325l-141 -178h-242l260 324l-8 6q-51 -43 -117 -43zM332 1270q-47 0 -77 -24.5t-31 -70.5t30 -70t78 -24t77.5 23.5t30.5 69t-30.5 71t-77.5 25.5z" glyph-name="nine.numr" horiz-adv-x="696"/><glyph d="M594 1147v-96q0 -194 -82.5 -262t-110.5 -68q24 0 108.5 -75.5t84.5 -254.5v-96q0 -184 79 -246.5t214 -62.5v-305q-297 0 -459 151.5t-162 403.5v135q0 176 -68.5 186t-74.5 12h-8v305l8 3h26q26 0 71.5 43t45.5 151v133q0 252 162 403.5t459 151.5v-305 q-127 0 -210 -57t-83 -250z" glyph-name="braceleft.aalt" horiz-adv-x="966"/><glyph d="M373 295v96q0 188 81.5 258t110.5 70q-25 0 -65.5 37t-83.5 99.5t-43 193.5v98q0 193 -83 250t-210 57v305q297 0 458.5 -151.5t161.5 -403.5v-135q0 -145 59 -170t69 -25t16 -2h8v-305l-8 -2h-27q-27 0 -72 -45t-45 -151v-133q0 -252 -161.5 -403.5t-458.5 -151.5v305 q135 0 214 62.5t79 246.5z" glyph-name="braceright.aalt" horiz-adv-x="966"/><glyph d="M811 4v-323h-623v2076h623v-321h-281v-1432h281z" glyph-name="bracketleft.aalt" horiz-adv-x="888"/><glyph d="M78 1436v321h622v-2074h-622v321h278v1432h-278z" glyph-name="bracketright.aalt" horiz-adv-x="888"/><glyph d="M444 729q0 -301 81 -477t274 -238l-86 -327q-202 69 -287.5 151t-143 164t-95 180.5t-62.5 239.5t-25 307t25 306.5t62.5 238.5t95 180t143 164t287.5 151l86 -325q-193 -61 -274 -237.5t-81 -477.5z" glyph-name="parenleft.aalt" horiz-adv-x="847"/><glyph d="M403 744q0 300 -80.5 477.5t-273.5 236.5l86 330q99 -34 186 -85.5t137 -100t107.5 -131t95 -180t62.5 -239t25 -307t-25 -306t-62.5 -239t-95 -180t-108.5 -131t-136.5 -101t-185.5 -85.5l-86 328q193 61 273.5 237t80.5 476z" glyph-name="parenright.aalt" horiz-adv-x="847"/><glyph d="M1819 598h-1624v281h1624v-281z" glyph-name="emdash.aalt" horiz-adv-x="1959"/><glyph d="M1200 596h-1032v283h1032v-283z" glyph-name="endash.aalt"/><glyph d="M1001 598h-833v281h833v-281z" glyph-name="hyphen.aalt" horiz-adv-x="1116"/><glyph d="M1001 598h-833v281h833v-281z" glyph-name="uni00AD.aalt" horiz-adv-x="1169"/><glyph d="M606 1200l185 -186l-308 -289v-8l310 -289l-189 -188l-481 481zM1200 1200l184 -186l-305 -289v-8l307 -289l-188 -188l-481 481z" glyph-name="guillemotleft.aalt" horiz-adv-x="1509"/><glyph d="M905 240l-188 188l309 289v8l-307 289l184 186l483 -479zM311 240l-188 188l307 289v8l-305 289l184 186l484 -479z" glyph-name="guillemotright.aalt" horiz-adv-x="1509"/><glyph d="M606 1200l185 -186l-308 -289v-8l310 -289l-189 -188l-481 481z" glyph-name="guilsinglleft.aalt" horiz-adv-x="915"/><glyph d="M311 240l-188 188l307 289v8l-305 289l184 186l484 -479z" glyph-name="guilsinglright.aalt" horiz-adv-x="915"/><glyph d="M368.5 485q-112.5 0 -183 66.5t-70.5 174.5t70.5 174.5t183 66.5t184.5 -65.5t72 -174.5t-72 -175.5t-184.5 -66.5z" glyph-name="bullet.aalt" horiz-adv-x="737"/><glyph d="M291 872q-84 0 -130 46.5t-46 116t46 114.5t130 45t129 -44t45 -115t-45 -117t-129 -46zM291 207q-84 0 -130 46t-46 115.5t46 114.5t130 45t129 -44t45 -115.5t-45 -116.5t-129 -45z" glyph-name="colon.aalt" horiz-adv-x="579"/><glyph d="M1030 569h115l-88 -319h-115l-68 -250h-276l70 250h-219l-68 -250h-275l68 250h-117l88 319h117l76 279h-115l86 319h117l72 267h276l-74 -267h218l73 267h275l-72 -267h115l-88 -319h-115zM602 868l-86 -317h250l86 317h-250z" glyph-name="numbersign.aalt" horiz-adv-x="1366"/><glyph d="M291 543q-84 0 -130 45t-46 116t46 115.5t130 44.5t129 -45t45 -115t-45 -115.5t-129 -45.5z" glyph-name="periodcentered.aalt" horiz-adv-x="579"/><glyph d="M291 872q-84 0 -130 46.5t-46 116t46 114.5t130 45t129 -44t45 -115t-45 -117t-129 -46zM115 376q0 60 46 102t125 42t134 -55t55 -153t-66.5 -179.5t-179.5 -116.5l-125 140q92 20 125 94q-53 -2 -83.5 32t-30.5 94z" glyph-name="semicolon.aalt" horiz-adv-x="579"/><glyph glyph-name="space.dnom" horiz-adv-x="251"/><glyph glyph-name="space.numr" horiz-adv-x="251"/><glyph glyph-name="space.superior" horiz-adv-x="251"/><glyph d="M610 449q145 0 213 131l301 -82q-47 -123 -148.5 -211t-232.5 -119v-197h-276v197q-180 45 -295 194.5t-115 356.5t111 347t299 181v215h276v-215q293 -59 383 -321l-299 -84q-68 139 -215 139q-117 0 -178 -70.5t-61 -193.5t63 -195.5t174 -72.5z" glyph-name="cent.lnum" horiz-adv-x="1177"/><glyph d="M1235 691q0 -165 -92 -306l133 -135l-166 -168l-137 137q-137 -88 -301 -88t-295 86l-135 -135l-168 168l133 133q-92 145 -92 307t86 301l-140 139l166 168l142 -139q133 92 301 92t313 -92l139 139l168 -168l-141 -141q86 -133 86 -298zM676 948q-108 0 -183 -72.5 t-75 -186.5t73.5 -183.5t183.5 -69.5t182.5 69.5t72.5 184.5t-73 186.5t-181 71.5z" glyph-name="currency.lnum" horiz-adv-x="1351"/><glyph d="M760 -184h-281v168q-338 57 -424 374l324 88q14 -82 78.5 -127t165.5 -45q172 0 172 129q0 86 -70.5 114t-144.5 46.5t-124 32.5q-120 33 -239 124.5t-119 307.5q0 180 99.5 286.5t281.5 137.5v184h283v-186q303 -53 383 -360l-322 -95q-41 166 -221 166 q-158 0 -158 -123q0 -37 12.5 -55t19.5 -27.5t25.5 -18.5t30 -15.5t37 -14.5t40 -12t48.5 -14.5t82 -24.5t148 -55.5t177 -132.5t77 -261q0 -169 -98.5 -282t-282.5 -143v-166z" glyph-name="dollar.lnum" horiz-adv-x="1200"/><glyph d="M756 -25q-227 0 -383 115t-215 342h-101v236h68v96h-66v235h93q100 459 582 459t571 -418l-320 -86q-27 104 -82 158.5t-163 54.5t-165 -40t-81 -128h327v-235h-350v-96h350v-236h-313q29 -80 85 -111.5t150 -31.5q189 -1 242 151l322 -86q-51 -162 -187.5 -270.5 t-363.5 -108.5z" glyph-name="Euro.lnum" horiz-adv-x="1357"/><glyph d="M651 0h-422v551l-133 -27v236l133 26v86l-133 -26v235l133 27v326h344v-260l238 45v-236l-238 -45v-86l238 45v-235l-238 -46v-315h62q268 1 321 277l314 -86q-37 -217 -191.5 -354.5t-427.5 -137.5z" glyph-name="uni20BA.lnum" horiz-adv-x="1320"/><glyph d="M1116 854h-235q-20 -295 -287 -395l319 -461l-405 2l-328 498v204h148q184 0 227 152h-440v236h424q-55 109 -209 108h-215v236h1001v-236h-297l-4 -8q29 -37 49 -100h252v-236z" glyph-name="uni20B9.lnum" horiz-adv-x="1183"/><glyph d="M1174 301v-301h-1088v301q74 14 98.5 54.5t24.5 110.5t-4 101h-123v236h100q-18 156 -18 254q0 180 121 292.5t344 112.5q469 0 532 -422l-313 -86q-16 117 -65.5 163t-129.5 46q-174 0 -174 -190q0 -59 15 -170h411v-236h-377q8 -70 9 -88q0 -129 -58 -176l4 -6h6l13 1 h35l67 2z" glyph-name="sterling.lnum" horiz-adv-x="1247"/><glyph d="M1210 999v-235h-270l-45 -96h315v-236h-389v-432h-344v432h-368v236h297l-48 96h-249v235h139l-207 435h377l188 -453q10 -27 23.5 -65.5t23 -65.5t9.5 -29h8q0 6 57 160l174 453h359l-207 -435h157z" glyph-name="yen.lnum" horiz-adv-x="1300"/><glyph d="M702 449q145 0 213 131l302 -82q-47 -123 -148.5 -211t-232.5 -119v-197h-277v197q-180 45 -294.5 194.5t-114.5 356.5t110.5 347t298.5 181v215h277v-215q293 -59 383 -321l-299 -84q-68 139 -215 139q-117 0 -178.5 -70.5t-61.5 -193.5t63 -195.5t174 -72.5z" glyph-name="cent.tnum"/><glyph d="M1243 691q0 -165 -92 -306l135 -135l-168 -168l-137 137q-137 -88 -301 -88t-295 86l-135 -135l-168 168l133 133q-92 145 -92 307t86 301l-139 139l168 168l139 -139q133 92 301 92t313 -92l139 139l168 -168l-141 -141q86 -133 86 -298zM684 948q-108 0 -183 -72.5 t-75 -186.5t73.5 -183.5t183.5 -69.5t182.5 69.5t72.5 184.5t-73 186.5t-181 71.5z" glyph-name="currency.tnum"/><glyph d="M829 -184h-280v168q-338 57 -424 374l324 88q14 -82 78.5 -127t164.5 -45q172 0 172 129q0 87 -72 115t-144.5 46t-122.5 32q-122 34 -239.5 125t-117.5 307q0 180 99.5 286.5t281.5 137.5v184h282v-186q303 -53 383 -360l-321 -95q-41 166 -221 166q-158 0 -158 -123 q0 -39 12.5 -56t19.5 -26.5t25.5 -18.5t29.5 -15.5t37 -14.5t40 -12t48 -14.5t82 -24.5t147.5 -55t177 -132.5t77.5 -261.5q0 -169 -98 -282t-283 -143v-166z" glyph-name="dollar.tnum"/><glyph d="M738 -25q-228 0 -382.5 115t-214.5 342h-102v236h70l-3 49q0 31 3 47h-68v235h92q99 459 581 459t574 -418l-319 -86q-27 104 -83.5 158.5t-170.5 54.5q-190 0 -238 -168h328v-235h-352v-14q0 -55 2 -82h350v-236h-316q29 -80 85.5 -111.5t150.5 -31.5q189 -1 242 151 l323 -86q-51 -162 -187.5 -270.5t-364.5 -108.5z" glyph-name="Euro.tnum"/><glyph d="M655 0h-419v551l-134 -27v236l134 26v86l-134 -26v235l134 27v326h344v-260l237 45v-236l-237 -45v-86l237 45v-235l-237 -46v-315h61q269 1 322 277l313 -86q-37 -217 -191.5 -354.5t-429.5 -137.5z" glyph-name="uni20BA.tnum"/><glyph d="M1206 854h-235q-20 -295 -287 -395l320 -461l-406 2l-328 498v204h148q184 0 227 152h-440v236h424q-51 109 -207 108h-217v236h1001v-236h-297l-2 -8q33 -45 47 -100h252v-236z" glyph-name="uni20B9.tnum"/><glyph d="M1243 301v-301h-1087v301q74 14 99.5 53.5t25.5 95.5t-5 117h-122v236h98q-18 156 -19 254q0 180 122 292.5t343 112.5q467 0 535 -422l-313 -86q-16 117 -65.5 163t-131.5 46q-174 0 -174 -190q0 -59 14 -170h414v-236h-379q8 -47 8 -88q0 -131 -57 -176l4 -6h6l13 1h35 l66 2z" glyph-name="sterling.tnum"/><glyph d="M1243 999v-235h-268l-45 -96h313v-236h-387v-432h-344v432h-369v236h295l-45 96h-250v235h140l-207 435h377l186 -453q10 -27 33.5 -89.5t23.5 -70.5h9q0 8 23.5 70.5t33.5 89.5l174 453h358l-207 -435h156z" glyph-name="yen.tnum"/><glyph d="M702 315q143 0 213 131l302 -79q-47 -123 -148.5 -211t-232.5 -121v-197h-277v199q-180 45 -294.5 194.5t-114.5 355.5t110.5 347t298.5 182v213h277v-213q133 -29 234 -108.5t149 -212.5l-299 -86q-68 139 -215 139q-117 0 -178.5 -70.5t-61.5 -193.5t63 -196t174 -73z " glyph-name="cent.tnum.oldstyle"/><glyph d="M1243 573.5q0 -161.5 -92 -307.5l135 -135l-168 -168l-137 137q-137 -88 -301 -88t-295 86l-135 -135l-168 168l133 135q-92 145 -92 308t86 298l-139 140l168 168l139 -140q133 92 301 92t313 -92l139 140l168 -168l-141 -140q86 -137 86 -298.5zM684 829 q-108 0 -183 -72.5t-75 -186.5t73.5 -183.5t183.5 -69.5t182.5 70.5t72.5 184.5t-73 185.5t-181 71.5z" glyph-name="currency.tnum.oldstyle"/><glyph d="M807 -184h-229v170q-301 43 -355 303l295 78q10 -57 53 -101.5t125 -44.5q127 0 127 98q0 74 -60.5 95.5t-126 37t-91.5 23.5q-143 41 -224 116t-81 224t85 236.5t236 109.5v170h230v-170q272 -43 337 -278l-280 -76q-23 121 -164 121t-141 -94q0 -57 46.5 -83.5 t146.5 -50.5t183 -51.5t153.5 -100t70.5 -216.5t-90 -233t-246 -113v-170z" glyph-name="dollar.tnum.oldstyle"/><glyph d="M732 260q132 0 171 115l322 -84q-39 -125 -160 -219.5t-334 -94.5q-416 0 -508 383h-90v175h68l-2 53q0 16 2 24h-66v174h82q82 383 506 383t504 -346l-320 -86q-18 76 -59 115t-125 39q-127 0 -170 -105h203v-174h-230v-77h230v-175h-197q41 -100 173 -100z" glyph-name="Euro.tnum.oldstyle"/><glyph d="M762 0h-397v414l-109 -19v174l109 19v78l-109 -19v174l109 19v307h323v-250l178 31v-174l-178 -31v-78l178 31v-174l-178 -31v-170h60q184 0 233 178l305 -82q-29 -168 -162 -282.5t-362 -114.5z" glyph-name="uni20BA.tnum.oldstyle"/><glyph d="M1184 721h-160q-12 -115 -84 -197t-190 -108l245 -416h-395l-235 422v223h161q66 0 103 14.5t53 61.5h-373v174h371q-27 78 -133 78h-238v174h875v-174h-201l-2 -15q18 -25 29 -63h174v-174z" glyph-name="uni20B9.tnum.oldstyle"/><glyph d="M725 897q-113 -1 -113 -109q0 -54 13 -159h327v-217h-299v-15q0 -59 -30 -90l2 -8h27l41 1l489 1v-301h-940v301q57 8 74.5 29.5t17.5 77.5v4h-96v217h77q-18 133 -18 198q0 158 104.5 250t309.5 92q412 0 467 -348l-301 -82q-23 92 -60 125t-92 33z" glyph-name="sterling.tnum.oldstyle"/><glyph d="M1139 786v-174h-193l-35 -77h228v-175h-295v-360h-326v360h-285v175h220l-37 77h-183v174h103l-168 361h356l111 -303l49 -142h6q2 0 51 142l109 303h348l-170 -361h111z" glyph-name="yen.tnum.oldstyle"/><glyph d="M918 537q-80 0 -216.5 40.5t-220.5 40.5q-137 0 -217 -88l-55 271q25 33 93.5 65.5t148 32.5t216.5 -41t237 -41t202 88l51 -270q-20 -33 -89.5 -65.5t-149.5 -32.5z" glyph-name="asciitilde.aalt"/><glyph d="M686 985q-84 0 -130 46t-46 116t46 115t130 45t129 -44t45 -115t-45 -117t-129 -46zM1100 598h-832v281h832v-281zM686 170q-84 0 -130 46t-46 115.5t46 115t130 45.5t129 -44.5t45 -116t-45 -116.5t-129 -45z" glyph-name="divide.aalt"/><glyph d="M1100 836h-832v280h832v-280zM1100 360h-832v281h832v-281z" glyph-name="equal.aalt"/><glyph d="M784 727v8l-538 213v291l923 -399v-219l-923 -398v291z" glyph-name="greater.aalt"/><glyph d="M831 907v8l-608 136v290l924 -268v-323l-924 -269v291zM1147 0h-924v281h924v-281z" glyph-name="greaterequal.aalt"/><glyph d="M1122 223l-923 398v219l923 399v-291l-538 -213v-8l538 -213v-291z" glyph-name="less.aalt"/><glyph d="M1145 481l-924 269v323l924 268v-290l-608 -136v-8l608 -135v-291zM1145 281v-281h-924v281h924z" glyph-name="lessequal.aalt"/><glyph d="M1100 598h-832v281h832v-281z" glyph-name="minus.aalt"/><glyph d="M889 731l229 -225l-205 -207l-229 227l-229 -227l-205 207l229 225l-229 227l205 205l229 -225l229 225l205 -205z" glyph-name="multiply.aalt"/><glyph d="M1100 641v-281h-422l-74 -184h-285l74 184h-125v281h240l80 195h-320v280h434l72 178h277l-72 -178h121v-280h-234l-75 -195h309z" glyph-name="notequal.aalt"/><glyph d="M1100 598h-266v-293h-295l-2 293h-269v281h269v292h294v-292h269v-281z" glyph-name="plus.aalt"/><glyph d="M1100 1055v-281h-264v-305h-299l-2 305h-267v281h267v303h299v-303h266zM268 281h832v-281h-832v281z" glyph-name="plusminus.aalt"/><glyph d="M376 627q-308 -1 -308 411t308 412t308 -412t-308 -411zM1176 1434l-431 -1434h-200l428 1434h203zM378 829q46 0 62.5 42t16.5 166t-16.5 166t-62.5 42t-65.5 -44t-19.5 -164t19.5 -164t65.5 -44zM1345 -14q-309 0 -309 412t308 411q308 1 309 -411q0 -412 -308 -412z M1347 188q46 0 63 43t17 165t-17 165t-63 43t-65.5 -44t-19.5 -164t19.5 -164t65.5 -44z" glyph-name="percent.lnum" horiz-adv-x="1720"/><glyph d="M376 627q-308 -1 -308 411t308 412t308 -412t-308 -411zM1176 1434l-431 -1434h-200l428 1434h203zM378 829q46 0 62.5 42t16.5 166t-16.5 166t-62.5 42t-65.5 -44t-19.5 -164t19.5 -164t65.5 -44zM1345 -14q-309 0 -309 412t308 411q308 1 309 -411q0 -412 -308 -412z M2064 -14q-309 0 -309 412t309 411q309 1 309 -411t-309 -412zM1347 188q46 0 63 43t17 165t-17 165t-63 43t-65.5 -44t-19.5 -164t19.5 -164t65.5 -44zM2066 188q45 0 62.5 43t17.5 165t-17.5 165t-63.5 43t-64.5 -43t-18.5 -164t19.5 -165t64.5 -44z" glyph-name="perthousand.aalt" horiz-adv-x="2439"/><glyph d="M326 627q-299 -1 -299 411t299 412t299 -412t-299 -411zM1079 1434l-661 -1434h-131l661 1434h131zM330 829q47 0 63.5 46.5t16.5 162.5t-16.5 161.5t-63.5 45.5t-63.5 -47t-16.5 -161t16.5 -161t63.5 -47zM1042 -14q-299 0 -299 412t299 411q299 1 299 -411t-299 -412z M1044.5 188q47.5 0 62.5 47t15 163t-15 161t-62.5 45t-64.5 -47t-17 -161t17 -161t64.5 -47z" glyph-name="percent.tnum"/><glyph d="M327.5 461q-141.5 0 -201.5 91t-60 263t60 263t201.5 91t201 -91t59.5 -263t-59.5 -263t-201 -91zM944 1147l-385 -1147h-137l383 1147h139zM329 643q40 0 53 38t13 134t-13 134t-53 38t-54.5 -39t-14.5 -133t14.5 -133t54.5 -39zM1042.5 -12q-141.5 0 -202 90t-60.5 263 t60.5 264t202 91t201 -91t59.5 -264t-59.5 -263t-201 -90zM1043 170q40 0 54.5 39t14.5 133t-14.5 133t-54.5 39t-55 -39t-15 -133t15 -133t55 -39z" glyph-name="percent.tnum.oldstyle"/><glyph d="M1237 588v-174q0 -211 -151.5 -327t-435.5 -116t-427 115t-143 305q0 135 69.5 228.5t182.5 117.5v6q-96 18 -166 104.5t-70 227.5q0 190 138.5 288.5t388.5 98.5q463 0 598 -379l-316 -84q-63 180 -268 181q-98 0 -144.5 -44t-46.5 -112q0 -152 201 -152h801v-284h-211z M905 588h-282q-190 0 -191 -152q0 -170 225 -170q135 0 191.5 52.5t56.5 154.5v115z" glyph-name="ampersand.aalt" horiz-adv-x="1495"/><glyph d="M806 854q-62 0 -98 -43t-36 -120t35.5 -120t97 -43t96.5 43t37 117v397h283v-407q0 -109 16 -156t70 -47q106 0 106 254t-155.5 416t-424.5 162t-431 -173t-162 -454t159.5 -426t425.5 -145q182 0 314 79l172 -86q-197 -160 -494 -159q-350 0 -555 193.5t-205 549.5 t210 570t566 214t560 -209.5t204 -545.5q0 -186 -90 -309t-243 -123q-195 0 -256 153h-7q-23 -66 -93 -114t-181 -48q-172 0 -266 112t-94 304t89 305t269 113q76 0 131 -32t76 -66h6v-314q0 74 -35 116t-97 42z" glyph-name="at.aalt" horiz-adv-x="1628"/><glyph d="M800.5 1462q313.5 0 529.5 -207.5t216 -536.5t-216 -538t-529.5 -209t-528.5 209t-215 538t215 536.5t528.5 207.5zM801 1298q-252 0 -414 -161.5t-162 -417.5t162 -420t414 -164t413.5 163t161.5 420t-161.5 418.5t-413.5 161.5zM797 324q-178 0 -288 108.5t-110 280.5 t111 282.5t287 110.5q127 0 218 -59.5t132 -163.5l-203 -54q-47 70 -136 70t-138 -50t-49 -134t50 -133.5t139 -49.5t138 68l205 -68q-45 -94 -138 -151t-218 -57z" glyph-name="copyright.aalt" horiz-adv-x="1603"/><glyph d="M1608 1106q0 152 101 251t248.5 99t250 -99t102.5 -251t-102.5 -251t-250 -99t-248.5 99t-101 251zM1077 1434h344v-1434h-350l-610 856h-6v-12l1 -18v-51l2 -83l1 -692h-344v1434h348l610 -840h6v10l-1 46zM1808 1105q0 -71 39 -115t111 -44t111.5 44t39.5 115 t-39.5 116t-111.5 45t-111 -45t-39 -116zM2290 430h-662v205h662v-205z" glyph-name="afii61352.aalt" horiz-adv-x="2381"/><glyph d="M961 0v1114h-138v-1114h-344v668q-205 0 -313.5 100t-108.5 286t108.5 283t313.5 97h826v-1434h-344z" glyph-name="paragraph.aalt" horiz-adv-x="1419"/><glyph d="M800.5 1462q313.5 0 529.5 -207.5t216 -536.5t-216 -538t-529.5 -209t-528.5 209t-215 538t215 536.5t528.5 207.5zM801 1298q-252 0 -414 -161.5t-162 -417.5t162 -420t414 -164t413.5 163t161.5 420t-161.5 418.5t-413.5 161.5zM518 1098h328q145 0 229 -78t84 -206 t-85 -198.5t-263 -70.5h-70v-203h-223v756zM741 719h103q94 0 94 85t-94 85h-103v-170z" glyph-name="uni2117.aalt" horiz-adv-x="1603"/><glyph d="M800.5 1462q313.5 0 529.5 -207.5t216 -536.5t-216 -538t-529.5 -209t-528.5 209t-215 538t215 536.5t528.5 207.5zM801 1298q-252 0 -414 -161.5t-162 -417.5t162 -420t414 -164t413.5 163t161.5 420t-161.5 418.5t-413.5 161.5zM705 596v-254h-226v756h330 q156 0 243 -72t87 -202t-131 -187l159 -295h-249l-134 254h-79zM705 760h116q88 0 88 71.5t-88 71.5h-116v-143z" glyph-name="registered.aalt" horiz-adv-x="1603"/><glyph d="M792 1565q-68 0 -178 30.5t-176 30.5q-115 0 -180 -57l-51 248q18 23 73.5 44t124.5 21t177 -30.5t194 -30.5t162 57l49 -248q-18 -23 -72.5 -44t-122.5 -21z" glyph-name="glyph590" horiz-adv-x="1198"/><glyph d="M485 1434h269q2 -80 -29 -207t-70 -195h-243q33 63 54 190.5t19 211.5z" glyph-name="glyph591" horiz-adv-x="1198"/></font>
</defs>
</svg>
