<svg id="Layer_1" xmlns="http://www.w3.org/2000/svg" width="2128" height="150" viewBox="0 0 2128 150"><style>.st0{fill:#3760aa}.st1{fill:#ffda28}.st2{fill:#f6a11c}.st3{opacity:.15;fill:#fff;enable-background:new}.st4{fill:#3860aa}.st5{fill:#fff}.st6{fill:#f2f4f9}.st7{fill:#60c4e5}.st8{fill:#39beea}.st9{opacity:.2;fill:#132e3e;enable-background:new}.st10,.st11{fill:#353738;stroke:#b3b2b2;stroke-miterlimit:10}.st11{fill:#3cbff0;stroke:#2a4b9b}</style><circle class="st0" cx="76" cy="75" r="75"/><circle class="st1" cx="74.3" cy="74.1" r="43.5"/><path class="st1" d="M38.5 34.5l-3.9 3.9c-2 2-2 5.4 0 7.5l3.9 3.9c3.1-4.5 7-8.3 11.3-11.3l-3.8-4c-2-2.1-5.4-2.1-7.5 0zm71.5 0c-2-2-5.4-2-7.5 0l-3.7 3.7c4.5 3.1 8.3 7 11.3 11.3l3.9-3.9c2-2 2-5.4 0-7.5l-4-3.6zM77.1 20.8h-5.6c-2.9 0-5.2 2.4-5.2 5.2v5.5c2.6-.5 5.2-.7 8-.7 2.7 0 5.5.2 8.1.7V26c0-2.8-2.4-5.2-5.3-5.2zM26.2 66.2c-2.9 0-5.2 2.4-5.2 5.2V77c0 2.9 2.4 5.2 5.2 5.2h5.5c-.5-2.6-.7-5.4-.7-8.1s.2-5.5.7-8.1h-5.5v.2zm83.9 32.5c-3 4.5-7 8.3-11.3 11.3l3.9 3.9c2 2 5.4 2 7.5 0l4-4c2-2 2-5.4 0-7.5l-4.1-3.7zm12.4-32.5H117c.5 2.6.7 5.4.7 8.1 0 2.7-.2 5.5-.7 8.1h5.5c2.9 0 5.2-2.4 5.2-5.2v-5.6c0-3.1-2.4-5.4-5.2-5.4zM38.4 98.7l-3.7 3.9c-2 2-2 5.4 0 7.5l4 4c2 2 5.4 2 7.5 0l3.9-3.9c-4.7-3.2-8.6-7-11.7-11.5zm27.9 18.2v5.5c0 2.9 2.4 5.2 5.2 5.2h5.6c2.9 0 5.2-2.4 5.2-5.2v-5.5c-2.6.5-5.2.7-8.1.7-2.7 0-5.3-.2-7.9-.7z"/><path class="st2" d="M66.3 29.3v2.2c2.6-.5 5.2-.7 8-.7 2.7 0 5.5.2 8.1.7v-2.2c-2.6-.5-5.4-.7-8.1-.7-2.8-.1-5.4.2-8 .7zm43.8 20.4l1.6-1.6c-3.1-4.5-7-8.3-11.3-11.3l-1.6 1.5c4.5 3.1 8.3 6.9 11.3 11.4zM29.4 66.2c-.5 2.6-.7 5.4-.7 8.1 0 2.7.2 5.5.7 8.1h2.2c-.5-2.7-.7-5.5-.7-8.2s.2-5.5.7-8.1h-2.2v.1zM98.8 110l1.6 1.6c4.5-3.1 8.3-7 11.3-11.3l-1.6-1.6c-3 4.5-6.8 8.3-11.3 11.3zm20.4-43.8H117c.5 2.6.7 5.4.7 8.1 0 2.7-.2 5.5-.7 8.1h2.2c.5-2.6.7-5.4.7-8.1.1-2.8-.2-5.5-.7-8.1zm-52.9 50.7v2.2c2.6.5 5.4.7 8.1.7 2.7 0 5.5-.2 8.1-.7v-2.2c-2.6.5-5.2.7-8.1.7-2.9 0-5.5-.2-8.1-.7zM38.4 98.7l-1.6 1.6c3.1 4.5 7 8.3 11.3 11.3l1.6-1.6c-4.3-3-8.2-6.8-11.3-11.3zm-1.5-50.6l1.6 1.6c3.1-4.5 7-8.3 11.3-11.3l-1.6-1.6c-4.5 2.9-8.3 6.8-11.3 11.3z"/><path class="st3" d="M102.7 34.5l-3.9 3.7c-4.9-3.4-10.5-5.6-16.4-6.9V26c0-2.9-2.4-5.2-5.2-5.2h-5.6c-2.9 0-5.2 2.4-5.2 5.2v5.5c-6 1.1-11.6 3.5-16.4 6.9l-4-3.9c-2-2-5.4-2-7.5 0l-3.9 3.9c-2 2-2 5.4 0 7.5l3.9 3.9c-3.4 4.9-5.6 10.5-6.9 16.4h-5.5c-2.9 0-5.2 2.4-5.2 5.2V77c0 2.9 2.4 5.2 5.2 5.2h5.5c1.1 6 3.5 11.6 6.9 16.4l-3.9 3.9c-2 2-2 5.4 0 7.5l2.2 2.2 75.5-75.5-2.4-2.2c-1.9-2.1-5.2-2.1-7.2 0z"/><circle class="st4" cx="228" cy="75" r="75"/><path class="st5" d="M231.2 29.7c-13.2 0-24.3 8.6-28.3 20.6-7.5 1.6-13.5 6.9-16.2 13.8-10 .4-18.1 8.6-18.1 18.7s8 18.3 17.9 18.7h44.9V29.7h-.2z"/><path class="st6" d="M260.8 55.7c-1.7-14.6-14.1-25.9-29.2-26v71.6h28.3c12.2-.5 21.8-10.5 21.8-22.8.1-12.1-9.2-21.9-20.9-22.8z"/><circle class="st4" cx="380" cy="75" r="75"/><path class="st5" d="M386.2 28.3c-13.2 0-24.3 8.6-28.3 20.6-7.5 1.6-13.5 6.9-16.2 13.8-10 .4-18.1 8.6-18.1 18.7s8 18.3 17.9 18.7h44.9V28.3h-.2z"/><path class="st6" d="M415.6 54.3c-1.7-14.6-14.1-25.9-29.2-26v71.6h28.3c12.2-.5 21.8-10.5 21.8-22.8.2-11.9-9-21.8-20.9-22.8z"/><path class="st7" d="M419.6 89.3l-18.1 4.9-1.5.5c-1.7.6-3.5 1.6-4.9 3-4.9 4.9-4.9 12.7 0 17.6l25.7-25.7c-.3-.3-.7-.4-1.2-.3z"/><path class="st8" d="M415.8 110.4l.4-1.5 4.9-18.1c.1-.5 0-1-.2-1.2l-25.7 25.7c4.9 4.9 12.7 4.9 17.6 0 1.3-1.4 2.3-3.2 3-4.9z"/><path class="st9" d="M421 90.8l-2.4 8.6c3-.6 5.9-1.9 8.3-3.6l-6.2-6.2c.3.2.4.6.3 1.2z"/><path class="st7" d="M365.5 109.6l-4.4-2.5 3.7-1c.2 0 .4-.2.2-.5l-.6-2.2c0-.2-.2-.4-.5-.2l-6.7 1.7-5.6-3.2 5.6-3.2 6.9 1.9c.2 0 .4-.1.5-.2l.6-2.2c0-.2-.1-.4-.2-.5l-3.7-1 4.4-2.5c.1-.1.2-.4.1-.5l-1.1-2c-.1-.1-.4-.2-.5-.1l-4.4 2.5 1-3.7c0-.2-.1-.4-.2-.5l-2.2-.6c-.2 0-.4.1-.5.2l-1.9 6.9-5.5 3.2v-6.1l5-5c.1-.1.1-.4 0-.5l-1.9-1.9c-.1-.1-.4-.1-.5 0l-2.9 2.7v-5.4c0-.2-.1-.4-.4-.4h-2.4c-.2 0-.4.1-.4.4v5.4l-2.7-2.7c-.1-.1-.4-.1-.5 0l-1.6 1.6c-.1.1-.1.4 0 .5l5 5v6.1l-5.4-3-1.9-6.9c0-.2-.2-.4-.5-.2l-2.2.6c-.2 0-.4.2-.2.5l1 3.7-4.6-2.6c-.1-.1-.4 0-.5.1l-1.1 2c-.1.1 0 .4.1.5l4.6 2.6-3.7 1c-.2 0-.4.2-.2.5l.6 2.2c0 .2.2.4.5.2l6.9-1.9 5.2 3.1-5.2 3.1-6.9-1.9c-.2 0-.4.1-.5.2l-.7 2.4c0 .2.1.4.2.5l3.7 1-4.5 2.7c-.1.1-.2.4-.1.5l1.1 2c.1.1.4.2.5.1l4.6-2.6-1 3.7c0 .2.1.4.2.5l2.2.6c.2 0 .4-.1.5-.2l1.9-6.9 5.2-3.1v6.4l-5 5c-.1.1-.1.4 0 .5l1.6 1.6c.1.1.4.1.5 0l2.7-2.7v5c0 .2.1.4.4.4h2.5c.2 0 .4-.1.4-.4v-5l2.7 2.7c.1.1.4.1.5 0l1.6-1.6c.1-.1.1-.4 0-.5l-5-5v-6.4l5.5 3.2 1.9 6.9c0 .2.2.4.5.2l2.2-.6c.2 0 .4-.2.2-.5l-1-3.7 4.4 2.5c.1.1.4 0 .5-.1l1.1-2c.6-.1.5-.4.3-.4z"/><path class="st9" d="M357.5 89.6l-2.1-2.1c.1.1.1.2 0 .4l-5 5V99l5.5-3.2 1.6-6.2zm-20.1 9.8c1.2.4 2.6.5 3.9.6h1.2l-2.4-1.4-2.7.8zm4.5-3.5l5.2 3.1v-2.7l-7.1-7.1 1.9 6.7zm8.3-7.4l2.7-2.7-2.7-2.7v5.4zm23.1 11.4l-8.8-8.8 1.1 2c.1.1 0 .4-.1.5l-4.4 2.5 3.7 1c.2 0 .4.2.2.5l-.6 2.2h8.8v.1zm-10.5-8.2l-2.2-2.2c.1.1.1.2.1.4l-1 3.7 3.1-1.9zm-8.1 8.2h8.2l-5.6-1.5-2.6 1.5z"/><circle class="st4" cx="532" cy="75" r="75"/><path class="st5" d="M538.2 30.8c-13.2 0-24.3 8.6-28.3 20.6-7.5 1.6-13.5 6.9-16.2 13.8-10 .4-18.1 8.6-18.1 18.7s8 18.3 17.9 18.7h44.9V30.8h-.2z"/><path class="st6" d="M567.6 56.8c-1.7-14.6-14.1-25.9-29.2-26v71.6h28.3c12.2-.5 21.8-10.5 21.8-22.8.2-12-9-21.8-20.9-22.8z"/><path class="st7" d="M529.9 88.7c0 .7-.6 1.2-1.2 1.2h-41.5c-.7 0-1.2-.6-1.2-1.2V86c0-.7.6-1.2 1.2-1.2h41.5c.7 0 1.2.6 1.2 1.2v2.7zm-38.5 28.5c0-.7.6-1.2 1.2-1.2h41.5c.7 0 1.2.6 1.2 1.2v2.7c0 .7-.6 1.2-1.2 1.2h-41.4c-.7 0-1.2-.6-1.2-1.2v-2.7h-.1zm70.1-13.2c0 .7-.6 1.2-1.2 1.2H533c-.7 0-1.2-.6-1.2-1.2v-2.7c0-.7.6-1.2 1.2-1.2h27.2c.7 0 1.2.6 1.2 1.2v2.7h.1zm-15.8 13.2c0-.7.6-1.2 1.2-1.2h27.2c.7 0 1.2.6 1.2 1.2v2.7c0 .7-.6 1.2-1.2 1.2H547c-.7 0-1.2-.6-1.2-1.2v-2.7zm-46-13.2c0 .6.5 1.2 1.2 1.2h16.4c.6 0 1.2-.5 1.2-1.2v-2.9c0-.6-.5-1.2-1.2-1.2H501c-.6 0-1.2.5-1.2 1.2v2.9zm62-15.3c0 .6.5 1.2 1.2 1.2h16.4c.6 0 1.2-.5 1.2-1.2v-2.9c0-.6-.5-1.2-1.2-1.2h-16.4c-.6 0-1.2.5-1.2 1.2v2.9zm-20.7 0c0 .6.5 1.2 1.2 1.2h4.6c.6 0 1.2-.5 1.2-1.2v-2.9c0-.6-.5-1.2-1.2-1.2h-4.6c-.6 0-1.2.5-1.2 1.2v2.9z"/><path class="st9" d="M548.1 85.8v2.9c0 .6-.5 1.2-1.2 1.2h-4.6c-.4 0-.6-.1-.9-.4l10.3 10.3h8.6c.7 0 1.2.6 1.2 1.2v1.2h3.6L547.8 85c.1.3.3.6.3.8zm-18.2 0v2.7c0 .7-.6 1.2-1.2 1.2h-41.5c-.4 0-.6-.1-.9-.4l12.8 12.8h.7V101c0-.6.5-1.2 1.2-1.2h16.4c.6 0 1.2.5 1.2 1.2v1.2h13V101c0-.7.6-1.2 1.2-1.2h11.3l-14.7-14.6c.4.1.5.4.5.6zm11.3 3.8zm39.1-4.4c.1.2.2.4.2.6v2.9c0 .6-.5 1.2-1.2 1.2h-16.4c-.2 0-.5-.1-.7-.2l11.5 11.5c5.2-1.9 9.6-5.6 12.3-10.5l-5.7-5.5z"/><circle class="st4" cx="684" cy="75" r="75"/><circle class="st1" cx="684" cy="71.5" r="31.6"/><path class="st1" d="M657.9 42.6l-2.9 2.9c-1.4 1.4-1.4 4 0 5.4l2.9 2.9c2.2-3.2 5.1-6 8.3-8.3l-2.9-2.9c-1.4-1.5-3.9-1.5-5.4 0zm52.2 0c-1.4-1.4-4-1.4-5.4 0l-2.9 2.9c3.2 2.2 6 5.1 8.3 8.3l2.9-2.9c1.4-1.4 1.4-4 0-5.4l-2.9-2.9zm-24-10H682c-2.1 0-3.8 1.7-3.8 3.8v4c1.9-.3 3.8-.6 5.9-.6s4 .2 5.9.6v-4c-.1-2.1-1.9-3.8-3.9-3.8zm-37.2 33c-2.1 0-3.8 1.7-3.8 3.8v4.1c0 2.1 1.7 3.8 3.8 3.8h4c-.3-1.9-.6-3.8-.6-5.9s.2-4 .6-5.9h-4zm61.3 23.9c-2.2 3.2-5.1 6-8.3 8.3l2.9 2.9c1.4 1.4 4 1.4 5.4 0l2.9-2.9c1.4-1.4 1.4-4 0-5.4l-2.9-2.9zm8.9-23.9h-4c.3 1.9.6 3.8.6 5.9s-.2 4-.6 5.9h4c2.1 0 3.8-1.7 3.8-3.8v-4.1c.1-2.1-1.7-3.9-3.8-3.9zm-61.3 23.9l-2.9 2.9c-1.4 1.4-1.4 4 0 5.4l2.9 2.9c1.4 1.4 4 1.4 5.4 0l2.9-2.9c-3.2-2.3-6.1-5.1-8.3-8.3zm20.3 13.2v4c0 2.1 1.7 3.8 3.8 3.8h4.1c2.1 0 3.8-1.7 3.8-3.8v-4c-1.9.3-3.8.6-5.9.6s-3.9-.3-5.8-.6z"/><path class="st2" d="M678.1 38.8v1.6c1.9-.3 3.8-.6 5.9-.6s4 .2 5.9.6v-1.6c-1.9-.3-3.8-.5-5.9-.5s-4 .1-5.9.5zm32.1 14.9l1.1-1.1c-2.2-3.2-5.1-6-8.3-8.3l-1.1 1.1c3.2 2.3 6.1 5.1 8.3 8.3zm-59 11.9c-.3 1.9-.5 3.8-.5 5.9s.2 4 .5 5.9h1.6c-.3-1.9-.6-3.8-.6-5.9s.2-4 .6-5.9h-1.6zm50.6 32.2l1.1 1.1c3.2-2.2 6-5.1 8.3-8.3l-1.1-1.1c-2.1 3.2-5 6-8.3 8.3zm15-32.2h-1.6c.3 1.9.6 3.8.6 5.9s-.2 4-.6 5.9h1.6c.3-1.9.5-3.8.5-5.9s-.2-4-.5-5.9zm-38.7 37.1v1.6c1.9.3 3.8.5 5.9.5s4-.2 5.9-.5v-1.6c-1.9.3-3.8.6-5.9.6s-4-.3-5.9-.6zm-20.3-13.2l-1.1 1.1c2.2 3.2 5.1 6 8.3 8.3l1.1-1.1c-3.2-2.3-6.1-5.1-8.3-8.3zm-1.2-36.9l1.1 1.1c2.2-3.2 5.1-6 8.3-8.3l-1.1-1.1c-3.2 2.3-6 5-8.3 8.3z"/><path class="st3" d="M704.7 42.6l-2.9 2.9c-3.5-2.4-7.6-4.1-11.9-4.9v-4c0-2.1-1.7-3.8-3.8-3.8H682c-2.1 0-3.8 1.7-3.8 3.8v4c-4.5.8-8.4 2.5-11.9 4.9l-2.9-2.9c-1.4-1.4-4-1.4-5.4 0l-2.9 2.9c-1.4 1.4-1.4 4 0 5.4l2.9 2.9c-2.4 3.5-4.1 7.6-4.9 11.9h-4c-2.1 0-3.8 1.7-3.8 3.8v4.1c0 2.1 1.7 3.8 3.8 3.8h4c.8 4.5 2.5 8.4 4.9 11.9l-2.9 2.9c-1.4 1.4-1.4 4 0 5.4l1.6 1.6 55-55-1.6-1.6c-1.5-1.5-4-1.5-5.4 0z"/><path class="st5" d="M672.9 77.1c-9 0-16.7 5.9-19.3 14.1-5.1 1.1-9.2 4.7-11.1 9.5-6.9.2-12.3 5.9-12.3 12.7 0 6.9 5.5 12.5 12.3 12.7h30.6v-49h-.2z"/><path class="st6" d="M692.9 95c-1.2-10-9.6-17.7-19.9-17.8v49h19.3c8.3-.4 15-7.2 15-15.6.1-8.3-6.3-15-14.4-15.6z"/><path class="st5" d="M705.8 21.9c-9.1 0-16.8 6-19.6 14.2-5.1 1.1-9.4 4.8-11.2 9.5-6.9.3-12.5 5.9-12.5 12.9 0 6.9 5.5 12.6 12.5 12.9h31.1V21.9h-.3z"/><path class="st6" d="M726.3 40c-1.2-10-9.7-17.9-20.2-18v49.6h19.6c8.5-.3 15.1-7.2 15.1-15.7 0-8.4-6.4-15.2-14.5-15.9z"/><circle class="st4" cx="836" cy="75" r="75"/><circle class="st1" cx="840.6" cy="62.3" r="35.9"/><path class="st1" d="M811.2 29.6l-3.2 3.2c-1.7 1.7-1.7 4.5 0 6.2l3.1 3.1c2.5-3.7 5.7-6.8 9.4-9.4l-3.1-3.1c-1.8-1.7-4.6-1.7-6.2 0zm58.9 0c-1.7-1.7-4.5-1.7-6.2 0l-3.1 3.1c3.7 2.5 6.8 5.7 9.4 9.4l3.1-3.1c1.7-1.7 1.7-4.5 0-6.2l-3.2-3.2zM843 18.2h-4.6c-2.4 0-4.4 1.9-4.4 4.4v4.5c2.1-.4 4.4-.7 6.6-.7s4.5.2 6.6.7v-4.5c0-2.3-1.9-4.4-4.2-4.4zm-42 37.5c-2.4 0-4.4 1.9-4.4 4.4v4.5c0 2.4 1.9 4.4 4.4 4.4h4.5c-.3-2.1-.6-4.4-.6-6.6s.2-4.5.7-6.6H801zm69.2 26.8c-2.5 3.7-5.7 6.8-9.4 9.4l3.1 3.1c1.7 1.7 4.5 1.7 6.2 0l3.2-3.2c1.7-1.7 1.7-4.5 0-6.2l-3.1-3.1zm10.1-26.8h-4.5c.4 2.1.7 4.4.7 6.6s-.2 4.5-.7 6.6h4.5c2.4 0 4.4-1.9 4.4-4.4v-4.6c0-2.3-2-4.2-4.4-4.2zM811 82.5l-3.1 3.1c-1.7 1.7-1.7 4.5 0 6.2l3.2 3.2c1.7 1.7 4.5 1.7 6.2 0l3.1-3.1c-3.6-2.6-6.8-5.7-9.4-9.4zm23 15v4.5c0 2.4 1.9 4.4 4.4 4.4h4.6c2.4 0 4.4-1.9 4.4-4.4v-4.5c-2.1.4-4.4.7-6.6.7-2.4-.1-4.7-.4-6.8-.7z"/><path class="st2" d="M834 25.2v1.9c2.1-.4 4.4-.7 6.6-.7s4.5.2 6.6.7v-1.9c-2.1-.3-4.4-.7-6.6-.7-2.2.1-4.5.4-6.6.7zm36.2 16.9l1.3-1.3c-2.6-3.7-5.7-6.8-9.4-9.4l-1.3 1.3c3.7 2.6 6.9 5.7 9.4 9.4zm-66.6 13.6c-.4 2.1-.7 4.4-.7 6.6s.2 4.5.7 6.6h1.8c-.3-2.1-.6-4.4-.6-6.6s.2-4.5.7-6.6h-1.9zm57.2 36.2l1.3 1.3c3.7-2.6 6.8-5.7 9.4-9.4l-1.3-1.3c-2.5 3.7-5.7 6.8-9.4 9.4zm16.9-36.2h-1.9c.4 2.1.7 4.4.7 6.6s-.2 4.5-.7 6.6h1.9c.3-2.1.6-4.4.6-6.6s-.2-4.5-.6-6.6zM834 97.5v1.8c2.1.3 4.4.7 6.6.7s4.5-.2 6.6-.7v-1.9c-2.1.4-4.4.7-6.6.7-2.2 0-4.5-.3-6.6-.6zm-23-15l-1.3 1.3c2.6 3.7 5.7 6.8 9.4 9.4l1.3-1.3c-3.6-2.6-6.8-5.7-9.4-9.4zm-1.2-41.7l1.2 1.3c2.5-3.7 5.7-6.8 9.4-9.4l-1.3-1.3c-3.6 2.5-6.8 5.7-9.3 9.4z"/><path class="st3" d="M864 29.6l-3.1 3.1c-4-2.7-8.6-4.7-13.6-5.6v-4.5c0-2.4-1.9-4.4-4.4-4.4h-4.6c-2.4 0-4.4 1.9-4.4 4.4v4.5c-4.9.9-9.5 2.9-13.6 5.6l-3.1-3.1c-1.7-1.7-4.5-1.7-6.2 0l-3.2 3.2c-1.7 1.7-1.7 4.5 0 6.2l3.1 3.1c-2.7 4-4.7 8.6-5.6 13.6H801c-2.4 0-4.4 1.9-4.4 4.4v4.5c0 2.4 1.9 4.4 4.4 4.4h4.5c.9 4.9 2.9 9.5 5.6 13.6l-3.1 3.1c-1.7 1.7-1.7 4.5 0 6.2l1.9 1.9L872 31.5l-1.9-1.9c-1.7-1.7-4.4-1.7-6.1 0z"/><path class="st5" d="M824.5 69.1c-9 0-16.6 5.9-19.2 14-5.1 1.2-9.2 4.7-11.1 9.4-6.8.3-12.3 5.9-12.3 12.7 0 6.9 5.5 12.5 12.3 12.8h30.6V69.1h-.3z"/><path class="st6" d="M844.7 86.9c-1.2-9.9-9.6-17.6-19.9-17.7V118h19.3c8.2-.4 14.9-7.2 14.9-15.5s-6.4-14.9-14.3-15.6z"/><circle class="st4" cx="988" cy="75" r="75"/><path class="st5" d="M994.2 23.3c-13.2 0-24.3 8.6-28.3 20.6-7.5 1.6-13.5 6.9-16.2 13.8-10 .4-18.1 8.6-18.1 18.7s8 18.3 17.9 18.7h44.9V23.3h-.2z"/><path class="st6" d="M1023.6 49.3c-1.7-14.6-14.1-25.9-29.2-26v71.6h28.3c12.2-.5 21.8-10.5 21.8-22.8.2-11.9-9-21.8-20.9-22.8z"/><path class="st7" d="M993.6 119.9l-2.2-1.2 1.9-.5c.1 0 .1-.1.1-.2l-.4-1.1c0-.1-.1-.1-.2-.1l-3.5.9-2.6-1.6 2.9-1.6 3.5.9c.1 0 .2 0 .2-.1l.4-1.1c0-.1 0-.2-.1-.2l-1.9-.5 2.2-1.2c.1 0 .1-.1.1-.2l-.6-1c0-.1-.1-.1-.2-.1l-2.2 1.2.5-1.9c0-.1 0-.2-.1-.2l-1.1-.2c-.1 0-.2 0-.2.1l-1.1 3-2.9 1.6v-3.1l2.5-2.5c.1-.1.1-.2 0-.2l-.9-.9c-.1-.1-.2-.1-.2 0l-1.4 1.4v-2.7c0-.1-.1-.2-.2-.2h-1.2c-.1 0-.2.1-.2.2v2.7l-1.4-1.4c-.1-.1-.2-.1-.2 0l-.9.9c-.1.1-.1.2 0 .2l2.5 2.5v3.1l-2.9-1.7-.9-3.5c0-.1-.1-.1-.2-.1l-1.1.4c-.1 0-.1.1-.1.2l.5 1.9-2.4-1.4c-.1 0-.2 0-.2.1l-.6 1c0 .1 0 .2.1.2l2.4 1.4-1.9.5c-.1 0-.1.1-.1.2l.4 1.1c0 .1.1.1.2.1l3.5-.9 2.7 1.5-2.7 1.5-3.5-.9c-.1 0-.2 0-.2.1l-.4 1.1c0 .1 0 .2.1.2l1.9.5-2.4 1.5c-.1 0-.1.1-.1.2l.6 1c0 .1.1.1.2.1l2.4-1.4-.5 1.9c0 .1 0 .2.1.2l1.1.2c.1 0 .2 0 .2-.1l.9-3.5 2.7-1.5v3.2l-2.5 2.5c-.1.1-.1.2 0 .2l.9.9c.1.1.2.1.2 0l1.4-1.4v2.6c0 .1.1.2.2.2h1.2c.1 0 .2-.1.2-.2v-2.6l1.4 1.4c.1.1.2.1.2 0l.9-.9c.1-.1.1-.2 0-.2l-2.5-2.5v-3.2l2.9 1.6.9 3.5c0 .1.1.1.2.1l1.1-.2c.1 0 .1-.1.1-.2l-.5-1.9 2.2 1.2c.1 0 .2 0 .2-.1l.6-1c.1.4.1.3 0 .2zm-19.7-15.2l-4.4-2.5 3.7-1c.2 0 .4-.2.2-.5l-.6-2.2c0-.2-.2-.4-.5-.2l-6.9 1.9-5.6-3.2 5.6-3.2 6.9 1.9c.2 0 .4-.1.5-.2l.6-2.2c0-.2-.1-.4-.2-.5l-3.7-1 4.4-2.5c.1-.1.2-.4.1-.5l-1.2-2.2c0-.2-.2-.2-.5-.1l-4.4 2.5 1-3.7c0-.2-.1-.4-.2-.5l-2.2-.6c-.2 0-.4.1-.5.2l-1.9 6.9-5.6 3.2V88l5-5c.1-.1.1-.4 0-.5l-1.6-1.6c-.1-.1-.4-.1-.5 0l-2.7 2.6v-5.4c0-.2-.1-.4-.4-.4h-2.4c-.2 0-.4.1-.4.4v5.4l-2.7-2.7c-.1-.1-.4-.1-.5 0l-1.6 1.6c-.1.1-.1.4 0 .5l5 5V94l-5.4-3-1.9-6.9c0-.2-.2-.4-.5-.2l-2.2.6c-.2 0-.4.2-.2.5l1 3.7-4.6-2.6c-.1-.1-.4 0-.5.1l-1.1 2c-.1.1 0 .4.1.5l4.6 2.6-3.7 1c-.2 0-.4.2-.2.5l.6 2.2c0 .2.2.4.5.2l6.9-1.9 5.2 3.1-5.2 3.1-6.9-1.9c-.2 0-.4.1-.5.2l-.6 2.2c0 .2.1.4.2.5l3.7 1-4.6 2.9c-.1.1-.2.4-.1.5l1.1 2c.1.1.4.2.5.1l4.6-2.6-1 3.7c0 .2.1.4.2.5l2.2.6c.2 0 .4-.1.5-.2l1.9-6.9 5.2-3.1v6.4l-5 5c-.1.1-.1.4 0 .5l1.6 1.6c.1.1.4.1.5 0l2.7-2.7v5c0 .2.1.4.4.4h2.4c.2 0 .4-.1.4-.4v-5l2.7 2.7c.1.1.4.1.5 0l1.6-1.6c.1-.1.1-.4 0-.5l-5-5V99l5.6 3.2 1.9 6.9c0 .2.2.4.5.2l2.2-.6c.2 0 .4-.2.2-.5l-1-3.7 4.4 2.5c.1.1.4 0 .5-.1l1.1-2c.5 0 .3-.2.2-.2z"/><path class="st9" d="M965.8 84.6l-2.1-2.1c.1.1.1.2 0 .4l-5 5V94l5.6-3.2 1.5-6.2zm-20 9.8c1.2.4 2.6.5 3.9.6h1.2l-2.4-1.4-2.7.8zm4.5-3.5l5.2 3.1v-2.7l-7.1-7.1 1.9 6.7zm8.3-7.4l2.7-2.7-2.7-2.7v5.4zm23 11.4l-8.8-8.7 1.1 2c.1.1 0 .4-.1.5l-4.4 2.5 3.7 1c.2 0 .4.2.2.5l-.6 2.2h8.9zm-10.4-8.2l-2.2-2.2c.1.1.1.2.1.4l-1 3.7 3.1-1.9zm-8.1 8.2h8.2l-5.6-1.5-2.6 1.5z"/><path class="st7" d="M1031.9 104.7l-4.4-2.5 3.7-1c.2 0 .4-.2.2-.5l-.6-2.2c0-.2-.2-.4-.5-.2l-6.9 1.9-5.6-3.2 5.6-3.2 6.9 1.9c.2 0 .4-.1.5-.2l.6-2.2c0-.2-.1-.4-.2-.5l-3.7-1 4.4-2.5c.1-.1.2-.4.1-.5l-1.1-2c-.1-.1-.4-.2-.5-.1l-4.4 2.5 1-3.7c0-.2-.1-.4-.2-.5l-2.2-.6c-.2 0-.4.1-.5.2l-1.9 6.9-5.6 3.2v-6.1l5-5c.1-.1.1-.4 0-.5l-1.6-1.6c-.1-.1-.4-.1-.5 0l-2.9 2.4v-5.4c0-.2-.1-.4-.4-.4h-2.4c-.2 0-.4.1-.4.4v5.4l-2.7-2.7c-.1-.1-.4-.1-.5 0l-1.6 1.6c-.1.1-.1.4 0 .5l5 5v6.1l-5.4-3-1.9-6.9c0-.2-.2-.4-.5-.2l-2.2.6c-.2 0-.4.2-.2.5l1 3.7-4.6-2.6c-.1-.1-.4 0-.5.1l-1.1 2c-.1.1 0 .4.1.5l4.6 2.6-3.7 1c-.2 0-.4.2-.2.5l.6 2.2c0 .2.2.4.5.2l6.9-1.9 5.2 3.1-5.2 3.1-6.9-1.9c-.2 0-.4.1-.5.2l-.6 2.2c0 .2.1.4.2.5l3.7 1-4.6 2.9c-.1.1-.2.4-.1.5l1.1 2c.1.1.4.2.5.1l4.6-2.6-1 3.7c0 .2.1.4.2.5l2.2.6c.2 0 .4-.1.5-.2l1.9-6.9 5.2-3.1v6.4l-5 5c-.1.1-.1.4 0 .5l1.6 1.6c.1.1.4.1.5 0l2.7-2.7v5c0 .2.1.4.4.4h2.4c.2 0 .4-.1.4-.4v-5l2.7 2.7c.1.1.4.1.5 0l1.6-1.6c.1-.1.1-.4 0-.5l-5-5v-6.4l5.6 3.2 1.9 6.9c0 .2.2.4.5.2l2.2-.6c.2 0 .4-.2.2-.5l-1-3.7 4.4 2.5c.1.1.4 0 .5-.1l1.1-2c.5-.4.4-.6.3-.6z"/><path class="st9" d="M1021 94.9h1.7c.7 0 1.4-.1 2.1-.2.6-.1 1.4-.2 2-.4l-3.2-.9-2.6 1.5zm8.1-8.2l-2.2-2.2c.1.1.1.2.1.4l-1 3.7 3.1-1.9zm-5.3-2.1l-2.1-2.1v.2c0 .1 0 .1-.1.2l-5 5V94l5.6-3.2 1.6-6.2zm-22.3 10.3h7.5l-2.4-1.4-5.1 1.4zm29.4-8.7l1.1 2c.1.1 0 .4-.1.5l-4.4 2.5 3.7 1c.2 0 .4.2.2.5.6-.2 1.2-.6 1.9-1 .6-.4 1.2-.7 1.7-1.1l-4.1-4.4zm-14.4-2.7l2.7-2.7-2.7-2.7v5.4zm-8.3 7.4l5.2 3.1v-2.7l-7.1-7.1 1.9 6.7z"/><circle class="st4" cx="1140" cy="75" r="75"/><path class="st5" d="M1146.2 27c-13.2 0-24.3 8.6-28.3 20.6-7.5 1.6-13.5 6.9-16.2 13.8-10 .4-18.1 8.6-18.1 18.7s8 18.3 17.9 18.7h44.9V27h-.2z"/><path class="st6" d="M1175.6 53.1c-1.7-14.6-14.1-25.9-29.2-26v71.6h28.3c12.2-.5 21.8-10.5 21.8-22.8.2-12-9-21.8-20.9-22.8z"/><path class="st7" d="M1122.2 84.3l-18.1 4.9-1.6.5c-1.7.6-3.5 1.6-4.9 3-4.9 4.9-4.9 12.7 0 17.6l25.7-25.7c-.2-.3-.6-.4-1.1-.3z"/><path class="st8" d="M1118.2 105.4l.4-1.5 5-18.1c.1-.5 0-1-.2-1.2l-25.7 25.7c4.9 4.9 12.7 4.9 17.6 0 1.4-1.4 2.4-3.2 2.9-4.9z"/><path class="st7" d="M1179.6 88.1l-18.1 4.9-1.5.5c-1.7.6-3.5 1.6-4.9 3-4.9 4.9-4.9 12.7 0 17.6l25.7-25.7c-.3-.3-.7-.4-1.2-.3z"/><path class="st8" d="M1175.8 109.1l.4-1.5 4.9-18.1c.1-.5 0-1-.2-1.2l-25.7 25.7c4.9 4.9 12.7 4.9 17.6 0 1.3-1.4 2.3-3.1 3-4.9z"/><path class="st7" d="M1140.9 104.7l-11 3-.9.2c-1.1.4-2.1 1-3 1.9-3 3-3 7.7 0 10.7l15.6-15.6c-.2-.4-.5-.4-.7-.2z"/><path class="st8" d="M1138.5 117.4l.2-1 3-11c.1-.4 0-.6-.1-.7l-15.7 15.7c3 3 7.7 3 10.7 0 .9-.9 1.5-1.9 1.9-3z"/><path class="st9" d="M1123.6 85.8l-3.5 13h17.4l-14.2-14.2c.3.2.4.6.3 1.2zm57.4 3.8l-2.4 8.6c3-.6 5.9-1.9 8.3-3.6l-6.2-6.2c.3.2.4.6.3 1.2z"/><circle class="st4" cx="1292" cy="75" r="75"/><path class="st5" d="M1298.2 15.8c-13.2 0-24.3 8.6-28.3 20.6-7.5 1.6-13.5 6.9-16.2 13.8-10 .4-18.1 8.6-18.1 18.7s8 18.3 17.9 18.7h44.9V15.8h-.2z"/><path class="st6" d="M1327.6 41.9c-1.7-14.6-14.1-25.9-29.2-26v71.6h28.3c12.2-.5 21.8-10.5 21.8-22.8.2-12-9-21.8-20.9-22.8z"/><path class="st1" d="M1302.1 87.5h-20.4l-9 22.6h14.4l-8.8 24 28.5-32.2h-14.3z"/><path class="st2" d="M1302.1 87.5h-20.4v.1l12.2 12.2z"/><circle class="st4" cx="1444" cy="75" r="75"/><path class="st5" d="M1450.2 28.3c-13.2 0-24.3 8.6-28.3 20.6-7.5 1.6-13.5 6.9-16.2 13.8-10 .4-18.1 8.6-18.1 18.7s8 18.3 17.9 18.7h44.9V28.3h-.2z"/><path class="st6" d="M1479.6 54.3c-1.7-14.6-14.1-25.9-29.2-26v71.6h28.3c12.2-.5 21.8-10.5 21.8-22.8.2-11.9-9-21.8-20.9-22.8z"/><path class="st7" d="M1483.6 89.3l-18.1 4.9-1.5.5c-1.7.6-3.5 1.6-4.9 3-4.9 4.9-4.9 12.7 0 17.6l25.7-25.7c-.3-.3-.7-.4-1.2-.3z"/><path class="st8" d="M1479.8 110.4l.4-1.5 4.9-18.1c.1-.5 0-1-.2-1.2l-25.7 25.7c4.9 4.9 12.7 4.9 17.6 0 1.3-1.4 2.3-3.2 3-4.9z"/><path class="st9" d="M1485 90.8l-2.4 8.6c3-.6 5.9-1.9 8.3-3.6l-6.2-6.2c.3.2.4.6.3 1.2z"/><path class="st7" d="M1429.5 109.6l-4.4-2.5 3.7-1c.2 0 .4-.2.2-.5l-.6-2.2c0-.2-.2-.4-.5-.2l-6.7 1.7-5.6-3.2 5.6-3.2 6.9 1.9c.2 0 .4-.1.5-.2l.6-2.2c0-.2-.1-.4-.2-.5l-3.7-1 4.4-2.5c.1-.1.2-.4.1-.5l-1.1-2c-.1-.1-.4-.2-.5-.1l-4.4 2.5 1-3.7c0-.2-.1-.4-.2-.5l-2.2-.6c-.2 0-.4.1-.5.2l-1.9 6.9-5.5 3.2v-6.1l5-5c.1-.1.1-.4 0-.5l-1.9-1.9c-.1-.1-.4-.1-.5 0l-2.9 2.7v-5.4c0-.2-.1-.4-.4-.4h-2.4c-.2 0-.4.1-.4.4v5.4l-2.7-2.7c-.1-.1-.4-.1-.5 0l-1.6 1.6c-.1.1-.1.4 0 .5l5 5v6.1l-5.4-3-1.9-6.9c0-.2-.2-.4-.5-.2l-2.2.6c-.2 0-.4.2-.2.5l1 3.7-4.6-2.6c-.1-.1-.4 0-.5.1l-1.1 2c-.1.1 0 .4.1.5l4.6 2.6-3.7 1c-.2 0-.4.2-.2.5l.6 2.2c0 .2.2.4.5.2l6.9-1.9 5.2 3.1-5.2 3.1-6.9-1.9c-.2 0-.4.1-.5.2l-.7 2.4c0 .2.1.4.2.5l3.7 1-4.5 2.7c-.1.1-.2.4-.1.5l1.1 2c.1.1.4.2.5.1l4.6-2.6-1 3.7c0 .2.1.4.2.5l2.2.6c.2 0 .4-.1.5-.2l1.9-6.9 5.2-3.1v6.4l-5 5c-.1.1-.1.4 0 .5l1.6 1.6c.1.1.4.1.5 0l2.7-2.7v5c0 .2.1.4.4.4h2.5c.2 0 .4-.1.4-.4v-5l2.7 2.7c.1.1.4.1.5 0l1.6-1.6c.1-.1.1-.4 0-.5l-5-5v-6.4l5.5 3.2 1.9 6.9c0 .2.2.4.5.2l2.2-.6c.2 0 .4-.2.2-.5l-1-3.7 4.4 2.5c.1.1.4 0 .5-.1l1.1-2c.6-.1.5-.4.3-.4z"/><path class="st9" d="M1421.5 89.6l-2.1-2.1c.1.1.1.2 0 .4l-5 5V99l5.5-3.2 1.6-6.2zm-20.1 9.8c1.2.4 2.6.5 3.9.6h1.2l-2.4-1.4-2.7.8zm4.5-3.5l5.2 3.1v-2.7l-7.1-7.1 1.9 6.7zm8.3-7.4l2.7-2.7-2.7-2.7v5.4zm23.1 11.4l-8.8-8.8 1.1 2c.1.1 0 .4-.1.5l-4.4 2.5 3.7 1c.2 0 .4.2.2.5l-.6 2.2h8.8v.1zm-10.5-8.2l-2.2-2.2c.1.1.1.2.1.4l-1 3.7 3.1-1.9zm-8.1 8.2h8.2l-5.6-1.5-2.6 1.5z"/><path class="st10" d="M1426.4 77.8c0-3.3 1-6.5 3.1-9.9 2.1-3.3 5.1-6.1 9.1-8.3 4-2.2 8.7-3.3 14-3.3 5 0 9.3.9 13.1 2.7 3.8 1.8 6.7 4.3 8.8 7.5 2.1 3.1 3.1 6.6 3.1 10.3 0 2.9-.6 5.5-1.8 7.6-1.2 2.2-2.6 4.1-4.2 5.7-1.6 1.6-4.5 4.3-8.8 8-1.2 1.1-2.1 2-2.8 2.8-.7.8-1.2 1.5-1.6 2.2-.3.7-.6 1.3-.8 2-.2.7-.5 1.8-.8 3.5-.7 3.6-2.7 5.3-6.1 5.3-1.8 0-3.3-.6-4.5-1.7-1.2-1.2-1.8-2.9-1.8-5.2 0-2.9.4-5.4 1.3-7.5.9-2.1 2.1-4 3.5-5.5 1.5-1.6 3.5-3.5 6-5.7 2.2-1.9 3.8-3.4 4.7-4.3 1-1 1.8-2.1 2.5-3.3.7-1.2 1-2.5 1-3.9 0-2.7-1-5-3.1-6.9-2-1.9-4.7-2.8-7.9-2.8-3.8 0-6.5.9-8.3 2.8-1.8 1.9-3.3 4.7-4.5 8.4-1.2 3.9-3.4 5.8-6.6 5.8-1.9 0-3.5-.7-4.9-2-1.1-1.3-1.7-2.7-1.7-4.3zm25 56.3c-2.1 0-3.9-.7-5.5-2-1.6-1.4-2.3-3.2-2.3-5.7 0-2.2.8-4 2.3-5.4 1.5-1.5 3.4-2.2 5.5-2.2 2.2 0 4 .7 5.4 2.2 1.5 1.5 2.2 3.3 2.2 5.4 0 2.4-.8 4.3-2.3 5.6-1.5 1.4-3.3 2.1-5.3 2.1z"/><circle class="st4" cx="1596" cy="75" r="75"/><path class="st5" d="M1602.2 27c-13.2 0-24.3 8.6-28.3 20.6-7.5 1.6-13.5 6.9-16.2 13.8-10 .4-18.1 8.6-18.1 18.7s8 18.3 17.9 18.7h44.9V27h-.2z"/><path class="st6" d="M1631.6 53.1c-1.7-14.6-14.1-25.9-29.2-26v71.6h28.3c12.2-.5 21.8-10.5 21.8-22.8.2-12-9-21.8-20.9-22.8z"/><path class="st7" d="M1578.2 84.3l-18.1 4.9-1.6.5c-1.7.6-3.5 1.6-4.9 3-4.9 4.9-4.9 12.7 0 17.6l25.7-25.7c-.2-.3-.6-.4-1.1-.3z"/><path class="st8" d="M1574.2 105.4l.4-1.5 5-18.1c.1-.5 0-1-.2-1.2l-25.7 25.7c4.9 4.9 12.7 4.9 17.6 0 1.4-1.4 2.4-3.2 2.9-4.9z"/><path class="st7" d="M1635.6 88.1l-18.1 4.9-1.5.5c-1.7.6-3.5 1.6-4.9 3-4.9 4.9-4.9 12.7 0 17.6l25.7-25.7c-.3-.3-.7-.4-1.2-.3z"/><path class="st8" d="M1631.8 109.1l.4-1.5 4.9-18.1c.1-.5 0-1-.2-1.2l-25.7 25.7c4.9 4.9 12.7 4.9 17.6 0 1.3-1.4 2.3-3.1 3-4.9z"/><path class="st7" d="M1596.9 104.7l-11 3-.9.2c-1.1.4-2.1 1-3 1.9-3 3-3 7.7 0 10.7l15.6-15.6c-.2-.4-.5-.4-.7-.2z"/><path class="st8" d="M1594.5 117.4l.2-1 3-11c.1-.4 0-.6-.1-.7l-15.7 15.7c3 3 7.7 3 10.7 0 .9-.9 1.5-1.9 1.9-3z"/><path class="st9" d="M1579.6 85.8l-3.5 13h17.4l-14.2-14.2c.3.2.4.6.3 1.2zm57.4 3.8l-2.4 8.6c3-.6 5.9-1.9 8.3-3.6l-6.2-6.2c.3.2.4.6.3 1.2z"/><circle class="st4" cx="1748" cy="75" r="75"/><path class="st5" d="M1754.2 23.3c-13.2 0-24.3 8.6-28.3 20.6-7.5 1.6-13.5 6.9-16.2 13.8-10 .4-18.1 8.6-18.1 18.7s8 18.3 17.9 18.7h44.9V23.3h-.2z"/><path class="st6" d="M1783.6 49.3c-1.7-14.6-14.1-25.9-29.2-26v71.6h28.3c12.2-.5 21.8-10.5 21.8-22.8.2-11.9-9-21.8-20.9-22.8z"/><path class="st7" d="M1753.6 119.9l-2.2-1.2 1.9-.5c.1 0 .1-.1.1-.2l-.4-1.1c0-.1-.1-.1-.2-.1l-3.5.9-2.6-1.6 2.9-1.6 3.5.9c.1 0 .2 0 .2-.1l.4-1.1c0-.1 0-.2-.1-.2l-1.9-.5 2.2-1.2c.1 0 .1-.1.1-.2l-.6-1c0-.1-.1-.1-.2-.1l-2.2 1.2.5-1.9c0-.1 0-.2-.1-.2l-1.1-.2c-.1 0-.2 0-.2.1l-.9 3.5-2.9 1.6V112l2.5-2.5c.1-.1.1-.2 0-.2l-.9-.9c-.1-.1-.2-.1-.2 0l-1.4 1.4v-2.7c0-.1-.1-.2-.2-.2h-1.2c-.1 0-.2.1-.2.2v2.7l-1.4-1.4c-.1-.1-.2-.1-.2 0l-.9.9c-.1.1-.1.2 0 .2l2.5 2.5v3.1l-2.9-1.7-.9-3.5c0-.1-.1-.1-.2-.1l-1.1.4c-.1 0-.1.1-.1.2l.5 1.9-2.4-1.4c-.1 0-.2 0-.2.1l-.6 1c0 .1 0 .2.1.2l2.4 1.4-1.9.5c-.1 0-.1.1-.1.2l.4 1.1c0 .1.1.1.2.1l3.5-.9 2.7 1.5-2.7 1.5-3.5-.9c-.1 0-.2 0-.2.1l-.4 1.1c0 .1 0 .2.1.2l1.9.5-2.4 1.5c-.1 0-.1.1-.1.2l.6 1c0 .1.1.1.2.1l2.4-1.4-.5 1.9c0 .1 0 .2.1.2l1.1.2c.1 0 .2 0 .2-.1l.9-3.5 2.7-1.5v3.2l-2.5 2.5c-.1.1-.1.2 0 .2l.9.9c.1.1.2.1.2 0l1.4-1.4v2.6c0 .1.1.2.2.2h1.2c.1 0 .2-.1.2-.2v-2.6l1.4 1.4c.1.1.2.1.2 0l.9-.9c.1-.1.1-.2 0-.2l-2.5-2.5v-3.2l2.9 1.6.9 3.5c0 .1.1.1.2.1l1.1-.2c.1 0 .1-.1.1-.2l-.5-1.9 2.2 1.2c.1 0 .2 0 .2-.1l.6-1c-.1-.1-.1-.2-.2-.3zm-19.7-15.2l-4.4-2.5 3.7-1c.2 0 .4-.2.2-.5l-.6-2.2c0-.2-.2-.4-.5-.2l-6.9 1.9-5.6-3.2 5.6-3.2 6.9 1.9c.2 0 .4-.1.5-.2l.6-2.2c0-.2-.1-.4-.2-.5l-3.7-1 4.4-2.5c.1-.1.2-.4.1-.5l-1.2-2.2c0-.2-.2-.2-.5-.1l-4.4 2.5 1-3.7c0-.2-.1-.4-.2-.5l-2.2-.6c-.2 0-.4.1-.5.2l-1.9 6.9-5.6 3.2V88l5-5c.1-.1.1-.4 0-.5l-1.6-1.6c-.1-.1-.4-.1-.5 0l-2.7 2.6v-5.4c0-.2-.1-.4-.4-.4h-2.4c-.2 0-.4.1-.4.4v5.4l-2.7-2.7c-.1-.1-.4-.1-.5 0l-1.6 1.6c-.1.1-.1.4 0 .5l5 5V94l-5.4-3-1.9-6.9c0-.2-.2-.4-.5-.2l-2.2.6c-.2 0-.4.2-.2.5l1 3.7-4.6-2.6c-.1-.1-.4 0-.5.1l-1.1 2c-.1.1 0 .4.1.5l4.6 2.6-3.7 1c-.2 0-.4.2-.2.5l.6 2.2c0 .2.2.4.5.2l6.9-1.9 5.2 3.1-5.2 3.1-6.9-1.9c-.2 0-.4.1-.5.2l-.6 2.2c0 .2.1.4.2.5l3.7 1-4.6 2.9c-.1.1-.2.4-.1.5l1.1 2c.1.1.4.2.5.1l4.6-2.6-1 3.7c0 .2.1.4.2.5l2.2.6c.2 0 .4-.1.5-.2l1.9-6.9 5.2-3.1v6.4l-5 5c-.1.1-.1.4 0 .5l1.6 1.6c.1.1.4.1.5 0l2.7-2.7v5c0 .2.1.4.4.4h2.4c.2 0 .4-.1.4-.4v-5l2.7 2.7c.1.1.4.1.5 0l1.6-1.6c.1-.1.1-.4 0-.5l-5-5V99l5.6 3.2 1.9 6.9c0 .2.2.4.5.2l2.2-.6c.2 0 .4-.2.2-.5l-1-3.7 4.4 2.5c.1.1.4 0 .5-.1l1.1-2c.5 0 .3-.2.2-.2z"/><path class="st9" d="M1725.8 84.6l-2.1-2.1c.1.1.1.2 0 .4l-5 5V94l5.6-3.2 1.5-6.2zm-20 9.8c1.2.4 2.6.5 3.9.6h1.2l-2.4-1.4-2.7.8zm4.5-3.5l5.2 3.1v-2.7l-7.1-7.1 1.9 6.7zm8.3-7.4l2.7-2.7-2.7-2.7v5.4zm23 11.4l-8.8-8.7 1.1 2c.1.1 0 .4-.1.5l-4.4 2.5 3.7 1c.2 0 .4.2.2.5l-.6 2.2h8.9zm-10.4-8.2l-2.2-2.2c.1.1.1.2.1.4l-1 3.7 3.1-1.9zm-8.1 8.2h8.2l-5.6-1.5-2.6 1.5z"/><path class="st7" d="M1791.9 104.7l-4.4-2.5 3.7-1c.2 0 .4-.2.2-.5l-.6-2.2c0-.2-.2-.4-.5-.2l-6.9 1.9-5.6-3.2 5.6-3.2 6.9 1.9c.2 0 .4-.1.5-.2l.6-2.2c0-.2-.1-.4-.2-.5l-3.7-1 4.4-2.5c.1-.1.2-.4.1-.5l-1.1-2c-.1-.1-.4-.2-.5-.1l-4.4 2.5 1-3.7c0-.2-.1-.4-.2-.5l-2.2-.6c-.2 0-.4.1-.5.2l-1.9 6.9-5.6 3.2v-6.1l5-5c.1-.1.1-.4 0-.5l-1.6-1.6c-.1-.1-.4-.1-.5 0l-2.9 2.4v-5.4c0-.2-.1-.4-.4-.4h-2.4c-.2 0-.4.1-.4.4v5.4l-2.7-2.7c-.1-.1-.4-.1-.5 0l-1.6 1.6c-.1.1-.1.4 0 .5l5 5v6.1l-5.4-3-1.9-6.9c0-.2-.2-.4-.5-.2l-2.2.6c-.2 0-.4.2-.2.5l1 3.7-4.6-2.6c-.1-.1-.4 0-.5.1l-1.1 2c-.1.1 0 .4.1.5l4.6 2.6-3.7 1c-.2 0-.4.2-.2.5l.6 2.2c0 .2.2.4.5.2l6.9-1.9 5.2 3.1-5.2 3.1-6.9-1.9c-.2 0-.4.1-.5.2l-.6 2.2c0 .2.1.4.2.5l3.7 1-4.6 2.9c-.1.1-.2.4-.1.5l1.1 2c.1.1.4.2.5.1l4.6-2.6-1 3.7c0 .2.1.4.2.5l2.2.6c.2 0 .4-.1.5-.2l1.9-6.9 5.2-3.1v6.4l-5 5c-.1.1-.1.4 0 .5l1.6 1.6c.1.1.4.1.5 0l2.7-2.7v5c0 .2.1.4.4.4h2.4c.2 0 .4-.1.4-.4v-5l2.7 2.7c.1.1.4.1.5 0l1.6-1.6c.1-.1.1-.4 0-.5l-5-5v-6.4l5.6 3.2 1.9 6.9c0 .2.2.4.5.2l2.2-.6c.2 0 .4-.2.2-.5l-1-3.7 4.4 2.5c.1.1.4 0 .5-.1l1.1-2c.5-.4.4-.6.3-.6z"/><path class="st9" d="M1781 94.9h1.7c.7 0 1.4-.1 2.1-.2.6-.1 1.4-.2 2-.4l-3.2-.9-2.6 1.5zm8.1-8.2l-2.2-2.2c.1.1.1.2.1.4l-1 3.7 3.1-1.9zm-5.3-2.1l-2.1-2.1v.2c0 .1 0 .1-.1.2l-5 5V94l5.6-3.2 1.6-6.2zm-22.3 10.3h7.5l-2.4-1.4-5.1 1.4zm29.4-8.7l1.1 2c.1.1 0 .4-.1.5l-4.4 2.5 3.7 1c.2 0 .4.2.2.5.6-.2 1.2-.6 1.9-1 .6-.4 1.2-.7 1.7-1.1l-4.1-4.4zm-14.4-2.7l2.7-2.7-2.7-2.7v5.4zm-8.3 7.4l5.2 3.1v-2.7l-7.1-7.1 1.9 6.7z"/><path class="st10" d="M1736.4 77.8c0-3.3 1-6.5 3.1-9.9 2.1-3.3 5.1-6.1 9.1-8.3 4-2.2 8.7-3.3 14-3.3 5 0 9.3.9 13.1 2.7 3.8 1.8 6.7 4.3 8.8 7.5 2.1 3.1 3.1 6.6 3.1 10.3 0 2.9-.6 5.5-1.8 7.6-1.2 2.2-2.6 4.1-4.2 5.7-1.6 1.6-4.5 4.3-8.8 8-1.2 1.1-2.1 2-2.8 2.8-.7.8-1.2 1.5-1.6 2.2-.3.7-.6 1.3-.8 2-.2.7-.5 1.8-.8 3.5-.7 3.6-2.7 5.3-6.1 5.3-1.8 0-3.3-.6-4.5-1.7-1.2-1.2-1.8-2.9-1.8-5.2 0-2.9.4-5.4 1.3-7.5.9-2.1 2.1-4 3.5-5.5 1.5-1.6 3.5-3.5 6-5.7 2.2-1.9 3.8-3.4 4.7-4.3 1-1 1.8-2.1 2.5-3.3.7-1.2 1-2.5 1-3.9 0-2.7-1-5-3.1-6.9-2-1.9-4.7-2.8-7.9-2.8-3.8 0-6.5.9-8.3 2.8-1.8 1.9-3.3 4.7-4.5 8.4-1.2 3.9-3.4 5.8-6.6 5.8-1.9 0-3.5-.7-4.9-2-1.1-1.3-1.7-2.7-1.7-4.3zm25 56.3c-2.1 0-3.9-.7-5.5-2-1.6-1.4-2.3-3.2-2.3-5.7 0-2.2.8-4 2.3-5.4 1.5-1.5 3.4-2.2 5.5-2.2 2.2 0 4 .7 5.4 2.2 1.5 1.5 2.2 3.3 2.2 5.4 0 2.4-.8 4.3-2.3 5.6-1.5 1.4-3.3 2.1-5.3 2.1z"/><circle class="st4" cx="1900" cy="75" r="75"/><path class="st5" d="M1906.2 15.8c-13.2 0-24.3 8.6-28.3 20.6-7.5 1.6-13.5 6.9-16.2 13.8-10 .4-18.1 8.6-18.1 18.7s8 18.3 17.9 18.7h44.9V15.8h-.2z"/><path class="st6" d="M1935.6 41.9c-1.7-14.6-14.1-25.9-29.2-26v71.6h28.3c12.2-.5 21.8-10.5 21.8-22.8.2-12-9-21.8-20.9-22.8z"/><path class="st1" d="M1910.1 87.5h-20.4l-9 22.6h14.4l-8.8 24 28.5-32.2h-14.3z"/><path class="st2" d="M1910.1 87.5h-20.4v.1l12.2 12.2z"/><path class="st10" d="M1886.4 77.8c0-3.3 1-6.5 3.1-9.9 2.1-3.3 5.1-6.1 9.1-8.3 4-2.2 8.7-3.3 14-3.3 5 0 9.3.9 13.1 2.7 3.8 1.8 6.7 4.3 8.8 7.5 2.1 3.1 3.1 6.6 3.1 10.3 0 2.9-.6 5.5-1.8 7.6-1.2 2.2-2.6 4.1-4.2 5.7-1.6 1.6-4.5 4.3-8.8 8-1.2 1.1-2.1 2-2.8 2.8-.7.8-1.2 1.5-1.6 2.2-.3.7-.6 1.3-.8 2-.2.7-.5 1.8-.8 3.5-.7 3.6-2.7 5.3-6.1 5.3-1.8 0-3.3-.6-4.5-1.7-1.2-1.2-1.8-2.9-1.8-5.2 0-2.9.4-5.4 1.3-7.5.9-2.1 2.1-4 3.5-5.5 1.5-1.6 3.5-3.5 6-5.7 2.2-1.9 3.8-3.4 4.7-4.3 1-1 1.8-2.1 2.5-3.3.7-1.2 1-2.5 1-3.9 0-2.7-1-5-3.1-6.9-2-1.9-4.7-2.8-7.9-2.8-3.8 0-6.5.9-8.3 2.8-1.8 1.9-3.3 4.7-4.5 8.4-1.2 3.9-3.4 5.8-6.6 5.8-1.9 0-3.5-.7-4.9-2-1.1-1.3-1.7-2.7-1.7-4.3zm25 56.3c-2.1 0-3.9-.7-5.5-2-1.6-1.4-2.3-3.2-2.3-5.7 0-2.2.8-4 2.3-5.4 1.5-1.5 3.4-2.2 5.5-2.2 2.2 0 4 .7 5.4 2.2 1.5 1.5 2.2 3.3 2.2 5.4 0 2.4-.8 4.3-2.3 5.6-1.5 1.4-3.3 2.1-5.3 2.1z"/><circle class="st4" cx="2052" cy="75" r="75"/><path class="st11" d="M2019.3 57.3c0-4.2 1.4-8.5 4.1-12.8 2.7-4.3 6.7-7.9 11.9-10.8 5.2-2.8 11.3-4.3 18.2-4.3 6.4 0 12.1 1.2 17.1 3.6 4.9 2.4 8.7 5.6 11.4 9.7 2.7 4.1 4 8.5 4 13.3 0 3.8-.8 7.1-2.3 9.9-1.5 2.8-3.4 5.3-5.5 7.4-2.1 2.1-5.9 5.5-11.4 10.4-1.5 1.4-2.7 2.6-3.6 3.6-.9 1-1.6 2-2 2.9-.4.9-.8 1.7-1 2.6-.2.9-.6 2.4-1.1 4.6-.8 4.6-3.5 6.9-7.9 6.9-2.3 0-4.3-.8-5.8-2.3-1.6-1.5-2.4-3.8-2.4-6.7 0-3.7.6-7 1.7-9.7 1.2-2.7 2.7-5.1 4.6-7.2 1.9-2.1 4.5-4.5 7.7-7.4 2.8-2.5 4.9-4.4 6.2-5.6 1.3-1.3 2.3-2.7 3.2-4.2.9-1.6 1.3-3.2 1.3-5.1 0-3.6-1.3-6.6-4-9-2.6-2.4-6.1-3.7-10.2-3.7-4.9 0-8.5 1.2-10.8 3.7-2.3 2.5-4.3 6.1-5.9 10.9-1.5 5-4.4 7.5-8.6 7.5-2.5 0-4.6-.9-6.3-2.6-1.7-1.6-2.6-3.5-2.6-5.6zm32.5 73.1c-2.7 0-5.1-.9-7.1-2.6-2-1.8-3-4.2-3-7.4 0-2.8 1-5.2 2.9-7.1 2-1.9 4.4-2.9 7.2-2.9s5.2 1 7.1 2.9c1.9 1.9 2.9 4.3 2.9 7.1 0 3.1-1 5.6-3 7.3-2 1.8-4.3 2.7-7 2.7z"/><path class="st10" d="M1586.4 77.8c0-3.3 1-6.5 3.1-9.9 2.1-3.3 5.1-6.1 9.1-8.3 4-2.2 8.7-3.3 14-3.3 5 0 9.3.9 13.1 2.7 3.8 1.8 6.7 4.3 8.8 7.5 2.1 3.1 3.1 6.6 3.1 10.3 0 2.9-.6 5.5-1.8 7.6-1.2 2.2-2.6 4.1-4.2 5.7-1.6 1.6-4.5 4.3-8.8 8-1.2 1.1-2.1 2-2.8 2.8-.7.8-1.2 1.5-1.6 2.2-.3.7-.6 1.3-.8 2-.2.7-.5 1.8-.8 3.5-.7 3.6-2.7 5.3-6.1 5.3-1.8 0-3.3-.6-4.5-1.7-1.2-1.2-1.8-2.9-1.8-5.2 0-2.9.4-5.4 1.3-7.5.9-2.1 2.1-4 3.5-5.5 1.5-1.6 3.5-3.5 6-5.7 2.2-1.9 3.8-3.4 4.7-4.3 1-1 1.8-2.1 2.5-3.3.7-1.2 1-2.5 1-3.9 0-2.7-1-5-3.1-6.9-2-1.9-4.7-2.8-7.9-2.8-3.8 0-6.5.9-8.3 2.8-1.8 1.9-3.3 4.7-4.5 8.4-1.2 3.9-3.4 5.8-6.6 5.8-1.9 0-3.5-.7-4.9-2-1.1-1.3-1.7-2.7-1.7-4.3zm25 56.3c-2.1 0-3.9-.7-5.5-2-1.6-1.4-2.3-3.2-2.3-5.7 0-2.2.8-4 2.3-5.4 1.5-1.5 3.4-2.2 5.5-2.2 2.2 0 4 .7 5.4 2.2 1.5 1.5 2.2 3.3 2.2 5.4 0 2.4-.8 4.3-2.3 5.6-1.5 1.4-3.3 2.1-5.3 2.1z"/></svg>