<?xml version="1.0" encoding="utf-8"?>
<!-- Generator: Adobe Illustrator 20.1.0, SVG Export Plug-In . SVG Version: 6.00 Build 0)  -->
<svg version="1.1" id="Layer_1" xmlns="http://www.w3.org/2000/svg" xmlns:xlink="http://www.w3.org/1999/xlink" x="0px" y="0px" viewBox="0 0 20 20" style="enable-background:new 0 0 20 20;" xml:space="preserve">
    <style type="text/css">
        .st0 {
            fill: #FCFCFC;
        }
    </style>
    <g>
        <path
            class="st0"
            d="M11.8,10l1.8-1.8c0.2-0.2,0.2-0.6,0-0.9l-0.9-0.9c-0.2-0.2-0.6-0.2-0.9,0L10,8.2L8.2,6.5
		C8,6.2,7.6,6.2,7.4,6.5L6.5,7.3C6.2,7.6,6.2,8,6.5,8.2L8.2,10l-1.8,1.8c-0.2,0.2-0.2,0.6,0,0.9l0.9,0.9c0.2,0.2,0.6,0.2,0.9,0
		l1.8-1.8l1.8,1.8c0.2,0.2,0.6,0.2,0.9,0l0.9-0.9c0.2-0.2,0.2-0.6,0-0.9L11.8,10z M10,0C4.5,0,0,4.5,0,10s4.5,10,10,10s10-4.5,10-10
		S15.5,0,10,0z M10,18.1c-4.5,0-8.1-3.6-8.1-8.1S5.5,1.9,10,1.9s8.1,3.6,8.1,8.1S14.5,18.1,10,18.1z"/>
    </g>
</svg>