<svg id="Layer_1" xmlns="http://www.w3.org/2000/svg" viewBox="0 0 30 30"><style>.st0{fill-rule:evenodd;clip-rule:evenodd;fill:#e54e8c}</style><path class="st0" d="M15 0C6.7 0 0 6.7 0 15s6.7 15 15 15 15-6.7 15-15S23.3 0 15 0zm0 27.9C7.9 27.9 2.1 22.1 2.1 15S7.9 2.1 15 2.1c7.1 0 12.9 5.8 12.9 12.9S22.1 27.9 15 27.9z"/><path class="st0" d="M17.7 15.8c1 2.6 1.3 4.7 1.4 5.2 1.6-1.1 2.8-2.8 3.1-4.9-.3 0-2.3-.6-4.5-.3zm-1.5.4c-4.1 1.4-5.6 4.3-5.7 4.5 1.2 1 2.8 1.5 4.5 1.5 1 0 2-.2 2.8-.6-.1-.6-.5-2.8-1.6-5.4.1 0 .1 0 0 0zm-.7-1.1c.1 0 .2-.1.3-.1l-.6-1.2c-3.6 1.1-7.2 1-7.5 1v.2c0 1.9.7 3.6 1.9 4.9.2-.3 2.2-3.6 5.9-4.8zm-.9-2.5c-1.2-2.1-2.5-3.9-2.7-4.2-2 1-3.6 2.8-4 5.1.3 0 3.3 0 6.7-.9zm5.2-3c-1.3-1.1-3-1.8-4.8-1.8-.6 0-1.2.1-1.7.2.2.3 1.5 2.1 2.7 4.3 2.6-1.1 3.7-2.5 3.8-2.7zm-3.2 3.7c.2.3.3.7.5 1.1.1.1.1.3.2.4 2.4-.3 4.8.2 5.1.2 0-1.7-.6-3.3-1.6-4.5-.3.1-1.5 1.7-4.2 2.8z"/></svg>