<?xml version="1.0" encoding="utf-8"?>
<!-- Generator: Adobe Illustrator 20.1.0, SVG Export Plug-In . SVG Version: 6.00 Build 0)  -->
<svg version="1.1" id="Layer_1" xmlns="http://www.w3.org/2000/svg" xmlns:xlink="http://www.w3.org/1999/xlink" x="0px" y="0px"
	 width="139.9px" height="33.4px" viewBox="0 0 139.9 33.4" style="enable-background:new 0 0 139.9 33.4;" xml:space="preserve">
<style type="text/css">
	.st0{fill:#FFFFFF;}
	.st1{fill:#C91517;}
</style>
<g>
	<path class="st0" d="M0,0.2h17.8v4.7h-6.5v28.2H6.5V4.9H0V0.2z"/>
	<path class="st0" d="M27.7,0.2v23.3c0,3.5,1.4,5.2,5,5.2c3.7,0,5.2-1.7,5.2-5.2V0.2h4.7v23.3c0,7-3.9,9.8-9.9,9.8S23,30.5,23,23.5
		V0.2H27.7z"/>
	<path class="st0" d="M68.9,24.5c0,6.6-4.6,8.9-9.4,8.9c-9.4,0-10.6-7.6-10.6-16.7C48.8,7.6,50,0,59.4,0c4.9,0,9.4,2.3,9.4,8.9V11
		h-4.7V8.9c0-3-1.8-4.2-4.8-4.2c-5.3,0-5.9,4.7-5.9,12c0,7.3,0.7,12,5.9,12c2.9,0,4.7-1.4,4.7-4.2v-2.1h4.7V24.5z"/>
	<path class="st0" d="M75,0.2h4.7v14.3l9.5-14.3H95L84.1,16.6l10.8,16.5h-5.7L81.2,21l-1.5,2.2v9.9H75V0.2z"/>
	<path class="st0" d="M120.6,0.2h7.6c9.3,0,10.8,6.3,10.8,11.2c0,3.7-0.8,8.2-5.4,10.2l6.2,11.5h-5.3l-5.7-10.4h-3.5v10.4h-4.7V0.2z
		 M125.4,18h2.9c5.3-0.2,6-2.9,6-6.5c0-3.6-0.8-6.6-6-6.6h-2.9V18z"/>
</g>
<g>
	<rect x="99.7" y="0.2" class="st1" width="15.4" height="4.7"/>
</g>
<g>
	<rect x="99.7" y="15.1" class="st1" width="13.6" height="4.6"/>
</g>
<g>
	<rect x="99.7" y="28.5" class="st1" width="15.4" height="4.7"/>
</g>
</svg>
