<svg id="Layer_1" xmlns="http://www.w3.org/2000/svg" width="139.9" height="33.4" viewBox="0 0 139.9 33.4"><style>.st0{fill:#fff}.st1{fill:#c91517}</style><path class="st0" d="M0 .2h17.8v4.7h-6.5v28.2H6.5V4.9H0V.2zm27.7 0v23.3c0 3.5 1.4 5.2 5 5.2 3.7 0 5.2-1.7 5.2-5.2V.2h4.7v23.3c0 7-3.9 9.8-9.9 9.8S23 30.5 23 23.5V.2h4.7zm41.2 24.3c0 6.6-4.6 8.9-9.4 8.9-9.4 0-10.6-7.6-10.6-16.7C48.8 7.6 50 0 59.4 0c4.9 0 9.4 2.3 9.4 8.9V11h-4.7V8.9c0-3-1.8-4.2-4.8-4.2-5.3 0-5.9 4.7-5.9 12s.7 12 5.9 12c2.9 0 4.7-1.4 4.7-4.2v-2.1h4.7v2.1zM75 .2h4.7v14.3L89.2.2H95L84.1 16.6l10.8 16.5h-5.7l-8-12.1-1.5 2.2v9.9H75V.2zm45.6 0h7.6c9.3 0 10.8 6.3 10.8 11.2 0 3.7-.8 8.2-5.4 10.2l6.2 11.5h-5.3l-5.7-10.4h-3.5v10.4h-4.7V.2zm4.8 17.8h2.9c5.3-.2 6-2.9 6-6.5s-.8-6.6-6-6.6h-2.9V18z"/><path class="st1" d="M99.7.2h15.4v4.7H99.7zm0 14.9h13.6v4.6H99.7zm0 13.4h15.4v4.7H99.7z"/></svg>