<svg id="Layer_1" xmlns="http://www.w3.org/2000/svg" width="2450" height="116" viewBox="0 0 2450 116"><style>.st0{fill:#e35028}.st1{fill:#fff}.st2{fill:#ed6b42}.st3{fill:#343432}.st4{fill:#2864ad}.st5{fill:#397ec1}.st6{fill:#5e4588}.st7{fill:#4c4b4b}.st8{fill:#fbfcfd}.st9{fill:#c73089}.st10{fill:#47a2db}.st11{fill:#fdfdfd}.st12{fill:#efda4e}.st13{fill:#0c6baf}.st14{fill:#f7a933}.st15{fill:#85b8e4}.st16{fill:#cc689a}.st17{fill:#020203}.st18{fill:#699f63}.st19{fill:#ea5235}.st20{fill:#da4748}.st21{fill:#5eb57d}.st22{fill:none;stroke:#5eb57d;stroke-width:2;stroke-miterlimit:10}.st23{fill:#56c2de}</style><path class="st0" d="M2 87V29L52 0l50 29v58l-50 29z"/><path class="st1" d="M97.6 84.5L52 110.9 6.4 84.5v-53L52 5.1l45.6 26.4z"/><path class="st0" d="M75.7 88.3L52 94.8l-23.7-6.5-5.5-60.4h58.4z"/><path class="st2" d="M52 31.9v58.2l19.3-5.8 5-52.4z"/><path class="st1" d="M69.4 40.6H34.5l.8 8.2 1.3 14.5h22.7l-.7 8.4-6.6 2.2-6.6-2.3-.4-4.3h-8l1 10.6 14 4.3 14-4 2.1-22.9H44.2l-.5-6.6h25z"/><path class="st0" d="M104 87V29l50-29 50 29v58l-50 29z"/><path class="st1" d="M199.6 84.5L154 110.9l-45.6-26.4v-53L154 5.1l45.6 26.4z"/><path class="st3" d="M121.7 64.3c1-1.4 2.7-2.5 2.7-2.5-.9.4-1.7.8-2.9.8-4.6 0-8.3-3.2-8.3-8.2 0-5.5 4.3-8.8 9.6-8.8s9.7 3.3 9.7 8.7c0 3.2-1.3 5.5-3.5 8.7l-6.2 8.8h-6.3l5.2-7.5zm5.1-9.9c0-2-1.4-3.8-3.9-3.8s-3.9 1.8-3.9 3.8c0 2 1.4 3.8 3.9 3.8s3.9-1.8 3.9-3.8zm8.7 2.4c0-6.7 5.6-11.3 11.6-11.3 6.1 0 11.6 4.6 11.6 11.3 0 6.6-5.6 11.3-11.6 11.3-6.1 0-11.6-4.7-11.6-11.3zm17.2 0c0-3.9-2.5-6.3-5.7-6.3s-5.6 2.3-5.6 6.3c0 3.8 2.5 6.3 5.6 6.3 3.2 0 5.7-2.4 5.7-6.3zm8.4-4.6c0-3.8 3.1-6.6 6.8-6.6s6.8 2.8 6.8 6.6-3.1 6.6-6.8 6.6c-3.7-.1-6.8-2.8-6.8-6.6zm9 0c0-1.5-1.1-2.3-2.2-2.3s-2.2.9-2.2 2.3 1.1 2.3 2.2 2.3 2.2-.9 2.2-2.3zM182 46h5.6l-13.8 21.8h-5.6L182 46zm-1 15.6c0-3.8 3.1-6.6 6.8-6.6s6.8 2.8 6.8 6.6-3.1 6.6-6.8 6.6c-3.7-.1-6.8-2.8-6.8-6.6zm9.1 0c0-1.5-1.1-2.3-2.2-2.3s-2.2.9-2.2 2.3 1.1 2.3 2.2 2.3 2.2-.9 2.2-2.3z"/><path class="st4" d="M206 87V29l50-29 50 29v58l-50 29z"/><path class="st1" d="M301.6 84.5L256 110.9l-45.6-26.4v-53L256 5.1l45.6 26.4z"/><path class="st4" d="M279.7 88.4L256 94.8l-23.7-6.4-5.5-60.5h58.4z"/><path class="st5" d="M256 32v58.1l19.3-5.6 5-52.5z"/><path class="st1" d="M273.4 40.4h-34.9l.8 8.4H256l-16.2 6.3.8 8.3h22.7l-.7 8.4-6.6 2.1-6.6-2.1-.6-4.2H241l1 10.5 14 4.2 14-4.2 2.1-23h-16l16.6-6.3z"/><path class="st4" d="M308 87V29l50-29 50 29v58l-50 29z"/><path class="st1" d="M403.6 84.5L358 110.9l-45.6-26.4v-53L358 5.1l45.6 26.4z"/><path class="st3" d="M319.9 59.9c0-3.4 2.1-5.7 4.9-6.8-1.7-.9-2.9-2.4-2.9-4.8 0-3.2 2.8-6.5 7.9-6.5s7.8 3.3 7.8 6.5c0 2.3-1.3 3.8-2.9 4.8 2.9 1.1 4.9 3.3 4.9 6.8 0 4.9-4.1 8.3-9.8 8.3-5.7.1-9.9-3.4-9.9-8.3zm13.7-.4c0-2.2-1.5-3.9-3.9-3.9s-3.9 1.8-3.9 3.9c0 2.1 1.5 3.8 3.9 3.8s3.9-1.7 3.9-3.8zM332 48.9c0-1.3-1-2.3-2.2-2.3s-2.3.9-2.3 2.3c0 1.3 1.1 2.3 2.3 2.3s2.2-1 2.2-2.3zm9 17.7l4.9-2.5c.7 1.7 1.8 3 4.3 3 2.4 0 3.8-1.7 3.8-3.8 0-2.3-1.5-3.9-4.4-3.9-2.5 0-4.3 1.1-5.6 2.1l-.5-.3V46.1h14.2v4.7h-9.5v4.6c.6-.3 1.8-.7 3.1-.7 5.3 0 8.8 3.9 8.8 8.7 0 4.7-3.2 8.8-9.7 8.8-5.2-.1-8.2-2.8-9.4-5.6zm21.5-14.4c0-3.8 3.1-6.6 6.8-6.6s6.8 2.8 6.8 6.6-3.1 6.6-6.8 6.6c-3.7 0-6.8-2.7-6.8-6.6zm9 0c0-1.5-1.1-2.3-2.2-2.3s-2.2.9-2.2 2.3 1.1 2.3 2.2 2.3c1.1.1 2.2-.8 2.2-2.3zm11.9-6.1h5.6l-13.8 21.8h-5.6l13.8-21.8zm-1 15.6c0-3.8 3.1-6.6 6.8-6.6s6.8 2.8 6.8 6.6-3.1 6.6-6.8 6.6c-3.7-.1-6.8-2.8-6.8-6.6zm9 0c0-1.5-1.1-2.3-2.2-2.3s-2.2.9-2.2 2.3 1.1 2.3 2.2 2.3 2.2-.9 2.2-2.3z"/><path class="st6" d="M410 87V29l50-29 50 29v58l-50 29z"/><path class="st1" d="M505.6 84.5L460 110.9l-45.6-26.4v-53L460 5.1l45.6 26.4z"/><path class="st6" d="M446 62.3V79h12.3c4.8 0 7.7-.1 9.1-.3 2-.3 3.6-1.2 4.8-2.5 1.3-1.3 1.8-3.1 1.8-5.3 0-1.8-.5-3.4-1.4-4.8-.9-1.3-2.3-2.3-4.1-2.8-1.8-.6-5.7-.9-11.8-.9l-10.7-.1m0-25.4v14.9h8.6c5.2 0 8.3-.1 9.5-.3 2.3-.3 4-1 5.3-2.3 1.3-1.3 1.9-2.9 1.9-5 0-2-.6-3.6-1.7-4.8-1.1-1.3-2.8-2-4.9-2.3-1.3-.2-5-.3-11.3-.3l-7.4.1zm-11.8-10.4h24.9c4.9 0 8.6.2 11 .7 2.4.4 4.6 1.3 6.5 2.6 1.9 1.3 3.5 3.1 4.8 5.3 1.3 2.2 1.9 4.7 1.9 7.4 0 3-.8 5.7-2.2 8.2-1.4 2.5-3.5 4.3-6 5.6 3.4 1.1 6.1 3 8 5.7 1.8 2.7 2.8 5.8 2.8 9.3 0 2.8-.7 5.6-1.9 8.3-1.3 2.7-3.1 4.8-5.3 6.4s-5 2.6-8.3 2.9c-2.1.3-7.1.3-15 .4h-21l-.2-62.8zM512 87V29l50-29 50 29v58l-50 29z"/><path class="st1" d="M607.6 84.5L562 110.9l-45.6-26.4v-53L562 5.1l45.6 26.4z"/><path class="st3" d="M529.8 64.4c1-1.4 2.7-2.6 2.7-2.6-.9.4-1.7.8-2.9.8-4.6 0-8.3-3.2-8.3-8.2 0-5.5 4.3-8.8 9.6-8.8s9.7 3.3 9.7 8.7c0 3.2-1.3 5.5-3.5 8.7l-6.2 8.8h-6.3l5.2-7.4zm5-9.9c0-2-1.4-3.8-3.9-3.8s-3.9 1.8-3.9 3.8c0 2 1.4 3.8 3.9 3.8s3.9-1.8 3.9-3.8zm8.7 2.4c0-6.7 5.6-11.3 11.6-11.3 6.1 0 11.6 4.6 11.6 11.3 0 6.6-5.6 11.3-11.6 11.3-6.1 0-11.6-4.7-11.6-11.3zm17.2 0c0-3.9-2.5-6.3-5.7-6.3s-5.6 2.3-5.6 6.3c0 3.8 2.5 6.3 5.6 6.3 3.2 0 5.7-2.4 5.7-6.3zm8.4-4.7c0-3.8 3.1-6.6 6.8-6.6s6.8 2.8 6.8 6.6-3.1 6.6-6.8 6.6c-3.7 0-6.8-2.7-6.8-6.6zm9 0c0-1.5-1.1-2.3-2.2-2.3s-2.2.9-2.2 2.3 1.1 2.3 2.2 2.3c1.1.1 2.2-.8 2.2-2.3zm11.9-6.1h5.6l-13.8 21.8h-5.6L590 46.1zm-1 15.6c0-3.8 3.1-6.6 6.8-6.6s6.8 2.8 6.8 6.6-3.1 6.6-6.8 6.6c-3.7-.1-6.8-2.8-6.8-6.6zm9.1 0c0-1.5-1.1-2.3-2.2-2.3s-2.2.9-2.2 2.3 1.1 2.3 2.2 2.3 2.2-.9 2.2-2.3z"/><path class="st7" d="M614 87V29l50-29 50 29v58l-50 29z"/><path class="st1" d="M709.6 84.4L664 110.9l-45.7-26.5V31.6L664 5.1l45.6 26.5z"/><path class="st7" d="M655.2 74.2h10.4c1.9 0 3.5.9 3.5 2s-1.6 2-3.5 2h-10.4c-1.9 0-3.5-.9-3.5-2 0-1 1.6-2 3.5-2zm-26.6-42.1c0-1.9 1.6-3.5 3.5-3.5h56.5c1.9 0 3.5 1.6 3.5 3.5v36.5c0 1.9-1.6 3.5-3.5 3.5h-56.5c-1.9 0-3.5-1.6-3.5-3.5V32.1zm2.2 2.3c0-1.9 1.6-3.5 3.5-3.5h52.1c1.9 0 3.5 1.6 3.5 3.5V61c0 1.9-1.6 3.5-3.5 3.5h-52.1c-1.9 0-3.5-1.6-3.5-3.5V34.4z"/><path class="st8" d="M685 64.4h-49.3c-2 0-3.6-1.6-3.6-3.6V36c0-2 1.6-3.6 3.6-3.6H685c2 0 3.6 1.6 3.6 3.6v24.9c.1 2-1.6 3.5-3.6 3.5z"/><path class="st7" d="M635.3 55.8h25v1.5h-25zm0-4.1h44.3v1.5h-44.3zm0 8.2h25v1.5h-25z"/><path class="st9" d="M635.3 36.3h15.2v8.1h-15.2z"/><path class="st7" d="M635.3 47.6h53.4v1.5h-53.4z"/><path class="st10" d="M665.7 55.8h12.2v5.6h-12.2z"/><path class="st11" d="M697.7 73.7H676V52.1c0-2.7 2.2-4.9 4.9-4.9h16.8v26.5z"/><path class="st7" d="M678 52.5c0-1.8 1.5-3.3 3.3-3.3h14.8c1.8 0 3.3 1.5 3.3 3.3V84c0 1.8-1.5 3.3-3.3 3.3h-14.8c-1.8 0-3.3-1.5-3.3-3.3V52.5zm2.8 3c0-.8.7-1.6 1.6-1.6h12.5c.8 0 1.6.7 1.6 1.6V79c0 .8-.7 1.6-1.6 1.6h-12.5c-.8 0-1.6-.7-1.6-1.6V55.5z"/><path class="st1" d="M682.5 53.9H695c.8 0 1.6.7 1.6 1.6V79c0 .8-.7 1.6-1.6 1.6h-12.5c-.8 0-1.6-.7-1.6-1.6V55.5c0-.8.7-1.6 1.6-1.6z"/><path class="st7" d="M682.6 64.2h12.2v.8h-12.2zm.1 2.3h12.2v.8h-12.2zm-.1 10.3h12.2v.8h-12.2z"/><ellipse class="st1" cx="688.8" cy="83.2" rx="1.3" ry="1.3"/><path class="st10" d="M682.7 68.7h12.2v5.6h-12.2z"/><path class="st9" d="M682.6 55.9h12.2v5.6h-12.2z"/><path class="st1" d="M686.3 51.9h5c.8 0 1.6.2 1.6.3 0 .1-.7.3-1.6.3h-5c-.8 0-1.6-.2-1.6-.3 0-.1.6-.3 1.6-.3z"/><path class="st7" d="M716 87V29l50-29 50 29v58l-50 29z"/><path class="st1" d="M811.6 84.4L766 110.9l-45.7-26.5V31.6L766 5.1l45.6 26.5z"/><path class="st3" d="M738.1 64.4c1-1.4 2.7-2.6 2.7-2.6-.9.4-1.7.8-2.9.8-4.6 0-8.3-3.2-8.3-8.2 0-5.5 4.3-8.9 9.6-8.9s9.7 3.3 9.7 8.7c0 3.2-1.3 5.5-3.5 8.7l-6.2 8.8h-6.3l5.2-7.3zm5-10c0-2-1.4-3.8-3.9-3.8s-3.9 1.8-3.9 3.8c0 2 1.4 3.8 3.9 3.8s3.9-1.8 3.9-3.8zm7.1 12.2l4.9-2.5c.7 1.7 1.8 3 4.3 3 2.4 0 3.8-1.7 3.8-3.8 0-2.3-1.5-3.9-4.4-3.9-2.5 0-4.3 1.1-5.6 2.1l-.5-.3V45.9h14.2v4.7h-9.5v4.6c.6-.3 1.8-.7 3.1-.7 5.3 0 8.8 3.9 8.8 8.7 0 4.7-3.2 8.8-9.8 8.8-5.2.1-8.2-2.5-9.3-5.4zm21.5-14.5c0-3.8 3.1-6.6 6.8-6.6s6.8 2.8 6.8 6.6-3.1 6.6-6.8 6.6-6.8-2.7-6.8-6.6zm9 0c0-1.5-1.1-2.3-2.2-2.3s-2.2.9-2.2 2.3 1.1 2.3 2.2 2.3c1.1.1 2.2-.8 2.2-2.3zm11.8-6.2h5.6l-13.8 21.8h-5.6l13.8-21.8zm-.9 15.7c0-3.8 3.1-6.6 6.8-6.6s6.8 2.8 6.8 6.6-3.1 6.6-6.8 6.6c-3.7 0-6.8-2.8-6.8-6.6zm9 0c0-1.5-1.1-2.3-2.2-2.3s-2.2.9-2.2 2.3 1.1 2.3 2.2 2.3 2.2-.8 2.2-2.3z"/><path class="st12" d="M818 87V29l50-29 50 29v58l-50 29z"/><path class="st1" d="M913.6 84.5L868 110.9l-45.6-26.4v-53L868 5.1l45.6 26.4z"/><path class="st3" d="M847.4 31h12.1v34c0 15.4-7.3 20.7-19 20.7-3 0-6.5-.4-8.9-1.2l1.4-9.8c1.7.6 3.8 1 6.3 1 5.2 0 8.3-2.3 8.3-10.5l-.2-34.2zm22.7 41.4c3.2 1.7 8.3 3.3 13.4 3.3 5.6 0 8.4-2.3 8.4-5.9 0-3.3-2.5-5.3-9-7.4-8.9-3.2-14.8-8.1-14.8-16.1 0-9 7.8-16 20.4-16 6-.1 10.4 1.2 13.7 2.8l-2.8 9.7c-2.1-1-5.9-2.5-11.1-2.5-5.3 0-7.8 2.5-7.8 5.2 0 3.5 3 4.9 10 7.6 9.3 3.5 13.8 8.4 13.8 16.2 0 9-6.8 16.8-21.6 16.8-6.2 0-12.2-1.7-15.3-3.3l2.7-10.4z"/><path class="st12" d="M920 87V29l50-29 50 29v58l-50 29z"/><path class="st1" d="M1015.6 84.5L970 110.9l-45.6-26.4v-53L970 5.1l45.6 26.4z"/><path class="st3" d="M943.6 50.5h-10.4v-4.7h18v.4l-11 25.3h-5.9zm8.4 6.2c0-6.7 5.6-11.3 11.6-11.3 6.1 0 11.6 4.6 11.6 11.3 0 6.6-5.6 11.3-11.6 11.3S952 63.3 952 56.7zm17.2 0c0-3.9-2.5-6.3-5.7-6.3s-5.6 2.3-5.6 6.3c0 3.8 2.5 6.3 5.6 6.3 3.3 0 5.7-2.4 5.7-6.3zm8.5-4.7c0-3.8 3.1-6.6 6.8-6.6s6.8 2.8 6.8 6.6-3.1 6.6-6.8 6.6c-3.7 0-6.8-2.8-6.8-6.6zm9 0c0-1.5-1.1-2.3-2.2-2.3s-2.2.9-2.2 2.3 1.1 2.3 2.2 2.3 2.2-.8 2.2-2.3zm11.9-6.2h5.6l-13.8 21.8h-5.6l13.8-21.8zm-1 15.6c0-3.8 3.1-6.6 6.8-6.6s6.8 2.8 6.8 6.6-3.1 6.6-6.8 6.6c-3.7 0-6.8-2.7-6.8-6.6zm9 0c0-1.5-1.1-2.3-2.2-2.3s-2.2.9-2.2 2.3 1.1 2.3 2.2 2.3c1.1.1 2.2-.8 2.2-2.3z"/><path class="st13" d="M1022 87V29l50-29 50 29v58l-50 29z"/><path class="st1" d="M1117.6 84.5l-45.6 26.4-45.6-26.4v-53L1072 5.1l45.6 26.4z"/><path class="st13" d="M1065.2 29.6c-2.7 4.7-3 10.4-1.4 15.6 1.4 4.9 4.5 9.3 8.4 12.4l.3.2c.3.3.8.6 1.1.8.2.1.3.3.5.3l.3.2c.3.2.5.3.8.5l.2.1c.3.2.4.3.7.4.1.1.2.1.3.2.2.1.3.2.5.3.3.2.7.3 1.1.5l.3.1c.3.1.6.3.8.3l.3.2c.3.1.5.2.8.3l.3.1c.4.1.8.3 1.2.3 8.8 2.4 17.2-.7 21.4-7.1 0 0-4.8 16.6-25.3 12.9-.4-.1-.8-.3-1.2-.3l-.3-.1c-.2-.1-.5-.2-.8-.3l-.3-.2c-.3-.1-.6-.3-.8-.3l-.3-.1c-.3-.2-.7-.3-1.1-.5-.3-.1-.4-.2-.6-.3l-.3-.2c-.3-.2-.5-.3-.8-.4l-.1-.1c-.2-.2-.6-.3-.8-.5l-.3-.2c-.2-.1-.3-.3-.5-.3-.4-.3-.8-.6-1.2-.8l-.3-.2c-.3-.3-.8-.6-1.1-.9-.3-.3-.7-.6-.9-.9l-.3-.3c-.3-.3-.6-.7-.9-.9-.8-.7-1.4-1.8-2.1-2.7-.7-1-1.3-2-1.8-3.1-3.1-6.3-3.3-14.3.7-20.4l3.5-4.6z"/><path class="st13" d="M1049.1 35.7c-4.8 9.8-2.7 21.7 3.4 30.3.3.3.4.6.7.9l.2.3c.2.3.4.5.6.8l.2.3c.3.3.5.7.8.9.3.3.6.7.8.9l.3.3c.2.3.4.4.7.7l.3.3c.3.3.6.6.9.8.3.3.7.6.9.8l.3.3c.3.2.4.3.7.6l.3.3c.3.2.5.4.8.6l.3.2c.3.2.5.3.8.6.1.1.2.2.3.2.3.3.8.5 1.2.8l.3.2c.3.2.6.3.8.5.2.1.3.2.5.3.3.1.5.3.8.4l.3.1c.3.2.6.3.9.4l.3.1c.3.2.8.3 1.1.5l.3.1c.3.2.7.3 1 .4.5.2.9.3 1.3.4.1 0 .2.1.3.1.4.1.8.3 1.3.3 10.9 2.6 22.5.3 29-8.5 0 0-7.8 21.8-34.4 16.8-.4-.1-.8-.3-1.3-.3l-.3-.1c-.4-.1-.8-.3-1.2-.4-.5-.2-.8-.3-1.2-.4l-.3-.1c-.3-.2-.8-.3-1.1-.5l-.2-.1c-.3-.2-.7-.3-1-.4l-.3-.1c-.3-.2-.5-.3-.8-.4-.2-.1-.3-.2-.5-.3-.3-.2-.6-.3-.8-.5-.1-.1-.2-.1-.3-.2-.4-.3-.8-.5-1.2-.8-.1-.1-.2-.2-.3-.2-.3-.2-.5-.3-.8-.5-.2-.1-.3-.2-.3-.3-.3-.2-.5-.3-.8-.6l-.3-.3c-.3-.2-.4-.3-.7-.5l-.3-.3c-.3-.3-.5-.4-.8-.7l-.2-.1c-.3-.3-.6-.6-.9-.8l-.3-.3c-.3-.2-.4-.4-.7-.7l-.3-.3c-.2-.3-.5-.6-.8-.8-.3-.3-.6-.7-.8-1l-.2-.3c-.2-.3-.3-.5-.6-.8l-.3-.3c-.2-.3-.4-.6-.6-.8l-.1-.2c-.3-.3-.5-.7-.7-1-.1-.1-.1-.2-.2-.3-.2-.3-.3-.5-.4-.8-.1-.1-.2-.3-.3-.4-.2-.3-.3-.5-.4-.7-.1-.2-.2-.3-.3-.4l-.1-.3c-.1-.1-.1-.3-.2-.4l-.3-.6c-4.3-8.8-4.9-19.5.6-27.8l4.6-5.9zm29-9c-3.3 6.1-.2 13.6 4.8 17.6.8.7 1.8 1.3 2.8 1.8.5.3 1.1.5 1.6.7.4.2.9.3 1.3.4 5.6 1.4 10.1.4 12.8-3.6-.8 1.3-3.9 9.6-15.3 7.3-.3 0-.5-.2-.8-.3l-.3-.1c-.2-.1-.3-.1-.5-.2-4.1-1.6-7.7-4.8-9.3-9.1-1.7-4-1.4-8.4.9-12l2-2.5zM1124 87V29l50-29 50 29v58l-50 29z"/><path class="st1" d="M1219.6 84.5l-45.6 26.4-45.6-26.4v-53L1174 5.1l45.6 26.4z"/><path class="st3" d="M1144.9 50.6h-10.4v-4.7h18v.4l-11 25.3h-5.8zm8.4 6.1c0-6.7 5.6-11.3 11.6-11.3 6.1 0 11.6 4.6 11.6 11.3 0 6.6-5.6 11.3-11.6 11.3-6.1.1-11.6-4.7-11.6-11.3zm17.2 0c0-3.9-2.5-6.3-5.7-6.3s-5.6 2.3-5.6 6.3c0 3.8 2.5 6.3 5.6 6.3 3.3.1 5.7-2.3 5.7-6.3zm8.4-4.6c0-3.8 3.1-6.6 6.8-6.6s6.8 2.8 6.8 6.6-3.1 6.6-6.8 6.6-6.8-2.8-6.8-6.6zm9.1 0c0-1.5-1.1-2.3-2.2-2.3s-2.2.9-2.2 2.3 1.1 2.3 2.2 2.3 2.2-.8 2.2-2.3zm11.8-6.2h5.6l-13.8 21.8h-5.6l13.8-21.8zm-.9 15.6c0-3.8 3.1-6.6 6.8-6.6s6.8 2.8 6.8 6.6-3.1 6.6-6.8 6.6-6.8-2.8-6.8-6.6zm9 0c0-1.5-1.1-2.3-2.2-2.3s-2.2.9-2.2 2.3 1.1 2.3 2.2 2.3 2.2-.8 2.2-2.3z"/><path class="st14" d="M1226 87V29l50-29 50 29v58l-50 29z"/><path class="st1" d="M1321.6 84.5l-45.6 26.4-45.6-26.4v-53L1276 5.1l45.6 26.4z"/><path class="st14" d="M1260.3 70l-4.5 15h-9.9l16.8-52.8h12.3l17.1 52.8h-10.3l-4.8-15h-16.7zm15.1-7.2l-4.2-12.9c-1-3.2-1.8-6.8-2.7-9.8h-.2c-.8 3-1.6 6.8-2.5 9.8l-4.1 12.9h13.7zm30.7-26.6c0 2.9-2.1 5.2-5.5 5.2-3.2 0-5.3-2.3-5.3-5.2 0-3 2.2-5.3 5.4-5.3 3.3.1 5.3 2.3 5.4 5.3zM1295.9 85V46.9h9.7V85h-9.7zm32.1 2V29l50-29 50 29v58l-50 29z"/><path class="st1" d="M1423.6 84.5l-45.6 26.4-45.6-26.4v-53L1378 5.1l45.6 26.4z"/><path class="st3" d="M1337.3 59.6c0-3.2 1.3-5.7 3.5-8.7l6.1-8.4h6.3l-5.2 7.1c-.9 1.3-2.7 2.6-2.7 2.6.9-.4 1.9-.8 3.2-.8 4.5 0 8 3.1 8 8.1 0 5.5-4.3 8.8-9.6 8.8-5.1 0-9.6-3.5-9.6-8.7zm13.5-.1c0-2-1.4-3.8-3.9-3.8s-3.9 1.8-3.9 3.8 1.4 3.8 3.9 3.8 3.9-1.8 3.9-3.8zm8.7-2.5c0-6.7 5.6-11.3 11.6-11.3 6.1 0 11.6 4.6 11.6 11.3 0 6.6-5.6 11.3-11.6 11.3-6.1 0-11.6-4.7-11.6-11.3zm17.2 0c0-3.9-2.5-6.3-5.7-6.3s-5.6 2.3-5.6 6.3c0 3.8 2.5 6.3 5.6 6.3 3.2 0 5.7-2.5 5.7-6.3zm8.4-4.7c0-3.8 3.1-6.6 6.8-6.6s6.8 2.8 6.8 6.6-3.1 6.6-6.8 6.6c-3.7-.1-6.8-2.7-6.8-6.6zm9 0c0-1.5-1.1-2.3-2.2-2.3s-2.2.9-2.2 2.3 1.1 2.3 2.2 2.3 2.2-.9 2.2-2.3zm11.9-6.2h5.6l-13.8 21.8h-5.6l13.8-21.8zm-1 15.7c0-3.8 3.1-6.6 6.8-6.6s6.8 2.8 6.8 6.6-3.1 6.6-6.8 6.6c-3.7-.1-6.8-2.8-6.8-6.6zm9.1 0c0-1.5-1.1-2.3-2.2-2.3s-2.2.9-2.2 2.3 1.1 2.3 2.2 2.3 2.2-.9 2.2-2.3z"/><path class="st15" d="M1430 87V29l50-29 50 29v58l-50 29z"/><path class="st1" d="M1525.6 84.5l-45.6 26.4-45.6-26.4v-53L1480 5.1l45.6 26.4z"/><path class="st15" d="M1447.9 32.3c3.4-.6 8.2-1.1 14.5-1.1 7 0 12.1 1.5 15.4 4.3 3.1 2.6 5.1 6.7 5.1 11.5 0 5-1.6 9.1-4.5 11.9-3.8 3.8-9.8 5.6-16.5 5.6-1.8 0-3.4-.1-4.7-.3V84h-9.4l.1-51.7zm9.4 24.4c1.2.3 2.7.4 4.7.4 7.1 0 11.4-3.5 11.4-9.6 0-5.8-4-8.9-10.6-8.9-2.7 0-4.5.3-5.5.4v17.7zm29.9 18.5c2.2 1.3 6.3 2.8 9.7 2.8 4.2 0 6-1.7 6-4.2 0-2.6-1.6-3.9-6.2-5.5-7.3-2.6-10.4-6.6-10.3-11 0-6.7 5.5-11.9 14.3-11.9 4.2 0 7.8 1.1 10 2.3l-1.8 6.8c-1.6-.9-4.7-2.2-8-2.2-3.4 0-5.3 1.6-5.3 3.9 0 2.4 1.8 3.6 6.6 5.3 6.8 2.5 10 5.9 10.1 11.5 0 6.8-5.3 11.8-15.3 11.8-4.6 0-8.7-1.1-11.4-2.7l1.6-6.9zM1532 87V29l50-29 50 29v58l-50 29z"/><path class="st1" d="M1627.6 84.5l-45.6 26.4-45.6-26.4v-53L1582 5.1l45.6 26.4z"/><path class="st3" d="M1543.9 66.4l4.9-2.5c.7 1.7 1.8 3 4.3 3 2.4 0 3.8-1.7 3.8-3.8 0-2.3-1.5-3.9-4.4-3.9-2.5 0-4.3 1.1-5.6 2.1l-.5-.3V45.8h14.2v4.7h-9.5v4.6c.6-.3 1.8-.7 3.1-.7 5.3 0 8.8 3.9 8.8 8.7 0 4.7-3.2 8.8-9.8 8.8-5.1 0-8.1-2.6-9.3-5.5zm21.1 0l4.9-2.5c.7 1.7 1.8 3 4.3 3 2.4 0 3.8-1.7 3.8-3.8 0-2.3-1.5-3.9-4.4-3.9-2.5 0-4.3 1.1-5.6 2.1l-.5-.3V45.8h14.2v4.7h-9.5v4.6c.6-.3 1.8-.7 3.1-.7 5.3 0 8.8 3.9 8.8 8.7 0 4.7-3.2 8.8-9.8 8.8-5 0-8.1-2.6-9.3-5.5zm21.5-14.4c0-3.8 3.1-6.6 6.8-6.6s6.8 2.8 6.8 6.6-3.1 6.6-6.8 6.6-6.8-2.8-6.8-6.6zm9 0c0-1.5-1.1-2.3-2.2-2.3s-2.2.9-2.2 2.3 1.1 2.3 2.2 2.3 2.2-.8 2.2-2.3zm11.9-6.2h5.6l-13.8 21.8h-5.6l13.8-21.8zm-1 15.6c0-3.8 3.1-6.6 6.8-6.6s6.8 2.8 6.8 6.6-3.1 6.6-6.8 6.6-6.8-2.7-6.8-6.6zm9.1 0c0-1.5-1.1-2.3-2.2-2.3s-2.2.9-2.2 2.3 1.1 2.3 2.2 2.3c1.1.1 2.2-.8 2.2-2.3z"/><path class="st16" d="M1634 87V29l50-29 50 29v58l-50 29z"/><path class="st1" d="M1729.6 84.4l-45.6 26.5-45.7-26.5V31.6L1684 5.1l45.6 26.5z"/><path class="st16" d="M1712.7 32.8c-.7-2.6-2.5-4.8-5.4-6.4-5.7-2.9-14.7-3.1-23.1-.1-4.9 1.8-14.4 5.7-21.5 12-7.1 6.6-8.3 12.4-7.6 14.6 1.2 6.4 7.9 10.8 13.3 14.5 1.4.9 2.8 1.9 3.7 2.7-3 1.5-11.2 6-13.3 10.7-1.7 3.7-.8 6.4-.2 7.6.7 1.4 1.8 2.5 2.9 2.8 1.1.3 2.4.5 3.6.5 4.8 0 9.5-2.5 12.4-6.8 2.9-4.3 3.1-9.9 1.8-13.4 1.9-.5 3.9-.5 6.1-.2 4.3.5 6.4 2.2 7.5 3.4 1.1 1.4 1.3 2.8 1.2 3.7-.2 1.6-1.6 2.6-2.2 3.1-.5.3-1 .7-.8 1.3.2.8 1.1.7 1.4.7 1-.2 4.6-2 4.8-5.9.1-2.4-.8-4.8-2.8-6.8-2.4-2.5-6.1-3.9-10.3-3.7-3.1 0-5.2.3-6.9.8l-.1-.1c-1.6-1.6-3.7-3.2-5.5-4.7-4.4-3.2-8.5-6.4-8.3-11.2.4-5.9 6.2-11.7 17.6-17.2 10.1-4.9 18.3-5.1 22.7-3.6 1.8.7 3 1.5 3.4 2.5.8 1.9.5 4.2-1 6.8-2.5 4.4-9 9.8-18.9 11-6 .7-8.5-2-8.7-2-.7-.7-1.1-1.2-1.9-.7-.8.5-.5 1.6-.2 2 .5 1.2 2.4 3.2 5.5 4.4 2.5.8 9.1 1.4 17.2-1.6 9-3.4 15.5-13.1 13.6-20.7zm-38.3 46.4c-.1.2-.1.5-.2.7-.1.2-.2.5-.2.7-.5.9-1.1 2-2 2.8-2.5 2.7-6 3.4-7.1 2.8-.4-.2-.5-.5-.5-.9-.2-1.3.5-3.9 2.9-6.2 2.8-2.8 6.6-4.9 7.6-5.3.2 1.9 0 3.7-.5 5.4z"/><path class="st17" d="M1736 87V29l50-29 50 29v58l-50 29z"/><path class="st1" d="M1831.6 84.4l-45.6 26.5-45.7-26.5V31.6L1786 5.1l45.6 26.5z"/><path class="st17" d="M1748.5 58.9c0 3.4.3 6.5 1 9.2.6 2.7 1.5 5.1 2.6 7.2 1.1 2 2.5 3.8 4.3 5.3 1.7 1.5 3.6 2.8 5.6 3.8 2 1 4.3 1.8 6.9 2.4 2.6.6 5.3 1 8 1.3 2.7.2 5.7.4 8.9.4 3.3 0 6.3-.1 9-.4 2.7-.2 5.4-.7 8-1.3 2.6-.6 4.9-1.4 7-2.4 2-1 3.9-2.2 5.7-3.8 1.7-1.5 3.2-3.3 4.3-5.3 1.1-2 2-4.4 2.7-7.2.6-2.7 1-5.8 1-9.2 0-6.1-2-11.3-6.1-15.7.2-.6.4-1.3.6-2 .2-.7.4-1.8.5-3.2.2-1.4.1-3-.2-4.8-.3-1.8-.8-3.6-1.6-5.5l-.5-.1c-.4-.1-1-.1-1.9.1-.9.1-1.9.3-3.1.7-1.2.3-2.7 1-4.6 1.9-1.9.9-3.8 2.1-5.9 3.5-3.6-1-8.5-1.5-14.7-1.5-6.2 0-11.1.5-14.6 1.5-2.1-1.4-4.1-2.6-5.9-3.5-1.9-.9-3.4-1.6-4.5-1.9-1.1-.3-2.2-.5-3.1-.6-1-.1-1.6-.1-1.8-.1-.3 0-.5.1-.6.1-.8 1.9-1.3 3.7-1.6 5.5-.3 1.8-.3 3.4-.2 4.8.2 1.4.3 2.4.5 3.2.2.7.4 1.4.6 2-4.2 4.3-6.3 9.6-6.3 15.6zm9.2 9.2c0-3.5 1.6-6.7 4.8-9.7 1-.9 2.1-1.5 3.3-2 1.3-.5 2.7-.7 4.3-.8 1.6-.1 3.1 0 4.6 0 1.5.1 3.3.2 5.4.3 2.1.1 4 .2 5.6.2 1.6 0 3.4-.1 5.6-.2 2.1-.1 4-.3 5.4-.3 1.5-.1 3-.1 4.6 0 1.6.1 3 .3 4.3.8 1.3.5 2.4 1.1 3.3 2 3.2 2.9 4.8 6.1 4.8 9.7 0 2.1-.3 4-.8 5.6-.5 1.6-1.2 3-2 4.1-.8 1.1-2 2-3.4 2.8-1.5.8-2.9 1.4-4.2 1.8-1.4.4-3.1.7-5.3 1-2.2.2-4.1.4-5.8.4-1.7 0-3.8.1-6.5.1s-4.8 0-6.5-.1c-1.7 0-3.6-.2-5.8-.4-2.2-.2-3.9-.6-5.3-1s-2.8-1-4.2-1.8c-1.5-.8-2.6-1.7-3.4-2.8-.8-1.1-1.5-2.5-2-4.1-.5-1.6-.8-3.5-.8-5.6zm37.6-.7c0 3.9 2.1 7 4.7 7s4.7-3.1 4.7-7-2.1-7-4.7-7-4.7 3.1-4.7 7zm-28.1 0c0 3.9 2.1 7 4.7 7s4.7-3.1 4.7-7-2.1-7-4.7-7-4.7 3.1-4.7 7z"/><path class="st18" d="M1838 87V29l50-29 50 29v58l-50 29z"/><path class="st1" d="M1933.6 84.4l-45.6 26.5-45.7-26.5V31.6L1888 5.1l45.6 26.5z"/><path class="st18" d="M1888 95.2c-1 0-2-.3-2.9-.8L1876 89c-1.4-.8-.7-1-.2-1.2 1.8-.6 2.2-.8 4.1-1.9.2-.1.5-.1.7.1l7 4.2c.3.1.6.1.8 0l27.3-15.7c.3-.1.4-.4.4-.7V42.2c0-.3-.2-.6-.4-.8l-27.3-15.7c-.3-.1-.6-.1-.8 0l-27.3 15.7c-.3.2-.4.4-.4.7v31.5c0 .3.2.6.4.7l7.5 4.3c4.1 2 6.5-.4 6.5-2.8V44.9c0-.4.4-.8.8-.8h3.5c.4 0 .8.3.8.8V76c0 5.4-2.9 8.5-8.1 8.5-1.6 0-2.8 0-6.3-1.7l-7.2-4.1c-1.8-1-2.9-2.9-2.9-5V42.2c0-2 1.1-4 2.9-5l27.3-15.8c1.7-1 4-1 5.7 0l27.3 15.8c1.8 1 2.9 2.9 2.9 5v31.5c0 2-1.1 3.9-2.9 5l-27.3 15.8c-.8.5-1.8.7-2.8.7z"/><path class="st18" d="M1896.4 73.5c-11.9 0-14.4-5.5-14.4-10.1 0-.4.4-.8.8-.8h3.5c.4 0 .7.3.8.7.5 3.6 2.1 5.4 9.3 5.4 5.7 0 8.2-1.3 8.2-4.4 0-1.8-.7-3.1-9.6-3.9-7.5-.7-12.1-2.4-12.1-8.4 0-5.5 4.6-8.8 12.4-8.8 8.7 0 13.1 3 13.6 9.5 0 .2-.1.4-.2.6-.1.2-.4.3-.6.3h-3.5c-.4 0-.7-.3-.8-.6-.8-3.8-2.9-5-8.5-5-6.3 0-7 2.2-7 3.8 0 2 .9 2.6 9.3 3.7s12.4 2.7 12.4 8.6c0 6-5 9.4-13.6 9.4z"/><path class="st19" d="M1940 87V29l50-29 50 29v58l-50 29z"/><path class="st1" d="M2035.6 84.4l-45.6 26.5-45.7-26.5V31.6L1990 5.1l45.6 26.5z"/><path class="st19" d="M2027.4 54.5l-34-34c-2-2-5.1-2-7.1 0l-7.1 7.1 8.9 8.9c2.1-.7 4.5-.2 6.1 1.4 1.7 1.7 2.1 4.1 1.4 6.2l8.6 8.6c2.1-.7 4.5-.3 6.2 1.4 2.3 2.3 2.3 6.1 0 8.4-2.3 2.3-6.1 2.3-8.4 0-1.8-1.8-2.2-4.3-1.3-6.5l-8-8v21.2c.6.3 1.1.7 1.6 1.1 2.3 2.3 2.3 6.1 0 8.4-2.3 2.3-6.1 2.3-8.4 0-2.3-2.3-2.3-6.1 0-8.4.6-.6 1.2-1 2-1.3V47.7c-.7-.3-1.4-.7-2-1.3-1.8-1.8-2.2-4.4-1.3-6.5l-8.8-8.8-23.3 23.3c-2 2-2 5.1 0 7.1l34 34c2 2 5.1 2 7.1 0l33.8-33.8c1.9-2 1.9-5.2 0-7.2z"/><path class="st20" d="M2042 87V29l50-29 50 29v58l-50 29z"/><path class="st1" d="M2137.6 84.4l-45.6 26.5-45.7-26.5V31.6L2092 5.1l45.6 26.5z"/><path class="st20" d="M2091.8 78c-4.1 0-7.2-.6-8.7-1-1-.2-1.9-.5-2.5-.8l2 3.4.8 10.7c0 1.2 3.8 2.2 8.5 2.2s8.5-1 8.5-2.2l.6-10.8 1.9-3.3c-.6.3-1.5.5-2.5.8-1.4.4-4.5 1-8.6 1zm11.3-34.9c-3 .4-6.9.6-11.1.6s-8.1-.2-11.1-.6c-1.5-.2-2.6-.4-3.5-.7-.2-.1-.5-.2-.9-.4l1.8 17 .3-.9c.2-.6.5-1.2.8-1.7.3-.6.6-1.1.9-1.6.3-.5.7-1 1.1-1.4.4-.4.8-.8 1.2-1.1.4-.3.8-.5 1.2-.7s.8-.3 1.2-.3c.5 0 .9.1 1.3.4.4.3.8.7 1.2 1.2.1.1.1.3.2.4v.4c0 .3-.1.5-.2.6-.1.2-.3.2-.5.2s-.3-.1-.4-.3c-.1-.2-.3-.4-.5-.7-.2-.3-.3-.5-.5-.6-.2-.1-.4-.2-.6-.2-.4 0-.7.1-1.1.4-.4.3-.8.7-1.2 1.2-.4.5-.8 1-1.1 1.6-.4.6-.7 1.2-1 1.9-.3.6-.5 1.3-.7 1.9-.2.6-.2 1.2-.2 1.7v.5c0 .2.1.3.1.5.1.1.1.3.3.4.1.1.2.1.4.1s.4-.1.6-.2c.2-.1.5-.3.7-.5.3-.2.5-.4.8-.7.3-.3.5-.5.7-.8.2-.3.4-.5.6-.8.2-.2.3-.5.4-.6l.7-2.1c.1-.2.2-.4.3-.5.1-.1.3-.1.4-.1h.2l.2.1.1.2v.3c0 .3 0 .6-.1.8s-.1.5-.2.7c-.1.2-.2.5-.3.7-.1.2-.2.5-.3.8 0 0-.1.1-.1.3-.1.2-.1.4-.2.6-.1.2-.2.5-.2.8l-.3.9-.3.9c-.1.3-.2.6-.2.8-.1.2-.1.4-.2.6 0 .2-.1.3-.1.3 0 .1-.1.2-.1.3-.1.1-.1.2-.2.3-.1.1-.2.2-.2.3-.1.1-.2.1-.3.1-.2 0-.3-.1-.4-.2-.1-.1-.1-.3-.1-.6v-.2c0-.1 0-.3.1-.5l.3-.9c.1-.3.2-.7.3-1 .1-.4.2-.7.3-1l-.9.9c-.3.3-.6.6-1 .8-.3.2-.7.4-1 .6-.3.1-.7.2-1 .2-.4 0-.7-.1-.9-.2l-.1-.1 1 10.8c.3.7 5.3 2.3 11.9 2.3 6.6 0 11.7-1.6 11.9-2.3l1.5-12.8c-.1.1-.2.2-.4.3-.4.4-.8.7-1.2 1-.4.3-.7.5-1.1.7-.4.2-.7.2-1.1.2-.4 0-.7-.1-.9-.3-.2-.2-.3-.4-.3-.7v-.2c0-.2.1-.4.2-.6.1-.2.3-.5.5-.7.2-.3.4-.5.6-.8.2-.3.4-.5.6-.7.2-.2.3-.4.5-.6.1-.2.2-.3.2-.5l-.1-.2c-.1 0-.1-.1-.2-.1-.2 0-.4.1-.6.2-.2.1-.4.2-.6.4l-.6.6c-.2.2-.4.5-.6.7-.2.2-.3.5-.5.7-.1.2-.3.5-.4.7 0 .1-.1.2-.1.3-.1.1-.1.3-.2.4-.1.1-.1.3-.2.5s-.1.3-.2.4c-.1.1-.1.3-.2.4 0 .1-.1.2-.1.2 0 .1-.1.2-.1.3-.1.1-.1.3-.2.5s-.2.4-.2.6c-.1.2-.2.4-.2.6-.1.2-.1.4-.2.5-.1.1-.1.3-.1.3-.1.2-.1.3-.2.4-.1.1-.1.3-.2.4l-.3.3c-.1.1-.2.1-.4.1s-.3 0-.4-.1c-.1-.1-.2-.3-.2-.5v-.4c0-.1.1-.2.1-.4 0-.1.1-.2.1-.4 0-.1.1-.2.1-.3.3-.6.5-1.2.8-1.8.3-.6.6-1.2.8-1.8.1-.1.1-.2.2-.4-.3.3-.7.6-1 .8s-.6.4-1 .6c-.3.1-.6.2-.9.2-.2 0-.4 0-.5-.1l-.3-.3c-.1-.1-.1-.2-.2-.4V63l-.3.2c-.3.2-.6.4-.9.5-.3.1-.6.2-.8.2-.2 0-.4-.1-.6-.2-.2-.2-.2-.4-.2-.8 0-.3 0-.6.1-1-.1.2-.3.5-.5.7-.2.2-.4.5-.7.7-.3.2-.5.4-.8.5-.3.1-.7.2-1 .2-.2 0-.3 0-.5-.1-.2 0-.3-.1-.4-.2-.1-.1-.2-.2-.3-.4-.1-.2-.1-.4-.1-.6v-.3c0-.2.1-.5.2-.8.1-.4.3-.9.5-1.5s.5-1.3 1-2.2c.1-.2.2-.4.4-.5.1-.1.3-.1.4-.1h.2l.2.1.2.2.1.2v.2c0 .1-.1.2-.2.4l-.3.6c-.1.2-.2.4-.4.7-.1.2-.2.5-.3.8-.1.3-.2.5-.3.8s-.1.5-.1.8c0 .1 0 .2.1.3.1.1.1.1.2.1.3 0 .6-.1.9-.3.3-.2.6-.5.8-.8.3-.3.5-.7.7-1 .2-.4.4-.7.5-1 .1-.2.2-.4.3-.7.1-.2.2-.4.2-.6.1-.2.2-.4.3-.5.1-.1.2-.2.4-.2s.3.1.4.2c.1.1.2.3.2.5 0 .1 0 .3-.1.4l-.3.6c-.1.2-.2.5-.3.8-.1.3-.2.6-.3.8-.1.3-.2.6-.3.8-.1.3-.1.5-.1.8 0 .2.1.3.3.3.2 0 .3-.1.6-.2.2-.1.5-.3.7-.5l.2-.2c.1-.3.2-.6.3-.8.2-.5.4-.9.5-1.4.2-.5.3-.9.5-1.3l2.3-5.8c.1-.2.2-.4.4-.5.2-.1.3-.1.5-.1s.3.1.4.2c.1.1.2.3.2.5 0 .1 0 .2-.1.3 0 .1-.1.2-.2.4-.1.3-.3.6-.4 1-.2.4-.4.8-.6 1.3l-.6 1.5-.6 1.5c-.2.5-.4 1-.6 1.4-.2.4-.3.8-.4 1.1-.1.1-.1.3-.2.5s-.1.3-.1.5v.2l.2.1c.1 0 .2 0 .4-.1s.3-.2.5-.3c.2-.1.4-.3.6-.4.2-.2.4-.3.6-.5.2-.2.4-.3.6-.5l.5-.5.1-.1c.1-.3.2-.5.2-.7 0-.1.1-.3.2-.5s.2-.4.2-.6c.1-.2.2-.4.3-.5.1-.1.2-.2.4-.2s.3 0 .4.1c.1.1.1.2.1.4v.8l.6-.6c.2-.2.4-.4.7-.5.2-.2.5-.3.7-.4.2-.1.5-.2.7-.2.2 0 .3 0 .5.1.2 0 .3.1.4.2l.3.3c.1.1.1.3.1.5s-.1.5-.2.8c-.1.3-.3.6-.5.8-.2.3-.4.6-.6.8-.2.3-.4.5-.6.7-.2.2-.3.4-.5.6-.1.2-.2.3-.2.3l.1.2s.1.1.2.1.2 0 .4-.1.4-.3.7-.5c.3-.2.7-.6 1.1-.9.3-.3.7-.6 1.1-1l2-18.5c-.3.2-.7.3-.9.4-.3.9-1.4 1.1-2.9 1.3zm-11.2-4.4c-8.6 0-15.6 1-15.6 2.2s7 2.2 15.6 2.2 15.6-1 15.6-2.2-6.9-2.2-15.6-2.2zm6.3 2.8c0 .3-.8.5-1.9.5-1 0-1.9-.2-1.9-.5s.8-.5 1.9-.5c1.1 0 1.9.2 1.9.5z"/><path class="st20" d="M2094.9 41.3c0 .2.7.4 1.5.4s1.5-.1 1.5-.3l2-7.9 7.8-8.2c.2-.2-.2-.8-.7-1.3-.6-.5-1.2-.7-1.3-.5l-8.3 8.7-2.5 9.1z"/><path class="st21" d="M2144 87V29l50-29 50 29v58l-50 29z"/><path class="st1" d="M2239.6 84.4l-45.6 26.5-45.7-26.5V31.6L2194 5.1l45.6 26.5z"/><path class="st22" d="M2215.8 42.6c1.2-6.1.5-10.7-2.3-12.6-.9-.6-2.1-.9-3.4-.8-6.9.3-18 9.7-27.1 23.7-10.8 16.6-14.6 33.1-8.5 37.1 2.9 1.9 7.4.5 12.6-3.1"/><path class="st22" d="M2221.3 69.7c5.1-2 8.2-4.7 8.4-7.8.4-7.2-15.3-13.9-35-14.9-1.8-.1-3.7-.1-5.4-.1-17.2.1-30.6 4.8-30.9 11.3-.2 3.1 2.7 6.1 7.5 8.6"/><path class="st22" d="M2189.2 31.9c-3.5-2.9-6.8-4.5-9.4-4.3-.7.1-1.3.2-2 .5-6.4 3.3-4.4 20.2 4.6 37.8s21.4 29.2 27.9 25.9c6.2-3.1 4.5-18.9-3.6-35.8"/><circle class="st21" cx="2194.3" cy="60.5" r="4.3"/><path class="st23" d="M2246 87V29l50-29 50 29v58l-50 29z"/><path class="st1" d="M2341.6 84.4l-45.6 26.5-45.7-26.5V31.6L2296 5.1l45.6 26.5z"/><path class="st23" d="M2320.3 46.2c-.8-.3-1.6-.5-2.4-.8.2-.5.2-1.1.4-1.7 1.8-8.9.6-16.2-3.5-18.5-3.9-2.3-10.4.1-16.9 5.7-.6.5-1.3 1.1-1.9 1.7-.4-.4-.8-.8-1.3-1.1-6.8-6-13.7-8.6-17.8-6.3-3.9 2.3-5.1 9.1-3.5 17.5.2.8.4 1.7.5 2.5-1 .3-1.9.6-2.8.9-7.9 2.7-13 7.1-13 11.6 0 4.7 5.5 9.4 13.8 12.2.7.2 1.4.5 2 .6-.2.9-.5 1.8-.6 2.7-1.6 8.3-.4 15 3.6 17.2 4.1 2.3 10.9-.1 17.5-5.9.5-.5 1.1-.9 1.6-1.4.7.6 1.4 1.3 2 1.9 6.4 5.5 12.8 7.8 16.7 5.5 4.1-2.3 5.4-9.5 3.6-18.1-.2-.7-.3-1.4-.5-2 .5-.2 1-.3 1.4-.5 8.7-2.9 14.3-7.5 14.3-12.2.3-4.4-5-8.7-13.2-11.5z"/><path class="st1" d="M2318.5 67.1c-.4.2-.8.3-1.3.4-1-3-2.3-6.3-3.9-9.6 1.5-3.3 2.7-6.4 3.7-9.5.8.2 1.5.5 2.3.7 7 2.4 11.3 6 11.3 8.7-.1 3-4.7 6.8-12.1 9.3zm-3.1 6.1c.8 3.9.8 7.3.4 10-.5 2.4-1.4 4.1-2.5 4.7-2.4 1.4-7.5-.4-13-5.1-.6-.5-1.3-1.1-1.9-1.7 2.1-2.3 4.2-5.1 6.4-8 3.6-.3 7.1-.8 10.2-1.6.1.5.3 1.1.4 1.7zM2284 87.7c-2.3.8-4.2.8-5.3.2-2.4-1.4-3.4-6.7-2-13.8.2-.8.4-1.7.5-2.5 3.1.7 6.5 1.2 10.2 1.5 2.1 2.9 4.3 5.7 6.5 8-.5.5-1 .9-1.4 1.4-3 2.4-5.9 4.3-8.5 5.2zm-10.9-20.6c-3.7-1.3-6.7-2.9-8.8-4.7-1.9-1.6-2.8-3.2-2.8-4.5 0-2.7 4.1-6.3 11-8.6.8-.3 1.7-.6 2.6-.8 1 3.1 2.2 6.3 3.7 9.5-1.5 3.3-2.8 6.6-3.7 9.7-.8-.2-1.4-.4-2-.6zm3.6-24.9c-1.4-7.3-.5-12.8 1.9-14.1 2.5-1.4 8.1.6 14 5.8.4.3.8.7 1.1 1.1-2.2 2.3-4.4 5.1-6.4 7.9-3.6.3-7 .8-10.1 1.6-.2-.8-.3-1.5-.5-2.3zm32.6 8c-.8-1.3-1.5-2.6-2.3-3.8 2.4.3 4.7.7 6.9 1.2-.7 2.1-1.4 4.3-2.4 6.5-.7-1.3-1.4-2.6-2.2-3.9zM2296 37.3c1.5 1.6 2.9 3.4 4.5 5.4-2.9-.2-6-.2-8.9 0 1.5-2 2.9-3.8 4.4-5.4zm-13.4 12.9c-.8 1.3-1.4 2.6-2.1 3.9-.9-2.3-1.7-4.5-2.4-6.6 2.2-.5 4.5-.9 6.9-1.2-.9 1.4-1.6 2.7-2.4 3.9zm2.4 19.4c-2.5-.3-4.8-.7-7-1.1.7-2.2 1.5-4.4 2.4-6.7l2.1 3.9c1 1.3 1.7 2.6 2.5 3.9zm11.2 9.1c-1.5-1.7-3-3.5-4.5-5.4 1.4.1 2.9.1 4.5.1s3.1 0 4.5-.1c-1.6 2-3.1 3.8-4.5 5.4zm15.4-17c1 2.3 1.9 4.5 2.6 6.7-2.2.5-4.5.9-7 1.2.8-1.3 1.6-2.6 2.3-3.9.6-1.4 1.3-2.7 2.1-4zm-5 2.4c-1.1 2-2.3 3.9-3.6 5.8-2.3.2-4.5.2-7 .2-2.3 0-4.6-.1-6.9-.2-1.3-1.9-2.6-3.9-3.7-5.9-1.1-2-2.2-4-3.3-6.1 1-2 2-4.1 3.3-6.1 1.1-2 2.3-3.9 3.6-5.8 2.3-.2 4.5-.2 6.9-.2 2.3 0 4.6.1 6.9.2 1.3 1.9 2.5 3.9 3.6 5.8 1.1 2 2.3 4 3.3 6-.9 2.2-2 4.2-3.1 6.3zm6.6-36.2c2.5 1.4 3.6 7.3 1.9 15l-.3 1.5c-3.1-.8-6.6-1.3-10.1-1.6-2-2.9-4.2-5.7-6.4-7.9.5-.5 1.1-1.1 1.7-1.6 5.6-4.8 10.8-6.7 13.2-5.4z"/><path class="st23" d="M2296 51.2a6.7 6.7 0 1 1 0 13.4 6.7 6.7 0 0 1 0-13.4m52 35.8V29l50-29 50 29v58l-50 29z"/><path class="st1" d="M2443.6 84.4l-45.6 26.5-45.7-26.5V31.6L2398 5.1l45.6 26.5z"/></svg>