<?xml version="1.0" encoding="utf-8"?>
<!-- Generator: Adobe Illustrator 20.1.0, SVG Export Plug-In . SVG Version: 6.00 Build 0)  -->
<svg version="1.1" id="Layer_1" xmlns="http://www.w3.org/2000/svg" xmlns:xlink="http://www.w3.org/1999/xlink" x="0px" y="0px"
	 width="3000px" height="116px" viewBox="0 0 3000 116" style="enable-background:new 0 0 3000 116;" xml:space="preserve">
<style type="text/css">
	.st0{fill:#E35028;}
	.st1{fill:#FFFFFF;}
	.st2{fill:#ED6B42;}
	.st3{fill:#2864AD;}
	.st4{fill:#397EC1;}
	.st5{fill:#5E4588;}
	.st6{fill:#4C4B4B;}
	.st7{fill:#FBFCFD;}
	.st8{fill:#C73089;}
	.st9{fill:#47A2DB;}
	.st10{fill:#FDFDFD;}
	.st11{fill:#EFDA4E;}
	.st12{fill:#343432;}
	.st13{fill:#0C6BAF;}
	.st14{fill:#F7A933;}
	.st15{fill:#85B8E4;}
	.st16{fill:#CC689A;}
	.st17{fill:#020203;}
	.st18{fill:#699F63;}
	.st19{fill:#EA5235;}
	.st20{fill:#DA4748;}
	.st21{fill:#5EB57D;}
	.st22{fill:none;stroke:#5EB57D;stroke-width:2;stroke-miterlimit:10;}
	.st23{fill:#56C2DE;}
</style>
<polygon class="st0" points="0,87 0,29 50,0 100,29 100,87 50,116 "/>
<polygon class="st1" points="95.6,84.5 50,110.9 4.4,84.5 4.4,31.5 50,5.1 95.6,31.5 "/>
<polygon class="st0" points="73.7,88.3 50,94.8 26.3,88.3 20.8,27.9 79.2,27.9 "/>
<polygon class="st2" points="50,31.9 50,90.1 69.3,84.3 74.3,31.9 "/>
<polygon class="st1" points="67.4,40.6 32.5,40.6 33.3,48.8 34.6,63.3 57.3,63.3 56.6,71.7 50,73.9 43.4,71.6 43,67.3 35,67.3 
	36,77.9 50,82.2 64,78.2 66.1,55.3 42.2,55.3 41.7,48.7 66.7,48.7 "/>
<polygon class="st0" points="100,87 100,29 150,0 200,29 200,87 150,116 "/>
<polygon class="st1" points="195.6,84.5 150,110.9 104.4,84.5 104.4,31.5 150,5.1 195.6,31.5 "/>
<polygon class="st3" points="200,87 200,29 250,0 300,29 300,87 250,116 "/>
<polygon class="st1" points="295.6,84.5 250,110.9 204.4,84.5 204.4,31.5 250,5.1 295.6,31.5 "/>
<polygon class="st3" points="273.7,88.4 250,94.8 226.3,88.4 220.8,27.9 279.2,27.9 "/>
<polygon class="st4" points="250,32 250,90.1 269.3,84.5 274.3,32 "/>
<polygon class="st1" points="267.4,40.4 232.5,40.4 233.3,48.8 250,48.8 233.8,55.1 234.6,63.4 257.3,63.4 256.6,71.8 250,73.9 
	243.4,71.8 242.8,67.6 235,67.6 236,78.1 250,82.3 264,78.1 266.1,55.1 250.1,55.1 266.7,48.8 "/>
<polygon class="st3" points="300,87 300,29 350,0 400,29 400,87 350,116 "/>
<polygon class="st1" points="395.6,84.5 350,110.9 304.4,84.5 304.4,31.5 350,5.1 395.6,31.5 "/>
<polygon class="st5" points="400,87 400,29 450,0 500,29 500,87 450,116 "/>
<polygon class="st1" points="495.6,84.5 450,110.9 404.4,84.5 404.4,31.5 450,5.1 495.6,31.5 "/>
<path class="st5" d="M436,62.3V79h12.3c4.8,0,7.7-0.1,9.1-0.3c2-0.3,3.6-1.2,4.8-2.5c1.3-1.3,1.8-3.1,1.8-5.3c0-1.8-0.5-3.4-1.4-4.8
	c-0.9-1.3-2.3-2.3-4.1-2.8c-1.8-0.6-5.7-0.9-11.8-0.9L436,62.3 M436,36.9v14.9h8.6c5.2,0,8.3-0.1,9.5-0.3c2.3-0.3,4-1,5.3-2.3
	c1.3-1.3,1.9-2.9,1.9-5c0-2-0.6-3.6-1.7-4.8c-1.1-1.3-2.8-2-4.9-2.3c-1.3-0.2-5-0.3-11.3-0.3L436,36.9z M424.2,26.5h24.9
	c4.9,0,8.6,0.2,11,0.7c2.4,0.4,4.6,1.3,6.5,2.6c1.9,1.3,3.5,3.1,4.8,5.3s1.9,4.7,1.9,7.4c0,3-0.8,5.7-2.2,8.2
	c-1.4,2.5-3.5,4.3-6,5.6c3.4,1.1,6.1,3,8,5.7c1.8,2.7,2.8,5.8,2.8,9.3c0,2.8-0.7,5.6-1.9,8.3c-1.3,2.7-3.1,4.8-5.3,6.4
	s-5,2.6-8.3,2.9c-2.1,0.3-7.1,0.3-15,0.4h-21L424.2,26.5z"/>
<polygon class="st5" points="500,87 500,29 550,0 600,29 600,87 550,116 "/>
<polygon class="st1" points="595.6,84.5 550,110.9 504.4,84.5 504.4,31.5 550,5.1 595.6,31.5 "/>
<polygon class="st6" points="600,87 600,29 650,0 700,29 700,87 650,116 "/>
<polygon class="st1" points="695.6,84.4 650,110.9 604.3,84.4 604.3,31.6 650,5.1 695.6,31.6 "/>
<path class="st6" d="M641.2,74.2h10.4c1.9,0,3.5,0.9,3.5,2s-1.6,2-3.5,2h-10.4c-1.9,0-3.5-0.9-3.5-2
	C637.7,75.2,639.3,74.2,641.2,74.2z"/>
<path class="st6" d="M614.6,32.1c0-1.9,1.6-3.5,3.5-3.5h56.5c1.9,0,3.5,1.6,3.5,3.5v36.5c0,1.9-1.6,3.5-3.5,3.5h-56.5
	c-1.9,0-3.5-1.6-3.5-3.5V32.1z M616.8,34.4c0-1.9,1.6-3.5,3.5-3.5h52.1c1.9,0,3.5,1.6,3.5,3.5V61c0,1.9-1.6,3.5-3.5,3.5h-52.1
	c-1.9,0-3.5-1.6-3.5-3.5V34.4z"/>
<path class="st7" d="M671,64.4h-49.3c-2,0-3.6-1.6-3.6-3.6V36c0-2,1.6-3.6,3.6-3.6H671c2,0,3.6,1.6,3.6,3.6v24.9
	C674.7,62.9,673,64.4,671,64.4z"/>
<rect x="621.3" y="55.8" class="st6" width="25" height="1.5"/>
<rect x="621.3" y="51.7" class="st6" width="44.3" height="1.5"/>
<rect x="621.3" y="59.9" class="st6" width="25" height="1.5"/>
<rect x="645.3" y="36.3" class="st8" width="15.2" height="8.1"/>
<rect x="621.3" y="47.6" class="st6" width="53.4" height="1.5"/>
<rect x="651.7" y="55.8" class="st9" width="12.2" height="5.6"/>
<path class="st10" d="M683.7,73.7H662V52.1c0-2.7,2.2-4.9,4.9-4.9h16.8V73.7z"/>
<path class="st6" d="M664,52.5c0-1.8,1.5-3.3,3.3-3.3h14.8c1.8,0,3.3,1.5,3.3,3.3V84c0,1.8-1.5,3.3-3.3,3.3h-14.8
	c-1.8,0-3.3-1.5-3.3-3.3V52.5z M666.8,55.5c0-0.8,0.7-1.6,1.6-1.6h12.5c0.8,0,1.6,0.7,1.6,1.6V79c0,0.8-0.7,1.6-1.6,1.6h-12.5
	c-0.8,0-1.6-0.7-1.6-1.6V55.5z"/>
<path class="st1" d="M668.5,53.9H681c0.8,0,1.6,0.7,1.6,1.6V79c0,0.8-0.7,1.6-1.6,1.6h-12.5c-0.8,0-1.6-0.7-1.6-1.6V55.5
	C666.9,54.7,667.6,53.9,668.5,53.9z"/>
<rect x="668.6" y="64.2" class="st6" width="12.2" height="0.8"/>
<rect x="668.7" y="66.5" class="st6" width="12.2" height="0.8"/>
<rect x="668.6" y="76.8" class="st6" width="12.2" height="0.8"/>
<circle class="st1" cx="674.8" cy="83.2" r="1.3"/>
<rect x="668.7" y="68.7" class="st9" width="12.2" height="5.6"/>
<rect x="668.6" y="55.9" class="st8" width="12.2" height="5.6"/>
<path class="st1" d="M672.3,51.9h5c0.8,0,1.6,0.2,1.6,0.3s-0.7,0.3-1.6,0.3h-5c-0.8,0-1.6-0.2-1.6-0.3S671.3,51.9,672.3,51.9z"/>
<polygon class="st6" points="700,87 700,29 750,0 800,29 800,87 750,116 "/>
<polygon class="st1" points="795.6,84.4 750,110.9 704.3,84.4 704.3,31.6 750,5.1 795.6,31.6 "/>
<polygon class="st11" points="800,87 800,29 850,0 900,29 900,87 850,116 "/>
<polygon class="st1" points="895.6,84.5 850,110.9 804.4,84.5 804.4,31.5 850,5.1 895.6,31.5 "/>
<path class="st12" d="M829.4,31h12.1v34c0,15.4-7.3,20.7-19,20.7c-3,0-6.5-0.4-8.9-1.2l1.4-9.8c1.7,0.6,3.8,1,6.3,1
	c5.2,0,8.3-2.3,8.3-10.5L829.4,31z"/>
<path class="st12" d="M852.1,72.4c3.2,1.7,8.3,3.3,13.4,3.3c5.6,0,8.4-2.3,8.4-5.9c0-3.3-2.5-5.3-9-7.4c-8.9-3.2-14.8-8.1-14.8-16.1
	c0-9,7.8-16,20.4-16c6-0.1,10.4,1.2,13.7,2.8l-2.8,9.7c-2.1-1-5.9-2.5-11.1-2.5c-5.3,0-7.8,2.5-7.8,5.2c0,3.5,3,4.9,10,7.6
	c9.3,3.5,13.8,8.4,13.8,16.2c0,9-6.8,16.8-21.6,16.8c-6.2,0-12.2-1.7-15.3-3.3L852.1,72.4z"/>
<polygon class="st11" points="900,87 900,29 950,0 1000,29 1000,87 950,116 "/>
<polygon class="st1" points="995.6,84.5 950,110.9 904.4,84.5 904.4,31.5 950,5.1 995.6,31.5 "/>
<polygon class="st13" points="1000,87 1000,29 1050,0 1100,29 1100,87 1050,116 "/>
<polygon class="st1" points="1095.6,84.5 1050,110.9 1004.4,84.5 1004.4,31.5 1050,5.1 1095.6,31.5 "/>
<path class="st13" d="M1043.2,29.6c-2.7,4.7-3,10.4-1.4,15.6c1.4,4.9,4.5,9.3,8.4,12.4l0.3,0.2c0.3,0.3,0.8,0.6,1.1,0.8
	c0.2,0.1,0.3,0.3,0.5,0.3l0.3,0.2c0.3,0.2,0.5,0.3,0.8,0.5l0.2,0.1c0.3,0.2,0.4,0.3,0.7,0.4c0.1,0.1,0.2,0.1,0.3,0.2
	c0.2,0.1,0.3,0.2,0.5,0.3c0.3,0.2,0.7,0.3,1.1,0.5l0.3,0.1c0.3,0.1,0.6,0.3,0.8,0.3l0.3,0.2c0.3,0.1,0.5,0.2,0.8,0.3l0.3,0.1
	c0.4,0.1,0.8,0.3,1.2,0.3c8.8,2.4,17.2-0.7,21.4-7.1c0,0-4.8,16.6-25.3,12.9c-0.4-0.1-0.8-0.3-1.2-0.3l-0.3-0.1
	c-0.2-0.1-0.5-0.2-0.8-0.3l-0.3-0.2c-0.3-0.1-0.6-0.3-0.8-0.3l-0.3-0.1c-0.3-0.2-0.7-0.3-1.1-0.5c-0.3-0.1-0.4-0.2-0.6-0.3l-0.3-0.2
	c-0.3-0.2-0.5-0.3-0.8-0.4l-0.1-0.1c-0.2-0.2-0.6-0.3-0.8-0.5l-0.3-0.2c-0.2-0.1-0.3-0.3-0.5-0.3c-0.4-0.3-0.8-0.6-1.2-0.8l-0.3-0.2
	c-0.3-0.3-0.8-0.6-1.1-0.9c-0.3-0.3-0.7-0.6-0.9-0.9l-0.3-0.3c-0.3-0.3-0.6-0.7-0.9-0.9c-0.8-0.7-1.4-1.8-2.1-2.7
	c-0.7-1-1.3-2-1.8-3.1c-3.1-6.3-3.3-14.3,0.7-20.4L1043.2,29.6z"/>
<path class="st13" d="M1027.1,35.7c-4.8,9.8-2.7,21.7,3.4,30.3c0.3,0.3,0.4,0.6,0.7,0.9l0.2,0.3c0.2,0.3,0.4,0.5,0.6,0.8l0.2,0.3
	c0.3,0.3,0.5,0.7,0.8,0.9c0.3,0.3,0.6,0.7,0.8,0.9l0.3,0.3c0.2,0.3,0.4,0.4,0.7,0.7l0.3,0.3c0.3,0.3,0.6,0.6,0.9,0.8
	c0.3,0.3,0.7,0.6,0.9,0.8c0.1,0.1,0.2,0.2,0.3,0.3c0.3,0.2,0.4,0.3,0.7,0.6l0.3,0.3c0.3,0.2,0.5,0.4,0.8,0.6l0.3,0.2
	c0.3,0.2,0.5,0.3,0.8,0.6c0.1,0.1,0.2,0.2,0.3,0.2c0.3,0.3,0.8,0.5,1.2,0.8l0.3,0.2c0.3,0.2,0.6,0.3,0.8,0.5
	c0.2,0.1,0.3,0.2,0.5,0.3c0.3,0.1,0.5,0.3,0.8,0.4l0.3,0.1c0.3,0.2,0.6,0.3,0.9,0.4l0.3,0.1c0.3,0.2,0.8,0.3,1.1,0.5l0.3,0.1
	c0.3,0.2,0.7,0.3,1,0.4c0.5,0.2,0.9,0.3,1.3,0.4c0.1,0,0.2,0.1,0.3,0.1c0.4,0.1,0.8,0.3,1.3,0.3c10.9,2.6,22.5,0.3,29-8.5
	c0,0-7.8,21.8-34.4,16.8c-0.4-0.1-0.8-0.3-1.3-0.3l-0.3-0.1c-0.4-0.1-0.8-0.3-1.2-0.4c-0.5-0.2-0.8-0.3-1.2-0.4l-0.3-0.1
	c-0.3-0.2-0.8-0.3-1.1-0.5l-0.2-0.1c-0.3-0.2-0.7-0.3-1-0.4l-0.3-0.1c-0.3-0.2-0.5-0.3-0.8-0.4c-0.2-0.1-0.3-0.2-0.5-0.3
	c-0.3-0.2-0.6-0.3-0.8-0.5c-0.1-0.1-0.2-0.1-0.3-0.2c-0.4-0.3-0.8-0.5-1.2-0.8c-0.1-0.1-0.2-0.2-0.3-0.2c-0.3-0.2-0.5-0.3-0.8-0.5
	c-0.2-0.1-0.3-0.2-0.3-0.3c-0.3-0.2-0.5-0.3-0.8-0.6l-0.3-0.3c-0.3-0.2-0.4-0.3-0.7-0.5l-0.3-0.3c-0.3-0.3-0.5-0.4-0.8-0.7l-0.2-0.1
	c-0.3-0.3-0.6-0.6-0.9-0.8l-0.3-0.3c-0.3-0.2-0.4-0.4-0.7-0.7l-0.3-0.3c-0.2-0.3-0.5-0.6-0.8-0.8c-0.3-0.3-0.6-0.7-0.8-1l-0.2-0.3
	c-0.2-0.3-0.3-0.5-0.6-0.8c-0.1-0.1-0.2-0.2-0.3-0.3c-0.2-0.3-0.4-0.6-0.6-0.8l-0.1-0.2c-0.3-0.3-0.5-0.7-0.7-1
	c-0.1-0.1-0.1-0.2-0.2-0.3c-0.2-0.3-0.3-0.5-0.4-0.8c-0.1-0.1-0.2-0.3-0.3-0.4c-0.2-0.3-0.3-0.5-0.4-0.7s-0.2-0.3-0.3-0.4l-0.1-0.3
	c-0.1-0.1-0.1-0.3-0.2-0.4c-0.1-0.2-0.2-0.4-0.3-0.6c-4.3-8.8-4.9-19.5,0.6-27.8L1027.1,35.7z"/>
<path class="st13" d="M1056.1,26.7c-3.3,6.1-0.2,13.6,4.8,17.6c0.8,0.7,1.8,1.3,2.8,1.8c0.5,0.3,1.1,0.5,1.6,0.7
	c0.4,0.2,0.9,0.3,1.3,0.4c5.6,1.4,10.1,0.4,12.8-3.6c-0.8,1.3-3.9,9.6-15.3,7.3c-0.3,0-0.5-0.2-0.8-0.3l-0.3-0.1
	c-0.2-0.1-0.3-0.1-0.5-0.2c-4.1-1.6-7.7-4.8-9.3-9.1c-1.7-4-1.4-8.4,0.9-12L1056.1,26.7z"/>
<polygon class="st13" points="1100,87 1100,29 1150,0 1200,29 1200,87 1150,116 "/>
<polygon class="st1" points="1195.6,84.5 1150,110.9 1104.4,84.5 1104.4,31.5 1150,5.1 1195.6,31.5 "/>
<polygon class="st14" points="1200,87 1200,29 1250,0 1300,29 1300,87 1250,116 "/>
<polygon class="st1" points="1295.6,84.5 1250,110.9 1204.4,84.5 1204.4,31.5 1250,5.1 1295.6,31.5 "/>
<path class="st14" d="M1234.3,70l-4.5,15h-9.9l16.8-52.8h12.3l17.1,52.8h-10.3l-4.8-15H1234.3z M1249.4,62.8l-4.2-12.9
	c-1-3.2-1.8-6.8-2.7-9.8h-0.2c-0.8,3-1.6,6.8-2.5,9.8l-4.1,12.9L1249.4,62.8z"/>
<path class="st14" d="M1280.1,36.2c0,2.9-2.1,5.2-5.5,5.2c-3.2,0-5.3-2.3-5.3-5.2c0-3,2.2-5.3,5.4-5.3
	C1278,31,1280,33.2,1280.1,36.2z M1269.9,85V46.9h9.7V85H1269.9z"/>
<polygon class="st14" points="1300,87 1300,29 1350,0 1400,29 1400,87 1350,116 "/>
<polygon class="st1" points="1395.6,84.5 1350,110.9 1304.4,84.5 1304.4,31.5 1350,5.1 1395.6,31.5 "/>
<polygon class="st15" points="1400,87 1400,29 1450,0 1500,29 1500,87 1450,116 "/>
<polygon class="st1" points="1495.6,84.5 1450,110.9 1404.4,84.5 1404.4,31.5 1450,5.1 1495.6,31.5 "/>
<path class="st15" d="M1417.9,32.3c3.4-0.6,8.2-1.1,14.5-1.1c7,0,12.1,1.5,15.4,4.3c3.1,2.6,5.1,6.7,5.1,11.5c0,5-1.6,9.1-4.5,11.9
	c-3.8,3.8-9.8,5.6-16.5,5.6c-1.8,0-3.4-0.1-4.7-0.3V84h-9.4L1417.9,32.3z M1427.3,56.7c1.2,0.3,2.7,0.4,4.7,0.4
	c7.1,0,11.4-3.5,11.4-9.6c0-5.8-4-8.9-10.6-8.9c-2.7,0-4.5,0.3-5.5,0.4V56.7z"/>
<path class="st15" d="M1457.2,75.2c2.2,1.3,6.3,2.8,9.7,2.8c4.2,0,6-1.7,6-4.2c0-2.6-1.6-3.9-6.2-5.5c-7.3-2.6-10.4-6.6-10.3-11
	c0-6.7,5.5-11.9,14.3-11.9c4.2,0,7.8,1.1,10,2.3l-1.8,6.8c-1.6-0.9-4.7-2.2-8-2.2c-3.4,0-5.3,1.6-5.3,3.9c0,2.4,1.8,3.6,6.6,5.3
	c6.8,2.5,10,5.9,10.1,11.5c0,6.8-5.3,11.8-15.3,11.8c-4.6,0-8.7-1.1-11.4-2.7L1457.2,75.2z"/>
<polygon class="st15" points="1500,87 1500,29 1550,0 1600,29 1600,87 1550,116 "/>
<polygon class="st1" points="1595.6,84.5 1550,110.9 1504.4,84.5 1504.4,31.5 1550,5.1 1595.6,31.5 "/>
<polygon class="st16" points="1600,87 1600,29 1650,0 1700,29 1700,87 1650,116 "/>
<polygon class="st1" points="1695.6,84.4 1650,110.9 1604.3,84.4 1604.3,31.6 1650,5.1 1695.6,31.6 "/>
<path class="st16" d="M1678.7,32.8c-0.7-2.6-2.5-4.8-5.4-6.4c-5.7-2.9-14.7-3.1-23.1-0.1c-4.9,1.8-14.4,5.7-21.5,12
	c-7.1,6.6-8.3,12.4-7.6,14.6c1.2,6.4,7.9,10.8,13.3,14.5c1.4,0.9,2.8,1.9,3.7,2.7c-3,1.5-11.2,6-13.3,10.7c-1.7,3.7-0.8,6.4-0.2,7.6
	c0.7,1.4,1.8,2.5,2.9,2.8s2.4,0.5,3.6,0.5c4.8,0,9.5-2.5,12.4-6.8s3.1-9.9,1.8-13.4c1.9-0.5,3.9-0.5,6.1-0.2
	c4.3,0.5,6.4,2.2,7.5,3.4c1.1,1.4,1.3,2.8,1.2,3.7c-0.2,1.6-1.6,2.6-2.2,3.1c-0.5,0.3-1,0.7-0.8,1.3c0.2,0.8,1.1,0.7,1.4,0.7
	c1-0.2,4.6-2,4.8-5.9c0.1-2.4-0.8-4.8-2.8-6.8c-2.4-2.5-6.1-3.9-10.3-3.7c-3.1,0-5.2,0.3-6.9,0.8l-0.1-0.1c-1.6-1.6-3.7-3.2-5.5-4.7
	c-4.4-3.2-8.5-6.4-8.3-11.2c0.4-5.9,6.2-11.7,17.6-17.2c10.1-4.9,18.3-5.1,22.7-3.6c1.8,0.7,3,1.5,3.4,2.5c0.8,1.9,0.5,4.2-1,6.8
	c-2.5,4.4-9,9.8-18.9,11c-6,0.7-8.5-2-8.7-2c-0.7-0.7-1.1-1.2-1.9-0.7s-0.5,1.6-0.2,2c0.5,1.2,2.4,3.2,5.5,4.4
	c2.5,0.8,9.1,1.4,17.2-1.6C1674.1,50.1,1680.6,40.4,1678.7,32.8z M1640.4,79.2c-0.1,0.2-0.1,0.5-0.2,0.7s-0.2,0.5-0.2,0.7
	c-0.5,0.9-1.1,2-2,2.8c-2.5,2.7-6,3.4-7.1,2.8c-0.4-0.2-0.5-0.5-0.5-0.9c-0.2-1.3,0.5-3.9,2.9-6.2c2.8-2.8,6.6-4.9,7.6-5.3
	C1641.1,75.7,1640.9,77.5,1640.4,79.2z"/>
<polygon class="st17" points="1800,87 1800,29 1850,0 1900,29 1900,87 1850,116 "/>
<polygon class="st1" points="1895.6,84.4 1850,110.9 1804.3,84.4 1804.3,31.6 1850,5.1 1895.6,31.6 "/>
<path class="st17" d="M1812.5,58.9c0,3.4,0.3,6.5,1,9.2c0.6,2.7,1.5,5.1,2.6,7.2c1.1,2,2.5,3.8,4.3,5.3c1.7,1.5,3.6,2.8,5.6,3.8
	s4.3,1.8,6.9,2.4s5.3,1,8,1.3c2.7,0.2,5.7,0.4,8.9,0.4c3.3,0,6.3-0.1,9-0.4c2.7-0.2,5.4-0.7,8-1.3c2.6-0.6,4.9-1.4,7-2.4
	c2-1,3.9-2.2,5.7-3.8c1.7-1.5,3.2-3.3,4.3-5.3c1.1-2,2-4.4,2.7-7.2c0.6-2.7,1-5.8,1-9.2c0-6.1-2-11.3-6.1-15.7
	c0.2-0.6,0.4-1.3,0.6-2c0.2-0.7,0.4-1.8,0.5-3.2c0.2-1.4,0.1-3-0.2-4.8c-0.3-1.8-0.8-3.6-1.6-5.5l-0.5-0.1c-0.4-0.1-1-0.1-1.9,0.1
	c-0.9,0.1-1.9,0.3-3.1,0.7c-1.2,0.3-2.7,1-4.6,1.9c-1.9,0.9-3.8,2.1-5.9,3.5c-3.6-1-8.5-1.5-14.7-1.5s-11.1,0.5-14.6,1.5
	c-2.1-1.4-4.1-2.6-5.9-3.5c-1.9-0.9-3.4-1.6-4.5-1.9c-1.1-0.3-2.2-0.5-3.1-0.6c-1-0.1-1.6-0.1-1.8-0.1c-0.3,0-0.5,0.1-0.6,0.1
	c-0.8,1.9-1.3,3.7-1.6,5.5c-0.3,1.8-0.3,3.4-0.2,4.8c0.2,1.4,0.3,2.4,0.5,3.2c0.2,0.7,0.4,1.4,0.6,2
	C1814.6,47.6,1812.5,52.9,1812.5,58.9z M1821.7,68.1c0-3.5,1.6-6.7,4.8-9.7c1-0.9,2.1-1.5,3.3-2c1.3-0.5,2.7-0.7,4.3-0.8
	c1.6-0.1,3.1,0,4.6,0c1.5,0.1,3.3,0.2,5.4,0.3s4,0.2,5.6,0.2s3.4-0.1,5.6-0.2c2.1-0.1,4-0.3,5.4-0.3c1.5-0.1,3-0.1,4.6,0
	s3,0.3,4.3,0.8s2.4,1.1,3.3,2c3.2,2.9,4.8,6.1,4.8,9.7c0,2.1-0.3,4-0.8,5.6s-1.2,3-2,4.1s-2,2-3.4,2.8c-1.5,0.8-2.9,1.4-4.2,1.8
	c-1.4,0.4-3.1,0.7-5.3,1c-2.2,0.2-4.1,0.4-5.8,0.4c-1.7,0-3.8,0.1-6.5,0.1s-4.8,0-6.5-0.1c-1.7,0-3.6-0.2-5.8-0.4
	c-2.2-0.2-3.9-0.6-5.3-1s-2.8-1-4.2-1.8c-1.5-0.8-2.6-1.7-3.4-2.8c-0.8-1.1-1.5-2.5-2-4.1S1821.7,70.2,1821.7,68.1z M1859.3,67.4
	c0,3.9,2.1,7,4.7,7s4.7-3.1,4.7-7s-2.1-7-4.7-7S1859.3,63.5,1859.3,67.4z M1831.2,67.4c0,3.9,2.1,7,4.7,7s4.7-3.1,4.7-7
	s-2.1-7-4.7-7S1831.2,63.5,1831.2,67.4z"/>
<polygon class="st18" points="2000,87 2000,29 2050,0 2100,29 2100,87 2050,116 "/>
<polygon class="st1" points="2095.6,84.4 2050,110.9 2004.3,84.4 2004.3,31.6 2050,5.1 2095.6,31.6 "/>
<path class="st18" d="M2050,95.2c-1,0-2-0.3-2.9-0.8L2038,89c-1.4-0.8-0.7-1-0.2-1.2c1.8-0.6,2.2-0.8,4.1-1.9
	c0.2-0.1,0.5-0.1,0.7,0.1l7,4.2c0.3,0.1,0.6,0.1,0.8,0l27.3-15.7c0.3-0.1,0.4-0.4,0.4-0.7V42.2c0-0.3-0.2-0.6-0.4-0.8l-27.3-15.7
	c-0.3-0.1-0.6-0.1-0.8,0l-27.3,15.7c-0.3,0.2-0.4,0.4-0.4,0.7v31.5c0,0.3,0.2,0.6,0.4,0.7l7.5,4.3c4.1,2,6.5-0.4,6.5-2.8V44.9
	c0-0.4,0.4-0.8,0.8-0.8h3.5c0.4,0,0.8,0.3,0.8,0.8V76c0,5.4-2.9,8.5-8.1,8.5c-1.6,0-2.8,0-6.3-1.7l-7.2-4.1c-1.8-1-2.9-2.9-2.9-5
	V42.2c0-2,1.1-4,2.9-5l27.3-15.8c1.7-1,4-1,5.7,0l27.3,15.8c1.8,1,2.9,2.9,2.9,5v31.5c0,2-1.1,3.9-2.9,5l-27.3,15.8
	C2052,95,2051,95.2,2050,95.2z"/>
<path class="st18" d="M2058.4,73.5c-11.9,0-14.4-5.5-14.4-10.1c0-0.4,0.4-0.8,0.8-0.8h3.5c0.4,0,0.7,0.3,0.8,0.7
	c0.5,3.6,2.1,5.4,9.3,5.4c5.7,0,8.2-1.3,8.2-4.4c0-1.8-0.7-3.1-9.6-3.9c-7.5-0.7-12.1-2.4-12.1-8.4c0-5.5,4.6-8.8,12.4-8.8
	c8.7,0,13.1,3,13.6,9.5c0,0.2-0.1,0.4-0.2,0.6c-0.1,0.2-0.4,0.3-0.6,0.3h-3.5c-0.4,0-0.7-0.3-0.8-0.6c-0.8-3.8-2.9-5-8.5-5
	c-6.3,0-7,2.2-7,3.8c0,2,0.9,2.6,9.3,3.7c8.4,1.1,12.4,2.7,12.4,8.6C2072,70.1,2067,73.5,2058.4,73.5z"/>
<polygon class="st19" points="2200,87 2200,29 2250,0 2300,29 2300,87 2250,116 "/>
<polygon class="st1" points="2295.6,84.4 2250,110.9 2204.3,84.4 2204.3,31.6 2250,5.1 2295.6,31.6 "/>
<path class="st19" d="M2287.4,54.5l-34-34c-2-2-5.1-2-7.1,0l-7.1,7.1l8.9,8.9c2.1-0.7,4.5-0.2,6.1,1.4c1.7,1.7,2.1,4.1,1.4,6.2
	l8.6,8.6c2.1-0.7,4.5-0.3,6.2,1.4c2.3,2.3,2.3,6.1,0,8.4c-2.3,2.3-6.1,2.3-8.4,0c-1.8-1.8-2.2-4.3-1.3-6.5l-8-8v21.2
	c0.6,0.3,1.1,0.7,1.6,1.1c2.3,2.3,2.3,6.1,0,8.4c-2.3,2.3-6.1,2.3-8.4,0s-2.3-6.1,0-8.4c0.6-0.6,1.2-1,2-1.3V47.7
	c-0.7-0.3-1.4-0.7-2-1.3c-1.8-1.8-2.2-4.4-1.3-6.5l-8.8-8.8l-23.3,23.3c-2,2-2,5.1,0,7.1l34,34c2,2,5.1,2,7.1,0l33.8-33.8
	C2289.3,59.7,2289.3,56.5,2287.4,54.5z"/>
<polygon class="st20" points="2400,87 2400,29 2450,0 2500,29 2500,87 2450,116 "/>
<polygon class="st1" points="2495.6,84.4 2450,110.9 2404.3,84.4 2404.3,31.6 2450,5.1 2495.6,31.6 "/>
<path class="st20" d="M2449.8,78c-4.1,0-7.2-0.6-8.7-1c-1-0.2-1.9-0.5-2.5-0.8l2,3.4l0.8,10.7c0,1.2,3.8,2.2,8.5,2.2s8.5-1,8.5-2.2
	l0.6-10.8l1.9-3.3c-0.6,0.3-1.5,0.5-2.5,0.8C2457,77.4,2453.9,78,2449.8,78z M2461.1,43.1c-3,0.4-6.9,0.6-11.1,0.6
	s-8.1-0.2-11.1-0.6c-1.5-0.2-2.6-0.4-3.5-0.7c-0.2-0.1-0.5-0.2-0.9-0.4l1.8,17c0.1-0.3,0.2-0.6,0.3-0.9c0.2-0.6,0.5-1.2,0.8-1.7
	c0.3-0.6,0.6-1.1,0.9-1.6c0.3-0.5,0.7-1,1.1-1.4c0.4-0.4,0.8-0.8,1.2-1.1c0.4-0.3,0.8-0.5,1.2-0.7c0.4-0.2,0.8-0.3,1.2-0.3
	c0.5,0,0.9,0.1,1.3,0.4c0.4,0.3,0.8,0.7,1.2,1.2c0.1,0.1,0.1,0.3,0.2,0.4c0,0.1,0,0.2,0,0.4c0,0.3-0.1,0.5-0.2,0.6
	c-0.1,0.2-0.3,0.2-0.5,0.2s-0.3-0.1-0.4-0.3c-0.1-0.2-0.3-0.4-0.5-0.7s-0.3-0.5-0.5-0.6s-0.4-0.2-0.6-0.2c-0.4,0-0.7,0.1-1.1,0.4
	c-0.4,0.3-0.8,0.7-1.2,1.2s-0.8,1-1.1,1.6c-0.4,0.6-0.7,1.2-1,1.9c-0.3,0.6-0.5,1.3-0.7,1.9c-0.2,0.6-0.2,1.2-0.2,1.7
	c0,0.2,0,0.3,0,0.5c0,0.2,0.1,0.3,0.1,0.5c0.1,0.1,0.1,0.3,0.3,0.4c0.1,0.1,0.2,0.1,0.4,0.1s0.4-0.1,0.6-0.2
	c0.2-0.1,0.5-0.3,0.7-0.5c0.3-0.2,0.5-0.4,0.8-0.7s0.5-0.5,0.7-0.8s0.4-0.5,0.6-0.8c0.2-0.2,0.3-0.5,0.4-0.6l0.7-2.1
	c0.1-0.2,0.2-0.4,0.3-0.5s0.3-0.1,0.4-0.1h0.2l0.2,0.1l0.1,0.2c0,0.1,0,0.2,0,0.3c0,0.3,0,0.6-0.1,0.8s-0.1,0.5-0.2,0.7
	c-0.1,0.2-0.2,0.5-0.3,0.7s-0.2,0.5-0.3,0.8c0,0-0.1,0.1-0.1,0.3c-0.1,0.2-0.1,0.4-0.2,0.6c-0.1,0.2-0.2,0.5-0.2,0.8
	c-0.1,0.3-0.2,0.6-0.3,0.9c-0.1,0.3-0.2,0.6-0.3,0.9c-0.1,0.3-0.2,0.6-0.2,0.8c-0.1,0.2-0.1,0.4-0.2,0.6c0,0.2-0.1,0.3-0.1,0.3
	c0,0.1-0.1,0.2-0.1,0.3c-0.1,0.1-0.1,0.2-0.2,0.3c-0.1,0.1-0.2,0.2-0.2,0.3c-0.1,0.1-0.2,0.1-0.3,0.1c-0.2,0-0.3-0.1-0.4-0.2
	c-0.1-0.1-0.1-0.3-0.1-0.6v-0.1v-0.1c0-0.1,0-0.3,0.1-0.5c0.1-0.3,0.2-0.6,0.3-0.9c0.1-0.3,0.2-0.7,0.3-1c0.1-0.4,0.2-0.7,0.3-1
	c-0.3,0.3-0.6,0.6-0.9,0.9c-0.3,0.3-0.6,0.6-1,0.8c-0.3,0.2-0.7,0.4-1,0.6c-0.3,0.1-0.7,0.2-1,0.2c-0.4,0-0.7-0.1-0.9-0.2l-0.1-0.1
	l1,10.8c0.3,0.7,5.3,2.3,11.9,2.3c6.6,0,11.7-1.6,11.9-2.3l1.5-12.8c-0.1,0.1-0.2,0.2-0.4,0.3c-0.4,0.4-0.8,0.7-1.2,1
	s-0.7,0.5-1.1,0.7c-0.4,0.2-0.7,0.2-1.1,0.2c-0.4,0-0.7-0.1-0.9-0.3c-0.2-0.2-0.3-0.4-0.3-0.7v-0.1v-0.1c0-0.2,0.1-0.4,0.2-0.6
	c0.1-0.2,0.3-0.5,0.5-0.7c0.2-0.3,0.4-0.5,0.6-0.8c0.2-0.3,0.4-0.5,0.6-0.7c0.2-0.2,0.3-0.4,0.5-0.6c0.1-0.2,0.2-0.3,0.2-0.5
	l-0.1-0.2c-0.1,0-0.1-0.1-0.2-0.1c-0.2,0-0.4,0.1-0.6,0.2c-0.2,0.1-0.4,0.2-0.6,0.4c-0.2,0.2-0.4,0.4-0.6,0.6
	c-0.2,0.2-0.4,0.5-0.6,0.7c-0.2,0.2-0.3,0.5-0.5,0.7c-0.1,0.2-0.3,0.5-0.4,0.7c0,0.1-0.1,0.2-0.1,0.3c-0.1,0.1-0.1,0.3-0.2,0.4
	c-0.1,0.1-0.1,0.3-0.2,0.5c-0.1,0.2-0.1,0.3-0.2,0.4c-0.1,0.1-0.1,0.3-0.2,0.4c0,0.1-0.1,0.2-0.1,0.2c0,0.1-0.1,0.2-0.1,0.3
	c-0.1,0.1-0.1,0.3-0.2,0.5s-0.2,0.4-0.2,0.6c-0.1,0.2-0.2,0.4-0.2,0.6c-0.1,0.2-0.1,0.4-0.2,0.5c-0.1,0.1-0.1,0.3-0.1,0.3
	c-0.1,0.2-0.1,0.3-0.2,0.4c-0.1,0.1-0.1,0.3-0.2,0.4c-0.1,0.1-0.2,0.2-0.3,0.3c-0.1,0.1-0.2,0.1-0.4,0.1s-0.3,0-0.4-0.1
	c-0.1-0.1-0.2-0.3-0.2-0.5c0-0.1,0-0.2,0-0.4c0-0.1,0.1-0.2,0.1-0.4c0-0.1,0.1-0.2,0.1-0.4c0-0.1,0.1-0.2,0.1-0.3
	c0.3-0.6,0.5-1.2,0.8-1.8c0.3-0.6,0.6-1.2,0.8-1.8c0.1-0.1,0.1-0.2,0.2-0.4c-0.3,0.3-0.7,0.6-1,0.8s-0.6,0.4-1,0.6
	c-0.3,0.1-0.6,0.2-0.9,0.2c-0.2,0-0.4,0-0.5-0.1s-0.2-0.2-0.3-0.3s-0.1-0.2-0.2-0.4V63l-0.3,0.2c-0.3,0.2-0.6,0.4-0.9,0.5
	c-0.3,0.1-0.6,0.2-0.8,0.2s-0.4-0.1-0.6-0.2c-0.2-0.2-0.2-0.4-0.2-0.8c0-0.3,0-0.6,0.1-1c-0.1,0.2-0.3,0.5-0.5,0.7s-0.4,0.5-0.7,0.7
	s-0.5,0.4-0.8,0.5s-0.7,0.2-1,0.2c-0.2,0-0.3,0-0.5-0.1c-0.2,0-0.3-0.1-0.4-0.2c-0.1-0.1-0.2-0.2-0.3-0.4s-0.1-0.4-0.1-0.6
	c0,0,0-0.1,0-0.3s0.1-0.5,0.2-0.8c0.1-0.4,0.3-0.9,0.5-1.5s0.5-1.3,1-2.2c0.1-0.2,0.2-0.4,0.4-0.5c0.1-0.1,0.3-0.1,0.4-0.1h0.2
	l0.2,0.1l0.2,0.2l0.1,0.2V58c0,0.1-0.1,0.2-0.2,0.4c-0.1,0.2-0.2,0.4-0.3,0.6c-0.1,0.2-0.2,0.4-0.4,0.7c-0.1,0.2-0.2,0.5-0.3,0.8
	s-0.2,0.5-0.3,0.8s-0.1,0.5-0.1,0.8c0,0.1,0,0.2,0.1,0.3s0.1,0.1,0.2,0.1c0.3,0,0.6-0.1,0.9-0.3c0.3-0.2,0.6-0.5,0.8-0.8
	c0.3-0.3,0.5-0.7,0.7-1c0.2-0.4,0.4-0.7,0.5-1c0.1-0.2,0.2-0.4,0.3-0.7c0.1-0.2,0.2-0.4,0.2-0.6c0.1-0.2,0.2-0.4,0.3-0.5
	s0.2-0.2,0.4-0.2s0.3,0.1,0.4,0.2c0.1,0.1,0.2,0.3,0.2,0.5c0,0.1,0,0.3-0.1,0.4c-0.1,0.2-0.2,0.4-0.3,0.6c-0.1,0.2-0.2,0.5-0.3,0.8
	s-0.2,0.6-0.3,0.8c-0.1,0.3-0.2,0.6-0.3,0.8c-0.1,0.3-0.1,0.5-0.1,0.8c0,0.2,0.1,0.3,0.3,0.3s0.3-0.1,0.6-0.2
	c0.2-0.1,0.5-0.3,0.7-0.5l0.2-0.2c0.1-0.3,0.2-0.6,0.3-0.8c0.2-0.5,0.4-0.9,0.5-1.4c0.2-0.5,0.3-0.9,0.5-1.3l2.3-5.8
	c0.1-0.2,0.2-0.4,0.4-0.5s0.3-0.1,0.5-0.1s0.3,0.1,0.4,0.2c0.1,0.1,0.2,0.3,0.2,0.5c0,0.1,0,0.2-0.1,0.3c0,0.1-0.1,0.2-0.2,0.4
	c-0.1,0.3-0.3,0.6-0.4,1c-0.2,0.4-0.4,0.8-0.6,1.3c-0.2,0.5-0.4,1-0.6,1.5c-0.2,0.5-0.4,1-0.6,1.5c-0.2,0.5-0.4,1-0.6,1.4
	c-0.2,0.4-0.3,0.8-0.4,1.1c-0.1,0.1-0.1,0.3-0.2,0.5c-0.1,0.2-0.1,0.3-0.1,0.5v0.2l0.2,0.1c0.1,0,0.2,0,0.4-0.1s0.3-0.2,0.5-0.3
	c0.2-0.1,0.4-0.3,0.6-0.4c0.2-0.2,0.4-0.3,0.6-0.5c0.2-0.2,0.4-0.3,0.6-0.5c0.2-0.2,0.3-0.3,0.5-0.5l0.1-0.1
	c0.1-0.3,0.2-0.5,0.2-0.7c0-0.1,0.1-0.3,0.2-0.5c0.1-0.2,0.2-0.4,0.2-0.6c0.1-0.2,0.2-0.4,0.3-0.5s0.2-0.2,0.4-0.2s0.3,0,0.4,0.1
	c0.1,0.1,0.1,0.2,0.1,0.4v0.2v0.2v0.2v0.2c0.2-0.2,0.4-0.4,0.6-0.6c0.2-0.2,0.4-0.4,0.7-0.5c0.2-0.2,0.5-0.3,0.7-0.4
	c0.2-0.1,0.5-0.2,0.7-0.2s0.3,0,0.5,0.1c0.2,0,0.3,0.1,0.4,0.2c0.1,0.1,0.2,0.2,0.3,0.3s0.1,0.3,0.1,0.5s-0.1,0.5-0.2,0.8
	c-0.1,0.3-0.3,0.6-0.5,0.8c-0.2,0.3-0.4,0.6-0.6,0.8c-0.2,0.3-0.4,0.5-0.6,0.7c-0.2,0.2-0.3,0.4-0.5,0.6c-0.1,0.2-0.2,0.3-0.2,0.3
	l0.1,0.2c0,0,0.1,0.1,0.2,0.1c0.1,0,0.2,0,0.4-0.1s0.4-0.3,0.7-0.5c0.3-0.2,0.7-0.6,1.1-0.9c0.3-0.3,0.7-0.6,1.1-1l2-18.5
	c-0.3,0.2-0.7,0.3-0.9,0.4C2463.7,42.7,2462.6,42.9,2461.1,43.1z M2449.9,38.7c-8.6,0-15.6,1-15.6,2.2c0,1.2,7,2.2,15.6,2.2
	s15.6-1,15.6-2.2C2465.5,39.7,2458.6,38.7,2449.9,38.7z M2456.2,41.5c0,0.3-0.8,0.5-1.9,0.5c-1,0-1.9-0.2-1.9-0.5
	c0-0.3,0.8-0.5,1.9-0.5S2456.2,41.2,2456.2,41.5z"/>
<path class="st20" d="M2452.9,41.3L2452.9,41.3c0,0.2,0.7,0.4,1.5,0.4s1.5-0.1,1.5-0.3l2-7.9l7.8-8.2c0.2-0.2-0.2-0.8-0.7-1.3
	c-0.6-0.5-1.2-0.7-1.3-0.5l-8.3,8.7L2452.9,41.3z"/>
<polygon class="st21" points="2600,87 2600,29 2650,0 2700,29 2700,87 2650,116 "/>
<polygon class="st1" points="2695.6,84.4 2650,110.9 2604.3,84.4 2604.3,31.6 2650,5.1 2695.6,31.6 "/>
<path class="st22" d="M2671.8,42.6c1.2-6.1,0.5-10.7-2.3-12.6c-0.9-0.6-2.1-0.9-3.4-0.8c-6.9,0.3-18,9.7-27.1,23.7
	c-10.8,16.6-14.6,33.1-8.5,37.1c2.9,1.9,7.4,0.5,12.6-3.1"/>
<path class="st22" d="M2677.3,69.7c5.1-2,8.2-4.7,8.4-7.8c0.4-7.2-15.3-13.9-35-14.9c-1.8-0.1-3.7-0.1-5.4-0.1
	c-17.2,0.1-30.6,4.8-30.9,11.3c-0.2,3.1,2.7,6.1,7.5,8.6"/>
<path class="st22" d="M2645.2,31.9c-3.5-2.9-6.8-4.5-9.4-4.3c-0.7,0.1-1.3,0.2-2,0.5c-6.4,3.3-4.4,20.2,4.6,37.8
	s21.4,29.2,27.9,25.9c6.2-3.1,4.5-18.9-3.6-35.8"/>
<circle class="st21" cx="2650.3" cy="60.5" r="4.3"/>
<polygon class="st23" points="2800,87 2800,29 2850,0 2900,29 2900,87 2850,116 "/>
<polygon class="st1" points="2895.6,84.4 2850,110.9 2804.3,84.4 2804.3,31.6 2850,5.1 2895.6,31.6 "/>
<path class="st23" d="M2874.3,46.2c-0.8-0.3-1.6-0.5-2.4-0.8c0.2-0.5,0.2-1.1,0.4-1.7c1.8-8.9,0.6-16.2-3.5-18.5
	c-3.9-2.3-10.4,0.1-16.9,5.7c-0.6,0.5-1.3,1.1-1.9,1.7c-0.4-0.4-0.8-0.8-1.3-1.1c-6.8-6-13.7-8.6-17.8-6.3
	c-3.9,2.3-5.1,9.1-3.5,17.5c0.2,0.8,0.4,1.7,0.5,2.5c-1,0.3-1.9,0.6-2.8,0.9c-7.9,2.7-13,7.1-13,11.6c0,4.7,5.5,9.4,13.8,12.2
	c0.7,0.2,1.4,0.5,2,0.6c-0.2,0.9-0.5,1.8-0.6,2.7c-1.6,8.3-0.4,15,3.6,17.2c4.1,2.3,10.9-0.1,17.5-5.9c0.5-0.5,1.1-0.9,1.6-1.4
	c0.7,0.6,1.4,1.3,2,1.9c6.4,5.5,12.8,7.8,16.7,5.5c4.1-2.3,5.4-9.5,3.6-18.1c-0.2-0.7-0.3-1.4-0.5-2c0.5-0.2,1-0.3,1.4-0.5
	c8.7-2.9,14.3-7.5,14.3-12.2C2887.8,53.3,2882.5,49,2874.3,46.2z"/>
<path class="st1" d="M2872.5,67.1c-0.4,0.2-0.8,0.3-1.3,0.4c-1-3-2.3-6.3-3.9-9.6c1.5-3.3,2.7-6.4,3.7-9.5c0.8,0.2,1.5,0.5,2.3,0.7
	c7,2.4,11.3,6,11.3,8.7C2884.5,60.8,2879.9,64.6,2872.5,67.1z M2869.4,73.2c0.8,3.9,0.8,7.3,0.4,10c-0.5,2.4-1.4,4.1-2.5,4.7
	c-2.4,1.4-7.5-0.4-13-5.1c-0.6-0.5-1.3-1.1-1.9-1.7c2.1-2.3,4.2-5.1,6.4-8c3.6-0.3,7.1-0.8,10.2-1.6
	C2869.1,72,2869.3,72.6,2869.4,73.2z M2838,87.7c-2.3,0.8-4.2,0.8-5.3,0.2c-2.4-1.4-3.4-6.7-2-13.8c0.2-0.8,0.4-1.7,0.5-2.5
	c3.1,0.7,6.5,1.2,10.2,1.5c2.1,2.9,4.3,5.7,6.5,8c-0.5,0.5-1,0.9-1.4,1.4C2843.5,84.9,2840.6,86.8,2838,87.7z M2827.1,67.1
	c-3.7-1.3-6.7-2.9-8.8-4.7c-1.9-1.6-2.8-3.2-2.8-4.5c0-2.7,4.1-6.3,11-8.6c0.8-0.3,1.7-0.6,2.6-0.8c1,3.1,2.2,6.3,3.7,9.5
	c-1.5,3.3-2.8,6.6-3.7,9.7C2828.3,67.5,2827.7,67.3,2827.1,67.1z M2830.7,42.2c-1.4-7.3-0.5-12.8,1.9-14.1c2.5-1.4,8.1,0.6,14,5.8
	c0.4,0.3,0.8,0.7,1.1,1.1c-2.2,2.3-4.4,5.1-6.4,7.9c-3.6,0.3-7,0.8-10.1,1.6C2831,43.7,2830.9,43,2830.7,42.2z M2863.3,50.2
	c-0.8-1.3-1.5-2.6-2.3-3.8c2.4,0.3,4.7,0.7,6.9,1.2c-0.7,2.1-1.4,4.3-2.4,6.5C2864.8,52.8,2864.1,51.5,2863.3,50.2z M2850,37.3
	c1.5,1.6,2.9,3.4,4.5,5.4c-2.9-0.2-6-0.2-8.9,0C2847.1,40.7,2848.5,38.9,2850,37.3z M2836.6,50.2c-0.8,1.3-1.4,2.6-2.1,3.9
	c-0.9-2.3-1.7-4.5-2.4-6.6c2.2-0.5,4.5-0.9,6.9-1.2C2838.1,47.7,2837.4,49,2836.6,50.2z M2839,69.6c-2.5-0.3-4.8-0.7-7-1.1
	c0.7-2.2,1.5-4.4,2.4-6.7c0.7,1.3,1.4,2.6,2.1,3.9C2837.5,67,2838.2,68.3,2839,69.6z M2850.2,78.7c-1.5-1.7-3-3.5-4.5-5.4
	c1.4,0.1,2.9,0.1,4.5,0.1s3.1,0,4.5-0.1C2853.1,75.3,2851.6,77.1,2850.2,78.7z M2865.6,61.7c1,2.3,1.9,4.5,2.6,6.7
	c-2.2,0.5-4.5,0.9-7,1.2c0.8-1.3,1.6-2.6,2.3-3.9C2864.1,64.3,2864.8,63,2865.6,61.7z M2860.6,64.1c-1.1,2-2.3,3.9-3.6,5.8
	c-2.3,0.2-4.5,0.2-7,0.2c-2.3,0-4.6-0.1-6.9-0.2c-1.3-1.9-2.6-3.9-3.7-5.9c-1.1-2-2.2-4-3.3-6.1c1-2,2-4.1,3.3-6.1
	c1.1-2,2.3-3.9,3.6-5.8c2.3-0.2,4.5-0.2,6.9-0.2c2.3,0,4.6,0.1,6.9,0.2c1.3,1.9,2.5,3.9,3.6,5.8c1.1,2,2.3,4,3.3,6
	C2862.8,60,2861.7,62,2860.6,64.1z M2867.2,27.9c2.5,1.4,3.6,7.3,1.9,15c-0.1,0.5-0.2,1-0.3,1.5c-3.1-0.8-6.6-1.3-10.1-1.6
	c-2-2.9-4.2-5.7-6.4-7.9c0.5-0.5,1.1-1.1,1.7-1.6C2859.6,28.5,2864.8,26.6,2867.2,27.9z"/>
<path class="st23" d="M2850,51.2c3.7,0,6.7,3,6.7,6.7s-3,6.7-6.7,6.7s-6.7-3-6.7-6.7S2846.3,51.2,2850,51.2"/>
<polygon class="st23" points="2900,87 2900,29 2950,0 3000,29 3000,87 2950,116 "/>
<polygon class="st1" points="2995.6,84.4 2950,110.9 2904.3,84.4 2904.3,31.6 2950,5.1 2995.6,31.6 "/>
<path d="M509.8,65.3h-1.9V51.7h5.4c0.5,0,1,0.1,1.5,0.3c0.5,0.2,0.9,0.5,1.2,0.8c0.3,0.3,0.6,0.8,0.8,1.2s0.3,1,0.3,1.5
	c0,0.3,0,0.6-0.1,0.9c-0.1,0.3-0.2,0.6-0.4,0.9c-0.1,0.3-0.3,0.5-0.5,0.7c-0.2,0.2-0.4,0.3-0.6,0.3l0.2,0l0.2,0.1l0.3,0.1l0.2,0.2
	c0.4,0.4,0.7,0.8,0.9,1.3c0.2,0.5,0.4,1,0.4,1.6c0,0.5-0.1,1.1-0.3,1.5c-0.2,0.5-0.5,0.9-0.8,1.2c-0.4,0.4-0.8,0.6-1.2,0.8
	c-0.5,0.2-1,0.3-1.5,0.3L509.8,65.3z M509.8,53.5v3.9h3.5c0.3,0,0.5-0.1,0.8-0.2c0.2-0.1,0.4-0.2,0.6-0.4c0.2-0.2,0.3-0.4,0.4-0.6
	c0.1-0.2,0.2-0.5,0.2-0.8c0-0.3-0.1-0.5-0.2-0.8c-0.1-0.2-0.2-0.4-0.4-0.6c-0.2-0.2-0.4-0.3-0.6-0.4c-0.2-0.1-0.5-0.2-0.8-0.2H509.8
	z M513.8,63.4c0.3,0,0.6-0.1,0.8-0.2c0.2-0.1,0.5-0.3,0.6-0.4c0.2-0.2,0.3-0.4,0.4-0.7c0.1-0.2,0.2-0.5,0.2-0.8s-0.1-0.5-0.2-0.8
	c-0.1-0.2-0.3-0.5-0.4-0.6c-0.2-0.2-0.4-0.3-0.6-0.4c-0.2-0.1-0.5-0.2-0.8-0.2h-4v4.1H513.8z"/>
<path d="M519.5,60.3c0-0.7,0.1-1.4,0.4-2c0.3-0.6,0.6-1.2,1.1-1.6c0.5-0.5,1-0.8,1.6-1.1c0.6-0.3,1.3-0.4,2-0.4s1.4,0.1,2,0.4
	c0.6,0.3,1.2,0.6,1.6,1.1c0.5,0.5,0.8,1,1.1,1.6c0.3,0.6,0.4,1.3,0.4,2c0,0.7-0.1,1.4-0.4,2c-0.3,0.6-0.6,1.2-1.1,1.6
	c-0.5,0.5-1,0.8-1.6,1.1c-0.6,0.3-1.3,0.4-2,0.4s-1.4-0.1-2-0.4c-0.6-0.3-1.2-0.6-1.6-1.1c-0.5-0.5-0.8-1-1.1-1.6
	C519.6,61.7,519.5,61,519.5,60.3z M521.3,60.3c0,0.5,0.1,0.9,0.3,1.3c0.2,0.4,0.4,0.7,0.7,1c0.3,0.3,0.6,0.5,1,0.7
	c0.4,0.2,0.8,0.3,1.3,0.3s0.9-0.1,1.3-0.3c0.4-0.2,0.7-0.4,1-0.7c0.3-0.3,0.5-0.6,0.7-1c0.2-0.4,0.3-0.8,0.3-1.3
	c0-0.5-0.1-0.9-0.3-1.3c-0.2-0.4-0.4-0.7-0.7-1c-0.3-0.3-0.6-0.5-1-0.7c-0.4-0.2-0.8-0.3-1.3-0.3s-0.9,0.1-1.3,0.3
	c-0.4,0.2-0.7,0.4-1,0.7c-0.3,0.3-0.5,0.6-0.7,1C521.4,59.4,521.3,59.8,521.3,60.3z"/>
<path d="M531.1,60.3c0-0.7,0.1-1.4,0.4-2c0.3-0.6,0.6-1.2,1.1-1.6c0.5-0.5,1-0.8,1.6-1.1c0.6-0.3,1.3-0.4,2-0.4s1.4,0.1,2,0.4
	c0.6,0.3,1.2,0.6,1.6,1.1c0.5,0.5,0.8,1,1.1,1.6c0.3,0.6,0.4,1.3,0.4,2c0,0.7-0.1,1.4-0.4,2c-0.3,0.6-0.6,1.2-1.1,1.6
	c-0.5,0.5-1,0.8-1.6,1.1c-0.6,0.3-1.3,0.4-2,0.4s-1.4-0.1-2-0.4c-0.6-0.3-1.2-0.6-1.6-1.1c-0.5-0.5-0.8-1-1.1-1.6
	C531.3,61.7,531.1,61,531.1,60.3z M533,60.3c0,0.5,0.1,0.9,0.3,1.3c0.2,0.4,0.4,0.7,0.7,1c0.3,0.3,0.6,0.5,1,0.7
	c0.4,0.2,0.8,0.3,1.3,0.3s0.9-0.1,1.3-0.3c0.4-0.2,0.7-0.4,1-0.7c0.3-0.3,0.5-0.6,0.7-1c0.2-0.4,0.3-0.8,0.3-1.3
	c0-0.5-0.1-0.9-0.3-1.3c-0.2-0.4-0.4-0.7-0.7-1c-0.3-0.3-0.6-0.5-1-0.7c-0.4-0.2-0.8-0.3-1.3-0.3s-0.9,0.1-1.3,0.3
	c-0.4,0.2-0.7,0.4-1,0.7c-0.3,0.3-0.5,0.6-0.7,1C533,59.4,533,59.8,533,60.3z"/>
<path d="M545.7,62.8c0,0.1,0,0.2,0,0.3c0,0.1,0.1,0.2,0.1,0.3l0.2,0.2c0.1,0.1,0.2,0.1,0.3,0.1l0.2,0c0.3-0.1,0.5-0.1,0.7-0.1
	c0.3,0,0.5,0.1,0.7,0.2s0.4,0.3,0.5,0.5l0.2,0.3c-0.1,0.1-0.3,0.2-0.5,0.3c-0.2,0.1-0.4,0.2-0.6,0.3c-0.2,0.1-0.4,0.1-0.7,0.2
	c-0.2,0.1-0.4,0.1-0.6,0.1c-0.4,0-0.8-0.1-1.1-0.2c-0.3-0.1-0.6-0.3-0.8-0.6c-0.2-0.2-0.4-0.5-0.5-0.8c-0.1-0.3-0.2-0.7-0.2-1.1
	v-5.7h-1.7v-1c0-0.5,0.5-0.8,1.5-0.8h0.2v-2.1c0-0.2,0-0.4,0.1-0.6c0-0.2,0.1-0.3,0.2-0.5c0.1-0.2,0.1-0.3,0.2-0.4h1.4v3.5h2.8v1.8
	h-2.8V62.8z"/>
<path d="M550.2,63.1c0.1-0.1,0.3-0.1,0.4-0.2c0.1,0,0.2-0.1,0.4-0.1c0.2,0,0.3,0,0.5,0.1c0.1,0.1,0.3,0.2,0.5,0.3
	c0.1,0.1,0.3,0.2,0.5,0.2c0.2,0,0.3,0.1,0.5,0.1c0.2,0,0.4,0,0.6-0.1s0.4-0.1,0.5-0.3c0.2-0.1,0.3-0.3,0.4-0.4
	c0.1-0.2,0.1-0.4,0.1-0.6c0-0.2,0-0.3-0.1-0.5c-0.1-0.1-0.1-0.2-0.3-0.3c-0.1-0.1-0.3-0.2-0.5-0.3c-0.2-0.1-0.5-0.2-0.8-0.3
	c-0.3-0.1-0.7-0.3-1-0.4c-0.3-0.2-0.6-0.3-0.9-0.6c-0.3-0.2-0.5-0.5-0.6-0.8c-0.2-0.3-0.2-0.7-0.2-1.1c0-0.4,0.1-0.7,0.3-1.1
	c0.2-0.3,0.4-0.6,0.7-0.9c0.3-0.2,0.6-0.4,1-0.6c0.4-0.1,0.7-0.2,1.1-0.2c0.4,0,0.7,0.1,1.1,0.2c0.3,0.1,0.6,0.3,0.8,0.5
	c0.2,0.2,0.4,0.3,0.6,0.5c0.1,0.2,0.2,0.3,0.3,0.3l-0.4,0.4c-0.3,0.2-0.6,0.3-0.9,0.3c-0.1,0-0.3,0-0.4-0.1
	c-0.1-0.1-0.3-0.1-0.5-0.2c-0.1-0.1-0.3-0.1-0.4-0.1c-0.2,0-0.5,0-0.6,0.1c-0.2,0.1-0.3,0.2-0.4,0.3s-0.2,0.2-0.2,0.3
	s-0.1,0.2-0.1,0.3c0,0.2,0,0.3,0.1,0.5c0.1,0.1,0.2,0.2,0.4,0.3c0.2,0.1,0.3,0.2,0.5,0.2c0.2,0.1,0.4,0.1,0.6,0.2
	c0.4,0.1,0.7,0.3,1.1,0.4c0.4,0.2,0.7,0.4,0.9,0.6c0.3,0.2,0.5,0.5,0.7,0.9c0.2,0.3,0.2,0.7,0.2,1.2c0,0.4-0.1,0.8-0.3,1.2
	c-0.2,0.4-0.4,0.7-0.7,1c-0.3,0.3-0.7,0.5-1.1,0.7c-0.4,0.2-0.9,0.3-1.4,0.3c-0.3,0-0.7,0-1-0.1s-0.6-0.2-0.9-0.4
	c-0.3-0.2-0.5-0.4-0.8-0.6c-0.2-0.2-0.4-0.5-0.6-0.8L550.2,63.1z"/>
<path d="M561,62.8c0,0.1,0,0.2,0,0.3c0,0.1,0.1,0.2,0.1,0.3l0.2,0.2c0.1,0.1,0.2,0.1,0.3,0.1l0.2,0c0.3-0.1,0.5-0.1,0.7-0.1
	c0.3,0,0.5,0.1,0.7,0.2s0.4,0.3,0.5,0.5l0.2,0.3c-0.1,0.1-0.3,0.2-0.5,0.3c-0.2,0.1-0.4,0.2-0.6,0.3c-0.2,0.1-0.4,0.1-0.7,0.2
	c-0.2,0.1-0.4,0.1-0.6,0.1c-0.4,0-0.8-0.1-1.1-0.2c-0.3-0.1-0.6-0.3-0.8-0.6c-0.2-0.2-0.4-0.5-0.5-0.8c-0.1-0.3-0.2-0.7-0.2-1.1
	v-5.7h-1.7v-1c0-0.5,0.5-0.8,1.5-0.8h0.2v-2.1c0-0.2,0-0.4,0.1-0.6c0-0.2,0.1-0.3,0.2-0.5c0.1-0.2,0.1-0.3,0.2-0.4h1.4v3.5h2.8v1.8
	H561V62.8z"/>
<path d="M567.4,55.3l0.1,0.2c0,0.1,0.1,0.2,0.1,0.3c0,0.1,0,0.2,0,0.3v0.7c0.1-0.2,0.3-0.4,0.5-0.6c0.2-0.2,0.4-0.4,0.7-0.5
	c0.3-0.1,0.5-0.3,0.8-0.4c0.3-0.1,0.6-0.1,0.9-0.1c0.5,0,1,0.1,1.5,0.3l-0.1,0.8c-0.1,0.3-0.2,0.5-0.3,0.6c-0.2,0.1-0.4,0.2-0.7,0.2
	l-0.1,0l0,0l-0.1,0l-0.2,0c-0.4,0-0.7,0.1-1.1,0.2c-0.3,0.1-0.6,0.3-0.9,0.4s-0.5,0.4-0.6,0.6c-0.2,0.2-0.2,0.5-0.3,0.7v6.3h-1.9
	v-10H567.4z"/>
<path d="M573.1,56.8c0.1-0.1,0.1-0.2,0.2-0.3c0.1-0.1,0.2-0.2,0.3-0.3c0.1-0.1,0.2-0.2,0.4-0.3c0.4-0.2,0.8-0.4,1.2-0.6
	c0.4-0.1,0.9-0.2,1.5-0.2c0.5,0,1,0.1,1.4,0.2s0.8,0.3,1,0.6c0.3,0.2,0.5,0.5,0.7,0.8c0.2,0.3,0.3,0.7,0.4,1.1
	c0.1,0.4,0.2,0.8,0.2,1.2s0.1,0.8,0.1,1.3v5H579c-0.1-0.1-0.2-0.2-0.2-0.4s-0.1-0.3-0.1-0.4v-0.3c-0.2,0.2-0.4,0.3-0.6,0.5
	c-0.3,0.1-0.5,0.3-0.8,0.4c-0.3,0.1-0.5,0.2-0.8,0.2c-0.3,0.1-0.5,0.1-0.7,0.1c-0.5,0-1-0.1-1.4-0.2c-0.4-0.1-0.8-0.3-1.1-0.6
	s-0.5-0.6-0.7-1c-0.2-0.4-0.2-0.8-0.2-1.2c0-0.5,0.1-0.9,0.3-1.3c0.2-0.4,0.5-0.7,0.8-1c0.4-0.3,0.9-0.5,1.4-0.7
	c0.6-0.2,1.2-0.2,2-0.2c0.2,0,0.4,0,0.6,0c0.2,0,0.4,0,0.5,0c0.2,0,0.3,0,0.4,0c0.1,0,0.2,0,0.2,0c0-0.5-0.1-0.9-0.2-1.2
	c-0.1-0.3-0.3-0.5-0.5-0.7s-0.4-0.3-0.6-0.4c-0.2-0.1-0.5-0.1-0.7-0.1c-0.3,0-0.6,0-0.7,0.1c-0.2,0.1-0.3,0.1-0.5,0.2
	c-0.1,0.1-0.3,0.1-0.4,0.2c-0.1,0.1-0.3,0.1-0.5,0.1c-0.2,0-0.3,0-0.5-0.1c-0.1-0.1-0.3-0.1-0.4-0.2L573.1,56.8z M575.7,63.6
	c0.2,0,0.5,0,0.7-0.1c0.3,0,0.5-0.1,0.8-0.2s0.5-0.2,0.8-0.3c0.3-0.1,0.5-0.2,0.7-0.4V61c0,0-0.1,0-0.2,0c-0.1,0-0.2,0-0.4,0
	c-0.2,0-0.3,0-0.5,0c-0.2,0-0.4,0-0.6,0c-0.4,0-0.8,0-1.1,0.1c-0.3,0.1-0.6,0.1-0.9,0.2c-0.3,0.1-0.4,0.3-0.6,0.4
	c-0.1,0.2-0.2,0.4-0.2,0.7c0,0.2,0,0.4,0.1,0.6c0.1,0.2,0.2,0.3,0.3,0.4c0.1,0.1,0.3,0.2,0.5,0.2C575.3,63.6,575.5,63.6,575.7,63.6z
	"/>
<path d="M584.7,55.3l0.1,0.2c0,0.1,0.1,0.2,0.1,0.3c0,0.1,0,0.2,0,0.3v0.4c0-0.2,0.1-0.3,0.2-0.5c0.1-0.1,0.2-0.2,0.4-0.3
	c0.2-0.1,0.3-0.2,0.5-0.2c0.2-0.1,0.4-0.1,0.6-0.2c0.2,0,0.4-0.1,0.5-0.1s0.3,0,0.4,0c0.7,0,1.4,0.1,2,0.4c0.6,0.3,1.1,0.6,1.6,1.1
	c0.4,0.5,0.8,1,1,1.6c0.3,0.6,0.4,1.3,0.4,2c0,0.7-0.1,1.4-0.4,2c-0.3,0.6-0.6,1.2-1,1.6c-0.4,0.5-1,0.8-1.6,1.1
	c-0.6,0.3-1.3,0.4-2,0.4c-0.2,0-0.4,0-0.7,0s-0.4-0.1-0.7-0.2c-0.2-0.1-0.4-0.2-0.7-0.3c-0.2-0.1-0.4-0.3-0.6-0.5v4.1h-1.9V55.3
	H584.7z M587.6,63.6c0.5,0,0.9-0.1,1.3-0.3c0.4-0.2,0.7-0.4,1-0.7c0.3-0.3,0.5-0.6,0.6-1c0.2-0.4,0.2-0.8,0.2-1.3
	c0-0.5-0.1-0.9-0.2-1.3c-0.2-0.4-0.4-0.7-0.6-1c-0.3-0.3-0.6-0.5-1-0.7c-0.4-0.2-0.8-0.3-1.3-0.3c-0.5,0-1,0.1-1.4,0.3
	s-0.9,0.5-1.2,0.8v4.4c0.3,0.3,0.7,0.6,1.2,0.8C586.6,63.5,587.1,63.6,587.6,63.6z"/>
<path d="M708.1,55.8h-1.7V43.6h4.4c0.5,0,1,0.1,1.4,0.3c0.4,0.2,0.8,0.4,1.1,0.8c0.3,0.3,0.6,0.7,0.8,1.1s0.3,0.9,0.3,1.4
	c0,0.4-0.1,0.8-0.2,1.1c-0.1,0.4-0.3,0.7-0.5,1s-0.5,0.6-0.8,0.8c-0.3,0.2-0.6,0.4-1,0.5l3.9,5.2h-1.2c-0.3,0-0.6-0.1-0.9-0.2
	c-0.3-0.1-0.5-0.3-0.6-0.6l-3.2-4.3h-1.8V55.8z M708.1,45.3v3.7h2.7c0.3,0,0.5,0,0.7-0.1c0.2-0.1,0.4-0.2,0.6-0.4s0.3-0.4,0.4-0.6
	c0.1-0.2,0.1-0.5,0.1-0.7c0-0.3,0-0.5-0.1-0.7c-0.1-0.2-0.2-0.4-0.4-0.6c-0.2-0.2-0.4-0.3-0.6-0.4c-0.2-0.1-0.5-0.1-0.7-0.1H708.1z"
	/>
<path d="M725.2,50.6c0,0.2,0,0.4-0.1,0.5c-0.1,0.2-0.2,0.3-0.3,0.4c-0.1,0.1-0.2,0.2-0.4,0.3c-0.1,0.1-0.3,0.1-0.4,0.1h-6.2
	c0.1,0.3,0.2,0.7,0.3,1c0.2,0.3,0.4,0.6,0.7,0.8c0.3,0.2,0.6,0.4,0.9,0.5c0.3,0.1,0.7,0.2,1,0.2c0.3,0,0.5,0,0.8-0.1
	c0.2-0.1,0.5-0.2,0.7-0.3c0.1-0.1,0.2-0.1,0.3-0.1c0.1,0,0.2,0,0.4,0c0.2,0,0.3,0,0.5,0.1c0.1,0.1,0.3,0.2,0.4,0.3l0.3,0.3
	c-0.4,0.5-0.9,0.8-1.5,1.1c-0.6,0.3-1.2,0.4-1.9,0.4c-0.6,0-1.2-0.1-1.8-0.4s-1-0.6-1.5-1c-0.4-0.4-0.7-0.9-1-1.5
	c-0.2-0.6-0.4-1.2-0.4-1.8c0-0.6,0.1-1.2,0.4-1.8c0.2-0.6,0.6-1,1-1.5c0.4-0.4,0.9-0.7,1.5-1c0.6-0.2,1.2-0.4,1.8-0.4
	c0.5,0,1,0.1,1.5,0.3c0.5,0.2,0.9,0.4,1.3,0.7c0.4,0.3,0.7,0.7,1,1.1s0.5,0.9,0.6,1.4l0,0.2L725.2,50.6z M718.4,50.2h5
	c-0.1-0.3-0.3-0.5-0.4-0.7c-0.2-0.2-0.4-0.4-0.6-0.6c-0.2-0.2-0.5-0.3-0.8-0.4c-0.3-0.1-0.6-0.1-0.9-0.1c-0.3,0-0.7,0.1-1,0.2
	c-0.3,0.1-0.6,0.3-0.8,0.4c-0.2,0.2-0.5,0.4-0.6,0.7c-0.2,0.3-0.3,0.5-0.4,0.8c0-0.1,0.1-0.1,0.2-0.2
	C718.2,50.2,718.3,50.2,718.4,50.2z"/>
<path d="M726.8,53.9c0.1-0.1,0.2-0.1,0.3-0.1c0.1,0,0.2-0.1,0.3-0.1c0.1,0,0.3,0,0.4,0.1s0.3,0.2,0.5,0.3c0.1,0.1,0.3,0.2,0.4,0.2
	c0.2,0,0.3,0.1,0.5,0.1c0.2,0,0.4,0,0.5-0.1c0.2-0.1,0.3-0.1,0.5-0.2c0.1-0.1,0.2-0.2,0.3-0.4c0.1-0.2,0.1-0.3,0.1-0.5
	c0-0.2,0-0.3-0.1-0.4c0-0.1-0.1-0.2-0.3-0.3c-0.1-0.1-0.3-0.2-0.5-0.3c-0.2-0.1-0.5-0.2-0.8-0.3c-0.3-0.1-0.6-0.2-0.9-0.4
	c-0.3-0.1-0.6-0.3-0.8-0.5c-0.2-0.2-0.4-0.4-0.6-0.7c-0.1-0.3-0.2-0.6-0.2-1c0-0.3,0.1-0.7,0.2-1c0.2-0.3,0.4-0.6,0.6-0.8
	c0.3-0.2,0.6-0.4,0.9-0.5c0.3-0.1,0.7-0.2,1-0.2c0.3,0,0.7,0.1,0.9,0.2c0.3,0.1,0.5,0.3,0.7,0.4c0.2,0.2,0.4,0.3,0.5,0.5
	c0.1,0.1,0.2,0.2,0.2,0.3l-0.4,0.3c-0.2,0.2-0.5,0.3-0.8,0.3c-0.1,0-0.2,0-0.4-0.1c-0.1,0-0.3-0.1-0.4-0.2c-0.1-0.1-0.2-0.1-0.4-0.1
	c-0.2,0-0.4,0-0.5,0.1c-0.1,0.1-0.3,0.1-0.3,0.2c-0.1,0.1-0.1,0.2-0.2,0.3c0,0.1-0.1,0.2-0.1,0.2c0,0.2,0,0.3,0.1,0.4
	c0.1,0.1,0.2,0.2,0.3,0.3c0.1,0.1,0.3,0.2,0.5,0.2c0.2,0.1,0.3,0.1,0.5,0.2c0.3,0.1,0.7,0.2,1,0.4c0.3,0.1,0.6,0.3,0.8,0.5
	c0.2,0.2,0.4,0.5,0.6,0.8c0.1,0.3,0.2,0.7,0.2,1.1c0,0.4-0.1,0.7-0.2,1.1c-0.2,0.3-0.4,0.6-0.6,0.9c-0.3,0.3-0.6,0.5-1,0.6
	c-0.4,0.2-0.8,0.2-1.2,0.2c-0.3,0-0.6,0-0.9-0.1c-0.3-0.1-0.6-0.2-0.8-0.4c-0.3-0.2-0.5-0.3-0.7-0.6c-0.2-0.2-0.4-0.5-0.5-0.8
	L726.8,53.9z"/>
<path d="M735.7,46.9l0.1,0.2l0.1,0.2c0,0.1,0,0.2,0,0.3v0.3c0-0.2,0.1-0.3,0.2-0.4c0.1-0.1,0.2-0.2,0.3-0.3c0.1-0.1,0.3-0.2,0.5-0.2
	c0.2-0.1,0.3-0.1,0.5-0.1c0.2,0,0.3-0.1,0.5-0.1c0.2,0,0.3,0,0.4,0c0.6,0,1.2,0.1,1.8,0.4c0.5,0.2,1,0.6,1.4,1
	c0.4,0.4,0.7,0.9,0.9,1.5c0.2,0.6,0.3,1.2,0.3,1.8c0,0.6-0.1,1.2-0.3,1.8c-0.2,0.6-0.5,1-0.9,1.5c-0.4,0.4-0.9,0.7-1.4,1
	c-0.5,0.2-1.1,0.4-1.8,0.4c-0.2,0-0.4,0-0.6,0s-0.4-0.1-0.6-0.1c-0.2-0.1-0.4-0.2-0.6-0.3c-0.2-0.1-0.4-0.3-0.5-0.4v3.7h-1.7V46.9
	H735.7z M738.3,54.3c0.4,0,0.8-0.1,1.1-0.2s0.6-0.4,0.9-0.6c0.2-0.3,0.4-0.6,0.6-0.9c0.1-0.4,0.2-0.7,0.2-1.1c0-0.4-0.1-0.8-0.2-1.1
	c-0.1-0.4-0.3-0.7-0.6-0.9c-0.2-0.3-0.5-0.5-0.9-0.6s-0.7-0.2-1.1-0.2c-0.4,0-0.9,0.1-1.3,0.3c-0.4,0.2-0.8,0.4-1.1,0.7v4
	c0.3,0.3,0.6,0.5,1.1,0.7C737.4,54.2,737.9,54.3,738.3,54.3z"/>
<path d="M743.9,51.3c0-0.6,0.1-1.2,0.4-1.8c0.2-0.6,0.6-1,1-1.5c0.4-0.4,0.9-0.7,1.5-1c0.6-0.2,1.2-0.4,1.8-0.4s1.2,0.1,1.8,0.4
	c0.6,0.2,1,0.6,1.5,1c0.4,0.4,0.7,0.9,1,1.5c0.2,0.6,0.4,1.2,0.4,1.8c0,0.6-0.1,1.2-0.4,1.8c-0.2,0.6-0.6,1-1,1.5
	c-0.4,0.4-0.9,0.7-1.5,1c-0.6,0.2-1.2,0.4-1.8,0.4s-1.2-0.1-1.8-0.4s-1-0.6-1.5-1c-0.4-0.4-0.7-0.9-1-1.5
	C744,52.6,743.9,52,743.9,51.3z M745.5,51.3c0,0.4,0.1,0.8,0.2,1.1c0.2,0.4,0.4,0.7,0.6,0.9c0.3,0.3,0.6,0.5,0.9,0.6
	c0.4,0.2,0.7,0.2,1.1,0.2c0.4,0,0.8-0.1,1.1-0.2s0.7-0.4,0.9-0.6c0.3-0.3,0.5-0.6,0.6-0.9c0.2-0.4,0.2-0.7,0.2-1.1
	c0-0.4-0.1-0.8-0.2-1.1c-0.2-0.4-0.4-0.7-0.6-0.9c-0.3-0.3-0.6-0.5-0.9-0.6s-0.7-0.2-1.1-0.2c-0.4,0-0.8,0.1-1.1,0.2
	c-0.4,0.2-0.7,0.4-0.9,0.6c-0.3,0.3-0.5,0.6-0.6,0.9C745.6,50.5,745.5,50.9,745.5,51.3z"/>
<path d="M756.3,46.9l0.1,0.2l0.1,0.2c0,0.1,0,0.2,0,0.3V48c0.1-0.2,0.2-0.4,0.4-0.5c0.2-0.2,0.4-0.3,0.6-0.4
	c0.2-0.1,0.5-0.2,0.7-0.2c0.3-0.1,0.5-0.1,0.8-0.1c0.5,0,1,0.1,1.4,0.3c0.4,0.2,0.8,0.4,1.1,0.8c0.3,0.3,0.5,0.8,0.7,1.2
	c0.2,0.5,0.2,1.1,0.2,1.7v5.1h-1.7v-5.1c0-0.7-0.1-1.3-0.4-1.7c-0.3-0.4-0.7-0.6-1.3-0.6c-0.3,0-0.7,0-1,0.1
	c-0.3,0.1-0.6,0.2-0.8,0.3c-0.2,0.1-0.4,0.3-0.6,0.5c-0.1,0.2-0.2,0.4-0.2,0.6v6h-1.7v-8.9H756.3z"/>
<path d="M764.6,53.9c0.1-0.1,0.2-0.1,0.3-0.1c0.1,0,0.2-0.1,0.3-0.1c0.1,0,0.3,0,0.4,0.1s0.3,0.2,0.5,0.3c0.1,0.1,0.3,0.2,0.4,0.2
	c0.2,0,0.3,0.1,0.5,0.1c0.2,0,0.4,0,0.5-0.1c0.2-0.1,0.3-0.1,0.5-0.2c0.1-0.1,0.2-0.2,0.3-0.4c0.1-0.2,0.1-0.3,0.1-0.5
	c0-0.2,0-0.3-0.1-0.4c0-0.1-0.1-0.2-0.3-0.3c-0.1-0.1-0.3-0.2-0.5-0.3c-0.2-0.1-0.5-0.2-0.8-0.3c-0.3-0.1-0.6-0.2-0.9-0.4
	c-0.3-0.1-0.6-0.3-0.8-0.5c-0.2-0.2-0.4-0.4-0.6-0.7c-0.1-0.3-0.2-0.6-0.2-1c0-0.3,0.1-0.7,0.2-1c0.2-0.3,0.4-0.6,0.6-0.8
	c0.3-0.2,0.6-0.4,0.9-0.5c0.3-0.1,0.7-0.2,1-0.2c0.3,0,0.7,0.1,0.9,0.2c0.3,0.1,0.5,0.3,0.7,0.4c0.2,0.2,0.4,0.3,0.5,0.5
	c0.1,0.1,0.2,0.2,0.2,0.3l-0.4,0.3c-0.2,0.2-0.5,0.3-0.8,0.3c-0.1,0-0.2,0-0.4-0.1c-0.1,0-0.3-0.1-0.4-0.2c-0.1-0.1-0.2-0.1-0.4-0.1
	c-0.2,0-0.4,0-0.5,0.1c-0.1,0.1-0.3,0.1-0.3,0.2c-0.1,0.1-0.1,0.2-0.2,0.3c0,0.1-0.1,0.2-0.1,0.2c0,0.2,0,0.3,0.1,0.4
	c0.1,0.1,0.2,0.2,0.3,0.3c0.1,0.1,0.3,0.2,0.5,0.2c0.2,0.1,0.3,0.1,0.5,0.2c0.3,0.1,0.7,0.2,1,0.4c0.3,0.1,0.6,0.3,0.8,0.5
	c0.2,0.2,0.4,0.5,0.6,0.8c0.1,0.3,0.2,0.7,0.2,1.1c0,0.4-0.1,0.7-0.2,1.1c-0.2,0.3-0.4,0.6-0.6,0.9c-0.3,0.3-0.6,0.5-1,0.6
	c-0.4,0.2-0.8,0.2-1.2,0.2c-0.3,0-0.6,0-0.9-0.1c-0.3-0.1-0.6-0.2-0.8-0.4c-0.3-0.2-0.5-0.3-0.7-0.6c-0.2-0.2-0.4-0.5-0.5-0.8
	L764.6,53.9z"/>
<path d="M771.9,44.6c0-0.2,0-0.3,0.1-0.4s0.1-0.3,0.2-0.4c0.1-0.1,0.2-0.2,0.4-0.2c0.1-0.1,0.3-0.1,0.4-0.1c0.2,0,0.3,0,0.4,0.1
	c0.1,0.1,0.3,0.1,0.4,0.2c0.1,0.1,0.2,0.2,0.2,0.4s0.1,0.3,0.1,0.4c0,0.2,0,0.3-0.1,0.4c-0.1,0.1-0.1,0.3-0.2,0.4
	c-0.1,0.1-0.2,0.2-0.4,0.2c-0.1,0.1-0.3,0.1-0.4,0.1c-0.2,0-0.3,0-0.4-0.1c-0.1-0.1-0.3-0.1-0.4-0.2c-0.1-0.1-0.2-0.2-0.2-0.4
	C772,44.9,771.9,44.8,771.9,44.6z M773.9,46.9v8.9h-1.7v-8.9H773.9z"/>
<path d="M775,46.9h1c0.3,0,0.5,0.1,0.7,0.2s0.4,0.3,0.5,0.6l2.4,5.5c0,0.1,0.1,0.2,0.1,0.4c0,0.1,0,0.3,0.1,0.4
	c0-0.3,0.1-0.5,0.2-0.8l2.4-5.5c0.1-0.2,0.3-0.4,0.5-0.6c0.2-0.1,0.5-0.2,0.7-0.2h1l-3.9,8.9h-1.6L775,46.9z"/>
<path d="M793.6,50.6c0,0.2,0,0.4-0.1,0.5c-0.1,0.2-0.2,0.3-0.3,0.4c-0.1,0.1-0.2,0.2-0.4,0.3c-0.1,0.1-0.3,0.1-0.4,0.1h-6.2
	c0.1,0.3,0.2,0.7,0.3,1c0.2,0.3,0.4,0.6,0.7,0.8c0.3,0.2,0.6,0.4,0.9,0.5c0.3,0.1,0.7,0.2,1,0.2c0.3,0,0.5,0,0.8-0.1
	c0.2-0.1,0.5-0.2,0.7-0.3c0.1-0.1,0.2-0.1,0.3-0.1c0.1,0,0.2,0,0.4,0c0.2,0,0.3,0,0.5,0.1c0.1,0.1,0.3,0.2,0.4,0.3l0.3,0.3
	c-0.4,0.5-0.9,0.8-1.5,1.1c-0.6,0.3-1.2,0.4-1.9,0.4c-0.6,0-1.2-0.1-1.8-0.4s-1-0.6-1.5-1c-0.4-0.4-0.7-0.9-1-1.5
	c-0.2-0.6-0.4-1.2-0.4-1.8c0-0.6,0.1-1.2,0.4-1.8c0.2-0.6,0.6-1,1-1.5c0.4-0.4,0.9-0.7,1.5-1c0.6-0.2,1.2-0.4,1.8-0.4
	c0.5,0,1,0.1,1.5,0.3c0.5,0.2,0.9,0.4,1.3,0.7c0.4,0.3,0.7,0.7,1,1.1s0.5,0.9,0.6,1.4l0,0.2L793.6,50.6z M786.8,50.2h5
	c-0.1-0.3-0.3-0.5-0.4-0.7c-0.2-0.2-0.4-0.4-0.6-0.6c-0.2-0.2-0.5-0.3-0.8-0.4c-0.3-0.1-0.6-0.1-0.9-0.1c-0.3,0-0.7,0.1-1,0.2
	c-0.3,0.1-0.6,0.3-0.8,0.4c-0.2,0.2-0.5,0.4-0.6,0.7c-0.2,0.3-0.3,0.5-0.4,0.8c0-0.1,0.1-0.1,0.2-0.2
	C786.6,50.2,786.7,50.2,786.8,50.2z"/>
<path d="M724.1,76.2V64h4.6c0.6,0,1.1,0.1,1.6,0.2s1,0.4,1.5,0.6c0.5,0.3,0.9,0.6,1.2,1c0.4,0.4,0.7,0.8,1,1.2
	c0.3,0.5,0.5,0.9,0.6,1.5c0.1,0.5,0.2,1.1,0.2,1.6c0,0.6-0.1,1.1-0.2,1.6c-0.1,0.5-0.4,1-0.6,1.5c-0.3,0.5-0.6,0.9-1,1.2
	c-0.4,0.4-0.8,0.7-1.2,1c-0.5,0.3-0.9,0.5-1.5,0.6c-0.5,0.1-1.1,0.2-1.6,0.2H724.1z M728.7,74.5c0.6,0,1.2-0.1,1.7-0.3
	c0.5-0.2,1-0.5,1.4-0.9c0.4-0.4,0.7-0.9,0.9-1.4c0.2-0.5,0.3-1.1,0.3-1.7s-0.1-1.2-0.3-1.7c-0.2-0.5-0.5-1-0.9-1.4
	c-0.4-0.4-0.9-0.7-1.4-0.9c-0.5-0.2-1.1-0.3-1.7-0.3h-2.9v8.8H728.7z"/>
<path d="M745.2,71c0,0.2,0,0.4-0.1,0.5c-0.1,0.2-0.2,0.3-0.3,0.4c-0.1,0.1-0.2,0.2-0.4,0.3c-0.1,0.1-0.3,0.1-0.4,0.1h-6.2
	c0.1,0.3,0.2,0.7,0.3,1c0.2,0.3,0.4,0.6,0.7,0.8s0.6,0.4,0.9,0.5c0.3,0.1,0.7,0.2,1,0.2c0.3,0,0.5,0,0.8-0.1s0.5-0.2,0.7-0.3
	c0.1-0.1,0.2-0.1,0.3-0.1c0.1,0,0.2,0,0.4,0c0.2,0,0.3,0,0.5,0.1c0.1,0.1,0.3,0.2,0.4,0.3l0.3,0.3c-0.4,0.5-0.9,0.8-1.5,1.1
	c-0.6,0.3-1.2,0.4-1.9,0.4c-0.6,0-1.2-0.1-1.8-0.4c-0.6-0.2-1-0.6-1.5-1c-0.4-0.4-0.7-0.9-1-1.5c-0.2-0.6-0.4-1.2-0.4-1.8
	c0-0.6,0.1-1.2,0.4-1.8c0.2-0.6,0.6-1,1-1.5c0.4-0.4,0.9-0.7,1.5-1c0.6-0.2,1.2-0.4,1.8-0.4c0.5,0,1,0.1,1.5,0.3
	c0.5,0.2,0.9,0.4,1.3,0.7s0.7,0.7,1,1.1c0.3,0.4,0.5,0.9,0.6,1.4l0,0.2L745.2,71z M738.5,70.6h5c-0.1-0.3-0.3-0.5-0.4-0.7
	c-0.2-0.2-0.4-0.4-0.6-0.6c-0.2-0.2-0.5-0.3-0.8-0.4c-0.3-0.1-0.6-0.1-0.9-0.1c-0.3,0-0.7,0.1-1,0.2c-0.3,0.1-0.6,0.3-0.8,0.4
	c-0.2,0.2-0.5,0.4-0.6,0.7c-0.2,0.3-0.3,0.5-0.4,0.8c0-0.1,0.1-0.1,0.2-0.2C738.2,70.6,738.3,70.6,738.5,70.6z"/>
<path d="M746.8,74.3c0.1-0.1,0.2-0.1,0.3-0.1c0.1,0,0.2-0.1,0.3-0.1c0.1,0,0.3,0,0.4,0.1s0.3,0.2,0.5,0.3c0.1,0.1,0.3,0.2,0.4,0.2
	c0.2,0,0.3,0.1,0.5,0.1c0.2,0,0.4,0,0.5-0.1c0.2-0.1,0.3-0.1,0.5-0.2c0.1-0.1,0.2-0.2,0.3-0.4c0.1-0.2,0.1-0.3,0.1-0.5
	c0-0.2,0-0.3-0.1-0.4c0-0.1-0.1-0.2-0.3-0.3s-0.3-0.2-0.5-0.3c-0.2-0.1-0.5-0.2-0.8-0.3c-0.3-0.1-0.6-0.2-0.9-0.4
	c-0.3-0.1-0.6-0.3-0.8-0.5c-0.2-0.2-0.4-0.4-0.6-0.7c-0.1-0.3-0.2-0.6-0.2-1c0-0.3,0.1-0.7,0.2-1c0.2-0.3,0.4-0.6,0.6-0.8
	c0.3-0.2,0.6-0.4,0.9-0.5s0.7-0.2,1-0.2c0.3,0,0.7,0.1,0.9,0.2s0.5,0.3,0.7,0.4c0.2,0.2,0.4,0.3,0.5,0.5c0.1,0.1,0.2,0.2,0.2,0.3
	l-0.4,0.3c-0.2,0.2-0.5,0.3-0.8,0.3c-0.1,0-0.2,0-0.4-0.1c-0.1,0-0.3-0.1-0.4-0.2c-0.1-0.1-0.2-0.1-0.4-0.1c-0.2,0-0.4,0-0.5,0.1
	c-0.1,0.1-0.3,0.1-0.3,0.2c-0.1,0.1-0.1,0.2-0.2,0.3c0,0.1-0.1,0.2-0.1,0.2c0,0.2,0,0.3,0.1,0.4c0.1,0.1,0.2,0.2,0.3,0.3
	c0.1,0.1,0.3,0.2,0.5,0.2c0.2,0.1,0.3,0.1,0.5,0.2c0.3,0.1,0.7,0.2,1,0.4c0.3,0.1,0.6,0.3,0.8,0.5c0.2,0.2,0.4,0.5,0.6,0.8
	c0.1,0.3,0.2,0.7,0.2,1.1c0,0.4-0.1,0.8-0.2,1.1c-0.2,0.3-0.4,0.6-0.6,0.9s-0.6,0.5-1,0.6c-0.4,0.2-0.8,0.2-1.2,0.2
	c-0.3,0-0.6,0-0.9-0.1c-0.3-0.1-0.6-0.2-0.8-0.4c-0.3-0.2-0.5-0.3-0.7-0.6c-0.2-0.2-0.4-0.5-0.5-0.8L746.8,74.3z"/>
<path d="M754.2,65c0-0.2,0-0.3,0.1-0.4c0.1-0.1,0.1-0.3,0.2-0.4s0.2-0.2,0.4-0.2c0.1-0.1,0.3-0.1,0.4-0.1c0.2,0,0.3,0,0.4,0.1
	c0.1,0.1,0.3,0.1,0.4,0.2s0.2,0.2,0.2,0.4c0.1,0.1,0.1,0.3,0.1,0.4c0,0.2,0,0.3-0.1,0.4s-0.1,0.3-0.2,0.4c-0.1,0.1-0.2,0.2-0.4,0.2
	c-0.1,0.1-0.3,0.1-0.4,0.1c-0.2,0-0.3,0-0.4-0.1c-0.1-0.1-0.3-0.1-0.4-0.2c-0.1-0.1-0.2-0.2-0.2-0.4S754.2,65.2,754.2,65z
	 M756.2,67.3v8.9h-1.7v-8.9H756.2z"/>
<path d="M766.1,68.4c-0.1,0.2-0.2,0.4-0.4,0.5c-0.2,0.1-0.5,0.2-0.8,0.2c0.1,0.2,0.2,0.4,0.2,0.7c0.1,0.2,0.1,0.5,0.1,0.7
	c0,0.5-0.1,0.9-0.3,1.3c-0.2,0.4-0.4,0.8-0.7,1.1c-0.3,0.3-0.7,0.5-1.1,0.7c-0.4,0.2-0.8,0.3-1.3,0.3c-0.5,0-1-0.1-1.5-0.3
	c-0.2,0.1-0.3,0.3-0.4,0.3l-0.1,0.2l0,0.1l0,0c0,0.1,0.1,0.1,0.3,0.1c0.1,0,0.3,0.1,0.5,0.1c0.2,0,0.4,0,0.6,0c0.2,0,0.4,0,0.6,0
	c0.4,0,0.8,0,1.2,0.1c0.4,0,0.8,0.1,1.1,0.2c0.5,0.2,0.8,0.4,1.1,0.8c0.2,0.3,0.4,0.7,0.4,1.2c0,0.4-0.1,0.7-0.2,1
	c-0.1,0.3-0.3,0.5-0.6,0.8c-0.3,0.2-0.6,0.4-1,0.5c-0.4,0.1-0.8,0.2-1.3,0.2c-0.4,0-0.8,0-1.2-0.1c-0.4-0.1-0.8-0.1-1.1-0.2
	c-0.4-0.1-0.7-0.2-1-0.3s-0.6-0.2-0.9-0.4l0.2-0.6c0.1-0.2,0.2-0.4,0.4-0.5c0.2-0.1,0.4-0.2,0.7-0.2c0.1,0,0.3,0,0.4,0.1
	c0.1,0,0.3,0.1,0.4,0.1c0.1,0,0.1,0.1,0.3,0.1c0.1,0,0.3,0.1,0.5,0.1c0.2,0.1,0.4,0.1,0.6,0.1c0.2,0,0.5,0.1,0.8,0.1
	c0.1,0,0.3,0,0.5,0c0.2,0,0.3-0.1,0.5-0.1c0.2-0.1,0.3-0.1,0.4-0.3c0.1-0.1,0.2-0.2,0.2-0.4c0-0.1,0-0.2-0.1-0.3
	c0-0.1-0.1-0.1-0.3-0.2c-0.2-0.1-0.5-0.1-0.8-0.2c-0.3,0-0.6,0-0.9-0.1c-0.3,0-0.6,0-1,0c-0.3,0-0.6-0.1-0.9-0.1
	c-0.3-0.1-0.6-0.2-0.8-0.3c-0.2-0.1-0.4-0.3-0.6-0.6c-0.1-0.2-0.2-0.4-0.2-0.6c0-0.2,0.1-0.5,0.3-0.8c0.2-0.3,0.5-0.5,0.9-0.7
	c-0.3-0.3-0.6-0.7-0.8-1.1c-0.2-0.4-0.3-0.9-0.3-1.4c0-0.5,0.1-0.9,0.3-1.3c0.2-0.4,0.4-0.8,0.7-1.1c0.3-0.3,0.7-0.5,1.1-0.7
	c0.4-0.2,0.8-0.3,1.3-0.3c0.4,0,0.7,0.1,1,0.2s0.6,0.3,0.9,0.5c0.1-0.1,0.3-0.1,0.4-0.2c0.2-0.1,0.4-0.1,0.7-0.1
	c0.2,0,0.4,0,0.6,0.1c0.2,0,0.5,0.1,0.8,0.2L766.1,68.4z M760.1,70.5c0,0.2,0,0.5,0.1,0.7c0.1,0.2,0.2,0.4,0.4,0.5
	c0.2,0.2,0.3,0.3,0.5,0.4c0.2,0.1,0.4,0.1,0.7,0.1c0.2,0,0.5,0,0.7-0.1c0.2-0.1,0.4-0.2,0.5-0.4c0.2-0.2,0.3-0.3,0.4-0.5
	c0.1-0.2,0.1-0.4,0.1-0.7c0-0.2,0-0.5-0.1-0.7c-0.1-0.2-0.2-0.4-0.4-0.5c-0.2-0.2-0.3-0.3-0.5-0.4c-0.2-0.1-0.4-0.1-0.7-0.1
	c-0.2,0-0.5,0-0.7,0.1c-0.2,0.1-0.4,0.2-0.5,0.4c-0.2,0.2-0.3,0.3-0.4,0.5C760.1,70,760.1,70.2,760.1,70.5z"/>
<path d="M769.1,67.3l0.1,0.2l0.1,0.2c0,0.1,0,0.2,0,0.3v0.4c0.1-0.2,0.2-0.4,0.4-0.5c0.2-0.2,0.4-0.3,0.6-0.4
	c0.2-0.1,0.5-0.2,0.7-0.2c0.3-0.1,0.5-0.1,0.8-0.1c0.5,0,1,0.1,1.4,0.3c0.4,0.2,0.8,0.4,1.1,0.8s0.5,0.8,0.7,1.3
	c0.2,0.5,0.2,1.1,0.2,1.7v5.1h-1.7v-5.1c0-0.7-0.1-1.3-0.4-1.7c-0.3-0.4-0.7-0.6-1.3-0.6c-0.3,0-0.7,0-1,0.1
	c-0.3,0.1-0.6,0.2-0.8,0.3c-0.2,0.1-0.4,0.3-0.6,0.5c-0.1,0.2-0.2,0.4-0.2,0.6v6h-1.7v-8.9H769.1z"/>
<path d="M912.4,49.9h1.8v11c0,0.6-0.1,1.1-0.3,1.6c-0.2,0.5-0.5,0.9-0.9,1.3s-0.8,0.7-1.3,0.9s-1,0.3-1.6,0.3
	c-0.6,0-1.1-0.1-1.6-0.3c-0.5-0.2-0.9-0.5-1.3-0.9l0.5-0.5c0.3-0.3,0.6-0.4,1-0.4c0.1,0,0.2,0,0.3,0.1s0.2,0.1,0.3,0.1
	c0.1,0,0.2,0.1,0.3,0.1c0.1,0,0.2,0,0.4,0c0.3,0,0.6-0.1,0.9-0.2c0.3-0.1,0.5-0.3,0.8-0.5c0.2-0.2,0.4-0.5,0.5-0.7
	c0.1-0.3,0.2-0.6,0.2-0.9V49.9z"/>
<path d="M917.4,54.7l0.2-0.3c0.1-0.1,0.2-0.2,0.3-0.3c0.1-0.1,0.2-0.2,0.4-0.3c0.4-0.2,0.7-0.4,1.2-0.5s0.9-0.2,1.4-0.2
	c0.5,0,1,0.1,1.4,0.2c0.4,0.1,0.7,0.3,1,0.5s0.5,0.5,0.7,0.8c0.2,0.3,0.3,0.6,0.4,1c0.1,0.4,0.2,0.7,0.2,1.1c0,0.4,0.1,0.8,0.1,1.2
	v4.7H923c-0.1-0.1-0.1-0.2-0.2-0.3c-0.1-0.1-0.1-0.3-0.1-0.4v-0.2c-0.2,0.2-0.4,0.3-0.6,0.5c-0.2,0.1-0.5,0.3-0.7,0.4
	c-0.3,0.1-0.5,0.2-0.8,0.2s-0.5,0.1-0.7,0.1c-0.5,0-0.9-0.1-1.3-0.2s-0.7-0.3-1-0.6c-0.3-0.2-0.5-0.5-0.6-0.9
	c-0.2-0.4-0.2-0.7-0.2-1.2c0-0.5,0.1-0.9,0.3-1.3c0.2-0.4,0.4-0.7,0.8-1c0.4-0.3,0.8-0.5,1.4-0.6s1.2-0.2,1.9-0.2c0.2,0,0.4,0,0.6,0
	c0.2,0,0.4,0,0.5,0c0.1,0,0.3,0,0.4,0s0.2,0,0.2,0c0-0.4-0.1-0.8-0.2-1.1c-0.1-0.3-0.3-0.5-0.4-0.7c-0.2-0.2-0.4-0.3-0.6-0.3
	c-0.2-0.1-0.5-0.1-0.7-0.1c-0.3,0-0.5,0-0.7,0.1c-0.2,0.1-0.3,0.1-0.4,0.2s-0.3,0.1-0.4,0.2c-0.1,0.1-0.3,0.1-0.5,0.1
	c-0.2,0-0.3,0-0.5-0.1c-0.1-0.1-0.3-0.1-0.4-0.2L917.4,54.7z M919.9,61.2c0.2,0,0.4,0,0.7-0.1c0.2,0,0.5-0.1,0.7-0.2
	s0.5-0.2,0.7-0.3c0.2-0.1,0.5-0.2,0.7-0.4v-1.6c0,0-0.1,0-0.2,0s-0.2,0-0.4,0c-0.2,0-0.3,0-0.5,0s-0.4,0-0.6,0c-0.4,0-0.7,0-1,0.1
	c-0.3,0-0.6,0.1-0.8,0.2c-0.2,0.1-0.4,0.2-0.6,0.4c-0.1,0.2-0.2,0.4-0.2,0.6c0,0.2,0,0.4,0.1,0.5c0.1,0.1,0.2,0.3,0.3,0.4
	c0.1,0.1,0.3,0.2,0.5,0.2C919.5,61.2,919.7,61.2,919.9,61.2z"/>
<path d="M925,53.3h1c0.3,0,0.5,0.1,0.8,0.2c0.2,0.1,0.4,0.4,0.5,0.6l2.5,5.8c0,0.1,0.1,0.2,0.1,0.4c0,0.1,0,0.3,0.1,0.4
	c0-0.3,0.1-0.6,0.2-0.8l2.5-5.8c0.1-0.3,0.3-0.5,0.5-0.6s0.5-0.2,0.8-0.2h1l-4.1,9.5h-1.7L925,53.3z"/>
<path d="M936.2,54.7l0.2-0.3c0.1-0.1,0.2-0.2,0.3-0.3c0.1-0.1,0.2-0.2,0.4-0.3c0.4-0.2,0.7-0.4,1.2-0.5s0.9-0.2,1.4-0.2
	c0.5,0,1,0.1,1.4,0.2c0.4,0.1,0.7,0.3,1,0.5s0.5,0.5,0.7,0.8c0.2,0.3,0.3,0.6,0.4,1c0.1,0.4,0.2,0.7,0.2,1.1c0,0.4,0.1,0.8,0.1,1.2
	v4.7h-1.5c-0.1-0.1-0.1-0.2-0.2-0.3c-0.1-0.1-0.1-0.3-0.1-0.4v-0.2c-0.2,0.2-0.4,0.3-0.6,0.5c-0.2,0.1-0.5,0.3-0.7,0.4
	c-0.3,0.1-0.5,0.2-0.8,0.2s-0.5,0.1-0.7,0.1c-0.5,0-0.9-0.1-1.3-0.2s-0.7-0.3-1-0.6c-0.3-0.2-0.5-0.5-0.6-0.9
	c-0.2-0.4-0.2-0.7-0.2-1.2c0-0.5,0.1-0.9,0.3-1.3c0.2-0.4,0.4-0.7,0.8-1c0.4-0.3,0.8-0.5,1.4-0.6s1.2-0.2,1.9-0.2c0.2,0,0.4,0,0.6,0
	c0.2,0,0.4,0,0.5,0c0.1,0,0.3,0,0.4,0s0.2,0,0.2,0c0-0.4-0.1-0.8-0.2-1.1c-0.1-0.3-0.3-0.5-0.4-0.7c-0.2-0.2-0.4-0.3-0.6-0.3
	c-0.2-0.1-0.5-0.1-0.7-0.1c-0.3,0-0.5,0-0.7,0.1c-0.2,0.1-0.3,0.1-0.4,0.2s-0.3,0.1-0.4,0.2c-0.1,0.1-0.3,0.1-0.5,0.1
	c-0.2,0-0.3,0-0.5-0.1c-0.1-0.1-0.3-0.1-0.4-0.2L936.2,54.7z M938.7,61.2c0.2,0,0.4,0,0.7-0.1c0.2,0,0.5-0.1,0.7-0.2
	s0.5-0.2,0.7-0.3c0.2-0.1,0.5-0.2,0.7-0.4v-1.6c0,0-0.1,0-0.2,0s-0.2,0-0.4,0c-0.2,0-0.3,0-0.5,0s-0.4,0-0.6,0c-0.4,0-0.7,0-1,0.1
	c-0.3,0-0.6,0.1-0.8,0.2c-0.2,0.1-0.4,0.2-0.6,0.4c-0.1,0.2-0.2,0.4-0.2,0.6c0,0.2,0,0.4,0.1,0.5c0.1,0.1,0.2,0.3,0.3,0.4
	c0.1,0.1,0.3,0.2,0.5,0.2C938.4,61.2,938.5,61.2,938.7,61.2z"/>
<path d="M950.7,52c-0.2-0.2-0.5-0.3-0.7-0.4c-0.2-0.1-0.5-0.1-0.7-0.1c-0.3,0-0.5,0-0.8,0.1c-0.2,0.1-0.5,0.2-0.7,0.3
	c-0.2,0.1-0.3,0.3-0.4,0.5c-0.1,0.2-0.2,0.4-0.2,0.6c0,0.3,0,0.5,0.1,0.7c0.1,0.2,0.2,0.3,0.4,0.5s0.4,0.3,0.7,0.4s0.7,0.3,1.1,0.4
	c0.2,0.1,0.4,0.2,0.6,0.2c0.2,0.1,0.4,0.2,0.6,0.2c0.2,0.1,0.4,0.2,0.6,0.3c0.2,0.1,0.4,0.2,0.6,0.4c0.9,0.7,1.4,1.6,1.4,2.8
	c0,0.6-0.1,1.1-0.4,1.6c-0.2,0.5-0.6,0.9-1,1.3c-0.4,0.4-0.9,0.6-1.4,0.8s-1.1,0.3-1.7,0.3c-1.2,0-2.1-0.3-2.9-1
	c-0.2-0.1-0.3-0.3-0.4-0.4c-0.1-0.1-0.2-0.3-0.3-0.4s-0.2-0.3-0.2-0.4c-0.1-0.1-0.1-0.2-0.1-0.3l0.4-0.2c0.2-0.1,0.5-0.2,0.7-0.2
	c0.4,0,0.7,0.1,1,0.4l0.1,0.1c0.2,0.2,0.5,0.3,0.8,0.4c0.3,0.1,0.6,0.2,1,0.2c0.3,0,0.6,0,0.9-0.1c0.3-0.1,0.6-0.2,0.9-0.4
	c0.3-0.2,0.5-0.4,0.6-0.7c0.2-0.3,0.2-0.6,0.2-0.9c0-0.3-0.1-0.6-0.2-0.9c-0.2-0.2-0.4-0.4-0.6-0.6s-0.5-0.3-0.8-0.4
	c-0.3-0.1-0.6-0.2-0.9-0.4c-0.4-0.2-0.9-0.4-1.3-0.5c-0.4-0.2-0.8-0.4-1.1-0.7s-0.6-0.6-0.8-1c-0.2-0.4-0.3-0.9-0.3-1.4
	c0-0.5,0.1-1,0.3-1.4c0.2-0.4,0.5-0.8,0.9-1c0.4-0.3,0.8-0.5,1.2-0.7c0.5-0.1,0.9-0.2,1.4-0.2c0.4,0,0.7,0.1,1.1,0.2
	c0.3,0.1,0.7,0.3,1,0.5c0.3,0.2,0.6,0.4,0.8,0.6c0.2,0.2,0.5,0.4,0.6,0.6l-0.5,0.3c-0.3,0.2-0.5,0.3-0.9,0.3
	C951.2,52.3,950.9,52.2,950.7,52z"/>
<path d="M959.5,54.9c-0.4,0-0.8,0.1-1.2,0.2s-0.7,0.4-1,0.7c-0.3,0.3-0.5,0.6-0.7,1s-0.2,0.8-0.2,1.2c0,0.4,0.1,0.8,0.2,1.2
	s0.4,0.7,0.7,1c0.3,0.3,0.6,0.5,1,0.7s0.8,0.2,1.2,0.2c0.3,0,0.5,0,0.8-0.1c0.3-0.1,0.5-0.2,0.7-0.3c0.2-0.1,0.5-0.2,0.7-0.2
	c0.2,0,0.4,0,0.5,0.1c0.2,0.1,0.3,0.2,0.4,0.3l0.3,0.3c-0.5,0.5-1,0.9-1.6,1.1s-1.3,0.4-2,0.4c-0.7,0-1.3-0.1-1.9-0.4
	c-0.6-0.3-1.1-0.6-1.5-1c-0.4-0.4-0.8-1-1-1.5s-0.4-1.2-0.4-1.9c0-0.7,0.1-1.3,0.4-1.9s0.6-1.1,1-1.5c0.4-0.4,1-0.8,1.5-1
	c0.6-0.3,1.2-0.4,1.9-0.4c0.7,0,1.4,0.1,2,0.4s1.1,0.7,1.6,1.1l-0.3,0.3c-0.1,0.1-0.3,0.3-0.5,0.3c-0.2,0.1-0.3,0.1-0.6,0.1
	c-0.2,0-0.5-0.1-0.7-0.2c-0.2-0.1-0.5-0.2-0.7-0.3C960.1,54.9,959.8,54.9,959.5,54.9z"/>
<path d="M966.1,53.3l0.1,0.2c0,0.1,0.1,0.1,0.1,0.2c0,0.1,0,0.2,0,0.3v0.7c0.1-0.2,0.3-0.4,0.4-0.6c0.2-0.2,0.4-0.3,0.6-0.5
	c0.2-0.1,0.5-0.3,0.8-0.3c0.3-0.1,0.6-0.1,0.9-0.1c0.5,0,0.9,0.1,1.4,0.3l-0.1,0.8c0,0.3-0.2,0.4-0.3,0.6c-0.2,0.1-0.4,0.2-0.6,0.2
	l-0.1,0l0,0l-0.1,0l-0.2,0c-0.4,0-0.7,0.1-1,0.2c-0.3,0.1-0.6,0.2-0.8,0.4s-0.4,0.4-0.6,0.6c-0.2,0.2-0.2,0.4-0.3,0.6v6h-1.8v-9.5
	H966.1z"/>
<path d="M971.4,50.9c0-0.2,0-0.3,0.1-0.5c0.1-0.1,0.1-0.3,0.3-0.4c0.1-0.1,0.2-0.2,0.4-0.3c0.1-0.1,0.3-0.1,0.5-0.1s0.3,0,0.5,0.1
	c0.1,0.1,0.3,0.1,0.4,0.3c0.1,0.1,0.2,0.2,0.3,0.4c0.1,0.1,0.1,0.3,0.1,0.5c0,0.2,0,0.3-0.1,0.5c-0.1,0.1-0.2,0.3-0.3,0.4
	c-0.1,0.1-0.2,0.2-0.4,0.3c-0.1,0.1-0.3,0.1-0.5,0.1s-0.3,0-0.5-0.1c-0.1-0.1-0.3-0.1-0.4-0.3c-0.1-0.1-0.2-0.2-0.3-0.4
	C971.5,51.2,971.4,51.1,971.4,50.9z M973.5,53.3v9.5h-1.8v-9.5H973.5z"/>
<path d="M977.9,53.3l0.1,0.2c0,0.1,0.1,0.1,0.1,0.2c0,0.1,0,0.2,0,0.3v0.4c0-0.2,0.1-0.3,0.2-0.4c0.1-0.1,0.2-0.2,0.4-0.3
	c0.1-0.1,0.3-0.2,0.5-0.2c0.2-0.1,0.4-0.1,0.5-0.2c0.2,0,0.3-0.1,0.5-0.1s0.3,0,0.4,0c0.7,0,1.3,0.1,1.9,0.4c0.6,0.3,1.1,0.6,1.5,1
	c0.4,0.4,0.7,1,1,1.5c0.2,0.6,0.4,1.2,0.4,1.9c0,0.7-0.1,1.3-0.4,1.9c-0.2,0.6-0.6,1.1-1,1.5c-0.4,0.4-0.9,0.8-1.5,1
	s-1.2,0.4-1.9,0.4c-0.2,0-0.4,0-0.6,0c-0.2,0-0.4-0.1-0.6-0.2c-0.2-0.1-0.4-0.2-0.6-0.3s-0.4-0.3-0.6-0.5v3.9h-1.8V53.3H977.9z
	 M980.6,61.1c0.4,0,0.8-0.1,1.2-0.2s0.7-0.4,0.9-0.7c0.3-0.3,0.5-0.6,0.6-1s0.2-0.8,0.2-1.2c0-0.4-0.1-0.8-0.2-1.2s-0.3-0.7-0.6-1
	c-0.3-0.3-0.6-0.5-0.9-0.7s-0.8-0.2-1.2-0.2c-0.5,0-0.9,0.1-1.3,0.3c-0.4,0.2-0.8,0.4-1.1,0.8v4.2c0.3,0.3,0.7,0.6,1.1,0.8
	C979.7,61.1,980.2,61.1,980.6,61.1z"/>
<path d="M989.3,60.4c0,0.1,0,0.2,0,0.3c0,0.1,0.1,0.2,0.1,0.3l0.2,0.2c0.1,0.1,0.2,0.1,0.3,0.1l0.2,0c0.3-0.1,0.5-0.1,0.7-0.1
	c0.2,0,0.5,0.1,0.6,0.2c0.2,0.1,0.3,0.3,0.5,0.5l0.2,0.3c-0.1,0.1-0.3,0.2-0.4,0.3c-0.2,0.1-0.4,0.2-0.6,0.3
	c-0.2,0.1-0.4,0.1-0.6,0.2s-0.4,0.1-0.6,0.1c-0.4,0-0.7-0.1-1-0.2c-0.3-0.1-0.6-0.3-0.8-0.5c-0.2-0.2-0.4-0.5-0.5-0.8
	c-0.1-0.3-0.2-0.6-0.2-1V55H986v-1c0-0.5,0.5-0.7,1.4-0.7h0.2v-1.9c0-0.2,0-0.4,0.1-0.5c0-0.2,0.1-0.3,0.1-0.4
	c0.1-0.1,0.1-0.3,0.2-0.4h1.4v3.3h2.6V55h-2.6V60.4z"/>
<path d="M1120.3,63.9c0,0.5-0.1,1-0.2,1.5c-0.2,0.5-0.4,0.9-0.6,1.3c-0.3,0.4-0.6,0.7-0.9,1c-0.4,0.3-0.7,0.5-1.2,0.7l-0.3-0.7
	c0-0.1-0.1-0.2-0.1-0.3c0-0.1,0-0.2,0-0.3c0-0.2,0-0.4,0.1-0.6s0.2-0.3,0.3-0.5c0.1-0.1,0.2-0.3,0.4-0.5c0.1-0.2,0.2-0.3,0.3-0.5
	c0.1-0.3,0.2-0.7,0.2-1V53.2h2.1V63.9z M1117.9,50.4c0-0.2,0-0.4,0.1-0.6c0.1-0.2,0.2-0.3,0.3-0.5c0.1-0.1,0.3-0.2,0.5-0.3
	c0.2-0.1,0.4-0.1,0.6-0.1s0.4,0,0.6,0.1c0.2,0.1,0.3,0.2,0.5,0.3c0.1,0.1,0.2,0.3,0.3,0.5c0.1,0.2,0.1,0.4,0.1,0.6
	c0,0.2,0,0.4-0.1,0.6c-0.1,0.2-0.2,0.3-0.3,0.5c-0.1,0.1-0.3,0.2-0.5,0.3c-0.2,0.1-0.4,0.1-0.6,0.1s-0.4,0-0.6-0.1
	c-0.2-0.1-0.3-0.2-0.5-0.3c-0.1-0.1-0.2-0.3-0.3-0.5C1117.9,50.8,1117.9,50.6,1117.9,50.4z"/>
<path d="M1125.1,56.7c0,0.8,0.1,1.5,0.4,2.2s0.7,1.3,1.2,1.8c0.5,0.5,1.1,0.9,1.8,1.2c0.7,0.3,1.4,0.4,2.2,0.4c0.3,0,0.6,0,0.9-0.1
	c0.3,0,0.6-0.1,0.8-0.2l1.3,1.7c-0.5,0.2-0.9,0.3-1.4,0.4s-1,0.2-1.5,0.2c-1.1,0-2.1-0.2-3-0.6c-0.9-0.4-1.7-1-2.4-1.6
	c-0.7-0.7-1.2-1.5-1.6-2.4c-0.4-0.9-0.6-1.9-0.6-3c0-0.7,0.1-1.4,0.3-2c0.2-0.7,0.4-1.3,0.8-1.8c0.3-0.6,0.7-1.1,1.2-1.6
	c0.5-0.5,1-0.9,1.6-1.2c0.6-0.3,1.2-0.6,1.8-0.8c0.7-0.2,1.3-0.3,2-0.3s1.4,0.1,2,0.3c0.7,0.2,1.3,0.4,1.8,0.8
	c0.6,0.3,1.1,0.7,1.6,1.2c0.5,0.5,0.9,1,1.2,1.6c0.3,0.6,0.6,1.2,0.8,1.8c0.2,0.7,0.3,1.3,0.3,2c0,1-0.2,2-0.6,2.9s-0.9,1.7-1.6,2.4
	l4,5.4h-1.4c-0.4,0-0.8-0.1-1.1-0.2s-0.6-0.4-0.8-0.7l-3.6-4.9c0.4-0.2,0.8-0.5,1.2-0.9c0.4-0.3,0.7-0.7,0.9-1.2
	c0.3-0.4,0.5-0.9,0.6-1.4c0.1-0.5,0.2-1,0.2-1.5c0-0.8-0.1-1.5-0.4-2.2s-0.7-1.3-1.2-1.8c-0.5-0.5-1.1-0.9-1.8-1.2
	c-0.7-0.3-1.4-0.4-2.2-0.4c-0.8,0-1.5,0.1-2.2,0.4c-0.7,0.3-1.3,0.7-1.8,1.2c-0.5,0.5-0.9,1.1-1.2,1.8S1125.1,55.9,1125.1,56.7z"/>
<path d="M1148.3,64.2c-0.1-0.1-0.1-0.2-0.2-0.3s-0.1-0.2-0.1-0.3s-0.1-0.2-0.1-0.4v-0.5c-0.1,0.3-0.3,0.5-0.5,0.7
	c-0.2,0.2-0.5,0.3-0.8,0.5c-0.3,0.1-0.6,0.2-0.9,0.3c-0.3,0.1-0.7,0.1-1,0.1c-0.6,0-1.2-0.1-1.7-0.3c-0.5-0.2-0.9-0.6-1.3-1
	c-0.4-0.4-0.6-0.9-0.8-1.5c-0.2-0.6-0.3-1.3-0.3-2v-6.3h2.1v6.3c0,0.9,0.2,1.6,0.5,2.2c0.3,0.5,0.9,0.8,1.6,0.8
	c0.4,0,0.8-0.1,1.2-0.2s0.7-0.2,1-0.4c0.3-0.2,0.5-0.4,0.7-0.6c0.2-0.2,0.3-0.5,0.3-0.7v-7.3h2.1v11H1148.3z"/>
<path d="M1163.5,57.8c0,0.2,0,0.5-0.1,0.7c-0.1,0.2-0.2,0.4-0.4,0.5c-0.1,0.1-0.3,0.2-0.5,0.3c-0.2,0.1-0.3,0.1-0.5,0.1h-7.7
	c0.1,0.4,0.2,0.8,0.4,1.2s0.5,0.7,0.8,1c0.3,0.3,0.7,0.5,1.1,0.6c0.4,0.2,0.8,0.2,1.3,0.2c0.3,0,0.6,0,0.9-0.1
	c0.3-0.1,0.6-0.2,0.8-0.3c0.1-0.1,0.3-0.1,0.4-0.2s0.3-0.1,0.4-0.1c0.2,0,0.4,0,0.6,0.1c0.2,0.1,0.4,0.2,0.5,0.4l0.4,0.4
	c-0.5,0.6-1.1,1-1.8,1.3s-1.5,0.5-2.3,0.5c-0.8,0-1.5-0.1-2.2-0.4s-1.3-0.7-1.8-1.2c-0.5-0.5-0.9-1.1-1.2-1.8
	c-0.3-0.7-0.4-1.4-0.4-2.2c0-0.8,0.1-1.5,0.4-2.2c0.3-0.7,0.7-1.3,1.2-1.8c0.5-0.5,1.1-0.9,1.8-1.2c0.7-0.3,1.4-0.4,2.2-0.4
	c0.7,0,1.3,0.1,1.9,0.3c0.6,0.2,1.1,0.5,1.6,0.9s0.9,0.8,1.2,1.3s0.6,1.1,0.8,1.7l0,0.2L1163.5,57.8z M1155.2,57.3h6.2
	c-0.1-0.3-0.3-0.6-0.5-0.9s-0.5-0.5-0.8-0.7c-0.3-0.2-0.6-0.4-1-0.5c-0.4-0.1-0.7-0.2-1.1-0.2c-0.4,0-0.8,0.1-1.2,0.2
	c-0.4,0.1-0.7,0.3-1,0.5c-0.3,0.2-0.6,0.5-0.8,0.8c-0.2,0.3-0.4,0.7-0.5,1c0.1-0.1,0.1-0.2,0.3-0.2
	C1154.9,57.4,1155,57.3,1155.2,57.3z"/>
<path d="M1167.6,53.2c0.1,0.1,0.1,0.2,0.2,0.3s0.1,0.2,0.1,0.3c0,0.1,0.1,0.2,0.1,0.4v0.8c0.1-0.3,0.3-0.5,0.5-0.7
	c0.2-0.2,0.5-0.4,0.8-0.6c0.3-0.2,0.6-0.3,0.9-0.4c0.3-0.1,0.7-0.1,1-0.1c0.6,0,1.1,0.1,1.6,0.3l-0.2,0.9c-0.1,0.3-0.2,0.5-0.4,0.7
	c-0.2,0.2-0.4,0.2-0.7,0.2l-0.1,0l0,0l-0.1,0c0,0-0.1,0-0.2,0c-0.4,0-0.8,0.1-1.2,0.2s-0.7,0.3-1,0.5c-0.3,0.2-0.5,0.4-0.7,0.7
	c-0.2,0.2-0.3,0.5-0.3,0.8v7h-2.1v-11H1167.6z"/>
<path d="M1172.8,53.2h1.2c0.2,0,0.3,0,0.5,0.1s0.3,0.1,0.4,0.2c0.1,0.1,0.3,0.2,0.4,0.3s0.2,0.3,0.2,0.4l2.4,5.6
	c0.2,0.5,0.3,0.9,0.3,1.3c0,0.1,0,0.2,0,0.3l-0.1,0.3c0.1-0.2,0.4-0.9,0.9-2.1c0.5-1.2,1.2-2.8,2.1-4.8l0.2-0.6
	c0.1-0.3,0.3-0.5,0.6-0.7c0.3-0.2,0.6-0.3,0.9-0.3h1.2l-6.1,14.1c-0.1,0.3-0.3,0.6-0.6,0.7c-0.3,0.2-0.6,0.3-0.9,0.3h-1.2l2.1-4.7
	L1172.8,53.2z"/>
<polygon points="131.7,66.6 129.3,66.6 129.3,59.1 120.1,59.1 120.1,66.6 117.7,66.6 117.7,49.4 120.1,49.4 120.1,56.8 129.3,56.8 
	129.3,49.4 131.7,49.4 "/>
<polygon points="134.2,51.8 134.2,49.4 147.2,49.4 147.2,51.8 141.9,51.8 141.9,66.6 139.5,66.6 139.5,51.8 "/>
<path d="M168.2,66.6h-2.4V52.9l0,0.2c0,0.1,0,0.2-0.1,0.3c0,0.1,0,0.2-0.1,0.3c0,0.1-0.1,0.2-0.1,0.3l-5.5,12.6h-2.3L152.2,54
	l-0.1-0.2c0-0.1,0-0.2-0.1-0.3c0-0.1,0-0.2,0-0.3l0-0.2v13.5h-2.4V49.4h2c0.4,0,0.7,0.1,1,0.3c0.3,0.2,0.5,0.5,0.7,0.8l5.4,12.3
	c0.1,0.2,0.1,0.3,0.2,0.5c0,0.2,0.1,0.4,0.1,0.6c0-0.4,0.1-0.8,0.2-1.1l5.4-12.3c0.2-0.3,0.4-0.6,0.7-0.8c0.3-0.2,0.6-0.3,1-0.3h2
	V66.6z"/>
<polygon points="172.4,66.6 172.4,49.4 174.8,49.4 174.8,64.2 182.2,64.2 182.2,66.6 "/>
<path d="M331.7,57.9c0,0.9,0.2,1.7,0.5,2.5c0.3,0.8,0.8,1.5,1.4,2s1.3,1,2,1.4c0.8,0.3,1.6,0.5,2.5,0.5c0.7,0,1.3-0.1,1.9-0.3
	c0.6-0.2,1.2-0.5,1.7-0.8c0.3-0.2,0.6-0.3,1-0.3c0.3,0,0.5,0,0.8,0.1s0.4,0.2,0.6,0.4l0.4,0.4c-0.4,0.4-0.8,0.8-1.3,1.2
	c-0.5,0.3-1,0.6-1.5,0.9c-0.5,0.2-1.1,0.4-1.7,0.6c-0.6,0.1-1.2,0.2-1.8,0.2c-1.2,0-2.4-0.2-3.4-0.7c-1.1-0.5-2-1.1-2.8-1.9
	c-0.8-0.8-1.4-1.7-1.9-2.8c-0.5-1.1-0.7-2.2-0.7-3.4c0-0.8,0.1-1.6,0.3-2.3s0.5-1.4,0.9-2.1c0.4-0.7,0.8-1.2,1.4-1.8
	c0.5-0.5,1.1-1,1.8-1.4c0.7-0.4,1.4-0.7,2.1-0.9c0.7-0.2,1.5-0.3,2.3-0.3c0.6,0,1.2,0.1,1.8,0.2c0.6,0.1,1.2,0.3,1.7,0.6
	c0.5,0.2,1.1,0.5,1.5,0.9c0.5,0.3,0.9,0.7,1.3,1.2l-0.4,0.4c-0.2,0.2-0.4,0.3-0.6,0.4s-0.5,0.1-0.7,0.1c-0.4,0-0.7-0.1-1-0.3
	c-0.5-0.4-1.1-0.6-1.7-0.8c-0.6-0.2-1.3-0.3-1.9-0.3c-0.9,0-1.7,0.2-2.5,0.5c-0.8,0.3-1.5,0.8-2,1.4s-1,1.3-1.4,2
	C331.9,56.2,331.7,57,331.7,57.9z"/>
<path d="M353.9,52.2c-0.3-0.2-0.6-0.4-0.9-0.5c-0.3-0.1-0.6-0.2-0.9-0.2c-0.4,0-0.7,0.1-1.1,0.2c-0.3,0.1-0.6,0.2-0.9,0.4
	s-0.5,0.4-0.6,0.7c-0.1,0.3-0.2,0.5-0.2,0.8c0,0.3,0.1,0.6,0.2,0.9c0.1,0.2,0.3,0.5,0.5,0.6c0.2,0.2,0.6,0.4,1,0.5
	c0.4,0.2,0.9,0.3,1.4,0.5c0.3,0.1,0.6,0.2,0.8,0.3s0.6,0.2,0.8,0.3c0.3,0.1,0.5,0.2,0.8,0.4s0.5,0.3,0.8,0.5
	c1.2,0.9,1.8,2.2,1.8,3.7c0,0.8-0.2,1.5-0.5,2.1c-0.3,0.6-0.8,1.2-1.3,1.7c-0.5,0.5-1.2,0.8-1.9,1.1c-0.7,0.3-1.5,0.4-2.2,0.4
	c-1.5,0-2.8-0.5-3.9-1.4c-0.2-0.2-0.4-0.4-0.6-0.6c-0.2-0.2-0.3-0.4-0.4-0.5c-0.1-0.2-0.2-0.3-0.3-0.5c-0.1-0.1-0.1-0.3-0.2-0.4
	l0.6-0.3c0.3-0.2,0.6-0.3,0.9-0.3c0.5,0,1,0.2,1.3,0.6l0.2,0.2c0.3,0.3,0.6,0.5,1,0.6c0.4,0.1,0.8,0.2,1.3,0.2
	c0.4,0,0.8-0.1,1.2-0.2c0.4-0.1,0.8-0.3,1.1-0.6c0.3-0.2,0.6-0.5,0.8-0.9c0.2-0.4,0.3-0.8,0.3-1.3c0-0.5-0.1-0.8-0.3-1.2
	c-0.2-0.3-0.5-0.6-0.8-0.8c-0.3-0.2-0.7-0.4-1.1-0.6c-0.4-0.2-0.8-0.3-1.2-0.5c-0.6-0.2-1.2-0.5-1.7-0.7s-1.1-0.5-1.5-0.9
	c-0.4-0.4-0.8-0.8-1.1-1.3c-0.3-0.5-0.4-1.2-0.4-1.9c0-0.7,0.1-1.3,0.4-1.9c0.3-0.6,0.7-1,1.2-1.4c0.5-0.4,1-0.7,1.6-0.9
	c0.6-0.2,1.2-0.3,1.9-0.3c0.5,0,0.9,0.1,1.4,0.2c0.5,0.2,0.9,0.4,1.3,0.6c0.4,0.2,0.8,0.5,1.1,0.8c0.3,0.3,0.6,0.6,0.8,0.8l-0.6,0.5
	c-0.3,0.3-0.7,0.4-1.2,0.4C354.6,52.5,354.2,52.4,353.9,52.2z"/>
<path d="M366.7,52.2c-0.3-0.2-0.6-0.4-0.9-0.5c-0.3-0.1-0.6-0.2-0.9-0.2c-0.4,0-0.7,0.1-1.1,0.2c-0.3,0.1-0.6,0.2-0.9,0.4
	s-0.5,0.4-0.6,0.7c-0.1,0.3-0.2,0.5-0.2,0.8c0,0.3,0.1,0.6,0.2,0.9c0.1,0.2,0.3,0.5,0.5,0.6c0.2,0.2,0.6,0.4,1,0.5
	c0.4,0.2,0.9,0.3,1.4,0.5c0.3,0.1,0.6,0.2,0.8,0.3s0.6,0.2,0.8,0.3c0.3,0.1,0.5,0.2,0.8,0.4s0.5,0.3,0.8,0.5
	c1.2,0.9,1.8,2.2,1.8,3.7c0,0.8-0.2,1.5-0.5,2.1c-0.3,0.6-0.8,1.2-1.3,1.7c-0.5,0.5-1.2,0.8-1.9,1.1c-0.7,0.3-1.5,0.4-2.2,0.4
	c-1.5,0-2.8-0.5-3.9-1.4c-0.2-0.2-0.4-0.4-0.6-0.6c-0.2-0.2-0.3-0.4-0.4-0.5c-0.1-0.2-0.2-0.3-0.3-0.5c-0.1-0.1-0.1-0.3-0.2-0.4
	l0.6-0.3c0.3-0.2,0.6-0.3,0.9-0.3c0.5,0,1,0.2,1.3,0.6l0.2,0.2c0.3,0.3,0.6,0.5,1,0.6c0.4,0.1,0.8,0.2,1.3,0.2
	c0.4,0,0.8-0.1,1.2-0.2c0.4-0.1,0.8-0.3,1.1-0.6c0.3-0.2,0.6-0.5,0.8-0.9c0.2-0.4,0.3-0.8,0.3-1.3c0-0.5-0.1-0.8-0.3-1.2
	c-0.2-0.3-0.5-0.6-0.8-0.8c-0.3-0.2-0.7-0.4-1.1-0.6c-0.4-0.2-0.8-0.3-1.2-0.5c-0.6-0.2-1.2-0.5-1.7-0.7s-1.1-0.5-1.5-0.9
	c-0.4-0.4-0.8-0.8-1.1-1.3c-0.3-0.5-0.4-1.2-0.4-1.9c0-0.7,0.1-1.3,0.4-1.9c0.3-0.6,0.7-1,1.2-1.4c0.5-0.4,1-0.7,1.6-0.9
	c0.6-0.2,1.2-0.3,1.9-0.3c0.5,0,0.9,0.1,1.4,0.2c0.5,0.2,0.9,0.4,1.3,0.6c0.4,0.2,0.8,0.5,1.1,0.8c0.3,0.3,0.6,0.6,0.8,0.8l-0.6,0.5
	c-0.3,0.3-0.7,0.4-1.2,0.4C367.3,52.5,367,52.4,366.7,52.2z"/>
<rect x="1308.5" y="51.1" width="1.9" height="13.6"/>
<rect x="1314" y="52.8" width="1.9" height="11.9"/>
<rect x="1319" y="52.8" width="1.9" height="11.9"/>
<path d="M1330.6,64.7l-0.1-0.2c0-0.1-0.1-0.2-0.1-0.3c0-0.1,0-0.2,0-0.3v-0.4c-0.1,0.2-0.3,0.4-0.5,0.6c-0.2,0.2-0.4,0.3-0.7,0.4
	c-0.3,0.1-0.5,0.2-0.8,0.3c-0.3,0.1-0.6,0.1-0.9,0.1c-0.6,0-1.1-0.1-1.5-0.3c-0.5-0.2-0.9-0.5-1.2-0.9c-0.3-0.4-0.6-0.9-0.8-1.4
	c-0.2-0.5-0.3-1.2-0.3-1.8v-5.7h1.9v5.7c0,0.8,0.2,1.5,0.5,2s0.8,0.7,1.4,0.7c0.4,0,0.7,0,1.1-0.1c0.3-0.1,0.6-0.2,0.9-0.4
	c0.3-0.2,0.5-0.3,0.6-0.6c0.2-0.2,0.2-0.4,0.3-0.7v-6.6h1.9v10H1330.6z"/>
<path d="M1334.7,62.6c0.1-0.1,0.3-0.1,0.4-0.2c0.1,0,0.2-0.1,0.4-0.1c0.2,0,0.3,0,0.5,0.1c0.1,0.1,0.3,0.2,0.5,0.3
	c0.1,0.1,0.3,0.2,0.5,0.2c0.2,0,0.3,0.1,0.5,0.1c0.2,0,0.4,0,0.6-0.1c0.2-0.1,0.4-0.1,0.5-0.3c0.2-0.1,0.3-0.3,0.4-0.4
	c0.1-0.2,0.1-0.4,0.1-0.6c0-0.2,0-0.3-0.1-0.5c-0.1-0.1-0.1-0.2-0.3-0.3c-0.1-0.1-0.3-0.2-0.5-0.3c-0.2-0.1-0.5-0.2-0.8-0.3
	c-0.3-0.1-0.7-0.3-1-0.4c-0.3-0.2-0.6-0.3-0.9-0.6c-0.3-0.2-0.5-0.5-0.6-0.8c-0.2-0.3-0.2-0.7-0.2-1.1c0-0.4,0.1-0.7,0.3-1.1
	c0.2-0.3,0.4-0.6,0.7-0.9s0.6-0.4,1-0.6c0.4-0.1,0.7-0.2,1.1-0.2c0.4,0,0.7,0.1,1.1,0.2c0.3,0.1,0.6,0.3,0.8,0.5s0.4,0.3,0.6,0.5
	c0.1,0.2,0.2,0.3,0.3,0.3l-0.4,0.4c-0.3,0.2-0.6,0.3-0.9,0.3c-0.1,0-0.3,0-0.4-0.1s-0.3-0.1-0.5-0.2c-0.1-0.1-0.3-0.1-0.4-0.1
	c-0.2,0-0.5,0-0.6,0.1c-0.2,0.1-0.3,0.2-0.4,0.3c-0.1,0.1-0.2,0.2-0.2,0.3c0,0.1-0.1,0.2-0.1,0.3c0,0.2,0,0.3,0.1,0.5
	c0.1,0.1,0.2,0.2,0.4,0.3c0.2,0.1,0.3,0.2,0.5,0.2c0.2,0.1,0.4,0.1,0.6,0.2c0.4,0.1,0.7,0.3,1.1,0.4c0.4,0.2,0.7,0.4,0.9,0.6
	s0.5,0.5,0.7,0.9c0.2,0.3,0.2,0.7,0.2,1.2c0,0.4-0.1,0.8-0.3,1.2c-0.2,0.4-0.4,0.7-0.7,1c-0.3,0.3-0.7,0.5-1.1,0.7
	c-0.4,0.2-0.9,0.3-1.4,0.3c-0.3,0-0.7,0-1-0.1s-0.6-0.2-0.9-0.4s-0.5-0.4-0.8-0.6c-0.2-0.2-0.4-0.5-0.6-0.8L1334.7,62.6z"/>
<path d="M1345.5,62.2c0,0.1,0,0.2,0,0.3c0,0.1,0.1,0.2,0.1,0.3l0.2,0.2c0.1,0.1,0.2,0.1,0.3,0.1l0.2,0c0.3-0.1,0.5-0.1,0.7-0.1
	c0.3,0,0.5,0.1,0.7,0.2c0.2,0.1,0.4,0.3,0.5,0.5l0.2,0.3c-0.1,0.1-0.3,0.2-0.5,0.3s-0.4,0.2-0.6,0.3c-0.2,0.1-0.4,0.1-0.7,0.2
	s-0.4,0.1-0.6,0.1c-0.4,0-0.8-0.1-1.1-0.2c-0.3-0.1-0.6-0.3-0.8-0.6c-0.2-0.2-0.4-0.5-0.5-0.8c-0.1-0.3-0.2-0.7-0.2-1.1v-5.7h-1.7
	v-1c0-0.5,0.5-0.8,1.5-0.8h0.2v-2.1c0-0.2,0-0.4,0.1-0.6c0-0.2,0.1-0.3,0.2-0.5c0.1-0.2,0.1-0.3,0.2-0.4h1.4v3.5h2.8v1.8h-2.8V62.2z
	"/>
<path d="M1351.9,54.8l0.1,0.2c0,0.1,0.1,0.2,0.1,0.3c0,0.1,0,0.2,0,0.3v0.7c0.1-0.2,0.3-0.4,0.5-0.6c0.2-0.2,0.4-0.4,0.7-0.5
	c0.3-0.1,0.5-0.3,0.8-0.4c0.3-0.1,0.6-0.1,0.9-0.1c0.5,0,1,0.1,1.5,0.3l-0.1,0.8c-0.1,0.3-0.2,0.5-0.3,0.6c-0.2,0.1-0.4,0.2-0.7,0.2
	l-0.1,0l0,0l-0.1,0l-0.2,0c-0.4,0-0.7,0.1-1.1,0.2c-0.3,0.1-0.6,0.3-0.9,0.4s-0.5,0.4-0.6,0.6c-0.2,0.2-0.2,0.5-0.3,0.7v6.3h-1.9
	v-10H1351.9z"/>
<path d="M1357.5,56.2c0.1-0.1,0.1-0.2,0.2-0.3c0.1-0.1,0.2-0.2,0.3-0.3c0.1-0.1,0.2-0.2,0.4-0.3c0.4-0.2,0.8-0.4,1.2-0.6
	c0.4-0.1,0.9-0.2,1.5-0.2c0.5,0,1,0.1,1.4,0.2c0.4,0.1,0.8,0.3,1,0.6c0.3,0.2,0.5,0.5,0.7,0.8c0.2,0.3,0.3,0.7,0.4,1.1
	c0.1,0.4,0.2,0.8,0.2,1.2c0,0.4,0.1,0.8,0.1,1.3v5h-1.5c-0.1-0.1-0.2-0.2-0.2-0.4s-0.1-0.3-0.1-0.4v-0.3c-0.2,0.2-0.4,0.3-0.6,0.5
	c-0.3,0.1-0.5,0.3-0.8,0.4s-0.5,0.2-0.8,0.2s-0.5,0.1-0.7,0.1c-0.5,0-1-0.1-1.4-0.2s-0.8-0.3-1.1-0.6c-0.3-0.3-0.5-0.6-0.7-1
	c-0.2-0.4-0.2-0.8-0.2-1.2c0-0.5,0.1-0.9,0.3-1.3c0.2-0.4,0.5-0.7,0.8-1s0.9-0.5,1.4-0.7s1.2-0.2,2-0.2c0.2,0,0.4,0,0.6,0
	c0.2,0,0.4,0,0.5,0c0.2,0,0.3,0,0.4,0c0.1,0,0.2,0,0.2,0c0-0.5-0.1-0.9-0.2-1.2c-0.1-0.3-0.3-0.5-0.5-0.7c-0.2-0.2-0.4-0.3-0.6-0.4
	s-0.5-0.1-0.7-0.1c-0.3,0-0.6,0-0.7,0.1c-0.2,0.1-0.3,0.1-0.5,0.2c-0.1,0.1-0.3,0.1-0.4,0.2s-0.3,0.1-0.5,0.1c-0.2,0-0.3,0-0.5-0.1
	c-0.1-0.1-0.3-0.1-0.4-0.2L1357.5,56.2z M1360.2,63.1c0.2,0,0.5,0,0.7-0.1c0.3,0,0.5-0.1,0.8-0.2s0.5-0.2,0.8-0.3
	c0.3-0.1,0.5-0.2,0.7-0.4v-1.7c0,0-0.1,0-0.2,0c-0.1,0-0.2,0-0.4,0c-0.2,0-0.3,0-0.5,0c-0.2,0-0.4,0-0.6,0c-0.4,0-0.8,0-1.1,0.1
	c-0.3,0.1-0.6,0.1-0.9,0.2c-0.3,0.1-0.4,0.3-0.6,0.4c-0.1,0.2-0.2,0.4-0.2,0.7c0,0.2,0,0.4,0.1,0.6s0.2,0.3,0.3,0.4
	c0.1,0.1,0.3,0.2,0.5,0.2C1359.8,63.1,1360,63.1,1360.2,63.1z"/>
<path d="M1370,62.2c0,0.1,0,0.2,0,0.3c0,0.1,0.1,0.2,0.1,0.3l0.2,0.2c0.1,0.1,0.2,0.1,0.3,0.1l0.2,0c0.3-0.1,0.5-0.1,0.7-0.1
	c0.3,0,0.5,0.1,0.7,0.2c0.2,0.1,0.4,0.3,0.5,0.5l0.2,0.3c-0.1,0.1-0.3,0.2-0.5,0.3s-0.4,0.2-0.6,0.3c-0.2,0.1-0.4,0.1-0.7,0.2
	s-0.4,0.1-0.6,0.1c-0.4,0-0.8-0.1-1.1-0.2c-0.3-0.1-0.6-0.3-0.8-0.6c-0.2-0.2-0.4-0.5-0.5-0.8c-0.1-0.3-0.2-0.7-0.2-1.1v-5.7h-1.7
	v-1c0-0.5,0.5-0.8,1.5-0.8h0.2v-2.1c0-0.2,0-0.4,0.1-0.6c0-0.2,0.1-0.3,0.2-0.5c0.1-0.2,0.1-0.3,0.2-0.4h1.4v3.5h2.8v1.8h-2.8V62.2z
	"/>
<path d="M1373.7,59.7c0-0.7,0.1-1.4,0.4-2c0.3-0.6,0.6-1.2,1.1-1.6c0.5-0.5,1-0.8,1.6-1.1c0.6-0.3,1.3-0.4,2-0.4
	c0.7,0,1.4,0.1,2,0.4c0.6,0.3,1.2,0.6,1.6,1.1c0.5,0.5,0.8,1,1.1,1.6c0.3,0.6,0.4,1.3,0.4,2c0,0.7-0.1,1.4-0.4,2
	c-0.3,0.6-0.6,1.2-1.1,1.6c-0.5,0.5-1,0.8-1.6,1.1c-0.6,0.3-1.3,0.4-2,0.4c-0.7,0-1.4-0.1-2-0.4c-0.6-0.3-1.2-0.6-1.6-1.1
	c-0.5-0.5-0.8-1-1.1-1.6C1373.8,61.1,1373.7,60.5,1373.7,59.7z M1375.5,59.7c0,0.5,0.1,0.9,0.3,1.3c0.2,0.4,0.4,0.7,0.7,1
	c0.3,0.3,0.6,0.5,1,0.7c0.4,0.2,0.8,0.3,1.3,0.3c0.5,0,0.9-0.1,1.3-0.3c0.4-0.2,0.7-0.4,1-0.7c0.3-0.3,0.5-0.6,0.7-1
	c0.2-0.4,0.3-0.8,0.3-1.3c0-0.5-0.1-0.9-0.3-1.3c-0.2-0.4-0.4-0.7-0.7-1s-0.6-0.5-1-0.7c-0.4-0.2-0.8-0.3-1.3-0.3
	c-0.5,0-0.9,0.1-1.3,0.3c-0.4,0.2-0.7,0.4-1,0.7s-0.5,0.6-0.7,1C1375.6,58.9,1375.5,59.3,1375.5,59.7z"/>
<path d="M1387.6,54.8l0.1,0.2c0,0.1,0.1,0.2,0.1,0.3c0,0.1,0,0.2,0,0.3v0.7c0.1-0.2,0.3-0.4,0.5-0.6c0.2-0.2,0.4-0.4,0.7-0.5
	c0.3-0.1,0.5-0.3,0.8-0.4c0.3-0.1,0.6-0.1,0.9-0.1c0.5,0,1,0.1,1.5,0.3l-0.1,0.8c-0.1,0.3-0.2,0.5-0.3,0.6c-0.2,0.1-0.4,0.2-0.7,0.2
	l-0.1,0l0,0l-0.1,0l-0.2,0c-0.4,0-0.7,0.1-1.1,0.2c-0.3,0.1-0.6,0.3-0.9,0.4s-0.5,0.4-0.6,0.6c-0.2,0.2-0.2,0.5-0.3,0.7v6.3h-1.9
	v-10H1387.6z"/>
<path d="M1508,64.7h-1.8V51.8h4.6c0.6,0,1.1,0.1,1.6,0.3c0.5,0.2,0.9,0.5,1.3,0.9c0.4,0.4,0.7,0.8,0.9,1.3c0.2,0.5,0.3,1,0.3,1.6
	c0,0.6-0.1,1.1-0.3,1.6c-0.2,0.5-0.5,0.9-0.9,1.3c-0.4,0.4-0.8,0.7-1.3,0.9c-0.5,0.2-1,0.3-1.6,0.3h-2.8V64.7z M1510.9,58.2
	c0.3,0,0.6-0.1,0.9-0.2c0.3-0.1,0.5-0.3,0.7-0.5c0.2-0.2,0.4-0.4,0.5-0.7c0.1-0.3,0.2-0.6,0.2-0.9c0-0.3-0.1-0.6-0.2-0.9
	c-0.1-0.3-0.3-0.5-0.5-0.7s-0.4-0.4-0.7-0.5c-0.3-0.1-0.6-0.2-0.9-0.2h-2.8v4.5H1510.9z"/>
<path d="M1518.4,51.8l0.1,0.2c0,0.1,0.1,0.1,0.1,0.2c0,0.1,0,0.2,0,0.3v3.8c0.1-0.2,0.3-0.4,0.5-0.6c0.2-0.2,0.4-0.3,0.6-0.4
	c0.2-0.1,0.5-0.2,0.8-0.2c0.3-0.1,0.6-0.1,0.9-0.1c0.5,0,1,0.1,1.4,0.3c0.4,0.2,0.8,0.5,1.1,0.8c0.3,0.4,0.5,0.8,0.7,1.3
	s0.3,1.1,0.3,1.7v5.4h-1.8v-5.4c0-0.8-0.1-1.4-0.4-1.8c-0.3-0.4-0.7-0.7-1.3-0.7c-0.4,0-0.7,0-1,0.1c-0.3,0.1-0.6,0.2-0.9,0.4
	c-0.2,0.2-0.4,0.3-0.6,0.5c-0.1,0.2-0.2,0.4-0.3,0.6v6.3h-1.8V51.8H1518.4z"/>
<path d="M1526.7,60c0-0.7,0.1-1.3,0.4-1.9c0.3-0.6,0.6-1.1,1-1.5c0.4-0.4,1-0.8,1.5-1c0.6-0.3,1.2-0.4,1.9-0.4s1.3,0.1,1.9,0.4
	c0.6,0.3,1.1,0.6,1.5,1c0.4,0.4,0.8,1,1,1.5c0.3,0.6,0.4,1.2,0.4,1.9s-0.1,1.3-0.4,1.9c-0.3,0.6-0.6,1.1-1,1.5c-0.4,0.4-1,0.8-1.5,1
	s-1.2,0.4-1.9,0.4s-1.3-0.1-1.9-0.4c-0.6-0.3-1.1-0.6-1.5-1c-0.4-0.4-0.8-1-1-1.5C1526.8,61.3,1526.7,60.7,1526.7,60z M1528.4,60
	c0,0.4,0.1,0.8,0.2,1.2c0.2,0.4,0.4,0.7,0.7,1c0.3,0.3,0.6,0.5,1,0.7c0.4,0.2,0.8,0.2,1.2,0.2c0.4,0,0.8-0.1,1.2-0.2
	c0.4-0.2,0.7-0.4,1-0.7c0.3-0.3,0.5-0.6,0.7-1c0.2-0.4,0.2-0.8,0.2-1.2s-0.1-0.8-0.2-1.2c-0.2-0.4-0.4-0.7-0.7-1
	c-0.3-0.3-0.6-0.5-1-0.7c-0.4-0.2-0.8-0.2-1.2-0.2c-0.4,0-0.8,0.1-1.2,0.2c-0.4,0.2-0.7,0.4-1,0.7c-0.3,0.3-0.5,0.6-0.7,1
	C1528.5,59.2,1528.4,59.6,1528.4,60z"/>
<path d="M1540.5,62.4c0,0.1,0,0.2,0,0.3c0,0.1,0.1,0.2,0.1,0.3l0.2,0.2c0.1,0.1,0.2,0.1,0.3,0.1l0.2,0c0.3-0.1,0.5-0.1,0.7-0.1
	c0.2,0,0.5,0.1,0.6,0.2c0.2,0.1,0.3,0.3,0.5,0.5l0.2,0.3c-0.1,0.1-0.3,0.2-0.4,0.3c-0.2,0.1-0.4,0.2-0.6,0.3s-0.4,0.1-0.6,0.2
	c-0.2,0-0.4,0.1-0.6,0.1c-0.4,0-0.7-0.1-1-0.2s-0.6-0.3-0.8-0.5c-0.2-0.2-0.4-0.5-0.5-0.8c-0.1-0.3-0.2-0.6-0.2-1V57h-1.6v-1
	c0-0.5,0.5-0.7,1.4-0.7h0.2v-1.9c0-0.2,0-0.4,0.1-0.5s0.1-0.3,0.1-0.4c0.1-0.1,0.1-0.3,0.2-0.4h1.4v3.3h2.6V57h-2.6V62.4z"/>
<path d="M1544,60c0-0.7,0.1-1.3,0.4-1.9c0.3-0.6,0.6-1.1,1-1.5c0.4-0.4,1-0.8,1.5-1c0.6-0.3,1.2-0.4,1.9-0.4s1.3,0.1,1.9,0.4
	c0.6,0.3,1.1,0.6,1.5,1c0.4,0.4,0.8,1,1,1.5c0.3,0.6,0.4,1.2,0.4,1.9s-0.1,1.3-0.4,1.9c-0.3,0.6-0.6,1.1-1,1.5c-0.4,0.4-1,0.8-1.5,1
	s-1.2,0.4-1.9,0.4s-1.3-0.1-1.9-0.4c-0.6-0.3-1.1-0.6-1.5-1c-0.4-0.4-0.8-1-1-1.5C1544.1,61.3,1544,60.7,1544,60z M1545.7,60
	c0,0.4,0.1,0.8,0.2,1.2c0.2,0.4,0.4,0.7,0.7,1c0.3,0.3,0.6,0.5,1,0.7c0.4,0.2,0.8,0.2,1.2,0.2c0.4,0,0.8-0.1,1.2-0.2
	c0.4-0.2,0.7-0.4,1-0.7c0.3-0.3,0.5-0.6,0.7-1c0.2-0.4,0.2-0.8,0.2-1.2s-0.1-0.8-0.2-1.2c-0.2-0.4-0.4-0.7-0.7-1
	c-0.3-0.3-0.6-0.5-1-0.7c-0.4-0.2-0.8-0.2-1.2-0.2c-0.4,0-0.8,0.1-1.2,0.2c-0.4,0.2-0.7,0.4-1,0.7c-0.3,0.3-0.5,0.6-0.7,1
	C1545.8,59.2,1545.7,59.6,1545.7,60z"/>
<path d="M1555.4,62.7c0.1-0.1,0.2-0.1,0.4-0.1c0.1,0,0.2-0.1,0.4-0.1c0.2,0,0.3,0,0.4,0.1c0.1,0.1,0.3,0.2,0.5,0.3
	c0.1,0.1,0.3,0.2,0.5,0.2s0.3,0.1,0.5,0.1c0.2,0,0.4,0,0.6-0.1c0.2-0.1,0.3-0.1,0.5-0.3s0.3-0.2,0.4-0.4c0.1-0.2,0.1-0.4,0.1-0.6
	c0-0.2,0-0.3-0.1-0.4s-0.1-0.2-0.3-0.3c-0.1-0.1-0.3-0.2-0.5-0.3c-0.2-0.1-0.5-0.2-0.8-0.3c-0.3-0.1-0.7-0.2-1-0.4s-0.6-0.3-0.9-0.5
	c-0.3-0.2-0.5-0.5-0.6-0.8c-0.2-0.3-0.2-0.7-0.2-1.1c0-0.4,0.1-0.7,0.3-1c0.2-0.3,0.4-0.6,0.7-0.8c0.3-0.2,0.6-0.4,0.9-0.5
	c0.3-0.1,0.7-0.2,1.1-0.2c0.4,0,0.7,0.1,1,0.2c0.3,0.1,0.6,0.3,0.8,0.5c0.2,0.2,0.4,0.3,0.5,0.5c0.1,0.1,0.2,0.2,0.2,0.3l-0.4,0.4
	c-0.3,0.2-0.5,0.3-0.9,0.3c-0.1,0-0.2,0-0.4-0.1c-0.1-0.1-0.3-0.1-0.5-0.2c-0.1-0.1-0.2-0.1-0.4-0.1c-0.2,0-0.4,0-0.6,0.1
	s-0.3,0.1-0.4,0.2c-0.1,0.1-0.2,0.2-0.2,0.3s-0.1,0.2-0.1,0.2c0,0.2,0,0.3,0.1,0.4c0.1,0.1,0.2,0.2,0.4,0.3c0.1,0.1,0.3,0.2,0.5,0.2
	c0.2,0.1,0.4,0.1,0.6,0.2c0.4,0.1,0.7,0.3,1,0.4c0.3,0.2,0.6,0.3,0.9,0.6c0.3,0.2,0.5,0.5,0.6,0.8s0.2,0.7,0.2,1.1
	c0,0.4-0.1,0.8-0.2,1.2c-0.2,0.4-0.4,0.7-0.7,1c-0.3,0.3-0.6,0.5-1,0.7c-0.4,0.2-0.8,0.2-1.3,0.2c-0.3,0-0.6,0-0.9-0.1
	c-0.3-0.1-0.6-0.2-0.9-0.4c-0.3-0.2-0.5-0.4-0.7-0.6s-0.4-0.5-0.6-0.8L1555.4,62.7z"/>
<path d="M1564.9,51.8l0.1,0.2c0,0.1,0.1,0.1,0.1,0.2c0,0.1,0,0.2,0,0.3v3.8c0.1-0.2,0.3-0.4,0.5-0.6c0.2-0.2,0.4-0.3,0.6-0.4
	c0.2-0.1,0.5-0.2,0.8-0.2c0.3-0.1,0.6-0.1,0.9-0.1c0.5,0,1,0.1,1.4,0.3c0.4,0.2,0.8,0.5,1.1,0.8c0.3,0.4,0.5,0.8,0.7,1.3
	s0.3,1.1,0.3,1.7v5.4h-1.8v-5.4c0-0.8-0.1-1.4-0.4-1.8c-0.3-0.4-0.7-0.7-1.3-0.7c-0.4,0-0.7,0-1,0.1c-0.3,0.1-0.6,0.2-0.9,0.4
	c-0.2,0.2-0.4,0.3-0.6,0.5c-0.1,0.2-0.2,0.4-0.3,0.6v6.3h-1.8V51.8H1564.9z"/>
<path d="M1573.2,60c0-0.7,0.1-1.3,0.4-1.9c0.3-0.6,0.6-1.1,1-1.5c0.4-0.4,1-0.8,1.5-1c0.6-0.3,1.2-0.4,1.9-0.4s1.3,0.1,1.9,0.4
	c0.6,0.3,1.1,0.6,1.5,1c0.4,0.4,0.8,1,1,1.5c0.3,0.6,0.4,1.2,0.4,1.9s-0.1,1.3-0.4,1.9c-0.3,0.6-0.6,1.1-1,1.5c-0.4,0.4-1,0.8-1.5,1
	s-1.2,0.4-1.9,0.4s-1.3-0.1-1.9-0.4c-0.6-0.3-1.1-0.6-1.5-1c-0.4-0.4-0.8-1-1-1.5C1573.3,61.3,1573.2,60.7,1573.2,60z M1574.9,60
	c0,0.4,0.1,0.8,0.2,1.2c0.2,0.4,0.4,0.7,0.7,1c0.3,0.3,0.6,0.5,1,0.7c0.4,0.2,0.8,0.2,1.2,0.2c0.4,0,0.8-0.1,1.2-0.2
	c0.4-0.2,0.7-0.4,1-0.7c0.3-0.3,0.5-0.6,0.7-1c0.2-0.4,0.2-0.8,0.2-1.2s-0.1-0.8-0.2-1.2c-0.2-0.4-0.4-0.7-0.7-1
	c-0.3-0.3-0.6-0.5-1-0.7c-0.4-0.2-0.8-0.2-1.2-0.2c-0.4,0-0.8,0.1-1.2,0.2c-0.4,0.2-0.7,0.4-1,0.7c-0.3,0.3-0.5,0.6-0.7,1
	C1575,59.2,1574.9,59.6,1574.9,60z"/>
<path d="M1586.4,55.3l0.1,0.2c0,0.1,0.1,0.1,0.1,0.2c0,0.1,0,0.2,0,0.3v0.4c0-0.2,0.1-0.3,0.2-0.4c0.1-0.1,0.2-0.2,0.4-0.3
	c0.1-0.1,0.3-0.2,0.5-0.2c0.2-0.1,0.4-0.1,0.5-0.2c0.2,0,0.3-0.1,0.5-0.1c0.2,0,0.3,0,0.4,0c0.7,0,1.3,0.1,1.9,0.4
	c0.6,0.3,1.1,0.6,1.5,1c0.4,0.4,0.7,1,1,1.5c0.2,0.6,0.4,1.2,0.4,1.9s-0.1,1.3-0.4,1.9c-0.2,0.6-0.6,1.1-1,1.5s-0.9,0.8-1.5,1
	c-0.6,0.3-1.2,0.4-1.9,0.4c-0.2,0-0.4,0-0.6,0c-0.2,0-0.4-0.1-0.6-0.2s-0.4-0.2-0.6-0.3s-0.4-0.3-0.6-0.5v3.9h-1.8V55.3H1586.4z
	 M1589.1,63.1c0.4,0,0.8-0.1,1.2-0.2c0.4-0.2,0.7-0.4,0.9-0.7c0.3-0.3,0.5-0.6,0.6-1c0.1-0.4,0.2-0.8,0.2-1.2s-0.1-0.8-0.2-1.2
	c-0.1-0.4-0.3-0.7-0.6-1c-0.3-0.3-0.6-0.5-0.9-0.7c-0.4-0.2-0.8-0.2-1.2-0.2c-0.5,0-0.9,0.1-1.3,0.3c-0.4,0.2-0.8,0.4-1.1,0.8v4.2
	c0.3,0.3,0.7,0.6,1.1,0.8C1588.2,63,1588.7,63.1,1589.1,63.1z"/>
<polygon class="st16" points="1700,87 1700,29 1750,0 1800,29 1800,87 1750,116 "/>
<polygon class="st1" points="1795.6,84.4 1750,110.9 1704.3,84.4 1704.3,31.6 1750,5.1 1795.6,31.6 "/>
<path d="M1734.8,52.5c-0.3-0.2-0.7-0.4-1-0.6c-0.3-0.1-0.6-0.2-0.9-0.2c-0.4,0-0.8,0.1-1.1,0.2c-0.3,0.1-0.6,0.3-0.9,0.5
	c-0.3,0.2-0.5,0.4-0.6,0.7c-0.2,0.3-0.2,0.5-0.2,0.9c0,0.4,0.1,0.7,0.2,0.9c0.1,0.3,0.3,0.5,0.6,0.7c0.3,0.2,0.6,0.4,1,0.6
	c0.4,0.2,0.9,0.4,1.5,0.6c0.3,0.1,0.6,0.2,0.9,0.3c0.3,0.1,0.6,0.2,0.9,0.3s0.6,0.3,0.8,0.4c0.3,0.1,0.5,0.3,0.8,0.5
	c1.3,1,1.9,2.3,1.9,3.9c0,0.8-0.2,1.6-0.5,2.2c-0.3,0.7-0.8,1.3-1.3,1.7c-0.6,0.5-1.2,0.9-2,1.1c-0.7,0.3-1.5,0.4-2.3,0.4
	c-1.6,0-3-0.5-4-1.4c-0.2-0.2-0.4-0.4-0.6-0.6c-0.2-0.2-0.3-0.4-0.4-0.6c-0.1-0.2-0.2-0.3-0.3-0.5c-0.1-0.2-0.2-0.3-0.2-0.4l0.6-0.3
	c0.3-0.2,0.6-0.3,1-0.3c0.5,0,1,0.2,1.4,0.6l0.2,0.2c0.3,0.3,0.7,0.5,1.1,0.6s0.8,0.2,1.3,0.2c0.4,0,0.8-0.1,1.3-0.2
	c0.4-0.1,0.8-0.3,1.2-0.6c0.4-0.3,0.6-0.6,0.9-1c0.2-0.4,0.3-0.8,0.3-1.3c0-0.5-0.1-0.9-0.3-1.2c-0.2-0.3-0.5-0.6-0.8-0.8
	c-0.3-0.2-0.7-0.4-1.2-0.6c-0.4-0.2-0.9-0.3-1.3-0.5c-0.6-0.2-1.2-0.5-1.8-0.8c-0.6-0.3-1.1-0.6-1.6-0.9c-0.5-0.4-0.8-0.8-1.1-1.4
	c-0.3-0.5-0.4-1.2-0.4-2c0-0.7,0.2-1.4,0.5-2c0.3-0.6,0.7-1.1,1.2-1.5c0.5-0.4,1.1-0.7,1.7-0.9c0.6-0.2,1.3-0.3,2-0.3
	c0.5,0,1,0.1,1.5,0.2c0.5,0.2,0.9,0.4,1.4,0.6c0.4,0.3,0.8,0.5,1.2,0.9c0.3,0.3,0.6,0.6,0.8,0.9l-0.6,0.5c-0.3,0.3-0.8,0.4-1.2,0.4
	C1735.5,52.8,1735.1,52.7,1734.8,52.5z"/>
<path d="M1741.5,56.2c0.1-0.1,0.2-0.3,0.3-0.4c0.1-0.1,0.2-0.2,0.4-0.4c0.2-0.1,0.3-0.3,0.5-0.4c0.5-0.3,1-0.6,1.6-0.7
	s1.2-0.3,1.9-0.3c0.7,0,1.3,0.1,1.9,0.3c0.5,0.2,1,0.4,1.4,0.7s0.7,0.7,0.9,1.1c0.2,0.4,0.4,0.9,0.6,1.4c0.1,0.5,0.2,1,0.3,1.6
	c0,0.6,0.1,1.1,0.1,1.7v6.6h-2c-0.1-0.1-0.2-0.3-0.3-0.5c-0.1-0.2-0.1-0.4-0.1-0.6V66c-0.2,0.2-0.5,0.4-0.8,0.6s-0.7,0.4-1,0.5
	c-0.4,0.1-0.7,0.2-1.1,0.3s-0.7,0.1-1,0.1c-0.7,0-1.3-0.1-1.8-0.3s-1-0.5-1.4-0.8s-0.7-0.8-0.9-1.3c-0.2-0.5-0.3-1-0.3-1.6
	c0-0.7,0.1-1.2,0.4-1.8c0.2-0.5,0.6-1,1.1-1.3c0.5-0.4,1.1-0.7,1.9-0.9c0.8-0.2,1.6-0.3,2.7-0.3c0.3,0,0.6,0,0.8,0
	c0.3,0,0.5,0,0.7,0c0.2,0,0.4,0,0.5,0.1c0.1,0,0.2,0,0.3,0c0-0.6-0.1-1.1-0.3-1.5c-0.2-0.4-0.4-0.7-0.6-0.9
	c-0.2-0.2-0.5-0.4-0.8-0.5c-0.3-0.1-0.6-0.1-1-0.1c-0.4,0-0.7,0-1,0.1s-0.4,0.1-0.6,0.2c-0.2,0.1-0.4,0.2-0.5,0.2
	c-0.2,0.1-0.4,0.1-0.7,0.1c-0.2,0-0.4,0-0.6-0.1c-0.2-0.1-0.4-0.2-0.6-0.3L1741.5,56.2z M1745,65.2c0.3,0,0.6,0,0.9-0.1
	s0.7-0.1,1-0.2c0.3-0.1,0.7-0.2,1-0.4c0.3-0.1,0.7-0.3,1-0.5v-2.2c0,0-0.1,0-0.3,0c-0.1,0-0.3,0-0.5,0c-0.2,0-0.4,0-0.7,0
	c-0.3,0-0.5,0-0.8,0c-0.5,0-1,0-1.4,0.1c-0.4,0.1-0.8,0.2-1.2,0.3c-0.3,0.1-0.6,0.3-0.8,0.6c-0.2,0.2-0.3,0.5-0.3,0.9
	c0,0.3,0.1,0.5,0.2,0.7c0.1,0.2,0.2,0.4,0.4,0.5c0.2,0.1,0.4,0.2,0.7,0.3S1744.7,65.2,1745,65.2z"/>
<path d="M1754.4,64.6c0.2-0.1,0.3-0.2,0.5-0.2c0.2-0.1,0.3-0.1,0.5-0.1c0.2,0,0.4,0,0.6,0.1c0.2,0.1,0.4,0.2,0.7,0.4
	c0.2,0.1,0.4,0.2,0.6,0.3c0.2,0.1,0.5,0.1,0.7,0.1c0.3,0,0.5,0,0.8-0.1c0.3-0.1,0.5-0.2,0.7-0.3c0.2-0.2,0.4-0.3,0.5-0.6
	c0.1-0.2,0.2-0.5,0.2-0.8c0-0.2,0-0.4-0.1-0.6c-0.1-0.2-0.2-0.3-0.4-0.5c-0.2-0.1-0.4-0.3-0.7-0.4s-0.7-0.3-1.1-0.4
	c-0.5-0.2-0.9-0.3-1.4-0.5c-0.4-0.2-0.8-0.5-1.2-0.7c-0.3-0.3-0.6-0.6-0.8-1.1c-0.2-0.4-0.3-0.9-0.3-1.5c0-0.5,0.1-1,0.3-1.4
	s0.5-0.8,0.9-1.1c0.4-0.3,0.8-0.6,1.3-0.8c0.5-0.2,1-0.3,1.5-0.3c0.5,0,1,0.1,1.4,0.3c0.4,0.2,0.8,0.4,1.1,0.6
	c0.3,0.2,0.5,0.5,0.7,0.7c0.2,0.2,0.3,0.3,0.3,0.4l-0.6,0.5c-0.3,0.3-0.8,0.4-1.2,0.4c-0.2,0-0.3,0-0.5-0.1s-0.4-0.2-0.7-0.3
	c-0.2-0.1-0.3-0.1-0.5-0.1c-0.3,0-0.6,0-0.8,0.1c-0.2,0.1-0.4,0.2-0.5,0.3c-0.1,0.1-0.2,0.3-0.3,0.4c-0.1,0.1-0.1,0.2-0.1,0.3
	c0,0.2,0.1,0.4,0.2,0.6c0.1,0.2,0.3,0.3,0.5,0.4c0.2,0.1,0.4,0.2,0.7,0.3c0.3,0.1,0.5,0.2,0.8,0.3c0.5,0.2,1,0.4,1.5,0.6
	c0.5,0.2,0.9,0.5,1.2,0.8s0.7,0.7,0.9,1.1c0.2,0.4,0.3,1,0.3,1.6c0,0.6-0.1,1.1-0.3,1.6s-0.5,0.9-0.9,1.3c-0.4,0.4-0.9,0.7-1.4,0.9
	c-0.6,0.2-1.2,0.3-1.8,0.3c-0.5,0-0.9-0.1-1.3-0.2c-0.4-0.1-0.8-0.3-1.2-0.5s-0.7-0.5-1-0.8c-0.3-0.3-0.6-0.7-0.8-1.1L1754.4,64.6z"
	/>
<path d="M1765,64.6c0.2-0.1,0.3-0.2,0.5-0.2c0.2-0.1,0.3-0.1,0.5-0.1c0.2,0,0.4,0,0.6,0.1c0.2,0.1,0.4,0.2,0.7,0.4
	c0.2,0.1,0.4,0.2,0.6,0.3c0.2,0.1,0.5,0.1,0.7,0.1c0.3,0,0.5,0,0.8-0.1c0.3-0.1,0.5-0.2,0.7-0.3c0.2-0.2,0.4-0.3,0.5-0.6
	c0.1-0.2,0.2-0.5,0.2-0.8c0-0.2,0-0.4-0.1-0.6c-0.1-0.2-0.2-0.3-0.4-0.5c-0.2-0.1-0.4-0.3-0.7-0.4s-0.7-0.3-1.1-0.4
	c-0.5-0.2-0.9-0.3-1.4-0.5c-0.4-0.2-0.8-0.5-1.2-0.7c-0.3-0.3-0.6-0.6-0.8-1.1c-0.2-0.4-0.3-0.9-0.3-1.5c0-0.5,0.1-1,0.3-1.4
	s0.5-0.8,0.9-1.1c0.4-0.3,0.8-0.6,1.3-0.8c0.5-0.2,1-0.3,1.5-0.3c0.5,0,1,0.1,1.4,0.3c0.4,0.2,0.8,0.4,1.1,0.6
	c0.3,0.2,0.5,0.5,0.7,0.7c0.2,0.2,0.3,0.3,0.3,0.4l-0.6,0.5c-0.3,0.3-0.8,0.4-1.2,0.4c-0.2,0-0.3,0-0.5-0.1s-0.4-0.2-0.7-0.3
	c-0.2-0.1-0.3-0.1-0.5-0.1c-0.3,0-0.6,0-0.8,0.1c-0.2,0.1-0.4,0.2-0.5,0.3c-0.1,0.1-0.2,0.3-0.3,0.4c-0.1,0.1-0.1,0.2-0.1,0.3
	c0,0.2,0.1,0.4,0.2,0.6c0.1,0.2,0.3,0.3,0.5,0.4c0.2,0.1,0.4,0.2,0.7,0.3c0.3,0.1,0.5,0.2,0.8,0.3c0.5,0.2,1,0.4,1.5,0.6
	c0.5,0.2,0.9,0.5,1.2,0.8s0.7,0.7,0.9,1.1c0.2,0.4,0.3,1,0.3,1.6c0,0.6-0.1,1.1-0.3,1.6s-0.5,0.9-0.9,1.3c-0.4,0.4-0.9,0.7-1.4,0.9
	c-0.6,0.2-1.2,0.3-1.8,0.3c-0.5,0-0.9-0.1-1.3-0.2c-0.4-0.1-0.8-0.3-1.2-0.5s-0.7-0.5-1-0.8c-0.3-0.3-0.6-0.7-0.8-1.1L1765,64.6z"/>
<polygon class="st17" points="1900,87 1900,29 1950,0 2000,29 2000,87 1950,116 "/>
<polygon class="st1" points="1995.6,84.4 1950,110.9 1904.3,84.4 1904.3,31.6 1950,5.1 1995.6,31.6 "/>
<path d="M1924.7,58.6v7.2c-0.4,0.4-0.9,0.8-1.4,1c-0.5,0.3-1,0.5-1.6,0.6c-0.6,0.2-1.2,0.3-1.8,0.3c-0.6,0.1-1.2,0.1-1.9,0.1
	c-1.3,0-2.5-0.2-3.6-0.7c-1.1-0.5-2.1-1.1-2.9-2s-1.5-1.8-2-2.9c-0.5-1.1-0.7-2.3-0.7-3.6c0-0.8,0.1-1.7,0.3-2.4
	c0.2-0.8,0.5-1.5,0.9-2.2c0.4-0.7,0.9-1.3,1.4-1.9c0.6-0.6,1.2-1,1.9-1.4c0.7-0.4,1.4-0.7,2.2-0.9c0.8-0.2,1.6-0.3,2.4-0.3
	c0.7,0,1.3,0.1,1.9,0.2c0.6,0.1,1.2,0.3,1.8,0.6c0.6,0.2,1.1,0.6,1.6,0.9c0.5,0.4,1,0.8,1.4,1.2l-0.5,0.5c-0.2,0.2-0.4,0.4-0.6,0.5
	s-0.5,0.1-0.8,0.1c-0.4,0-0.7-0.1-1-0.3c-0.5-0.4-1.1-0.7-1.8-0.9c-0.6-0.2-1.3-0.3-2-0.3c-0.9,0-1.8,0.2-2.6,0.5
	c-0.8,0.3-1.5,0.8-2.1,1.4s-1.1,1.3-1.4,2.1c-0.4,0.8-0.5,1.7-0.5,2.6c0,0.9,0.2,1.8,0.5,2.6c0.4,0.8,0.9,1.5,1.5,2.1
	s1.3,1.1,2.2,1.4c0.8,0.4,1.7,0.5,2.6,0.5c0.8,0,1.5-0.1,2.2-0.3c0.7-0.2,1.3-0.4,1.9-0.8V61h-1c-0.3,0-0.6-0.1-0.8-0.2
	c-0.2-0.1-0.4-0.2-0.6-0.4c-0.2-0.2-0.3-0.4-0.4-0.6c-0.1-0.2-0.1-0.5-0.1-0.7v-0.5H1924.7z"/>
<path d="M1928.1,51.3c0-0.2,0-0.5,0.1-0.7c0.1-0.2,0.2-0.4,0.4-0.5c0.2-0.2,0.3-0.3,0.5-0.4c0.2-0.1,0.4-0.1,0.7-0.1s0.5,0,0.7,0.1
	c0.2,0.1,0.4,0.2,0.5,0.4c0.2,0.2,0.3,0.3,0.4,0.5c0.1,0.2,0.1,0.4,0.1,0.7c0,0.2,0,0.5-0.1,0.7c-0.1,0.2-0.2,0.4-0.4,0.5
	c-0.2,0.2-0.3,0.3-0.5,0.4s-0.4,0.1-0.7,0.1s-0.5,0-0.7-0.1s-0.4-0.2-0.5-0.4c-0.2-0.2-0.3-0.3-0.4-0.5
	C1928.1,51.7,1928.1,51.5,1928.1,51.3z M1931,54.6v13.1h-2.5V54.6H1931z"/>
<path d="M1938.1,64.4c0,0.1,0,0.3,0.1,0.4c0,0.1,0.1,0.3,0.2,0.4c0.1,0.1,0.2,0.2,0.3,0.3s0.2,0.1,0.4,0.1l0.3,0
	c0.4-0.1,0.7-0.1,0.9-0.1c0.3,0,0.6,0.1,0.9,0.3c0.3,0.2,0.5,0.4,0.7,0.6l0.3,0.4c-0.2,0.1-0.4,0.3-0.6,0.4s-0.5,0.3-0.8,0.4
	s-0.6,0.2-0.9,0.3s-0.6,0.1-0.8,0.1c-0.5,0-1-0.1-1.4-0.3c-0.4-0.2-0.8-0.4-1.1-0.7c-0.3-0.3-0.5-0.7-0.7-1.1
	c-0.2-0.4-0.2-0.9-0.2-1.4v-7.5h-2.2v-1.3c0-0.7,0.6-1,1.9-1h0.3v-2.7c0-0.3,0-0.5,0.1-0.8c0.1-0.2,0.1-0.4,0.2-0.6
	c0.1-0.2,0.2-0.4,0.3-0.5h1.9v4.6h3.6v2.4h-3.6V64.4z"/>
<polygon points="1959.4,67.7 1956.9,67.7 1956.9,59.9 1947.2,59.9 1947.2,67.7 1944.8,67.7 1944.8,49.8 1947.2,49.8 1947.2,57.4 
	1956.9,57.4 1956.9,49.8 1959.4,49.8 "/>
<path d="M1972.2,67.7c-0.1-0.1-0.1-0.2-0.2-0.3c0-0.1-0.1-0.2-0.1-0.3c0-0.1-0.1-0.3-0.1-0.4v-0.5c-0.1,0.3-0.4,0.6-0.6,0.8
	s-0.6,0.4-0.9,0.5c-0.3,0.1-0.7,0.3-1.1,0.3c-0.4,0.1-0.8,0.1-1.2,0.1c-0.7,0-1.4-0.1-2-0.4c-0.6-0.3-1.1-0.7-1.6-1.2
	c-0.4-0.5-0.8-1.1-1-1.8c-0.2-0.7-0.4-1.5-0.4-2.4v-7.5h2.5V62c0,1.1,0.2,1.9,0.6,2.6c0.4,0.6,1,0.9,1.9,0.9c0.5,0,1-0.1,1.4-0.2
	c0.4-0.1,0.8-0.3,1.2-0.5c0.3-0.2,0.6-0.5,0.8-0.7c0.2-0.3,0.3-0.6,0.3-0.9v-8.7h2.5v13.1H1972.2z"/>
<path d="M1978,67.7V49.8h2.5v5.9c0.3-0.3,0.5-0.5,0.8-0.6s0.6-0.3,0.9-0.4c0.3-0.1,0.6-0.2,0.9-0.2c0.3,0,0.6-0.1,0.9-0.1
	c0.9,0,1.8,0.2,2.6,0.5c0.8,0.4,1.5,0.8,2.1,1.4c0.6,0.6,1,1.3,1.4,2.1c0.3,0.8,0.5,1.7,0.5,2.6c0,0.9-0.2,1.8-0.5,2.6
	c-0.3,0.8-0.8,1.5-1.4,2.1s-1.3,1.1-2.1,1.5c-0.8,0.4-1.7,0.5-2.6,0.5c-0.6,0-1.2-0.1-1.8-0.3s-1.1-0.5-1.7-1.1v0.1
	c0,0.1,0,0.3-0.1,0.4c0,0.1-0.1,0.2-0.1,0.3c0,0.1-0.1,0.2-0.2,0.3H1978z M1983.9,65.5c0.6,0,1.2-0.1,1.7-0.3s0.9-0.5,1.3-0.9
	c0.4-0.4,0.6-0.9,0.8-1.4c0.2-0.5,0.3-1.1,0.3-1.7c0-0.6-0.1-1.2-0.3-1.7c-0.2-0.5-0.5-1-0.8-1.4c-0.4-0.4-0.8-0.7-1.3-0.9
	c-0.5-0.2-1-0.3-1.7-0.3c-0.6,0-1.3,0.1-1.9,0.4c-0.6,0.3-1.1,0.6-1.6,1v5.8c0.4,0.4,1,0.8,1.6,1
	C1982.6,65.4,1983.3,65.5,1983.9,65.5z"/>
<polygon class="st18" points="2100,87 2100,29 2150,0 2200,29 2200,87 2150,116 "/>
<polygon class="st1" points="2195.6,84.4 2150,110.9 2104.3,84.4 2104.3,31.6 2150,5.1 2195.6,31.6 "/>
<path d="M2123.2,67h-2L2111,53c-0.1-0.1-0.1-0.2-0.2-0.3c0-0.1-0.1-0.2-0.1-0.3c0-0.1-0.1-0.3-0.1-0.4v15h-2.5V49.1h1.8
	c0.4,0,0.8,0.1,1,0.2s0.5,0.3,0.7,0.5l8.7,12c0.2,0.3,0.4,0.7,0.4,1.2V49.1h2.5V67z"/>
<path d="M2126.3,60.4c0-0.9,0.2-1.8,0.5-2.6c0.4-0.8,0.8-1.5,1.4-2.1c0.6-0.6,1.3-1.1,2.2-1.5c0.8-0.4,1.7-0.5,2.6-0.5
	c0.9,0,1.8,0.2,2.6,0.5c0.8,0.4,1.5,0.8,2.2,1.5c0.6,0.6,1.1,1.3,1.5,2.1c0.4,0.8,0.5,1.7,0.5,2.6s-0.2,1.8-0.5,2.6
	c-0.4,0.8-0.8,1.5-1.5,2.1c-0.6,0.6-1.3,1.1-2.2,1.5c-0.8,0.4-1.7,0.5-2.6,0.5c-0.9,0-1.8-0.2-2.6-0.5c-0.8-0.4-1.5-0.8-2.2-1.5
	c-0.6-0.6-1.1-1.3-1.4-2.1C2126.5,62.2,2126.3,61.4,2126.3,60.4z M2128.7,60.4c0,0.6,0.1,1.2,0.3,1.7c0.2,0.5,0.5,1,0.9,1.4
	c0.4,0.4,0.8,0.7,1.4,0.9c0.5,0.2,1.1,0.3,1.7,0.3c0.6,0,1.2-0.1,1.7-0.3c0.5-0.2,1-0.5,1.4-0.9c0.4-0.4,0.7-0.9,0.9-1.4
	c0.2-0.5,0.3-1.1,0.3-1.7s-0.1-1.2-0.3-1.7c-0.2-0.5-0.5-1-0.9-1.4c-0.4-0.4-0.9-0.7-1.4-0.9c-0.5-0.2-1.1-0.3-1.7-0.3
	c-0.6,0-1.2,0.1-1.7,0.3c-0.5,0.2-1,0.5-1.4,0.9c-0.4,0.4-0.7,0.9-0.9,1.4C2128.8,59.3,2128.7,59.8,2128.7,60.4z"/>
<path d="M2151.9,67c-0.1-0.1-0.1-0.2-0.2-0.3c0-0.1-0.1-0.2-0.1-0.3c0-0.1-0.1-0.3-0.1-0.4v-0.1c-0.3,0.3-0.5,0.5-0.8,0.6
	s-0.6,0.3-0.9,0.4c-0.3,0.1-0.6,0.2-0.9,0.2c-0.3,0-0.6,0.1-0.9,0.1c-0.9,0-1.8-0.2-2.6-0.5c-0.8-0.4-1.5-0.8-2.1-1.5
	s-1-1.3-1.4-2.1s-0.5-1.7-0.5-2.6c0-0.9,0.2-1.8,0.5-2.6c0.3-0.8,0.8-1.5,1.4-2.1c0.6-0.6,1.3-1.1,2.1-1.4c0.8-0.4,1.7-0.5,2.6-0.5
	c0.3,0,0.6,0,0.9,0.1c0.3,0,0.6,0.1,0.9,0.2c0.3,0.1,0.6,0.2,0.9,0.4s0.5,0.4,0.8,0.6v-5.9h2.5V67H2151.9z M2148.1,56.1
	c-0.6,0-1.2,0.1-1.7,0.3c-0.5,0.2-0.9,0.5-1.3,0.9s-0.6,0.8-0.8,1.4c-0.2,0.5-0.3,1.1-0.3,1.7c0,0.6,0.1,1.2,0.3,1.7
	c0.2,0.5,0.5,1,0.8,1.4s0.8,0.7,1.3,0.9s1,0.3,1.7,0.3c0.6,0,1.3-0.1,1.9-0.4c0.6-0.3,1.1-0.6,1.6-1v-5.8c-0.4-0.4-1-0.8-1.6-1
	C2149.4,56.3,2148.8,56.1,2148.1,56.1z"/>
<path d="M2170.2,59.3c0,0.3-0.1,0.6-0.2,0.8c-0.1,0.2-0.3,0.4-0.4,0.6c-0.2,0.2-0.4,0.3-0.6,0.4c-0.2,0.1-0.4,0.1-0.6,0.1h-9.1
	c0.1,0.5,0.2,1,0.5,1.4c0.3,0.4,0.6,0.8,1,1.1c0.4,0.3,0.8,0.6,1.3,0.8c0.5,0.2,1,0.3,1.5,0.3c0.4,0,0.8,0,1.1-0.1
	c0.4-0.1,0.7-0.2,1-0.4c0.2-0.1,0.3-0.2,0.5-0.2c0.2,0,0.3-0.1,0.5-0.1c0.3,0,0.5,0.1,0.7,0.1c0.2,0.1,0.4,0.2,0.6,0.4l0.5,0.5
	c-0.6,0.7-1.4,1.2-2.2,1.6c-0.8,0.4-1.8,0.6-2.7,0.6c-0.9,0-1.8-0.2-2.6-0.5c-0.8-0.4-1.5-0.8-2.2-1.5c-0.6-0.6-1.1-1.3-1.4-2.1
	c-0.4-0.8-0.5-1.7-0.5-2.6s0.2-1.8,0.5-2.6c0.4-0.8,0.8-1.5,1.4-2.1c0.6-0.6,1.3-1.1,2.2-1.5c0.8-0.4,1.7-0.5,2.6-0.5
	c0.8,0,1.5,0.1,2.2,0.4c0.7,0.3,1.3,0.6,1.9,1.1c0.6,0.4,1.1,1,1.5,1.6c0.4,0.6,0.7,1.3,0.9,2c0,0.1,0,0.2,0,0.3
	S2170.2,59.2,2170.2,59.3z M2160.3,58.8h7.3c-0.2-0.4-0.4-0.8-0.6-1.1c-0.3-0.3-0.6-0.6-0.9-0.8c-0.3-0.2-0.7-0.4-1.1-0.6
	c-0.4-0.1-0.9-0.2-1.3-0.2c-0.5,0-1,0.1-1.4,0.2c-0.4,0.2-0.9,0.4-1.2,0.6c-0.4,0.3-0.7,0.6-0.9,1c-0.3,0.4-0.5,0.8-0.6,1.2
	c0.1-0.1,0.2-0.2,0.3-0.3C2159.9,58.8,2160,58.8,2160.3,58.8z"/>
<path d="M2172.1,65.5c0-0.2,0-0.5,0.1-0.7c0.1-0.2,0.2-0.4,0.4-0.5c0.2-0.2,0.3-0.3,0.5-0.4c0.2-0.1,0.4-0.1,0.7-0.1s0.5,0,0.7,0.1
	c0.2,0.1,0.4,0.2,0.5,0.4c0.2,0.2,0.3,0.3,0.4,0.5s0.1,0.4,0.1,0.7s0,0.5-0.1,0.7s-0.2,0.4-0.4,0.5s-0.3,0.3-0.5,0.4
	s-0.4,0.1-0.7,0.1s-0.5,0-0.7-0.1s-0.4-0.2-0.5-0.4s-0.3-0.3-0.4-0.5C2172.2,66,2172.1,65.7,2172.1,65.5z"/>
<path d="M2181.1,66.5c0,0.6-0.1,1.2-0.3,1.7c-0.2,0.5-0.4,1-0.7,1.5s-0.7,0.9-1.1,1.2c-0.4,0.3-0.9,0.6-1.4,0.8l-0.4-0.9
	c0-0.1-0.1-0.2-0.1-0.4c0-0.2,0-0.3,0-0.4c0-0.3,0-0.5,0.1-0.7c0.1-0.2,0.2-0.4,0.4-0.5c0.1-0.2,0.3-0.4,0.4-0.5
	c0.1-0.2,0.3-0.4,0.4-0.6c0.2-0.4,0.3-0.8,0.3-1.2V53.9h2.5V66.5z M2178.2,50.6c0-0.2,0-0.5,0.1-0.7c0.1-0.2,0.2-0.4,0.4-0.5
	c0.2-0.2,0.3-0.3,0.5-0.4c0.2-0.1,0.4-0.1,0.7-0.1s0.5,0,0.7,0.1c0.2,0.1,0.4,0.2,0.5,0.4c0.2,0.2,0.3,0.3,0.4,0.5
	c0.1,0.2,0.1,0.4,0.1,0.7c0,0.2,0,0.5-0.1,0.7c-0.1,0.2-0.2,0.4-0.4,0.5c-0.2,0.2-0.3,0.3-0.5,0.4c-0.2,0.1-0.4,0.1-0.7,0.1
	s-0.5,0-0.7-0.1c-0.2-0.1-0.4-0.2-0.5-0.4c-0.2-0.2-0.3-0.3-0.4-0.5C2178.2,51,2178.2,50.8,2178.2,50.6z"/>
<path d="M2184.6,64.2c0.2-0.1,0.3-0.2,0.5-0.2c0.2-0.1,0.3-0.1,0.5-0.1c0.2,0,0.4,0,0.6,0.1c0.2,0.1,0.4,0.2,0.7,0.4
	c0.2,0.1,0.4,0.2,0.6,0.3c0.2,0.1,0.5,0.1,0.7,0.1c0.3,0,0.5,0,0.8-0.1c0.3-0.1,0.5-0.2,0.7-0.4c0.2-0.2,0.4-0.3,0.5-0.6
	c0.1-0.2,0.2-0.5,0.2-0.8c0-0.2,0-0.4-0.1-0.6c-0.1-0.2-0.2-0.3-0.4-0.5c-0.2-0.1-0.4-0.3-0.7-0.4c-0.3-0.1-0.7-0.3-1.1-0.4
	c-0.5-0.2-0.9-0.3-1.4-0.5c-0.4-0.2-0.8-0.5-1.2-0.7c-0.3-0.3-0.6-0.6-0.8-1.1c-0.2-0.4-0.3-0.9-0.3-1.5c0-0.5,0.1-1,0.3-1.4
	c0.2-0.4,0.5-0.8,0.9-1.1c0.4-0.3,0.8-0.6,1.3-0.7c0.5-0.2,1-0.3,1.5-0.3c0.5,0,1,0.1,1.4,0.3c0.4,0.2,0.8,0.4,1.1,0.6
	c0.3,0.2,0.5,0.5,0.7,0.7c0.2,0.2,0.3,0.3,0.3,0.4l-0.6,0.5c-0.3,0.3-0.8,0.4-1.2,0.4c-0.2,0-0.3,0-0.5-0.1s-0.4-0.2-0.7-0.3
	c-0.2-0.1-0.3-0.1-0.5-0.1c-0.3,0-0.6,0-0.8,0.1c-0.2,0.1-0.4,0.2-0.5,0.3c-0.1,0.1-0.2,0.3-0.3,0.4c-0.1,0.1-0.1,0.2-0.1,0.3
	c0,0.2,0.1,0.4,0.2,0.6c0.1,0.2,0.3,0.3,0.5,0.4c0.2,0.1,0.4,0.2,0.7,0.3c0.3,0.1,0.5,0.2,0.8,0.3c0.5,0.2,1,0.4,1.5,0.6
	c0.5,0.2,0.9,0.5,1.2,0.8c0.4,0.3,0.7,0.7,0.9,1.1c0.2,0.4,0.3,1,0.3,1.6c0,0.6-0.1,1.1-0.3,1.6c-0.2,0.5-0.5,1-0.9,1.3
	c-0.4,0.4-0.9,0.7-1.4,0.9c-0.6,0.2-1.2,0.3-1.8,0.3c-0.5,0-0.9-0.1-1.3-0.2c-0.4-0.1-0.8-0.3-1.2-0.5s-0.7-0.5-1-0.8
	c-0.3-0.3-0.6-0.7-0.8-1.1L2184.6,64.2z"/>
<polygon class="st19" points="2300,87 2300,29 2350,0 2400,29 2400,87 2350,116 "/>
<polygon class="st1" points="2395.6,84.4 2350,110.9 2304.3,84.4 2304.3,31.6 2350,5.1 2395.6,31.6 "/>
<path d="M2347.2,58v7.2c-0.4,0.4-0.9,0.8-1.4,1c-0.5,0.3-1,0.5-1.6,0.6s-1.2,0.3-1.8,0.3c-0.6,0.1-1.2,0.1-1.9,0.1
	c-1.3,0-2.5-0.2-3.6-0.7s-2.1-1.1-2.9-2c-0.8-0.8-1.5-1.8-2-2.9c-0.5-1.1-0.7-2.3-0.7-3.6c0-0.8,0.1-1.7,0.3-2.4s0.5-1.5,0.9-2.2
	c0.4-0.7,0.9-1.3,1.4-1.9c0.6-0.6,1.2-1,1.9-1.4c0.7-0.4,1.4-0.7,2.2-0.9c0.8-0.2,1.6-0.3,2.4-0.3c0.7,0,1.3,0.1,1.9,0.2
	c0.6,0.1,1.2,0.3,1.8,0.6c0.6,0.3,1.1,0.6,1.6,0.9c0.5,0.4,1,0.8,1.4,1.2l-0.5,0.5c-0.2,0.2-0.4,0.3-0.6,0.4
	c-0.2,0.1-0.5,0.2-0.8,0.2c-0.4,0-0.7-0.1-1-0.3c-0.5-0.4-1.1-0.7-1.8-0.9c-0.6-0.2-1.3-0.3-2-0.3c-0.9,0-1.8,0.2-2.6,0.5
	c-0.8,0.3-1.5,0.8-2.1,1.4c-0.6,0.6-1.1,1.3-1.4,2.1c-0.4,0.8-0.5,1.7-0.5,2.6c0,0.9,0.2,1.8,0.5,2.6c0.4,0.8,0.9,1.5,1.5,2.1
	c0.6,0.6,1.3,1.1,2.2,1.4c0.8,0.3,1.7,0.5,2.6,0.5c0.8,0,1.5-0.1,2.2-0.3c0.7-0.2,1.3-0.4,1.9-0.8v-3.3h-1c-0.3,0-0.6-0.1-0.8-0.2
	c-0.2-0.1-0.4-0.2-0.6-0.4c-0.2-0.2-0.3-0.4-0.4-0.6c-0.1-0.2-0.1-0.5-0.1-0.7V58H2347.2z"/>
<path d="M2350.6,50.7c0-0.2,0-0.5,0.1-0.7c0.1-0.2,0.2-0.4,0.4-0.5c0.2-0.2,0.3-0.3,0.5-0.4c0.2-0.1,0.4-0.1,0.7-0.1s0.5,0,0.7,0.1
	c0.2,0.1,0.4,0.2,0.5,0.4c0.2,0.2,0.3,0.3,0.4,0.5c0.1,0.2,0.1,0.4,0.1,0.7c0,0.2,0,0.5-0.1,0.7c-0.1,0.2-0.2,0.4-0.4,0.5
	c-0.2,0.2-0.3,0.3-0.5,0.4c-0.2,0.1-0.4,0.1-0.7,0.1s-0.5,0-0.7-0.1c-0.2-0.1-0.4-0.2-0.5-0.4c-0.2-0.2-0.3-0.3-0.4-0.5
	C2350.6,51.1,2350.6,50.9,2350.6,50.7z M2353.5,54v13.1h-2.5V54H2353.5z"/>
<path d="M2360.6,63.8c0,0.1,0,0.3,0.1,0.4c0,0.1,0.1,0.3,0.2,0.4s0.2,0.2,0.3,0.3c0.1,0.1,0.2,0.1,0.4,0.1l0.3,0
	c0.4-0.1,0.7-0.1,0.9-0.1c0.3,0,0.6,0.1,0.9,0.3c0.3,0.2,0.5,0.4,0.7,0.7l0.3,0.4c-0.2,0.2-0.4,0.3-0.6,0.4
	c-0.3,0.1-0.5,0.3-0.8,0.4s-0.6,0.2-0.9,0.3c-0.3,0.1-0.6,0.1-0.8,0.1c-0.5,0-1-0.1-1.4-0.3c-0.4-0.2-0.8-0.4-1.1-0.7
	c-0.3-0.3-0.5-0.7-0.7-1.1c-0.2-0.4-0.2-0.9-0.2-1.4v-7.5h-2.2V55c0-0.7,0.6-1,1.9-1h0.3v-2.7c0-0.3,0-0.5,0.1-0.8
	c0.1-0.2,0.1-0.4,0.2-0.6c0.1-0.2,0.2-0.4,0.3-0.5h1.9V54h3.6v2.4h-3.6V63.8z"/>
<polygon class="st20" points="2500,87 2500,29 2550,0 2600,29 2600,87 2550,116 "/>
<polygon class="st1" points="2595.6,84.4 2550,110.9 2504.3,84.4 2504.3,31.6 2550,5.1 2595.6,31.6 "/>
<path d="M2539.2,58.4v7.2c-0.4,0.4-0.9,0.8-1.4,1c-0.5,0.3-1,0.5-1.6,0.6s-1.2,0.3-1.8,0.3c-0.6,0.1-1.2,0.1-1.9,0.1
	c-1.3,0-2.5-0.2-3.6-0.7s-2.1-1.1-2.9-2c-0.8-0.8-1.5-1.8-2-2.9c-0.5-1.1-0.7-2.3-0.7-3.6c0-0.8,0.1-1.7,0.3-2.4s0.5-1.5,0.9-2.2
	c0.4-0.7,0.9-1.3,1.4-1.9c0.6-0.6,1.2-1,1.9-1.4c0.7-0.4,1.4-0.7,2.2-0.9c0.8-0.2,1.6-0.3,2.4-0.3c0.7,0,1.3,0.1,1.9,0.2
	c0.6,0.1,1.2,0.3,1.8,0.6c0.6,0.3,1.1,0.6,1.6,0.9c0.5,0.4,1,0.8,1.4,1.2l-0.5,0.5c-0.2,0.2-0.4,0.3-0.6,0.4
	c-0.2,0.1-0.5,0.2-0.8,0.2c-0.4,0-0.7-0.1-1-0.3c-0.5-0.4-1.1-0.7-1.8-0.9c-0.6-0.2-1.3-0.3-2-0.3c-0.9,0-1.8,0.2-2.6,0.5
	c-0.8,0.3-1.5,0.8-2.1,1.4c-0.6,0.6-1.1,1.3-1.4,2.1c-0.4,0.8-0.5,1.7-0.5,2.6c0,0.9,0.2,1.8,0.5,2.6c0.4,0.8,0.9,1.5,1.5,2.1
	c0.6,0.6,1.3,1.1,2.2,1.4c0.8,0.3,1.7,0.5,2.6,0.5c0.8,0,1.5-0.1,2.2-0.3c0.7-0.2,1.3-0.4,1.9-0.8v-3.3h-1c-0.3,0-0.6-0.1-0.8-0.2
	c-0.2-0.1-0.4-0.2-0.6-0.4c-0.2-0.2-0.3-0.4-0.4-0.6c-0.1-0.2-0.1-0.5-0.1-0.7v-0.5H2539.2z"/>
<path d="M2551.6,67.5c-0.1-0.1-0.1-0.2-0.2-0.3c0-0.1-0.1-0.2-0.1-0.3c0-0.1-0.1-0.3-0.1-0.4v-0.5c-0.1,0.3-0.4,0.6-0.6,0.8
	c-0.3,0.2-0.6,0.4-0.9,0.6c-0.3,0.1-0.7,0.3-1.1,0.3c-0.4,0.1-0.8,0.1-1.2,0.1c-0.7,0-1.4-0.1-2-0.4c-0.6-0.3-1.1-0.7-1.6-1.2
	c-0.4-0.5-0.8-1.1-1-1.8c-0.2-0.7-0.4-1.5-0.4-2.4v-7.5h2.5v7.5c0,1.1,0.2,1.9,0.6,2.6c0.4,0.6,1,0.9,1.9,0.9c0.5,0,1-0.1,1.4-0.2
	c0.4-0.1,0.8-0.3,1.2-0.5c0.3-0.2,0.6-0.4,0.8-0.7c0.2-0.3,0.3-0.6,0.3-0.9v-8.7h2.5v13.1H2551.6z"/>
<rect x="2557.6" y="49.6" width="2.5" height="17.9"/>
<path d="M2566.1,54.4c0.1,0.1,0.1,0.2,0.2,0.3c0,0.1,0.1,0.2,0.1,0.3c0,0.1,0.1,0.3,0.1,0.4v0.5c0-0.2,0.1-0.4,0.2-0.6
	c0.1-0.2,0.3-0.3,0.5-0.5c0.2-0.1,0.4-0.2,0.7-0.3c0.2-0.1,0.5-0.2,0.7-0.2c0.2-0.1,0.5-0.1,0.7-0.1c0.2,0,0.4,0,0.6,0
	c0.9,0,1.8,0.2,2.6,0.5c0.8,0.4,1.5,0.8,2.1,1.5c0.6,0.6,1,1.3,1.4,2.1c0.3,0.8,0.5,1.7,0.5,2.6s-0.2,1.8-0.5,2.6
	c-0.3,0.8-0.8,1.5-1.4,2.1c-0.6,0.6-1.3,1.1-2.1,1.5c-0.8,0.4-1.7,0.5-2.6,0.5c-0.3,0-0.6,0-0.9-0.1s-0.6-0.1-0.9-0.2
	c-0.3-0.1-0.6-0.2-0.9-0.4c-0.3-0.2-0.5-0.4-0.8-0.6v5.4h-2.5V54.4H2566.1z M2569.9,65.3c0.6,0,1.2-0.1,1.7-0.3
	c0.5-0.2,0.9-0.5,1.3-0.9c0.4-0.4,0.6-0.8,0.8-1.4c0.2-0.5,0.3-1.1,0.3-1.7s-0.1-1.2-0.3-1.7c-0.2-0.5-0.5-1-0.8-1.4
	s-0.8-0.7-1.3-0.9c-0.5-0.2-1-0.3-1.7-0.3c-0.6,0-1.3,0.1-1.9,0.4c-0.6,0.3-1.1,0.6-1.6,1v5.8c0.4,0.4,1,0.8,1.6,1
	C2568.6,65.1,2569.2,65.3,2569.9,65.3z"/>
<polygon class="st21" points="2700,87 2700,29 2750,0 2800,29 2800,87 2750,116 "/>
<polygon class="st1" points="2795.6,84.4 2750,110.9 2704.3,84.4 2704.3,31.6 2750,5.1 2795.6,31.6 "/>
<path d="M2726.7,49.5h2.4l7.8,17.9h-1.4c-0.4,0-0.7-0.1-1.1-0.3c-0.3-0.2-0.6-0.5-0.7-0.8l-1.3-2.8h-9.1l-1.2,2.8
	c-0.1,0.4-0.4,0.6-0.7,0.8c-0.3,0.2-0.7,0.3-1.1,0.3h-1.4L2726.7,49.5z M2727.7,53.4l-3.3,7.5h7l-3.3-7.5c-0.1-0.3-0.2-0.6-0.2-1.1
	c0,0.2,0,0.4-0.1,0.6C2727.8,53.1,2727.8,53.3,2727.7,53.4z"/>
<path d="M2741.6,64.1c0,0.1,0,0.3,0.1,0.4c0,0.1,0.1,0.3,0.2,0.4s0.2,0.2,0.3,0.3c0.1,0.1,0.2,0.1,0.4,0.1l0.3,0
	c0.4-0.1,0.7-0.1,0.9-0.1c0.3,0,0.6,0.1,0.9,0.3c0.3,0.2,0.5,0.4,0.7,0.7l0.3,0.4c-0.2,0.2-0.4,0.3-0.6,0.4
	c-0.3,0.1-0.5,0.3-0.8,0.4s-0.6,0.2-0.9,0.3c-0.3,0.1-0.6,0.1-0.8,0.1c-0.5,0-1-0.1-1.4-0.3c-0.4-0.2-0.8-0.4-1.1-0.7
	c-0.3-0.3-0.5-0.7-0.7-1.1c-0.2-0.4-0.2-0.9-0.2-1.4v-7.5h-2.2v-1.3c0-0.7,0.6-1,1.9-1h0.3v-2.7c0-0.3,0-0.5,0.1-0.7
	c0.1-0.2,0.1-0.4,0.2-0.6c0.1-0.2,0.2-0.4,0.3-0.5h1.9v4.6h3.6v2.4h-3.6V64.1z"/>
<path d="M2746.5,60.8c0-0.9,0.2-1.8,0.5-2.6c0.4-0.8,0.8-1.5,1.4-2.1c0.6-0.6,1.3-1.1,2.2-1.5c0.8-0.4,1.7-0.5,2.6-0.5
	c0.9,0,1.8,0.2,2.6,0.5c0.8,0.4,1.5,0.8,2.2,1.5c0.6,0.6,1.1,1.3,1.5,2.1c0.4,0.8,0.5,1.7,0.5,2.6s-0.2,1.8-0.5,2.6
	c-0.4,0.8-0.8,1.5-1.5,2.1s-1.3,1.1-2.2,1.5c-0.8,0.4-1.7,0.5-2.6,0.5c-0.9,0-1.8-0.2-2.6-0.5c-0.8-0.4-1.5-0.8-2.2-1.5
	c-0.6-0.6-1.1-1.3-1.4-2.1C2746.6,62.6,2746.5,61.8,2746.5,60.8z M2748.9,60.8c0,0.6,0.1,1.2,0.3,1.7c0.2,0.5,0.5,1,0.9,1.4
	c0.4,0.4,0.8,0.7,1.4,0.9c0.5,0.2,1.1,0.3,1.7,0.3c0.6,0,1.2-0.1,1.7-0.3c0.5-0.2,1-0.5,1.4-0.9c0.4-0.4,0.7-0.8,0.9-1.4
	c0.2-0.5,0.3-1.1,0.3-1.7s-0.1-1.2-0.3-1.7c-0.2-0.5-0.5-1-0.9-1.4c-0.4-0.4-0.9-0.7-1.4-0.9c-0.5-0.2-1.1-0.3-1.7-0.3
	c-0.6,0-1.2,0.1-1.7,0.3c-0.5,0.2-1,0.5-1.4,0.9c-0.4,0.4-0.7,0.8-0.9,1.4C2749,59.7,2748.9,60.2,2748.9,60.8z"/>
<path d="M2772.1,56.6c0.2-0.5,0.4-0.8,0.7-1.2c0.3-0.3,0.7-0.6,1-0.8c0.4-0.2,0.8-0.4,1.2-0.5c0.4-0.1,0.9-0.1,1.3-0.1
	c0.8,0,1.5,0.2,2,0.5c0.6,0.3,1,0.8,1.4,1.3c0.3,0.5,0.6,1.2,0.8,1.9c0.2,0.7,0.2,1.4,0.2,2.2v7.4h-2.5V60c0-0.4,0-0.7-0.1-1.2
	c-0.1-0.4-0.2-0.8-0.3-1.1c-0.2-0.3-0.4-0.6-0.6-0.9c-0.3-0.2-0.6-0.3-1.1-0.3c-0.4,0-0.8,0.1-1.2,0.2c-0.4,0.1-0.7,0.3-1,0.5
	s-0.5,0.4-0.7,0.7c-0.2,0.3-0.3,0.6-0.3,0.9v8.7h-2.5V60c0-0.4,0-0.7-0.1-1.2c-0.1-0.4-0.2-0.8-0.3-1.1c-0.2-0.3-0.4-0.6-0.6-0.9
	c-0.3-0.2-0.6-0.3-1.1-0.3c-0.4,0-0.8,0.1-1.2,0.2c-0.4,0.1-0.7,0.3-1,0.5s-0.5,0.4-0.7,0.7c-0.2,0.3-0.3,0.6-0.3,0.9v8.7h-2.5V54.3
	h2.1c0.1,0.1,0.1,0.2,0.2,0.3c0,0.1,0.1,0.2,0.1,0.3c0,0.1,0.1,0.3,0.1,0.4v0.5c0.2-0.3,0.3-0.6,0.6-0.8c0.2-0.2,0.5-0.4,0.8-0.5
	c0.3-0.1,0.6-0.3,1-0.3c0.3-0.1,0.7-0.1,1-0.1c0.5,0,1,0.1,1.4,0.2c0.4,0.1,0.7,0.3,1,0.5c0.3,0.2,0.5,0.5,0.7,0.8
	C2771.8,55.9,2772,56.2,2772.1,56.6z"/>
<path d="M2920.2,67.4h-2.5V49.5h6.4c0.7,0,1.4,0.1,2,0.4c0.6,0.3,1.2,0.6,1.7,1.1c0.5,0.5,0.8,1,1.1,1.7c0.3,0.6,0.4,1.3,0.4,2
	c0,0.6-0.1,1.1-0.3,1.7c-0.2,0.5-0.4,1-0.8,1.4c-0.3,0.4-0.7,0.8-1.2,1.1c-0.4,0.3-0.9,0.6-1.5,0.7l5.7,7.7h-1.7
	c-0.5,0-0.9-0.1-1.3-0.3s-0.7-0.5-0.9-0.8l-4.7-6.3h-2.7V67.4z M2920.2,52v5.5h4c0.4,0,0.7-0.1,1.1-0.2c0.3-0.1,0.6-0.3,0.9-0.6
	c0.3-0.3,0.4-0.5,0.6-0.9c0.1-0.3,0.2-0.7,0.2-1.1c0-0.4-0.1-0.7-0.2-1.1c-0.1-0.3-0.3-0.6-0.6-0.9s-0.5-0.4-0.9-0.6
	c-0.3-0.1-0.7-0.2-1.1-0.2H2920.2z"/>
<path d="M2945.3,59.7c0,0.3-0.1,0.6-0.2,0.8c-0.1,0.2-0.3,0.4-0.4,0.6c-0.2,0.2-0.4,0.3-0.6,0.4c-0.2,0.1-0.4,0.1-0.6,0.1h-9.1
	c0.1,0.5,0.2,1,0.5,1.4c0.3,0.4,0.6,0.8,1,1.1c0.4,0.3,0.8,0.6,1.3,0.8c0.5,0.2,1,0.3,1.5,0.3c0.4,0,0.8,0,1.1-0.1
	c0.4-0.1,0.7-0.2,1-0.4c0.2-0.1,0.3-0.2,0.5-0.2c0.2,0,0.3-0.1,0.5-0.1c0.3,0,0.5,0.1,0.7,0.1c0.2,0.1,0.4,0.2,0.6,0.4l0.5,0.5
	c-0.6,0.7-1.4,1.2-2.2,1.6c-0.8,0.4-1.8,0.6-2.7,0.6c-0.9,0-1.8-0.2-2.6-0.5c-0.8-0.4-1.5-0.8-2.2-1.5c-0.6-0.6-1.1-1.3-1.4-2.1
	c-0.4-0.8-0.5-1.7-0.5-2.6s0.2-1.8,0.5-2.6c0.4-0.8,0.8-1.5,1.4-2.1c0.6-0.6,1.3-1.1,2.2-1.5c0.8-0.4,1.7-0.5,2.6-0.5
	c0.8,0,1.5,0.1,2.2,0.4c0.7,0.3,1.3,0.6,1.9,1.1c0.6,0.4,1.1,1,1.5,1.6c0.4,0.6,0.7,1.3,0.9,2c0,0.1,0,0.2,0,0.3
	C2945.3,59.5,2945.3,59.6,2945.3,59.7z M2935.4,59.2h7.3c-0.2-0.4-0.4-0.8-0.6-1.1c-0.3-0.3-0.6-0.6-0.9-0.8
	c-0.3-0.2-0.7-0.4-1.1-0.6c-0.4-0.1-0.9-0.2-1.3-0.2c-0.5,0-1,0.1-1.4,0.2c-0.4,0.2-0.9,0.4-1.2,0.6c-0.4,0.3-0.7,0.6-0.9,1
	c-0.3,0.4-0.5,0.8-0.6,1.2c0.1-0.1,0.2-0.2,0.3-0.3C2935,59.2,2935.2,59.2,2935.4,59.2z"/>
<path d="M2948.4,56.2c0.1-0.1,0.2-0.3,0.3-0.4c0.1-0.1,0.2-0.2,0.4-0.4c0.2-0.1,0.3-0.3,0.5-0.4c0.5-0.3,1-0.6,1.6-0.7
	c0.6-0.2,1.2-0.3,1.9-0.3c0.7,0,1.3,0.1,1.9,0.3c0.5,0.2,1,0.4,1.4,0.7c0.4,0.3,0.7,0.7,0.9,1.1c0.2,0.4,0.4,0.9,0.6,1.4
	c0.1,0.5,0.2,1,0.3,1.6c0,0.6,0.1,1.1,0.1,1.7v6.5h-2c-0.1-0.1-0.2-0.3-0.3-0.5c-0.1-0.2-0.1-0.4-0.1-0.6V66
	c-0.2,0.2-0.5,0.4-0.8,0.6c-0.3,0.2-0.7,0.4-1,0.5c-0.4,0.1-0.7,0.2-1.1,0.3s-0.7,0.1-1,0.1c-0.7,0-1.3-0.1-1.8-0.3s-1-0.5-1.4-0.8
	s-0.7-0.8-0.9-1.3c-0.2-0.5-0.3-1-0.3-1.6c0-0.6,0.1-1.2,0.4-1.8c0.2-0.5,0.6-1,1.1-1.3c0.5-0.4,1.1-0.7,1.9-0.9
	c0.8-0.2,1.6-0.3,2.7-0.3c0.3,0,0.6,0,0.8,0c0.3,0,0.5,0,0.7,0c0.2,0,0.4,0,0.5,0.1c0.1,0,0.2,0,0.3,0c0-0.6-0.1-1.1-0.3-1.5
	c-0.2-0.4-0.4-0.7-0.6-0.9c-0.2-0.2-0.5-0.4-0.8-0.5c-0.3-0.1-0.6-0.1-1-0.1c-0.4,0-0.7,0-1,0.1s-0.4,0.1-0.6,0.2
	c-0.2,0.1-0.4,0.2-0.5,0.2c-0.2,0.1-0.4,0.1-0.7,0.1c-0.2,0-0.4,0-0.6-0.1c-0.2-0.1-0.4-0.2-0.6-0.3L2948.4,56.2z M2951.9,65.2
	c0.3,0,0.6,0,0.9-0.1s0.7-0.1,1-0.2c0.3-0.1,0.7-0.2,1-0.4c0.3-0.1,0.7-0.3,1-0.5v-2.2c0,0-0.1,0-0.3,0c-0.1,0-0.3,0-0.5,0
	c-0.2,0-0.4,0-0.7,0c-0.3,0-0.5,0-0.8,0c-0.5,0-1,0-1.4,0.1c-0.4,0.1-0.8,0.2-1.2,0.3c-0.3,0.1-0.6,0.3-0.8,0.6
	c-0.2,0.2-0.3,0.5-0.3,0.9c0,0.3,0.1,0.5,0.2,0.7c0.1,0.2,0.2,0.4,0.4,0.5c0.2,0.1,0.4,0.2,0.7,0.3S2951.6,65.2,2951.9,65.2z"/>
<path d="M2967.4,56.5c-0.6,0-1.2,0.1-1.7,0.3c-0.5,0.2-1,0.5-1.4,0.9s-0.7,0.9-0.9,1.4c-0.2,0.5-0.3,1.1-0.3,1.7
	c0,0.6,0.1,1.2,0.3,1.7c0.2,0.5,0.5,1,0.9,1.4c0.4,0.4,0.9,0.7,1.4,0.9c0.5,0.2,1.1,0.3,1.7,0.3c0.4,0,0.7,0,1.1-0.1s0.7-0.2,1-0.4
	c0.3-0.2,0.6-0.3,1-0.3c0.3,0,0.5,0.1,0.7,0.1c0.2,0.1,0.4,0.2,0.6,0.4l0.5,0.5c-0.6,0.7-1.4,1.2-2.2,1.6c-0.8,0.4-1.8,0.6-2.7,0.6
	c-0.9,0-1.8-0.2-2.6-0.5c-0.8-0.4-1.5-0.8-2.2-1.5c-0.6-0.6-1.1-1.3-1.5-2.1c-0.4-0.8-0.5-1.7-0.5-2.6s0.2-1.8,0.5-2.6
	s0.8-1.5,1.5-2.1c0.6-0.6,1.3-1.1,2.2-1.5c0.8-0.4,1.7-0.5,2.6-0.5c1,0,1.9,0.2,2.7,0.6c0.8,0.4,1.6,0.9,2.2,1.6l-0.5,0.5
	c-0.2,0.2-0.4,0.3-0.6,0.4c-0.2,0.1-0.5,0.1-0.8,0.1c-0.3,0-0.6-0.1-0.9-0.3c-0.3-0.2-0.7-0.3-1-0.4
	C2968.1,56.6,2967.8,56.5,2967.4,56.5z"/>
<path d="M2977.6,64.1c0,0.1,0,0.3,0.1,0.4c0,0.1,0.1,0.3,0.2,0.4c0.1,0.1,0.2,0.2,0.3,0.3s0.2,0.1,0.4,0.1l0.3,0
	c0.4-0.1,0.7-0.1,0.9-0.1c0.3,0,0.6,0.1,0.9,0.3c0.3,0.2,0.5,0.4,0.7,0.6l0.3,0.4c-0.2,0.1-0.4,0.3-0.6,0.4s-0.5,0.3-0.8,0.4
	s-0.6,0.2-0.9,0.3s-0.6,0.1-0.8,0.1c-0.5,0-1-0.1-1.4-0.3c-0.4-0.2-0.8-0.4-1.1-0.7c-0.3-0.3-0.5-0.7-0.7-1.1
	c-0.2-0.4-0.2-0.9-0.2-1.4v-7.5h-2.2v-1.3c0-0.7,0.6-1,1.9-1h0.3v-2.7c0-0.3,0-0.5,0.1-0.8c0.1-0.2,0.1-0.4,0.2-0.6
	c0.1-0.2,0.2-0.4,0.3-0.5h1.9v4.6h3.6v2.4h-3.6V64.1z"/>
</svg>
