<svg id="Layer_1" xmlns="http://www.w3.org/2000/svg" width="856" height="139" viewBox="0 0 856 139"><style>.st0{fill:#e34f27}.st1{fill:#fff}.st2{fill:#ed6b41}.st3{fill:#2663ac}.st4{fill:#387dc0}.st5{fill:#efda4e}.st6{fill:#333432}.st7{fill:#5d4487}.st8{fill:#0c6aae}.st9{fill:#f7a832}.st10{fill:#84b7e4}</style><path class="st0" d="M2 104.2V34.7L62 0l60 34.7v69.5L62 139z"/><path class="st1" d="M116.7 101.2L62 132.9 7.3 101.2V37.8L62 6.1l54.7 31.7z"/><path class="st0" d="M90.4 105.8L62 113.6l-28.4-7.8L27 33.4h70z"/><path class="st2" d="M62 38.2V108l23.1-7 6.1-62.8z"/><path class="st1" d="M82.9 48.6H41l1 9.9 1.5 17.4h27.3l-.9 10-7.9 2.6-7.9-2.7-.5-5.1H44l1.2 12.7L62 98.5l16.8-4.8 2.5-27.4H52.6l-.6-8h30z"/><path class="st3" d="M124 104.2V34.7L184 0l60 34.7v69.5L184 139z"/><path class="st1" d="M238.7 101.2L184 132.9l-54.7-31.7V37.8L184 6.1l54.7 31.7z"/><path class="st3" d="M212.4 105.9l-28.4 7.7-28.4-7.7-6.6-72.5h70z"/><path class="st4" d="M184 38.4V108l23.1-6.8 6.1-62.8z"/><path class="st1" d="M204.9 48.4H163l1 10.1h20L164.6 66l.9 10h27.3l-.9 10-7.9 2.6-7.9-2.6-.8-5H166l1.2 12.6 16.8 5 16.8-5 2.5-27.6h-19.2l19.9-7.5z"/><path class="st5" d="M368 104.2V34.7L428 0l60 34.7v69.5L428 139z"/><path class="st1" d="M482.7 101.2L428 132.9l-54.7-31.7V37.8L428 6.1l54.7 31.7z"/><path class="st6" d="M403.3 37.1h14.5v40.8c0 18.4-8.8 24.8-22.8 24.8-3.6 0-7.8-.5-10.7-1.4l1.7-11.8c2 .7 4.6 1.2 7.5 1.2 6.2 0 10-2.8 10-12.6l-.2-41zm27.2 49.6c3.8 2 10 3.9 16.1 3.9 6.7 0 10.1-2.8 10.1-7.1 0-3.9-3-6.3-10.8-8.9-10.7-3.8-17.8-9.7-17.8-19.3 0-10.8 9.3-19.2 24.5-19.2 7.2-.1 12.5 1.4 16.4 3.3L465.7 51c-2.5-1.2-7.1-3-13.3-3-6.3 0-9.3 3-9.3 6.2 0 4.2 3.6 5.9 12 9.1 11.2 4.2 16.6 10.1 16.6 19.4 0 10.8-8.2 20.1-25.9 20.1-7.4 0-14.6-2-18.3-3.9l3-12.2z" id="Layer_1_1_"/><path class="st7" d="M246 104.2V34.7L306 0l60 34.7v69.5L306 139z"/><path class="st1" d="M360.7 101.2L306 132.9l-54.7-31.7V37.8L306 6.1l54.7 31.7z"/><path class="st7" d="M289.2 74.7v20h14.7c5.7 0 9.3-.1 10.9-.4 2.4-.4 4.3-1.4 5.8-3 1.5-1.5 2.2-3.7 2.2-6.3 0-2.2-.6-4.1-1.7-5.7s-2.8-2.7-4.9-3.4c-2.2-.7-6.8-1.1-14.1-1.1h-12.9m0-30.6v17.9h10.3c6.2 0 10-.1 11.4-.3 2.7-.3 4.8-1.2 6.4-2.7 1.5-1.5 2.3-3.5 2.3-6 0-2.4-.7-4.3-2-5.8s-3.3-2.4-5.9-2.7c-1.6-.2-6-.3-13.5-.3h-9v-.1zM275 31.7h29.9c5.9 0 10.3.2 13.2.8 2.9.5 5.5 1.5 7.8 3.1s4.2 3.7 5.7 6.4c1.5 2.6 2.3 5.6 2.3 8.9 0 3.6-.9 6.8-2.6 9.8-1.7 3-4.2 5.2-7.2 6.7 4.1 1.3 7.3 3.6 9.6 6.8 2.2 3.2 3.3 6.9 3.3 11.2 0 3.4-.8 6.7-2.3 9.9-1.6 3.2-3.7 5.8-6.4 7.7-2.7 1.9-6 3.1-10 3.5-2.5.3-8.5.4-18 .5h-25.2l-.1-75.3z"/><path class="st8" d="M490 104.2V34.7L550 0l60 34.7v69.5L550 139z"/><path class="st1" d="M604.7 101.2L550 132.9l-54.7-31.7V37.8L550 6.1l54.7 31.7z"/><path class="st8" d="M541.8 35.5c-3.2 5.6-3.6 12.5-1.7 18.7 1.7 5.9 5.4 11.1 10.1 14.9.1.1.2.1.3.2.4.3.9.7 1.3 1 .2.1.4.3.6.4.1.1.2.1.3.2.3.2.6.4 1 .6.1 0 .1.1.2.1.3.2.5.3.8.5.1.1.2.1.4.2l.6.3c.4.2.8.4 1.3.6.1 0 .2.1.3.1.3.1.7.3 1 .4.1 0 .3.1.4.2.3.1.6.2 1 .3.1 0 .3.1.4.1.5.1.9.3 1.4.4 10.6 2.9 20.6-.8 25.7-8.5 0 0-5.7 19.9-30.4 15.5-.5-.1-.9-.3-1.4-.4-.1 0-.3-.1-.4-.1-.3-.1-.6-.2-1-.3-.1 0-.3-.1-.4-.2-.3-.1-.7-.3-1-.4-.1 0-.2-.1-.3-.1-.4-.2-.8-.4-1.3-.6-.3-.1-.5-.2-.7-.4-.1 0-.2-.1-.3-.2-.3-.2-.6-.3-.9-.5 0 0-.1 0-.1-.1-.3-.2-.7-.4-1-.6-.1 0-.2-.1-.3-.2-.2-.1-.4-.3-.6-.4-.5-.3-.9-.7-1.4-1-.1-.1-.2-.1-.3-.2-.4-.3-.9-.7-1.3-1.1-.4-.4-.8-.7-1.1-1.1l-.3-.3c-.4-.4-.7-.8-1.1-1.1-.9-.8-1.7-2.1-2.5-3.2-.8-1.2-1.5-2.4-2.1-3.7-3.7-7.5-4-17.1.8-24.4l4-5.6z"/><path class="st8" d="M522.5 42.8c-5.8 11.7-3.2 26 4.1 36.3.3.4.5.7.8 1.1.1.1.2.2.2.3.2.3.5.6.7.9.1.1.2.2.2.3.3.4.6.8 1 1.1.4.4.7.8 1 1.1l.3.3c.2.3.5.5.8.8l.3.3c.3.3.7.7 1.1 1 .4.4.8.7 1.1 1 .1.1.2.2.4.3.3.2.5.4.8.7.1.1.3.2.4.3.3.2.6.5.9.7.1.1.2.1.3.2.3.2.6.4 1 .7.1.1.2.2.4.2.4.3.9.6 1.4.9.1.1.2.1.3.2.3.2.7.4 1 .6l.6.3c.3.1.6.3.9.5.1 0 .2.1.3.1.4.2.7.4 1.1.5.1 0 .2.1.3.1.4.2.9.4 1.3.6.1 0 .2.1.3.1.4.2.8.3 1.2.5.6.2 1.1.4 1.6.5.1 0 .2.1.4.1.5.1 1 .3 1.5.4 13.1 3.1 27 .3 34.8-10.2 0 0-9.3 26.1-41.3 20.1-.5-.1-1-.3-1.5-.4-.1 0-.2-.1-.3-.1-.5-.1-.9-.3-1.4-.5-.6-.2-1-.4-1.4-.5-.1 0-.2-.1-.3-.1-.4-.2-.9-.4-1.3-.6-.1 0-.2-.1-.2-.1-.4-.2-.8-.4-1.2-.5-.1 0-.2-.1-.3-.1-.4-.2-.6-.3-.9-.5l-.6-.3c-.3-.2-.7-.4-1-.6-.1-.1-.2-.1-.4-.2-.5-.3-.9-.6-1.4-.9-.1-.1-.2-.2-.4-.2l-.9-.6c-.2-.1-.3-.2-.4-.3-.3-.2-.6-.4-.9-.7-.1-.1-.3-.2-.4-.3-.3-.2-.5-.4-.8-.6-.1-.1-.3-.2-.4-.3-.3-.3-.6-.5-1-.8 0 0-.1-.1-.2-.1-.4-.3-.7-.7-1.1-1l-.3-.3c-.3-.2-.5-.5-.8-.8l-.3-.3c-.3-.3-.6-.7-1-1-.4-.4-.7-.8-1-1.2-.1-.1-.2-.2-.2-.3-.2-.3-.4-.6-.7-.9-.1-.1-.2-.2-.3-.4-.2-.3-.5-.7-.7-1 0-.1-.1-.1-.1-.2-.3-.4-.6-.8-.8-1.2-.1-.1-.1-.2-.2-.4-.2-.3-.4-.6-.5-.9-.1-.1-.2-.3-.3-.5-.2-.3-.3-.6-.5-.8-.1-.2-.2-.3-.3-.5 0-.1-.1-.2-.1-.3-.1-.1-.1-.3-.2-.5s-.2-.5-.4-.7c-5.1-10.5-5.9-23.4.7-33.3l5.2-7.1zM557.3 32c-3.9 7.3-.2 16.3 5.8 21.1 1 .8 2.2 1.5 3.4 2.1.6.3 1.3.6 1.9.8.5.2 1.1.4 1.6.5 6.7 1.7 12.1.5 15.4-4.3-1 1.5-4.7 11.5-18.3 8.7-.3 0-.6-.2-.9-.3-.1 0-.2 0-.3-.1-.2-.1-.4-.1-.6-.2-4.9-1.9-9.2-5.8-11.2-10.9-2-4.8-1.7-10.1 1.1-14.4l2.1-3z"/><path class="st9" d="M612 104.2V34.7L672 0l60 34.7v69.5L672 139z"/><path class="st1" d="M726.7 101.2L672 132.9l-54.7-31.7V37.8L672 6.1l54.7 31.7z"/><path class="st9" d="M653.2 83.9l-5.4 18h-11.9l20.2-63.3h14.7l20.5 63.3h-12.4l-5.7-18h-20zm18.1-8.7l-5-15.5c-1.2-3.8-2.2-8.1-3.2-11.8h-.2c-.9 3.6-1.9 8.1-3 11.8L655 75.2h16.3zm36.8-31.8c0 3.5-2.5 6.2-6.6 6.2-3.8 0-6.4-2.7-6.4-6.2 0-3.6 2.6-6.3 6.5-6.3 4 0 6.4 2.7 6.5 6.3zm-12.2 58.4V56.2h11.6v45.7l-11.6-.1z"/><path class="st10" d="M734 104.2V34.7L794 0l60 34.7v69.5L794 139z"/><path class="st1" d="M848.7 101.2L794 132.9l-54.7-31.7V37.8L794 6.1l54.7 31.7z"/><path class="st10" d="M755.5 38.7c4.1-.7 9.8-1.3 17.4-1.3 8.4 0 14.5 1.8 18.5 5.1 3.7 3.1 6.1 8 6.1 13.8 0 6-1.9 10.9-5.4 14.2-4.6 4.6-11.7 6.7-19.8 6.7-2.1 0-4.1-.1-5.6-.4v23.7h-11.3l.1-61.8zm11.3 29.2c1.4.4 3.3.5 5.6.5 8.5 0 13.7-4.2 13.7-11.5 0-7-4.8-10.7-12.7-10.7-3.2 0-5.4.3-6.6.5v21.2zm35.8 22.2c2.6 1.6 7.5 3.3 11.6 3.3 5 0 7.2-2 7.2-5 0-3.1-1.9-4.7-7.4-6.6-8.8-3.1-12.5-7.9-12.4-13.2 0-8 6.6-14.2 17.1-14.2 5 0 9.4 1.3 12 2.7l-2.2 8.1c-1.9-1.1-5.6-2.6-9.6-2.6-4.1 0-6.3 1.9-6.3 4.7 0 2.9 2.1 4.3 7.9 6.3 8.2 3 12 7.1 12.1 13.8 0 8.2-6.4 14.1-18.4 14.1-5.5 0-10.4-1.3-13.7-3.2l2.1-8.2z" id="Ps"/></svg>