<svg id="Layer_1" xmlns="http://www.w3.org/2000/svg" width="3000" height="116" viewBox="0 0 3000 116"><style>.st0{fill:#e35028}.st1{fill:#fff}.st2{fill:#ed6b42}.st3{fill:#2864ad}.st4{fill:#397ec1}.st5{fill:#5e4588}.st6{fill:#4c4b4b}.st7{fill:#fbfcfd}.st8{fill:#c73089}.st9{fill:#47a2db}.st10{fill:#fdfdfd}.st11{fill:#efda4e}.st12{fill:#343432}.st13{fill:#0c6baf}.st14{fill:#f7a933}.st15{fill:#85b8e4}.st16{fill:#cc689a}.st17{fill:#020203}.st18{fill:#699f63}.st19{fill:#ea5235}.st20{fill:#da4748}.st21{fill:#5eb57d}.st22{fill:none;stroke:#5eb57d;stroke-width:2;stroke-miterlimit:10}.st23{fill:#56c2de}</style><path class="st0" d="M0 87V29L50 0l50 29v58l-50 29z"/><path class="st1" d="M95.6 84.5L50 110.9 4.4 84.5v-53L50 5.1l45.6 26.4z"/><path class="st0" d="M73.7 88.3L50 94.8l-23.7-6.5-5.5-60.4h58.4z"/><path class="st2" d="M50 31.9v58.2l19.3-5.8 5-52.4z"/><path class="st1" d="M67.4 40.6H32.5l.8 8.2 1.3 14.5h22.7l-.7 8.4-6.6 2.2-6.6-2.3-.4-4.3h-8l1 10.6 14 4.3 14-4 2.1-22.9H42.2l-.5-6.6h25z"/><path class="st0" d="M100 87V29l50-29 50 29v58l-50 29z"/><path class="st1" d="M195.6 84.5L150 110.9l-45.6-26.4v-53L150 5.1l45.6 26.4z"/><path class="st3" d="M200 87V29l50-29 50 29v58l-50 29z"/><path class="st1" d="M295.6 84.5L250 110.9l-45.6-26.4v-53L250 5.1l45.6 26.4z"/><path class="st3" d="M273.7 88.4L250 94.8l-23.7-6.4-5.5-60.5h58.4z"/><path class="st4" d="M250 32v58.1l19.3-5.6 5-52.5z"/><path class="st1" d="M267.4 40.4h-34.9l.8 8.4H250l-16.2 6.3.8 8.3h22.7l-.7 8.4-6.6 2.1-6.6-2.1-.6-4.2H235l1 10.5 14 4.2 14-4.2 2.1-23h-16l16.6-6.3z"/><path class="st3" d="M300 87V29l50-29 50 29v58l-50 29z"/><path class="st1" d="M395.6 84.5L350 110.9l-45.6-26.4v-53L350 5.1l45.6 26.4z"/><path class="st5" d="M400 87V29l50-29 50 29v58l-50 29z"/><path class="st1" d="M495.6 84.5L450 110.9l-45.6-26.4v-53L450 5.1l45.6 26.4z"/><path class="st5" d="M436 62.3V79h12.3c4.8 0 7.7-.1 9.1-.3 2-.3 3.6-1.2 4.8-2.5 1.3-1.3 1.8-3.1 1.8-5.3 0-1.8-.5-3.4-1.4-4.8-.9-1.3-2.3-2.3-4.1-2.8-1.8-.6-5.7-.9-11.8-.9l-10.7-.1m0-25.4v14.9h8.6c5.2 0 8.3-.1 9.5-.3 2.3-.3 4-1 5.3-2.3 1.3-1.3 1.9-2.9 1.9-5 0-2-.6-3.6-1.7-4.8-1.1-1.3-2.8-2-4.9-2.3-1.3-.2-5-.3-11.3-.3l-7.4.1zm-11.8-10.4h24.9c4.9 0 8.6.2 11 .7 2.4.4 4.6 1.3 6.5 2.6 1.9 1.3 3.5 3.1 4.8 5.3s1.9 4.7 1.9 7.4c0 3-.8 5.7-2.2 8.2-1.4 2.5-3.5 4.3-6 5.6 3.4 1.1 6.1 3 8 5.7 1.8 2.7 2.8 5.8 2.8 9.3 0 2.8-.7 5.6-1.9 8.3-1.3 2.7-3.1 4.8-5.3 6.4s-5 2.6-8.3 2.9c-2.1.3-7.1.3-15 .4h-21l-.2-62.8zM500 87V29l50-29 50 29v58l-50 29z"/><path class="st1" d="M595.6 84.5L550 110.9l-45.6-26.4v-53L550 5.1l45.6 26.4z"/><path class="st6" d="M600 87V29l50-29 50 29v58l-50 29z"/><path class="st1" d="M695.6 84.4L650 110.9l-45.7-26.5V31.6L650 5.1l45.6 26.5z"/><path class="st6" d="M641.2 74.2h10.4c1.9 0 3.5.9 3.5 2s-1.6 2-3.5 2h-10.4c-1.9 0-3.5-.9-3.5-2 0-1 1.6-2 3.5-2zm-26.6-42.1c0-1.9 1.6-3.5 3.5-3.5h56.5c1.9 0 3.5 1.6 3.5 3.5v36.5c0 1.9-1.6 3.5-3.5 3.5h-56.5c-1.9 0-3.5-1.6-3.5-3.5V32.1zm2.2 2.3c0-1.9 1.6-3.5 3.5-3.5h52.1c1.9 0 3.5 1.6 3.5 3.5V61c0 1.9-1.6 3.5-3.5 3.5h-52.1c-1.9 0-3.5-1.6-3.5-3.5V34.4z"/><path class="st7" d="M671 64.4h-49.3c-2 0-3.6-1.6-3.6-3.6V36c0-2 1.6-3.6 3.6-3.6H671c2 0 3.6 1.6 3.6 3.6v24.9c.1 2-1.6 3.5-3.6 3.5z"/><path class="st6" d="M621.3 55.8h25v1.5h-25zm0-4.1h44.3v1.5h-44.3zm0 8.2h25v1.5h-25z"/><path class="st8" d="M645.3 36.3h15.2v8.1h-15.2z"/><path class="st6" d="M621.3 47.6h53.4v1.5h-53.4z"/><path class="st9" d="M651.7 55.8h12.2v5.6h-12.2z"/><path class="st10" d="M683.7 73.7H662V52.1c0-2.7 2.2-4.9 4.9-4.9h16.8v26.5z"/><path class="st6" d="M664 52.5c0-1.8 1.5-3.3 3.3-3.3h14.8c1.8 0 3.3 1.5 3.3 3.3V84c0 1.8-1.5 3.3-3.3 3.3h-14.8c-1.8 0-3.3-1.5-3.3-3.3V52.5zm2.8 3c0-.8.7-1.6 1.6-1.6h12.5c.8 0 1.6.7 1.6 1.6V79c0 .8-.7 1.6-1.6 1.6h-12.5c-.8 0-1.6-.7-1.6-1.6V55.5z"/><path class="st1" d="M668.5 53.9H681c.8 0 1.6.7 1.6 1.6V79c0 .8-.7 1.6-1.6 1.6h-12.5c-.8 0-1.6-.7-1.6-1.6V55.5c0-.8.7-1.6 1.6-1.6z"/><path class="st6" d="M668.6 64.2h12.2v.8h-12.2zm.1 2.3h12.2v.8h-12.2zm-.1 10.3h12.2v.8h-12.2z"/><circle class="st1" cx="674.8" cy="83.2" r="1.3"/><path class="st9" d="M668.7 68.7h12.2v5.6h-12.2z"/><path class="st8" d="M668.6 55.9h12.2v5.6h-12.2z"/><path class="st1" d="M672.3 51.9h5c.8 0 1.6.2 1.6.3s-.7.3-1.6.3h-5c-.8 0-1.6-.2-1.6-.3s.6-.3 1.6-.3z"/><path class="st6" d="M700 87V29l50-29 50 29v58l-50 29z"/><path class="st1" d="M795.6 84.4L750 110.9l-45.7-26.5V31.6L750 5.1l45.6 26.5z"/><path class="st11" d="M800 87V29l50-29 50 29v58l-50 29z"/><path class="st1" d="M895.6 84.5L850 110.9l-45.6-26.4v-53L850 5.1l45.6 26.4z"/><path class="st12" d="M829.4 31h12.1v34c0 15.4-7.3 20.7-19 20.7-3 0-6.5-.4-8.9-1.2l1.4-9.8c1.7.6 3.8 1 6.3 1 5.2 0 8.3-2.3 8.3-10.5l-.2-34.2zm22.7 41.4c3.2 1.7 8.3 3.3 13.4 3.3 5.6 0 8.4-2.3 8.4-5.9 0-3.3-2.5-5.3-9-7.4-8.9-3.2-14.8-8.1-14.8-16.1 0-9 7.8-16 20.4-16 6-.1 10.4 1.2 13.7 2.8l-2.8 9.7c-2.1-1-5.9-2.5-11.1-2.5-5.3 0-7.8 2.5-7.8 5.2 0 3.5 3 4.9 10 7.6 9.3 3.5 13.8 8.4 13.8 16.2 0 9-6.8 16.8-21.6 16.8-6.2 0-12.2-1.7-15.3-3.3l2.7-10.4z"/><path class="st11" d="M900 87V29l50-29 50 29v58l-50 29z"/><path class="st1" d="M995.6 84.5L950 110.9l-45.6-26.4v-53L950 5.1l45.6 26.4z"/><path class="st13" d="M1000 87V29l50-29 50 29v58l-50 29z"/><path class="st1" d="M1095.6 84.5l-45.6 26.4-45.6-26.4v-53L1050 5.1l45.6 26.4z"/><path class="st13" d="M1043.2 29.6c-2.7 4.7-3 10.4-1.4 15.6 1.4 4.9 4.5 9.3 8.4 12.4l.3.2c.3.3.8.6 1.1.8.2.1.3.3.5.3l.3.2c.3.2.5.3.8.5l.2.1c.3.2.4.3.7.4.1.1.2.1.3.2.2.1.3.2.5.3.3.2.7.3 1.1.5l.3.1c.3.1.6.3.8.3l.3.2c.3.1.5.2.8.3l.3.1c.4.1.8.3 1.2.3 8.8 2.4 17.2-.7 21.4-7.1 0 0-4.8 16.6-25.3 12.9-.4-.1-.8-.3-1.2-.3l-.3-.1c-.2-.1-.5-.2-.8-.3l-.3-.2c-.3-.1-.6-.3-.8-.3l-.3-.1c-.3-.2-.7-.3-1.1-.5-.3-.1-.4-.2-.6-.3l-.3-.2c-.3-.2-.5-.3-.8-.4l-.1-.1c-.2-.2-.6-.3-.8-.5l-.3-.2c-.2-.1-.3-.3-.5-.3-.4-.3-.8-.6-1.2-.8l-.3-.2c-.3-.3-.8-.6-1.1-.9-.3-.3-.7-.6-.9-.9l-.3-.3c-.3-.3-.6-.7-.9-.9-.8-.7-1.4-1.8-2.1-2.7-.7-1-1.3-2-1.8-3.1-3.1-6.3-3.3-14.3.7-20.4l3.5-4.6z"/><path class="st13" d="M1027.1 35.7c-4.8 9.8-2.7 21.7 3.4 30.3.3.3.4.6.7.9l.2.3c.2.3.4.5.6.8l.2.3c.3.3.5.7.8.9.3.3.6.7.8.9l.3.3c.2.3.4.4.7.7l.3.3c.3.3.6.6.9.8.3.3.7.6.9.8l.3.3c.3.2.4.3.7.6l.3.3c.3.2.5.4.8.6l.3.2c.3.2.5.3.8.6.1.1.2.2.3.2.3.3.8.5 1.2.8l.3.2c.3.2.6.3.8.5.2.1.3.2.5.3.3.1.5.3.8.4l.3.1c.3.2.6.3.9.4l.3.1c.3.2.8.3 1.1.5l.3.1c.3.2.7.3 1 .4.5.2.9.3 1.3.4.1 0 .2.1.3.1.4.1.8.3 1.3.3 10.9 2.6 22.5.3 29-8.5 0 0-7.8 21.8-34.4 16.8-.4-.1-.8-.3-1.3-.3l-.3-.1c-.4-.1-.8-.3-1.2-.4-.5-.2-.8-.3-1.2-.4l-.3-.1c-.3-.2-.8-.3-1.1-.5l-.2-.1c-.3-.2-.7-.3-1-.4l-.3-.1c-.3-.2-.5-.3-.8-.4-.2-.1-.3-.2-.5-.3-.3-.2-.6-.3-.8-.5-.1-.1-.2-.1-.3-.2-.4-.3-.8-.5-1.2-.8-.1-.1-.2-.2-.3-.2-.3-.2-.5-.3-.8-.5-.2-.1-.3-.2-.3-.3-.3-.2-.5-.3-.8-.6l-.3-.3c-.3-.2-.4-.3-.7-.5l-.3-.3c-.3-.3-.5-.4-.8-.7l-.2-.1c-.3-.3-.6-.6-.9-.8l-.3-.3c-.3-.2-.4-.4-.7-.7l-.3-.3c-.2-.3-.5-.6-.8-.8-.3-.3-.6-.7-.8-1l-.2-.3c-.2-.3-.3-.5-.6-.8l-.3-.3c-.2-.3-.4-.6-.6-.8l-.1-.2c-.3-.3-.5-.7-.7-1-.1-.1-.1-.2-.2-.3-.2-.3-.3-.5-.4-.8-.1-.1-.2-.3-.3-.4-.2-.3-.3-.5-.4-.7s-.2-.3-.3-.4l-.1-.3c-.1-.1-.1-.3-.2-.4l-.3-.6c-4.3-8.8-4.9-19.5.6-27.8l4.6-5.9zm29-9c-3.3 6.1-.2 13.6 4.8 17.6.8.7 1.8 1.3 2.8 1.8.5.3 1.1.5 1.6.7.4.2.9.3 1.3.4 5.6 1.4 10.1.4 12.8-3.6-.8 1.3-3.9 9.6-15.3 7.3-.3 0-.5-.2-.8-.3l-.3-.1c-.2-.1-.3-.1-.5-.2-4.1-1.6-7.7-4.8-9.3-9.1-1.7-4-1.4-8.4.9-12l2-2.5zM1100 87V29l50-29 50 29v58l-50 29z"/><path class="st1" d="M1195.6 84.5l-45.6 26.4-45.6-26.4v-53L1150 5.1l45.6 26.4z"/><path class="st14" d="M1200 87V29l50-29 50 29v58l-50 29z"/><path class="st1" d="M1295.6 84.5l-45.6 26.4-45.6-26.4v-53L1250 5.1l45.6 26.4z"/><path class="st14" d="M1234.3 70l-4.5 15h-9.9l16.8-52.8h12.3l17.1 52.8h-10.3l-4.8-15h-16.7zm15.1-7.2l-4.2-12.9c-1-3.2-1.8-6.8-2.7-9.8h-.2c-.8 3-1.6 6.8-2.5 9.8l-4.1 12.9h13.7zm30.7-26.6c0 2.9-2.1 5.2-5.5 5.2-3.2 0-5.3-2.3-5.3-5.2 0-3 2.2-5.3 5.4-5.3 3.3.1 5.3 2.3 5.4 5.3zM1269.9 85V46.9h9.7V85h-9.7zm30.1 2V29l50-29 50 29v58l-50 29z"/><path class="st1" d="M1395.6 84.5l-45.6 26.4-45.6-26.4v-53L1350 5.1l45.6 26.4z"/><path class="st15" d="M1400 87V29l50-29 50 29v58l-50 29z"/><path class="st1" d="M1495.6 84.5l-45.6 26.4-45.6-26.4v-53L1450 5.1l45.6 26.4z"/><path class="st15" d="M1417.9 32.3c3.4-.6 8.2-1.1 14.5-1.1 7 0 12.1 1.5 15.4 4.3 3.1 2.6 5.1 6.7 5.1 11.5 0 5-1.6 9.1-4.5 11.9-3.8 3.8-9.8 5.6-16.5 5.6-1.8 0-3.4-.1-4.7-.3V84h-9.4l.1-51.7zm9.4 24.4c1.2.3 2.7.4 4.7.4 7.1 0 11.4-3.5 11.4-9.6 0-5.8-4-8.9-10.6-8.9-2.7 0-4.5.3-5.5.4v17.7zm29.9 18.5c2.2 1.3 6.3 2.8 9.7 2.8 4.2 0 6-1.7 6-4.2 0-2.6-1.6-3.9-6.2-5.5-7.3-2.6-10.4-6.6-10.3-11 0-6.7 5.5-11.9 14.3-11.9 4.2 0 7.8 1.1 10 2.3l-1.8 6.8c-1.6-.9-4.7-2.2-8-2.2-3.4 0-5.3 1.6-5.3 3.9 0 2.4 1.8 3.6 6.6 5.3 6.8 2.5 10 5.9 10.1 11.5 0 6.8-5.3 11.8-15.3 11.8-4.6 0-8.7-1.1-11.4-2.7l1.6-6.9zM1500 87V29l50-29 50 29v58l-50 29z"/><path class="st1" d="M1595.6 84.5l-45.6 26.4-45.6-26.4v-53L1550 5.1l45.6 26.4z"/><path class="st16" d="M1600 87V29l50-29 50 29v58l-50 29z"/><path class="st1" d="M1695.6 84.4l-45.6 26.5-45.7-26.5V31.6L1650 5.1l45.6 26.5z"/><path class="st16" d="M1678.7 32.8c-.7-2.6-2.5-4.8-5.4-6.4-5.7-2.9-14.7-3.1-23.1-.1-4.9 1.8-14.4 5.7-21.5 12-7.1 6.6-8.3 12.4-7.6 14.6 1.2 6.4 7.9 10.8 13.3 14.5 1.4.9 2.8 1.9 3.7 2.7-3 1.5-11.2 6-13.3 10.7-1.7 3.7-.8 6.4-.2 7.6.7 1.4 1.8 2.5 2.9 2.8s2.4.5 3.6.5c4.8 0 9.5-2.5 12.4-6.8s3.1-9.9 1.8-13.4c1.9-.5 3.9-.5 6.1-.2 4.3.5 6.4 2.2 7.5 3.4 1.1 1.4 1.3 2.8 1.2 3.7-.2 1.6-1.6 2.6-2.2 3.1-.5.3-1 .7-.8 1.3.2.8 1.1.7 1.4.7 1-.2 4.6-2 4.8-5.9.1-2.4-.8-4.8-2.8-6.8-2.4-2.5-6.1-3.9-10.3-3.7-3.1 0-5.2.3-6.9.8l-.1-.1c-1.6-1.6-3.7-3.2-5.5-4.7-4.4-3.2-8.5-6.4-8.3-11.2.4-5.9 6.2-11.7 17.6-17.2 10.1-4.9 18.3-5.1 22.7-3.6 1.8.7 3 1.5 3.4 2.5.8 1.9.5 4.2-1 6.8-2.5 4.4-9 9.8-18.9 11-6 .7-8.5-2-8.7-2-.7-.7-1.1-1.2-1.9-.7s-.5 1.6-.2 2c.5 1.2 2.4 3.2 5.5 4.4 2.5.8 9.1 1.4 17.2-1.6 9-3.4 15.5-13.1 13.6-20.7zm-38.3 46.4c-.1.2-.1.5-.2.7s-.2.5-.2.7c-.5.9-1.1 2-2 2.8-2.5 2.7-6 3.4-7.1 2.8-.4-.2-.5-.5-.5-.9-.2-1.3.5-3.9 2.9-6.2 2.8-2.8 6.6-4.9 7.6-5.3.2 1.9 0 3.7-.5 5.4z"/><path class="st17" d="M1800 87V29l50-29 50 29v58l-50 29z"/><path class="st1" d="M1895.6 84.4l-45.6 26.5-45.7-26.5V31.6L1850 5.1l45.6 26.5z"/><path class="st17" d="M1812.5 58.9c0 3.4.3 6.5 1 9.2.6 2.7 1.5 5.1 2.6 7.2 1.1 2 2.5 3.8 4.3 5.3 1.7 1.5 3.6 2.8 5.6 3.8s4.3 1.8 6.9 2.4 5.3 1 8 1.3c2.7.2 5.7.4 8.9.4 3.3 0 6.3-.1 9-.4 2.7-.2 5.4-.7 8-1.3 2.6-.6 4.9-1.4 7-2.4 2-1 3.9-2.2 5.7-3.8 1.7-1.5 3.2-3.3 4.3-5.3 1.1-2 2-4.4 2.7-7.2.6-2.7 1-5.8 1-9.2 0-6.1-2-11.3-6.1-15.7.2-.6.4-1.3.6-2 .2-.7.4-1.8.5-3.2.2-1.4.1-3-.2-4.8-.3-1.8-.8-3.6-1.6-5.5l-.5-.1c-.4-.1-1-.1-1.9.1-.9.1-1.9.3-3.1.7-1.2.3-2.7 1-4.6 1.9-1.9.9-3.8 2.1-5.9 3.5-3.6-1-8.5-1.5-14.7-1.5s-11.1.5-14.6 1.5c-2.1-1.4-4.1-2.6-5.9-3.5-1.9-.9-3.4-1.6-4.5-1.9-1.1-.3-2.2-.5-3.1-.6-1-.1-1.6-.1-1.8-.1-.3 0-.5.1-.6.1-.8 1.9-1.3 3.7-1.6 5.5-.3 1.8-.3 3.4-.2 4.8.2 1.4.3 2.4.5 3.2.2.7.4 1.4.6 2-4.2 4.3-6.3 9.6-6.3 15.6zm9.2 9.2c0-3.5 1.6-6.7 4.8-9.7 1-.9 2.1-1.5 3.3-2 1.3-.5 2.7-.7 4.3-.8 1.6-.1 3.1 0 4.6 0 1.5.1 3.3.2 5.4.3s4 .2 5.6.2 3.4-.1 5.6-.2c2.1-.1 4-.3 5.4-.3 1.5-.1 3-.1 4.6 0s3 .3 4.3.8 2.4 1.1 3.3 2c3.2 2.9 4.8 6.1 4.8 9.7 0 2.1-.3 4-.8 5.6s-1.2 3-2 4.1-2 2-3.4 2.8c-1.5.8-2.9 1.4-4.2 1.8-1.4.4-3.1.7-5.3 1-2.2.2-4.1.4-5.8.4-1.7 0-3.8.1-6.5.1s-4.8 0-6.5-.1c-1.7 0-3.6-.2-5.8-.4-2.2-.2-3.9-.6-5.3-1s-2.8-1-4.2-1.8c-1.5-.8-2.6-1.7-3.4-2.8-.8-1.1-1.5-2.5-2-4.1s-.8-3.5-.8-5.6zm37.6-.7c0 3.9 2.1 7 4.7 7s4.7-3.1 4.7-7-2.1-7-4.7-7-4.7 3.1-4.7 7zm-28.1 0c0 3.9 2.1 7 4.7 7s4.7-3.1 4.7-7-2.1-7-4.7-7-4.7 3.1-4.7 7z"/><path class="st18" d="M2000 87V29l50-29 50 29v58l-50 29z"/><path class="st1" d="M2095.6 84.4l-45.6 26.5-45.7-26.5V31.6L2050 5.1l45.6 26.5z"/><path class="st18" d="M2050 95.2c-1 0-2-.3-2.9-.8L2038 89c-1.4-.8-.7-1-.2-1.2 1.8-.6 2.2-.8 4.1-1.9.2-.1.5-.1.7.1l7 4.2c.3.1.6.1.8 0l27.3-15.7c.3-.1.4-.4.4-.7V42.2c0-.3-.2-.6-.4-.8l-27.3-15.7c-.3-.1-.6-.1-.8 0l-27.3 15.7c-.3.2-.4.4-.4.7v31.5c0 .3.2.6.4.7l7.5 4.3c4.1 2 6.5-.4 6.5-2.8V44.9c0-.4.4-.8.8-.8h3.5c.4 0 .8.3.8.8V76c0 5.4-2.9 8.5-8.1 8.5-1.6 0-2.8 0-6.3-1.7l-7.2-4.1c-1.8-1-2.9-2.9-2.9-5V42.2c0-2 1.1-4 2.9-5l27.3-15.8c1.7-1 4-1 5.7 0l27.3 15.8c1.8 1 2.9 2.9 2.9 5v31.5c0 2-1.1 3.9-2.9 5l-27.3 15.8c-.8.5-1.8.7-2.8.7z"/><path class="st18" d="M2058.4 73.5c-11.9 0-14.4-5.5-14.4-10.1 0-.4.4-.8.8-.8h3.5c.4 0 .7.3.8.7.5 3.6 2.1 5.4 9.3 5.4 5.7 0 8.2-1.3 8.2-4.4 0-1.8-.7-3.1-9.6-3.9-7.5-.7-12.1-2.4-12.1-8.4 0-5.5 4.6-8.8 12.4-8.8 8.7 0 13.1 3 13.6 9.5 0 .2-.1.4-.2.6-.1.2-.4.3-.6.3h-3.5c-.4 0-.7-.3-.8-.6-.8-3.8-2.9-5-8.5-5-6.3 0-7 2.2-7 3.8 0 2 .9 2.6 9.3 3.7s12.4 2.7 12.4 8.6c0 6-5 9.4-13.6 9.4z"/><path class="st19" d="M2200 87V29l50-29 50 29v58l-50 29z"/><path class="st1" d="M2295.6 84.4l-45.6 26.5-45.7-26.5V31.6L2250 5.1l45.6 26.5z"/><path class="st19" d="M2287.4 54.5l-34-34c-2-2-5.1-2-7.1 0l-7.1 7.1 8.9 8.9c2.1-.7 4.5-.2 6.1 1.4 1.7 1.7 2.1 4.1 1.4 6.2l8.6 8.6c2.1-.7 4.5-.3 6.2 1.4 2.3 2.3 2.3 6.1 0 8.4-2.3 2.3-6.1 2.3-8.4 0-1.8-1.8-2.2-4.3-1.3-6.5l-8-8v21.2c.6.3 1.1.7 1.6 1.1 2.3 2.3 2.3 6.1 0 8.4-2.3 2.3-6.1 2.3-8.4 0s-2.3-6.1 0-8.4c.6-.6 1.2-1 2-1.3V47.7c-.7-.3-1.4-.7-2-1.3-1.8-1.8-2.2-4.4-1.3-6.5l-8.8-8.8-23.3 23.3c-2 2-2 5.1 0 7.1l34 34c2 2 5.1 2 7.1 0l33.8-33.8c1.9-2 1.9-5.2 0-7.2z"/><path class="st20" d="M2400 87V29l50-29 50 29v58l-50 29z"/><path class="st1" d="M2495.6 84.4l-45.6 26.5-45.7-26.5V31.6L2450 5.1l45.6 26.5z"/><path class="st20" d="M2449.8 78c-4.1 0-7.2-.6-8.7-1-1-.2-1.9-.5-2.5-.8l2 3.4.8 10.7c0 1.2 3.8 2.2 8.5 2.2s8.5-1 8.5-2.2l.6-10.8 1.9-3.3c-.6.3-1.5.5-2.5.8-1.4.4-4.5 1-8.6 1zm11.3-34.9c-3 .4-6.9.6-11.1.6s-8.1-.2-11.1-.6c-1.5-.2-2.6-.4-3.5-.7-.2-.1-.5-.2-.9-.4l1.8 17 .3-.9c.2-.6.5-1.2.8-1.7.3-.6.6-1.1.9-1.6.3-.5.7-1 1.1-1.4.4-.4.8-.8 1.2-1.1.4-.3.8-.5 1.2-.7.4-.2.8-.3 1.2-.3.5 0 .9.1 1.3.4.4.3.8.7 1.2 1.2.1.1.1.3.2.4v.4c0 .3-.1.5-.2.6-.1.2-.3.2-.5.2s-.3-.1-.4-.3c-.1-.2-.3-.4-.5-.7s-.3-.5-.5-.6-.4-.2-.6-.2c-.4 0-.7.1-1.1.4-.4.3-.8.7-1.2 1.2s-.8 1-1.1 1.6c-.4.6-.7 1.2-1 1.9-.3.6-.5 1.3-.7 1.9-.2.6-.2 1.2-.2 1.7v.5c0 .2.1.3.1.5.1.1.1.3.3.4.1.1.2.1.4.1s.4-.1.6-.2c.2-.1.5-.3.7-.5.3-.2.5-.4.8-.7s.5-.5.7-.8.4-.5.6-.8c.2-.2.3-.5.4-.6l.7-2.1c.1-.2.2-.4.3-.5s.3-.1.4-.1h.2l.2.1.1.2v.3c0 .3 0 .6-.1.8s-.1.5-.2.7c-.1.2-.2.5-.3.7s-.2.5-.3.8c0 0-.1.1-.1.3-.1.2-.1.4-.2.6-.1.2-.2.5-.2.8l-.3.9-.3.9c-.1.3-.2.6-.2.8-.1.2-.1.4-.2.6 0 .2-.1.3-.1.3 0 .1-.1.2-.1.3-.1.1-.1.2-.2.3-.1.1-.2.2-.2.3-.1.1-.2.1-.3.1-.2 0-.3-.1-.4-.2-.1-.1-.1-.3-.1-.6v-.2c0-.1 0-.3.1-.5l.3-.9c.1-.3.2-.7.3-1 .1-.4.2-.7.3-1l-.9.9c-.3.3-.6.6-1 .8-.3.2-.7.4-1 .6-.3.1-.7.2-1 .2-.4 0-.7-.1-.9-.2l-.1-.1 1 10.8c.3.7 5.3 2.3 11.9 2.3 6.6 0 11.7-1.6 11.9-2.3l1.5-12.8c-.1.1-.2.2-.4.3-.4.4-.8.7-1.2 1s-.7.5-1.1.7c-.4.2-.7.2-1.1.2-.4 0-.7-.1-.9-.3-.2-.2-.3-.4-.3-.7v-.2c0-.2.1-.4.2-.6.1-.2.3-.5.5-.7.2-.3.4-.5.6-.8.2-.3.4-.5.6-.7.2-.2.3-.4.5-.6.1-.2.2-.3.2-.5l-.1-.2c-.1 0-.1-.1-.2-.1-.2 0-.4.1-.6.2-.2.1-.4.2-.6.4l-.6.6c-.2.2-.4.5-.6.7-.2.2-.3.5-.5.7-.1.2-.3.5-.4.7 0 .1-.1.2-.1.3-.1.1-.1.3-.2.4-.1.1-.1.3-.2.5s-.1.3-.2.4c-.1.1-.1.3-.2.4 0 .1-.1.2-.1.2 0 .1-.1.2-.1.3-.1.1-.1.3-.2.5s-.2.4-.2.6c-.1.2-.2.4-.2.6-.1.2-.1.4-.2.5-.1.1-.1.3-.1.3-.1.2-.1.3-.2.4-.1.1-.1.3-.2.4l-.3.3c-.1.1-.2.1-.4.1s-.3 0-.4-.1c-.1-.1-.2-.3-.2-.5v-.4c0-.1.1-.2.1-.4 0-.1.1-.2.1-.4 0-.1.1-.2.1-.3.3-.6.5-1.2.8-1.8.3-.6.6-1.2.8-1.8.1-.1.1-.2.2-.4-.3.3-.7.6-1 .8s-.6.4-1 .6c-.3.1-.6.2-.9.2-.2 0-.4 0-.5-.1l-.3-.3c-.1-.1-.1-.2-.2-.4V63l-.3.2c-.3.2-.6.4-.9.5-.3.1-.6.2-.8.2s-.4-.1-.6-.2c-.2-.2-.2-.4-.2-.8 0-.3 0-.6.1-1-.1.2-.3.5-.5.7s-.4.5-.7.7-.5.4-.8.5-.7.2-1 .2c-.2 0-.3 0-.5-.1-.2 0-.3-.1-.4-.2-.1-.1-.2-.2-.3-.4s-.1-.4-.1-.6v-.3c0-.2.1-.5.2-.8.1-.4.3-.9.5-1.5s.5-1.3 1-2.2c.1-.2.2-.4.4-.5.1-.1.3-.1.4-.1h.2l.2.1.2.2.1.2v.2c0 .1-.1.2-.2.4l-.3.6c-.1.2-.2.4-.4.7-.1.2-.2.5-.3.8s-.2.5-.3.8-.1.5-.1.8c0 .1 0 .2.1.3s.1.1.2.1c.3 0 .6-.1.9-.3.3-.2.6-.5.8-.8.3-.3.5-.7.7-1 .2-.4.4-.7.5-1 .1-.2.2-.4.3-.7.1-.2.2-.4.2-.6.1-.2.2-.4.3-.5s.2-.2.4-.2.3.1.4.2c.1.1.2.3.2.5 0 .1 0 .3-.1.4l-.3.6c-.1.2-.2.5-.3.8s-.2.6-.3.8c-.1.3-.2.6-.3.8-.1.3-.1.5-.1.8 0 .2.1.3.3.3s.3-.1.6-.2c.2-.1.5-.3.7-.5l.2-.2c.1-.3.2-.6.3-.8.2-.5.4-.9.5-1.4.2-.5.3-.9.5-1.3l2.3-5.8c.1-.2.2-.4.4-.5s.3-.1.5-.1.3.1.4.2c.1.1.2.3.2.5 0 .1 0 .2-.1.3 0 .1-.1.2-.2.4-.1.3-.3.6-.4 1-.2.4-.4.8-.6 1.3l-.6 1.5-.6 1.5c-.2.5-.4 1-.6 1.4-.2.4-.3.8-.4 1.1-.1.1-.1.3-.2.5s-.1.3-.1.5v.2l.2.1c.1 0 .2 0 .4-.1s.3-.2.5-.3c.2-.1.4-.3.6-.4.2-.2.4-.3.6-.5.2-.2.4-.3.6-.5l.5-.5.1-.1c.1-.3.2-.5.2-.7 0-.1.1-.3.2-.5s.2-.4.2-.6c.1-.2.2-.4.3-.5s.2-.2.4-.2.3 0 .4.1c.1.1.1.2.1.4v.8l.6-.6c.2-.2.4-.4.7-.5.2-.2.5-.3.7-.4.2-.1.5-.2.7-.2s.3 0 .5.1c.2 0 .3.1.4.2l.3.3c.1.1.1.3.1.5s-.1.5-.2.8c-.1.3-.3.6-.5.8-.2.3-.4.6-.6.8-.2.3-.4.5-.6.7-.2.2-.3.4-.5.6-.1.2-.2.3-.2.3l.1.2s.1.1.2.1.2 0 .4-.1.4-.3.7-.5c.3-.2.7-.6 1.1-.9.3-.3.7-.6 1.1-1l2-18.5c-.3.2-.7.3-.9.4-.3.9-1.4 1.1-2.9 1.3zm-11.2-4.4c-8.6 0-15.6 1-15.6 2.2 0 1.2 7 2.2 15.6 2.2s15.6-1 15.6-2.2c0-1.2-6.9-2.2-15.6-2.2zm6.3 2.8c0 .3-.8.5-1.9.5-1 0-1.9-.2-1.9-.5s.8-.5 1.9-.5 1.9.2 1.9.5z"/><path class="st20" d="M2452.9 41.3c0 .2.7.4 1.5.4s1.5-.1 1.5-.3l2-7.9 7.8-8.2c.2-.2-.2-.8-.7-1.3-.6-.5-1.2-.7-1.3-.5l-8.3 8.7-2.5 9.1z"/><path class="st21" d="M2600 87V29l50-29 50 29v58l-50 29z"/><path class="st1" d="M2695.6 84.4l-45.6 26.5-45.7-26.5V31.6L2650 5.1l45.6 26.5z"/><path class="st22" d="M2671.8 42.6c1.2-6.1.5-10.7-2.3-12.6-.9-.6-2.1-.9-3.4-.8-6.9.3-18 9.7-27.1 23.7-10.8 16.6-14.6 33.1-8.5 37.1 2.9 1.9 7.4.5 12.6-3.1"/><path class="st22" d="M2677.3 69.7c5.1-2 8.2-4.7 8.4-7.8.4-7.2-15.3-13.9-35-14.9-1.8-.1-3.7-.1-5.4-.1-17.2.1-30.6 4.8-30.9 11.3-.2 3.1 2.7 6.1 7.5 8.6"/><path class="st22" d="M2645.2 31.9c-3.5-2.9-6.8-4.5-9.4-4.3-.7.1-1.3.2-2 .5-6.4 3.3-4.4 20.2 4.6 37.8s21.4 29.2 27.9 25.9c6.2-3.1 4.5-18.9-3.6-35.8"/><circle class="st21" cx="2650.3" cy="60.5" r="4.3"/><path class="st23" d="M2800 87V29l50-29 50 29v58l-50 29z"/><path class="st1" d="M2895.6 84.4l-45.6 26.5-45.7-26.5V31.6L2850 5.1l45.6 26.5z"/><path class="st23" d="M2874.3 46.2c-.8-.3-1.6-.5-2.4-.8.2-.5.2-1.1.4-1.7 1.8-8.9.6-16.2-3.5-18.5-3.9-2.3-10.4.1-16.9 5.7-.6.5-1.3 1.1-1.9 1.7-.4-.4-.8-.8-1.3-1.1-6.8-6-13.7-8.6-17.8-6.3-3.9 2.3-5.1 9.1-3.5 17.5.2.8.4 1.7.5 2.5-1 .3-1.9.6-2.8.9-7.9 2.7-13 7.1-13 11.6 0 4.7 5.5 9.4 13.8 12.2.7.2 1.4.5 2 .6-.2.9-.5 1.8-.6 2.7-1.6 8.3-.4 15 3.6 17.2 4.1 2.3 10.9-.1 17.5-5.9.5-.5 1.1-.9 1.6-1.4.7.6 1.4 1.3 2 1.9 6.4 5.5 12.8 7.8 16.7 5.5 4.1-2.3 5.4-9.5 3.6-18.1-.2-.7-.3-1.4-.5-2 .5-.2 1-.3 1.4-.5 8.7-2.9 14.3-7.5 14.3-12.2.3-4.4-5-8.7-13.2-11.5z"/><path class="st1" d="M2872.5 67.1c-.4.2-.8.3-1.3.4-1-3-2.3-6.3-3.9-9.6 1.5-3.3 2.7-6.4 3.7-9.5.8.2 1.5.5 2.3.7 7 2.4 11.3 6 11.3 8.7-.1 3-4.7 6.8-12.1 9.3zm-3.1 6.1c.8 3.9.8 7.3.4 10-.5 2.4-1.4 4.1-2.5 4.7-2.4 1.4-7.5-.4-13-5.1-.6-.5-1.3-1.1-1.9-1.7 2.1-2.3 4.2-5.1 6.4-8 3.6-.3 7.1-.8 10.2-1.6.1.5.3 1.1.4 1.7zM2838 87.7c-2.3.8-4.2.8-5.3.2-2.4-1.4-3.4-6.7-2-13.8.2-.8.4-1.7.5-2.5 3.1.7 6.5 1.2 10.2 1.5 2.1 2.9 4.3 5.7 6.5 8-.5.5-1 .9-1.4 1.4-3 2.4-5.9 4.3-8.5 5.2zm-10.9-20.6c-3.7-1.3-6.7-2.9-8.8-4.7-1.9-1.6-2.8-3.2-2.8-4.5 0-2.7 4.1-6.3 11-8.6.8-.3 1.7-.6 2.6-.8 1 3.1 2.2 6.3 3.7 9.5-1.5 3.3-2.8 6.6-3.7 9.7-.8-.2-1.4-.4-2-.6zm3.6-24.9c-1.4-7.3-.5-12.8 1.9-14.1 2.5-1.4 8.1.6 14 5.8.4.3.8.7 1.1 1.1-2.2 2.3-4.4 5.1-6.4 7.9-3.6.3-7 .8-10.1 1.6-.2-.8-.3-1.5-.5-2.3zm32.6 8c-.8-1.3-1.5-2.6-2.3-3.8 2.4.3 4.7.7 6.9 1.2-.7 2.1-1.4 4.3-2.4 6.5-.7-1.3-1.4-2.6-2.2-3.9zM2850 37.3c1.5 1.6 2.9 3.4 4.5 5.4-2.9-.2-6-.2-8.9 0 1.5-2 2.9-3.8 4.4-5.4zm-13.4 12.9c-.8 1.3-1.4 2.6-2.1 3.9-.9-2.3-1.7-4.5-2.4-6.6 2.2-.5 4.5-.9 6.9-1.2-.9 1.4-1.6 2.7-2.4 3.9zm2.4 19.4c-2.5-.3-4.8-.7-7-1.1.7-2.2 1.5-4.4 2.4-6.7l2.1 3.9c1 1.3 1.7 2.6 2.5 3.9zm11.2 9.1c-1.5-1.7-3-3.5-4.5-5.4 1.4.1 2.9.1 4.5.1s3.1 0 4.5-.1c-1.6 2-3.1 3.8-4.5 5.4zm15.4-17c1 2.3 1.9 4.5 2.6 6.7-2.2.5-4.5.9-7 1.2.8-1.3 1.6-2.6 2.3-3.9.6-1.4 1.3-2.7 2.1-4zm-5 2.4c-1.1 2-2.3 3.9-3.6 5.8-2.3.2-4.5.2-7 .2-2.3 0-4.6-.1-6.9-.2-1.3-1.9-2.6-3.9-3.7-5.9-1.1-2-2.2-4-3.3-6.1 1-2 2-4.1 3.3-6.1 1.1-2 2.3-3.9 3.6-5.8 2.3-.2 4.5-.2 6.9-.2 2.3 0 4.6.1 6.9.2 1.3 1.9 2.5 3.9 3.6 5.8 1.1 2 2.3 4 3.3 6-.9 2.2-2 4.2-3.1 6.3zm6.6-36.2c2.5 1.4 3.6 7.3 1.9 15l-.3 1.5c-3.1-.8-6.6-1.3-10.1-1.6-2-2.9-4.2-5.7-6.4-7.9.5-.5 1.1-1.1 1.7-1.6 5.6-4.8 10.8-6.7 13.2-5.4z"/><path class="st23" d="M2850 51.2a6.7 6.7 0 1 1 0 13.4 6.7 6.7 0 0 1 0-13.4m50 35.8V29l50-29 50 29v58l-50 29z"/><path class="st1" d="M2995.6 84.4l-45.6 26.5-45.7-26.5V31.6L2950 5.1l45.6 26.5z"/><path d="M509.8 65.3h-1.9V51.7h5.4c.5 0 1 .1 1.5.3.5.2.9.5 1.2.8.3.3.6.8.8 1.2s.3 1 .3 1.5c0 .3 0 .6-.1.9-.1.3-.2.6-.4.9-.1.3-.3.5-.5.7-.2.2-.4.3-.6.3h.2l.2.1.3.1.2.2c.4.4.7.8.9 1.3.2.5.4 1 .4 1.6 0 .5-.1 1.1-.3 1.5-.2.5-.5.9-.8 1.2-.4.4-.8.6-1.2.8-.5.2-1 .3-1.5.3l-4.1-.1zm0-11.8v3.9h3.5c.3 0 .5-.1.8-.2.2-.1.4-.2.6-.4.2-.2.3-.4.4-.6.1-.2.2-.5.2-.8 0-.3-.1-.5-.2-.8-.1-.2-.2-.4-.4-.6-.2-.2-.4-.3-.6-.4-.2-.1-.5-.2-.8-.2h-3.5zm4 9.9c.3 0 .6-.1.8-.2.2-.1.5-.3.6-.4.2-.2.3-.4.4-.7.1-.2.2-.5.2-.8s-.1-.5-.2-.8c-.1-.2-.3-.5-.4-.6-.2-.2-.4-.3-.6-.4-.2-.1-.5-.2-.8-.2h-4v4.1h4zm5.7-3.1c0-.7.1-1.4.4-2 .3-.6.6-1.2 1.1-1.6.5-.5 1-.8 1.6-1.1.6-.3 1.3-.4 2-.4s1.4.1 2 .4c.6.3 1.2.6 1.6 1.1.5.5.8 1 1.1 1.6.3.6.4 1.3.4 2s-.1 1.4-.4 2c-.3.6-.6 1.2-1.1 1.6-.5.5-1 .8-1.6 1.1-.6.3-1.3.4-2 .4s-1.4-.1-2-.4c-.6-.3-1.2-.6-1.6-1.1-.5-.5-.8-1-1.1-1.6-.3-.6-.4-1.3-.4-2zm1.8 0c0 .5.1.9.3 1.3.2.4.4.7.7 1 .3.3.6.5 1 .7.4.2.8.3 1.3.3s.9-.1 1.3-.3c.4-.2.7-.4 1-.7.3-.3.5-.6.7-1 .2-.4.3-.8.3-1.3s-.1-.9-.3-1.3c-.2-.4-.4-.7-.7-1-.3-.3-.6-.5-1-.7-.4-.2-.8-.3-1.3-.3s-.9.1-1.3.3c-.4.2-.7.4-1 .7-.3.3-.5.6-.7 1-.2.4-.3.8-.3 1.3zm9.8 0c0-.7.1-1.4.4-2 .3-.6.6-1.2 1.1-1.6.5-.5 1-.8 1.6-1.1.6-.3 1.3-.4 2-.4s1.4.1 2 .4c.6.3 1.2.6 1.6 1.1.5.5.8 1 1.1 1.6.3.6.4 1.3.4 2s-.1 1.4-.4 2c-.3.6-.6 1.2-1.1 1.6-.5.5-1 .8-1.6 1.1-.6.3-1.3.4-2 .4s-1.4-.1-2-.4c-.6-.3-1.2-.6-1.6-1.1-.5-.5-.8-1-1.1-1.6-.2-.6-.4-1.3-.4-2zm1.9 0c0 .5.1.9.3 1.3.2.4.4.7.7 1 .3.3.6.5 1 .7.4.2.8.3 1.3.3s.9-.1 1.3-.3c.4-.2.7-.4 1-.7.3-.3.5-.6.7-1 .2-.4.3-.8.3-1.3s-.1-.9-.3-1.3c-.2-.4-.4-.7-.7-1-.3-.3-.6-.5-1-.7-.4-.2-.8-.3-1.3-.3s-.9.1-1.3.3c-.4.2-.7.4-1 .7-.3.3-.5.6-.7 1-.3.4-.3.8-.3 1.3zm12.7 2.5v.3c0 .1.1.2.1.3l.2.2c.1.1.2.1.3.1h.2c.3-.1.5-.1.7-.1.3 0 .5.1.7.2s.4.3.5.5l.2.3c-.1.1-.3.2-.5.3l-.6.3c-.2.1-.4.1-.7.2-.2.1-.4.1-.6.1-.4 0-.8-.1-1.1-.2-.3-.1-.6-.3-.8-.6-.2-.2-.4-.5-.5-.8-.1-.3-.2-.7-.2-1.1v-5.7h-1.7v-1c0-.5.5-.8 1.5-.8h.2v-2.1c0-.2 0-.4.1-.6 0-.2.1-.3.2-.5s.1-.3.2-.4h1.4v3.5h2.8V57h-2.8v5.8zm4.5.3c.1-.1.3-.1.4-.2.1 0 .2-.1.4-.1s.3 0 .5.1c.1.1.3.2.5.3.1.1.3.2.5.2s.3.1.5.1.4 0 .6-.1.4-.1.5-.3c.2-.1.3-.3.4-.4.1-.2.1-.4.1-.6 0-.2 0-.3-.1-.5-.1-.1-.1-.2-.3-.3-.1-.1-.3-.2-.5-.3-.2-.1-.5-.2-.8-.3-.3-.1-.7-.3-1-.4-.3-.2-.6-.3-.9-.6-.3-.2-.5-.5-.6-.8-.2-.3-.2-.7-.2-1.1 0-.4.1-.7.3-1.1.2-.3.4-.6.7-.9.3-.2.6-.4 1-.6.4-.1.7-.2 1.1-.2.4 0 .7.1 1.1.2.3.1.6.3.8.5.2.2.4.3.6.5.1.2.2.3.3.3l-.4.4c-.3.2-.6.3-.9.3-.1 0-.3 0-.4-.1-.1-.1-.3-.1-.5-.2-.1-.1-.3-.1-.4-.1-.2 0-.5 0-.6.1-.2.1-.3.2-.4.3s-.2.2-.2.3-.1.2-.1.3c0 .2 0 .3.1.5.1.1.2.2.4.3.2.1.3.2.5.2.2.1.4.1.6.2.4.1.7.3 1.1.4.4.2.7.4.9.6.3.2.5.5.7.9.2.3.2.7.2 1.2 0 .4-.1.8-.3 1.2-.2.4-.4.7-.7 1-.3.3-.7.5-1.1.7-.4.2-.9.3-1.4.3-.3 0-.7 0-1-.1s-.6-.2-.9-.4c-.3-.2-.5-.4-.8-.6-.2-.2-.4-.5-.6-.8l.3-.3zm10.8-.3v.3c0 .1.1.2.1.3l.2.2c.1.1.2.1.3.1h.2c.3-.1.5-.1.7-.1.3 0 .5.1.7.2s.4.3.5.5l.2.3c-.1.1-.3.2-.5.3l-.6.3c-.2.1-.4.1-.7.2-.2.1-.4.1-.6.1-.4 0-.8-.1-1.1-.2-.3-.1-.6-.3-.8-.6-.2-.2-.4-.5-.5-.8-.1-.3-.2-.7-.2-1.1v-5.7h-1.7v-1c0-.5.5-.8 1.5-.8h.2v-2.1c0-.2 0-.4.1-.6 0-.2.1-.3.2-.5s.1-.3.2-.4h1.4v3.5h2.8V57H561v5.8zm6.4-7.5l.1.2c0 .1.1.2.1.3v1c.1-.2.3-.4.5-.6.2-.2.4-.4.7-.5.3-.1.5-.3.8-.4.3-.1.6-.1.9-.1.5 0 1 .1 1.5.3l-.1.8c-.1.3-.2.5-.3.6-.2.1-.4.2-.7.2h-.4c-.4 0-.7.1-1.1.2-.3.1-.6.3-.9.4s-.5.4-.6.6c-.2.2-.2.5-.3.7v6.3h-1.9v-10h1.7zm5.7 1.5c.1-.1.1-.2.2-.3l.3-.3c.1-.1.2-.2.4-.3l1.2-.6c.4-.1.9-.2 1.5-.2.5 0 1 .1 1.4.2s.8.3 1 .6c.3.2.5.5.7.8.2.3.3.7.4 1.1.1.4.2.8.2 1.2s.1.8.1 1.3v5H579c-.1-.1-.2-.2-.2-.4s-.1-.3-.1-.4v-.3c-.2.2-.4.3-.6.5-.3.1-.5.3-.8.4-.3.1-.5.2-.8.2-.3.1-.5.1-.7.1-.5 0-1-.1-1.4-.2-.4-.1-.8-.3-1.1-.6s-.5-.6-.7-1c-.2-.4-.2-.8-.2-1.2 0-.5.1-.9.3-1.3.2-.4.5-.7.8-1 .4-.3.9-.5 1.4-.7.6-.2 1.2-.2 2-.2h1.7c0-.5-.1-.9-.2-1.2-.1-.3-.3-.5-.5-.7s-.4-.3-.6-.4c-.2-.1-.5-.1-.7-.1-.3 0-.6 0-.7.1-.2.1-.3.1-.5.2-.1.1-.3.1-.4.2-.1.1-.3.1-.5.1s-.3 0-.5-.1c-.1-.1-.3-.1-.4-.2l-.5-.3zm2.6 6.8c.2 0 .5 0 .7-.1.3 0 .5-.1.8-.2s.5-.2.8-.3c.3-.1.5-.2.7-.4V61H577c-.4 0-.8 0-1.1.1-.3.1-.6.1-.9.2-.3.1-.4.3-.6.4-.1.2-.2.4-.2.7 0 .2 0 .4.1.6.1.2.2.3.3.4.1.1.3.2.5.2h.6zm9-8.3l.1.2c0 .1.1.2.1.3v.7c0-.2.1-.3.2-.5.1-.1.2-.2.4-.3.2-.1.3-.2.5-.2.2-.1.4-.1.6-.2.2 0 .4-.1.5-.1h.4c.7 0 1.4.1 2 .4.6.3 1.1.6 1.6 1.1.4.5.8 1 1 1.6.3.6.4 1.3.4 2s-.1 1.4-.4 2c-.3.6-.6 1.2-1 1.6-.4.5-1 .8-1.6 1.1-.6.3-1.3.4-2 .4h-.7c-.3 0-.4-.1-.7-.2-.2-.1-.4-.2-.7-.3-.2-.1-.4-.3-.6-.5v4.1h-1.9V55.3h1.8zm2.9 8.3c.5 0 .9-.1 1.3-.3.4-.2.7-.4 1-.7.3-.3.5-.6.6-1 .2-.4.2-.8.2-1.3s-.1-.9-.2-1.3c-.2-.4-.4-.7-.6-1-.3-.3-.6-.5-1-.7-.4-.2-.8-.3-1.3-.3s-1 .1-1.4.3-.9.5-1.2.8v4.4c.3.3.7.6 1.2.8.4.2.9.3 1.4.3zm120.5-7.8h-1.7V43.6h4.4c.5 0 1 .1 1.4.3.4.2.8.4 1.1.8.3.3.6.7.8 1.1s.3.9.3 1.4c0 .4-.1.8-.2 1.1-.1.4-.3.7-.5 1s-.5.6-.8.8c-.3.2-.6.4-1 .5l3.9 5.2h-1.2c-.3 0-.6-.1-.9-.2-.3-.1-.5-.3-.6-.6l-3.2-4.3h-1.8v5.1zm0-10.5V49h2.7c.3 0 .5 0 .7-.1.2-.1.4-.2.6-.4s.3-.4.4-.6c.1-.2.1-.5.1-.7 0-.3 0-.5-.1-.7-.1-.2-.2-.4-.4-.6-.2-.2-.4-.3-.6-.4-.2-.1-.5-.1-.7-.1h-2.7zm17.1 5.3c0 .2 0 .4-.1.5-.1.2-.2.3-.3.4-.1.1-.2.2-.4.3-.1.1-.3.1-.4.1h-6.2c.1.3.2.7.3 1 .2.3.4.6.7.8.3.2.6.4.9.5.3.1.7.2 1 .2.3 0 .5 0 .8-.1.2-.1.5-.2.7-.3.1-.1.2-.1.3-.1h.4c.2 0 .3 0 .5.1.1.1.3.2.4.3l.3.3c-.4.5-.9.8-1.5 1.1-.6.3-1.2.4-1.9.4-.6 0-1.2-.1-1.8-.4s-1-.6-1.5-1c-.4-.4-.7-.9-1-1.5-.2-.6-.4-1.2-.4-1.8 0-.6.1-1.2.4-1.8.2-.6.6-1 1-1.5.4-.4.9-.7 1.5-1 .6-.2 1.2-.4 1.8-.4.5 0 1 .1 1.5.3.5.2.9.4 1.3.7.4.3.7.7 1 1.1s.5.9.6 1.4v.2l.1.2zm-6.8-.4h5c-.1-.3-.3-.5-.4-.7l-.6-.6c-.2-.2-.5-.3-.8-.4-.3-.1-.6-.1-.9-.1-.3 0-.7.1-1 .2-.3.1-.6.3-.8.4-.2.2-.5.4-.6.7-.2.3-.3.5-.4.8 0-.1.1-.1.2-.2s.2-.1.3-.1zm8.4 3.7c.1-.1.2-.1.3-.1.1 0 .2-.1.3-.1.1 0 .3 0 .4.1s.3.2.5.3c.1.1.3.2.4.2.2 0 .3.1.5.1s.4 0 .5-.1c.2-.1.3-.1.5-.2.1-.1.2-.2.3-.4.1-.2.1-.3.1-.5s0-.3-.1-.4c0-.1-.1-.2-.3-.3-.1-.1-.3-.2-.5-.3-.2-.1-.5-.2-.8-.3-.3-.1-.6-.2-.9-.4-.3-.1-.6-.3-.8-.5-.2-.2-.4-.4-.6-.7-.1-.3-.2-.6-.2-1 0-.3.1-.7.2-1 .2-.3.4-.6.6-.8.3-.2.6-.4.9-.5.3-.1.7-.2 1-.2.3 0 .7.1.9.2.3.1.5.3.7.4.2.2.4.3.5.5.1.1.2.2.2.3l-.4.3c-.2.2-.5.3-.8.3-.1 0-.2 0-.4-.1-.1 0-.3-.1-.4-.2-.1-.1-.2-.1-.4-.1s-.4 0-.5.1c-.1.1-.3.1-.3.2-.1.1-.1.2-.2.3 0 .1-.1.2-.1.2 0 .2 0 .3.1.4l.3.3c.1.1.3.2.5.2.2.1.3.1.5.2.3.1.7.2 1 .4.3.1.6.3.8.5.2.2.4.5.6.8.1.3.2.7.2 1.1 0 .4-.1.7-.2 1.1l-.6.9c-.3.3-.6.5-1 .6-.4.2-.8.2-1.2.2-.3 0-.6 0-.9-.1-.3-.1-.6-.2-.8-.4-.3-.2-.5-.3-.7-.6-.2-.2-.4-.5-.5-.8l.8-.1zm8.9-7l.1.2.1.2v.6c0-.2.1-.3.2-.4l.3-.3c.1-.1.3-.2.5-.2.2-.1.3-.1.5-.1s.3-.1.5-.1h.4c.6 0 1.2.1 1.8.4.5.2 1 .6 1.4 1 .4.4.7.9.9 1.5.2.6.3 1.2.3 1.8 0 .6-.1 1.2-.3 1.8-.2.6-.5 1-.9 1.5-.4.4-.9.7-1.4 1-.5.2-1.1.4-1.8.4h-.6c-.2 0-.4-.1-.6-.1l-.6-.3c-.2-.1-.4-.3-.5-.4v3.7h-1.7V46.9h1.4zm2.6 7.4c.4 0 .8-.1 1.1-.2s.6-.4.9-.6l.6-.9c.1-.4.2-.7.2-1.1 0-.4-.1-.8-.2-1.1-.1-.4-.3-.7-.6-.9-.2-.3-.5-.5-.9-.6s-.7-.2-1.1-.2c-.4 0-.9.1-1.3.3-.4.2-.8.4-1.1.7v4c.3.3.6.5 1.1.7.4-.2.9-.1 1.3-.1zm5.6-3c0-.6.1-1.2.4-1.8.2-.6.6-1 1-1.5.4-.4.9-.7 1.5-1 .6-.2 1.2-.4 1.8-.4s1.2.1 1.8.4c.6.2 1 .6 1.5 1 .4.4.7.9 1 1.5.2.6.4 1.2.4 1.8 0 .6-.1 1.2-.4 1.8-.2.6-.6 1-1 1.5-.4.4-.9.7-1.5 1-.6.2-1.2.4-1.8.4s-1.2-.1-1.8-.4-1-.6-1.5-1c-.4-.4-.7-.9-1-1.5-.3-.5-.4-1.1-.4-1.8zm1.6 0c0 .4.1.8.2 1.1.2.4.4.7.6.9.3.3.6.5.9.6.4.2.7.2 1.1.2.4 0 .8-.1 1.1-.2s.7-.4.9-.6c.3-.3.5-.6.6-.9.2-.4.2-.7.2-1.1 0-.4-.1-.8-.2-1.1-.2-.4-.4-.7-.6-.9-.3-.3-.6-.5-.9-.6s-.7-.2-1.1-.2c-.4 0-.8.1-1.1.2-.4.2-.7.4-.9.6-.3.3-.5.6-.6.9-.1.3-.2.7-.2 1.1zm10.8-4.4l.1.2.1.2v.7c.1-.2.2-.4.4-.5.2-.2.4-.3.6-.4.2-.1.5-.2.7-.2.3-.1.5-.1.8-.1.5 0 1 .1 1.4.3.4.2.8.4 1.1.8.3.3.5.8.7 1.2.2.5.2 1.1.2 1.7v5.1h-1.7v-5.1c0-.7-.1-1.3-.4-1.7-.3-.4-.7-.6-1.3-.6-.3 0-.7 0-1 .1-.3.1-.6.2-.8.3-.2.1-.4.3-.6.5-.1.2-.2.4-.2.6v6h-1.7v-8.9h1.6zm8.3 7c.1-.1.2-.1.3-.1.1 0 .2-.1.3-.1.1 0 .3 0 .4.1s.3.2.5.3c.1.1.3.2.4.2.2 0 .3.1.5.1s.4 0 .5-.1c.2-.1.3-.1.5-.2.1-.1.2-.2.3-.4.1-.2.1-.3.1-.5s0-.3-.1-.4c0-.1-.1-.2-.3-.3-.1-.1-.3-.2-.5-.3-.2-.1-.5-.2-.8-.3-.3-.1-.6-.2-.9-.4-.3-.1-.6-.3-.8-.5-.2-.2-.4-.4-.6-.7-.1-.3-.2-.6-.2-1 0-.3.1-.7.2-1 .2-.3.4-.6.6-.8.3-.2.6-.4.9-.5.3-.1.7-.2 1-.2.3 0 .7.1.9.2.3.1.5.3.7.4.2.2.4.3.5.5.1.1.2.2.2.3l-.4.3c-.2.2-.5.3-.8.3-.1 0-.2 0-.4-.1-.1 0-.3-.1-.4-.2-.1-.1-.2-.1-.4-.1s-.4 0-.5.1c-.1.1-.3.1-.3.2-.1.1-.1.2-.2.3 0 .1-.1.2-.1.2 0 .2 0 .3.1.4l.3.3c.1.1.3.2.5.2.2.1.3.1.5.2.3.1.7.2 1 .4.3.1.6.3.8.5.2.2.4.5.6.8.1.3.2.7.2 1.1 0 .4-.1.7-.2 1.1l-.6.9c-.3.3-.6.5-1 .6-.4.2-.8.2-1.2.2-.3 0-.6 0-.9-.1-.3-.1-.6-.2-.8-.4-.3-.2-.5-.3-.7-.6-.2-.2-.4-.5-.5-.8l.8-.1zm7.3-9.3c0-.2 0-.3.1-.4s.1-.3.2-.4c.1-.1.2-.2.4-.2.1-.1.3-.1.4-.1.2 0 .3 0 .4.1.1.1.3.1.4.2.1.1.2.2.2.4s.1.3.1.4c0 .2 0 .3-.1.4-.1.1-.1.3-.2.4-.1.1-.2.2-.4.2-.1.1-.3.1-.4.1-.2 0-.3 0-.4-.1-.1-.1-.3-.1-.4-.2-.1-.1-.2-.2-.2-.4 0-.1-.1-.2-.1-.4zm2 2.3v8.9h-1.7v-8.9h1.7zm1.1 0h1c.3 0 .5.1.7.2s.4.3.5.6l2.4 5.5c0 .1.1.2.1.4 0 .1 0 .3.1.4 0-.3.1-.5.2-.8l2.4-5.5c.1-.2.3-.4.5-.6.2-.1.5-.2.7-.2h1l-3.9 8.9h-1.6l-4.1-8.9zm18.6 3.7c0 .2 0 .4-.1.5-.1.2-.2.3-.3.4-.1.1-.2.2-.4.3-.1.1-.3.1-.4.1h-6.2c.1.3.2.7.3 1 .2.3.4.6.7.8.3.2.6.4.9.5.3.1.7.2 1 .2.3 0 .5 0 .8-.1.2-.1.5-.2.7-.3.1-.1.2-.1.3-.1h.4c.2 0 .3 0 .5.1.1.1.3.2.4.3l.3.3c-.4.5-.9.8-1.5 1.1-.6.3-1.2.4-1.9.4-.6 0-1.2-.1-1.8-.4s-1-.6-1.5-1c-.4-.4-.7-.9-1-1.5-.2-.6-.4-1.2-.4-1.8 0-.6.1-1.2.4-1.8.2-.6.6-1 1-1.5.4-.4.9-.7 1.5-1 .6-.2 1.2-.4 1.8-.4.5 0 1 .1 1.5.3.5.2.9.4 1.3.7.4.3.7.7 1 1.1s.5.9.6 1.4v.2l.1.2zm-6.8-.4h5c-.1-.3-.3-.5-.4-.7l-.6-.6c-.2-.2-.5-.3-.8-.4-.3-.1-.6-.1-.9-.1-.3 0-.7.1-1 .2-.3.1-.6.3-.8.4-.2.2-.5.4-.6.7-.2.3-.3.5-.4.8 0-.1.1-.1.2-.2s.2-.1.3-.1zm-62.7 26V64h4.6c.6 0 1.1.1 1.6.2s1 .4 1.5.6c.5.3.9.6 1.2 1 .4.4.7.8 1 1.2.3.5.5.9.6 1.5.1.5.2 1.1.2 1.6 0 .6-.1 1.1-.2 1.6s-.4 1-.6 1.5c-.3.5-.6.9-1 1.2-.4.4-.8.7-1.2 1-.5.3-.9.5-1.5.6-.5.1-1.1.2-1.6.2h-4.6zm4.6-1.7c.6 0 1.2-.1 1.7-.3.5-.2 1-.5 1.4-.9.4-.4.7-.9.9-1.4.2-.5.3-1.1.3-1.7s-.1-1.2-.3-1.7c-.2-.5-.5-1-.9-1.4-.4-.4-.9-.7-1.4-.9-.5-.2-1.1-.3-1.7-.3h-2.9v8.8h2.9zm16.5-3.5c0 .2 0 .4-.1.5-.1.2-.2.3-.3.4-.1.1-.2.2-.4.3-.1.1-.3.1-.4.1h-6.2c.1.3.2.7.3 1 .2.3.4.6.7.8s.6.4.9.5c.3.1.7.2 1 .2.3 0 .5 0 .8-.1s.5-.2.7-.3c.1-.1.2-.1.3-.1h.4c.2 0 .3 0 .5.1.1.1.3.2.4.3l.3.3c-.4.5-.9.8-1.5 1.1-.6.3-1.2.4-1.9.4-.6 0-1.2-.1-1.8-.4-.6-.2-1-.6-1.5-1-.4-.4-.7-.9-1-1.5-.2-.6-.4-1.2-.4-1.8 0-.6.1-1.2.4-1.8.2-.6.6-1 1-1.5.4-.4.9-.7 1.5-1 .6-.2 1.2-.4 1.8-.4.5 0 1 .1 1.5.3.5.2.9.4 1.3.7s.7.7 1 1.1c.3.4.5.9.6 1.4v.2l.1.2zm-6.7-.4h5c-.1-.3-.3-.5-.4-.7l-.6-.6c-.2-.2-.5-.3-.8-.4-.3-.1-.6-.1-.9-.1-.3 0-.7.1-1 .2-.3.1-.6.3-.8.4-.2.2-.5.4-.6.7-.2.3-.3.5-.4.8 0-.1.1-.1.2-.2 0-.1.1-.1.3-.1zm8.3 3.7c.1-.1.2-.1.3-.1.1 0 .2-.1.3-.1.1 0 .3 0 .4.1s.3.2.5.3c.1.1.3.2.4.2.2 0 .3.1.5.1s.4 0 .5-.1c.2-.1.3-.1.5-.2.1-.1.2-.2.3-.4.1-.2.1-.3.1-.5s0-.3-.1-.4c0-.1-.1-.2-.3-.3s-.3-.2-.5-.3c-.2-.1-.5-.2-.8-.3-.3-.1-.6-.2-.9-.4-.3-.1-.6-.3-.8-.5-.2-.2-.4-.4-.6-.7-.1-.3-.2-.6-.2-1 0-.3.1-.7.2-1 .2-.3.4-.6.6-.8.3-.2.6-.4.9-.5s.7-.2 1-.2c.3 0 .7.1.9.2s.5.3.7.4c.2.2.4.3.5.5.1.1.2.2.2.3l-.4.3c-.2.2-.5.3-.8.3-.1 0-.2 0-.4-.1-.1 0-.3-.1-.4-.2-.1-.1-.2-.1-.4-.1s-.4 0-.5.1c-.1.1-.3.1-.3.2-.1.1-.1.2-.2.3 0 .1-.1.2-.1.2 0 .2 0 .3.1.4l.3.3c.1.1.3.2.5.2.2.1.3.1.5.2.3.1.7.2 1 .4.3.1.6.3.8.5.2.2.4.5.6.8.1.3.2.7.2 1.1 0 .4-.1.8-.2 1.1l-.6.9c-.2.3-.6.5-1 .6-.4.2-.8.2-1.2.2-.3 0-.6 0-.9-.1-.3-.1-.6-.2-.8-.4-.3-.2-.5-.3-.7-.6-.2-.2-.4-.5-.5-.8l.8-.1zm7.4-9.3c0-.2 0-.3.1-.4.1-.1.1-.3.2-.4s.2-.2.4-.2c.1-.1.3-.1.4-.1.2 0 .3 0 .4.1.1.1.3.1.4.2s.2.2.2.4c.1.1.1.3.1.4 0 .2 0 .3-.1.4s-.1.3-.2.4c-.1.1-.2.2-.4.2-.1.1-.3.1-.4.1-.2 0-.3 0-.4-.1-.1-.1-.3-.1-.4-.2-.1-.1-.2-.2-.2-.4s-.1-.2-.1-.4zm2 2.3v8.9h-1.7v-8.9h1.7zm9.9 1.1c-.1.2-.2.4-.4.5-.2.1-.5.2-.8.2.1.2.2.4.2.7.1.2.1.5.1.7 0 .5-.1.9-.3 1.3-.2.4-.4.8-.7 1.1-.3.3-.7.5-1.1.7-.4.2-.8.3-1.3.3s-1-.1-1.5-.3c-.2.1-.3.3-.4.3l-.1.2v.1c0 .1.1.1.3.1.1 0 .3.1.5.1h1.2c.4 0 .8 0 1.2.1.4 0 .8.1 1.1.2.5.2.8.4 1.1.8.2.3.4.7.4 1.2 0 .4-.1.7-.2 1-.1.3-.3.5-.6.8-.3.2-.6.4-1 .5-.4.1-.8.2-1.3.2-.4 0-.8 0-1.2-.1-.4-.1-.8-.1-1.1-.2-.4-.1-.7-.2-1-.3s-.6-.2-.9-.4l.2-.6c.1-.2.2-.4.4-.5.2-.1.4-.2.7-.2.1 0 .3 0 .4.1.1 0 .3.1.4.1.1 0 .1.1.3.1.1 0 .3.1.5.1.2.1.4.1.6.1.2 0 .5.1.8.1h.5c.2 0 .3-.1.5-.1.2-.1.3-.1.4-.3.1-.1.2-.2.2-.4 0-.1 0-.2-.1-.3 0-.1-.1-.1-.3-.2-.2-.1-.5-.1-.8-.2-.3 0-.6 0-.9-.1h-1c-.3 0-.6-.1-.9-.1-.3-.1-.6-.2-.8-.3-.2-.1-.4-.3-.6-.6-.1-.2-.2-.4-.2-.6 0-.2.1-.5.3-.8.2-.3.5-.5.9-.7-.3-.3-.6-.7-.8-1.1-.2-.4-.3-.9-.3-1.4 0-.5.1-.9.3-1.3.2-.4.4-.8.7-1.1.3-.3.7-.5 1.1-.7.4-.2.8-.3 1.3-.3.4 0 .7.1 1 .2s.6.3.9.5c.1-.1.3-.1.4-.2.2-.1.4-.1.7-.1.2 0 .4 0 .6.1.2 0 .5.1.8.2l-.4.8zm-6 2.1c0 .2 0 .5.1.7.1.2.2.4.4.5.2.2.3.3.5.4.2.1.4.1.7.1.2 0 .5 0 .7-.1.2-.1.4-.2.5-.4.2-.2.3-.3.4-.5.1-.2.1-.4.1-.7 0-.2 0-.5-.1-.7-.1-.2-.2-.4-.4-.5-.2-.2-.3-.3-.5-.4-.2-.1-.4-.1-.7-.1-.2 0-.5 0-.7.1-.2.1-.4.2-.5.4-.2.2-.3.3-.4.5-.1.2-.1.4-.1.7zm9-3.2l.1.2.1.2v.7c.1-.2.2-.4.4-.5.2-.2.4-.3.6-.4.2-.1.5-.2.7-.2.3-.1.5-.1.8-.1.5 0 1 .1 1.4.3.4.2.8.4 1.1.8s.5.8.7 1.3c.2.5.2 1.1.2 1.7v5.1h-1.7v-5.1c0-.7-.1-1.3-.4-1.7-.3-.4-.7-.6-1.3-.6-.3 0-.7 0-1 .1-.3.1-.6.2-.8.3-.2.1-.4.3-.6.5-.1.2-.2.4-.2.6v6h-1.7v-8.9h1.6zm143.3-17.4h1.8v11c0 .6-.1 1.1-.3 1.6-.2.5-.5.9-.9 1.3s-.8.7-1.3.9-1 .3-1.6.3c-.6 0-1.1-.1-1.6-.3-.5-.2-.9-.5-1.3-.9l.5-.5c.3-.3.6-.4 1-.4.1 0 .2 0 .3.1s.2.1.3.1c.1 0 .2.1.3.1h.4c.3 0 .6-.1.9-.2.3-.1.5-.3.8-.5.2-.2.4-.5.5-.7.1-.3.2-.6.2-.9v-11zm5 4.8l.2-.3.3-.3c.1-.1.2-.2.4-.3.4-.2.7-.4 1.2-.5s.9-.2 1.4-.2c.5 0 1 .1 1.4.2.4.1.7.3 1 .5s.5.5.7.8c.2.3.3.6.4 1 .1.4.2.7.2 1.1 0 .4.1.8.1 1.2v4.7H923c-.1-.1-.1-.2-.2-.3-.1-.1-.1-.3-.1-.4v-.2c-.2.2-.4.3-.6.5-.2.1-.5.3-.7.4-.3.1-.5.2-.8.2s-.5.1-.7.1c-.5 0-.9-.1-1.3-.2s-.7-.3-1-.6c-.3-.2-.5-.5-.6-.9-.2-.4-.2-.7-.2-1.2s.1-.9.3-1.3c.2-.4.4-.7.8-1 .4-.3.8-.5 1.4-.6s1.2-.2 1.9-.2h1.7c0-.4-.1-.8-.2-1.1-.1-.3-.3-.5-.4-.7-.2-.2-.4-.3-.6-.3-.2-.1-.5-.1-.7-.1-.3 0-.5 0-.7.1-.2.1-.3.1-.4.2s-.3.1-.4.2c-.1.1-.3.1-.5.1s-.3 0-.5-.1c-.1-.1-.3-.1-.4-.2l-.7-.3zm2.5 6.5c.2 0 .4 0 .7-.1.2 0 .5-.1.7-.2s.5-.2.7-.3c.2-.1.5-.2.7-.4v-1.6H921c-.4 0-.7 0-1 .1-.3 0-.6.1-.8.2-.2.1-.4.2-.6.4-.1.2-.2.4-.2.6 0 .2 0 .4.1.5.1.1.2.3.3.4.1.1.3.2.5.2.2.2.4.2.6.2zm5.1-7.9h1c.3 0 .5.1.8.2.2.1.4.4.5.6l2.5 5.8c0 .1.1.2.1.4 0 .1 0 .3.1.4 0-.3.1-.6.2-.8l2.5-5.8c.1-.3.3-.5.5-.6s.5-.2.8-.2h1l-4.1 9.5h-1.7l-4.2-9.5zm11.2 1.4l.2-.3.3-.3c.1-.1.2-.2.4-.3.4-.2.7-.4 1.2-.5s.9-.2 1.4-.2c.5 0 1 .1 1.4.2.4.1.7.3 1 .5s.5.5.7.8c.2.3.3.6.4 1 .1.4.2.7.2 1.1 0 .4.1.8.1 1.2v4.7H942c-.1-.1-.1-.2-.2-.3-.1-.1-.1-.3-.1-.4v-.2c-.2.2-.4.3-.6.5-.2.1-.5.3-.7.4-.3.1-.5.2-.8.2s-.5.1-.7.1c-.5 0-.9-.1-1.3-.2s-.7-.3-1-.6c-.3-.2-.5-.5-.6-.9-.2-.4-.2-.7-.2-1.2s.1-.9.3-1.3c.2-.4.4-.7.8-1 .4-.3.8-.5 1.4-.6s1.2-.2 1.9-.2h1.7c0-.4-.1-.8-.2-1.1-.1-.3-.3-.5-.4-.7-.2-.2-.4-.3-.6-.3-.2-.1-.5-.1-.7-.1-.3 0-.5 0-.7.1-.2.1-.3.1-.4.2s-.3.1-.4.2c-.1.1-.3.1-.5.1s-.3 0-.5-.1c-.1-.1-.3-.1-.4-.2l-.9-.3zm2.5 6.5c.2 0 .4 0 .7-.1.2 0 .5-.1.7-.2s.5-.2.7-.3c.2-.1.5-.2.7-.4v-1.6h-1.7c-.4 0-.7 0-1 .1-.3 0-.6.1-.8.2-.2.1-.4.2-.6.4-.1.2-.2.4-.2.6 0 .2 0 .4.1.5.1.1.2.3.3.4.1.1.3.2.5.2.3.2.4.2.6.2zm12-9.2c-.2-.2-.5-.3-.7-.4-.2-.1-.5-.1-.7-.1-.3 0-.5 0-.8.1-.2.1-.5.2-.7.3-.2.1-.3.3-.4.5-.1.2-.2.4-.2.6 0 .3 0 .5.1.7.1.2.2.3.4.5s.4.3.7.4.7.3 1.1.4c.2.1.4.2.6.2.2.1.4.2.6.2l.6.3c.2.1.4.2.6.4.9.7 1.4 1.6 1.4 2.8 0 .6-.1 1.1-.4 1.6-.2.5-.6.9-1 1.3s-.9.6-1.4.8-1.1.3-1.7.3c-1.2 0-2.1-.3-2.9-1-.2-.1-.3-.3-.4-.4-.1-.1-.2-.3-.3-.4s-.2-.3-.2-.4c-.1-.1-.1-.2-.1-.3l.4-.2c.2-.1.5-.2.7-.2.4 0 .7.1 1 .4l.1.1c.2.2.5.3.8.4.3.1.6.2 1 .2.3 0 .6 0 .9-.1.3-.1.6-.2.9-.4.3-.2.5-.4.6-.7.2-.3.2-.6.2-.9 0-.3-.1-.6-.2-.9l-.6-.6c-.2-.2-.5-.3-.8-.4-.3-.1-.6-.2-.9-.4-.4-.2-.9-.4-1.3-.5-.4-.2-.8-.4-1.1-.7s-.6-.6-.8-1c-.2-.4-.3-.9-.3-1.4 0-.5.1-1 .3-1.4.2-.4.5-.8.9-1 .4-.3.8-.5 1.2-.7.5-.1.9-.2 1.4-.2.4 0 .7.1 1.1.2.3.1.7.3 1 .5.3.2.6.4.8.6.2.2.5.4.6.6l-.5.3c-.3.2-.5.3-.9.3-.2 0-.5-.1-.7-.3zm8.8 2.9c-.4 0-.8.1-1.2.2s-.7.4-1 .7c-.3.3-.5.6-.7 1s-.2.8-.2 1.2c0 .4.1.8.2 1.2s.4.7.7 1c.3.3.6.5 1 .7s.8.2 1.2.2c.3 0 .5 0 .8-.1.3-.1.5-.2.7-.3.2-.1.5-.2.7-.2.2 0 .4 0 .5.1.2.1.3.2.4.3l.3.3c-.5.5-1 .9-1.6 1.1s-1.3.4-2 .4-1.3-.1-1.9-.4c-.6-.3-1.1-.6-1.5-1-.4-.4-.8-1-1-1.5s-.4-1.2-.4-1.9.1-1.3.4-1.9.6-1.1 1-1.5c.4-.4 1-.8 1.5-1 .6-.3 1.2-.4 1.9-.4s1.4.1 2 .4 1.1.7 1.6 1.1l-.3.3c-.1.1-.3.3-.5.3-.2.1-.3.1-.6.1-.2 0-.5-.1-.7-.2-.2-.1-.5-.2-.7-.3 0 .1-.3.1-.6.1zm6.6-1.6l.1.2c0 .1.1.1.1.2v1c.1-.2.3-.4.4-.6.2-.2.4-.3.6-.5.2-.1.5-.3.8-.3.3-.1.6-.1.9-.1.5 0 .9.1 1.4.3l-.1.8c0 .3-.2.4-.3.6-.2.1-.4.2-.6.2h-.4c-.4 0-.7.1-1 .2-.3.1-.6.2-.8.4l-.6.6c-.2.2-.2.4-.3.6v6h-1.8v-9.5h1.6zm5.3-2.4c0-.2 0-.3.1-.5.1-.1.1-.3.3-.4.1-.1.2-.2.4-.3.1-.1.3-.1.5-.1s.3 0 .5.1c.1.1.3.1.4.3.1.1.2.2.3.4.1.1.1.3.1.5s0 .3-.1.5c-.1.1-.2.3-.3.4-.1.1-.2.2-.4.3-.1.1-.3.1-.5.1s-.3 0-.5-.1c-.1-.1-.3-.1-.4-.3-.1-.1-.2-.2-.3-.4 0-.2-.1-.3-.1-.5zm2.1 2.4v9.5h-1.8v-9.5h1.8zm4.4 0l.1.2c0 .1.1.1.1.2v.7c0-.2.1-.3.2-.4.1-.1.2-.2.4-.3.1-.1.3-.2.5-.2.2-.1.4-.1.5-.2.2 0 .3-.1.5-.1h.4c.7 0 1.3.1 1.9.4.6.3 1.1.6 1.5 1 .4.4.7 1 1 1.5.2.6.4 1.2.4 1.9s-.1 1.3-.4 1.9c-.2.6-.6 1.1-1 1.5-.4.4-.9.8-1.5 1s-1.2.4-1.9.4h-.6c-.2 0-.4-.1-.6-.2l-.6-.3c-.2-.1-.4-.3-.6-.5v3.9h-1.8V53.3h1.5zm2.7 7.8c.4 0 .8-.1 1.2-.2s.7-.4.9-.7c.3-.3.5-.6.6-1s.2-.8.2-1.2c0-.4-.1-.8-.2-1.2s-.3-.7-.6-1c-.3-.3-.6-.5-.9-.7s-.8-.2-1.2-.2c-.5 0-.9.1-1.3.3-.4.2-.8.4-1.1.8v4.2c.3.3.7.6 1.1.8.4.1.9.1 1.3.1zm8.7-.7v.3c0 .1.1.2.1.3l.2.2c.1.1.2.1.3.1h.2c.3-.1.5-.1.7-.1.2 0 .5.1.6.2.2.1.3.3.5.5l.2.3c-.1.1-.3.2-.4.3l-.6.3c-.2.1-.4.1-.6.2s-.4.1-.6.1c-.4 0-.7-.1-1-.2-.3-.1-.6-.3-.8-.5-.2-.2-.4-.5-.5-.8-.1-.3-.2-.6-.2-1V55H986v-1c0-.5.5-.7 1.4-.7h.2v-1.9c0-.2 0-.4.1-.5 0-.2.1-.3.1-.4.1-.1.1-.3.2-.4h1.4v3.3h2.6V55h-2.6v5.4zm131 3.5c0 .5-.1 1-.2 1.5-.2.5-.4.9-.6 1.3-.3.4-.6.7-.9 1-.4.3-.7.5-1.2.7l-.3-.7c0-.1-.1-.2-.1-.3v-.3c0-.2 0-.4.1-.6s.2-.3.3-.5c.1-.1.2-.3.4-.5.1-.2.2-.3.3-.5.1-.3.2-.7.2-1V53.2h2.1v10.7zm-2.4-13.5c0-.2 0-.4.1-.6.1-.2.2-.3.3-.5.1-.1.3-.2.5-.3.2-.1.4-.1.6-.1s.4 0 .6.1c.2.1.3.2.5.3.1.1.2.3.3.5.1.2.1.4.1.6 0 .2 0 .4-.1.6-.1.2-.2.3-.3.5-.1.1-.3.2-.5.3-.2.1-.4.1-.6.1s-.4 0-.6-.1c-.2-.1-.3-.2-.5-.3-.1-.1-.2-.3-.3-.5-.1-.2-.1-.4-.1-.6zm7.2 6.3c0 .8.1 1.5.4 2.2s.7 1.3 1.2 1.8 1.1.9 1.8 1.2c.7.3 1.4.4 2.2.4.3 0 .6 0 .9-.1.3 0 .6-.1.8-.2l1.3 1.7c-.5.2-.9.3-1.4.4s-1 .2-1.5.2c-1.1 0-2.1-.2-3-.6-.9-.4-1.7-1-2.4-1.6-.7-.7-1.2-1.5-1.6-2.4-.4-.9-.6-1.9-.6-3 0-.7.1-1.4.3-2 .2-.7.4-1.3.8-1.8.3-.6.7-1.1 1.2-1.6s1-.9 1.6-1.2c.6-.3 1.2-.6 1.8-.8.7-.2 1.3-.3 2-.3s1.4.1 2 .3c.7.2 1.3.4 1.8.8.6.3 1.1.7 1.6 1.2s.9 1 1.2 1.6c.3.6.6 1.2.8 1.8.2.7.3 1.3.3 2 0 1-.2 2-.6 2.9s-.9 1.7-1.6 2.4l4 5.4h-1.4c-.4 0-.8-.1-1.1-.2s-.6-.4-.8-.7l-3.6-4.9c.4-.2.8-.5 1.2-.9.4-.3.7-.7.9-1.2.3-.4.5-.9.6-1.4.1-.5.2-1 .2-1.5 0-.8-.1-1.5-.4-2.2s-.7-1.3-1.2-1.8-1.1-.9-1.8-1.2c-.7-.3-1.4-.4-2.2-.4-.8 0-1.5.1-2.2.4-.7.3-1.3.7-1.8 1.2s-.9 1.1-1.2 1.8-.5 1.5-.5 2.3zm23.2 7.5c-.1-.1-.1-.2-.2-.3s-.1-.2-.1-.3-.1-.2-.1-.4v-.5c-.1.3-.3.5-.5.7-.2.2-.5.3-.8.5l-.9.3c-.3.1-.7.1-1 .1-.6 0-1.2-.1-1.7-.3-.5-.2-.9-.6-1.3-1s-.6-.9-.8-1.5c-.2-.6-.3-1.3-.3-2v-6.3h2.1v6.3c0 .9.2 1.6.5 2.2.3.5.9.8 1.6.8.4 0 .8-.1 1.2-.2s.7-.2 1-.4c.3-.2.5-.4.7-.6.2-.2.3-.5.3-.7v-7.3h2.1v11h-1.8zm15.2-6.4c0 .2 0 .5-.1.7-.1.2-.2.4-.4.5-.1.1-.3.2-.5.3-.2.1-.3.1-.5.1h-7.7c.1.4.2.8.4 1.2s.5.7.8 1c.3.3.7.5 1.1.6.4.2.8.2 1.3.2.3 0 .6 0 .9-.1.3-.1.6-.2.8-.3.1-.1.3-.1.4-.2s.3-.1.4-.1c.2 0 .4 0 .6.1.2.1.4.2.5.4l.4.4c-.5.6-1.1 1-1.8 1.3s-1.5.5-2.3.5c-.8 0-1.5-.1-2.2-.4s-1.3-.7-1.8-1.2-.9-1.1-1.2-1.8c-.3-.7-.4-1.4-.4-2.2 0-.8.1-1.5.4-2.2.3-.7.7-1.3 1.2-1.8s1.1-.9 1.8-1.2c.7-.3 1.4-.4 2.2-.4.7 0 1.3.1 1.9.3.6.2 1.1.5 1.6.9s.9.8 1.2 1.3.6 1.1.8 1.7v.2l.2.2zm-8.3-.5h6.2c-.1-.3-.3-.6-.5-.9s-.5-.5-.8-.7c-.3-.2-.6-.4-1-.5-.4-.1-.7-.2-1.1-.2-.4 0-.8.1-1.2.2-.4.1-.7.3-1 .5-.3.2-.6.5-.8.8-.2.3-.4.7-.5 1 .1-.1.1-.2.3-.2.1.1.2 0 .4 0zm12.4-4.1c.1.1.1.2.2.3s.1.2.1.3c0 .1.1.2.1.4v.8c.1-.3.3-.5.5-.7.2-.2.5-.4.8-.6.3-.2.6-.3.9-.4.3-.1.7-.1 1-.1.6 0 1.1.1 1.6.3l-.2.9c-.1.3-.2.5-.4.7-.2.2-.4.2-.7.2h-.4c-.4 0-.8.1-1.2.2s-.7.3-1 .5c-.3.2-.5.4-.7.7-.2.2-.3.5-.3.8v7h-2.1v-11h1.8zm5.2 0h1.2c.2 0 .3 0 .5.1s.3.1.4.2c.1.1.3.2.4.3s.2.3.2.4l2.4 5.6c.2.5.3.9.3 1.3v.3l-.1.3c.1-.2.4-.9.9-2.1.5-1.2 1.2-2.8 2.1-4.8l.2-.6c.1-.3.3-.5.6-.7.3-.2.6-.3.9-.3h1.2l-6.1 14.1c-.1.3-.3.6-.6.7-.3.2-.6.3-.9.3h-1.2l2.1-4.7-4.5-10.4zM131.7 66.6h-2.4v-7.5h-9.2v7.5h-2.4V49.4h2.4v7.4h9.2v-7.4h2.4zm2.5-14.8v-2.4h13v2.4h-5.3v14.8h-2.4V51.8zm34 14.8h-2.4V52.9v.2c0 .1 0 .2-.1.3 0 .1 0 .2-.1.3 0 .1-.1.2-.1.3L160 66.6h-2.3L152.2 54l-.1-.2c0-.1 0-.2-.1-.3V53v13.5h-2.4V49.4h2c.4 0 .7.1 1 .3.3.2.5.5.7.8l5.4 12.3c.1.2.1.3.2.5 0 .2.1.4.1.6 0-.4.1-.8.2-1.1l5.4-12.3c.2-.3.4-.6.7-.8.3-.2.6-.3 1-.3h2v17.2zm4.2 0V49.4h2.4v14.8h7.4v2.4zm159.3-8.7c0 .9.2 1.7.5 2.5s.8 1.5 1.4 2 1.3 1 2 1.4c.8.3 1.6.5 2.5.5.7 0 1.3-.1 1.9-.3.6-.2 1.2-.5 1.7-.8.3-.2.6-.3 1-.3.3 0 .5 0 .8.1s.4.2.6.4l.4.4c-.4.4-.8.8-1.3 1.2l-1.5.9c-.5.2-1.1.4-1.7.6-.6.1-1.2.2-1.8.2-1.2 0-2.4-.2-3.4-.7-1.1-.5-2-1.1-2.8-1.9-.8-.8-1.4-1.7-1.9-2.8-.5-1.1-.7-2.2-.7-3.4 0-.8.1-1.6.3-2.3s.5-1.4.9-2.1c.4-.7.8-1.2 1.4-1.8.5-.5 1.1-1 1.8-1.4.7-.4 1.4-.7 2.1-.9.7-.2 1.5-.3 2.3-.3.6 0 1.2.1 1.8.2.6.1 1.2.3 1.7.6.5.2 1.1.5 1.5.9.5.3.9.7 1.3 1.2l-.4.4c-.2.2-.4.3-.6.4s-.5.1-.7.1c-.4 0-.7-.1-1-.3-.5-.4-1.1-.6-1.7-.8-.6-.2-1.3-.3-1.9-.3-.9 0-1.7.2-2.5.5s-1.5.8-2 1.4-1 1.3-1.4 2c-.4.8-.6 1.6-.6 2.5zm22.2-5.7c-.3-.2-.6-.4-.9-.5-.3-.1-.6-.2-.9-.2-.4 0-.7.1-1.1.2-.3.1-.6.2-.9.4s-.5.4-.6.7c-.1.3-.2.5-.2.8 0 .3.1.6.2.9.1.2.3.5.5.6.2.2.6.4 1 .5.4.2.9.3 1.4.5.3.1.6.2.8.3s.6.2.8.3c.3.1.5.2.8.4s.5.3.8.5c1.2.9 1.8 2.2 1.8 3.7 0 .8-.2 1.5-.5 2.1-.3.6-.8 1.2-1.3 1.7s-1.2.8-1.9 1.1c-.7.3-1.5.4-2.2.4-1.5 0-2.8-.5-3.9-1.4l-.6-.6c-.2-.2-.3-.4-.4-.5-.1-.2-.2-.3-.3-.5-.1-.1-.1-.3-.2-.4l.6-.3c.3-.2.6-.3.9-.3.5 0 1 .2 1.3.6l.2.2c.3.3.6.5 1 .6.4.1.8.2 1.3.2.4 0 .8-.1 1.2-.2.4-.1.8-.3 1.1-.6.3-.2.6-.5.8-.9.2-.4.3-.8.3-1.3s-.1-.8-.3-1.2c-.2-.3-.5-.6-.8-.8-.3-.2-.7-.4-1.1-.6-.4-.2-.8-.3-1.2-.5-.6-.2-1.2-.5-1.7-.7s-1.1-.5-1.5-.9c-.4-.4-.8-.8-1.1-1.3-.3-.5-.4-1.2-.4-1.9s.1-1.3.4-1.9c.3-.6.7-1 1.2-1.4.5-.4 1-.7 1.6-.9.6-.2 1.2-.3 1.9-.3.5 0 .9.1 1.4.2.5.2.9.4 1.3.6.4.2.8.5 1.1.8l.8.8-.6.5c-.3.3-.7.4-1.2.4 0 .4-.4.3-.7.1zm12.8 0c-.3-.2-.6-.4-.9-.5-.3-.1-.6-.2-.9-.2-.4 0-.7.1-1.1.2-.3.1-.6.2-.9.4s-.5.4-.6.7c-.1.3-.2.5-.2.8 0 .3.1.6.2.9.1.2.3.5.5.6.2.2.6.4 1 .5.4.2.9.3 1.4.5.3.1.6.2.8.3s.6.2.8.3c.3.1.5.2.8.4s.5.3.8.5c1.2.9 1.8 2.2 1.8 3.7 0 .8-.2 1.5-.5 2.1-.3.6-.8 1.2-1.3 1.7s-1.2.8-1.9 1.1c-.7.3-1.5.4-2.2.4-1.5 0-2.8-.5-3.9-1.4l-.6-.6c-.2-.2-.3-.4-.4-.5-.1-.2-.2-.3-.3-.5-.1-.1-.1-.3-.2-.4l.6-.3c.3-.2.6-.3.9-.3.5 0 1 .2 1.3.6l.2.2c.3.3.6.5 1 .6.4.1.8.2 1.3.2.4 0 .8-.1 1.2-.2.4-.1.8-.3 1.1-.6.3-.2.6-.5.8-.9.2-.4.3-.8.3-1.3s-.1-.8-.3-1.2c-.2-.3-.5-.6-.8-.8-.3-.2-.7-.4-1.1-.6-.4-.2-.8-.3-1.2-.5-.6-.2-1.2-.5-1.7-.7s-1.1-.5-1.5-.9c-.4-.4-.8-.8-1.1-1.3-.3-.5-.4-1.2-.4-1.9s.1-1.3.4-1.9c.3-.6.7-1 1.2-1.4.5-.4 1-.7 1.6-.9.6-.2 1.2-.3 1.9-.3.5 0 .9.1 1.4.2.5.2.9.4 1.3.6.4.2.8.5 1.1.8l.8.8-.6.5c-.3.3-.7.4-1.2.4-.1.4-.4.3-.7.1zm941.8-1.1h1.9v13.6h-1.9zm5.5 1.7h1.9v11.9h-1.9zm5 0h1.9v11.9h-1.9zm11.6 11.9l-.1-.2c0-.1-.1-.2-.1-.3v-.7c-.1.2-.3.4-.5.6-.2.2-.4.3-.7.4-.3.1-.5.2-.8.3-.3.1-.6.1-.9.1-.6 0-1.1-.1-1.5-.3-.5-.2-.9-.5-1.2-.9-.3-.4-.6-.9-.8-1.4-.2-.5-.3-1.2-.3-1.8v-5.7h1.9v5.7c0 .8.2 1.5.5 2s.8.7 1.4.7c.4 0 .7 0 1.1-.1.3-.1.6-.2.9-.4.3-.2.5-.3.6-.6.2-.2.2-.4.3-.7v-6.6h1.9v10h-1.7zm4.1-2.1c.1-.1.3-.1.4-.2.1 0 .2-.1.4-.1s.3 0 .5.1c.1.1.3.2.5.3.1.1.3.2.5.2s.3.1.5.1.4 0 .6-.1c.2-.1.4-.1.5-.3.2-.1.3-.3.4-.4.1-.2.1-.4.1-.6 0-.2 0-.3-.1-.5-.1-.1-.1-.2-.3-.3-.1-.1-.3-.2-.5-.3-.2-.1-.5-.2-.8-.3-.3-.1-.7-.3-1-.4-.3-.2-.6-.3-.9-.6-.3-.2-.5-.5-.6-.8-.2-.3-.2-.7-.2-1.1 0-.4.1-.7.3-1.1.2-.3.4-.6.7-.9s.6-.4 1-.6c.4-.1.7-.2 1.1-.2.4 0 .7.1 1.1.2.3.1.6.3.8.5s.4.3.6.5c.1.2.2.3.3.3l-.4.4c-.3.2-.6.3-.9.3-.1 0-.3 0-.4-.1s-.3-.1-.5-.2c-.1-.1-.3-.1-.4-.1-.2 0-.5 0-.6.1-.2.1-.3.2-.4.3-.1.1-.2.2-.2.3 0 .1-.1.2-.1.3 0 .2 0 .3.1.5.1.1.2.2.4.3.2.1.3.2.5.2.2.1.4.1.6.2.4.1.7.3 1.1.4.4.2.7.4.9.6s.5.5.7.9c.2.3.2.7.2 1.2 0 .4-.1.8-.3 1.2-.2.4-.4.7-.7 1-.3.3-.7.5-1.1.7-.4.2-.9.3-1.4.3-.3 0-.7 0-1-.1s-.6-.2-.9-.4-.5-.4-.8-.6c-.2-.2-.4-.5-.6-.8l.3-.3zm10.8-.4v.3c0 .1.1.2.1.3l.2.2c.1.1.2.1.3.1h.2c.3-.1.5-.1.7-.1.3 0 .5.1.7.2.2.1.4.3.5.5l.2.3c-.1.1-.3.2-.5.3l-.6.3c-.2.1-.4.1-.7.2s-.4.1-.6.1c-.4 0-.8-.1-1.1-.2-.3-.1-.6-.3-.8-.6-.2-.2-.4-.5-.5-.8-.1-.3-.2-.7-.2-1.1v-5.7h-1.7v-1c0-.5.5-.8 1.5-.8h.2v-2.1c0-.2 0-.4.1-.6 0-.2.1-.3.2-.5s.1-.3.2-.4h1.4v3.5h2.8v1.8h-2.8v5.8zm6.4-7.4l.1.2c0 .1.1.2.1.3v1c.1-.2.3-.4.5-.6.2-.2.4-.4.7-.5.3-.1.5-.3.8-.4.3-.1.6-.1.9-.1.5 0 1 .1 1.5.3l-.1.8c-.1.3-.2.5-.3.6-.2.1-.4.2-.7.2h-.4c-.4 0-.7.1-1.1.2-.3.1-.6.3-.9.4s-.5.4-.6.6c-.2.2-.2.5-.3.7v6.3h-1.9v-10h1.7zm5.6 1.4c.1-.1.1-.2.2-.3l.3-.3c.1-.1.2-.2.4-.3l1.2-.6c.4-.1.9-.2 1.5-.2.5 0 1 .1 1.4.2.4.1.8.3 1 .6.3.2.5.5.7.8.2.3.3.7.4 1.1.1.4.2.8.2 1.2 0 .4.1.8.1 1.3v5h-1.5c-.1-.1-.2-.2-.2-.4s-.1-.3-.1-.4v-.3c-.2.2-.4.3-.6.5-.3.1-.5.3-.8.4s-.5.2-.8.2-.5.1-.7.1c-.5 0-1-.1-1.4-.2s-.8-.3-1.1-.6c-.3-.3-.5-.6-.7-1-.2-.4-.2-.8-.2-1.2 0-.5.1-.9.3-1.3.2-.4.5-.7.8-1s.9-.5 1.4-.7 1.2-.2 2-.2h1.7c0-.5-.1-.9-.2-1.2-.1-.3-.3-.5-.5-.7-.2-.2-.4-.3-.6-.4s-.5-.1-.7-.1c-.3 0-.6 0-.7.1-.2.1-.3.1-.5.2-.1.1-.3.1-.4.2s-.3.1-.5.1-.3 0-.5-.1c-.1-.1-.3-.1-.4-.2l-.5-.3zm2.7 6.9c.2 0 .5 0 .7-.1.3 0 .5-.1.8-.2s.5-.2.8-.3c.3-.1.5-.2.7-.4v-1.7h-1.7c-.4 0-.8 0-1.1.1-.3.1-.6.1-.9.2-.3.1-.4.3-.6.4-.1.2-.2.4-.2.7 0 .2 0 .4.1.6s.2.3.3.4c.1.1.3.2.5.2.2.1.4.1.6.1zm9.8-.9v.3c0 .1.1.2.1.3l.2.2c.1.1.2.1.3.1h.2c.3-.1.5-.1.7-.1.3 0 .5.1.7.2.2.1.4.3.5.5l.2.3c-.1.1-.3.2-.5.3l-.6.3c-.2.1-.4.1-.7.2s-.4.1-.6.1c-.4 0-.8-.1-1.1-.2-.3-.1-.6-.3-.8-.6-.2-.2-.4-.5-.5-.8-.1-.3-.2-.7-.2-1.1v-5.7h-1.7v-1c0-.5.5-.8 1.5-.8h.2v-2.1c0-.2 0-.4.1-.6 0-.2.1-.3.2-.5s.1-.3.2-.4h1.4v3.5h2.8v1.8h-2.8v5.8zm3.7-2.5c0-.7.1-1.4.4-2 .3-.6.6-1.2 1.1-1.6.5-.5 1-.8 1.6-1.1.6-.3 1.3-.4 2-.4s1.4.1 2 .4c.6.3 1.2.6 1.6 1.1.5.5.8 1 1.1 1.6.3.6.4 1.3.4 2s-.1 1.4-.4 2c-.3.6-.6 1.2-1.1 1.6-.5.5-1 .8-1.6 1.1-.6.3-1.3.4-2 .4s-1.4-.1-2-.4c-.6-.3-1.2-.6-1.6-1.1-.5-.5-.8-1-1.1-1.6-.3-.6-.4-1.2-.4-2zm1.8 0c0 .5.1.9.3 1.3.2.4.4.7.7 1 .3.3.6.5 1 .7.4.2.8.3 1.3.3s.9-.1 1.3-.3c.4-.2.7-.4 1-.7.3-.3.5-.6.7-1 .2-.4.3-.8.3-1.3s-.1-.9-.3-1.3c-.2-.4-.4-.7-.7-1s-.6-.5-1-.7c-.4-.2-.8-.3-1.3-.3s-.9.1-1.3.3c-.4.2-.7.4-1 .7s-.5.6-.7 1c-.2.5-.3.9-.3 1.3zm12.1-4.9l.1.2c0 .1.1.2.1.3v1c.1-.2.3-.4.5-.6.2-.2.4-.4.7-.5.3-.1.5-.3.8-.4.3-.1.6-.1.9-.1.5 0 1 .1 1.5.3l-.1.8c-.1.3-.2.5-.3.6-.2.1-.4.2-.7.2h-.4c-.4 0-.7.1-1.1.2-.3.1-.6.3-.9.4s-.5.4-.6.6c-.2.2-.2.5-.3.7v6.3h-1.9v-10h1.7zm120.4 9.9h-1.8V51.8h4.6c.6 0 1.1.1 1.6.3.5.2.9.5 1.3.9s.7.8.9 1.3c.2.5.3 1 .3 1.6 0 .6-.1 1.1-.3 1.6-.2.5-.5.9-.9 1.3s-.8.7-1.3.9c-.5.2-1 .3-1.6.3h-2.8v4.7zm2.9-6.5c.3 0 .6-.1.9-.2.3-.1.5-.3.7-.5.2-.2.4-.4.5-.7.1-.3.2-.6.2-.9 0-.3-.1-.6-.2-.9-.1-.3-.3-.5-.5-.7s-.4-.4-.7-.5c-.3-.1-.6-.2-.9-.2h-2.8v4.5h2.8zm7.5-6.4l.1.2c0 .1.1.1.1.2v4.1c.1-.2.3-.4.5-.6.2-.2.4-.3.6-.4.2-.1.5-.2.8-.2.3-.1.6-.1.9-.1.5 0 1 .1 1.4.3.4.2.8.5 1.1.8.3.4.5.8.7 1.3s.3 1.1.3 1.7v5.4h-1.8v-5.4c0-.8-.1-1.4-.4-1.8-.3-.4-.7-.7-1.3-.7-.4 0-.7 0-1 .1-.3.1-.6.2-.9.4-.2.2-.4.3-.6.5l-.3.6v6.3h-1.8V51.8h1.6zm8.3 8.2c0-.7.1-1.3.4-1.9.3-.6.6-1.1 1-1.5.4-.4 1-.8 1.5-1 .6-.3 1.2-.4 1.9-.4s1.3.1 1.9.4c.6.3 1.1.6 1.5 1 .4.4.8 1 1 1.5.3.6.4 1.2.4 1.9s-.1 1.3-.4 1.9c-.3.6-.6 1.1-1 1.5-.4.4-1 .8-1.5 1s-1.2.4-1.9.4-1.3-.1-1.9-.4c-.6-.3-1.1-.6-1.5-1-.4-.4-.8-1-1-1.5-.3-.6-.4-1.2-.4-1.9zm1.7 0c0 .4.1.8.2 1.2.2.4.4.7.7 1 .3.3.6.5 1 .7.4.2.8.2 1.2.2.4 0 .8-.1 1.2-.2.4-.2.7-.4 1-.7.3-.3.5-.6.7-1 .2-.4.2-.8.2-1.2s-.1-.8-.2-1.2c-.2-.4-.4-.7-.7-1-.3-.3-.6-.5-1-.7-.4-.2-.8-.2-1.2-.2-.4 0-.8.1-1.2.2-.4.2-.7.4-1 .7-.3.3-.5.6-.7 1-.1.4-.2.8-.2 1.2zm12.1 2.4v.3c0 .1.1.2.1.3l.2.2c.1.1.2.1.3.1h.2c.3-.1.5-.1.7-.1.2 0 .5.1.6.2.2.1.3.3.5.5l.2.3c-.1.1-.3.2-.4.3l-.6.3c-.2.1-.4.1-.6.2-.2 0-.4.1-.6.1-.4 0-.7-.1-1-.2s-.6-.3-.8-.5c-.2-.2-.4-.5-.5-.8-.1-.3-.2-.6-.2-1V57h-1.6v-1c0-.5.5-.7 1.4-.7h.2v-1.9c0-.2 0-.4.1-.5s.1-.3.1-.4c.1-.1.1-.3.2-.4h1.4v3.3h2.6V57h-2.6v5.4zm3.5-2.4c0-.7.1-1.3.4-1.9.3-.6.6-1.1 1-1.5.4-.4 1-.8 1.5-1 .6-.3 1.2-.4 1.9-.4s1.3.1 1.9.4c.6.3 1.1.6 1.5 1 .4.4.8 1 1 1.5.3.6.4 1.2.4 1.9s-.1 1.3-.4 1.9c-.3.6-.6 1.1-1 1.5-.4.4-1 .8-1.5 1s-1.2.4-1.9.4-1.3-.1-1.9-.4c-.6-.3-1.1-.6-1.5-1-.4-.4-.8-1-1-1.5-.3-.6-.4-1.2-.4-1.9zm1.7 0c0 .4.1.8.2 1.2.2.4.4.7.7 1 .3.3.6.5 1 .7.4.2.8.2 1.2.2.4 0 .8-.1 1.2-.2.4-.2.7-.4 1-.7.3-.3.5-.6.7-1 .2-.4.2-.8.2-1.2s-.1-.8-.2-1.2c-.2-.4-.4-.7-.7-1-.3-.3-.6-.5-1-.7-.4-.2-.8-.2-1.2-.2-.4 0-.8.1-1.2.2-.4.2-.7.4-1 .7-.3.3-.5.6-.7 1-.1.4-.2.8-.2 1.2zm9.7 2.7c.1-.1.2-.1.4-.1.1 0 .2-.1.4-.1s.3 0 .4.1c.1.1.3.2.5.3.1.1.3.2.5.2s.3.1.5.1.4 0 .6-.1c.2-.1.3-.1.5-.3s.3-.2.4-.4c.1-.2.1-.4.1-.6 0-.2 0-.3-.1-.4s-.1-.2-.3-.3c-.1-.1-.3-.2-.5-.3-.2-.1-.5-.2-.8-.3-.3-.1-.7-.2-1-.4s-.6-.3-.9-.5c-.3-.2-.5-.5-.6-.8-.2-.3-.2-.7-.2-1.1 0-.4.1-.7.3-1 .2-.3.4-.6.7-.8.3-.2.6-.4.9-.5.3-.1.7-.2 1.1-.2.4 0 .7.1 1 .2.3.1.6.3.8.5.2.2.4.3.5.5.1.1.2.2.2.3l-.4.4c-.3.2-.5.3-.9.3-.1 0-.2 0-.4-.1-.1-.1-.3-.1-.5-.2-.1-.1-.2-.1-.4-.1s-.4 0-.6.1-.3.1-.4.2c-.1.1-.2.2-.2.3s-.1.2-.1.2c0 .2 0 .3.1.4.1.1.2.2.4.3.1.1.3.2.5.2.2.1.4.1.6.2.4.1.7.3 1 .4.3.2.6.3.9.6.3.2.5.5.6.8s.2.7.2 1.1c0 .4-.1.8-.2 1.2-.2.4-.4.7-.7 1-.3.3-.6.5-1 .7-.4.2-.8.2-1.3.2-.3 0-.6 0-.9-.1-.3-.1-.6-.2-.9-.4-.3-.2-.5-.4-.7-.6s-.4-.5-.6-.8l.5-.3zm9.5-10.9l.1.2c0 .1.1.1.1.2v4.1c.1-.2.3-.4.5-.6.2-.2.4-.3.6-.4.2-.1.5-.2.8-.2.3-.1.6-.1.9-.1.5 0 1 .1 1.4.3.4.2.8.5 1.1.8.3.4.5.8.7 1.3s.3 1.1.3 1.7v5.4h-1.8v-5.4c0-.8-.1-1.4-.4-1.8-.3-.4-.7-.7-1.3-.7-.4 0-.7 0-1 .1-.3.1-.6.2-.9.4-.2.2-.4.3-.6.5l-.3.6v6.3h-1.8V51.8h1.6zm8.3 8.2c0-.7.1-1.3.4-1.9.3-.6.6-1.1 1-1.5.4-.4 1-.8 1.5-1 .6-.3 1.2-.4 1.9-.4s1.3.1 1.9.4c.6.3 1.1.6 1.5 1 .4.4.8 1 1 1.5.3.6.4 1.2.4 1.9s-.1 1.3-.4 1.9c-.3.6-.6 1.1-1 1.5-.4.4-1 .8-1.5 1s-1.2.4-1.9.4-1.3-.1-1.9-.4c-.6-.3-1.1-.6-1.5-1-.4-.4-.8-1-1-1.5-.3-.6-.4-1.2-.4-1.9zm1.7 0c0 .4.1.8.2 1.2.2.4.4.7.7 1 .3.3.6.5 1 .7.4.2.8.2 1.2.2.4 0 .8-.1 1.2-.2.4-.2.7-.4 1-.7.3-.3.5-.6.7-1 .2-.4.2-.8.2-1.2s-.1-.8-.2-1.2c-.2-.4-.4-.7-.7-1-.3-.3-.6-.5-1-.7-.4-.2-.8-.2-1.2-.2-.4 0-.8.1-1.2.2-.4.2-.7.4-1 .7-.3.3-.5.6-.7 1-.1.4-.2.8-.2 1.2zm11.5-4.7l.1.2c0 .1.1.1.1.2v.7c0-.2.1-.3.2-.4.1-.1.2-.2.4-.3.1-.1.3-.2.5-.2.2-.1.4-.1.5-.2.2 0 .3-.1.5-.1h.4c.7 0 1.3.1 1.9.4.6.3 1.1.6 1.5 1 .4.4.7 1 1 1.5.2.6.4 1.2.4 1.9s-.1 1.3-.4 1.9c-.2.6-.6 1.1-1 1.5s-.9.8-1.5 1c-.6.3-1.2.4-1.9.4h-.6c-.2 0-.4-.1-.6-.2l-.6-.3c-.2-.1-.4-.3-.6-.5v3.9h-1.8V55.3h1.5zm2.7 7.8c.4 0 .8-.1 1.2-.2.4-.2.7-.4.9-.7.3-.3.5-.6.6-1 .1-.4.2-.8.2-1.2s-.1-.8-.2-1.2c-.1-.4-.3-.7-.6-1-.3-.3-.6-.5-.9-.7-.4-.2-.8-.2-1.2-.2-.5 0-.9.1-1.3.3-.4.2-.8.4-1.1.8v4.2c.3.3.7.6 1.1.8.4 0 .9.1 1.3.1z"/><path class="st16" d="M1700 87V29l50-29 50 29v58l-50 29z"/><path class="st1" d="M1795.6 84.4l-45.6 26.5-45.7-26.5V31.6L1750 5.1l45.6 26.5z"/><path d="M1734.8 52.5c-.3-.2-.7-.4-1-.6-.3-.1-.6-.2-.9-.2-.4 0-.8.1-1.1.2-.3.1-.6.3-.9.5-.3.2-.5.4-.6.7-.2.3-.2.5-.2.9s.1.7.2.9c.1.3.3.5.6.7.3.2.6.4 1 .6.4.2.9.4 1.5.6l.9.3.9.3c.3.1.6.3.8.4.3.1.5.3.8.5 1.3 1 1.9 2.3 1.9 3.9 0 .8-.2 1.6-.5 2.2-.3.7-.8 1.3-1.3 1.7-.6.5-1.2.9-2 1.1-.7.3-1.5.4-2.3.4-1.6 0-3-.5-4-1.4l-.6-.6c-.2-.2-.3-.4-.4-.6-.1-.2-.2-.3-.3-.5-.1-.2-.2-.3-.2-.4l.6-.3c.3-.2.6-.3 1-.3.5 0 1 .2 1.4.6l.2.2c.3.3.7.5 1.1.6s.8.2 1.3.2c.4 0 .8-.1 1.3-.2.4-.1.8-.3 1.2-.6.4-.3.6-.6.9-1 .2-.4.3-.8.3-1.3s-.1-.9-.3-1.2c-.2-.3-.5-.6-.8-.8-.3-.2-.7-.4-1.2-.6-.4-.2-.9-.3-1.3-.5-.6-.2-1.2-.5-1.8-.8-.6-.3-1.1-.6-1.6-.9-.5-.4-.8-.8-1.1-1.4-.3-.5-.4-1.2-.4-2 0-.7.2-1.4.5-2 .3-.6.7-1.1 1.2-1.5.5-.4 1.1-.7 1.7-.9.6-.2 1.3-.3 2-.3.5 0 1 .1 1.5.2.5.2.9.4 1.4.6.4.3.8.5 1.2.9.3.3.6.6.8.9l-.6.5c-.3.3-.8.4-1.2.4-.9.2-1.3.1-1.6-.1zm6.7 3.7c.1-.1.2-.3.3-.4l.4-.4c.2-.1.3-.3.5-.4.5-.3 1-.6 1.6-.7s1.2-.3 1.9-.3 1.3.1 1.9.3c.5.2 1 .4 1.4.7s.7.7.9 1.1c.2.4.4.9.6 1.4.1.5.2 1 .3 1.6 0 .6.1 1.1.1 1.7v6.6h-2c-.1-.1-.2-.3-.3-.5-.1-.2-.1-.4-.1-.6V66c-.2.2-.5.4-.8.6s-.7.4-1 .5c-.4.1-.7.2-1.1.3s-.7.1-1 .1c-.7 0-1.3-.1-1.8-.3s-1-.5-1.4-.8-.7-.8-.9-1.3c-.2-.5-.3-1-.3-1.6 0-.7.1-1.2.4-1.8.2-.5.6-1 1.1-1.3.5-.4 1.1-.7 1.9-.9.8-.2 1.6-.3 2.7-.3h1.5c.2 0 .4 0 .5.1h.3c0-.6-.1-1.1-.3-1.5-.2-.4-.4-.7-.6-.9-.2-.2-.5-.4-.8-.5-.3-.1-.6-.1-1-.1s-.7 0-1 .1-.4.1-.6.2c-.2.1-.4.2-.5.2-.2.1-.4.1-.7.1-.2 0-.4 0-.6-.1l-.6-.3-.9-.3zm3.5 9c.3 0 .6 0 .9-.1s.7-.1 1-.2c.3-.1.7-.2 1-.4.3-.1.7-.3 1-.5v-2.2h-2.3c-.5 0-1 0-1.4.1l-1.2.3c-.3.1-.6.3-.8.6-.2.2-.3.5-.3.9 0 .3.1.5.2.7.1.2.2.4.4.5.2.1.4.2.7.3s.5 0 .8 0zm9.4-.6c.2-.1.3-.2.5-.2.2-.1.3-.1.5-.1s.4 0 .6.1c.2.1.4.2.7.4l.6.3c.2.1.5.1.7.1.3 0 .5 0 .8-.1.3-.1.5-.2.7-.3.2-.2.4-.3.5-.6.1-.2.2-.5.2-.8 0-.2 0-.4-.1-.6-.1-.2-.2-.3-.4-.5-.2-.1-.4-.3-.7-.4s-.7-.3-1.1-.4c-.5-.2-.9-.3-1.4-.5-.4-.2-.8-.5-1.2-.7-.3-.3-.6-.6-.8-1.1-.2-.4-.3-.9-.3-1.5 0-.5.1-1 .3-1.4s.5-.8.9-1.1c.4-.3.8-.6 1.3-.8.5-.2 1-.3 1.5-.3s1 .1 1.4.3c.4.2.8.4 1.1.6.3.2.5.5.7.7.2.2.3.3.3.4l-.6.5c-.3.3-.8.4-1.2.4-.2 0-.3 0-.5-.1s-.4-.2-.7-.3c-.2-.1-.3-.1-.5-.1-.3 0-.6 0-.8.1-.2.1-.4.2-.5.3-.1.1-.2.3-.3.4-.1.1-.1.2-.1.3 0 .2.1.4.2.6.1.2.3.3.5.4.2.1.4.2.7.3.3.1.5.2.8.3l1.5.6c.5.2.9.5 1.2.8s.7.7.9 1.1c.2.4.3 1 .3 1.6 0 .6-.1 1.1-.3 1.6s-.5.9-.9 1.3-.9.7-1.4.9c-.6.2-1.2.3-1.8.3-.5 0-.9-.1-1.3-.2s-.8-.3-1.2-.5-.7-.5-1-.8c-.3-.3-.6-.7-.8-1.1l.5-.2zm10.6 0c.2-.1.3-.2.5-.2.2-.1.3-.1.5-.1s.4 0 .6.1c.2.1.4.2.7.4l.6.3c.2.1.5.1.7.1.3 0 .5 0 .8-.1.3-.1.5-.2.7-.3.2-.2.4-.3.5-.6.1-.2.2-.5.2-.8 0-.2 0-.4-.1-.6-.1-.2-.2-.3-.4-.5-.2-.1-.4-.3-.7-.4s-.7-.3-1.1-.4c-.5-.2-.9-.3-1.4-.5-.4-.2-.8-.5-1.2-.7-.3-.3-.6-.6-.8-1.1-.2-.4-.3-.9-.3-1.5 0-.5.1-1 .3-1.4s.5-.8.9-1.1c.4-.3.8-.6 1.3-.8.5-.2 1-.3 1.5-.3s1 .1 1.4.3c.4.2.8.4 1.1.6.3.2.5.5.7.7.2.2.3.3.3.4l-.6.5c-.3.3-.8.4-1.2.4-.2 0-.3 0-.5-.1s-.4-.2-.7-.3c-.2-.1-.3-.1-.5-.1-.3 0-.6 0-.8.1-.2.1-.4.2-.5.3-.1.1-.2.3-.3.4-.1.1-.1.2-.1.3 0 .2.1.4.2.6.1.2.3.3.5.4.2.1.4.2.7.3.3.1.5.2.8.3l1.5.6c.5.2.9.5 1.2.8s.7.7.9 1.1c.2.4.3 1 .3 1.6 0 .6-.1 1.1-.3 1.6s-.5.9-.9 1.3-.9.7-1.4.9c-.6.2-1.2.3-1.8.3-.5 0-.9-.1-1.3-.2s-.8-.3-1.2-.5-.7-.5-1-.8c-.3-.3-.6-.7-.8-1.1l.5-.2z"/><path class="st17" d="M1900 87V29l50-29 50 29v58l-50 29z"/><path class="st1" d="M1995.6 84.4l-45.6 26.5-45.7-26.5V31.6L1950 5.1l45.6 26.5z"/><path d="M1924.7 58.6v7.2c-.4.4-.9.8-1.4 1-.5.3-1 .5-1.6.6-.6.2-1.2.3-1.8.3-.6.1-1.2.1-1.9.1-1.3 0-2.5-.2-3.6-.7-1.1-.5-2.1-1.1-2.9-2s-1.5-1.8-2-2.9c-.5-1.1-.7-2.3-.7-3.6 0-.8.1-1.7.3-2.4.2-.8.5-1.5.9-2.2.4-.7.9-1.3 1.4-1.9.6-.6 1.2-1 1.9-1.4.7-.4 1.4-.7 2.2-.9.8-.2 1.6-.3 2.4-.3.7 0 1.3.1 1.9.2.6.1 1.2.3 1.8.6.6.2 1.1.6 1.6.9.5.4 1 .8 1.4 1.2l-.5.5c-.2.2-.4.4-.6.5s-.5.1-.8.1c-.4 0-.7-.1-1-.3-.5-.4-1.1-.7-1.8-.9-.6-.2-1.3-.3-2-.3-.9 0-1.8.2-2.6.5s-1.5.8-2.1 1.4-1.1 1.3-1.4 2.1c-.4.8-.5 1.7-.5 2.6 0 .9.2 1.8.5 2.6.4.8.9 1.5 1.5 2.1s1.3 1.1 2.2 1.4c.8.4 1.7.5 2.6.5.8 0 1.5-.1 2.2-.3.7-.2 1.3-.4 1.9-.8V61h-1c-.3 0-.6-.1-.8-.2-.2-.1-.4-.2-.6-.4-.2-.2-.3-.4-.4-.6-.1-.2-.1-.5-.1-.7v-.5h5.4zm3.4-7.3c0-.2 0-.5.1-.7.1-.2.2-.4.4-.5.2-.2.3-.3.5-.4.2-.1.4-.1.7-.1s.5 0 .7.1c.2.1.4.2.5.4.2.2.3.3.4.5.1.2.1.4.1.7 0 .2 0 .5-.1.7-.1.2-.2.4-.4.5-.2.2-.3.3-.5.4s-.4.1-.7.1-.5 0-.7-.1-.4-.2-.5-.4c-.2-.2-.3-.3-.4-.5-.1-.3-.1-.5-.1-.7zm2.9 3.3v13.1h-2.5V54.6h2.5zm7.1 9.8c0 .1 0 .3.1.4 0 .1.1.3.2.4l.3.3c.1.1.2.1.4.1h.3c.4-.1.7-.1.9-.1.3 0 .6.1.9.3.3.2.5.4.7.6l.3.4c-.2.1-.4.3-.6.4s-.5.3-.8.4l-.9.3c-.3.1-.6.1-.8.1-.5 0-1-.1-1.4-.3-.4-.2-.8-.4-1.1-.7-.3-.3-.5-.7-.7-1.1-.2-.4-.2-.9-.2-1.4V57h-2.2v-1.3c0-.7.6-1 1.9-1h.3V52c0-.3 0-.5.1-.8.1-.2.1-.4.2-.6.1-.2.2-.4.3-.5h1.9v4.6h3.6v2.4h-3.6v7.3zm21.3 3.3h-2.5v-7.8h-9.7v7.8h-2.4V49.8h2.4v7.6h9.7v-7.6h2.5zm12.8 0c-.1-.1-.1-.2-.2-.3 0-.1-.1-.2-.1-.3 0-.1-.1-.3-.1-.4v-.5c-.1.3-.4.6-.6.8s-.6.4-.9.5c-.3.1-.7.3-1.1.3-.4.1-.8.1-1.2.1-.7 0-1.4-.1-2-.4-.6-.3-1.1-.7-1.6-1.2-.4-.5-.8-1.1-1-1.8-.2-.7-.4-1.5-.4-2.4v-7.5h2.5V62c0 1.1.2 1.9.6 2.6.4.6 1 .9 1.9.9.5 0 1-.1 1.4-.2.4-.1.8-.3 1.2-.5.3-.2.6-.5.8-.7.2-.3.3-.6.3-.9v-8.7h2.5v13.1h-2zm5.8 0V49.8h2.5v5.9c.3-.3.5-.5.8-.6s.6-.3.9-.4c.3-.1.6-.2.9-.2.3 0 .6-.1.9-.1.9 0 1.8.2 2.6.5.8.4 1.5.8 2.1 1.4.6.6 1 1.3 1.4 2.1.3.8.5 1.7.5 2.6 0 .9-.2 1.8-.5 2.6s-.8 1.5-1.4 2.1-1.3 1.1-2.1 1.5c-.8.4-1.7.5-2.6.5-.6 0-1.2-.1-1.8-.3s-1.1-.5-1.7-1.1v.1c0 .1 0 .3-.1.4 0 .1-.1.2-.1.3 0 .1-.1.2-.2.3h-2.1zm5.9-2.2c.6 0 1.2-.1 1.7-.3s.9-.5 1.3-.9.6-.9.8-1.4c.2-.5.3-1.1.3-1.7 0-.6-.1-1.2-.3-1.7-.2-.5-.5-1-.8-1.4-.4-.4-.8-.7-1.3-.9-.5-.2-1-.3-1.7-.3-.6 0-1.3.1-1.9.4-.6.3-1.1.6-1.6 1v5.8c.4.4 1 .8 1.6 1 .6.3 1.3.4 1.9.4z"/><path class="st18" d="M2100 87V29l50-29 50 29v58l-50 29z"/><path class="st1" d="M2195.6 84.4l-45.6 26.5-45.7-26.5V31.6L2150 5.1l45.6 26.5z"/><path d="M2123.2 67h-2L2111 53c-.1-.1-.1-.2-.2-.3 0-.1-.1-.2-.1-.3 0-.1-.1-.3-.1-.4v15h-2.5V49.1h1.8c.4 0 .8.1 1 .2s.5.3.7.5l8.7 12c.2.3.4.7.4 1.2V49.1h2.5V67zm3.1-6.6c0-.9.2-1.8.5-2.6.4-.8.8-1.5 1.4-2.1.6-.6 1.3-1.1 2.2-1.5.8-.4 1.7-.5 2.6-.5.9 0 1.8.2 2.6.5.8.4 1.5.8 2.2 1.5.6.6 1.1 1.3 1.5 2.1.4.8.5 1.7.5 2.6s-.2 1.8-.5 2.6c-.4.8-.8 1.5-1.5 2.1-.6.6-1.3 1.1-2.2 1.5-.8.4-1.7.5-2.6.5-.9 0-1.8-.2-2.6-.5-.8-.4-1.5-.8-2.2-1.5-.6-.6-1.1-1.3-1.4-2.1-.3-.8-.5-1.6-.5-2.6zm2.4 0c0 .6.1 1.2.3 1.7.2.5.5 1 .9 1.4.4.4.8.7 1.4.9.5.2 1.1.3 1.7.3.6 0 1.2-.1 1.7-.3.5-.2 1-.5 1.4-.9.4-.4.7-.9.9-1.4.2-.5.3-1.1.3-1.7s-.1-1.2-.3-1.7c-.2-.5-.5-1-.9-1.4-.4-.4-.9-.7-1.4-.9-.5-.2-1.1-.3-1.7-.3-.6 0-1.2.1-1.7.3-.5.2-1 .5-1.4.9-.4.4-.7.9-.9 1.4-.2.6-.3 1.1-.3 1.7zm23.2 6.6c-.1-.1-.1-.2-.2-.3 0-.1-.1-.2-.1-.3 0-.1-.1-.3-.1-.4v-.1c-.3.3-.5.5-.8.6s-.6.3-.9.4c-.3.1-.6.2-.9.2-.3 0-.6.1-.9.1-.9 0-1.8-.2-2.6-.5-.8-.4-1.5-.8-2.1-1.5s-1-1.3-1.4-2.1-.5-1.7-.5-2.6c0-.9.2-1.8.5-2.6s.8-1.5 1.4-2.1c.6-.6 1.3-1.1 2.1-1.4.8-.4 1.7-.5 2.6-.5.3 0 .6 0 .9.1.3 0 .6.1.9.2.3.1.6.2.9.4s.5.4.8.6v-5.9h2.5V67h-2.1zm-3.8-10.9c-.6 0-1.2.1-1.7.3-.5.2-.9.5-1.3.9s-.6.8-.8 1.4c-.2.5-.3 1.1-.3 1.7 0 .6.1 1.2.3 1.7.2.5.5 1 .8 1.4s.8.7 1.3.9 1 .3 1.7.3c.6 0 1.3-.1 1.9-.4.6-.3 1.1-.6 1.6-1v-5.8c-.4-.4-1-.8-1.6-1-.6-.2-1.2-.4-1.9-.4zm22.1 3.2c0 .3-.1.6-.2.8-.1.2-.3.4-.4.6-.2.2-.4.3-.6.4-.2.1-.4.1-.6.1h-9.1c.1.5.2 1 .5 1.4.3.4.6.8 1 1.1.4.3.8.6 1.3.8.5.2 1 .3 1.5.3.4 0 .8 0 1.1-.1.4-.1.7-.2 1-.4.2-.1.3-.2.5-.2s.3-.1.5-.1c.3 0 .5.1.7.1.2.1.4.2.6.4l.5.5c-.6.7-1.4 1.2-2.2 1.6-.8.4-1.8.6-2.7.6-.9 0-1.8-.2-2.6-.5-.8-.4-1.5-.8-2.2-1.5-.6-.6-1.1-1.3-1.4-2.1-.4-.8-.5-1.7-.5-2.6s.2-1.8.5-2.6c.4-.8.8-1.5 1.4-2.1.6-.6 1.3-1.1 2.2-1.5.8-.4 1.7-.5 2.6-.5.8 0 1.5.1 2.2.4.7.3 1.3.6 1.9 1.1.6.4 1.1 1 1.5 1.6.4.6.7 1.3.9 2v.3c0 .1.1 0 .1.1zm-9.9-.5h7.3c-.2-.4-.4-.8-.6-1.1-.3-.3-.6-.6-.9-.8-.3-.2-.7-.4-1.1-.6-.4-.1-.9-.2-1.3-.2-.5 0-1 .1-1.4.2-.4.2-.9.4-1.2.6-.4.3-.7.6-.9 1-.3.4-.5.8-.6 1.2l.3-.3h.4zm11.8 6.7c0-.2 0-.5.1-.7.1-.2.2-.4.4-.5.2-.2.3-.3.5-.4.2-.1.4-.1.7-.1s.5 0 .7.1c.2.1.4.2.5.4.2.2.3.3.4.5s.1.4.1.7 0 .5-.1.7-.2.4-.4.5-.3.3-.5.4-.4.1-.7.1-.5 0-.7-.1-.4-.2-.5-.4-.3-.3-.4-.5c0-.2-.1-.5-.1-.7zm9 1c0 .6-.1 1.2-.3 1.7-.2.5-.4 1-.7 1.5s-.7.9-1.1 1.2c-.4.3-.9.6-1.4.8l-.4-.9c0-.1-.1-.2-.1-.4V70c0-.3 0-.5.1-.7.1-.2.2-.4.4-.5.1-.2.3-.4.4-.5.1-.2.3-.4.4-.6.2-.4.3-.8.3-1.2V53.9h2.5v12.6zm-2.9-15.9c0-.2 0-.5.1-.7.1-.2.2-.4.4-.5.2-.2.3-.3.5-.4.2-.1.4-.1.7-.1s.5 0 .7.1c.2.1.4.2.5.4.2.2.3.3.4.5.1.2.1.4.1.7 0 .2 0 .5-.1.7-.1.2-.2.4-.4.5-.2.2-.3.3-.5.4-.2.1-.4.1-.7.1s-.5 0-.7-.1c-.2-.1-.4-.2-.5-.4-.2-.2-.3-.3-.4-.5-.1-.3-.1-.5-.1-.7zm6.4 13.6c.2-.1.3-.2.5-.2.2-.1.3-.1.5-.1s.4 0 .6.1c.2.1.4.2.7.4l.6.3c.2.1.5.1.7.1.3 0 .5 0 .8-.1.3-.1.5-.2.7-.4.2-.2.4-.3.5-.6.1-.2.2-.5.2-.8 0-.2 0-.4-.1-.6-.1-.2-.2-.3-.4-.5-.2-.1-.4-.3-.7-.4-.3-.1-.7-.3-1.1-.4-.5-.2-.9-.3-1.4-.5-.4-.2-.8-.5-1.2-.7-.3-.3-.6-.6-.8-1.1-.2-.4-.3-.9-.3-1.5 0-.5.1-1 .3-1.4.2-.4.5-.8.9-1.1.4-.3.8-.6 1.3-.7.5-.2 1-.3 1.5-.3s1 .1 1.4.3c.4.2.8.4 1.1.6.3.2.5.5.7.7.2.2.3.3.3.4l-.6.5c-.3.3-.8.4-1.2.4-.2 0-.3 0-.5-.1s-.4-.2-.7-.3c-.2-.1-.3-.1-.5-.1-.3 0-.6 0-.8.1-.2.1-.4.2-.5.3-.1.1-.2.3-.3.4-.1.1-.1.2-.1.3 0 .2.1.4.2.6.1.2.3.3.5.4.2.1.4.2.7.3.3.1.5.2.8.3l1.5.6c.5.2.9.5 1.2.8.4.3.7.7.9 1.1.2.4.3 1 .3 1.6 0 .6-.1 1.1-.3 1.6-.2.5-.5 1-.9 1.3-.4.4-.9.7-1.4.9-.6.2-1.2.3-1.8.3-.5 0-.9-.1-1.3-.2s-.8-.3-1.2-.5-.7-.5-1-.8c-.3-.3-.6-.7-.8-1.1l.5-.2z"/><path class="st19" d="M2300 87V29l50-29 50 29v58l-50 29z"/><path class="st1" d="M2395.6 84.4l-45.6 26.5-45.7-26.5V31.6L2350 5.1l45.6 26.5z"/><path d="M2347.2 58v7.2c-.4.4-.9.8-1.4 1-.5.3-1 .5-1.6.6s-1.2.3-1.8.3c-.6.1-1.2.1-1.9.1-1.3 0-2.5-.2-3.6-.7s-2.1-1.1-2.9-2c-.8-.8-1.5-1.8-2-2.9-.5-1.1-.7-2.3-.7-3.6 0-.8.1-1.7.3-2.4s.5-1.5.9-2.2c.4-.7.9-1.3 1.4-1.9.6-.6 1.2-1 1.9-1.4.7-.4 1.4-.7 2.2-.9.8-.2 1.6-.3 2.4-.3.7 0 1.3.1 1.9.2.6.1 1.2.3 1.8.6.6.3 1.1.6 1.6.9.5.4 1 .8 1.4 1.2l-.5.5c-.2.2-.4.3-.6.4-.2.1-.5.2-.8.2-.4 0-.7-.1-1-.3-.5-.4-1.1-.7-1.8-.9-.6-.2-1.3-.3-2-.3-.9 0-1.8.2-2.6.5s-1.5.8-2.1 1.4c-.6.6-1.1 1.3-1.4 2.1-.4.8-.5 1.7-.5 2.6 0 .9.2 1.8.5 2.6.4.8.9 1.5 1.5 2.1.6.6 1.3 1.1 2.2 1.4.8.3 1.7.5 2.6.5.8 0 1.5-.1 2.2-.3.7-.2 1.3-.4 1.9-.8v-3.3h-1c-.3 0-.6-.1-.8-.2-.2-.1-.4-.2-.6-.4-.2-.2-.3-.4-.4-.6-.1-.2-.1-.5-.1-.7V58h5.4zm3.4-7.3c0-.2 0-.5.1-.7.1-.2.2-.4.4-.5.2-.2.3-.3.5-.4.2-.1.4-.1.7-.1s.5 0 .7.1c.2.1.4.2.5.4.2.2.3.3.4.5.1.2.1.4.1.7 0 .2 0 .5-.1.7-.1.2-.2.4-.4.5-.2.2-.3.3-.5.4-.2.1-.4.1-.7.1s-.5 0-.7-.1c-.2-.1-.4-.2-.5-.4-.2-.2-.3-.3-.4-.5-.1-.3-.1-.5-.1-.7zm2.9 3.3v13.1h-2.5V54h2.5zm7.1 9.8c0 .1 0 .3.1.4 0 .1.1.3.2.4l.3.3c.1.1.2.1.4.1h.3c.4-.1.7-.1.9-.1.3 0 .6.1.9.3.3.2.5.4.7.7l.3.4c-.2.2-.4.3-.6.4-.3.1-.5.3-.8.4l-.9.3c-.3.1-.6.1-.8.1-.5 0-1-.1-1.4-.3-.4-.2-.8-.4-1.1-.7-.3-.3-.5-.7-.7-1.1-.2-.4-.2-.9-.2-1.4v-7.5h-2.2V55c0-.7.6-1 1.9-1h.3v-2.7c0-.3 0-.5.1-.8.1-.2.1-.4.2-.6.1-.2.2-.4.3-.5h1.9V54h3.6v2.4h-3.6v7.4z"/><path class="st20" d="M2500 87V29l50-29 50 29v58l-50 29z"/><path class="st1" d="M2595.6 84.4l-45.6 26.5-45.7-26.5V31.6L2550 5.1l45.6 26.5z"/><path d="M2539.2 58.4v7.2c-.4.4-.9.8-1.4 1-.5.3-1 .5-1.6.6s-1.2.3-1.8.3c-.6.1-1.2.1-1.9.1-1.3 0-2.5-.2-3.6-.7s-2.1-1.1-2.9-2c-.8-.8-1.5-1.8-2-2.9-.5-1.1-.7-2.3-.7-3.6 0-.8.1-1.7.3-2.4s.5-1.5.9-2.2c.4-.7.9-1.3 1.4-1.9.6-.6 1.2-1 1.9-1.4.7-.4 1.4-.7 2.2-.9.8-.2 1.6-.3 2.4-.3.7 0 1.3.1 1.9.2.6.1 1.2.3 1.8.6.6.3 1.1.6 1.6.9.5.4 1 .8 1.4 1.2l-.5.5c-.2.2-.4.3-.6.4-.2.1-.5.2-.8.2-.4 0-.7-.1-1-.3-.5-.4-1.1-.7-1.8-.9-.6-.2-1.3-.3-2-.3-.9 0-1.8.2-2.6.5s-1.5.8-2.1 1.4c-.6.6-1.1 1.3-1.4 2.1-.4.8-.5 1.7-.5 2.6 0 .9.2 1.8.5 2.6.4.8.9 1.5 1.5 2.1.6.6 1.3 1.1 2.2 1.4.8.3 1.7.5 2.6.5.8 0 1.5-.1 2.2-.3.7-.2 1.3-.4 1.9-.8v-3.3h-1c-.3 0-.6-.1-.8-.2-.2-.1-.4-.2-.6-.4-.2-.2-.3-.4-.4-.6-.1-.2-.1-.5-.1-.7v-.5h5.4zm12.4 9.1c-.1-.1-.1-.2-.2-.3 0-.1-.1-.2-.1-.3 0-.1-.1-.3-.1-.4V66c-.1.3-.4.6-.6.8l-.9.6c-.3.1-.7.3-1.1.3-.4.1-.8.1-1.2.1-.7 0-1.4-.1-2-.4-.6-.3-1.1-.7-1.6-1.2-.4-.5-.8-1.1-1-1.8-.2-.7-.4-1.5-.4-2.4v-7.5h2.5V62c0 1.1.2 1.9.6 2.6.4.6 1 .9 1.9.9.5 0 1-.1 1.4-.2.4-.1.8-.3 1.2-.5.3-.2.6-.4.8-.7.2-.3.3-.6.3-.9v-8.7h2.5v13.1h-2zm6-17.9h2.5v17.9h-2.5zm8.5 4.8c.1.1.1.2.2.3 0 .1.1.2.1.3 0 .1.1.3.1.4v.5c0-.2.1-.4.2-.6.1-.2.3-.3.5-.5.2-.1.4-.2.7-.3.2-.1.5-.2.7-.2.2-.1.5-.1.7-.1h.6c.9 0 1.8.2 2.6.5.8.4 1.5.8 2.1 1.5.6.6 1 1.3 1.4 2.1.3.8.5 1.7.5 2.6s-.2 1.8-.5 2.6-.8 1.5-1.4 2.1c-.6.6-1.3 1.1-2.1 1.5-.8.4-1.7.5-2.6.5-.3 0-.6 0-.9-.1s-.6-.1-.9-.2c-.3-.1-.6-.2-.9-.4-.3-.2-.5-.4-.8-.6v5.4h-2.5V54.4h2.2zm3.8 10.9c.6 0 1.2-.1 1.7-.3.5-.2.9-.5 1.3-.9s.6-.8.8-1.4c.2-.5.3-1.1.3-1.7s-.1-1.2-.3-1.7c-.2-.5-.5-1-.8-1.4s-.8-.7-1.3-.9c-.5-.2-1-.3-1.7-.3-.6 0-1.3.1-1.9.4-.6.3-1.1.6-1.6 1v5.8c.4.4 1 .8 1.6 1 .6.2 1.2.4 1.9.4z"/><path class="st21" d="M2700 87V29l50-29 50 29v58l-50 29z"/><path class="st1" d="M2795.6 84.4l-45.6 26.5-45.7-26.5V31.6L2750 5.1l45.6 26.5z"/><path d="M2726.7 49.5h2.4l7.8 17.9h-1.4c-.4 0-.7-.1-1.1-.3-.3-.2-.6-.5-.7-.8l-1.3-2.8h-9.1l-1.2 2.8c-.1.4-.4.6-.7.8-.3.2-.7.3-1.1.3h-1.4l7.8-17.9zm1 3.9l-3.3 7.5h7l-3.3-7.5c-.1-.3-.2-.6-.2-1.1 0 .2 0 .4-.1.6 0 .2 0 .4-.1.5zm13.9 10.7c0 .1 0 .3.1.4 0 .1.1.3.2.4l.3.3c.1.1.2.1.4.1h.3c.4-.1.7-.1.9-.1.3 0 .6.1.9.3.3.2.5.4.7.7l.3.4c-.2.2-.4.3-.6.4-.3.1-.5.3-.8.4l-.9.3c-.3.1-.6.1-.8.1-.5 0-1-.1-1.4-.3-.4-.2-.8-.4-1.1-.7-.3-.3-.5-.7-.7-1.1-.2-.4-.2-.9-.2-1.4v-7.5h-2.2v-1.3c0-.7.6-1 1.9-1h.3v-2.7c0-.3 0-.5.1-.7.1-.2.1-.4.2-.6.1-.2.2-.4.3-.5h1.9v4.6h3.6V57h-3.6v7.1zm4.9-3.3c0-.9.2-1.8.5-2.6.4-.8.8-1.5 1.4-2.1.6-.6 1.3-1.1 2.2-1.5.8-.4 1.7-.5 2.6-.5.9 0 1.8.2 2.6.5.8.4 1.5.8 2.2 1.5.6.6 1.1 1.3 1.5 2.1.4.8.5 1.7.5 2.6s-.2 1.8-.5 2.6c-.4.8-.8 1.5-1.5 2.1s-1.3 1.1-2.2 1.5c-.8.4-1.7.5-2.6.5-.9 0-1.8-.2-2.6-.5-.8-.4-1.5-.8-2.2-1.5-.6-.6-1.1-1.3-1.4-2.1-.4-.8-.5-1.6-.5-2.6zm2.4 0c0 .6.1 1.2.3 1.7.2.5.5 1 .9 1.4.4.4.8.7 1.4.9.5.2 1.1.3 1.7.3.6 0 1.2-.1 1.7-.3.5-.2 1-.5 1.4-.9.4-.4.7-.8.9-1.4.2-.5.3-1.1.3-1.7s-.1-1.2-.3-1.7c-.2-.5-.5-1-.9-1.4-.4-.4-.9-.7-1.4-.9-.5-.2-1.1-.3-1.7-.3-.6 0-1.2.1-1.7.3-.5.2-1 .5-1.4.9-.4.4-.7.8-.9 1.4-.2.6-.3 1.1-.3 1.7zm23.2-4.2c.2-.5.4-.8.7-1.2.3-.3.7-.6 1-.8.4-.2.8-.4 1.2-.5.4-.1.9-.1 1.3-.1.8 0 1.5.2 2 .5.6.3 1 .8 1.4 1.3.3.5.6 1.2.8 1.9.2.7.2 1.4.2 2.2v7.4h-2.5V60c0-.4 0-.7-.1-1.2-.1-.4-.2-.8-.3-1.1l-.6-.9c-.3-.2-.6-.3-1.1-.3-.4 0-.8.1-1.2.2-.4.1-.7.3-1 .5s-.5.4-.7.7c-.2.3-.3.6-.3.9v8.7h-2.5V60c0-.4 0-.7-.1-1.2-.1-.4-.2-.8-.3-1.1l-.6-.9c-.3-.2-.6-.3-1.1-.3-.4 0-.8.1-1.2.2-.4.1-.7.3-1 .5s-.5.4-.7.7c-.2.3-.3.6-.3.9v8.7h-2.5V54.3h2.1c.1.1.1.2.2.3 0 .1.1.2.1.3 0 .1.1.3.1.4v.5c.2-.3.3-.6.6-.8.2-.2.5-.4.8-.5.3-.1.6-.3 1-.3.3-.1.7-.1 1-.1.5 0 1 .1 1.4.2.4.1.7.3 1 .5.3.2.5.5.7.8.2.3.4.6.5 1zm148.1 10.8h-2.5V49.5h6.4c.7 0 1.4.1 2 .4.6.3 1.2.6 1.7 1.1.5.5.8 1 1.1 1.7.3.6.4 1.3.4 2 0 .6-.1 1.1-.3 1.7-.2.5-.4 1-.8 1.4-.3.4-.7.8-1.2 1.1-.4.3-.9.6-1.5.7l5.7 7.7h-1.7c-.5 0-.9-.1-1.3-.3s-.7-.5-.9-.8l-4.7-6.3h-2.7v7.5zm0-15.4v5.5h4c.4 0 .7-.1 1.1-.2.3-.1.6-.3.9-.6.3-.3.4-.5.6-.9.1-.3.2-.7.2-1.1 0-.4-.1-.7-.2-1.1-.1-.3-.3-.6-.6-.9s-.5-.4-.9-.6c-.3-.1-.7-.2-1.1-.2h-4zm25.1 7.7c0 .3-.1.6-.2.8-.1.2-.3.4-.4.6-.2.2-.4.3-.6.4-.2.1-.4.1-.6.1h-9.1c.1.5.2 1 .5 1.4.3.4.6.8 1 1.1.4.3.8.6 1.3.8.5.2 1 .3 1.5.3.4 0 .8 0 1.1-.1.4-.1.7-.2 1-.4.2-.1.3-.2.5-.2s.3-.1.5-.1c.3 0 .5.1.7.1.2.1.4.2.6.4l.5.5c-.6.7-1.4 1.2-2.2 1.6-.8.4-1.8.6-2.7.6-.9 0-1.8-.2-2.6-.5-.8-.4-1.5-.8-2.2-1.5-.6-.6-1.1-1.3-1.4-2.1-.4-.8-.5-1.7-.5-2.6s.2-1.8.5-2.6c.4-.8.8-1.5 1.4-2.1.6-.6 1.3-1.1 2.2-1.5.8-.4 1.7-.5 2.6-.5.8 0 1.5.1 2.2.4.7.3 1.3.6 1.9 1.1.6.4 1.1 1 1.5 1.6.4.6.7 1.3.9 2v.3c.1-.1.1 0 .1.1zm-9.9-.5h7.3c-.2-.4-.4-.8-.6-1.1-.3-.3-.6-.6-.9-.8-.3-.2-.7-.4-1.1-.6-.4-.1-.9-.2-1.3-.2-.5 0-1 .1-1.4.2-.4.2-.9.4-1.2.6-.4.3-.7.6-.9 1-.3.4-.5.8-.6 1.2l.3-.3h.4zm13-3c.1-.1.2-.3.3-.4l.4-.4c.2-.1.3-.3.5-.4.5-.3 1-.6 1.6-.7.6-.2 1.2-.3 1.9-.3s1.3.1 1.9.3c.5.2 1 .4 1.4.7.4.3.7.7.9 1.1.2.4.4.9.6 1.4.1.5.2 1 .3 1.6 0 .6.1 1.1.1 1.7v6.5h-2c-.1-.1-.2-.3-.3-.5-.1-.2-.1-.4-.1-.6V66c-.2.2-.5.4-.8.6-.3.2-.7.4-1 .5-.4.1-.7.2-1.1.3s-.7.1-1 .1c-.7 0-1.3-.1-1.8-.3s-1-.5-1.4-.8-.7-.8-.9-1.3c-.2-.5-.3-1-.3-1.6 0-.6.1-1.2.4-1.8.2-.5.6-1 1.1-1.3.5-.4 1.1-.7 1.9-.9.8-.2 1.6-.3 2.7-.3h1.5c.2 0 .4 0 .5.1h.3c0-.6-.1-1.1-.3-1.5-.2-.4-.4-.7-.6-.9-.2-.2-.5-.4-.8-.5-.3-.1-.6-.1-1-.1s-.7 0-1 .1-.4.1-.6.2c-.2.1-.4.2-.5.2-.2.1-.4.1-.7.1-.2 0-.4 0-.6-.1l-.6-.3-.9-.3zm3.5 9c.3 0 .6 0 .9-.1s.7-.1 1-.2c.3-.1.7-.2 1-.4.3-.1.7-.3 1-.5v-2.2h-2.3c-.5 0-1 0-1.4.1l-1.2.3c-.3.1-.6.3-.8.6-.2.2-.3.5-.3.9 0 .3.1.5.2.7.1.2.2.4.4.5.2.1.4.2.7.3s.5 0 .8 0zm15.5-8.7c-.6 0-1.2.1-1.7.3-.5.2-1 .5-1.4.9s-.7.9-.9 1.4c-.2.5-.3 1.1-.3 1.7 0 .6.1 1.2.3 1.7.2.5.5 1 .9 1.4.4.4.9.7 1.4.9.5.2 1.1.3 1.7.3.4 0 .7 0 1.1-.1s.7-.2 1-.4c.3-.2.6-.3 1-.3.3 0 .5.1.7.1.2.1.4.2.6.4l.5.5c-.6.7-1.4 1.2-2.2 1.6-.8.4-1.8.6-2.7.6-.9 0-1.8-.2-2.6-.5-.8-.4-1.5-.8-2.2-1.5-.6-.6-1.1-1.3-1.5-2.1-.4-.8-.5-1.7-.5-2.6s.2-1.8.5-2.6.8-1.5 1.5-2.1c.6-.6 1.3-1.1 2.2-1.5.8-.4 1.7-.5 2.6-.5 1 0 1.9.2 2.7.6.8.4 1.6.9 2.2 1.6l-.5.5c-.2.2-.4.3-.6.4-.2.1-.5.1-.8.1-.3 0-.6-.1-.9-.3-.3-.2-.7-.3-1-.4-.4 0-.7-.1-1.1-.1zm10.2 7.6c0 .1 0 .3.1.4 0 .1.1.3.2.4l.3.3c.1.1.2.1.4.1h.3c.4-.1.7-.1.9-.1.3 0 .6.1.9.3.3.2.5.4.7.6l.3.4c-.2.1-.4.3-.6.4s-.5.3-.8.4l-.9.3c-.3.1-.6.1-.8.1-.5 0-1-.1-1.4-.3-.4-.2-.8-.4-1.1-.7-.3-.3-.5-.7-.7-1.1-.2-.4-.2-.9-.2-1.4v-7.5h-2.2v-1.3c0-.7.6-1 1.9-1h.3v-2.7c0-.3 0-.5.1-.8.1-.2.1-.4.2-.6.1-.2.2-.4.3-.5h1.9v4.6h3.6v2.4h-3.6v7.3z"/></svg>