<svg id="Layer_1" xmlns="http://www.w3.org/2000/svg" width="1988" height="139" viewBox="0 0 1988 139"><style>.st0{fill:#e34f27}.st1{fill:#fff}.st2{fill:#ed6b41}.st3{fill:#2663ac}.st4{fill:#387dc0}.st5{fill:#efda4e}.st6{fill:#333432}.st7{fill:#5d4487}.st8{fill:#0c6aae}.st9{fill:#f7a832}.st10{fill:#84b7e4}.st11{fill:#4b4a4a}.st12{fill:#fafbfc}.st13{fill:#c72e88}.st14{fill:#45a2da}.st15{fill:#fcfcfc}</style><path class="st0" d="M4 104.2V34.7L64 0l60 34.7v69.5L64 139z"/><path class="st1" d="M118.7 101.2L64 132.9 9.3 101.2V37.8L64 6.1l54.7 31.7z"/><path class="st0" d="M92.4 105.8L64 113.6l-28.4-7.8L29 33.4h70z"/><path class="st2" d="M64 38.2V108l23.1-7 6.1-62.8z"/><path class="st1" d="M84.9 48.6H43l1 9.9 1.5 17.4h27.3l-.9 10-7.9 2.6-7.9-2.7-.5-5.1H46l1.2 12.7L64 98.5l16.8-4.8 2.5-27.4H54.6l-.6-8h30z"/><path class="st3" d="M128 104.2V34.7L188 0l60 34.7v69.5L188 139z"/><path class="st1" d="M242.7 101.2L188 132.9l-54.7-31.7V37.8L188 6.1l54.7 31.7z"/><path class="st3" d="M216.4 105.9l-28.4 7.7-28.4-7.7-6.6-72.5h70z"/><path class="st4" d="M188 38.4V108l23.1-6.8 6.1-62.8z"/><path class="st1" d="M208.9 48.4H167l1 10.1h20L168.6 66l.9 10h27.3l-.9 10-7.9 2.6-7.9-2.6-.8-5H170l1.2 12.6 16.8 5 16.8-5 2.5-27.6h-19.2l19.9-7.5z"/><path class="st5" d="M500 104.2V34.7L560 0l60 34.7v69.5L560 139z"/><path class="st1" d="M614.7 101.2L560 132.9l-54.7-31.7V37.8L560 6.1l54.7 31.7z"/><path class="st6" d="M535.3 37.1h14.5v40.8c0 18.4-8.8 24.8-22.8 24.8-3.6 0-7.8-.5-10.7-1.4l1.7-11.8c2 .7 4.6 1.2 7.5 1.2 6.2 0 10-2.8 10-12.6l-.2-41zm27.2 49.6c3.8 2 10 3.9 16.1 3.9 6.7 0 10.1-2.8 10.1-7.1 0-3.9-3-6.3-10.8-8.9-10.7-3.8-17.8-9.7-17.8-19.3 0-10.8 9.3-19.2 24.5-19.2 7.2-.1 12.5 1.4 16.4 3.3L597.7 51c-2.5-1.2-7.1-3-13.3-3-6.3 0-9.3 3-9.3 6.2 0 4.2 3.6 5.9 12 9.1 11.2 4.2 16.6 10.1 16.6 19.4 0 10.8-8.2 20.1-25.9 20.1-7.4 0-14.6-2-18.3-3.9l3-12.2z"/><path class="st7" d="M252 104.2V34.7L312 0l60 34.7v69.5L312 139z"/><path class="st1" d="M366.7 101.2L312 132.9l-54.7-31.7V37.8L312 6.1l54.7 31.7z"/><path class="st7" d="M295.2 74.7v20h14.7c5.7 0 9.3-.1 10.9-.4 2.4-.4 4.3-1.4 5.8-3 1.5-1.5 2.2-3.7 2.2-6.3 0-2.2-.6-4.1-1.7-5.7s-2.8-2.7-4.9-3.4c-2.2-.7-6.8-1.1-14.1-1.1l-12.9-.1m0-30.5v17.9h10.3c6.2 0 10-.1 11.4-.3 2.7-.3 4.8-1.2 6.4-2.7 1.5-1.5 2.3-3.5 2.3-6 0-2.4-.7-4.3-2-5.8s-3.3-2.4-5.9-2.7c-1.6-.2-6-.3-13.5-.3l-9-.1zM281 31.7h29.9c5.9 0 10.3.2 13.2.8 2.9.5 5.5 1.5 7.8 3.1s4.2 3.7 5.7 6.4c1.5 2.6 2.3 5.6 2.3 8.9 0 3.6-.9 6.8-2.6 9.8s-4.2 5.2-7.2 6.7c4.1 1.3 7.3 3.6 9.6 6.8 2.2 3.2 3.3 6.9 3.3 11.2 0 3.4-.8 6.7-2.3 9.9-1.6 3.2-3.7 5.8-6.4 7.7-2.7 1.9-6 3.1-10 3.5-2.5.3-8.5.4-18 .5h-25.2l-.1-75.3z"/><path class="st8" d="M624 104.2V34.7L684 0l60 34.7v69.5L684 139z"/><path class="st1" d="M738.7 101.2L684 132.9l-54.7-31.7V37.8L684 6.1l54.7 31.7z"/><path class="st8" d="M675.8 35.5c-3.2 5.6-3.6 12.5-1.7 18.7 1.7 5.9 5.4 11.1 10.1 14.9.1.1.2.1.3.2.4.3.9.7 1.3 1 .2.1.4.3.6.4.1.1.2.1.3.2.3.2.6.4 1 .6.1 0 .1.1.2.1.3.2.5.3.8.5.1.1.2.1.4.2l.6.3c.4.2.8.4 1.3.6.1 0 .2.1.3.1.3.1.7.3 1 .4.1 0 .3.1.4.2.3.1.6.2 1 .3.1 0 .3.1.4.1.5.1.9.3 1.4.4 10.6 2.9 20.6-.8 25.7-8.5 0 0-5.7 19.9-30.4 15.5-.5-.1-.9-.3-1.4-.4-.1 0-.3-.1-.4-.1-.3-.1-.6-.2-1-.3-.1 0-.3-.1-.4-.2-.3-.1-.7-.3-1-.4-.1 0-.2-.1-.3-.1-.4-.2-.8-.4-1.3-.6-.3-.1-.5-.2-.7-.4-.1 0-.2-.1-.3-.2-.3-.2-.6-.3-.9-.5 0 0-.1 0-.1-.1-.3-.2-.7-.4-1-.6-.1 0-.2-.1-.3-.2-.2-.1-.4-.3-.6-.4-.5-.3-.9-.7-1.4-1-.1-.1-.2-.1-.3-.2-.4-.3-.9-.7-1.3-1.1-.4-.4-.8-.7-1.1-1.1l-.3-.3c-.4-.4-.7-.8-1.1-1.1-.9-.8-1.7-2.1-2.5-3.2-.8-1.2-1.5-2.4-2.1-3.7-3.7-7.5-4-17.1.8-24.4l4-5.6z"/><path class="st8" d="M656.5 42.8c-5.8 11.7-3.2 26 4.1 36.3.3.4.5.7.8 1.1.1.1.2.2.2.3.2.3.5.6.7.9.1.1.2.2.2.3.3.4.6.8 1 1.1.4.4.7.8 1 1.1l.3.3c.2.3.5.5.8.8l.3.3c.3.3.7.7 1.1 1 .4.4.8.7 1.1 1 .1.1.2.2.4.3.3.2.5.4.8.7.1.1.3.2.4.3.3.2.6.5.9.7.1.1.2.1.3.2.3.2.6.4 1 .7.1.1.2.2.4.2.4.3.9.6 1.4.9.1.1.2.1.3.2.3.2.7.4 1 .6l.6.3c.3.1.6.3.9.5.1 0 .2.1.3.1.4.2.7.4 1.1.5.1 0 .2.1.3.1.4.2.9.4 1.3.6.1 0 .2.1.3.1.4.2.8.3 1.2.5.6.2 1.1.4 1.6.5.1 0 .2.1.4.1.5.1 1 .3 1.5.4 13.1 3.1 27 .3 34.8-10.2 0 0-9.3 26.1-41.3 20.1-.5-.1-1-.3-1.5-.4-.1 0-.2-.1-.3-.1-.5-.1-.9-.3-1.4-.5-.6-.2-1-.4-1.4-.5-.1 0-.2-.1-.3-.1-.4-.2-.9-.4-1.3-.6-.1 0-.2-.1-.2-.1-.4-.2-.8-.4-1.2-.5-.1 0-.2-.1-.3-.1-.4-.2-.6-.3-.9-.5l-.6-.3c-.3-.2-.7-.4-1-.6-.1-.1-.2-.1-.4-.2-.5-.3-.9-.6-1.4-.9-.1-.1-.2-.2-.4-.2l-.9-.6c-.2-.1-.3-.2-.4-.3-.3-.2-.6-.4-.9-.7-.1-.1-.3-.2-.4-.3-.3-.2-.5-.4-.8-.6-.1-.1-.3-.2-.4-.3-.3-.3-.6-.5-1-.8 0 0-.1-.1-.2-.1-.4-.3-.7-.7-1.1-1l-.3-.3c-.3-.2-.5-.5-.8-.8l-.3-.3c-.3-.3-.6-.7-1-1-.4-.4-.7-.8-1-1.2-.1-.1-.2-.2-.2-.3-.2-.3-.4-.6-.7-.9-.1-.1-.2-.2-.3-.4-.2-.3-.5-.7-.7-1 0-.1-.1-.1-.1-.2-.3-.4-.6-.8-.8-1.2-.1-.1-.1-.2-.2-.4-.2-.3-.4-.6-.5-.9-.1-.1-.2-.3-.3-.5-.2-.3-.3-.6-.5-.8-.1-.2-.2-.3-.3-.5 0-.1-.1-.2-.1-.3-.1-.1-.1-.3-.2-.5s-.2-.5-.4-.7c-5.1-10.5-5.9-23.4.7-33.3l5.2-7.1zM691.3 32c-3.9 7.3-.2 16.3 5.8 21.1 1 .8 2.2 1.5 3.4 2.1.6.3 1.3.6 1.9.8.5.2 1.1.4 1.6.5 6.7 1.7 12.1.5 15.4-4.3-1 1.5-4.7 11.5-18.3 8.7-.3 0-.6-.2-.9-.3-.1 0-.2 0-.3-.1-.2-.1-.4-.1-.6-.2-4.9-1.9-9.2-5.8-11.2-10.9-2-4.8-1.7-10.1 1.1-14.4l2.1-3z"/><path class="st9" d="M748 104.2V34.7L808 0l60 34.7v69.5L808 139z"/><path class="st1" d="M862.7 101.2L808 132.9l-54.7-31.7V37.8L808 6.1l54.7 31.7z"/><path class="st9" d="M789.2 83.9l-5.4 18h-11.9l20.2-63.3h14.7l20.5 63.3h-12.4l-5.7-18h-20zm18.1-8.7l-5-15.5c-1.2-3.8-2.2-8.1-3.2-11.8h-.2c-.9 3.6-1.9 8.1-3 11.8L791 75.2h16.3zm36.8-31.8c0 3.5-2.5 6.2-6.6 6.2-3.8 0-6.4-2.7-6.4-6.2 0-3.6 2.6-6.3 6.5-6.3 4 0 6.4 2.7 6.5 6.3zm-12.2 58.4V56.2h11.6v45.7l-11.6-.1z"/><path class="st10" d="M872 104.2V34.7L932 0l60 34.7v69.5L932 139z"/><path class="st1" d="M986.7 101.2L932 132.9l-54.7-31.7V37.8L932 6.1l54.7 31.7z"/><path class="st10" d="M893.5 38.7c4.1-.7 9.8-1.3 17.4-1.3 8.4 0 14.5 1.8 18.5 5.1 3.7 3.1 6.1 8 6.1 13.8 0 6-1.9 10.9-5.4 14.2-4.6 4.6-11.7 6.7-19.8 6.7-2.1 0-4.1-.1-5.6-.4v23.7h-11.3l.1-61.8zm11.3 29.2c1.4.4 3.3.5 5.6.5 8.5 0 13.7-4.2 13.7-11.5 0-7-4.8-10.7-12.7-10.7-3.2 0-5.4.3-6.6.5v21.2zm35.8 22.2c2.6 1.6 7.5 3.3 11.6 3.3 5 0 7.2-2 7.2-5 0-3.1-1.9-4.7-7.4-6.6-8.8-3.1-12.5-7.9-12.4-13.2 0-8 6.6-14.2 17.1-14.2 5 0 9.4 1.3 12 2.7l-2.2 8.1c-1.9-1.1-5.6-2.6-9.6-2.6-4.1 0-6.3 1.9-6.3 4.7 0 2.9 2.1 4.3 7.9 6.3 8.2 3 12 7.1 12.1 13.8 0 8.2-6.4 14.1-18.4 14.1-5.5 0-10.4-1.3-13.7-3.2l2.1-8.2z"/><path class="st11" d="M376 103.9V34.7L436 0l60 34.7v69.2l-60 34.7z"/><path class="st1" d="M490.7 100.9L436 132.5l-54.8-31.6V37.7L436 6.1l54.7 31.6z"/><path class="st11" d="M425.4 88.7h12.5c2.3 0 4.2 1.1 4.2 2.4s-1.9 2.4-4.2 2.4h-12.5c-2.3 0-4.2-1.1-4.2-2.4s1.9-2.4 4.2-2.4zm-31.9-50.4c0-2.3 1.9-4.2 4.2-4.2h67.8c2.3 0 4.2 1.9 4.2 4.2v43.6c0 2.3-1.9 4.2-4.2 4.2h-67.8c-2.3 0-4.2-1.9-4.2-4.2V38.3zm2.7 2.8c0-2.3 1.9-4.2 4.2-4.2h62.5c2.3 0 4.2 1.9 4.2 4.2v31.8c0 2.3-1.9 4.2-4.2 4.2h-62.5c-2.3 0-4.2-1.9-4.2-4.2V41.1z"/><path class="st12" d="M461.2 77H402c-2.4 0-4.3-1.9-4.3-4.3V43c0-2.4 1.9-4.3 4.3-4.3h59.2c2.4 0 4.3 1.9 4.3 4.3v29.7c.1 2.4-1.9 4.3-4.3 4.3z"/><path class="st11" d="M401.6 66.7h30v1.8h-30zm0-4.9h53.2v1.8h-53.2zm0 9.8h30v1.8h-30z"/><path class="st13" d="M401.6 43.4h18.2v9.7h-18.2z"/><path class="st11" d="M401.6 56.9h64.1v1.8h-64.1z"/><path class="st14" d="M438 66.7h14.6v6.7H438z"/><path class="st15" d="M476.4 88.1h-26V62.2c0-3.2 2.6-5.9 5.9-5.9h20.1v31.8z"/><path class="st11" d="M452.8 62.7c0-2.2 1.8-4 4-4h17.8c2.2 0 4 1.8 4 4v37.7c0 2.2-1.8 4-4 4h-17.8c-2.2 0-4-1.8-4-4V62.7zm3.4 3.6c0-1 .8-1.9 1.9-1.9h15c1 0 1.9.8 1.9 1.9v28.1c0 1-.8 1.9-1.9 1.9h-15c-1 0-1.9-.8-1.9-1.9V66.3z"/><path class="st1" d="M458.2 64.4h15c1 0 1.9.8 1.9 1.9v28.1c0 1-.8 1.9-1.9 1.9h-15c-1 0-1.9-.8-1.9-1.9V66.3c0-1 .8-1.9 1.9-1.9z"/><path class="st11" d="M458.3 76.7h14.6v1h-14.6zm.1 2.7H473v1h-14.6zm-.1 12.4h14.6v1h-14.6z"/><circle class="st1" cx="465.7" cy="99.4" r="1.5"/><path class="st14" d="M458.4 82.1H473v6.7h-14.6z"/><path class="st13" d="M458.3 66.8h14.6v6.7h-14.6z"/><path class="st1" d="M462.7 62h6c1 0 1.9.2 1.9.3s-.8.3-1.9.3h-6c-1 0-1.9-.2-1.9-.3s.8-.3 1.9-.3z"/><path class="st0" d="M996 104.2V34.7L1056 0l60 34.7v69.5l-60 34.8z"/><path class="st1" d="M1110.7 101.2l-54.7 31.7-54.7-31.7V37.8L1056 6.1l54.7 31.7z"/><path class="st3" d="M1120 104.2V34.7L1180 0l60 34.7v69.5l-60 34.8z"/><path class="st1" d="M1234.7 101.2l-54.7 31.7-54.7-31.7V37.8L1180 6.1l54.7 31.7z"/><path class="st5" d="M1492 104.2V34.7L1552 0l60 34.7v69.5l-60 34.8z"/><path class="st1" d="M1606.7 101.2l-54.7 31.7-54.7-31.7V37.8L1552 6.1l54.7 31.7z"/><path class="st7" d="M1244 104.2V34.7L1304 0l60 34.7v69.5l-60 34.8z"/><path class="st1" d="M1358.7 101.2l-54.7 31.7-54.7-31.7V37.8L1304 6.1l54.7 31.7z"/><path class="st8" d="M1616 104.2V34.7L1676 0l60 34.7v69.5l-60 34.8z"/><path class="st1" d="M1730.7 101.2l-54.7 31.7-54.7-31.7V37.8L1676 6.1l54.7 31.7z"/><path class="st9" d="M1740 104.2V34.7L1800 0l60 34.7v69.5l-60 34.8z"/><path class="st1" d="M1854.7 101.2l-54.7 31.7-54.7-31.7V37.8L1800 6.1l54.7 31.7z"/><path class="st10" d="M1864 104.2V34.7L1924 0l60 34.7v69.5l-60 34.8z"/><path class="st1" d="M1978.7 101.2l-54.7 31.7-54.7-31.7V37.8L1924 6.1l54.7 31.7z"/><path class="st11" d="M1368 103.9V34.7L1428 0l60 34.7v69.2l-60 34.7z"/><path class="st1" d="M1482.7 100.9l-54.7 31.6-54.8-31.6V37.7L1428 6.1l54.7 31.6z"/><circle class="st1" cx="1457.7" cy="99.4" r="1.5"/><path class="st6" d="M1017.3 77.1c1.2-1.7 3.2-3 3.2-3-1.1.5-2 .9-3.5.9-5.5 0-9.9-3.8-9.9-9.8 0-6.6 5.2-10.6 11.5-10.6s11.6 3.9 11.6 10.4c0 3.8-1.5 6.6-4.2 10.4l-7.4 10.5h-7.6l6.3-8.8zm6.1-11.9c0-2.4-1.7-4.6-4.7-4.6s-4.7 2.2-4.7 4.6c0 2.4 1.7 4.6 4.7 4.6s4.7-2.2 4.7-4.6zm10.4 2.9c0-8 6.7-13.5 13.9-13.5 7.3 0 13.9 5.5 13.9 13.5 0 7.9-6.7 13.6-13.9 13.6-7.3-.1-13.9-5.7-13.9-13.6zm20.6 0c0-4.7-3-7.5-6.8-7.5s-6.7 2.8-6.7 7.5c0 4.6 3 7.5 6.7 7.5 3.8 0 6.8-2.9 6.8-7.5zm10.1-5.6c0-4.6 3.7-7.9 8.2-7.9s8.2 3.3 8.2 7.9-3.7 7.9-8.2 7.9c-4.5-.1-8.2-3.3-8.2-7.9zm10.8 0c0-1.8-1.3-2.8-2.6-2.8s-2.6 1.1-2.6 2.8c0 1.7 1.3 2.8 2.6 2.8s2.6-1.1 2.6-2.8zm14.3-7.4h6.7l-16.5 26.1h-6.7l16.5-26.1zm-1.2 18.7c0-4.6 3.7-7.9 8.2-7.9s8.2 3.3 8.2 7.9-3.7 7.9-8.2 7.9c-4.5-.1-8.2-3.3-8.2-7.9zm10.9 0c0-1.8-1.3-2.8-2.6-2.8s-2.6 1.1-2.6 2.8 1.3 2.8 2.6 2.8 2.6-1.1 2.6-2.8zm35-2c0-4.1 2.5-6.8 5.9-8.1-2-1.1-3.5-2.9-3.5-5.7 0-3.8 3.4-7.8 9.5-7.8s9.4 4 9.4 7.8c0 2.8-1.5 4.6-3.5 5.7 3.5 1.3 5.9 4 5.9 8.1 0 5.9-4.9 10-11.8 10s-11.9-4.1-11.9-10zm16.4-.5c0-2.6-1.8-4.7-4.7-4.7s-4.7 2.1-4.7 4.7c0 2.5 1.8 4.5 4.7 4.5s4.7-2 4.7-4.5zm-1.9-12.7c0-1.6-1.2-2.7-2.7-2.7s-2.8 1.1-2.8 2.7 1.3 2.7 2.8 2.7 2.7-1.1 2.7-2.7zm10.8 21.2l5.9-3c.8 2 2.2 3.6 5.2 3.6 2.9 0 4.6-2 4.6-4.6 0-2.8-1.8-4.7-5.3-4.7-3 0-5.2 1.3-6.7 2.5l-.6-.3V55.2h17v5.6h-11.4v5.5c.7-.4 2.2-.8 3.7-.8 6.3 0 10.5 4.7 10.5 10.4 0 5.6-3.8 10.5-11.7 10.5-6.1 0-9.8-3.2-11.2-6.6zm25.8-17.2c0-4.6 3.7-7.9 8.2-7.9s8.2 3.3 8.2 7.9-3.7 7.9-8.2 7.9c-4.5-.1-8.2-3.3-8.2-7.9zm10.8 0c0-1.8-1.3-2.8-2.6-2.8s-2.6 1.1-2.6 2.8c0 1.7 1.3 2.8 2.6 2.8s2.6-1.1 2.6-2.8zm14.3-7.4h6.7l-16.5 26.1h-6.7l16.5-26.1zm-1.2 18.7c0-4.6 3.7-7.9 8.2-7.9s8.2 3.3 8.2 7.9-3.7 7.9-8.2 7.9c-4.5-.1-8.2-3.3-8.2-7.9zm10.8 0c0-1.8-1.3-2.8-2.6-2.8s-2.6 1.1-2.6 2.8 1.3 2.8 2.6 2.8 2.6-1.1 2.6-2.8zm658.2 5.7l5.9-3c.8 2 2.2 3.6 5.2 3.6 2.9 0 4.6-2 4.6-4.6 0-2.8-1.8-4.7-5.3-4.7-3 0-5.2 1.3-6.7 2.5l-.6-.3V54.9h17v5.6H1887V66c.7-.4 2.2-.8 3.7-.8 6.3 0 10.5 4.7 10.5 10.4 0 5.6-3.8 10.5-11.7 10.5-6.2.1-9.8-3.1-11.2-6.5zm25.3 0l5.9-3c.8 2 2.2 3.6 5.2 3.6 2.9 0 4.6-2 4.6-4.6 0-2.8-1.8-4.7-5.3-4.7-3 0-5.2 1.3-6.7 2.5l-.6-.3V54.9h17v5.6h-11.4V66c.7-.4 2.2-.8 3.7-.8 6.3 0 10.5 4.7 10.5 10.4 0 5.6-3.8 10.5-11.7 10.5-6.1.1-9.8-3.1-11.2-6.5zm25.8-17.3c0-4.6 3.7-7.9 8.2-7.9s8.2 3.3 8.2 7.9-3.7 7.9-8.2 7.9-8.2-3.3-8.2-7.9zm10.8 0c0-1.8-1.3-2.8-2.6-2.8s-2.6 1.1-2.6 2.8 1.3 2.8 2.6 2.8 2.6-1 2.6-2.8zm14.3-7.4h6.7L1944.6 81h-6.7l16.6-26.1zm-1.2 18.7c0-4.6 3.7-7.9 8.2-7.9s8.2 3.3 8.2 7.9-3.7 7.9-8.2 7.9-8.2-3.3-8.2-7.9zm10.9 0c0-1.8-1.3-2.8-2.6-2.8s-2.6 1.1-2.6 2.8 1.3 2.8 2.6 2.8 2.6-1 2.6-2.8zm-213-2.2c0-3.8 1.5-6.8 4.2-10.4l7.3-10.1h7.6l-6.2 8.5c-1.1 1.5-3.2 3.1-3.2 3.1 1.1-.5 2.3-.9 3.8-.9 5.4 0 9.6 3.7 9.6 9.7 0 6.6-5.2 10.6-11.5 10.6-6.3-.1-11.6-4.3-11.6-10.5zm16.2-.1c0-2.4-1.7-4.6-4.7-4.6s-4.7 2.2-4.7 4.6 1.7 4.6 4.7 4.6 4.7-2.2 4.7-4.6zm10.4-3c0-8 6.7-13.5 13.9-13.5 7.3 0 13.9 5.5 13.9 13.5 0 7.9-6.7 13.6-13.9 13.6-7.3-.1-13.9-5.7-13.9-13.6zm20.6 0c0-4.7-3-7.5-6.8-7.5s-6.7 2.8-6.7 7.5c0 4.6 3 7.6 6.7 7.6 3.8-.1 6.8-3 6.8-7.6zm10.1-5.6c0-4.6 3.7-7.9 8.2-7.9s8.2 3.3 8.2 7.9-3.7 7.9-8.2 7.9c-4.5-.1-8.2-3.3-8.2-7.9zm10.8 0c0-1.8-1.3-2.8-2.6-2.8s-2.6 1.1-2.6 2.8 1.3 2.8 2.6 2.8 2.6-1.1 2.6-2.8zm14.3-7.4h6.7l-16.5 26.1h-6.7l16.5-26.1zm-1.2 18.7c0-4.6 3.7-7.9 8.2-7.9s8.2 3.3 8.2 7.9-3.7 7.9-8.2 7.9c-4.5-.1-8.2-3.3-8.2-7.9zm10.9 0c0-1.8-1.3-2.8-2.6-2.8s-2.6 1.1-2.6 2.8 1.3 2.8 2.6 2.8 2.6-1.1 2.6-2.8zm-323-13.5h-12.5v-5.6h21.6v.5l-13.2 30.3h-7l11.1-25.2zm10.1 7.4c0-8 6.7-13.5 13.9-13.5 7.3 0 13.9 5.5 13.9 13.5 0 7.9-6.7 13.6-13.9 13.6s-13.9-5.7-13.9-13.6zm20.6 0c0-4.7-3-7.5-6.8-7.5s-6.7 2.8-6.7 7.5c0 4.6 3 7.6 6.7 7.6 3.9 0 6.8-2.9 6.8-7.6zm10.2-5.6c0-4.6 3.7-7.9 8.2-7.9s8.2 3.3 8.2 7.9-3.7 7.9-8.2 7.9c-4.5 0-8.2-3.3-8.2-7.9zm10.8 0c0-1.8-1.3-2.8-2.6-2.8s-2.6 1.1-2.6 2.8 1.3 2.8 2.6 2.8 2.6-1 2.6-2.8zm14.3-7.4h6.7L1576.4 81h-6.7l16.6-26.1zm-1.2 18.7c0-4.6 3.7-7.9 8.2-7.9s8.2 3.3 8.2 7.9-3.7 7.9-8.2 7.9c-4.5 0-8.2-3.3-8.2-7.9zm10.8 0c0-1.8-1.3-2.8-2.6-2.8s-2.6 1.1-2.6 2.8 1.3 2.8 2.6 2.8 2.6-1 2.6-2.8zm45.2-13h-12.5V55h21.6v.5L1637 85.8h-7l11.1-25.2zm10.1 7.4c0-8 6.7-13.5 13.9-13.5 7.3 0 13.9 5.5 13.9 13.5 0 7.9-6.7 13.6-13.9 13.6-7.3 0-13.9-5.7-13.9-13.6zm20.6 0c0-4.7-3-7.5-6.8-7.5s-6.7 2.8-6.7 7.5c0 4.6 3 7.6 6.7 7.6 3.9 0 6.8-2.9 6.8-7.6zm10.1-5.6c0-4.6 3.7-7.9 8.2-7.9s8.2 3.3 8.2 7.9-3.7 7.9-8.2 7.9-8.2-3.3-8.2-7.9zm10.9 0c0-1.8-1.3-2.8-2.6-2.8s-2.6 1.1-2.6 2.8c0 1.7 1.3 2.8 2.6 2.8s2.6-1 2.6-2.8zM1707 55h6.7l-16.5 26.1h-6.7L1707 55zm-1.1 18.7c0-4.6 3.7-7.9 8.2-7.9s8.2 3.3 8.2 7.9-3.7 7.9-8.2 7.9-8.2-3.3-8.2-7.9zm10.8 0c0-1.8-1.3-2.8-2.6-2.8s-2.6 1.1-2.6 2.8 1.3 2.8 2.6 2.8 2.6-1 2.6-2.8zm-322.2 3.2c1.2-1.7 3.2-3.1 3.2-3.1-1.1.5-2 .9-3.5.9-5.5 0-9.9-3.8-9.9-9.8 0-6.6 5.2-10.6 11.5-10.6s11.6 3.9 11.6 10.4c0 3.8-1.5 6.6-4.2 10.4l-7.4 10.5h-7.6l6.3-8.7zm6-11.9c0-2.4-1.7-4.6-4.7-4.6s-4.7 2.2-4.7 4.6c0 2.4 1.7 4.6 4.7 4.6s4.7-2.2 4.7-4.6zm8.5 14.6l5.9-3c.8 2 2.2 3.6 5.2 3.6 2.9 0 4.6-2 4.6-4.6 0-2.8-1.8-4.7-5.3-4.7-3 0-5.2 1.3-6.7 2.5l-.6-.3V54.9h17v5.6h-11.4V66c.7-.4 2.2-.8 3.7-.8 6.3 0 10.5 4.7 10.5 10.4 0 5.6-3.8 10.5-11.7 10.5-6.2.1-9.8-3.1-11.2-6.5zm25.8-17.3c0-4.6 3.7-7.9 8.2-7.9s8.2 3.3 8.2 7.9-3.7 7.9-8.2 7.9-8.2-3.3-8.2-7.9zm10.8 0c0-1.8-1.3-2.8-2.6-2.8s-2.6 1.1-2.6 2.8 1.3 2.8 2.6 2.8 2.6-1 2.6-2.8zm14.2-7.4h6.7L1450 81h-6.7l16.5-26.1zm-1.1 18.7c0-4.6 3.7-7.9 8.2-7.9s8.2 3.3 8.2 7.9-3.7 7.9-8.2 7.9c-4.5 0-8.2-3.3-8.2-7.9zm10.8 0c0-1.8-1.3-2.8-2.6-2.8s-2.6 1.1-2.6 2.8 1.3 2.8 2.6 2.8 2.6-1 2.6-2.8zm-204.2 3.6c1.2-1.7 3.2-3.1 3.2-3.1-1.1.5-2 .9-3.5.9-5.5 0-9.9-3.8-9.9-9.8 0-6.6 5.2-10.6 11.5-10.6s11.6 3.9 11.6 10.4c0 3.8-1.5 6.6-4.2 10.4l-7.4 10.5h-7.6l6.3-8.7zm6.1-11.9c0-2.4-1.7-4.6-4.7-4.6s-4.7 2.2-4.7 4.6c0 2.4 1.7 4.6 4.7 4.6s4.7-2.2 4.7-4.6zm10.4 2.9c0-8 6.7-13.5 13.9-13.5 7.3 0 13.9 5.5 13.9 13.5 0 7.9-6.7 13.6-13.9 13.6-7.3-.1-13.9-5.7-13.9-13.6zm20.6 0c0-4.7-3-7.5-6.8-7.5s-6.7 2.8-6.7 7.5c0 4.6 3 7.6 6.7 7.6 3.8-.1 6.8-3 6.8-7.6zm10.1-5.6c0-4.6 3.7-7.9 8.2-7.9s8.2 3.3 8.2 7.9-3.7 7.9-8.2 7.9c-4.5-.1-8.2-3.3-8.2-7.9zm10.8 0c0-1.8-1.3-2.8-2.6-2.8s-2.6 1.1-2.6 2.8c0 1.7 1.3 2.8 2.6 2.8s2.6-1.1 2.6-2.8zm14.3-7.4h6.7l-16.5 26.1h-6.7l16.5-26.1zm-1.2 18.7c0-4.6 3.7-7.9 8.2-7.9s8.2 3.3 8.2 7.9-3.7 7.9-8.2 7.9c-4.5-.1-8.2-3.3-8.2-7.9zm10.9 0c0-1.8-1.3-2.8-2.6-2.8s-2.6 1.1-2.6 2.8 1.3 2.8 2.6 2.8 2.6-1.1 2.6-2.8z"/></svg>