<svg id="Layer_1" xmlns="http://www.w3.org/2000/svg" width="1632" height="116" viewBox="0 0 1632 116"><style>.st0{fill:#e35028}.st1{fill:#fff}.st2{fill:#ed6b42}.st3{fill:#2864ad}.st4{fill:#397ec1}.st5{fill:#5e4588}.st6{fill:#4c4b4b}.st7{fill:#fbfcfd}.st8{fill:#c73089}.st9{fill:#47a2db}.st10{fill:#fdfdfd}.st11{fill:#efda4e}.st12{fill:#343432}.st13{fill:#0c6baf}.st14{fill:#f7a933}.st15{fill:#85b8e4}</style><path class="st0" d="M0 87V29L50 0l50 29v58l-50 29z"/><path class="st1" d="M95.6 84.5L50 110.9 4.4 84.5v-53L50 5.1l45.6 26.4z"/><path class="st0" d="M73.7 88.3L50 94.8l-23.7-6.5-5.5-60.4h58.4z"/><path class="st2" d="M50 31.9v58.2l19.3-5.8 5-52.4z"/><path class="st1" d="M67.4 40.6H32.5l.8 8.2 1.3 14.5h22.7l-.7 8.4-6.6 2.2-6.6-2.3-.4-4.3h-8l1 10.6 14 4.3 14-4 2.1-22.9H42.2l-.5-6.6h25z"/><path class="st0" d="M102 87V29l50-29 50 29v58l-50 29z"/><path class="st1" d="M197.6 84.5L152 110.9l-45.6-26.4v-53L152 5.1l45.6 26.4z"/><path class="st3" d="M204 87V29l50-29 50 29v58l-50 29z"/><path class="st1" d="M299.6 84.5L254 110.9l-45.6-26.4v-53L254 5.1l45.6 26.4z"/><path class="st3" d="M277.7 88.4L254 94.8l-23.7-6.4-5.5-60.5h58.4z"/><path class="st4" d="M254 32v58.1l19.3-5.6 5-52.5z"/><path class="st1" d="M271.4 40.4h-34.9l.8 8.4H254l-16.2 6.3.8 8.3h22.7l-.7 8.4-6.6 2.1-6.6-2.1-.6-4.2H239l1 10.5 14 4.2 14-4.2 2.1-23h-16l16.6-6.3z"/><path class="st3" d="M306 87V29l50-29 50 29v58l-50 29z"/><path class="st1" d="M401.6 84.5L356 110.9l-45.6-26.4v-53L356 5.1l45.6 26.4z"/><path class="st5" d="M408 87V29l50-29 50 29v58l-50 29z"/><path class="st1" d="M503.6 84.5L458 110.9l-45.6-26.4v-53L458 5.1l45.6 26.4z"/><path class="st5" d="M444 62.3V79h12.3c4.8 0 7.7-.1 9.1-.3 2-.3 3.6-1.2 4.8-2.5 1.3-1.3 1.8-3.1 1.8-5.3 0-1.8-.5-3.4-1.4-4.8-.9-1.3-2.3-2.3-4.1-2.8-1.8-.6-5.7-.9-11.8-.9l-10.7-.1m0-25.4v14.9h8.6c5.2 0 8.3-.1 9.5-.3 2.3-.3 4-1 5.3-2.3s1.9-2.9 1.9-5c0-2-.6-3.6-1.7-4.8-1.1-1.3-2.8-2-4.9-2.3-1.3-.2-5-.3-11.3-.3l-7.4.1zm-11.8-10.4h24.9c4.9 0 8.6.2 11 .7 2.4.4 4.6 1.3 6.5 2.6 1.9 1.3 3.5 3.1 4.8 5.3s1.9 4.7 1.9 7.4c0 3-.8 5.7-2.2 8.2-1.4 2.5-3.5 4.3-6 5.6 3.4 1.1 6.1 3 8 5.7 1.8 2.7 2.8 5.8 2.8 9.3 0 2.8-.7 5.6-1.9 8.3-1.3 2.7-3.1 4.8-5.3 6.4s-5 2.6-8.3 2.9c-2.1.3-7.1.3-15 .4h-21l-.2-62.8zM510 87V29l50-29 50 29v58l-50 29z"/><path class="st1" d="M605.6 84.5L560 110.9l-45.6-26.4v-53L560 5.1l45.6 26.4z"/><path class="st6" d="M612 87V29l50-29 50 29v58l-50 29z"/><path class="st1" d="M707.6 84.4L662 110.9l-45.7-26.5V31.6L662 5.1l45.6 26.5z"/><path class="st6" d="M653.2 74.2h10.4c1.9 0 3.5.9 3.5 2s-1.6 2-3.5 2h-10.4c-1.9 0-3.5-.9-3.5-2 0-1 1.6-2 3.5-2zm-26.6-42.1c0-1.9 1.6-3.5 3.5-3.5h56.5c1.9 0 3.5 1.6 3.5 3.5v36.5c0 1.9-1.6 3.5-3.5 3.5h-56.5c-1.9 0-3.5-1.6-3.5-3.5V32.1zm2.2 2.3c0-1.9 1.6-3.5 3.5-3.5h52.1c1.9 0 3.5 1.6 3.5 3.5V61c0 1.9-1.6 3.5-3.5 3.5h-52.1c-1.9 0-3.5-1.6-3.5-3.5V34.4z"/><path class="st7" d="M683 64.4h-49.3c-2 0-3.6-1.6-3.6-3.6V36c0-2 1.6-3.6 3.6-3.6H683c2 0 3.6 1.6 3.6 3.6v24.9c.1 2-1.6 3.5-3.6 3.5z"/><path class="st6" d="M633.3 55.8h25v1.5h-25zm0-4.1h44.3v1.5h-44.3zm0 8.2h25v1.5h-25z"/><path class="st8" d="M657.3 36.3h15.2v8.1h-15.2z"/><path class="st6" d="M633.3 47.6h53.4v1.5h-53.4z"/><path class="st9" d="M663.7 55.8h12.2v5.6h-12.2z"/><path class="st10" d="M695.7 73.7H674V52.1c0-2.7 2.2-4.9 4.9-4.9h16.8v26.5z"/><path class="st6" d="M676 52.5c0-1.8 1.5-3.3 3.3-3.3h14.8c1.8 0 3.3 1.5 3.3 3.3V84c0 1.8-1.5 3.3-3.3 3.3h-14.8c-1.8 0-3.3-1.5-3.3-3.3V52.5zm2.8 3c0-.8.7-1.6 1.6-1.6h12.5c.8 0 1.6.7 1.6 1.6V79c0 .8-.7 1.6-1.6 1.6h-12.5c-.8 0-1.6-.7-1.6-1.6V55.5z"/><path class="st1" d="M680.5 53.9H693c.8 0 1.6.7 1.6 1.6V79c0 .8-.7 1.6-1.6 1.6h-12.5c-.8 0-1.6-.7-1.6-1.6V55.5c0-.8.7-1.6 1.6-1.6z"/><path class="st6" d="M680.6 64.2h12.2v.8h-12.2zm.1 2.3h12.2v.8h-12.2zm-.1 10.3h12.2v.8h-12.2z"/><circle class="st1" cx="686.8" cy="83.2" r="1.3"/><path class="st9" d="M680.7 68.7h12.2v5.6h-12.2z"/><path class="st8" d="M680.6 55.9h12.2v5.6h-12.2z"/><path class="st1" d="M684.3 51.9h5c.8 0 1.6.2 1.6.3s-.7.3-1.6.3h-5c-.8 0-1.6-.2-1.6-.3s.6-.3 1.6-.3z"/><path class="st6" d="M714 87V29l50-29 50 29v58l-50 29z"/><path class="st1" d="M809.6 84.4L764 110.9l-45.7-26.5V31.6L764 5.1l45.6 26.5z"/><path class="st11" d="M816 87V29l50-29 50 29v58l-50 29z"/><path class="st1" d="M911.6 84.5L866 110.9l-45.6-26.4v-53L866 5.1l45.6 26.4z"/><path class="st12" d="M845.4 31h12.1v34c0 15.4-7.3 20.7-19 20.7-3 0-6.5-.4-8.9-1.2l1.4-9.8c1.7.6 3.8 1 6.3 1 5.2 0 8.3-2.3 8.3-10.5l-.2-34.2zm22.7 41.4c3.2 1.7 8.3 3.3 13.4 3.3 5.6 0 8.4-2.3 8.4-5.9 0-3.3-2.5-5.3-9-7.4-8.9-3.2-14.8-8.1-14.8-16.1 0-9 7.8-16 20.4-16 6-.1 10.4 1.2 13.7 2.8l-2.8 9.7c-2.1-1-5.9-2.5-11.1-2.5-5.3 0-7.8 2.5-7.8 5.2 0 3.5 3 4.9 10 7.6 9.3 3.5 13.8 8.4 13.8 16.2 0 9-6.8 16.8-21.6 16.8-6.2 0-12.2-1.7-15.3-3.3l2.7-10.4z"/><path class="st11" d="M918 87V29l50-29 50 29v58l-50 29z"/><path class="st1" d="M1013.6 84.5L968 110.9l-45.6-26.4v-53L968 5.1l45.6 26.4z"/><path class="st13" d="M1020 87V29l50-29 50 29v58l-50 29z"/><path class="st1" d="M1115.6 84.5l-45.6 26.4-45.6-26.4v-53L1070 5.1l45.6 26.4z"/><path class="st13" d="M1063.2 29.6c-2.7 4.7-3 10.4-1.4 15.6 1.4 4.9 4.5 9.3 8.4 12.4l.3.2c.3.3.8.6 1.1.8.2.1.3.3.5.3l.3.2c.3.2.5.3.8.5l.2.1c.3.2.4.3.7.4.1.1.2.1.3.2.2.1.3.2.5.3.3.2.7.3 1.1.5l.3.1c.3.1.6.3.8.3l.3.2c.3.1.5.2.8.3l.3.1c.4.1.8.3 1.2.3 8.8 2.4 17.2-.7 21.4-7.1 0 0-4.8 16.6-25.3 12.9-.4-.1-.8-.3-1.2-.3l-.3-.1c-.2-.1-.5-.2-.8-.3l-.3-.2c-.3-.1-.6-.3-.8-.3l-.3-.1c-.3-.2-.7-.3-1.1-.5-.3-.1-.4-.2-.6-.3l-.3-.2c-.3-.2-.5-.3-.8-.4l-.1-.1c-.2-.2-.6-.3-.8-.5l-.3-.2c-.2-.1-.3-.3-.5-.3-.4-.3-.8-.6-1.2-.8l-.3-.2c-.3-.3-.8-.6-1.1-.9-.3-.3-.7-.6-.9-.9l-.3-.3c-.3-.3-.6-.7-.9-.9-.8-.7-1.4-1.8-2.1-2.7-.7-1-1.3-2-1.8-3.1-3.1-6.3-3.3-14.3.7-20.4l3.5-4.6z"/><path class="st13" d="M1047.1 35.7c-4.8 9.8-2.7 21.7 3.4 30.3.3.3.4.6.7.9l.2.3c.2.3.4.5.6.8l.2.3c.3.3.5.7.8.9.3.3.6.7.8.9l.3.3c.2.3.4.4.7.7l.3.3c.3.3.6.6.9.8.3.3.7.6.9.8l.3.3c.3.2.4.3.7.6l.3.3c.3.2.5.4.8.6l.3.2c.3.2.5.3.8.6.1.1.2.2.3.2.3.3.8.5 1.2.8l.3.2c.3.2.6.3.8.5.2.1.3.2.5.3.3.1.5.3.8.4l.3.1c.3.2.6.3.9.4l.3.1c.3.2.8.3 1.1.5l.3.1c.3.2.7.3 1 .4.5.2.9.3 1.3.4.1 0 .2.1.3.1.4.1.8.3 1.3.3 10.9 2.6 22.5.3 29-8.5 0 0-7.8 21.8-34.4 16.8-.4-.1-.8-.3-1.3-.3l-.3-.1c-.4-.1-.8-.3-1.2-.4-.5-.2-.8-.3-1.2-.4l-.3-.1c-.3-.2-.8-.3-1.1-.5l-.2-.1c-.3-.2-.7-.3-1-.4l-.3-.1c-.3-.2-.5-.3-.8-.4-.2-.1-.3-.2-.5-.3-.3-.2-.6-.3-.8-.5-.1-.1-.2-.1-.3-.2-.4-.3-.8-.5-1.2-.8-.1-.1-.2-.2-.3-.2-.3-.2-.5-.3-.8-.5-.2-.1-.3-.2-.3-.3-.3-.2-.5-.3-.8-.6l-.3-.3c-.3-.2-.4-.3-.7-.5l-.3-.3c-.3-.3-.5-.4-.8-.7l-.2-.1c-.3-.3-.6-.6-.9-.8l-.3-.3c-.3-.2-.4-.4-.7-.7l-.3-.3c-.2-.3-.5-.6-.8-.8-.3-.3-.6-.7-.8-1l-.2-.3c-.2-.3-.3-.5-.6-.8l-.3-.3c-.2-.3-.4-.6-.6-.8l-.1-.2c-.3-.3-.5-.7-.7-1-.1-.1-.1-.2-.2-.3-.2-.3-.3-.5-.4-.8-.1-.1-.2-.3-.3-.4-.2-.3-.3-.5-.4-.7s-.2-.3-.3-.4l-.1-.3c-.1-.1-.1-.3-.2-.4l-.3-.6c-4.3-8.8-4.9-19.5.6-27.8l4.6-5.9zm29-9c-3.3 6.1-.2 13.6 4.8 17.6.8.7 1.8 1.3 2.8 1.8.5.3 1.1.5 1.6.7.4.2.9.3 1.3.4 5.6 1.4 10.1.4 12.8-3.6-.8 1.3-3.9 9.6-15.3 7.3-.3 0-.5-.2-.8-.3l-.3-.1c-.2-.1-.3-.1-.5-.2-4.1-1.6-7.7-4.8-9.3-9.1-1.7-4-1.4-8.4.9-12l2-2.5zM1122 87V29l50-29 50 29v58l-50 29z"/><path class="st1" d="M1217.6 84.5l-45.6 26.4-45.6-26.4v-53L1172 5.1l45.6 26.4z"/><path class="st14" d="M1224 87V29l50-29 50 29v58l-50 29z"/><path class="st1" d="M1319.6 84.5l-45.6 26.4-45.6-26.4v-53L1274 5.1l45.6 26.4z"/><path class="st14" d="M1258.3 70l-4.5 15h-9.9l16.8-52.8h12.3l17.1 52.8h-10.3l-4.8-15h-16.7zm15.1-7.2l-4.2-12.9c-1-3.2-1.8-6.8-2.7-9.8h-.2c-.8 3-1.6 6.8-2.5 9.8l-4.1 12.9h13.7zm30.7-26.6c0 2.9-2.1 5.2-5.5 5.2-3.2 0-5.3-2.3-5.3-5.2 0-3 2.2-5.3 5.4-5.3 3.3.1 5.3 2.3 5.4 5.3zM1293.9 85V46.9h9.7V85h-9.7zm32.1 2V29l50-29 50 29v58l-50 29z"/><path class="st1" d="M1421.6 84.5l-45.6 26.4-45.6-26.4v-53L1376 5.1l45.6 26.4z"/><path class="st15" d="M1428 87V29l50-29 50 29v58l-50 29z"/><path class="st1" d="M1523.6 84.5l-45.6 26.4-45.6-26.4v-53L1478 5.1l45.6 26.4z"/><path class="st15" d="M1445.9 32.3c3.4-.6 8.2-1.1 14.5-1.1 7 0 12.1 1.5 15.4 4.3 3.1 2.6 5.1 6.7 5.1 11.5 0 5-1.6 9.1-4.5 11.9-3.8 3.8-9.8 5.6-16.5 5.6-1.8 0-3.4-.1-4.7-.3V84h-9.4l.1-51.7zm9.4 24.4c1.2.3 2.7.4 4.7.4 7.1 0 11.4-3.5 11.4-9.6 0-5.8-4-8.9-10.6-8.9-2.7 0-4.5.3-5.5.4v17.7zm29.9 18.5c2.2 1.3 6.3 2.8 9.7 2.8 4.2 0 6-1.7 6-4.2 0-2.6-1.6-3.9-6.2-5.5-7.3-2.6-10.4-6.6-10.3-11 0-6.7 5.5-11.9 14.3-11.9 4.2 0 7.8 1.1 10 2.3l-1.8 6.8c-1.6-.9-4.7-2.2-8-2.2-3.4 0-5.3 1.6-5.3 3.9 0 2.4 1.8 3.6 6.6 5.3 6.8 2.5 10 5.9 10.1 11.5 0 6.8-5.3 11.8-15.3 11.8-4.6 0-8.7-1.1-11.4-2.7l1.6-6.9zM1530 87V29l50-29 50 29v58l-50 29z"/><path class="st1" d="M1625.6 84.5l-45.6 26.4-45.6-26.4v-53L1580 5.1l45.6 26.4z"/><path d="M519.8 65.3h-1.9V51.7h5.4c.5 0 1 .1 1.5.3s.9.5 1.2.8.6.8.8 1.2.3 1 .3 1.5c0 .3 0 .6-.1.9-.1.3-.2.6-.4.9-.1.3-.3.5-.5.7s-.4.3-.6.3h.2l.2.1.3.1.2.2c.4.4.7.8.9 1.3s.4 1 .4 1.6c0 .5-.1 1.1-.3 1.5-.2.5-.5.9-.8 1.2-.4.4-.8.6-1.2.8-.5.2-1 .3-1.5.3l-4.1-.1zm0-11.8v3.9h3.5c.3 0 .5-.1.8-.2.2-.1.4-.2.6-.4.2-.2.3-.4.4-.6.1-.2.2-.5.2-.8s-.1-.5-.2-.8c-.1-.2-.2-.4-.4-.6-.2-.2-.4-.3-.6-.4-.2-.1-.5-.2-.8-.2l-3.5.1zm4 9.9c.3 0 .6-.1.8-.2.2-.1.5-.3.6-.4.2-.2.3-.4.4-.7.1-.2.2-.5.2-.8s-.1-.5-.2-.8c-.1-.2-.3-.5-.4-.6-.2-.2-.4-.3-.6-.4-.2-.1-.5-.2-.8-.2h-4v4.1h4zm5.7-3.1c0-.7.1-1.4.4-2 .3-.6.6-1.2 1.1-1.6.5-.5 1-.8 1.6-1.1s1.3-.4 2-.4 1.4.1 2 .4c.6.3 1.2.6 1.6 1.1.5.5.8 1 1.1 1.6s.4 1.3.4 2-.1 1.4-.4 2c-.3.6-.6 1.2-1.1 1.6-.5.5-1 .8-1.6 1.1s-1.3.4-2 .4-1.4-.1-2-.4-1.2-.6-1.6-1.1c-.5-.5-.8-1-1.1-1.6-.3-.6-.4-1.3-.4-2zm1.8 0c0 .5.1.9.3 1.3.2.4.4.7.7 1s.6.5 1 .7.8.3 1.3.3.9-.1 1.3-.3c.4-.2.7-.4 1-.7s.5-.6.7-1 .3-.8.3-1.3-.1-.9-.3-1.3c-.2-.4-.4-.7-.7-1s-.6-.5-1-.7-.8-.3-1.3-.3-.9.1-1.3.3c-.4.2-.7.4-1 .7s-.5.6-.7 1c-.2.4-.3.8-.3 1.3zm9.8 0c0-.7.1-1.4.4-2 .3-.6.6-1.2 1.1-1.6.5-.5 1-.8 1.6-1.1s1.3-.4 2-.4 1.4.1 2 .4c.6.3 1.2.6 1.6 1.1.5.5.8 1 1.1 1.6s.4 1.3.4 2-.1 1.4-.4 2c-.3.6-.6 1.2-1.1 1.6-.5.5-1 .8-1.6 1.1s-1.3.4-2 .4-1.4-.1-2-.4-1.2-.6-1.6-1.1c-.5-.5-.8-1-1.1-1.6-.2-.6-.4-1.3-.4-2zm1.9 0c0 .5.1.9.3 1.3.2.4.4.7.7 1s.6.5 1 .7.8.3 1.3.3.9-.1 1.3-.3c.4-.2.7-.4 1-.7s.5-.6.7-1 .3-.8.3-1.3-.1-.9-.3-1.3c-.2-.4-.4-.7-.7-1s-.6-.5-1-.7-.8-.3-1.3-.3-.9.1-1.3.3c-.4.2-.7.4-1 .7s-.5.6-.7 1c-.3.4-.3.8-.3 1.3zm12.7 2.5v.3c0 .1.1.2.1.3l.2.2c.1.1.2.1.3.1h.2c.3-.1.5-.1.7-.1.3 0 .5.1.7.2s.4.3.5.5l.2.3c-.1.1-.3.2-.5.3l-.6.3c-.2.1-.4.1-.7.2-.2.1-.4.1-.6.1-.4 0-.8-.1-1.1-.2s-.6-.3-.8-.6c-.2-.2-.4-.5-.5-.8s-.2-.7-.2-1.1v-5.7h-1.7v-1c0-.5.5-.8 1.5-.8h.2v-2.1c0-.2 0-.4.1-.6 0-.2.1-.3.2-.5s.1-.3.2-.4h1.4v3.5h2.8V57h-2.8v5.8h.2zm4.5.3c.1-.1.3-.1.4-.2.1 0 .2-.1.4-.1s.3 0 .5.1c.1.1.3.2.5.3.1.1.3.2.5.2s.3.1.5.1.4 0 .6-.1.4-.1.5-.3c.2-.1.3-.3.4-.4.1-.2.1-.4.1-.6 0-.2 0-.3-.1-.5-.1-.1-.1-.2-.3-.3-.1-.1-.3-.2-.5-.3s-.5-.2-.8-.3-.7-.3-1-.4c-.3-.2-.6-.3-.9-.6-.3-.2-.5-.5-.6-.8-.2-.3-.2-.7-.2-1.1 0-.4.1-.7.3-1.1.2-.3.4-.6.7-.9.3-.2.6-.4 1-.6.4-.1.7-.2 1.1-.2.4 0 .7.1 1.1.2.3.1.6.3.8.5s.4.3.6.5c.1.2.2.3.3.3l-.4.4c-.3.2-.6.3-.9.3-.1 0-.3 0-.4-.1-.1-.1-.3-.1-.5-.2-.1-.1-.3-.1-.4-.1-.2 0-.5 0-.6.1-.2.1-.3.2-.4.3s-.2.2-.2.3-.1.2-.1.3c0 .2 0 .3.1.5.1.1.2.2.4.3s.3.2.5.2c.2.1.4.1.6.2.4.1.7.3 1.1.4.4.2.7.4.9.6.3.2.5.5.7.9.2.3.2.7.2 1.2 0 .4-.1.8-.3 1.2s-.4.7-.7 1c-.3.3-.7.5-1.1.7-.4.2-.9.3-1.4.3-.3 0-.7 0-1-.1s-.6-.2-.9-.4c-.3-.2-.5-.4-.8-.6-.2-.2-.4-.5-.6-.8l.3-.3zm10.8-.3v.3c0 .1.1.2.1.3l.2.2c.1.1.2.1.3.1h.2c.3-.1.5-.1.7-.1.3 0 .5.1.7.2s.4.3.5.5l.2.3c-.1.1-.3.2-.5.3l-.6.3c-.2.1-.4.1-.7.2-.2.1-.4.1-.6.1-.4 0-.8-.1-1.1-.2s-.6-.3-.8-.6c-.2-.2-.4-.5-.5-.8s-.2-.7-.2-1.1v-5.7h-1.7v-1c0-.5.5-.8 1.5-.8h.2v-2.1c0-.2 0-.4.1-.6 0-.2.1-.3.2-.5s.1-.3.2-.4h1.4v3.5h2.8V57H571v5.8zm6.4-7.5l.1.2c0 .1.1.2.1.3v1c.1-.2.3-.4.5-.6.2-.2.4-.4.7-.5s.5-.3.8-.4c.3-.1.6-.1.9-.1.5 0 1 .1 1.5.3l-.1.8c-.1.3-.2.5-.3.6-.2.1-.4.2-.7.2h-.4c-.4 0-.7.1-1.1.2-.3.1-.6.3-.9.4s-.5.4-.6.6c-.2.2-.2.5-.3.7v6.3h-1.9v-10h1.7zm5.7 1.5c.1-.1.1-.2.2-.3l.3-.3c.1-.1.2-.2.4-.3l1.2-.6c.4-.1.9-.2 1.5-.2.5 0 1 .1 1.4.2s.8.3 1 .6c.3.2.5.5.7.8s.3.7.4 1.1c.1.4.2.8.2 1.2s.1.8.1 1.3v5H589c-.1-.1-.2-.2-.2-.4s-.1-.3-.1-.4v-.3c-.2.2-.4.3-.6.5-.3.1-.5.3-.8.4s-.5.2-.8.2c-.3.1-.5.1-.7.1-.5 0-1-.1-1.4-.2s-.8-.3-1.1-.6-.5-.6-.7-1-.2-.8-.2-1.2c0-.5.1-.9.3-1.3.2-.4.5-.7.8-1 .4-.3.9-.5 1.4-.7.6-.2 1.2-.2 2-.2h1.7c0-.5-.1-.9-.2-1.2-.1-.3-.3-.5-.5-.7s-.4-.3-.6-.4c-.2-.1-.5-.1-.7-.1-.3 0-.6 0-.7.1-.2.1-.3.1-.5.2-.1.1-.3.1-.4.2-.1.1-.3.1-.5.1s-.3 0-.5-.1c-.1-.1-.3-.1-.4-.2l-.5-.3zm2.6 6.8c.2 0 .5 0 .7-.1.3 0 .5-.1.8-.2s.5-.2.8-.3.5-.2.7-.4V61H587c-.4 0-.8 0-1.1.1s-.6.1-.9.2c-.3.1-.4.3-.6.4-.1.2-.2.4-.2.7 0 .2 0 .4.1.6.1.2.2.3.3.4.1.1.3.2.5.2h.6zm9-8.3l.1.2c0 .1.1.2.1.3v.7c0-.2.1-.3.2-.5.1-.1.2-.2.4-.3s.3-.2.5-.2c.2-.1.4-.1.6-.2.2 0 .4-.1.5-.1h.4c.7 0 1.4.1 2 .4.6.3 1.1.6 1.6 1.1.4.5.8 1 1 1.6.3.6.4 1.3.4 2s-.1 1.4-.4 2c-.3.6-.6 1.2-1 1.6-.4.5-1 .8-1.6 1.1s-1.3.4-2 .4h-.7c-.3 0-.4-.1-.7-.2-.2-.1-.4-.2-.7-.3-.2-.1-.4-.3-.6-.5v4.1h-1.9V55.3h1.8zm2.9 8.3c.5 0 .9-.1 1.3-.3.4-.2.7-.4 1-.7s.5-.6.6-1c.2-.4.2-.8.2-1.3s-.1-.9-.2-1.3c-.2-.4-.4-.7-.6-1-.3-.3-.6-.5-1-.7s-.8-.3-1.3-.3-1 .1-1.4.3-.9.5-1.2.8v4.4c.3.3.7.6 1.2.8.4.2.9.3 1.4.3zm124.5-7.8h-1.7V43.6h4.4c.5 0 1 .1 1.4.3s.8.4 1.1.8c.3.3.6.7.8 1.1s.3.9.3 1.4c0 .4-.1.8-.2 1.1-.1.4-.3.7-.5 1s-.5.6-.8.8-.6.4-1 .5l3.9 5.2h-1.2c-.3 0-.6-.1-.9-.2-.3-.1-.5-.3-.6-.6l-3.2-4.3h-1.8v5.1zm0-10.5V49h2.7c.3 0 .5 0 .7-.1s.4-.2.6-.4.3-.4.4-.6c.1-.2.1-.5.1-.7 0-.3 0-.5-.1-.7s-.2-.4-.4-.6c-.2-.2-.4-.3-.6-.4-.2-.1-.5-.1-.7-.1h-2.7v-.1zm17.1 5.3c0 .2 0 .4-.1.5-.1.2-.2.3-.3.4-.1.1-.2.2-.4.3-.1.1-.3.1-.4.1h-6.2c.1.3.2.7.3 1 .2.3.4.6.7.8s.6.4.9.5c.3.1.7.2 1 .2s.5 0 .8-.1c.2-.1.5-.2.7-.3.1-.1.2-.1.3-.1h.4c.2 0 .3 0 .5.1.1.1.3.2.4.3l.3.3c-.4.5-.9.8-1.5 1.1s-1.2.4-1.9.4c-.6 0-1.2-.1-1.8-.4s-1-.6-1.5-1c-.4-.4-.7-.9-1-1.5-.2-.6-.4-1.2-.4-1.8s.1-1.2.4-1.8c.2-.6.6-1 1-1.5.4-.4.9-.7 1.5-1 .6-.2 1.2-.4 1.8-.4.5 0 1 .1 1.5.3s.9.4 1.3.7c.4.3.7.7 1 1.1s.5.9.6 1.4v.2l.1.2zm-6.8-.4h5c-.1-.3-.3-.5-.4-.7l-.6-.6c-.2-.2-.5-.3-.8-.4-.3-.1-.6-.1-.9-.1-.3 0-.7.1-1 .2-.3.1-.6.3-.8.4-.2.2-.5.4-.6.7-.2.3-.3.5-.4.8 0-.1.1-.1.2-.2s.2-.1.3-.1zm8.4 3.7c.1-.1.2-.1.3-.1s.2-.1.3-.1.3 0 .4.1.3.2.5.3c.1.1.3.2.4.2.2 0 .3.1.5.1s.4 0 .5-.1c.2-.1.3-.1.5-.2.1-.1.2-.2.3-.4s.1-.3.1-.5 0-.3-.1-.4c0-.1-.1-.2-.3-.3-.1-.1-.3-.2-.5-.3s-.5-.2-.8-.3-.6-.2-.9-.4c-.3-.1-.6-.3-.8-.5s-.4-.4-.6-.7c-.1-.3-.2-.6-.2-1 0-.3.1-.7.2-1 .2-.3.4-.6.6-.8.3-.2.6-.4.9-.5.3-.1.7-.2 1-.2s.7.1.9.2c.3.1.5.3.7.4.2.2.4.3.5.5.1.1.2.2.2.3l-.4.3c-.2.2-.5.3-.8.3-.1 0-.2 0-.4-.1-.1 0-.3-.1-.4-.2-.1-.1-.2-.1-.4-.1s-.4 0-.5.1-.3.1-.3.2c-.1.1-.1.2-.2.3 0 .1-.1.2-.1.2 0 .2 0 .3.1.4l.3.3c.1.1.3.2.5.2.2.1.3.1.5.2.3.1.7.2 1 .4.3.1.6.3.8.5s.4.5.6.8c.1.3.2.7.2 1.1 0 .4-.1.7-.2 1.1l-.6.9c-.3.3-.6.5-1 .6-.4.2-.8.2-1.2.2-.3 0-.6 0-.9-.1-.3-.1-.6-.2-.8-.4-.3-.2-.5-.3-.7-.6-.2-.2-.4-.5-.5-.8l.8-.1zm8.9-7l.1.2.1.2v.6c0-.2.1-.3.2-.4l.3-.3c.1-.1.3-.2.5-.2.2-.1.3-.1.5-.1s.3-.1.5-.1h.4c.6 0 1.2.1 1.8.4.5.2 1 .6 1.4 1s.7.9.9 1.5.3 1.2.3 1.8-.1 1.2-.3 1.8-.5 1-.9 1.5c-.4.4-.9.7-1.4 1-.5.2-1.1.4-1.8.4h-.6c-.2 0-.4-.1-.6-.1l-.6-.3c-.2-.1-.4-.3-.5-.4v3.7h-1.7V46.9h1.4zm2.6 7.4c.4 0 .8-.1 1.1-.2s.6-.4.9-.6l.6-.9c.1-.4.2-.7.2-1.1 0-.4-.1-.8-.2-1.1-.1-.4-.3-.7-.6-.9-.2-.3-.5-.5-.9-.6s-.7-.2-1.1-.2c-.4 0-.9.1-1.3.3-.4.2-.8.4-1.1.7v4c.3.3.6.5 1.1.7.4-.2.9-.1 1.3-.1zm5.6-3c0-.6.1-1.2.4-1.8.2-.6.6-1 1-1.5.4-.4.9-.7 1.5-1 .6-.2 1.2-.4 1.8-.4s1.2.1 1.8.4c.6.2 1 .6 1.5 1 .4.4.7.9 1 1.5.2.6.4 1.2.4 1.8s-.1 1.2-.4 1.8c-.2.6-.6 1-1 1.5-.4.4-.9.7-1.5 1-.6.2-1.2.4-1.8.4s-1.2-.1-1.8-.4-1-.6-1.5-1c-.4-.4-.7-.9-1-1.5-.3-.5-.4-1.1-.4-1.8zm1.6 0c0 .4.1.8.2 1.1.2.4.4.7.6.9.3.3.6.5.9.6.4.2.7.2 1.1.2.4 0 .8-.1 1.1-.2s.7-.4.9-.6c.3-.3.5-.6.6-.9.2-.4.2-.7.2-1.1 0-.4-.1-.8-.2-1.1-.2-.4-.4-.7-.6-.9-.3-.3-.6-.5-.9-.6s-.7-.2-1.1-.2c-.4 0-.8.1-1.1.2-.4.2-.7.4-.9.6-.3.3-.5.6-.6.9-.1.3-.2.7-.2 1.1zm10.8-4.4l.1.2.1.2v.7c.1-.2.2-.4.4-.5.2-.2.4-.3.6-.4.2-.1.5-.2.7-.2.3-.1.5-.1.8-.1.5 0 1 .1 1.4.3s.8.4 1.1.8c.3.3.5.8.7 1.2.2.5.2 1.1.2 1.7v5.1h-1.7v-5.1c0-.7-.1-1.3-.4-1.7-.3-.4-.7-.6-1.3-.6-.3 0-.7 0-1 .1s-.6.2-.8.3-.4.3-.6.5c-.1.2-.2.4-.2.6v6h-1.7v-8.9h1.6v-.2zm8.3 7c.1-.1.2-.1.3-.1s.2-.1.3-.1.3 0 .4.1.3.2.5.3c.1.1.3.2.4.2.2 0 .3.1.5.1s.4 0 .5-.1c.2-.1.3-.1.5-.2.1-.1.2-.2.3-.4s.1-.3.1-.5 0-.3-.1-.4c0-.1-.1-.2-.3-.3-.1-.1-.3-.2-.5-.3s-.5-.2-.8-.3-.6-.2-.9-.4c-.3-.1-.6-.3-.8-.5s-.4-.4-.6-.7c-.1-.3-.2-.6-.2-1 0-.3.1-.7.2-1 .2-.3.4-.6.6-.8.3-.2.6-.4.9-.5.3-.1.7-.2 1-.2s.7.1.9.2c.3.1.5.3.7.4.2.2.4.3.5.5.1.1.2.2.2.3l-.4.3c-.2.2-.5.3-.8.3-.1 0-.2 0-.4-.1-.1 0-.3-.1-.4-.2-.1-.1-.2-.1-.4-.1s-.4 0-.5.1-.3.1-.3.2c-.1.1-.1.2-.2.3 0 .1-.1.2-.1.2 0 .2 0 .3.1.4l.3.3c.1.1.3.2.5.2.2.1.3.1.5.2.3.1.7.2 1 .4.3.1.6.3.8.5s.4.5.6.8c.1.3.2.7.2 1.1 0 .4-.1.7-.2 1.1l-.6.9c-.3.3-.6.5-1 .6-.4.2-.8.2-1.2.2-.3 0-.6 0-.9-.1-.3-.1-.6-.2-.8-.4-.3-.2-.5-.3-.7-.6-.2-.2-.4-.5-.5-.8l.8-.1zm7.3-9.3c0-.2 0-.3.1-.4s.1-.3.2-.4c.1-.1.2-.2.4-.2.1-.1.3-.1.4-.1.2 0 .3 0 .4.1.1.1.3.1.4.2.1.1.2.2.2.4s.1.3.1.4c0 .2 0 .3-.1.4-.1.1-.1.3-.2.4-.1.1-.2.2-.4.2-.1.1-.3.1-.4.1-.2 0-.3 0-.4-.1-.1-.1-.3-.1-.4-.2-.1-.1-.2-.2-.2-.4 0-.1-.1-.2-.1-.4zm2 2.3v8.9h-1.7v-8.9h1.7zm1.1 0h1c.3 0 .5.1.7.2s.4.3.5.6l2.4 5.5c0 .1.1.2.1.4 0 .1 0 .3.1.4 0-.3.1-.5.2-.8l2.4-5.5c.1-.2.3-.4.5-.6.2-.1.5-.2.7-.2h1l-3.9 8.9h-1.6l-4.1-8.9zm18.6 3.7c0 .2 0 .4-.1.5-.1.2-.2.3-.3.4-.1.1-.2.2-.4.3-.1.1-.3.1-.4.1h-6.2c.1.3.2.7.3 1 .2.3.4.6.7.8s.6.4.9.5c.3.1.7.2 1 .2s.5 0 .8-.1c.2-.1.5-.2.7-.3.1-.1.2-.1.3-.1h.4c.2 0 .3 0 .5.1.1.1.3.2.4.3l.3.3c-.4.5-.9.8-1.5 1.1s-1.2.4-1.9.4c-.6 0-1.2-.1-1.8-.4s-1-.6-1.5-1c-.4-.4-.7-.9-1-1.5-.2-.6-.4-1.2-.4-1.8s.1-1.2.4-1.8c.2-.6.6-1 1-1.5.4-.4.9-.7 1.5-1 .6-.2 1.2-.4 1.8-.4.5 0 1 .1 1.5.3s.9.4 1.3.7c.4.3.7.7 1 1.1s.5.9.6 1.4v.2l.1.2zm-6.8-.4h5c-.1-.3-.3-.5-.4-.7l-.6-.6c-.2-.2-.5-.3-.8-.4-.3-.1-.6-.1-.9-.1-.3 0-.7.1-1 .2-.3.1-.6.3-.8.4-.2.2-.5.4-.6.7-.2.3-.3.5-.4.8 0-.1.1-.1.2-.2s.2-.1.3-.1zm-62.7 26V64h4.6c.6 0 1.1.1 1.6.2s1 .4 1.5.6c.5.3.9.6 1.2 1 .4.4.7.8 1 1.2.3.5.5.9.6 1.5.1.5.2 1.1.2 1.6 0 .6-.1 1.1-.2 1.6s-.4 1-.6 1.5c-.3.5-.6.9-1 1.2-.4.4-.8.7-1.2 1-.5.3-.9.5-1.5.6-.5.1-1.1.2-1.6.2h-4.6zm4.6-1.7c.6 0 1.2-.1 1.7-.3.5-.2 1-.5 1.4-.9s.7-.9.9-1.4.3-1.1.3-1.7-.1-1.2-.3-1.7-.5-1-.9-1.4-.9-.7-1.4-.9c-.5-.2-1.1-.3-1.7-.3h-2.9v8.8h2.9v-.2zm16.5-3.5c0 .2 0 .4-.1.5-.1.2-.2.3-.3.4s-.2.2-.4.3c-.1.1-.3.1-.4.1h-6.2c.1.3.2.7.3 1 .2.3.4.6.7.8s.6.4.9.5c.3.1.7.2 1 .2s.5 0 .8-.1.5-.2.7-.3c.1-.1.2-.1.3-.1h.4c.2 0 .3 0 .5.1.1.1.3.2.4.3l.3.3c-.4.5-.9.8-1.5 1.1-.6.3-1.2.4-1.9.4-.6 0-1.2-.1-1.8-.4-.6-.2-1-.6-1.5-1-.4-.4-.7-.9-1-1.5-.2-.6-.4-1.2-.4-1.8 0-.6.1-1.2.4-1.8.2-.6.6-1 1-1.5.4-.4.9-.7 1.5-1 .6-.2 1.2-.4 1.8-.4.5 0 1 .1 1.5.3.5.2.9.4 1.3.7s.7.7 1 1.1.5.9.6 1.4v.2l.1.2zm-6.7-.4h5c-.1-.3-.3-.5-.4-.7l-.6-.6c-.2-.2-.5-.3-.8-.4s-.6-.1-.9-.1c-.3 0-.7.1-1 .2s-.6.3-.8.4c-.2.2-.5.4-.6.7-.2.3-.3.5-.4.8 0-.1.1-.1.2-.2 0-.1.1-.1.3-.1zm8.3 3.7c.1-.1.2-.1.3-.1s.2-.1.3-.1.3 0 .4.1.3.2.5.3c.1.1.3.2.4.2.2 0 .3.1.5.1s.4 0 .5-.1c.2-.1.3-.1.5-.2.1-.1.2-.2.3-.4.1-.2.1-.3.1-.5s0-.3-.1-.4c0-.1-.1-.2-.3-.3s-.3-.2-.5-.3c-.2-.1-.5-.2-.8-.3-.3-.1-.6-.2-.9-.4-.3-.1-.6-.3-.8-.5s-.4-.4-.6-.7c-.1-.3-.2-.6-.2-1 0-.3.1-.7.2-1 .2-.3.4-.6.6-.8.3-.2.6-.4.9-.5s.7-.2 1-.2.7.1.9.2.5.3.7.4c.2.2.4.3.5.5.1.1.2.2.2.3l-.4.3c-.2.2-.5.3-.8.3-.1 0-.2 0-.4-.1-.1 0-.3-.1-.4-.2-.1-.1-.2-.1-.4-.1s-.4 0-.5.1-.3.1-.3.2c-.1.1-.1.2-.2.3 0 .1-.1.2-.1.2 0 .2 0 .3.1.4l.3.3c.1.1.3.2.5.2.2.1.3.1.5.2.3.1.7.2 1 .4.3.1.6.3.8.5s.4.5.6.8c.1.3.2.7.2 1.1s-.1.8-.2 1.1l-.6.9c-.2.3-.6.5-1 .6-.4.2-.8.2-1.2.2-.3 0-.6 0-.9-.1-.3-.1-.6-.2-.8-.4-.3-.2-.5-.3-.7-.6-.2-.2-.4-.5-.5-.8l.8-.1zm7.4-9.3c0-.2 0-.3.1-.4s.1-.3.2-.4.2-.2.4-.2c.1-.1.3-.1.4-.1.2 0 .3 0 .4.1.1.1.3.1.4.2s.2.2.2.4c.1.1.1.3.1.4 0 .2 0 .3-.1.4s-.1.3-.2.4c-.1.1-.2.2-.4.2-.1.1-.3.1-.4.1-.2 0-.3 0-.4-.1-.1-.1-.3-.1-.4-.2-.1-.1-.2-.2-.2-.4s-.1-.2-.1-.4zm2 2.3v8.9h-1.7v-8.9h1.7zm9.9 1.1c-.1.2-.2.4-.4.5s-.5.2-.8.2c.1.2.2.4.2.7.1.2.1.5.1.7 0 .5-.1.9-.3 1.3s-.4.8-.7 1.1c-.3.3-.7.5-1.1.7-.4.2-.8.3-1.3.3s-1-.1-1.5-.3c-.2.1-.3.3-.4.3l-.1.2v.1c0 .1.1.1.3.1.1 0 .3.1.5.1h1.2c.4 0 .8 0 1.2.1.4 0 .8.1 1.1.2.5.2.8.4 1.1.8.2.3.4.7.4 1.2 0 .4-.1.7-.2 1-.1.3-.3.5-.6.8-.3.2-.6.4-1 .5s-.8.2-1.3.2c-.4 0-.8 0-1.2-.1s-.8-.1-1.1-.2c-.4-.1-.7-.2-1-.3s-.6-.2-.9-.4l.2-.6c.1-.2.2-.4.4-.5s.4-.2.7-.2c.1 0 .3 0 .4.1.1 0 .3.1.4.1.1 0 .1.1.3.1.1 0 .3.1.5.1.2.1.4.1.6.1.2 0 .5.1.8.1h.5c.2 0 .3-.1.5-.1.2-.1.3-.1.4-.3.1-.1.2-.2.2-.4 0-.1 0-.2-.1-.3 0-.1-.1-.1-.3-.2s-.5-.1-.8-.2c-.3 0-.6 0-.9-.1h-1c-.3 0-.6-.1-.9-.1-.3-.1-.6-.2-.8-.3-.2-.1-.4-.3-.6-.6-.1-.2-.2-.4-.2-.6s.1-.5.3-.8.5-.5.9-.7c-.3-.3-.6-.7-.8-1.1s-.3-.9-.3-1.4.1-.9.3-1.3.4-.8.7-1.1c.3-.3.7-.5 1.1-.7.4-.2.8-.3 1.3-.3.4 0 .7.1 1 .2s.6.3.9.5c.1-.1.3-.1.4-.2.2-.1.4-.1.7-.1.2 0 .4 0 .6.1.2 0 .5.1.8.2l-.4.8zm-6 2.1c0 .2 0 .5.1.7s.2.4.4.5c.2.2.3.3.5.4s.4.1.7.1c.2 0 .5 0 .7-.1s.4-.2.5-.4c.2-.2.3-.3.4-.5.1-.2.1-.4.1-.7 0-.2 0-.5-.1-.7s-.2-.4-.4-.5c-.2-.2-.3-.3-.5-.4s-.4-.1-.7-.1c-.2 0-.5 0-.7.1s-.4.2-.5.4c-.2.2-.3.3-.4.5-.1.2-.1.4-.1.7zm9-3.2l.1.2.1.2v.7c.1-.2.2-.4.4-.5.2-.2.4-.3.6-.4.2-.1.5-.2.7-.2.3-.1.5-.1.8-.1.5 0 1 .1 1.4.3.4.2.8.4 1.1.8s.5.8.7 1.3.2 1.1.2 1.7v5.1h-1.7v-5.1c0-.7-.1-1.3-.4-1.7-.3-.4-.7-.6-1.3-.6-.3 0-.7 0-1 .1s-.6.2-.8.3c-.2.1-.4.3-.6.5-.1.2-.2.4-.2.6v6h-1.7v-8.9h1.6v-.3zm147.3-17.4h1.8v11c0 .6-.1 1.1-.3 1.6s-.5.9-.9 1.3-.8.7-1.3.9-1 .3-1.6.3-1.1-.1-1.6-.3c-.5-.2-.9-.5-1.3-.9l.5-.5c.3-.3.6-.4 1-.4.1 0 .2 0 .3.1s.2.1.3.1.2.1.3.1h.4c.3 0 .6-.1.9-.2.3-.1.5-.3.8-.5.2-.2.4-.5.5-.7.1-.3.2-.6.2-.9v-11zm5 4.8l.2-.3.3-.3c.1-.1.2-.2.4-.3.4-.2.7-.4 1.2-.5s.9-.2 1.4-.2 1 .1 1.4.2c.4.1.7.3 1 .5s.5.5.7.8.3.6.4 1c.1.4.2.7.2 1.1 0 .4.1.8.1 1.2v4.7H941c-.1-.1-.1-.2-.2-.3-.1-.1-.1-.3-.1-.4v-.2c-.2.2-.4.3-.6.5-.2.1-.5.3-.7.4-.3.1-.5.2-.8.2s-.5.1-.7.1c-.5 0-.9-.1-1.3-.2s-.7-.3-1-.6c-.3-.2-.5-.5-.6-.9-.2-.4-.2-.7-.2-1.2s.1-.9.3-1.3c.2-.4.4-.7.8-1 .4-.3.8-.5 1.4-.6s1.2-.2 1.9-.2h1.7c0-.4-.1-.8-.2-1.1-.1-.3-.3-.5-.4-.7-.2-.2-.4-.3-.6-.3-.2-.1-.5-.1-.7-.1-.3 0-.5 0-.7.1s-.3.1-.4.2-.3.1-.4.2c-.1.1-.3.1-.5.1s-.3 0-.5-.1c-.1-.1-.3-.1-.4-.2l-.7-.3zm2.5 6.5c.2 0 .4 0 .7-.1.2 0 .5-.1.7-.2s.5-.2.7-.3.5-.2.7-.4v-1.6H939c-.4 0-.7 0-1 .1-.3 0-.6.1-.8.2-.2.1-.4.2-.6.4-.1.2-.2.4-.2.6 0 .2 0 .4.1.5s.2.3.3.4c.1.1.3.2.5.2.2.2.4.2.6.2zm5.1-7.9h1c.3 0 .5.1.8.2.2.1.4.4.5.6l2.5 5.8c0 .1.1.2.1.4 0 .1 0 .3.1.4 0-.3.1-.6.2-.8l2.5-5.8c.1-.3.3-.5.5-.6s.5-.2.8-.2h1l-4.1 9.5h-1.7l-4.2-9.5zm11.2 1.4l.2-.3.3-.3c.1-.1.2-.2.4-.3.4-.2.7-.4 1.2-.5s.9-.2 1.4-.2 1 .1 1.4.2c.4.1.7.3 1 .5s.5.5.7.8.3.6.4 1c.1.4.2.7.2 1.1 0 .4.1.8.1 1.2v4.7H960c-.1-.1-.1-.2-.2-.3-.1-.1-.1-.3-.1-.4v-.2c-.2.2-.4.3-.6.5-.2.1-.5.3-.7.4-.3.1-.5.2-.8.2s-.5.1-.7.1c-.5 0-.9-.1-1.3-.2s-.7-.3-1-.6c-.3-.2-.5-.5-.6-.9-.2-.4-.2-.7-.2-1.2s.1-.9.3-1.3c.2-.4.4-.7.8-1 .4-.3.8-.5 1.4-.6s1.2-.2 1.9-.2h1.7c0-.4-.1-.8-.2-1.1-.1-.3-.3-.5-.4-.7-.2-.2-.4-.3-.6-.3-.2-.1-.5-.1-.7-.1-.3 0-.5 0-.7.1s-.3.1-.4.2-.3.1-.4.2c-.1.1-.3.1-.5.1s-.3 0-.5-.1c-.1-.1-.3-.1-.4-.2l-.9-.3zm2.5 6.5c.2 0 .4 0 .7-.1.2 0 .5-.1.7-.2s.5-.2.7-.3.5-.2.7-.4v-1.6h-1.7c-.4 0-.7 0-1 .1-.3 0-.6.1-.8.2-.2.1-.4.2-.6.4-.1.2-.2.4-.2.6 0 .2 0 .4.1.5s.2.3.3.4c.1.1.3.2.5.2.3.2.4.2.6.2zm12-9.2c-.2-.2-.5-.3-.7-.4-.2-.1-.5-.1-.7-.1-.3 0-.5 0-.8.1-.2.1-.5.2-.7.3s-.3.3-.4.5c-.1.2-.2.4-.2.6 0 .3 0 .5.1.7s.2.3.4.5.4.3.7.4.7.3 1.1.4c.2.1.4.2.6.2.2.1.4.2.6.2l.6.3c.2.1.4.2.6.4.9.7 1.4 1.6 1.4 2.8 0 .6-.1 1.1-.4 1.6-.2.5-.6.9-1 1.3s-.9.6-1.4.8-1.1.3-1.7.3c-1.2 0-2.1-.3-2.9-1-.2-.1-.3-.3-.4-.4-.1-.1-.2-.3-.3-.4s-.2-.3-.2-.4c-.1-.1-.1-.2-.1-.3l.4-.2c.2-.1.5-.2.7-.2.4 0 .7.1 1 .4l.1.1c.2.2.5.3.8.4.3.1.6.2 1 .2.3 0 .6 0 .9-.1.3-.1.6-.2.9-.4.3-.2.5-.4.6-.7.2-.3.2-.6.2-.9 0-.3-.1-.6-.2-.9l-.6-.6c-.2-.2-.5-.3-.8-.4-.3-.1-.6-.2-.9-.4-.4-.2-.9-.4-1.3-.5-.4-.2-.8-.4-1.1-.7s-.6-.6-.8-1-.3-.9-.3-1.4.1-1 .3-1.4.5-.8.9-1c.4-.3.8-.5 1.2-.7.5-.1.9-.2 1.4-.2.4 0 .7.1 1.1.2.3.1.7.3 1 .5s.6.4.8.6c.2.2.5.4.6.6l-.5.3c-.3.2-.5.3-.9.3-.2 0-.5-.1-.7-.3zm8.8 2.9c-.4 0-.8.1-1.2.2s-.7.4-1 .7-.5.6-.7 1-.2.8-.2 1.2.1.8.2 1.2.4.7.7 1 .6.5 1 .7.8.2 1.2.2c.3 0 .5 0 .8-.1s.5-.2.7-.3.5-.2.7-.2.4 0 .5.1c.2.1.3.2.4.3l.3.3c-.5.5-1 .9-1.6 1.1s-1.3.4-2 .4-1.3-.1-1.9-.4c-.6-.3-1.1-.6-1.5-1s-.8-1-1-1.5-.4-1.2-.4-1.9.1-1.3.4-1.9.6-1.1 1-1.5 1-.8 1.5-1c.6-.3 1.2-.4 1.9-.4s1.4.1 2 .4 1.1.7 1.6 1.1l-.3.3c-.1.1-.3.3-.5.3-.2.1-.3.1-.6.1-.2 0-.5-.1-.7-.2-.2-.1-.5-.2-.7-.3 0 .1-.3.1-.6.1zm6.6-1.6l.1.2c0 .1.1.1.1.2v1c.1-.2.3-.4.4-.6.2-.2.4-.3.6-.5.2-.1.5-.3.8-.3.3-.1.6-.1.9-.1.5 0 .9.1 1.4.3l-.1.8c0 .3-.2.4-.3.6-.2.1-.4.2-.6.2h-.4c-.4 0-.7.1-1 .2-.3.1-.6.2-.8.4l-.6.6c-.2.2-.2.4-.3.6v6h-1.8v-9.5h1.6v-.1zm5.3-2.4c0-.2 0-.3.1-.5.1-.1.1-.3.3-.4.1-.1.2-.2.4-.3.1-.1.3-.1.5-.1s.3 0 .5.1c.1.1.3.1.4.3.1.1.2.2.3.4.1.1.1.3.1.5s0 .3-.1.5c-.1.1-.2.3-.3.4-.1.1-.2.2-.4.3-.1.1-.3.1-.5.1s-.3 0-.5-.1c-.1-.1-.3-.1-.4-.3-.1-.1-.2-.2-.3-.4 0-.2-.1-.3-.1-.5zm2.1 2.4v9.5h-1.8v-9.5h1.8zm4.4 0l.1.2c0 .1.1.1.1.2v.7c0-.2.1-.3.2-.4.1-.1.2-.2.4-.3.1-.1.3-.2.5-.2.2-.1.4-.1.5-.2.2 0 .3-.1.5-.1h.4c.7 0 1.3.1 1.9.4.6.3 1.1.6 1.5 1s.7 1 1 1.5c.2.6.4 1.2.4 1.9s-.1 1.3-.4 1.9c-.2.6-.6 1.1-1 1.5s-.9.8-1.5 1-1.2.4-1.9.4h-.6c-.2 0-.4-.1-.6-.2l-.6-.3c-.2-.1-.4-.3-.6-.5v3.9h-1.8V53.3h1.5zm2.7 7.8c.4 0 .8-.1 1.2-.2s.7-.4.9-.7c.3-.3.5-.6.6-1s.2-.8.2-1.2-.1-.8-.2-1.2-.3-.7-.6-1-.6-.5-.9-.7-.8-.2-1.2-.2c-.5 0-.9.1-1.3.3-.4.2-.8.4-1.1.8v4.2c.3.3.7.6 1.1.8.4.1.9.1 1.3.1zm8.7-.7v.3c0 .1.1.2.1.3l.2.2c.1.1.2.1.3.1h.2c.3-.1.5-.1.7-.1s.5.1.6.2c.2.1.3.3.5.5l.2.3c-.1.1-.3.2-.4.3l-.6.3c-.2.1-.4.1-.6.2s-.4.1-.6.1c-.4 0-.7-.1-1-.2-.3-.1-.6-.3-.8-.5s-.4-.5-.5-.8-.2-.6-.2-1V55h-1.4v-1c0-.5.5-.7 1.4-.7h.2v-1.9c0-.2 0-.4.1-.5 0-.2.1-.3.1-.4.1-.1.1-.3.2-.4h1.4v3.3h2.6V55h-2.6v5.4h-.1zm135 3.5c0 .5-.1 1-.2 1.5-.2.5-.4.9-.6 1.3-.3.4-.6.7-.9 1-.4.3-.7.5-1.2.7l-.3-.7c0-.1-.1-.2-.1-.3v-.3c0-.2 0-.4.1-.6s.2-.3.3-.5c.1-.1.2-.3.4-.5.1-.2.2-.3.3-.5.1-.3.2-.7.2-1V53.2h2.1v10.7h-.1zm-2.4-13.5c0-.2 0-.4.1-.6.1-.2.2-.3.3-.5.1-.1.3-.2.5-.3s.4-.1.6-.1.4 0 .6.1.3.2.5.3c.1.1.2.3.3.5.1.2.1.4.1.6 0 .2 0 .4-.1.6-.1.2-.2.3-.3.5-.1.1-.3.2-.5.3s-.4.1-.6.1-.4 0-.6-.1-.3-.2-.5-.3c-.1-.1-.2-.3-.3-.5-.1-.2-.1-.4-.1-.6zm7.2 6.3c0 .8.1 1.5.4 2.2s.7 1.3 1.2 1.8 1.1.9 1.8 1.2c.7.3 1.4.4 2.2.4.3 0 .6 0 .9-.1.3 0 .6-.1.8-.2l1.3 1.7c-.5.2-.9.3-1.4.4s-1 .2-1.5.2c-1.1 0-2.1-.2-3-.6s-1.7-1-2.4-1.6c-.7-.7-1.2-1.5-1.6-2.4s-.6-1.9-.6-3c0-.7.1-1.4.3-2 .2-.7.4-1.3.8-1.8.3-.6.7-1.1 1.2-1.6s1-.9 1.6-1.2 1.2-.6 1.8-.8c.7-.2 1.3-.3 2-.3s1.4.1 2 .3c.7.2 1.3.4 1.8.8.6.3 1.1.7 1.6 1.2s.9 1 1.2 1.6c.3.6.6 1.2.8 1.8.2.7.3 1.3.3 2 0 1-.2 2-.6 2.9s-.9 1.7-1.6 2.4l4 5.4h-1.4c-.4 0-.8-.1-1.1-.2s-.6-.4-.8-.7l-3.6-4.9c.4-.2.8-.5 1.2-.9.4-.3.7-.7.9-1.2.3-.4.5-.9.6-1.4s.2-1 .2-1.5c0-.8-.1-1.5-.4-2.2s-.7-1.3-1.2-1.8-1.1-.9-1.8-1.2c-.7-.3-1.4-.4-2.2-.4-.8 0-1.5.1-2.2.4-.7.3-1.3.7-1.8 1.2s-.9 1.1-1.2 1.8-.5 1.5-.5 2.3zm23.2 7.5c-.1-.1-.1-.2-.2-.3s-.1-.2-.1-.3-.1-.2-.1-.4v-.5c-.1.3-.3.5-.5.7s-.5.3-.8.5l-.9.3c-.3.1-.7.1-1 .1-.6 0-1.2-.1-1.7-.3s-.9-.6-1.3-1-.6-.9-.8-1.5c-.2-.6-.3-1.3-.3-2v-6.3h2.1v6.3c0 .9.2 1.6.5 2.2.3.5.9.8 1.6.8.4 0 .8-.1 1.2-.2s.7-.2 1-.4.5-.4.7-.6c.2-.2.3-.5.3-.7v-7.3h2.1v11l-1.8-.1zm15.2-6.4c0 .2 0 .5-.1.7s-.2.4-.4.5c-.1.1-.3.2-.5.3s-.3.1-.5.1h-7.7c.1.4.2.8.4 1.2s.5.7.8 1 .7.5 1.1.6c.4.2.8.2 1.3.2.3 0 .6 0 .9-.1s.6-.2.8-.3c.1-.1.3-.1.4-.2s.3-.1.4-.1c.2 0 .4 0 .6.1s.4.2.5.4l.4.4c-.5.6-1.1 1-1.8 1.3-.7.3-1.5.5-2.3.5s-1.5-.1-2.2-.4-1.3-.7-1.8-1.2-.9-1.1-1.2-1.8c-.3-.7-.4-1.4-.4-2.2s.1-1.5.4-2.2.7-1.3 1.2-1.8 1.1-.9 1.8-1.2c.7-.3 1.4-.4 2.2-.4.7 0 1.3.1 1.9.3s1.1.5 1.6.9.9.8 1.2 1.3.6 1.1.8 1.7v.2l.2.2zm-8.3-.5h6.2c-.1-.3-.3-.6-.5-.9s-.5-.5-.8-.7-.6-.4-1-.5-.7-.2-1.1-.2-.8.1-1.2.2c-.4.1-.7.3-1 .5s-.6.5-.8.8c-.2.3-.4.7-.5 1 .1-.1.1-.2.3-.2.1.1.2 0 .4 0zm12.4-4.1c.1.1.1.2.2.3s.1.2.1.3.1.2.1.4v.8c.1-.3.3-.5.5-.7s.5-.4.8-.6c.3-.2.6-.3.9-.4.3-.1.7-.1 1-.1.6 0 1.1.1 1.6.3l-.2.9c-.1.3-.2.5-.4.7-.2.2-.4.2-.7.2h-.4c-.4 0-.8.1-1.2.2s-.7.3-1 .5-.5.4-.7.7c-.2.2-.3.5-.3.8v7h-2.1v-11h1.8v-.3zm5.2 0h1.2c.2 0 .3 0 .5.1s.3.1.4.2c.1.1.3.2.4.3s.2.3.2.4l2.4 5.6c.2.5.3.9.3 1.3v.3l-.1.3c.1-.2.4-.9.9-2.1.5-1.2 1.2-2.8 2.1-4.8l.2-.6c.1-.3.3-.5.6-.7.3-.2.6-.3.9-.3h1.2l-6.1 14.1c-.1.3-.3.6-.6.7-.3.2-.6.3-.9.3h-1.2l2.1-4.7-4.5-10.4zM133.7 66.6h-2.4v-7.5h-9.2v7.5h-2.4V49.4h2.4v7.4h9.2v-7.4h2.4zm2.5-14.8v-2.4h13v2.4h-5.3v14.8h-2.4V51.8zm34 14.8h-2.4V52.9v.2c0 .1 0 .2-.1.3 0 .1 0 .2-.1.3 0 .1-.1.2-.1.3L162 66.6h-2.3L154.2 54l-.1-.2c0-.1 0-.2-.1-.3V53v13.5h-2.4V49.4h2c.4 0 .7.1 1 .3s.5.5.7.8l5.4 12.3c.1.2.1.3.2.5 0 .2.1.4.1.6 0-.4.1-.8.2-1.1l5.4-12.3c.2-.3.4-.6.7-.8s.6-.3 1-.3h2l-.1 17.2zm4.2 0V49.4h2.4v14.8h7.4v2.4zm163.3-8.7c0 .9.2 1.7.5 2.5s.8 1.5 1.4 2 1.3 1 2 1.4c.8.3 1.6.5 2.5.5.7 0 1.3-.1 1.9-.3.6-.2 1.2-.5 1.7-.8.3-.2.6-.3 1-.3.3 0 .5 0 .8.1s.4.2.6.4l.4.4c-.4.4-.8.8-1.3 1.2l-1.5.9c-.5.2-1.1.4-1.7.6-.6.1-1.2.2-1.8.2-1.2 0-2.4-.2-3.4-.7-1.1-.5-2-1.1-2.8-1.9-.8-.8-1.4-1.7-1.9-2.8s-.7-2.2-.7-3.4c0-.8.1-1.6.3-2.3s.5-1.4.9-2.1c.4-.7.8-1.2 1.4-1.8.5-.5 1.1-1 1.8-1.4.7-.4 1.4-.7 2.1-.9s1.5-.3 2.3-.3c.6 0 1.2.1 1.8.2.6.1 1.2.3 1.7.6.5.2 1.1.5 1.5.9.5.3.9.7 1.3 1.2l-.4.4c-.2.2-.4.3-.6.4s-.5.1-.7.1c-.4 0-.7-.1-1-.3-.5-.4-1.1-.6-1.7-.8s-1.3-.3-1.9-.3c-.9 0-1.7.2-2.5.5s-1.5.8-2 1.4-1 1.3-1.4 2c-.4.8-.6 1.6-.6 2.5zm22.2-5.7c-.3-.2-.6-.4-.9-.5s-.6-.2-.9-.2c-.4 0-.7.1-1.1.2-.3.1-.6.2-.9.4s-.5.4-.6.7-.2.5-.2.8.1.6.2.9c.1.2.3.5.5.6.2.2.6.4 1 .5.4.2.9.3 1.4.5.3.1.6.2.8.3s.6.2.8.3c.3.1.5.2.8.4s.5.3.8.5c1.2.9 1.8 2.2 1.8 3.7 0 .8-.2 1.5-.5 2.1s-.8 1.2-1.3 1.7-1.2.8-1.9 1.1c-.7.3-1.5.4-2.2.4-1.5 0-2.8-.5-3.9-1.4l-.6-.6c-.2-.2-.3-.4-.4-.5-.1-.2-.2-.3-.3-.5-.1-.1-.1-.3-.2-.4l.6-.3c.3-.2.6-.3.9-.3.5 0 1 .2 1.3.6l.2.2c.3.3.6.5 1 .6.4.1.8.2 1.3.2.4 0 .8-.1 1.2-.2.4-.1.8-.3 1.1-.6.3-.2.6-.5.8-.9.2-.4.3-.8.3-1.3s-.1-.8-.3-1.2c-.2-.3-.5-.6-.8-.8s-.7-.4-1.1-.6c-.4-.2-.8-.3-1.2-.5-.6-.2-1.2-.5-1.7-.7s-1.1-.5-1.5-.9-.8-.8-1.1-1.3c-.3-.5-.4-1.2-.4-1.9s.1-1.3.4-1.9c.3-.6.7-1 1.2-1.4s1-.7 1.6-.9 1.2-.3 1.9-.3c.5 0 .9.1 1.4.2.5.2.9.4 1.3.6.4.2.8.5 1.1.8l.8.8-.6.5c-.3.3-.7.4-1.2.4 0 .4-.4.3-.7.1zm12.8 0c-.3-.2-.6-.4-.9-.5s-.6-.2-.9-.2c-.4 0-.7.1-1.1.2-.3.1-.6.2-.9.4s-.5.4-.6.7-.2.5-.2.8.1.6.2.9c.1.2.3.5.5.6.2.2.6.4 1 .5.4.2.9.3 1.4.5.3.1.6.2.8.3s.6.2.8.3c.3.1.5.2.8.4s.5.3.8.5c1.2.9 1.8 2.2 1.8 3.7 0 .8-.2 1.5-.5 2.1s-.8 1.2-1.3 1.7-1.2.8-1.9 1.1c-.7.3-1.5.4-2.2.4-1.5 0-2.8-.5-3.9-1.4l-.6-.6c-.2-.2-.3-.4-.4-.5-.1-.2-.2-.3-.3-.5-.1-.1-.1-.3-.2-.4l.6-.3c.3-.2.6-.3.9-.3.5 0 1 .2 1.3.6l.2.2c.3.3.6.5 1 .6.4.1.8.2 1.3.2.4 0 .8-.1 1.2-.2.4-.1.8-.3 1.1-.6.3-.2.6-.5.8-.9.2-.4.3-.8.3-1.3s-.1-.8-.3-1.2c-.2-.3-.5-.6-.8-.8s-.7-.4-1.1-.6c-.4-.2-.8-.3-1.2-.5-.6-.2-1.2-.5-1.7-.7s-1.1-.5-1.5-.9-.8-.8-1.1-1.3c-.3-.5-.4-1.2-.4-1.9s.1-1.3.4-1.9c.3-.6.7-1 1.2-1.4s1-.7 1.6-.9 1.2-.3 1.9-.3c.5 0 .9.1 1.4.2.5.2.9.4 1.3.6.4.2.8.5 1.1.8l.8.8-.6.5c-.3.3-.7.4-1.2.4-.1.4-.4.3-.7.1zm961.8-1.1h1.9v13.6h-1.9zm5.5 1.7h1.9v11.9h-1.9zm5 0h1.9v11.9h-1.9zm11.6 11.9l-.1-.2c0-.1-.1-.2-.1-.3v-.7c-.1.2-.3.4-.5.6-.2.2-.4.3-.7.4-.3.1-.5.2-.8.3-.3.1-.6.1-.9.1-.6 0-1.1-.1-1.5-.3-.5-.2-.9-.5-1.2-.9-.3-.4-.6-.9-.8-1.4-.2-.5-.3-1.2-.3-1.8v-5.7h1.9v5.7c0 .8.2 1.5.5 2s.8.7 1.4.7c.4 0 .7 0 1.1-.1.3-.1.6-.2.9-.4s.5-.3.6-.6c.2-.2.2-.4.3-.7v-6.6h1.9v10h-1.7v-.1zm4.1-2.1c.1-.1.3-.1.4-.2.1 0 .2-.1.4-.1s.3 0 .5.1c.1.1.3.2.5.3.1.1.3.2.5.2s.3.1.5.1.4 0 .6-.1.4-.1.5-.3c.2-.1.3-.3.4-.4.1-.2.1-.4.1-.6 0-.2 0-.3-.1-.5-.1-.1-.1-.2-.3-.3-.1-.1-.3-.2-.5-.3s-.5-.2-.8-.3-.7-.3-1-.4c-.3-.2-.6-.3-.9-.6-.3-.2-.5-.5-.6-.8-.2-.3-.2-.7-.2-1.1 0-.4.1-.7.3-1.1.2-.3.4-.6.7-.9s.6-.4 1-.6c.4-.1.7-.2 1.1-.2s.7.1 1.1.2c.3.1.6.3.8.5s.4.3.6.5c.1.2.2.3.3.3l-.4.4c-.3.2-.6.3-.9.3-.1 0-.3 0-.4-.1s-.3-.1-.5-.2c-.1-.1-.3-.1-.4-.1-.2 0-.5 0-.6.1-.2.1-.3.2-.4.3s-.2.2-.2.3-.1.2-.1.3c0 .2 0 .3.1.5.1.1.2.2.4.3.2.1.3.2.5.2.2.1.4.1.6.2.4.1.7.3 1.1.4.4.2.7.4.9.6s.5.5.7.9c.2.3.2.7.2 1.2 0 .4-.1.8-.3 1.2-.2.4-.4.7-.7 1-.3.3-.7.5-1.1.7-.4.2-.9.3-1.4.3-.3 0-.7 0-1-.1s-.6-.2-.9-.4-.5-.4-.8-.6c-.2-.2-.4-.5-.6-.8l.3-.3zm10.8-.4v.3c0 .1.1.2.1.3l.2.2c.1.1.2.1.3.1h.2c.3-.1.5-.1.7-.1.3 0 .5.1.7.2.2.1.4.3.5.5l.2.3c-.1.1-.3.2-.5.3l-.6.3c-.2.1-.4.1-.7.2s-.4.1-.6.1c-.4 0-.8-.1-1.1-.2-.3-.1-.6-.3-.8-.6-.2-.2-.4-.5-.5-.8s-.2-.7-.2-1.1v-5.7h-1.7v-1c0-.5.5-.8 1.5-.8h.2v-2.1c0-.2 0-.4.1-.6 0-.2.1-.3.2-.5s.1-.3.2-.4h1.4v3.5h2.8v1.8h-2.8v5.8h.2zm6.4-7.4l.1.2c0 .1.1.2.1.3v1c.1-.2.3-.4.5-.6.2-.2.4-.4.7-.5.3-.1.5-.3.8-.4.3-.1.6-.1.9-.1.5 0 1 .1 1.5.3l-.1.8c-.1.3-.2.5-.3.6-.2.1-.4.2-.7.2h-.4c-.4 0-.7.1-1.1.2-.3.1-.6.3-.9.4s-.5.4-.6.6c-.2.2-.2.5-.3.7v6.3h-1.9v-10h1.7zm5.6 1.4c.1-.1.1-.2.2-.3l.3-.3c.1-.1.2-.2.4-.3l1.2-.6c.4-.1.9-.2 1.5-.2.5 0 1 .1 1.4.2.4.1.8.3 1 .6.3.2.5.5.7.8s.3.7.4 1.1c.1.4.2.8.2 1.2s.1.8.1 1.3v5h-1.5c-.1-.1-.2-.2-.2-.4s-.1-.3-.1-.4v-.3c-.2.2-.4.3-.6.5-.3.1-.5.3-.8.4s-.5.2-.8.2-.5.1-.7.1c-.5 0-1-.1-1.4-.2s-.8-.3-1.1-.6c-.3-.3-.5-.6-.7-1s-.2-.8-.2-1.2c0-.5.1-.9.3-1.3.2-.4.5-.7.8-1s.9-.5 1.4-.7 1.2-.2 2-.2h1.7c0-.5-.1-.9-.2-1.2s-.3-.5-.5-.7-.4-.3-.6-.4-.5-.1-.7-.1c-.3 0-.6 0-.7.1-.2.1-.3.1-.5.2-.1.1-.3.1-.4.2s-.3.1-.5.1-.3 0-.5-.1c-.1-.1-.3-.1-.4-.2l-.5-.3zm2.7 6.9c.2 0 .5 0 .7-.1.3 0 .5-.1.8-.2s.5-.2.8-.3.5-.2.7-.4v-1.7h-1.7c-.4 0-.8 0-1.1.1-.3.1-.6.1-.9.2-.3.1-.4.3-.6.4-.1.2-.2.4-.2.7 0 .2 0 .4.1.6s.2.3.3.4c.1.1.3.2.5.2.2.1.4.1.6.1zm9.8-.9v.3c0 .1.1.2.1.3l.2.2c.1.1.2.1.3.1h.2c.3-.1.5-.1.7-.1.3 0 .5.1.7.2.2.1.4.3.5.5l.2.3c-.1.1-.3.2-.5.3l-.6.3c-.2.1-.4.1-.7.2s-.4.1-.6.1c-.4 0-.8-.1-1.1-.2-.3-.1-.6-.3-.8-.6-.2-.2-.4-.5-.5-.8s-.2-.7-.2-1.1v-5.7h-1.7v-1c0-.5.5-.8 1.5-.8h.2v-2.1c0-.2 0-.4.1-.6 0-.2.1-.3.2-.5s.1-.3.2-.4h1.4v3.5h2.8v1.8h-2.8v5.8h.2zm3.7-2.5c0-.7.1-1.4.4-2s.6-1.2 1.1-1.6c.5-.5 1-.8 1.6-1.1s1.3-.4 2-.4 1.4.1 2 .4c.6.3 1.2.6 1.6 1.1.5.5.8 1 1.1 1.6.3.6.4 1.3.4 2s-.1 1.4-.4 2-.6 1.2-1.1 1.6c-.5.5-1 .8-1.6 1.1s-1.3.4-2 .4-1.4-.1-2-.4-1.2-.6-1.6-1.1c-.5-.5-.8-1-1.1-1.6-.3-.6-.4-1.2-.4-2zm1.8 0c0 .5.1.9.3 1.3.2.4.4.7.7 1 .3.3.6.5 1 .7s.8.3 1.3.3.9-.1 1.3-.3.7-.4 1-.7.5-.6.7-1 .3-.8.3-1.3-.1-.9-.3-1.3c-.2-.4-.4-.7-.7-1s-.6-.5-1-.7-.8-.3-1.3-.3-.9.1-1.3.3-.7.4-1 .7-.5.6-.7 1c-.2.5-.3.9-.3 1.3zm12.1-4.9l.1.2c0 .1.1.2.1.3v1c.1-.2.3-.4.5-.6.2-.2.4-.4.7-.5.3-.1.5-.3.8-.4.3-.1.6-.1.9-.1.5 0 1 .1 1.5.3l-.1.8c-.1.3-.2.5-.3.6-.2.1-.4.2-.7.2h-.4c-.4 0-.7.1-1.1.2-.3.1-.6.3-.9.4s-.5.4-.6.6c-.2.2-.2.5-.3.7v6.3h-1.9v-10h1.7zm124.4 9.9h-1.8V51.8h4.6c.6 0 1.1.1 1.6.3s.9.5 1.3.9.7.8.9 1.3c.2.5.3 1 .3 1.6s-.1 1.1-.3 1.6c-.2.5-.5.9-.9 1.3s-.8.7-1.3.9-1 .3-1.6.3h-2.8v4.7zm2.9-6.5c.3 0 .6-.1.9-.2.3-.1.5-.3.7-.5s.4-.4.5-.7.2-.6.2-.9c0-.3-.1-.6-.2-.9-.1-.3-.3-.5-.5-.7s-.4-.4-.7-.5c-.3-.1-.6-.2-.9-.2h-2.8v4.5h2.8v.1zm7.5-6.4l.1.2c0 .1.1.1.1.2v4.1c.1-.2.3-.4.5-.6.2-.2.4-.3.6-.4.2-.1.5-.2.8-.2.3-.1.6-.1.9-.1.5 0 1 .1 1.4.3s.8.5 1.1.8c.3.4.5.8.7 1.3s.3 1.1.3 1.7v5.4h-1.8v-5.4c0-.8-.1-1.4-.4-1.8-.3-.4-.7-.7-1.3-.7-.4 0-.7 0-1 .1s-.6.2-.9.4c-.2.2-.4.3-.6.5l-.3.6v6.3h-1.8V51.8h1.6zm8.3 8.2c0-.7.1-1.3.4-1.9.3-.6.6-1.1 1-1.5s1-.8 1.5-1c.6-.3 1.2-.4 1.9-.4s1.3.1 1.9.4c.6.3 1.1.6 1.5 1s.8 1 1 1.5c.3.6.4 1.2.4 1.9s-.1 1.3-.4 1.9c-.3.6-.6 1.1-1 1.5s-1 .8-1.5 1-1.2.4-1.9.4-1.3-.1-1.9-.4-1.1-.6-1.5-1-.8-1-1-1.5c-.3-.6-.4-1.2-.4-1.9zm1.7 0c0 .4.1.8.2 1.2.2.4.4.7.7 1 .3.3.6.5 1 .7s.8.2 1.2.2c.4 0 .8-.1 1.2-.2.4-.2.7-.4 1-.7s.5-.6.7-1 .2-.8.2-1.2-.1-.8-.2-1.2c-.2-.4-.4-.7-.7-1-.3-.3-.6-.5-1-.7s-.8-.2-1.2-.2c-.4 0-.8.1-1.2.2-.4.2-.7.4-1 .7s-.5.6-.7 1c-.1.4-.2.8-.2 1.2zm12.1 2.4v.3c0 .1.1.2.1.3l.2.2c.1.1.2.1.3.1h.2c.3-.1.5-.1.7-.1s.5.1.6.2c.2.1.3.3.5.5l.2.3c-.1.1-.3.2-.4.3l-.6.3c-.2.1-.4.1-.6.2-.2 0-.4.1-.6.1-.4 0-.7-.1-1-.2s-.6-.3-.8-.5c-.2-.2-.4-.5-.5-.8s-.2-.6-.2-1V57h-1.6v-1c0-.5.5-.7 1.4-.7h.2v-1.9c0-.2 0-.4.1-.5s.1-.3.1-.4c.1-.1.1-.3.2-.4h1.4v3.3h2.6V57h-2.6v5.4h.1zm3.5-2.4c0-.7.1-1.3.4-1.9.3-.6.6-1.1 1-1.5s1-.8 1.5-1c.6-.3 1.2-.4 1.9-.4s1.3.1 1.9.4c.6.3 1.1.6 1.5 1s.8 1 1 1.5c.3.6.4 1.2.4 1.9s-.1 1.3-.4 1.9c-.3.6-.6 1.1-1 1.5s-1 .8-1.5 1-1.2.4-1.9.4-1.3-.1-1.9-.4-1.1-.6-1.5-1-.8-1-1-1.5c-.3-.6-.4-1.2-.4-1.9zm1.7 0c0 .4.1.8.2 1.2.2.4.4.7.7 1 .3.3.6.5 1 .7s.8.2 1.2.2c.4 0 .8-.1 1.2-.2.4-.2.7-.4 1-.7s.5-.6.7-1 .2-.8.2-1.2-.1-.8-.2-1.2c-.2-.4-.4-.7-.7-1-.3-.3-.6-.5-1-.7s-.8-.2-1.2-.2c-.4 0-.8.1-1.2.2-.4.2-.7.4-1 .7s-.5.6-.7 1c-.1.4-.2.8-.2 1.2zm9.7 2.7c.1-.1.2-.1.4-.1.1 0 .2-.1.4-.1s.3 0 .4.1.3.2.5.3c.1.1.3.2.5.2s.3.1.5.1.4 0 .6-.1.3-.1.5-.3.3-.2.4-.4.1-.4.1-.6c0-.2 0-.3-.1-.4s-.1-.2-.3-.3c-.1-.1-.3-.2-.5-.3s-.5-.2-.8-.3-.7-.2-1-.4-.6-.3-.9-.5-.5-.5-.6-.8c-.2-.3-.2-.7-.2-1.1 0-.4.1-.7.3-1 .2-.3.4-.6.7-.8.3-.2.6-.4.9-.5s.7-.2 1.1-.2.7.1 1 .2c.3.1.6.3.8.5.2.2.4.3.5.5.1.1.2.2.2.3l-.4.4c-.3.2-.5.3-.9.3-.1 0-.2 0-.4-.1-.1-.1-.3-.1-.5-.2-.1-.1-.2-.1-.4-.1s-.4 0-.6.1-.3.1-.4.2c-.1.1-.2.2-.2.3s-.1.2-.1.2c0 .2 0 .3.1.4.1.1.2.2.4.3.1.1.3.2.5.2.2.1.4.1.6.2.4.1.7.3 1 .4.3.2.6.3.9.6.3.2.5.5.6.8s.2.7.2 1.1c0 .4-.1.8-.2 1.2-.2.4-.4.7-.7 1-.3.3-.6.5-1 .7s-.8.2-1.3.2c-.3 0-.6 0-.9-.1s-.6-.2-.9-.4c-.3-.2-.5-.4-.7-.6s-.4-.5-.6-.8l.5-.3zm9.5-10.9l.1.2c0 .1.1.1.1.2v4.1c.1-.2.3-.4.5-.6.2-.2.4-.3.6-.4.2-.1.5-.2.8-.2.3-.1.6-.1.9-.1.5 0 1 .1 1.4.3s.8.5 1.1.8c.3.4.5.8.7 1.3s.3 1.1.3 1.7v5.4h-1.8v-5.4c0-.8-.1-1.4-.4-1.8-.3-.4-.7-.7-1.3-.7-.4 0-.7 0-1 .1s-.6.2-.9.4c-.2.2-.4.3-.6.5l-.3.6v6.3h-1.8V51.8h1.6zm8.3 8.2c0-.7.1-1.3.4-1.9.3-.6.6-1.1 1-1.5s1-.8 1.5-1c.6-.3 1.2-.4 1.9-.4s1.3.1 1.9.4c.6.3 1.1.6 1.5 1s.8 1 1 1.5c.3.6.4 1.2.4 1.9s-.1 1.3-.4 1.9c-.3.6-.6 1.1-1 1.5s-1 .8-1.5 1-1.2.4-1.9.4-1.3-.1-1.9-.4-1.1-.6-1.5-1-.8-1-1-1.5c-.3-.6-.4-1.2-.4-1.9zm1.7 0c0 .4.1.8.2 1.2.2.4.4.7.7 1 .3.3.6.5 1 .7s.8.2 1.2.2c.4 0 .8-.1 1.2-.2.4-.2.7-.4 1-.7s.5-.6.7-1 .2-.8.2-1.2-.1-.8-.2-1.2c-.2-.4-.4-.7-.7-1-.3-.3-.6-.5-1-.7s-.8-.2-1.2-.2c-.4 0-.8.1-1.2.2-.4.2-.7.4-1 .7s-.5.6-.7 1c-.1.4-.2.8-.2 1.2zm11.5-4.7l.1.2c0 .1.1.1.1.2v.7c0-.2.1-.3.2-.4.1-.1.2-.2.4-.3.1-.1.3-.2.5-.2.2-.1.4-.1.5-.2.2 0 .3-.1.5-.1h.4c.7 0 1.3.1 1.9.4.6.3 1.1.6 1.5 1s.7 1 1 1.5c.2.6.4 1.2.4 1.9s-.1 1.3-.4 1.9c-.2.6-.6 1.1-1 1.5s-.9.8-1.5 1c-.6.3-1.2.4-1.9.4h-.6c-.2 0-.4-.1-.6-.2l-.6-.3c-.2-.1-.4-.3-.6-.5v3.9h-1.8V55.3h1.5zm2.7 7.8c.4 0 .8-.1 1.2-.2.4-.2.7-.4.9-.7.3-.3.5-.6.6-1s.2-.8.2-1.2-.1-.8-.2-1.2-.3-.7-.6-1c-.3-.3-.6-.5-.9-.7-.4-.2-.8-.2-1.2-.2-.5 0-.9.1-1.3.3s-.8.4-1.1.8v4.2c.3.3.7.6 1.1.8.4 0 .9.1 1.3.1z"/></svg>