<?xml version="1.0" encoding="utf-8"?>
<!-- Generator: Adobe Illustrator 20.1.0, SVG Export Plug-In . SVG Version: 6.00 Build 0)  -->
<svg version="1.1" id="Layer_1" xmlns="http://www.w3.org/2000/svg" xmlns:xlink="http://www.w3.org/1999/xlink" x="0px" y="0px"
	 viewBox="0 0 1260 102" style="enable-background:new 0 0 1260 102;" xml:space="preserve">
<style type="text/css">
	.st0{fill:#CC699B;}
	.st1{fill:#FFFFFF;}
	.st2{fill:#030304;}
	.st3{fill:#69A063;}
	.st4{fill:#EA5436;}
	.st5{fill:#DA4848;}
	.st6{fill:#5EB67D;}
	.st7{fill:none;stroke:#5EB67D;stroke-width:2;stroke-miterlimit:10;}
	.st8{fill:#58C2DD;}
	.st9{fill:#020203;}
</style>
<g>
	<polygon class="st0" points="-0.1,76.5 -0.1,25.5 43.9,0 87.9,25.5 87.9,76.5 43.9,102 	"/>
	<polygon class="st1" points="84,74.2 43.9,97.5 3.7,74.2 3.7,27.8 43.9,4.5 84,27.8 	"/>
	<path class="st0" d="M69.2,28.8c-0.6-2.3-2.2-4.2-4.8-5.6c-5-2.5-12.9-2.7-20.3-0.1c-4.3,1.6-12.7,5-18.9,10.6
		c-6.2,5.8-7.3,10.9-6.7,12.8c1.1,5.6,7,9.5,11.7,12.8c1.2,0.8,2.5,1.7,3.3,2.4c-2.6,1.3-9.9,5.3-11.7,9.4c-1.5,3.3-0.7,5.6-0.2,6.7
		c0.6,1.2,1.6,2.2,2.6,2.5c1,0.3,2.1,0.4,3.2,0.4c4.2,0,8.4-2.2,10.9-6s2.7-8.7,1.6-11.8c1.7-0.4,3.4-0.4,5.4-0.2
		c3.8,0.4,5.6,1.9,6.6,3c1,1.2,1.1,2.5,1.1,3.3c-0.2,1.4-1.4,2.3-1.9,2.7c-0.4,0.3-0.9,0.6-0.7,1.1c0.2,0.7,1,0.6,1.2,0.6
		c0.9-0.2,4-1.8,4.2-5.2c0.1-2.1-0.7-4.2-2.5-6c-2.1-2.2-5.4-3.4-9.1-3.3c-2.7,0-4.6,0.3-6.1,0.7l-0.1-0.1c-1.4-1.4-3.3-2.8-4.8-4.1
		c-3.9-2.8-7.5-5.6-7.3-9.8c0.4-5.2,5.5-10.3,15.5-15.1c8.9-4.3,16.1-4.5,20-3.2c1.6,0.6,2.6,1.3,3,2.2c0.7,1.7,0.4,3.7-0.9,6
		c-2.2,3.9-7.9,8.6-16.6,9.7c-5.3,0.6-7.5-1.8-7.7-1.8c-0.6-0.6-1-1.1-1.7-0.6c-0.7,0.4-0.4,1.4-0.2,1.8c0.4,1.1,2.1,2.8,4.8,3.9
		c2.2,0.7,8,1.2,15.1-1.4C65.1,44.1,70.8,35.5,69.2,28.8z M35.5,69.6c-0.1,0.2-0.1,0.4-0.2,0.6s-0.2,0.4-0.2,0.6
		c-0.4,0.8-1,1.8-1.8,2.5c-2.2,2.4-5.3,3-6.2,2.5c-0.4-0.2-0.4-0.4-0.4-0.8c-0.2-1.1,0.4-3.4,2.6-5.5c2.5-2.5,5.8-4.3,6.7-4.7
		C36.1,66.6,35.9,68.1,35.5,69.6z"/>
	<polygon class="st2" points="179.9,76.5 179.9,25.5 223.9,0 267.9,25.5 267.9,76.5 223.9,102 	"/>
	<polygon class="st1" points="264,74.2 223.9,97.5 183.7,74.2 183.7,27.8 223.9,4.5 264,27.8 	"/>
	<path class="st2" d="M190.9,51.8c0,3,0.3,5.7,0.9,8.1c0.5,2.4,1.3,4.5,2.3,6.3c1,1.8,2.2,3.3,3.8,4.7c1.5,1.3,3.2,2.5,4.9,3.3
		c1.8,0.9,3.8,1.6,6.1,2.1c2.3,0.5,4.7,0.9,7,1.1c2.4,0.2,5,0.4,7.8,0.4c2.9,0,5.5-0.1,7.9-0.4c2.4-0.2,4.8-0.6,7-1.1
		c2.3-0.5,4.3-1.2,6.2-2.1c1.8-0.9,3.4-1.9,5-3.3c1.5-1.3,2.8-2.9,3.8-4.7c1-1.8,1.8-3.9,2.4-6.3c0.5-2.4,0.9-5.1,0.9-8.1
		c0-5.4-1.8-9.9-5.4-13.8c0.2-0.5,0.4-1.1,0.5-1.8s0.4-1.6,0.4-2.8c0.2-1.2,0.1-2.6-0.2-4.2c-0.3-1.6-0.7-3.2-1.4-4.8l-0.4-0.1
		c-0.4-0.1-0.9-0.1-1.7,0.1c-0.8,0.1-1.7,0.3-2.7,0.6c-1.1,0.3-2.4,0.9-4,1.7c-1.7,0.8-3.3,1.8-5.2,3.1c-3.2-0.9-7.5-1.3-12.9-1.3
		c-5.5,0-9.8,0.4-12.8,1.3c-1.8-1.2-3.6-2.3-5.2-3.1c-1.7-0.8-3-1.4-4-1.7c-1-0.3-1.9-0.4-2.7-0.5c-0.9-0.1-1.4-0.1-1.6-0.1
		c-0.3,0-0.4,0.1-0.5,0.1c-0.7,1.7-1.1,3.3-1.4,4.8c-0.3,1.6-0.3,3-0.2,4.2c0.2,1.2,0.3,2.1,0.4,2.8c0.2,0.6,0.4,1.2,0.5,1.8
		C192.7,41.9,190.9,46.5,190.9,51.8z M199,59.9c0-3.1,1.4-5.9,4.2-8.5c0.9-0.8,1.8-1.3,2.9-1.8c1.1-0.4,2.4-0.6,3.8-0.7
		c1.4-0.1,2.7,0,4,0c1.3,0.1,2.9,0.2,4.8,0.3c1.8,0.1,3.5,0.2,4.9,0.2c1.4,0,3-0.1,4.9-0.2c1.8-0.1,3.5-0.3,4.8-0.3
		c1.3-0.1,2.6-0.1,4,0c1.4,0.1,2.6,0.3,3.8,0.7s2.1,1,2.9,1.8c2.8,2.6,4.2,5.4,4.2,8.5c0,1.8-0.3,3.5-0.7,4.9
		c-0.4,1.4-1.1,2.6-1.8,3.6s-1.8,1.8-3,2.5c-1.3,0.7-2.6,1.2-3.7,1.6c-1.2,0.4-2.7,0.6-4.7,0.9c-1.9,0.2-3.6,0.4-5.1,0.4
		c-1.5,0-3.3,0.1-5.7,0.1c-2.4,0-4.2,0-5.7-0.1c-1.5,0-3.2-0.2-5.1-0.4c-1.9-0.2-3.4-0.5-4.7-0.9c-1.2-0.4-2.5-0.9-3.7-1.6
		c-1.3-0.7-2.3-1.5-3-2.5c-0.7-1-1.3-2.2-1.8-3.6C199.3,63.4,199,61.7,199,59.9z M232.1,59.3c0,3.4,1.8,6.2,4.1,6.2
		c2.3,0,4.1-2.7,4.1-6.2s-1.8-6.2-4.1-6.2C233.9,53.1,232.1,55.8,232.1,59.3z M207.4,59.3c0,3.4,1.8,6.2,4.1,6.2
		c2.3,0,4.1-2.7,4.1-6.2s-1.8-6.2-4.1-6.2C209.2,53.1,207.4,55.8,207.4,59.3z"/>
	<polygon class="st3" points="359.9,76.5 359.9,25.5 403.9,0 447.9,25.5 447.9,76.5 403.9,102 	"/>
	<polygon class="st1" points="444,74.2 403.9,97.5 363.7,74.2 363.7,27.8 403.9,4.5 444,27.8 	"/>
	<path class="st3" d="M403.9,83.7c-0.9,0-1.8-0.3-2.6-0.7l-8-4.7c-1.2-0.7-0.6-0.9-0.2-1.1c1.6-0.5,1.9-0.7,3.6-1.7
		c0.2-0.1,0.4-0.1,0.6,0.1l6.2,3.7c0.3,0.1,0.5,0.1,0.7,0l24-13.8c0.3-0.1,0.4-0.4,0.4-0.6V37.1c0-0.3-0.2-0.5-0.4-0.7l-24-13.8
		c-0.3-0.1-0.5-0.1-0.7,0l-24,13.8c-0.3,0.2-0.4,0.4-0.4,0.6v27.7c0,0.3,0.2,0.5,0.4,0.6l6.6,3.8c3.6,1.8,5.7-0.4,5.7-2.5V39.5
		c0-0.4,0.4-0.7,0.7-0.7h3.1c0.4,0,0.7,0.3,0.7,0.7v27.3c0,4.7-2.6,7.5-7.1,7.5c-1.4,0-2.5,0-5.5-1.5l-6.3-3.6
		c-1.6-0.9-2.6-2.6-2.6-4.4V37.1c0-1.8,1-3.5,2.6-4.4l24-13.9c1.5-0.9,3.5-0.9,5,0l24,13.9c1.6,0.9,2.6,2.6,2.6,4.4v27.7
		c0,1.8-1,3.4-2.6,4.4l-24,13.9C405.7,83.5,404.8,83.7,403.9,83.7z"/>
	<path class="st3" d="M411.3,64.6c-10.5,0-12.7-4.8-12.7-8.9c0-0.4,0.4-0.7,0.7-0.7h3.1c0.4,0,0.6,0.3,0.7,0.6
		c0.4,3.2,1.8,4.7,8.2,4.7c5,0,7.2-1.1,7.2-3.9c0-1.6-0.6-2.7-8.4-3.4c-6.6-0.6-10.6-2.1-10.6-7.4c0-4.8,4-7.7,10.9-7.7
		c7.7,0,11.5,2.6,12,8.4c0,0.2-0.1,0.4-0.2,0.5c-0.1,0.2-0.4,0.3-0.5,0.3h-3.1c-0.4,0-0.6-0.3-0.7-0.5c-0.7-3.3-2.6-4.4-7.5-4.4
		c-5.5,0-6.2,1.9-6.2,3.3c0,1.8,0.8,2.3,8.2,3.3c7.4,1,10.9,2.4,10.9,7.6C423.3,61.6,418.9,64.6,411.3,64.6z"/>
	<polygon class="st4" points="539.9,76.5 539.9,25.5 583.9,0 627.9,25.5 627.9,76.5 583.9,102 	"/>
	<polygon class="st1" points="624,74.2 583.9,97.5 543.7,74.2 543.7,27.8 583.9,4.5 624,27.8 	"/>
	<path class="st4" d="M616.8,47.9L586.9,18c-1.8-1.8-4.5-1.8-6.2,0l-6.2,6.2l7.8,7.8c1.8-0.6,4-0.2,5.4,1.2c1.5,1.5,1.8,3.6,1.2,5.5
		l7.6,7.6c1.8-0.6,4-0.3,5.5,1.2c2,2,2,5.4,0,7.4s-5.4,2-7.4,0c-1.6-1.6-1.9-3.8-1.1-5.7l-7-7v18.6c0.5,0.3,1,0.6,1.4,1
		c2,2,2,5.4,0,7.4s-5.4,2-7.4,0c-2-2-2-5.4,0-7.4c0.5-0.5,1.1-0.9,1.8-1.1V41.9c-0.6-0.3-1.2-0.6-1.8-1.1c-1.6-1.6-1.9-3.9-1.1-5.7
		l-7.7-7.7l-20.5,20.5c-1.8,1.8-1.8,4.5,0,6.2L580.8,84c1.8,1.8,4.5,1.8,6.2,0l29.7-29.7C618.5,52.5,618.5,49.7,616.8,47.9z"/>
	<polygon class="st5" points="719.9,76.5 719.9,25.5 763.9,0 807.9,25.5 807.9,76.5 763.9,102 	"/>
	<polygon class="st1" points="804,74.2 763.9,97.5 723.7,74.2 723.7,27.8 763.9,4.5 804,27.8 	"/>
	<path class="st5" d="M763.7,68.6c-3.6,0-6.3-0.5-7.7-0.9c-0.9-0.2-1.7-0.4-2.2-0.7l1.8,3l0.7,9.4c0,1.1,3.3,1.9,7.5,1.9
		c4.1,0,7.5-0.9,7.5-1.9l0.5-9.5l1.7-2.9c-0.5,0.3-1.3,0.4-2.2,0.7C770.1,68.1,767.3,68.6,763.7,68.6z M773.7,37.9
		c-2.6,0.4-6.1,0.5-9.8,0.5s-7.1-0.2-9.8-0.5c-1.3-0.2-2.3-0.4-3.1-0.6c-0.2-0.1-0.4-0.2-0.8-0.4l1.6,14.9c0.1-0.3,0.2-0.5,0.3-0.8
		c0.2-0.5,0.4-1.1,0.7-1.5c0.3-0.5,0.5-1,0.8-1.4c0.3-0.4,0.6-0.9,1-1.2c0.4-0.4,0.7-0.7,1.1-1c0.4-0.3,0.7-0.4,1.1-0.6
		c0.4-0.2,0.7-0.3,1.1-0.3c0.4,0,0.8,0.1,1.1,0.4c0.4,0.3,0.7,0.6,1.1,1.1l0.2,0.4c0,0.1,0,0.2,0,0.4c0,0.3-0.1,0.4-0.2,0.5
		c-0.1,0.2-0.3,0.2-0.4,0.2s-0.3-0.1-0.4-0.3c-0.1-0.2-0.3-0.4-0.4-0.6c-0.2-0.3-0.3-0.4-0.4-0.5s-0.4-0.2-0.5-0.2
		c-0.4,0-0.6,0.1-1,0.4c-0.4,0.3-0.7,0.6-1.1,1.1c-0.4,0.4-0.7,0.9-1,1.4c-0.4,0.5-0.6,1.1-0.9,1.7c-0.3,0.5-0.4,1.1-0.6,1.7
		c-0.2,0.5-0.2,1.1-0.2,1.5c0,0.2,0,0.3,0,0.4s0.1,0.3,0.1,0.4c0.1,0.1,0.1,0.3,0.3,0.4c0.1,0.1,0.2,0.1,0.4,0.1s0.4-0.1,0.5-0.2
		c0.2-0.1,0.4-0.3,0.6-0.4c0.3-0.2,0.4-0.4,0.7-0.6s0.4-0.4,0.6-0.7c0.2-0.3,0.4-0.4,0.5-0.7c0.2-0.2,0.3-0.4,0.4-0.5l0.6-1.8
		c0.1-0.2,0.2-0.4,0.3-0.4l0.4-0.1h0.2l0.2,0.1l0.1,0.2v0.3c0,0.3,0,0.5-0.1,0.7c-0.1,0.2-0.1,0.4-0.2,0.6c-0.1,0.2-0.2,0.4-0.3,0.6
		c-0.1,0.2-0.2,0.4-0.3,0.7c0,0-0.1,0.1-0.1,0.3c-0.1,0.2-0.1,0.4-0.2,0.5c-0.1,0.2-0.2,0.4-0.2,0.7c-0.1,0.3-0.2,0.5-0.3,0.8
		c-0.1,0.3-0.2,0.5-0.3,0.8c-0.1,0.3-0.2,0.5-0.2,0.7c-0.1,0.2-0.1,0.4-0.2,0.5c0,0.2-0.1,0.3-0.1,0.3l-0.1,0.3l-0.2,0.3l-0.2,0.3
		l-0.3,0.1c-0.2,0-0.3-0.1-0.4-0.2c-0.1-0.1-0.1-0.3-0.1-0.5v-0.1v-0.1c0-0.1,0-0.3,0.1-0.4c0.1-0.3,0.2-0.5,0.3-0.8
		c0.1-0.3,0.2-0.6,0.3-0.9c0.1-0.4,0.2-0.6,0.3-0.9c-0.3,0.3-0.5,0.5-0.8,0.8c-0.3,0.3-0.5,0.5-0.9,0.7c-0.3,0.2-0.6,0.4-0.9,0.5
		c-0.3,0.1-0.6,0.2-0.9,0.2c-0.4,0-0.6-0.1-0.8-0.2l-0.1-0.1l0.9,9.5c0.3,0.6,4.7,2,10.5,2c5.8,0,10.3-1.4,10.5-2l1.3-11.3
		c-0.1,0.1-0.2,0.2-0.4,0.3c-0.4,0.4-0.7,0.6-1.1,0.9c-0.4,0.3-0.6,0.4-1,0.6c-0.4,0.2-0.6,0.2-1,0.2c-0.4,0-0.6-0.1-0.8-0.3
		c-0.2-0.2-0.3-0.4-0.3-0.6v-0.1v-0.1c0-0.2,0.1-0.4,0.2-0.5c0.1-0.2,0.3-0.4,0.4-0.6c0.2-0.3,0.4-0.4,0.5-0.7
		c0.2-0.3,0.4-0.4,0.5-0.6c0.2-0.2,0.3-0.4,0.4-0.5c0.1-0.2,0.2-0.3,0.2-0.4L773,52l-0.2-0.1c-0.2,0-0.4,0.1-0.5,0.2
		c-0.2,0.1-0.4,0.2-0.5,0.4c-0.2,0.2-0.4,0.4-0.5,0.5c-0.2,0.2-0.4,0.4-0.5,0.6c-0.2,0.2-0.3,0.4-0.4,0.6c-0.1,0.2-0.3,0.4-0.4,0.6
		l-0.1,0.3l-0.2,0.4c-0.1,0.1-0.1,0.3-0.2,0.4c-0.1,0.2-0.1,0.3-0.2,0.4l-0.2,0.4l-0.1,0.2l-0.1,0.3c-0.1,0.1-0.1,0.3-0.2,0.4
		c-0.1,0.2-0.2,0.4-0.2,0.5c-0.1,0.2-0.2,0.4-0.2,0.5c-0.1,0.2-0.1,0.4-0.2,0.4l-0.1,0.3c-0.1,0.2-0.1,0.3-0.2,0.4l-0.2,0.4
		l-0.3,0.3c-0.1,0.1-0.2,0.1-0.4,0.1c-0.2,0-0.3,0-0.4-0.1c-0.1-0.1-0.2-0.3-0.2-0.4c0-0.1,0-0.2,0-0.4c0-0.1,0.1-0.2,0.1-0.4
		c0-0.1,0.1-0.2,0.1-0.4l0.1-0.3c0.3-0.5,0.4-1.1,0.7-1.6c0.3-0.5,0.5-1.1,0.7-1.6c0.1-0.1,0.1-0.2,0.2-0.4
		c-0.3,0.3-0.6,0.5-0.9,0.7c-0.3,0.2-0.5,0.4-0.9,0.5c-0.3,0.1-0.5,0.2-0.8,0.2c-0.2,0-0.4,0-0.4-0.1l-0.3-0.3
		c-0.1-0.1-0.1-0.2-0.2-0.4v-0.2l-0.3,0.2c-0.3,0.2-0.5,0.4-0.8,0.4c-0.3,0.1-0.5,0.2-0.7,0.2s-0.4-0.1-0.5-0.2
		c-0.2-0.2-0.2-0.4-0.2-0.7c0-0.3,0-0.5,0.1-0.9c-0.1,0.2-0.3,0.4-0.4,0.6s-0.4,0.4-0.6,0.6s-0.4,0.4-0.7,0.4
		c-0.3,0.1-0.6,0.2-0.9,0.2c-0.2,0-0.3,0-0.4-0.1c-0.2,0-0.3-0.1-0.4-0.2c-0.1-0.1-0.2-0.2-0.3-0.4c-0.1-0.2-0.1-0.4-0.1-0.5
		c0,0,0-0.1,0-0.3c0-0.2,0.1-0.4,0.2-0.7c0.1-0.4,0.3-0.8,0.4-1.3c0.2-0.5,0.4-1.1,0.9-1.9c0.1-0.2,0.2-0.4,0.4-0.4l0.4-0.1h0.2
		l0.2,0.1l0.2,0.2l0.1,0.2V51c0,0.1-0.1,0.2-0.2,0.4c-0.1,0.2-0.2,0.4-0.3,0.5c-0.1,0.2-0.2,0.4-0.4,0.6c-0.1,0.2-0.2,0.4-0.3,0.7
		c-0.1,0.3-0.2,0.4-0.3,0.7c-0.1,0.3-0.1,0.4-0.1,0.7l0.1,0.3l0.2,0.1c0.3,0,0.5-0.1,0.8-0.3c0.3-0.2,0.5-0.4,0.7-0.7
		c0.3-0.3,0.4-0.6,0.6-0.9c0.2-0.4,0.4-0.6,0.4-0.9c0.1-0.2,0.2-0.4,0.3-0.6c0.1-0.2,0.2-0.4,0.2-0.5c0.1-0.2,0.2-0.4,0.3-0.4
		s0.2-0.2,0.4-0.2s0.3,0.1,0.4,0.2c0.1,0.1,0.2,0.3,0.2,0.4l-0.1,0.4c-0.1,0.2-0.2,0.4-0.3,0.5c-0.1,0.2-0.2,0.4-0.3,0.7
		c-0.1,0.3-0.2,0.5-0.3,0.7c-0.1,0.3-0.2,0.5-0.3,0.7c-0.1,0.3-0.1,0.4-0.1,0.7c0,0.2,0.1,0.3,0.3,0.3s0.3-0.1,0.5-0.2
		c0.2-0.1,0.4-0.3,0.6-0.4l0.2-0.2c0.1-0.3,0.2-0.5,0.3-0.7c0.2-0.4,0.4-0.8,0.4-1.2c0.2-0.4,0.3-0.8,0.4-1.1l2-5.1
		c0.1-0.2,0.2-0.4,0.4-0.4c0.2-0.1,0.3-0.1,0.4-0.1c0.2,0,0.3,0.1,0.4,0.2c0.1,0.1,0.2,0.3,0.2,0.4l-0.1,0.3c0,0.1-0.1,0.2-0.2,0.4
		c-0.1,0.3-0.3,0.5-0.4,0.9c-0.2,0.4-0.4,0.7-0.5,1.1c-0.2,0.4-0.4,0.9-0.5,1.3c-0.2,0.4-0.4,0.9-0.5,1.3c-0.2,0.4-0.4,0.9-0.5,1.2
		c-0.2,0.4-0.3,0.7-0.4,1c-0.1,0.1-0.1,0.3-0.2,0.4c-0.1,0.2-0.1,0.3-0.1,0.4v0.2l0.2,0.1c0.1,0,0.2,0,0.4-0.1
		c0.2-0.1,0.3-0.2,0.4-0.3s0.4-0.3,0.5-0.4c0.2-0.2,0.4-0.3,0.5-0.4c0.2-0.2,0.4-0.3,0.5-0.4c0.2-0.2,0.3-0.3,0.4-0.4l0.1-0.1
		c0.1-0.3,0.2-0.4,0.2-0.6c0-0.1,0.1-0.3,0.2-0.4c0.1-0.2,0.2-0.4,0.2-0.5c0.1-0.2,0.2-0.4,0.3-0.4s0.2-0.2,0.4-0.2
		c0.2,0,0.3,0,0.4,0.1c0.1,0.1,0.1,0.2,0.1,0.4v0.2v0.2v0.2v0.2c0.2-0.2,0.4-0.4,0.5-0.5c0.2-0.2,0.4-0.4,0.6-0.4
		c0.2-0.2,0.4-0.3,0.6-0.4s0.4-0.2,0.6-0.2s0.3,0,0.4,0.1c0.2,0,0.3,0.1,0.4,0.2l0.3,0.3c0.1,0.1,0.1,0.3,0.1,0.4s-0.1,0.4-0.2,0.7
		c-0.1,0.3-0.3,0.5-0.4,0.7c-0.2,0.3-0.4,0.5-0.5,0.7c-0.2,0.3-0.4,0.4-0.5,0.6c-0.2,0.2-0.3,0.4-0.4,0.5c-0.1,0.2-0.2,0.3-0.2,0.3
		l0.1,0.2l0.2,0.1c0.1,0,0.2,0,0.4-0.1s0.4-0.3,0.6-0.4c0.3-0.2,0.6-0.5,1-0.8c0.3-0.3,0.6-0.5,1-0.9l1.8-16.3
		c-0.3,0.2-0.6,0.3-0.8,0.4C776,37.5,775,37.7,773.7,37.9z M763.8,34c-7.6,0-13.7,0.9-13.7,1.9c0,1.1,6.2,1.9,13.7,1.9
		c7.6,0,13.7-0.9,13.7-1.9C777.5,34.9,771.5,34,763.8,34z M769.4,36.5c0,0.3-0.7,0.4-1.7,0.4c-0.9,0-1.7-0.2-1.7-0.4
		s0.7-0.4,1.7-0.4C768.7,36.1,769.4,36.2,769.4,36.5z"/>
	<path class="st5" d="M766.5,36.3L766.5,36.3c0,0.2,0.6,0.4,1.3,0.4s1.3-0.1,1.3-0.3l1.8-6.9l6.9-7.2c0.2-0.2-0.2-0.7-0.6-1.1
		c-0.5-0.4-1.1-0.6-1.1-0.4l-7.3,7.7L766.5,36.3z"/>
	<polygon class="st6" points="899.9,76.5 899.9,25.5 943.9,0 987.9,25.5 987.9,76.5 943.9,102 	"/>
	<polygon class="st1" points="984,74.2 943.9,97.5 903.7,74.2 903.7,27.8 943.9,4.5 984,27.8 	"/>
	<path class="st7" d="M963.1,37.5c1.1-5.4,0.4-9.4-2-11.1c-0.8-0.5-1.8-0.8-3-0.7c-6.1,0.3-15.8,8.5-23.8,20.8
		c-9.5,14.6-12.8,29.1-7.5,32.6c2.6,1.7,6.5,0.4,11.1-2.7"/>
	<path class="st7" d="M967.9,61.3c4.5-1.8,7.2-4.1,7.4-6.9c0.4-6.3-13.5-12.2-30.8-13.1c-1.6-0.1-3.3-0.1-4.8-0.1
		c-15.1,0.1-26.9,4.2-27.2,9.9c-0.2,2.7,2.4,5.4,6.6,7.6"/>
	<path class="st7" d="M939.7,28.1c-3.1-2.6-6-4-8.3-3.8c-0.6,0.1-1.1,0.2-1.8,0.4c-5.6,2.9-3.9,17.8,4,33.2
		c7.9,15.5,18.8,25.7,24.6,22.8c5.5-2.7,4-16.6-3.2-31.5"/>
	<ellipse class="st6" cx="944.2" cy="53.2" rx="3.8" ry="3.8"/>
	<polygon class="st8" points="1079.9,76.5 1079.9,25.5 1123.9,0 1167.9,25.5 1167.9,76.5 1123.9,102 	"/>
	<polygon class="st1" points="1164,74.2 1123.9,97.5 1083.7,74.2 1083.7,27.8 1123.9,4.5 1164,27.8 	"/>
	<path class="st8" d="M1145.3,40.6c-0.7-0.3-1.4-0.4-2.1-0.7c0.2-0.4,0.2-1,0.4-1.5c1.6-7.8,0.5-14.2-3.1-16.3
		c-3.4-2-9.2,0.1-14.9,5c-0.5,0.4-1.1,1-1.7,1.5c-0.4-0.4-0.7-0.7-1.1-1c-6-5.3-12.1-7.6-15.7-5.5c-3.4,2-4.5,8-3.1,15.4
		c0.2,0.7,0.4,1.5,0.4,2.2c-0.9,0.3-1.7,0.5-2.5,0.8c-7,2.4-11.4,6.2-11.4,10.2c0,4.1,4.8,8.3,12.1,10.7c0.6,0.2,1.2,0.4,1.8,0.5
		c-0.2,0.8-0.4,1.6-0.5,2.4c-1.4,7.3-0.4,13.2,3.2,15.1c3.6,2,9.6-0.1,15.4-5.2c0.4-0.4,1-0.8,1.4-1.2c0.6,0.5,1.2,1.1,1.8,1.7
		c5.6,4.8,11.3,6.9,14.7,4.8c3.6-2,4.8-8.4,3.2-15.9c-0.2-0.6-0.3-1.2-0.4-1.8c0.4-0.2,0.9-0.3,1.2-0.4c7.7-2.6,12.6-6.6,12.6-10.7
		C1157.2,46.9,1152.5,43.1,1145.3,40.6z"/>
	<path class="st1" d="M1143.7,59c-0.4,0.2-0.7,0.3-1.1,0.4c-0.9-2.6-2-5.5-3.4-8.4c1.3-2.9,2.4-5.6,3.3-8.4c0.7,0.2,1.3,0.4,2,0.6
		c6.2,2.1,9.9,5.3,9.9,7.7C1154.3,53.5,1150.2,56.8,1143.7,59z M1141,64.4c0.7,3.4,0.7,6.4,0.4,8.8c-0.4,2.1-1.2,3.6-2.2,4.1
		c-2.1,1.2-6.6-0.4-11.4-4.5c-0.5-0.4-1.1-1-1.7-1.5c1.8-2,3.7-4.5,5.6-7c3.2-0.3,6.2-0.7,9-1.4C1140.7,63.3,1140.9,63.8,1141,64.4z
		 M1113.3,77.1c-2,0.7-3.7,0.7-4.7,0.2c-2.1-1.2-3-5.9-1.8-12.1c0.2-0.7,0.4-1.5,0.4-2.2c2.7,0.6,5.7,1.1,9,1.3c1.8,2.5,3.8,5,5.7,7
		c-0.4,0.4-0.9,0.8-1.2,1.2C1118.2,74.7,1115.6,76.3,1113.3,77.1z M1103.7,59c-3.3-1.1-5.9-2.6-7.7-4.1c-1.7-1.4-2.5-2.8-2.5-4
		c0-2.4,3.6-5.5,9.7-7.6c0.7-0.3,1.5-0.5,2.3-0.7c0.9,2.7,1.9,5.5,3.3,8.4c-1.3,2.9-2.5,5.8-3.3,8.5
		C1104.8,59.4,1104.3,59.2,1103.7,59z M1106.9,37.1c-1.2-6.4-0.4-11.3,1.7-12.4c2.2-1.2,7.1,0.5,12.3,5.1c0.4,0.3,0.7,0.6,1,1
		c-1.9,2-3.9,4.5-5.6,6.9c-3.2,0.3-6.2,0.7-8.9,1.4C1107.2,38.4,1107.1,37.8,1106.9,37.1z M1135.6,44.1c-0.7-1.1-1.3-2.3-2-3.3
		c2.1,0.3,4.1,0.6,6.1,1.1c-0.6,1.8-1.2,3.8-2.1,5.7C1136.9,46.4,1136.3,45.3,1135.6,44.1z M1123.9,32.8c1.3,1.4,2.6,3,4,4.7
		c-2.6-0.2-5.3-0.2-7.8,0C1121.3,35.8,1122.6,34.2,1123.9,32.8z M1112.1,44.1c-0.7,1.1-1.2,2.3-1.8,3.4c-0.8-2-1.5-4-2.1-5.8
		c1.9-0.4,4-0.8,6.1-1.1C1113.4,41.9,1112.8,43.1,1112.1,44.1z M1114.2,61.2c-2.2-0.3-4.2-0.6-6.2-1c0.6-1.9,1.3-3.9,2.1-5.9
		c0.6,1.1,1.2,2.3,1.8,3.4C1112.9,58.9,1113.5,60.1,1114.2,61.2z M1124.1,69.2c-1.3-1.5-2.6-3.1-4-4.7c1.2,0.1,2.6,0.1,4,0.1
		s2.7,0,4-0.1C1126.6,66.2,1125.3,67.8,1124.1,69.2z M1137.6,54.3c0.9,2,1.7,4,2.3,5.9c-1.9,0.4-4,0.8-6.2,1.1
		c0.7-1.1,1.4-2.3,2-3.4C1136.3,56.5,1136.9,55.4,1137.6,54.3z M1133.2,56.4c-1,1.8-2,3.4-3.2,5.1c-2,0.2-4,0.2-6.2,0.2
		c-2,0-4-0.1-6.1-0.2c-1.1-1.7-2.3-3.4-3.3-5.2c-1-1.8-1.9-3.5-2.9-5.4c0.9-1.8,1.8-3.6,2.9-5.4c1-1.8,2-3.4,3.2-5.1
		c2-0.2,4-0.2,6.1-0.2c2,0,4,0.1,6.1,0.2c1.1,1.7,2.2,3.4,3.2,5.1c1,1.8,2,3.5,2.9,5.3C1135.2,52.8,1134.2,54.5,1133.2,56.4z
		 M1139,24.5c2.2,1.2,3.2,6.4,1.7,13.2c-0.1,0.4-0.2,0.9-0.3,1.3c-2.7-0.7-5.8-1.1-8.9-1.4c-1.8-2.5-3.7-5-5.6-6.9
		c0.4-0.4,1-1,1.5-1.4C1132.3,25.1,1136.9,23.4,1139,24.5z"/>
	<path class="st8" d="M1123.9,45c3.3,0,5.9,2.6,5.9,5.9s-2.6,5.9-5.9,5.9s-5.9-2.6-5.9-5.9S1120.6,45,1123.9,45"/>
	<polygon class="st8" points="1169.9,76.5 1169.9,25.5 1213.9,0 1257.9,25.5 1257.9,76.5 1213.9,102 	"/>
	<polygon class="st1" points="1254,74.2 1213.9,97.5 1173.7,74.2 1173.7,27.8 1213.9,4.5 1254,27.8 	"/>
	<polygon class="st0" points="89.9,76.5 89.9,25.5 133.9,0 177.9,25.5 177.9,76.5 133.9,102 	"/>
	<polygon class="st1" points="174,74.2 133.9,97.5 93.7,74.2 93.7,27.8 133.9,4.5 174,27.8 	"/>
	<path class="st9" d="M120.5,46.2c-0.3-0.2-0.6-0.4-0.9-0.5c-0.3-0.1-0.5-0.2-0.8-0.2c-0.4,0-0.7,0.1-1,0.2
		c-0.3,0.1-0.5,0.3-0.8,0.4c-0.3,0.2-0.4,0.4-0.5,0.6c-0.2,0.3-0.2,0.4-0.2,0.8c0,0.4,0.1,0.6,0.2,0.8c0.1,0.3,0.3,0.4,0.5,0.6
		c0.3,0.2,0.5,0.4,0.9,0.5c0.4,0.2,0.8,0.4,1.3,0.5c0.3,0.1,0.5,0.2,0.8,0.3c0.3,0.1,0.5,0.2,0.8,0.3c0.3,0.1,0.5,0.3,0.7,0.4
		c0.3,0.1,0.4,0.3,0.7,0.4c1.1,0.9,1.7,2,1.7,3.4c0,0.7-0.2,1.4-0.4,1.9c-0.3,0.6-0.7,1.1-1.1,1.5c-0.5,0.4-1.1,0.8-1.8,1
		c-0.6,0.3-1.3,0.4-2,0.4c-1.4,0-2.6-0.4-3.5-1.2c-0.2-0.2-0.4-0.4-0.5-0.5c-0.2-0.2-0.3-0.4-0.4-0.5s-0.2-0.3-0.3-0.4
		c-0.1-0.2-0.2-0.3-0.2-0.4l0.5-0.3c0.3-0.2,0.5-0.3,0.9-0.3c0.4,0,0.9,0.2,1.2,0.5l0.2,0.2c0.3,0.3,0.6,0.4,1,0.5s0.7,0.2,1.1,0.2
		c0.4,0,0.7-0.1,1.1-0.2c0.4-0.1,0.7-0.3,1.1-0.5c0.4-0.3,0.5-0.5,0.8-0.9c0.2-0.4,0.3-0.7,0.3-1.1c0-0.4-0.1-0.8-0.3-1.1
		c-0.2-0.3-0.4-0.5-0.7-0.7c-0.3-0.2-0.6-0.4-1.1-0.5c-0.4-0.2-0.8-0.3-1.1-0.4c-0.5-0.2-1.1-0.4-1.6-0.7c-0.5-0.3-1-0.5-1.4-0.8
		c-0.4-0.4-0.7-0.7-1-1.2c-0.3-0.4-0.4-1.1-0.4-1.8c0-0.6,0.2-1.2,0.4-1.8c0.3-0.5,0.6-1,1.1-1.3c0.4-0.4,1-0.6,1.5-0.8
		c0.5-0.2,1.1-0.3,1.8-0.3c0.4,0,0.9,0.1,1.3,0.2c0.4,0.2,0.8,0.4,1.2,0.5c0.4,0.3,0.7,0.4,1.1,0.8c0.3,0.3,0.5,0.5,0.7,0.8
		l-0.5,0.4c-0.3,0.3-0.7,0.4-1.1,0.4C121.1,46.4,120.8,46.3,120.5,46.2z"/>
	<path class="st9" d="M126.4,49.4l0.3-0.4c0.1-0.1,0.2-0.2,0.4-0.4c0.2-0.1,0.3-0.3,0.4-0.4c0.4-0.3,0.9-0.5,1.4-0.6
		c0.5-0.1,1.1-0.3,1.7-0.3c0.6,0,1.1,0.1,1.7,0.3c0.4,0.2,0.9,0.4,1.2,0.6c0.4,0.3,0.6,0.6,0.8,1c0.2,0.4,0.4,0.8,0.5,1.2
		c0.1,0.4,0.2,0.9,0.3,1.4c0,0.5,0.1,1,0.1,1.5v5.8h-1.8c-0.1-0.1-0.2-0.3-0.3-0.4c-0.1-0.2-0.1-0.4-0.1-0.5V58
		c-0.2,0.2-0.4,0.4-0.7,0.5c-0.3,0.2-0.6,0.4-0.9,0.4c-0.4,0.1-0.6,0.2-1,0.3s-0.6,0.1-0.9,0.1c-0.6,0-1.1-0.1-1.6-0.3
		s-0.9-0.4-1.2-0.7s-0.6-0.7-0.8-1.1c-0.2-0.4-0.3-0.9-0.3-1.4c0-0.6,0.1-1.1,0.4-1.6c0.2-0.4,0.5-0.9,1-1.1c0.4-0.4,1-0.6,1.7-0.8
		c0.7-0.2,1.4-0.3,2.4-0.3c0.3,0,0.5,0,0.7,0c0.3,0,0.4,0,0.6,0s0.4,0,0.4,0.1h0.3c0-0.5-0.1-1-0.3-1.3c-0.2-0.4-0.4-0.6-0.5-0.8
		c-0.2-0.2-0.4-0.4-0.7-0.4s-0.5-0.1-0.9-0.1s-0.6,0-0.9,0.1s-0.4,0.1-0.5,0.2c-0.2,0.1-0.4,0.2-0.4,0.2c-0.2,0.1-0.4,0.1-0.6,0.1
		c-0.2,0-0.4,0-0.5-0.1c-0.2-0.1-0.4-0.2-0.5-0.3L126.4,49.4z M129.5,57.3c0.3,0,0.5,0,0.8-0.1s0.6-0.1,0.9-0.2
		c0.3-0.1,0.6-0.2,0.9-0.4c0.3-0.1,0.6-0.3,0.9-0.4v-1.9c0,0-0.1,0-0.3,0c-0.1,0-0.3,0-0.4,0s-0.4,0-0.6,0c-0.3,0-0.4,0-0.7,0
		c-0.4,0-0.9,0-1.2,0.1s-0.7,0.2-1.1,0.3c-0.3,0.1-0.5,0.3-0.7,0.5c-0.2,0.2-0.3,0.4-0.3,0.8c0,0.3,0.1,0.4,0.2,0.6
		c0.1,0.2,0.2,0.4,0.4,0.4c0.2,0.1,0.4,0.2,0.6,0.3C129.1,57.4,129.2,57.3,129.5,57.3z"/>
	<path class="st9" d="M137.8,56.8c0.2-0.1,0.3-0.2,0.4-0.2c0.2-0.1,0.3-0.1,0.4-0.1s0.4,0,0.5,0.1s0.4,0.2,0.6,0.4
		c0.2,0.1,0.4,0.2,0.5,0.3c0.2,0.1,0.4,0.1,0.6,0.1c0.3,0,0.4,0,0.7-0.1s0.4-0.2,0.6-0.3c0.2-0.2,0.4-0.3,0.4-0.5
		c0.1-0.2,0.2-0.4,0.2-0.7c0-0.2,0-0.4-0.1-0.5c-0.1-0.2-0.2-0.3-0.4-0.4c-0.2-0.1-0.4-0.3-0.6-0.4c-0.3-0.1-0.6-0.3-1-0.4
		c-0.4-0.2-0.8-0.3-1.2-0.4c-0.4-0.2-0.7-0.4-1.1-0.6c-0.3-0.3-0.5-0.5-0.7-1c-0.2-0.4-0.3-0.8-0.3-1.3c0-0.4,0.1-0.9,0.3-1.2
		c0.2-0.4,0.4-0.7,0.8-1s0.7-0.5,1.1-0.7s0.9-0.3,1.3-0.3c0.4,0,0.9,0.1,1.2,0.3s0.7,0.4,1,0.5c0.3,0.2,0.4,0.4,0.6,0.6
		c0.2,0.2,0.3,0.3,0.3,0.4l-0.5,0.4c-0.3,0.3-0.7,0.4-1.1,0.4c-0.2,0-0.3,0-0.4-0.1c-0.2-0.1-0.4-0.2-0.6-0.3
		c-0.2-0.1-0.3-0.1-0.4-0.1c-0.3,0-0.5,0-0.7,0.1c-0.2,0.1-0.4,0.2-0.4,0.3l-0.3,0.4l-0.1,0.3c0,0.2,0.1,0.4,0.2,0.5
		c0.1,0.2,0.3,0.3,0.4,0.4c0.2,0.1,0.4,0.2,0.6,0.3c0.3,0.1,0.4,0.2,0.7,0.3c0.4,0.2,0.9,0.4,1.3,0.5c0.4,0.2,0.8,0.4,1.1,0.7
		c0.3,0.3,0.6,0.6,0.8,1c0.2,0.4,0.3,0.9,0.3,1.4s-0.1,1-0.3,1.4c-0.2,0.4-0.4,0.8-0.8,1.1c-0.4,0.4-0.8,0.6-1.2,0.8
		c-0.5,0.2-1.1,0.3-1.6,0.3c-0.4,0-0.8-0.1-1.1-0.2s-0.7-0.3-1.1-0.4c-0.4-0.2-0.6-0.4-0.9-0.7c-0.3-0.3-0.5-0.6-0.7-1L137.8,56.8z"
		/>
	<path class="st9" d="M147.1,56.8c0.2-0.1,0.3-0.2,0.4-0.2c0.2-0.1,0.3-0.1,0.4-0.1c0.2,0,0.4,0,0.5,0.1s0.4,0.2,0.6,0.4
		c0.2,0.1,0.4,0.2,0.5,0.3c0.2,0.1,0.4,0.1,0.6,0.1c0.3,0,0.4,0,0.7-0.1c0.3-0.1,0.4-0.2,0.6-0.3c0.2-0.2,0.4-0.3,0.4-0.5
		c0.1-0.2,0.2-0.4,0.2-0.7c0-0.2,0-0.4-0.1-0.5c-0.1-0.2-0.2-0.3-0.4-0.4c-0.2-0.1-0.4-0.3-0.6-0.4c-0.3-0.1-0.6-0.3-1-0.4
		c-0.4-0.2-0.8-0.3-1.2-0.4c-0.4-0.2-0.7-0.4-1.1-0.6c-0.3-0.3-0.5-0.5-0.7-1c-0.2-0.4-0.3-0.8-0.3-1.3c0-0.4,0.1-0.9,0.3-1.2
		c0.2-0.4,0.4-0.7,0.8-1s0.7-0.5,1.1-0.7s0.9-0.3,1.3-0.3s0.9,0.1,1.2,0.3s0.7,0.4,1,0.5c0.3,0.2,0.4,0.4,0.6,0.6
		c0.2,0.2,0.3,0.3,0.3,0.4l-0.5,0.4c-0.3,0.3-0.7,0.4-1.1,0.4c-0.2,0-0.3,0-0.4-0.1s-0.4-0.2-0.6-0.3c-0.2-0.1-0.3-0.1-0.4-0.1
		c-0.3,0-0.5,0-0.7,0.1c-0.2,0.1-0.4,0.2-0.4,0.3l-0.3,0.4l-0.1,0.3c0,0.2,0.1,0.4,0.2,0.5c0.1,0.2,0.3,0.3,0.4,0.4
		c0.2,0.1,0.4,0.2,0.6,0.3c0.3,0.1,0.4,0.2,0.7,0.3c0.4,0.2,0.9,0.4,1.3,0.5c0.4,0.2,0.8,0.4,1.1,0.7c0.3,0.3,0.6,0.6,0.8,1
		c0.2,0.4,0.3,0.9,0.3,1.4s-0.1,1-0.3,1.4c-0.2,0.4-0.4,0.8-0.8,1.1c-0.4,0.4-0.8,0.6-1.2,0.8c-0.5,0.2-1.1,0.3-1.6,0.3
		c-0.4,0-0.8-0.1-1.1-0.2s-0.7-0.3-1.1-0.4c-0.4-0.2-0.6-0.4-0.9-0.7c-0.3-0.3-0.5-0.6-0.7-1L147.1,56.8z"/>
	<polygon class="st2" points="269.9,76.5 269.9,25.5 313.9,0 357.9,25.5 357.9,76.5 313.9,102 	"/>
	<polygon class="st1" points="354,74.2 313.9,97.5 273.7,74.2 273.7,27.8 313.9,4.5 354,27.8 	"/>
	<path class="st9" d="M291.6,51.5v6.3c-0.4,0.4-0.8,0.7-1.2,0.9c-0.4,0.3-0.9,0.4-1.4,0.5c-0.5,0.2-1.1,0.3-1.6,0.3
		c-0.5,0.1-1.1,0.1-1.7,0.1c-1.1,0-2.2-0.2-3.2-0.6c-1-0.4-1.8-1-2.6-1.8s-1.3-1.6-1.8-2.6c-0.4-1-0.6-2-0.6-3.2
		c0-0.7,0.1-1.5,0.3-2.1c0.2-0.7,0.4-1.3,0.8-1.9s0.8-1.1,1.2-1.7c0.5-0.5,1.1-0.9,1.7-1.2c0.6-0.4,1.2-0.6,1.9-0.8
		c0.7-0.2,1.4-0.3,2.1-0.3c0.6,0,1.1,0.1,1.7,0.2c0.5,0.1,1.1,0.3,1.6,0.5c0.5,0.2,1,0.5,1.4,0.8c0.4,0.4,0.9,0.7,1.2,1.1l-0.4,0.4
		c-0.2,0.2-0.4,0.4-0.5,0.4c-0.2,0.1-0.4,0.1-0.7,0.1c-0.4,0-0.6-0.1-0.9-0.3c-0.4-0.4-1-0.6-1.6-0.8c-0.5-0.2-1.1-0.3-1.8-0.3
		c-0.8,0-1.6,0.2-2.3,0.4c-0.7,0.3-1.3,0.7-1.8,1.2s-1,1.1-1.2,1.8c-0.4,0.7-0.4,1.5-0.4,2.3s0.2,1.6,0.4,2.3
		c0.4,0.7,0.8,1.3,1.3,1.8c0.5,0.5,1.1,1,1.9,1.2c0.7,0.4,1.5,0.4,2.3,0.4c0.7,0,1.3-0.1,1.9-0.3c0.6-0.2,1.1-0.4,1.7-0.7v-2.7h-0.9
		c-0.3,0-0.5-0.1-0.7-0.2c-0.2-0.1-0.4-0.2-0.5-0.4c-0.2-0.2-0.3-0.4-0.4-0.5s-0.1-0.4-0.1-0.6v-0.4H291.6z"/>
	<path class="st9" d="M294.6,45.1c0-0.2,0-0.4,0.1-0.6s0.2-0.4,0.4-0.4c0.2-0.2,0.3-0.3,0.4-0.4c0.2-0.1,0.4-0.1,0.6-0.1
		c0.3,0,0.4,0,0.6,0.1c0.2,0.1,0.4,0.2,0.4,0.4c0.2,0.2,0.3,0.3,0.4,0.4s0.1,0.4,0.1,0.6c0,0.2,0,0.4-0.1,0.6
		c-0.1,0.2-0.2,0.4-0.4,0.4c-0.2,0.2-0.3,0.3-0.4,0.4c-0.2,0.1-0.4,0.1-0.6,0.1c-0.3,0-0.4,0-0.6-0.1s-0.4-0.2-0.4-0.4
		c-0.2-0.2-0.3-0.3-0.4-0.4C294.6,45.5,294.6,45.3,294.6,45.1z M297.2,48v11.5H295V48H297.2z"/>
	<path class="st9" d="M303.4,56.6l0.1,0.4l0.2,0.4l0.3,0.3c0.1,0.1,0.2,0.1,0.4,0.1h0.3c0.4-0.1,0.6-0.1,0.8-0.1
		c0.3,0,0.5,0.1,0.8,0.3c0.3,0.2,0.4,0.4,0.6,0.5l0.3,0.4c-0.2,0.1-0.4,0.3-0.5,0.4c-0.2,0.1-0.4,0.3-0.7,0.4
		c-0.3,0.1-0.5,0.2-0.8,0.3c-0.3,0.1-0.5,0.1-0.7,0.1c-0.4,0-0.9-0.1-1.2-0.3c-0.4-0.2-0.7-0.4-1-0.6c-0.3-0.3-0.4-0.6-0.6-1
		c-0.2-0.4-0.2-0.8-0.2-1.2v-6.6h-1.9V49c0-0.6,0.5-0.9,1.7-0.9h0.3v-2.4c0-0.3,0-0.4,0.1-0.7c0.1-0.2,0.1-0.4,0.2-0.5
		c0.1-0.2,0.2-0.4,0.3-0.4h1.7v4h3.2v2.1h-3.2L303.4,56.6L303.4,56.6z"/>
	<polygon class="st9" points="322.2,59.5 320,59.5 320,52.7 311.4,52.7 311.4,59.5 309.3,59.5 309.3,43.8 311.4,43.8 311.4,50.5 
		320,50.5 320,43.8 322.2,43.8 	"/>
	<path class="st9" d="M333.4,59.5l-0.2-0.3l-0.1-0.3l-0.1-0.4v-0.4c-0.1,0.3-0.4,0.5-0.5,0.7c-0.2,0.2-0.5,0.4-0.8,0.4
		s-0.6,0.3-1,0.3c-0.4,0.1-0.7,0.1-1.1,0.1c-0.6,0-1.2-0.1-1.8-0.4c-0.5-0.3-1-0.6-1.4-1.1c-0.4-0.4-0.7-1-0.9-1.6
		c-0.2-0.6-0.4-1.3-0.4-2.1V48h2.2v6.5c0,1,0.2,1.7,0.5,2.3c0.4,0.5,0.9,0.8,1.7,0.8c0.4,0,0.9-0.1,1.2-0.2s0.7-0.3,1.1-0.4
		c0.3-0.2,0.5-0.4,0.7-0.6c0.2-0.3,0.3-0.5,0.3-0.8v-7.7h2.2v11.5L333.4,59.5L333.4,59.5z"/>
	<path class="st9" d="M338.5,59.5V43.8h2.2V49c0.3-0.3,0.4-0.4,0.7-0.5s0.5-0.3,0.8-0.4c0.3-0.1,0.5-0.2,0.8-0.2s0.5-0.1,0.8-0.1
		c0.8,0,1.6,0.2,2.3,0.4c0.7,0.4,1.3,0.7,1.8,1.2s0.9,1.1,1.2,1.8c0.3,0.7,0.4,1.5,0.4,2.3s-0.2,1.6-0.4,2.3
		c-0.3,0.7-0.7,1.3-1.2,1.8c-0.5,0.5-1.1,1-1.8,1.3c-0.7,0.4-1.5,0.4-2.3,0.4c-0.5,0-1.1-0.1-1.6-0.3s-1-0.4-1.5-1v0.1l-0.1,0.4
		l-0.1,0.3l-0.2,0.3h-1.8V59.5z M343.7,57.6c0.5,0,1.1-0.1,1.5-0.3s0.8-0.4,1.1-0.8c0.4-0.4,0.5-0.8,0.7-1.2c0.2-0.4,0.3-1,0.3-1.5
		s-0.1-1.1-0.3-1.5c-0.2-0.4-0.4-0.9-0.7-1.2c-0.4-0.4-0.7-0.6-1.1-0.8c-0.4-0.2-0.9-0.3-1.5-0.3c-0.5,0-1.1,0.1-1.7,0.4
		c-0.5,0.3-1,0.5-1.4,0.9v5.1c0.4,0.4,0.9,0.7,1.4,0.9C342.6,57.5,343.2,57.6,343.7,57.6z"/>
	<polygon class="st3" points="449.9,76.5 449.9,25.5 493.9,0 537.9,25.5 537.9,76.5 493.9,102 	"/>
	<polygon class="st1" points="534,74.2 493.9,97.5 453.7,74.2 453.7,27.8 493.9,4.5 534,27.8 	"/>
	<path class="st9" d="M470.3,58.9h-1.8l-9-12.3l-0.2-0.3l-0.1-0.3l-0.1-0.4v13.2H457V43.2h1.6c0.4,0,0.7,0.1,0.9,0.2
		c0.2,0.1,0.4,0.3,0.6,0.4l7.7,10.6c0.2,0.3,0.4,0.6,0.4,1.1V43.2h2.2L470.3,58.9L470.3,58.9z"/>
	<path class="st9" d="M473,53.1c0-0.8,0.2-1.6,0.4-2.3c0.4-0.7,0.7-1.3,1.2-1.8c0.5-0.5,1.1-1,1.9-1.3c0.7-0.4,1.5-0.4,2.3-0.4
		c0.8,0,1.6,0.2,2.3,0.4c0.7,0.4,1.3,0.7,1.9,1.3c0.5,0.5,1,1.1,1.3,1.8c0.4,0.7,0.4,1.5,0.4,2.3c0,0.8-0.2,1.6-0.4,2.3
		c-0.4,0.7-0.7,1.3-1.3,1.8c-0.5,0.5-1.1,1-1.9,1.3c-0.7,0.4-1.5,0.4-2.3,0.4c-0.8,0-1.6-0.2-2.3-0.4c-0.7-0.4-1.3-0.7-1.9-1.3
		c-0.5-0.5-1-1.1-1.2-1.8C473.2,54.7,473,54,473,53.1z M475.2,53.1c0,0.5,0.1,1.1,0.3,1.5c0.2,0.4,0.4,0.9,0.8,1.2
		c0.4,0.4,0.7,0.6,1.2,0.8c0.4,0.2,1,0.3,1.5,0.3c0.5,0,1.1-0.1,1.5-0.3c0.4-0.2,0.9-0.4,1.2-0.8c0.4-0.4,0.6-0.8,0.8-1.2
		c0.2-0.4,0.3-1,0.3-1.5s-0.1-1.1-0.3-1.5c-0.2-0.4-0.4-0.9-0.8-1.2c-0.4-0.4-0.8-0.6-1.2-0.8c-0.4-0.2-1-0.3-1.5-0.3
		c-0.5,0-1.1,0.1-1.5,0.3c-0.4,0.2-0.9,0.4-1.2,0.8c-0.4,0.4-0.6,0.8-0.8,1.2C475.2,52.1,475.2,52.6,475.2,53.1z"/>
	<path class="st9" d="M495.6,58.9l-0.2-0.3l-0.1-0.3l-0.1-0.4v-0.1c-0.3,0.3-0.4,0.4-0.7,0.5c-0.3,0.1-0.5,0.3-0.8,0.4
		c-0.3,0.1-0.5,0.2-0.8,0.2c-0.3,0-0.5,0.1-0.8,0.1c-0.8,0-1.6-0.2-2.3-0.4c-0.7-0.4-1.3-0.7-1.8-1.3s-0.9-1.1-1.2-1.8
		c-0.4-0.7-0.4-1.5-0.4-2.3c0-0.8,0.2-1.6,0.4-2.3s0.7-1.3,1.2-1.8c0.5-0.5,1.1-1,1.8-1.2c0.7-0.4,1.5-0.4,2.3-0.4
		c0.3,0,0.5,0,0.8,0.1c0.3,0,0.5,0.1,0.8,0.2c0.3,0.1,0.5,0.2,0.8,0.4c0.3,0.2,0.4,0.4,0.7,0.5v-5.2h2.2v15.6H495.6z M492.2,49.3
		c-0.5,0-1.1,0.1-1.5,0.3s-0.8,0.4-1.1,0.8c-0.4,0.4-0.5,0.7-0.7,1.2c-0.2,0.4-0.3,1-0.3,1.5s0.1,1.1,0.3,1.5
		c0.2,0.4,0.4,0.9,0.7,1.2c0.3,0.4,0.7,0.6,1.1,0.8s0.9,0.3,1.5,0.3c0.5,0,1.1-0.1,1.7-0.4c0.5-0.3,1-0.5,1.4-0.9v-5.1
		c-0.4-0.4-0.9-0.7-1.4-0.9S492.8,49.3,492.2,49.3z"/>
	<path class="st9" d="M511.7,52.1c0,0.3-0.1,0.5-0.2,0.7c-0.1,0.2-0.3,0.4-0.4,0.5c-0.2,0.2-0.4,0.3-0.5,0.4
		c-0.2,0.1-0.4,0.1-0.5,0.1h-8c0.1,0.4,0.2,0.9,0.4,1.2c0.3,0.4,0.5,0.7,0.9,1c0.4,0.3,0.7,0.5,1.1,0.7s0.9,0.3,1.3,0.3
		c0.4,0,0.7,0,1-0.1c0.4-0.1,0.6-0.2,0.9-0.4c0.2-0.1,0.3-0.2,0.4-0.2s0.3-0.1,0.4-0.1c0.3,0,0.4,0.1,0.6,0.1
		c0.2,0.1,0.4,0.2,0.5,0.4l0.4,0.4c-0.5,0.6-1.2,1.1-1.9,1.4c-0.7,0.4-1.6,0.5-2.4,0.5c-0.8,0-1.6-0.2-2.3-0.4
		c-0.7-0.4-1.3-0.7-1.9-1.3c-0.5-0.5-1-1.1-1.2-1.8c-0.4-0.7-0.4-1.5-0.4-2.3c0-0.8,0.2-1.6,0.4-2.3c0.4-0.7,0.7-1.3,1.2-1.8
		c0.5-0.5,1.1-1,1.9-1.3c0.7-0.4,1.5-0.4,2.3-0.4c0.7,0,1.3,0.1,1.9,0.4c0.6,0.3,1.1,0.5,1.7,1c0.5,0.4,1,0.9,1.3,1.4
		c0.4,0.5,0.6,1.1,0.8,1.8L511.7,52.1L511.7,52.1z M503,51.7h6.4c-0.2-0.4-0.4-0.7-0.5-1c-0.3-0.3-0.5-0.5-0.8-0.7
		c-0.3-0.2-0.6-0.4-1-0.5c-0.4-0.1-0.8-0.2-1.1-0.2c-0.4,0-0.9,0.1-1.2,0.2c-0.4,0.2-0.8,0.4-1.1,0.5c-0.4,0.3-0.6,0.5-0.8,0.9
		c-0.3,0.4-0.4,0.7-0.5,1.1l0.3-0.3C502.6,51.7,502.7,51.7,503,51.7z"/>
	<path class="st9" d="M513.3,57.6c0-0.2,0-0.4,0.1-0.6c0.1-0.2,0.2-0.4,0.4-0.4c0.2-0.2,0.3-0.3,0.4-0.4s0.4-0.1,0.6-0.1
		s0.4,0,0.6,0.1c0.2,0.1,0.4,0.2,0.4,0.4c0.2,0.2,0.3,0.3,0.4,0.4c0.1,0.2,0.1,0.4,0.1,0.6c0,0.3,0,0.4-0.1,0.6s-0.2,0.4-0.4,0.4
		c-0.2,0.1-0.3,0.3-0.4,0.4c-0.2,0.1-0.4,0.1-0.6,0.1s-0.4,0-0.6-0.1s-0.4-0.2-0.4-0.4c-0.1-0.2-0.3-0.3-0.4-0.4
		C513.4,58,513.3,57.8,513.3,57.6z"/>
	<path class="st9" d="M521.3,58.5c0,0.5-0.1,1.1-0.3,1.5c-0.2,0.4-0.4,0.9-0.6,1.3c-0.3,0.4-0.6,0.8-1,1.1c-0.4,0.3-0.8,0.5-1.2,0.7
		l-0.4-0.8c0-0.1-0.1-0.2-0.1-0.4c0-0.2,0-0.3,0-0.4c0-0.3,0-0.4,0.1-0.6s0.2-0.4,0.4-0.4c0.1-0.2,0.3-0.4,0.4-0.4
		c0.1-0.2,0.3-0.4,0.4-0.5c0.2-0.4,0.3-0.7,0.3-1.1V47.4h2.2L521.3,58.5L521.3,58.5z M518.7,44.5c0-0.2,0-0.4,0.1-0.6
		c0.1-0.2,0.2-0.4,0.4-0.4c0.2-0.2,0.3-0.3,0.4-0.4s0.4-0.1,0.6-0.1s0.4,0,0.6,0.1s0.4,0.2,0.4,0.4c0.2,0.2,0.3,0.3,0.4,0.4
		c0.1,0.2,0.1,0.4,0.1,0.6c0,0.2,0,0.4-0.1,0.6c-0.1,0.2-0.2,0.4-0.4,0.4c-0.2,0.2-0.3,0.3-0.4,0.4c-0.2,0.1-0.4,0.1-0.6,0.1
		s-0.4,0-0.6-0.1s-0.4-0.2-0.4-0.4c-0.2-0.2-0.3-0.3-0.4-0.4C518.7,44.8,518.7,44.7,518.7,44.5z"/>
	<path class="st9" d="M524.3,56.5c0.2-0.1,0.3-0.2,0.4-0.2c0.2-0.1,0.3-0.1,0.4-0.1s0.4,0,0.5,0.1c0.2,0.1,0.4,0.2,0.6,0.4
		c0.2,0.1,0.4,0.2,0.5,0.3c0.2,0.1,0.4,0.1,0.6,0.1c0.3,0,0.4,0,0.7-0.1c0.3-0.1,0.4-0.2,0.6-0.4c0.2-0.2,0.4-0.3,0.4-0.5
		c0.1-0.2,0.2-0.4,0.2-0.7c0-0.2,0-0.4-0.1-0.5c-0.1-0.2-0.2-0.3-0.4-0.4c-0.2-0.1-0.4-0.3-0.6-0.4s-0.6-0.3-1-0.4
		c-0.4-0.2-0.8-0.3-1.2-0.4c-0.4-0.2-0.7-0.4-1.1-0.6c-0.3-0.3-0.5-0.5-0.7-1c-0.2-0.4-0.3-0.8-0.3-1.3c0-0.4,0.1-0.9,0.3-1.2
		s0.4-0.7,0.8-1s0.7-0.5,1.1-0.6c0.4-0.2,0.9-0.3,1.3-0.3s0.9,0.1,1.2,0.3c0.4,0.2,0.7,0.4,1,0.5c0.3,0.2,0.4,0.4,0.6,0.6
		c0.2,0.2,0.3,0.3,0.3,0.4l-0.5,0.4c-0.3,0.3-0.7,0.4-1.1,0.4c-0.2,0-0.3,0-0.4-0.1c-0.2-0.1-0.4-0.2-0.6-0.3
		c-0.2-0.1-0.3-0.1-0.4-0.1c-0.3,0-0.5,0-0.7,0.1s-0.4,0.2-0.4,0.3l-0.3,0.4l-0.1,0.3c0,0.2,0.1,0.4,0.2,0.5
		c0.1,0.2,0.3,0.3,0.4,0.4c0.2,0.1,0.4,0.2,0.6,0.3c0.3,0.1,0.4,0.2,0.7,0.3c0.4,0.2,0.9,0.4,1.3,0.5c0.4,0.2,0.8,0.4,1.1,0.7
		c0.4,0.3,0.6,0.6,0.8,1c0.2,0.4,0.3,0.9,0.3,1.4c0,0.5-0.1,1-0.3,1.4c-0.2,0.4-0.4,0.9-0.8,1.1c-0.4,0.4-0.8,0.6-1.2,0.8
		c-0.5,0.2-1.1,0.3-1.6,0.3c-0.4,0-0.8-0.1-1.1-0.2c-0.4-0.1-0.7-0.3-1.1-0.4c-0.4-0.2-0.6-0.4-0.9-0.7c-0.3-0.3-0.5-0.6-0.7-1
		L524.3,56.5z"/>
	<polygon class="st4" points="629.9,76.5 629.9,25.5 673.9,0 717.9,25.5 717.9,76.5 673.9,102 	"/>
	<polygon class="st1" points="714,74.2 673.9,97.5 633.7,74.2 633.7,27.8 673.9,4.5 714,27.8 	"/>
	<path class="st9" d="M671.4,51v6.3c-0.4,0.4-0.8,0.7-1.2,0.9c-0.4,0.3-0.9,0.4-1.4,0.5c-0.5,0.1-1.1,0.3-1.6,0.3
		c-0.5,0.1-1.1,0.1-1.7,0.1c-1.1,0-2.2-0.2-3.2-0.6c-1-0.4-1.8-1-2.6-1.8c-0.7-0.7-1.3-1.6-1.8-2.6c-0.4-1-0.6-2-0.6-3.2
		c0-0.7,0.1-1.5,0.3-2.1s0.4-1.3,0.8-1.9s0.8-1.1,1.2-1.7c0.5-0.5,1.1-0.9,1.7-1.2s1.2-0.6,1.9-0.8s1.4-0.3,2.1-0.3
		c0.6,0,1.1,0.1,1.7,0.2c0.5,0.1,1.1,0.3,1.6,0.5c0.5,0.3,1,0.5,1.4,0.8c0.4,0.4,0.9,0.7,1.2,1.1l-0.4,0.4c-0.2,0.2-0.4,0.3-0.5,0.4
		c-0.2,0.1-0.4,0.2-0.7,0.2c-0.4,0-0.6-0.1-0.9-0.3c-0.4-0.4-1-0.6-1.6-0.8c-0.5-0.2-1.1-0.3-1.8-0.3c-0.8,0-1.6,0.2-2.3,0.4
		c-0.7,0.3-1.3,0.7-1.8,1.2s-1,1.1-1.2,1.8c-0.4,0.7-0.4,1.5-0.4,2.3c0,0.8,0.2,1.6,0.4,2.3c0.4,0.7,0.8,1.3,1.3,1.8
		c0.5,0.5,1.1,1,1.9,1.2c0.7,0.3,1.5,0.4,2.3,0.4c0.7,0,1.3-0.1,1.9-0.3c0.6-0.2,1.1-0.4,1.7-0.7v-2.9h-0.9c-0.3,0-0.5-0.1-0.7-0.2
		c-0.2-0.1-0.4-0.2-0.5-0.4c-0.2-0.2-0.3-0.4-0.4-0.5c-0.1-0.2-0.1-0.4-0.1-0.6V51H671.4z"/>
	<path class="st9" d="M674.4,44.6c0-0.2,0-0.4,0.1-0.6c0.1-0.2,0.2-0.4,0.4-0.4c0.2-0.2,0.3-0.3,0.4-0.4c0.2-0.1,0.4-0.1,0.6-0.1
		s0.4,0,0.6,0.1c0.2,0.1,0.4,0.2,0.4,0.4c0.2,0.2,0.3,0.3,0.4,0.4c0.1,0.2,0.1,0.4,0.1,0.6c0,0.2,0,0.4-0.1,0.6
		c-0.1,0.2-0.2,0.4-0.4,0.4c-0.2,0.2-0.3,0.3-0.4,0.4c-0.2,0.1-0.4,0.1-0.6,0.1s-0.4,0-0.6-0.1c-0.2-0.1-0.4-0.2-0.4-0.4
		c-0.2-0.2-0.3-0.3-0.4-0.4C674.4,44.9,674.4,44.8,674.4,44.6z M677,47.5V59h-2.2V47.5H677z"/>
	<path class="st9" d="M683.2,56.1l0.1,0.4l0.2,0.4l0.3,0.3c0.1,0.1,0.2,0.1,0.4,0.1h0.3c0.4-0.1,0.6-0.1,0.8-0.1
		c0.3,0,0.5,0.1,0.8,0.3c0.3,0.2,0.4,0.4,0.6,0.6l0.3,0.4c-0.2,0.2-0.4,0.3-0.5,0.4c-0.3,0.1-0.4,0.3-0.7,0.4s-0.5,0.2-0.8,0.3
		c-0.3,0.1-0.5,0.1-0.7,0.1c-0.4,0-0.9-0.1-1.2-0.3c-0.4-0.2-0.7-0.4-1-0.6c-0.3-0.3-0.4-0.6-0.6-1c-0.2-0.4-0.2-0.8-0.2-1.2v-6.6
		h-1.9v-1.3c0-0.6,0.5-0.9,1.7-0.9h0.3v-2.4c0-0.3,0-0.4,0.1-0.7c0.1-0.2,0.1-0.4,0.2-0.5c0.1-0.2,0.2-0.4,0.3-0.4h1.7v4h3.2v2.1
		h-3.2L683.2,56.1L683.2,56.1z"/>
	<polygon class="st5" points="809.9,76.5 809.9,25.5 853.9,0 897.9,25.5 897.9,76.5 853.9,102 	"/>
	<polygon class="st1" points="894,74.2 853.9,97.5 813.7,74.2 813.7,27.8 853.9,4.5 894,27.8 	"/>
	<path class="st9" d="M844.4,51.4v6.3c-0.4,0.4-0.8,0.7-1.2,0.9c-0.4,0.3-0.9,0.4-1.4,0.5s-1.1,0.3-1.6,0.3
		c-0.5,0.1-1.1,0.1-1.7,0.1c-1.1,0-2.2-0.2-3.2-0.6c-1-0.4-1.8-1-2.6-1.8c-0.7-0.7-1.3-1.6-1.8-2.6s-0.6-2-0.6-3.2
		c0-0.7,0.1-1.5,0.3-2.1c0.2-0.6,0.4-1.3,0.8-1.9c0.4-0.6,0.8-1.1,1.2-1.7c0.5-0.5,1.1-0.9,1.7-1.2c0.6-0.4,1.2-0.6,1.9-0.8
		c0.7-0.2,1.4-0.3,2.1-0.3c0.6,0,1.1,0.1,1.7,0.2c0.5,0.1,1.1,0.3,1.6,0.5c0.5,0.3,1,0.5,1.4,0.8c0.4,0.4,0.9,0.7,1.2,1.1l-0.4,0.4
		c-0.2,0.2-0.4,0.3-0.5,0.4c-0.2,0.1-0.4,0.2-0.7,0.2c-0.4,0-0.6-0.1-0.9-0.3c-0.4-0.4-1-0.6-1.6-0.8c-0.5-0.2-1.1-0.3-1.8-0.3
		c-0.8,0-1.6,0.2-2.3,0.4s-1.3,0.7-1.8,1.2c-0.5,0.5-1,1.1-1.2,1.8c-0.4,0.7-0.4,1.5-0.4,2.3c0,0.8,0.2,1.6,0.4,2.3
		c0.4,0.7,0.8,1.3,1.3,1.8c0.5,0.5,1.1,1,1.9,1.2c0.7,0.3,1.5,0.4,2.3,0.4c0.7,0,1.3-0.1,1.9-0.3s1.1-0.4,1.7-0.7v-2.9h-0.9
		c-0.3,0-0.5-0.1-0.7-0.2c-0.2-0.1-0.4-0.2-0.5-0.4c-0.2-0.2-0.3-0.4-0.4-0.5c-0.1-0.2-0.1-0.4-0.1-0.6v-0.4h4.8V51.4z"/>
	<path class="st9" d="M855.3,59.4l-0.2-0.3l-0.1-0.3l-0.1-0.4V58c-0.1,0.3-0.4,0.5-0.5,0.7c-0.3,0.2-0.5,0.4-0.8,0.5
		c-0.3,0.1-0.6,0.3-1,0.3c-0.4,0.1-0.7,0.1-1.1,0.1c-0.6,0-1.2-0.1-1.8-0.4c-0.5-0.3-1-0.6-1.4-1.1c-0.4-0.4-0.7-1-0.9-1.6
		c-0.2-0.6-0.4-1.3-0.4-2.1v-6.6h2.2v6.6c0,1,0.2,1.7,0.5,2.3c0.4,0.5,0.9,0.8,1.7,0.8c0.4,0,0.9-0.1,1.2-0.2s0.7-0.3,1.1-0.4
		c0.3-0.2,0.5-0.4,0.7-0.6c0.2-0.3,0.3-0.5,0.3-0.8v-7.7h2.2v11.5L855.3,59.4L855.3,59.4z"/>
	<rect x="860.6" y="43.6" class="st9" width="2.2" height="15.7"/>
	<path class="st9" d="M868.1,47.8l0.2,0.3l0.1,0.3l0.1,0.4v0.4c0-0.2,0.1-0.4,0.2-0.5c0.1-0.2,0.3-0.3,0.4-0.4
		c0.2-0.1,0.4-0.2,0.6-0.3c0.2-0.1,0.4-0.2,0.6-0.2c0.2-0.1,0.4-0.1,0.6-0.1s0.4,0,0.5,0c0.8,0,1.6,0.2,2.3,0.4
		c0.7,0.4,1.3,0.7,1.8,1.3c0.5,0.5,0.9,1.1,1.2,1.8c0.3,0.7,0.4,1.5,0.4,2.3c0,0.8-0.2,1.6-0.4,2.3c-0.3,0.7-0.7,1.3-1.2,1.8
		c-0.5,0.5-1.1,1-1.8,1.3c-0.7,0.4-1.5,0.4-2.3,0.4c-0.3,0-0.5,0-0.8-0.1c-0.3-0.1-0.5-0.1-0.8-0.2c-0.3-0.1-0.5-0.2-0.8-0.4
		c-0.3-0.2-0.4-0.4-0.7-0.5V63h-2.2V47.8H868.1z M871.4,57.4c0.5,0,1.1-0.1,1.5-0.3c0.4-0.2,0.8-0.4,1.1-0.8
		c0.4-0.4,0.5-0.7,0.7-1.2c0.2-0.4,0.3-1,0.3-1.5s-0.1-1.1-0.3-1.5c-0.2-0.4-0.4-0.9-0.7-1.2s-0.7-0.6-1.1-0.8s-0.9-0.3-1.5-0.3
		c-0.5,0-1.1,0.1-1.7,0.4c-0.5,0.3-1,0.5-1.4,0.9v5.1c0.4,0.4,0.9,0.7,1.4,0.9C870.3,57.2,870.8,57.4,871.4,57.4z"/>
	<polygon class="st6" points="989.9,76.5 989.9,25.5 1033.9,0 1077.9,25.5 1077.9,76.5 1033.9,102 	"/>
	<polygon class="st1" points="1074,74.2 1033.9,97.5 993.7,74.2 993.7,27.8 1033.9,4.5 1074,27.8 	"/>
	<path class="st9" d="M1013.4,43.5h2.1l6.9,15.7h-1.2c-0.4,0-0.6-0.1-1-0.3c-0.3-0.2-0.5-0.4-0.6-0.7l-1.1-2.5h-8l-1.1,2.5
		c-0.1,0.4-0.4,0.5-0.6,0.7c-0.3,0.2-0.6,0.3-1,0.3h-1.2L1013.4,43.5z M1014.3,47l-2.9,6.6h6.2l-2.9-6.6c-0.1-0.3-0.2-0.5-0.2-1
		c0,0.2,0,0.4-0.1,0.5C1014.4,46.7,1014.4,46.9,1014.3,47z"/>
	<path class="st9" d="M1026.5,56.4l0.1,0.4l0.2,0.4l0.3,0.3c0.1,0.1,0.2,0.1,0.4,0.1h0.3c0.4-0.1,0.6-0.1,0.8-0.1
		c0.3,0,0.5,0.1,0.8,0.3c0.3,0.2,0.4,0.4,0.6,0.6l0.3,0.4c-0.2,0.2-0.4,0.3-0.5,0.4c-0.3,0.1-0.4,0.3-0.7,0.4s-0.5,0.2-0.8,0.3
		c-0.3,0.1-0.5,0.1-0.7,0.1c-0.4,0-0.9-0.1-1.2-0.3c-0.4-0.2-0.7-0.4-1-0.6s-0.4-0.6-0.6-1c-0.2-0.4-0.2-0.8-0.2-1.2v-6.6h-1.9v-1.1
		c0-0.6,0.5-0.9,1.7-0.9h0.3v-2.4c0-0.3,0-0.4,0.1-0.6c0.1-0.2,0.1-0.4,0.2-0.5c0.1-0.2,0.2-0.4,0.3-0.4h1.7v4h3.2v2.1h-3.2
		L1026.5,56.4L1026.5,56.4z"/>
	<path class="st9" d="M1030.8,53.5c0-0.8,0.2-1.6,0.4-2.3c0.4-0.7,0.7-1.3,1.2-1.8c0.5-0.5,1.1-1,1.9-1.3c0.7-0.4,1.5-0.4,2.3-0.4
		c0.8,0,1.6,0.2,2.3,0.4c0.7,0.4,1.3,0.7,1.9,1.3c0.5,0.5,1,1.1,1.3,1.8c0.4,0.7,0.4,1.5,0.4,2.3c0,0.8-0.2,1.6-0.4,2.3
		c-0.4,0.7-0.7,1.3-1.3,1.8c-0.6,0.5-1.1,1-1.9,1.3c-0.7,0.4-1.5,0.4-2.3,0.4c-0.8,0-1.6-0.2-2.3-0.4c-0.7-0.4-1.3-0.7-1.9-1.3
		c-0.5-0.5-1-1.1-1.2-1.8C1030.9,55,1030.8,54.3,1030.8,53.5z M1032.9,53.5c0,0.5,0.1,1.1,0.3,1.5c0.2,0.4,0.4,0.9,0.8,1.2
		c0.4,0.4,0.7,0.6,1.2,0.8c0.4,0.2,1,0.3,1.5,0.3c0.5,0,1.1-0.1,1.5-0.3c0.4-0.2,0.9-0.4,1.2-0.8c0.4-0.4,0.6-0.7,0.8-1.2
		c0.2-0.4,0.3-1,0.3-1.5s-0.1-1.1-0.3-1.5c-0.2-0.4-0.4-0.9-0.8-1.2c-0.4-0.4-0.8-0.6-1.2-0.8c-0.4-0.2-1-0.3-1.5-0.3
		c-0.5,0-1.1,0.1-1.5,0.3c-0.4,0.2-0.9,0.4-1.2,0.8c-0.4,0.4-0.6,0.7-0.8,1.2C1033,52.5,1032.9,52.9,1032.9,53.5z"/>
	<path class="st9" d="M1053.3,49.8c0.2-0.4,0.4-0.7,0.6-1.1c0.3-0.3,0.6-0.5,0.9-0.7c0.4-0.2,0.7-0.4,1.1-0.4s0.8-0.1,1.1-0.1
		c0.7,0,1.3,0.2,1.8,0.4c0.5,0.3,0.9,0.7,1.2,1.1c0.3,0.4,0.5,1.1,0.7,1.7s0.2,1.2,0.2,1.9v6.5h-2.2v-6.4c0-0.4,0-0.6-0.1-1.1
		c-0.1-0.4-0.2-0.7-0.3-1c-0.2-0.3-0.4-0.5-0.5-0.8c-0.3-0.2-0.5-0.3-1-0.3c-0.4,0-0.7,0.1-1.1,0.2c-0.4,0.1-0.6,0.3-0.9,0.4
		c-0.3,0.2-0.4,0.4-0.6,0.6c-0.2,0.3-0.3,0.5-0.3,0.8v7.6h-2.2v-6.6c0-0.4,0-0.6-0.1-1.1c-0.1-0.4-0.2-0.7-0.3-1
		c-0.2-0.3-0.4-0.5-0.5-0.8c-0.3-0.2-0.5-0.3-1-0.3c-0.4,0-0.7,0.1-1.1,0.2c-0.4,0.1-0.6,0.3-0.9,0.4c-0.3,0.2-0.4,0.4-0.6,0.6
		c-0.2,0.3-0.3,0.5-0.3,0.8v7.6h-2.2V47.7h1.8l0.2,0.3l0.1,0.3l0.1,0.4v0.4c0.2-0.3,0.3-0.5,0.5-0.7c0.2-0.2,0.4-0.4,0.7-0.4
		s0.5-0.3,0.9-0.3c0.3-0.1,0.6-0.1,0.9-0.1c0.4,0,0.9,0.1,1.2,0.2c0.4,0.1,0.6,0.3,0.9,0.4s0.4,0.4,0.6,0.7
		C1053.1,49.2,1053.3,49.4,1053.3,49.8z"/>
	<path class="st9" d="M1187.7,59.3h-2.2V43.5h5.6c0.6,0,1.2,0.1,1.8,0.4c0.5,0.3,1.1,0.5,1.5,1c0.4,0.4,0.7,0.9,1,1.5
		c0.3,0.5,0.4,1.1,0.4,1.8c0,0.5-0.1,1-0.3,1.5c-0.2,0.4-0.4,0.9-0.7,1.2c-0.3,0.4-0.6,0.7-1.1,1c-0.4,0.3-0.8,0.5-1.3,0.6l5,6.8
		h-1.5c-0.4,0-0.8-0.1-1.1-0.3c-0.4-0.2-0.6-0.4-0.8-0.7l-4.1-5.5h-2.4v6.6H1187.7z M1187.7,45.7v4.8h3.5c0.4,0,0.6-0.1,1-0.2
		c0.3-0.1,0.5-0.3,0.8-0.5c0.3-0.3,0.4-0.4,0.5-0.8c0.1-0.3,0.2-0.6,0.2-1s-0.1-0.6-0.2-1c-0.1-0.3-0.3-0.5-0.5-0.8
		c-0.3-0.3-0.4-0.4-0.8-0.5c-0.3-0.1-0.6-0.2-1-0.2L1187.7,45.7L1187.7,45.7z"/>
	<path class="st9" d="M1209.8,52.5c0,0.3-0.1,0.5-0.2,0.7c-0.1,0.2-0.3,0.4-0.4,0.5c-0.2,0.2-0.4,0.3-0.5,0.4
		c-0.2,0.1-0.4,0.1-0.5,0.1h-8c0.1,0.4,0.2,0.9,0.4,1.2c0.3,0.4,0.5,0.7,0.9,1s0.7,0.5,1.1,0.7c0.4,0.2,0.9,0.3,1.3,0.3
		c0.4,0,0.7,0,1-0.1c0.4-0.1,0.6-0.2,0.9-0.4c0.2-0.1,0.3-0.2,0.4-0.2c0.2,0,0.3-0.1,0.4-0.1c0.3,0,0.4,0.1,0.6,0.1
		c0.2,0.1,0.4,0.2,0.5,0.4l0.4,0.4c-0.5,0.6-1.2,1.1-1.9,1.4c-0.7,0.4-1.6,0.5-2.4,0.5s-1.6-0.2-2.3-0.4c-0.7-0.4-1.3-0.7-1.9-1.3
		c-0.5-0.5-1-1.1-1.2-1.8c-0.4-0.7-0.4-1.5-0.4-2.3c0-0.8,0.2-1.6,0.4-2.3c0.4-0.7,0.7-1.3,1.2-1.8c0.5-0.5,1.1-1,1.9-1.3
		c0.7-0.4,1.5-0.4,2.3-0.4c0.7,0,1.3,0.1,1.9,0.4c0.6,0.3,1.1,0.5,1.7,1c0.5,0.4,1,0.9,1.3,1.4c0.4,0.5,0.6,1.1,0.8,1.8L1209.8,52.5
		L1209.8,52.5z M1201.1,52.1h6.4c-0.2-0.4-0.4-0.7-0.5-1c-0.3-0.3-0.5-0.5-0.8-0.7c-0.3-0.2-0.6-0.4-1-0.5c-0.4-0.1-0.8-0.2-1.1-0.2
		c-0.4,0-0.9,0.1-1.2,0.2c-0.4,0.2-0.8,0.4-1.1,0.5c-0.4,0.3-0.6,0.5-0.8,0.9c-0.3,0.4-0.4,0.7-0.5,1.1l0.3-0.3
		C1200.7,52.1,1200.9,52.1,1201.1,52.1z"/>
	<path class="st9" d="M1212.5,49.4l0.3-0.4c0.1-0.1,0.2-0.2,0.4-0.4c0.2-0.1,0.3-0.3,0.4-0.4c0.4-0.3,0.9-0.5,1.4-0.6
		c0.5-0.2,1.1-0.3,1.7-0.3c0.6,0,1.1,0.1,1.7,0.3c0.4,0.2,0.9,0.4,1.2,0.6c0.4,0.3,0.6,0.6,0.8,1s0.4,0.8,0.5,1.2
		c0.1,0.4,0.2,0.9,0.3,1.4c0,0.5,0.1,1,0.1,1.5v5.7h-1.8c-0.1-0.1-0.2-0.3-0.3-0.4c-0.1-0.2-0.1-0.4-0.1-0.5V58
		c-0.2,0.2-0.4,0.4-0.7,0.5c-0.3,0.2-0.6,0.4-0.9,0.4c-0.4,0.1-0.6,0.2-1,0.3s-0.6,0.1-0.9,0.1c-0.6,0-1.1-0.1-1.6-0.3
		c-0.4-0.2-0.9-0.4-1.2-0.7s-0.6-0.7-0.8-1.1c-0.2-0.4-0.3-0.9-0.3-1.4c0-0.5,0.1-1.1,0.4-1.6c0.2-0.4,0.5-0.9,1-1.1
		c0.4-0.4,1-0.6,1.7-0.8c0.7-0.2,1.4-0.3,2.4-0.3c0.3,0,0.5,0,0.7,0c0.3,0,0.4,0,0.6,0c0.2,0,0.4,0,0.4,0.1h0.3c0-0.5-0.1-1-0.3-1.3
		c-0.2-0.4-0.4-0.6-0.5-0.8c-0.2-0.2-0.4-0.4-0.7-0.4s-0.5-0.1-0.9-0.1c-0.4,0-0.6,0-0.9,0.1s-0.4,0.1-0.5,0.2
		c-0.2,0.1-0.4,0.2-0.4,0.2c-0.2,0.1-0.4,0.1-0.6,0.1c-0.2,0-0.4,0-0.5-0.1c-0.2-0.1-0.4-0.2-0.5-0.3L1212.5,49.4z M1215.6,57.3
		c0.3,0,0.5,0,0.8-0.1c0.3-0.1,0.6-0.1,0.9-0.2s0.6-0.2,0.9-0.4c0.3-0.1,0.6-0.3,0.9-0.4v-1.9c0,0-0.1,0-0.3,0c-0.1,0-0.3,0-0.4,0
		c-0.2,0-0.4,0-0.6,0s-0.4,0-0.7,0c-0.4,0-0.9,0-1.2,0.1c-0.4,0.1-0.7,0.2-1.1,0.3c-0.3,0.1-0.5,0.3-0.7,0.5
		c-0.2,0.2-0.3,0.4-0.3,0.8c0,0.3,0.1,0.4,0.2,0.6c0.1,0.2,0.2,0.4,0.4,0.4c0.2,0.1,0.4,0.2,0.6,0.3S1215.3,57.3,1215.6,57.3z"/>
	<path class="st9" d="M1229.2,49.7c-0.5,0-1.1,0.1-1.5,0.3c-0.4,0.2-0.9,0.4-1.2,0.8c-0.4,0.4-0.6,0.8-0.8,1.2
		c-0.2,0.4-0.3,1-0.3,1.5c0,0.5,0.1,1.1,0.3,1.5c0.2,0.4,0.4,0.9,0.8,1.2s0.8,0.6,1.2,0.8c0.4,0.2,1,0.3,1.5,0.3c0.4,0,0.6,0,1-0.1
		c0.4-0.1,0.6-0.2,0.9-0.4c0.3-0.2,0.5-0.3,0.9-0.3c0.3,0,0.4,0.1,0.6,0.1c0.2,0.1,0.4,0.2,0.5,0.4l0.4,0.4
		c-0.5,0.6-1.2,1.1-1.9,1.4c-0.7,0.4-1.6,0.5-2.4,0.5c-0.8,0-1.6-0.2-2.3-0.4c-0.7-0.4-1.3-0.7-1.9-1.3c-0.5-0.5-1-1.1-1.3-1.8
		s-0.4-1.5-0.4-2.3c0-0.8,0.2-1.6,0.4-2.3s0.7-1.3,1.3-1.8c0.5-0.5,1.1-1,1.9-1.3c0.7-0.4,1.5-0.4,2.3-0.4c0.9,0,1.7,0.2,2.4,0.5
		c0.7,0.4,1.4,0.8,1.9,1.4l-0.4,0.4c-0.2,0.2-0.4,0.3-0.5,0.4c-0.2,0.1-0.4,0.1-0.7,0.1s-0.5-0.1-0.8-0.3c-0.3-0.2-0.6-0.3-0.9-0.4
		C1229.8,49.8,1229.6,49.7,1229.2,49.7z"/>
	<path class="st9" d="M1238.2,56.4l0.1,0.4l0.2,0.4l0.3,0.3c0.1,0.1,0.2,0.1,0.4,0.1h0.3c0.4-0.1,0.6-0.1,0.8-0.1
		c0.3,0,0.5,0.1,0.8,0.3c0.3,0.2,0.4,0.4,0.6,0.5l0.3,0.4c-0.2,0.1-0.4,0.3-0.5,0.4c-0.2,0.1-0.4,0.3-0.7,0.4s-0.5,0.2-0.8,0.3
		c-0.3,0.1-0.5,0.1-0.7,0.1c-0.4,0-0.9-0.1-1.2-0.3c-0.4-0.2-0.7-0.4-1-0.6s-0.4-0.6-0.6-1c-0.2-0.4-0.2-0.8-0.2-1.2v-6.6h-1.9v-1.1
		c0-0.6,0.5-0.9,1.7-0.9h0.3v-2.4c0-0.3,0-0.4,0.1-0.7c0.1-0.2,0.1-0.4,0.2-0.5c0.1-0.2,0.2-0.4,0.3-0.4h1.7v4h3.2v2.1h-3.2
		L1238.2,56.4L1238.2,56.4z"/>
</g>
</svg>
