<svg id="Layer_1" xmlns="http://www.w3.org/2000/svg" width="1260" height="102" viewBox="0 0 1260 102"><style>.st0{fill:#cc699b}.st1{fill:#fff}.st2{fill:#030304}.st3{fill:#69a063}.st4{fill:#ea5436}.st5{fill:#da4848}.st6{fill:#5eb67d}.st7{fill:none;stroke:#5eb67d;stroke-width:2;stroke-miterlimit:10}.st8{fill:#58c2dd}.st9{fill:#020203}</style><path class="st0" d="M-.1 76.5v-51L43.9 0l44 25.5v51l-44 25.5z"/><path class="st1" d="M84 74.2L43.9 97.5 3.7 74.2V27.8L43.9 4.5 84 27.8z"/><path class="st0" d="M69.2 28.8c-.6-2.3-2.2-4.2-4.8-5.6-5-2.5-12.9-2.7-20.3-.1-4.3 1.6-12.7 5-18.9 10.6-6.2 5.8-7.3 10.9-6.7 12.8 1.1 5.6 7 9.5 11.7 12.8 1.2.8 2.5 1.7 3.3 2.4-2.6 1.3-9.9 5.3-11.7 9.4-1.5 3.3-.7 5.6-.2 6.7.6 1.2 1.6 2.2 2.6 2.5 1 .3 2.1.4 3.2.4 4.2 0 8.4-2.2 10.9-6S41 66 39.9 62.9c1.7-.4 3.4-.4 5.4-.2 3.8.4 5.6 1.9 6.6 3 1 1.2 1.1 2.5 1.1 3.3-.2 1.4-1.4 2.3-1.9 2.7-.4.3-.9.6-.7 1.1.2.7 1 .6 1.2.6.9-.2 4-1.8 4.2-5.2.1-2.1-.7-4.2-2.5-6-2.1-2.2-5.4-3.4-9.1-3.3-2.7 0-4.6.3-6.1.7l-.1-.1c-1.4-1.4-3.3-2.8-4.8-4.1-3.9-2.8-7.5-5.6-7.3-9.8.4-5.2 5.5-10.3 15.5-15.1 8.9-4.3 16.1-4.5 20-3.2 1.6.6 2.6 1.3 3 2.2.7 1.7.4 3.7-.9 6-2.2 3.9-7.9 8.6-16.6 9.7-5.3.6-7.5-1.8-7.7-1.8-.6-.6-1-1.1-1.7-.6-.7.4-.4 1.4-.2 1.8.4 1.1 2.1 2.8 4.8 3.9 2.2.7 8 1.2 15.1-1.4 7.9-3 13.6-11.6 12-18.3zM35.5 69.6c-.1.2-.1.4-.2.6s-.2.4-.2.6c-.4.8-1 1.8-1.8 2.5-2.2 2.4-5.3 3-6.2 2.5-.4-.2-.4-.4-.4-.8-.2-1.1.4-3.4 2.6-5.5 2.5-2.5 5.8-4.3 6.7-4.7.1 1.8-.1 3.3-.5 4.8z"/><path class="st2" d="M179.9 76.5v-51l44-25.5 44 25.5v51l-44 25.5z"/><path class="st1" d="M264 74.2l-40.1 23.3-40.2-23.3V27.8l40.2-23.3L264 27.8z"/><path class="st2" d="M190.9 51.8c0 3 .3 5.7.9 8.1.5 2.4 1.3 4.5 2.3 6.3 1 1.8 2.2 3.3 3.8 4.7 1.5 1.3 3.2 2.5 4.9 3.3 1.8.9 3.8 1.6 6.1 2.1s4.7.9 7 1.1c2.4.2 5 .4 7.8.4 2.9 0 5.5-.1 7.9-.4 2.4-.2 4.8-.6 7-1.1 2.3-.5 4.3-1.2 6.2-2.1 1.8-.9 3.4-1.9 5-3.3 1.5-1.3 2.8-2.9 3.8-4.7 1-1.8 1.8-3.9 2.4-6.3.5-2.4.9-5.1.9-8.1 0-5.4-1.8-9.9-5.4-13.8.2-.5.4-1.1.5-1.8s.4-1.6.4-2.8c.2-1.2.1-2.6-.2-4.2-.3-1.6-.7-3.2-1.4-4.8l-.4-.1c-.4-.1-.9-.1-1.7.1-.8.1-1.7.3-2.7.6-1.1.3-2.4.9-4 1.7-1.7.8-3.3 1.8-5.2 3.1-3.2-.9-7.5-1.3-12.9-1.3-5.5 0-9.8.4-12.8 1.3-1.8-1.2-3.6-2.3-5.2-3.1-1.7-.8-3-1.4-4-1.7-1-.3-1.9-.4-2.7-.5-.9-.1-1.4-.1-1.6-.1-.3 0-.4.1-.5.1-.7 1.7-1.1 3.3-1.4 4.8-.3 1.6-.3 3-.2 4.2.2 1.2.3 2.1.4 2.8.2.6.4 1.2.5 1.8-3.7 3.8-5.5 8.4-5.5 13.7zm8.1 8.1c0-3.1 1.4-5.9 4.2-8.5.9-.8 1.8-1.3 2.9-1.8 1.1-.4 2.4-.6 3.8-.7 1.4-.1 2.7 0 4 0 1.3.1 2.9.2 4.8.3 1.8.1 3.5.2 4.9.2 1.4 0 3-.1 4.9-.2 1.8-.1 3.5-.3 4.8-.3 1.3-.1 2.6-.1 4 0s2.6.3 3.8.7 2.1 1 2.9 1.8c2.8 2.6 4.2 5.4 4.2 8.5 0 1.8-.3 3.5-.7 4.9-.4 1.4-1.1 2.6-1.8 3.6s-1.8 1.8-3 2.5c-1.3.7-2.6 1.2-3.7 1.6-1.2.4-2.7.6-4.7.9-1.9.2-3.6.4-5.1.4-1.5 0-3.3.1-5.7.1-2.4 0-4.2 0-5.7-.1-1.5 0-3.2-.2-5.1-.4-1.9-.2-3.4-.5-4.7-.9-1.2-.4-2.5-.9-3.7-1.6-1.3-.7-2.3-1.5-3-2.5-.7-1-1.3-2.2-1.8-3.6-.2-1.4-.5-3.1-.5-4.9zm33.1-.6c0 3.4 1.8 6.2 4.1 6.2s4.1-2.7 4.1-6.2-1.8-6.2-4.1-6.2-4.1 2.7-4.1 6.2zm-24.7 0c0 3.4 1.8 6.2 4.1 6.2s4.1-2.7 4.1-6.2-1.8-6.2-4.1-6.2-4.1 2.7-4.1 6.2z"/><path class="st3" d="M359.9 76.5v-51l44-25.5 44 25.5v51l-44 25.5z"/><path class="st1" d="M444 74.2l-40.1 23.3-40.2-23.3V27.8l40.2-23.3L444 27.8z"/><path class="st3" d="M403.9 83.7c-.9 0-1.8-.3-2.6-.7l-8-4.7c-1.2-.7-.6-.9-.2-1.1 1.6-.5 1.9-.7 3.6-1.7.2-.1.4-.1.6.1l6.2 3.7c.3.1.5.1.7 0l24-13.8c.3-.1.4-.4.4-.6V37.1c0-.3-.2-.5-.4-.7l-24-13.8c-.3-.1-.5-.1-.7 0l-24 13.8c-.3.2-.4.4-.4.6v27.7c0 .3.2.5.4.6l6.6 3.8c3.6 1.8 5.7-.4 5.7-2.5V39.5c0-.4.4-.7.7-.7h3.1c.4 0 .7.3.7.7v27.3c0 4.7-2.6 7.5-7.1 7.5-1.4 0-2.5 0-5.5-1.5l-6.3-3.6c-1.6-.9-2.6-2.6-2.6-4.4V37.1c0-1.8 1-3.5 2.6-4.4l24-13.9c1.5-.9 3.5-.9 5 0l24 13.9c1.6.9 2.6 2.6 2.6 4.4v27.7c0 1.8-1 3.4-2.6 4.4l-24 13.9c-.7.4-1.6.6-2.5.6z"/><path class="st3" d="M411.3 64.6c-10.5 0-12.7-4.8-12.7-8.9 0-.4.4-.7.7-.7h3.1c.4 0 .6.3.7.6.4 3.2 1.8 4.7 8.2 4.7 5 0 7.2-1.1 7.2-3.9 0-1.6-.6-2.7-8.4-3.4-6.6-.6-10.6-2.1-10.6-7.4 0-4.8 4-7.7 10.9-7.7 7.7 0 11.5 2.6 12 8.4 0 .2-.1.4-.2.5-.1.2-.4.3-.5.3h-3.1c-.4 0-.6-.3-.7-.5-.7-3.3-2.6-4.4-7.5-4.4-5.5 0-6.2 1.9-6.2 3.3 0 1.8.8 2.3 8.2 3.3 7.4 1 10.9 2.4 10.9 7.6 0 5.2-4.4 8.2-12 8.2z"/><path class="st4" d="M539.9 76.5v-51l44-25.5 44 25.5v51l-44 25.5z"/><path class="st1" d="M624 74.2l-40.1 23.3-40.2-23.3V27.8l40.2-23.3L624 27.8z"/><path class="st4" d="M616.8 47.9L586.9 18c-1.8-1.8-4.5-1.8-6.2 0l-6.2 6.2 7.8 7.8c1.8-.6 4-.2 5.4 1.2 1.5 1.5 1.8 3.6 1.2 5.5l7.6 7.6c1.8-.6 4-.3 5.5 1.2 2 2 2 5.4 0 7.4s-5.4 2-7.4 0c-1.6-1.6-1.9-3.8-1.1-5.7l-7-7v18.6c.5.3 1 .6 1.4 1 2 2 2 5.4 0 7.4s-5.4 2-7.4 0-2-5.4 0-7.4c.5-.5 1.1-.9 1.8-1.1V41.9c-.6-.3-1.2-.6-1.8-1.1-1.6-1.6-1.9-3.9-1.1-5.7l-7.7-7.7-20.5 20.5c-1.8 1.8-1.8 4.5 0 6.2L580.8 84c1.8 1.8 4.5 1.8 6.2 0l29.7-29.7c1.8-1.8 1.8-4.6.1-6.4z"/><path class="st5" d="M719.9 76.5v-51l44-25.5 44 25.5v51l-44 25.5z"/><path class="st1" d="M804 74.2l-40.1 23.3-40.2-23.3V27.8l40.2-23.3L804 27.8z"/><path class="st5" d="M763.7 68.6c-3.6 0-6.3-.5-7.7-.9-.9-.2-1.7-.4-2.2-.7l1.8 3 .7 9.4c0 1.1 3.3 1.9 7.5 1.9 4.1 0 7.5-.9 7.5-1.9l.5-9.5 1.7-2.9c-.5.3-1.3.4-2.2.7-1.2.4-4 .9-7.6.9zm10-30.7c-2.6.4-6.1.5-9.8.5s-7.1-.2-9.8-.5c-1.3-.2-2.3-.4-3.1-.6l-.8-.4 1.6 14.9c.1-.3.2-.5.3-.8.2-.5.4-1.1.7-1.5.3-.5.5-1 .8-1.4.3-.4.6-.9 1-1.2.4-.4.7-.7 1.1-1 .4-.3.7-.4 1.1-.6.4-.2.7-.3 1.1-.3.4 0 .8.1 1.1.4.4.3.7.6 1.1 1.1l.2.4v.4c0 .3-.1.4-.2.5-.1.2-.3.2-.4.2s-.3-.1-.4-.3c-.1-.2-.3-.4-.4-.6-.2-.3-.3-.4-.4-.5s-.4-.2-.5-.2c-.4 0-.6.1-1 .4-.4.3-.7.6-1.1 1.1-.4.4-.7.9-1 1.4-.4.5-.6 1.1-.9 1.7-.3.5-.4 1.1-.6 1.7-.2.5-.2 1.1-.2 1.5v.4c0 .1.1.3.1.4.1.1.1.3.3.4.1.1.2.1.4.1s.4-.1.5-.2c.2-.1.4-.3.6-.4.3-.2.4-.4.7-.6s.4-.4.6-.7c.2-.3.4-.4.5-.7.2-.2.3-.4.4-.5l.6-1.8c.1-.2.2-.4.3-.4l.4-.1h.2l.2.1.1.2v.3c0 .3 0 .5-.1.7-.1.2-.1.4-.2.6l-.3.6c-.1.2-.2.4-.3.7 0 0-.1.1-.1.3-.1.2-.1.4-.2.5-.1.2-.2.4-.2.7-.1.3-.2.5-.3.8-.1.3-.2.5-.3.8-.1.3-.2.5-.2.7-.1.2-.1.4-.2.5 0 .2-.1.3-.1.3l-.1.3-.2.3-.2.3-.3.1c-.2 0-.3-.1-.4-.2-.1-.1-.1-.3-.1-.5V58c0-.1 0-.3.1-.4.1-.3.2-.5.3-.8l.3-.9c.1-.4.2-.6.3-.9l-.8.8c-.3.3-.5.5-.9.7-.3.2-.6.4-.9.5-.3.1-.6.2-.9.2-.4 0-.6-.1-.8-.2l-.1-.1.9 9.5c.3.6 4.7 2 10.5 2s10.3-1.4 10.5-2l1.3-11.3c-.1.1-.2.2-.4.3-.4.4-.7.6-1.1.9-.4.3-.6.4-1 .6-.4.2-.6.2-1 .2s-.6-.1-.8-.3c-.2-.2-.3-.4-.3-.6V56c0-.2.1-.4.2-.5.1-.2.3-.4.4-.6.2-.3.4-.4.5-.7.2-.3.4-.4.5-.6.2-.2.3-.4.4-.5.1-.2.2-.3.2-.4l.3-.7-.2-.1c-.2 0-.4.1-.5.2-.2.1-.4.2-.5.4l-.5.5c-.2.2-.4.4-.5.6-.2.2-.3.4-.4.6-.1.2-.3.4-.4.6l-.1.3-.2.4c-.1.1-.1.3-.2.4-.1.2-.1.3-.2.4l-.2.4-.1.2-.1.3c-.1.1-.1.3-.2.4-.1.2-.2.4-.2.5-.1.2-.2.4-.2.5-.1.2-.1.4-.2.4l-.1.3c-.1.2-.1.3-.2.4l-.2.4-.3.3c-.1.1-.2.1-.4.1s-.3 0-.4-.1c-.1-.1-.2-.3-.2-.4v-.4c0-.1.1-.2.1-.4 0-.1.1-.2.1-.4l.1-.3c.3-.5.4-1.1.7-1.6.3-.5.5-1.1.7-1.6.1-.1.1-.2.2-.4-.3.3-.6.5-.9.7-.3.2-.5.4-.9.5-.3.1-.5.2-.8.2-.2 0-.4 0-.4-.1l-.3-.3c-.1-.1-.1-.2-.2-.4v-.2l-.3.2c-.3.2-.5.4-.8.4-.3.1-.5.2-.7.2s-.4-.1-.5-.2c-.2-.2-.2-.4-.2-.7 0-.3 0-.5.1-.9-.1.2-.3.4-.4.6s-.4.4-.6.6-.4.4-.7.4c-.3.1-.6.2-.9.2-.2 0-.3 0-.4-.1-.2 0-.3-.1-.4-.2-.1-.1-.2-.2-.3-.4-.1-.2-.1-.4-.1-.5v-.3c0-.2.1-.4.2-.7.1-.4.3-.8.4-1.3.2-.5.4-1.1.9-1.9.1-.2.2-.4.4-.4l.4-.1h.2l.2.1.2.2.1.2v.3c0 .1-.1.2-.2.4s-.2.4-.3.5c-.1.2-.2.4-.4.6-.1.2-.2.4-.3.7-.1.3-.2.4-.3.7-.1.3-.1.4-.1.7l.1.3.2.1c.3 0 .5-.1.8-.3.3-.2.5-.4.7-.7.3-.3.4-.6.6-.9.2-.4.4-.6.4-.9l.3-.6c.1-.2.2-.4.2-.5.1-.2.2-.4.3-.4s.2-.2.4-.2.3.1.4.2c.1.1.2.3.2.4l-.1.4c-.1.2-.2.4-.3.5-.1.2-.2.4-.3.7-.1.3-.2.5-.3.7-.1.3-.2.5-.3.7-.1.3-.1.4-.1.7 0 .2.1.3.3.3s.3-.1.5-.2.4-.3.6-.4l.2-.2c.1-.3.2-.5.3-.7.2-.4.4-.8.4-1.2.2-.4.3-.8.4-1.1l2-5.1c.1-.2.2-.4.4-.4.2-.1.3-.1.4-.1.2 0 .3.1.4.2.1.1.2.3.2.4l-.1.3c0 .1-.1.2-.2.4-.1.3-.3.5-.4.9-.2.4-.4.7-.5 1.1-.2.4-.4.9-.5 1.3-.2.4-.4.9-.5 1.3-.2.4-.4.9-.5 1.2-.2.4-.3.7-.4 1-.1.1-.1.3-.2.4-.1.2-.1.3-.1.4v.2l.2.1c.1 0 .2 0 .4-.1s.3-.2.4-.3.4-.3.5-.4c.2-.2.4-.3.5-.4.2-.2.4-.3.5-.4l.4-.4.1-.1c.1-.3.2-.4.2-.6 0-.1.1-.3.2-.4.1-.2.2-.4.2-.5.1-.2.2-.4.3-.4s.2-.2.4-.2.3 0 .4.1c.1.1.1.2.1.4v.8l.5-.5c.2-.2.4-.4.6-.4.2-.2.4-.3.6-.4s.4-.2.6-.2.3 0 .4.1c.2 0 .3.1.4.2l.3.3c.1.1.1.3.1.4s-.1.4-.2.7c-.1.3-.3.5-.4.7-.2.3-.4.5-.5.7-.2.3-.4.4-.5.6-.2.2-.3.4-.4.5-.1.2-.2.3-.2.3l.1.2.2.1c.1 0 .2 0 .4-.1s.4-.3.6-.4c.3-.2.6-.5 1-.8.3-.3.6-.5 1-.9l1.8-16.3c-.3.2-.6.3-.8.4-.2.3-1.2.5-2.5.7zm-9.9-3.9c-7.6 0-13.7.9-13.7 1.9 0 1.1 6.2 1.9 13.7 1.9 7.6 0 13.7-.9 13.7-1.9 0-1-6-1.9-13.7-1.9zm5.6 2.5c0 .3-.7.4-1.7.4-.9 0-1.7-.2-1.7-.4s.7-.4 1.7-.4 1.7.1 1.7.4z"/><path class="st5" d="M766.5 36.3c0 .2.6.4 1.3.4s1.3-.1 1.3-.3l1.8-6.9 6.9-7.2c.2-.2-.2-.7-.6-1.1-.5-.4-1.1-.6-1.1-.4l-7.3 7.7-2.3 7.8z"/><path class="st6" d="M899.9 76.5v-51l44-25.5 44 25.5v51l-44 25.5z"/><path class="st1" d="M984 74.2l-40.1 23.3-40.2-23.3V27.8l40.2-23.3L984 27.8z"/><path class="st7" d="M963.1 37.5c1.1-5.4.4-9.4-2-11.1-.8-.5-1.8-.8-3-.7-6.1.3-15.8 8.5-23.8 20.8-9.5 14.6-12.8 29.1-7.5 32.6 2.6 1.7 6.5.4 11.1-2.7"/><path class="st7" d="M967.9 61.3c4.5-1.8 7.2-4.1 7.4-6.9.4-6.3-13.5-12.2-30.8-13.1-1.6-.1-3.3-.1-4.8-.1-15.1.1-26.9 4.2-27.2 9.9-.2 2.7 2.4 5.4 6.6 7.6"/><path class="st7" d="M939.7 28.1c-3.1-2.6-6-4-8.3-3.8-.6.1-1.1.2-1.8.4-5.6 2.9-3.9 17.8 4 33.2 7.9 15.5 18.8 25.7 24.6 22.8 5.5-2.7 4-16.6-3.2-31.5"/><ellipse class="st6" cx="944.2" cy="53.2" rx="3.8" ry="3.8"/><path class="st8" d="M1079.9 76.5v-51l44-25.5 44 25.5v51l-44 25.5z"/><path class="st1" d="M1164 74.2l-40.1 23.3-40.2-23.3V27.8l40.2-23.3 40.1 23.3z"/><path class="st8" d="M1145.3 40.6c-.7-.3-1.4-.4-2.1-.7.2-.4.2-1 .4-1.5 1.6-7.8.5-14.2-3.1-16.3-3.4-2-9.2.1-14.9 5-.5.4-1.1 1-1.7 1.5-.4-.4-.7-.7-1.1-1-6-5.3-12.1-7.6-15.7-5.5-3.4 2-4.5 8-3.1 15.4.2.7.4 1.5.4 2.2-.9.3-1.7.5-2.5.8-7 2.4-11.4 6.2-11.4 10.2 0 4.1 4.8 8.3 12.1 10.7.6.2 1.2.4 1.8.5-.2.8-.4 1.6-.5 2.4-1.4 7.3-.4 13.2 3.2 15.1 3.6 2 9.6-.1 15.4-5.2.4-.4 1-.8 1.4-1.2.6.5 1.2 1.1 1.8 1.7 5.6 4.8 11.3 6.9 14.7 4.8 3.6-2 4.8-8.4 3.2-15.9-.2-.6-.3-1.2-.4-1.8.4-.2.9-.3 1.2-.4 7.7-2.6 12.6-6.6 12.6-10.7.2-3.8-4.5-7.6-11.7-10.1z"/><path class="st1" d="M1143.7 59c-.4.2-.7.3-1.1.4-.9-2.6-2-5.5-3.4-8.4 1.3-2.9 2.4-5.6 3.3-8.4.7.2 1.3.4 2 .6 6.2 2.1 9.9 5.3 9.9 7.7-.1 2.6-4.2 5.9-10.7 8.1zm-2.7 5.4c.7 3.4.7 6.4.4 8.8-.4 2.1-1.2 3.6-2.2 4.1-2.1 1.2-6.6-.4-11.4-4.5-.5-.4-1.1-1-1.7-1.5 1.8-2 3.7-4.5 5.6-7 3.2-.3 6.2-.7 9-1.4 0 .4.2.9.3 1.5zm-27.7 12.7c-2 .7-3.7.7-4.7.2-2.1-1.2-3-5.9-1.8-12.1.2-.7.4-1.5.4-2.2 2.7.6 5.7 1.1 9 1.3 1.8 2.5 3.8 5 5.7 7-.4.4-.9.8-1.2 1.2-2.5 2.2-5.1 3.8-7.4 4.6zm-9.6-18.1c-3.3-1.1-5.9-2.6-7.7-4.1-1.7-1.4-2.5-2.8-2.5-4 0-2.4 3.6-5.5 9.7-7.6.7-.3 1.5-.5 2.3-.7.9 2.7 1.9 5.5 3.3 8.4-1.3 2.9-2.5 5.8-3.3 8.5-.7-.1-1.2-.3-1.8-.5zm3.2-21.9c-1.2-6.4-.4-11.3 1.7-12.4 2.2-1.2 7.1.5 12.3 5.1.4.3.7.6 1 1-1.9 2-3.9 4.5-5.6 6.9-3.2.3-6.2.7-8.9 1.4-.2-.7-.3-1.3-.5-2zm28.7 7c-.7-1.1-1.3-2.3-2-3.3 2.1.3 4.1.6 6.1 1.1-.6 1.8-1.2 3.8-2.1 5.7-.7-1.2-1.3-2.3-2-3.5zm-11.7-11.3c1.3 1.4 2.6 3 4 4.7-2.6-.2-5.3-.2-7.8 0 1.2-1.7 2.5-3.3 3.8-4.7zm-11.8 11.3c-.7 1.1-1.2 2.3-1.8 3.4-.8-2-1.5-4-2.1-5.8 1.9-.4 4-.8 6.1-1.1-.9 1.3-1.5 2.5-2.2 3.5zm2.1 17.1c-2.2-.3-4.2-.6-6.2-1 .6-1.9 1.3-3.9 2.1-5.9.6 1.1 1.2 2.3 1.8 3.4 1 1.2 1.6 2.4 2.3 3.5zm9.9 8c-1.3-1.5-2.6-3.1-4-4.7 1.2.1 2.6.1 4 .1s2.7 0 4-.1c-1.5 1.7-2.8 3.3-4 4.7zm13.5-14.9c.9 2 1.7 4 2.3 5.9-1.9.4-4 .8-6.2 1.1.7-1.1 1.4-2.3 2-3.4.6-1.4 1.2-2.5 1.9-3.6zm-4.4 2.1c-1 1.8-2 3.4-3.2 5.1-2 .2-4 .2-6.2.2-2 0-4-.1-6.1-.2-1.1-1.7-2.3-3.4-3.3-5.2-1-1.8-1.9-3.5-2.9-5.4.9-1.8 1.8-3.6 2.9-5.4 1-1.8 2-3.4 3.2-5.1 2-.2 4-.2 6.1-.2 2 0 4 .1 6.1.2 1.1 1.7 2.2 3.4 3.2 5.1 1 1.8 2 3.5 2.9 5.3-.7 2-1.7 3.7-2.7 5.6zm5.8-31.9c2.2 1.2 3.2 6.4 1.7 13.2-.1.4-.2.9-.3 1.3-2.7-.7-5.8-1.1-8.9-1.4-1.8-2.5-3.7-5-5.6-6.9.4-.4 1-1 1.5-1.4 4.9-4.2 9.5-5.9 11.6-4.8z"/><path class="st8" d="M1123.9 45c3.3 0 5.9 2.6 5.9 5.9s-2.6 5.9-5.9 5.9-5.9-2.6-5.9-5.9 2.6-5.9 5.9-5.9m46 31.5v-51l44-25.5 44 25.5v51l-44 25.5z"/><path class="st1" d="M1254 74.2l-40.1 23.3-40.2-23.3V27.8l40.2-23.3 40.1 23.3z"/><path class="st0" d="M89.9 76.5v-51l44-25.5 44 25.5v51l-44 25.5z"/><path class="st1" d="M174 74.2l-40.1 23.3-40.2-23.3V27.8l40.2-23.3L174 27.8z"/><path class="st9" d="M120.5 46.2c-.3-.2-.6-.4-.9-.5-.3-.1-.5-.2-.8-.2-.4 0-.7.1-1 .2-.3.1-.5.3-.8.4-.3.2-.4.4-.5.6-.2.3-.2.4-.2.8s.1.6.2.8c.1.3.3.4.5.6.3.2.5.4.9.5.4.2.8.4 1.3.5.3.1.5.2.8.3.3.1.5.2.8.3.3.1.5.3.7.4.3.1.4.3.7.4 1.1.9 1.7 2 1.7 3.4 0 .7-.2 1.4-.4 1.9-.3.6-.7 1.1-1.1 1.5-.5.4-1.1.8-1.8 1-.6.3-1.3.4-2 .4-1.4 0-2.6-.4-3.5-1.2l-.5-.5c-.2-.2-.3-.4-.4-.5s-.2-.3-.3-.4c-.1-.2-.2-.3-.2-.4l.5-.3c.3-.2.5-.3.9-.3s.9.2 1.2.5l.2.2c.3.3.6.4 1 .5s.7.2 1.1.2c.4 0 .7-.1 1.1-.2.4-.1.7-.3 1.1-.5.4-.3.5-.5.8-.9.2-.4.3-.7.3-1.1 0-.4-.1-.8-.3-1.1-.2-.3-.4-.5-.7-.7-.3-.2-.6-.4-1.1-.5-.4-.2-.8-.3-1.1-.4-.5-.2-1.1-.4-1.6-.7-.5-.3-1-.5-1.4-.8-.4-.4-.7-.7-1-1.2-.3-.4-.4-1.1-.4-1.8 0-.6.2-1.2.4-1.8.3-.5.6-1 1.1-1.3.4-.4 1-.6 1.5-.8.5-.2 1.1-.3 1.8-.3.4 0 .9.1 1.3.2.4.2.8.4 1.2.5.4.3.7.4 1.1.8.3.3.5.5.7.8l-.5.4c-.3.3-.7.4-1.1.4-.7.1-1 0-1.3-.1zm5.9 3.2l.3-.4.4-.4c.2-.1.3-.3.4-.4.4-.3.9-.5 1.4-.6.5-.1 1.1-.3 1.7-.3.6 0 1.1.1 1.7.3.4.2.9.4 1.2.6.4.3.6.6.8 1 .2.4.4.8.5 1.2.1.4.2.9.3 1.4 0 .5.1 1 .1 1.5v5.8h-1.8c-.1-.1-.2-.3-.3-.4-.1-.2-.1-.4-.1-.5V58c-.2.2-.4.4-.7.5-.3.2-.6.4-.9.4-.4.1-.6.2-1 .3s-.6.1-.9.1c-.6 0-1.1-.1-1.6-.3s-.9-.4-1.2-.7-.6-.7-.8-1.1c-.2-.4-.3-.9-.3-1.4 0-.6.1-1.1.4-1.6.2-.4.5-.9 1-1.1.4-.4 1-.6 1.7-.8.7-.2 1.4-.3 2.4-.3h1.3c.2 0 .4 0 .4.1h.3c0-.5-.1-1-.3-1.3-.2-.4-.4-.6-.5-.8-.2-.2-.4-.4-.7-.4s-.5-.1-.9-.1-.6 0-.9.1-.4.1-.5.2l-.4.2c-.2.1-.4.1-.6.1-.2 0-.4 0-.5-.1-.2-.1-.4-.2-.5-.3l-.9-.3zm3.1 7.9c.3 0 .5 0 .8-.1s.6-.1.9-.2c.3-.1.6-.2.9-.4.3-.1.6-.3.9-.4v-1.9h-2c-.4 0-.9 0-1.2.1s-.7.2-1.1.3c-.3.1-.5.3-.7.5-.2.2-.3.4-.3.8 0 .3.1.4.2.6.1.2.2.4.4.4l.6.3c.2.1.3 0 .6 0zm8.3-.5c.2-.1.3-.2.4-.2.2-.1.3-.1.4-.1s.4 0 .5.1.4.2.6.4c.2.1.4.2.5.3.2.1.4.1.6.1.3 0 .4 0 .7-.1s.4-.2.6-.3c.2-.2.4-.3.4-.5.1-.2.2-.4.2-.7 0-.2 0-.4-.1-.5-.1-.2-.2-.3-.4-.4-.2-.1-.4-.3-.6-.4-.3-.1-.6-.3-1-.4-.4-.2-.8-.3-1.2-.4-.4-.2-.7-.4-1.1-.6-.3-.3-.5-.5-.7-1-.2-.4-.3-.8-.3-1.3 0-.4.1-.9.3-1.2.2-.4.4-.7.8-1s.7-.5 1.1-.7.9-.3 1.3-.3.9.1 1.2.3.7.4 1 .5c.3.2.4.4.6.6.2.2.3.3.3.4l-.5.4c-.3.3-.7.4-1.1.4-.2 0-.3 0-.4-.1l-.6-.3c-.2-.1-.3-.1-.4-.1-.3 0-.5 0-.7.1-.2.1-.4.2-.4.3l-.3.4-.1.3c0 .2.1.4.2.5.1.2.3.3.4.4l.6.3c.3.1.4.2.7.3.4.2.9.4 1.3.5.4.2.8.4 1.1.7.3.3.6.6.8 1 .2.4.3.9.3 1.4s-.1 1-.3 1.4c-.2.4-.4.8-.8 1.1-.4.4-.8.6-1.2.8-.5.2-1.1.3-1.6.3-.4 0-.8-.1-1.1-.2s-.7-.3-1.1-.4c-.4-.2-.6-.4-.9-.7-.3-.3-.5-.6-.7-1l.7-.4zm9.3 0c.2-.1.3-.2.4-.2.2-.1.3-.1.4-.1.2 0 .4 0 .5.1s.4.2.6.4c.2.1.4.2.5.3.2.1.4.1.6.1.3 0 .4 0 .7-.1.3-.1.4-.2.6-.3.2-.2.4-.3.4-.5.1-.2.2-.4.2-.7 0-.2 0-.4-.1-.5-.1-.2-.2-.3-.4-.4-.2-.1-.4-.3-.6-.4-.3-.1-.6-.3-1-.4-.4-.2-.8-.3-1.2-.4-.4-.2-.7-.4-1.1-.6-.3-.3-.5-.5-.7-1-.2-.4-.3-.8-.3-1.3 0-.4.1-.9.3-1.2.2-.4.4-.7.8-1s.7-.5 1.1-.7.9-.3 1.3-.3.9.1 1.2.3.7.4 1 .5c.3.2.4.4.6.6.2.2.3.3.3.4l-.5.4c-.3.3-.7.4-1.1.4-.2 0-.3 0-.4-.1s-.4-.2-.6-.3c-.2-.1-.3-.1-.4-.1-.3 0-.5 0-.7.1-.2.1-.4.2-.4.3l-.3.4-.1.3c0 .2.1.4.2.5.1.2.3.3.4.4l.6.3c.3.1.4.2.7.3.4.2.9.4 1.3.5.4.2.8.4 1.1.7.3.3.6.6.8 1 .2.4.3.9.3 1.4s-.1 1-.3 1.4c-.2.4-.4.8-.8 1.1-.4.4-.8.6-1.2.8-.5.2-1.1.3-1.6.3-.4 0-.8-.1-1.1-.2s-.7-.3-1.1-.4c-.4-.2-.6-.4-.9-.7-.3-.3-.5-.6-.7-1l.7-.4z"/><path class="st2" d="M269.9 76.5v-51l44-25.5 44 25.5v51l-44 25.5z"/><path class="st1" d="M354 74.2l-40.1 23.3-40.2-23.3V27.8l40.2-23.3L354 27.8z"/><path class="st9" d="M291.6 51.5v6.3c-.4.4-.8.7-1.2.9-.4.3-.9.4-1.4.5-.5.2-1.1.3-1.6.3-.5.1-1.1.1-1.7.1-1.1 0-2.2-.2-3.2-.6-1-.4-1.8-1-2.6-1.8s-1.3-1.6-1.8-2.6c-.4-1-.6-2-.6-3.2 0-.7.1-1.5.3-2.1.2-.7.4-1.3.8-1.9s.8-1.1 1.2-1.7c.5-.5 1.1-.9 1.7-1.2.6-.4 1.2-.6 1.9-.8.7-.2 1.4-.3 2.1-.3.6 0 1.1.1 1.7.2.5.1 1.1.3 1.6.5s1 .5 1.4.8c.4.4.9.7 1.2 1.1l-.4.4c-.2.2-.4.4-.5.4-.2.1-.4.1-.7.1-.4 0-.6-.1-.9-.3-.4-.4-1-.6-1.6-.8-.5-.2-1.1-.3-1.8-.3-.8 0-1.6.2-2.3.4-.7.3-1.3.7-1.8 1.2s-1 1.1-1.2 1.8c-.4.7-.4 1.5-.4 2.3s.2 1.6.4 2.3c.4.7.8 1.3 1.3 1.8s1.1 1 1.9 1.2c.7.4 1.5.4 2.3.4.7 0 1.3-.1 1.9-.3.6-.2 1.1-.4 1.7-.7v-2.7h-.9c-.3 0-.5-.1-.7-.2-.2-.1-.4-.2-.5-.4-.2-.2-.3-.4-.4-.5s-.1-.4-.1-.6v-.4h4.9zm3-6.4c0-.2 0-.4.1-.6s.2-.4.4-.4l.4-.4c.2-.1.4-.1.6-.1.3 0 .4 0 .6.1.2.1.4.2.4.4l.4.4c.1.1.1.4.1.6 0 .2 0 .4-.1.6-.1.2-.2.4-.4.4l-.4.4c-.2.1-.4.1-.6.1-.3 0-.4 0-.6-.1s-.4-.2-.4-.4l-.4-.4c-.1-.2-.1-.4-.1-.6zm2.6 2.9v11.5H295V48h2.2zm6.2 8.6l.1.4.2.4.3.3c.1.1.2.1.4.1h.3c.4-.1.6-.1.8-.1.3 0 .5.1.8.3.3.2.4.4.6.5l.3.4c-.2.1-.4.3-.5.4-.2.1-.4.3-.7.4-.3.1-.5.2-.8.3-.3.1-.5.1-.7.1-.4 0-.9-.1-1.2-.3-.4-.2-.7-.4-1-.6-.3-.3-.4-.6-.6-1-.2-.4-.2-.8-.2-1.2v-6.6h-1.9V49c0-.6.5-.9 1.7-.9h.3v-2.4c0-.3 0-.4.1-.7.1-.2.1-.4.2-.5.1-.2.2-.4.3-.4h1.7v4h3.2v2.1h-3.2l-.5 6.4zm18.8 2.9H320v-6.8h-8.6v6.8h-2.1V43.8h2.1v6.7h8.6v-6.7h2.2zm11.2 0l-.2-.3-.1-.3-.1-.4v-.4c-.1.3-.4.5-.5.7-.2.2-.5.4-.8.4s-.6.3-1 .3c-.4.1-.7.1-1.1.1-.6 0-1.2-.1-1.8-.4-.5-.3-1-.6-1.4-1.1-.4-.4-.7-1-.9-1.6-.2-.6-.4-1.3-.4-2.1V48h2.2v6.5c0 1 .2 1.7.5 2.3.4.5.9.8 1.7.8.4 0 .9-.1 1.2-.2s.7-.3 1.1-.4c.3-.2.5-.4.7-.6.2-.3.3-.5.3-.8v-7.7h2.2v11.5l-1.6.1zm5.1 0V43.8h2.2V49c.3-.3.4-.4.7-.5s.5-.3.8-.4c.3-.1.5-.2.8-.2s.5-.1.8-.1c.8 0 1.6.2 2.3.4.7.4 1.3.7 1.8 1.2s.9 1.1 1.2 1.8c.3.7.4 1.5.4 2.3s-.2 1.6-.4 2.3c-.3.7-.7 1.3-1.2 1.8s-1.1 1-1.8 1.3c-.7.4-1.5.4-2.3.4-.5 0-1.1-.1-1.6-.3s-1-.4-1.5-1v.1l-.1.4-.1.3-.2.3h-1.8v.4zm5.2-1.9c.5 0 1.1-.1 1.5-.3s.8-.4 1.1-.8c.4-.4.5-.8.7-1.2.2-.4.3-1 .3-1.5s-.1-1.1-.3-1.5c-.2-.4-.4-.9-.7-1.2-.4-.4-.7-.6-1.1-.8-.4-.2-.9-.3-1.5-.3-.5 0-1.1.1-1.7.4-.5.3-1 .5-1.4.9v5.1c.4.4.9.7 1.4.9.6.2 1.2.3 1.7.3z"/><path class="st3" d="M449.9 76.5v-51l44-25.5 44 25.5v51l-44 25.5z"/><path class="st1" d="M534 74.2l-40.1 23.3-40.2-23.3V27.8l40.2-23.3L534 27.8z"/><path class="st9" d="M470.3 58.9h-1.8l-9-12.3-.2-.3-.1-.3-.1-.4v13.2H457V43.2h1.6c.4 0 .7.1.9.2.2.1.4.3.6.4l7.7 10.6c.2.3.4.6.4 1.1V43.2h2.2l-.1 15.7zm2.7-5.8c0-.8.2-1.6.4-2.3.4-.7.7-1.3 1.2-1.8s1.1-1 1.9-1.3c.7-.4 1.5-.4 2.3-.4.8 0 1.6.2 2.3.4.7.4 1.3.7 1.9 1.3.5.5 1 1.1 1.3 1.8.4.7.4 1.5.4 2.3 0 .8-.2 1.6-.4 2.3-.4.7-.7 1.3-1.3 1.8-.5.5-1.1 1-1.9 1.3-.7.4-1.5.4-2.3.4-.8 0-1.6-.2-2.3-.4-.7-.4-1.3-.7-1.9-1.3-.5-.5-1-1.1-1.2-1.8-.2-.7-.4-1.4-.4-2.3zm2.2 0c0 .5.1 1.1.3 1.5.2.4.4.9.8 1.2.4.4.7.6 1.2.8.4.2 1 .3 1.5.3s1.1-.1 1.5-.3c.4-.2.9-.4 1.2-.8.4-.4.6-.8.8-1.2.2-.4.3-1 .3-1.5s-.1-1.1-.3-1.5c-.2-.4-.4-.9-.8-1.2-.4-.4-.8-.6-1.2-.8-.4-.2-1-.3-1.5-.3s-1.1.1-1.5.3c-.4.2-.9.4-1.2.8-.4.4-.6.8-.8 1.2-.3.5-.3 1-.3 1.5zm20.4 5.8l-.2-.3-.1-.3-.1-.4v-.1c-.3.3-.4.4-.7.5-.3.1-.5.3-.8.4-.3.1-.5.2-.8.2-.3 0-.5.1-.8.1-.8 0-1.6-.2-2.3-.4-.7-.4-1.3-.7-1.8-1.3s-.9-1.1-1.2-1.8c-.4-.7-.4-1.5-.4-2.3 0-.8.2-1.6.4-2.3s.7-1.3 1.2-1.8 1.1-1 1.8-1.2c.7-.4 1.5-.4 2.3-.4.3 0 .5 0 .8.1.3 0 .5.1.8.2.3.1.5.2.8.4.3.2.4.4.7.5v-5.2h2.2v15.6h-1.8zm-3.4-9.6c-.5 0-1.1.1-1.5.3s-.8.4-1.1.8c-.4.4-.5.7-.7 1.2-.2.4-.3 1-.3 1.5s.1 1.1.3 1.5c.2.4.4.9.7 1.2.3.4.7.6 1.1.8s.9.3 1.5.3c.5 0 1.1-.1 1.7-.4.5-.3 1-.5 1.4-.9v-5.1c-.4-.4-.9-.7-1.4-.9s-1.1-.3-1.7-.3zm19.5 2.8c0 .3-.1.5-.2.7-.1.2-.3.4-.4.5-.2.2-.4.3-.5.4-.2.1-.4.1-.5.1h-8c.1.4.2.9.4 1.2.3.4.5.7.9 1 .4.3.7.5 1.1.7s.9.3 1.3.3.7 0 1-.1c.4-.1.6-.2.9-.4.2-.1.3-.2.4-.2s.3-.1.4-.1c.3 0 .4.1.6.1.2.1.4.2.5.4l.4.4c-.5.6-1.2 1.1-1.9 1.4-.7.4-1.6.5-2.4.5-.8 0-1.6-.2-2.3-.4-.7-.4-1.3-.7-1.9-1.3-.5-.5-1-1.1-1.2-1.8-.4-.7-.4-1.5-.4-2.3 0-.8.2-1.6.4-2.3.4-.7.7-1.3 1.2-1.8s1.1-1 1.9-1.3c.7-.4 1.5-.4 2.3-.4.7 0 1.3.1 1.9.4.6.3 1.1.5 1.7 1 .5.4 1 .9 1.3 1.4.4.5.6 1.1.8 1.8l.3.1zm-8.7-.4h6.4c-.2-.4-.4-.7-.5-1-.3-.3-.5-.5-.8-.7-.3-.2-.6-.4-1-.5-.4-.1-.8-.2-1.1-.2-.4 0-.9.1-1.2.2-.4.2-.8.4-1.1.5-.4.3-.6.5-.8.9-.3.4-.4.7-.5 1.1l.3-.3h.3zm10.3 5.9c0-.2 0-.4.1-.6.1-.2.2-.4.4-.4l.4-.4c.1-.1.4-.1.6-.1s.4 0 .6.1c.2.1.4.2.4.4l.4.4c.1.2.1.4.1.6 0 .3 0 .4-.1.6s-.2.4-.4.4c-.2.1-.3.3-.4.4-.2.1-.4.1-.6.1s-.4 0-.6-.1-.4-.2-.4-.4c-.1-.2-.3-.3-.4-.4 0-.2-.1-.4-.1-.6zm8 .9c0 .5-.1 1.1-.3 1.5-.2.4-.4.9-.6 1.3-.3.4-.6.8-1 1.1-.4.3-.8.5-1.2.7l-.4-.8c0-.1-.1-.2-.1-.4v-.4c0-.3 0-.4.1-.6s.2-.4.4-.4c.1-.2.3-.4.4-.4.1-.2.3-.4.4-.5.2-.4.3-.7.3-1.1V47.4h2.2l-.2 11.1zm-2.6-14c0-.2 0-.4.1-.6.1-.2.2-.4.4-.4l.4-.4c.1-.1.4-.1.6-.1s.4 0 .6.1.4.2.4.4l.4.4c.1.2.1.4.1.6 0 .2 0 .4-.1.6-.1.2-.2.4-.4.4l-.4.4c-.2.1-.4.1-.6.1s-.4 0-.6-.1-.4-.2-.4-.4l-.4-.4c-.1-.3-.1-.4-.1-.6zm5.6 12c.2-.1.3-.2.4-.2.2-.1.3-.1.4-.1s.4 0 .5.1c.2.1.4.2.6.4.2.1.4.2.5.3.2.1.4.1.6.1.3 0 .4 0 .7-.1.3-.1.4-.2.6-.4.2-.2.4-.3.4-.5.1-.2.2-.4.2-.7 0-.2 0-.4-.1-.5-.1-.2-.2-.3-.4-.4-.2-.1-.4-.3-.6-.4s-.6-.3-1-.4c-.4-.2-.8-.3-1.2-.4-.4-.2-.7-.4-1.1-.6-.3-.3-.5-.5-.7-1-.2-.4-.3-.8-.3-1.3 0-.4.1-.9.3-1.2s.4-.7.8-1 .7-.5 1.1-.6c.4-.2.9-.3 1.3-.3s.9.1 1.2.3c.4.2.7.4 1 .5.3.2.4.4.6.6.2.2.3.3.3.4l-.5.4c-.3.3-.7.4-1.1.4-.2 0-.3 0-.4-.1l-.6-.3c-.2-.1-.3-.1-.4-.1-.3 0-.5 0-.7.1s-.4.2-.4.3l-.3.4-.1.3c0 .2.1.4.2.5.1.2.3.3.4.4l.6.3c.3.1.4.2.7.3.4.2.9.4 1.3.5.4.2.8.4 1.1.7.4.3.6.6.8 1 .2.4.3.9.3 1.4 0 .5-.1 1-.3 1.4-.2.4-.4.9-.8 1.1-.4.4-.8.6-1.2.8-.5.2-1.1.3-1.6.3-.4 0-.8-.1-1.1-.2-.4-.1-.7-.3-1.1-.4-.4-.2-.6-.4-.9-.7-.3-.3-.5-.6-.7-1l.7-.4z"/><path class="st4" d="M629.9 76.5v-51l44-25.5 44 25.5v51l-44 25.5z"/><path class="st1" d="M714 74.2l-40.1 23.3-40.2-23.3V27.8l40.2-23.3L714 27.8z"/><path class="st9" d="M671.4 51v6.3c-.4.4-.8.7-1.2.9-.4.3-.9.4-1.4.5-.5.1-1.1.3-1.6.3-.5.1-1.1.1-1.7.1-1.1 0-2.2-.2-3.2-.6-1-.4-1.8-1-2.6-1.8-.7-.7-1.3-1.6-1.8-2.6-.4-1-.6-2-.6-3.2 0-.7.1-1.5.3-2.1s.4-1.3.8-1.9.8-1.1 1.2-1.7c.5-.5 1.1-.9 1.7-1.2s1.2-.6 1.9-.8 1.4-.3 2.1-.3c.6 0 1.1.1 1.7.2.5.1 1.1.3 1.6.5.5.3 1 .5 1.4.8.4.4.9.7 1.2 1.1l-.4.4c-.2.2-.4.3-.5.4-.2.1-.4.2-.7.2-.4 0-.6-.1-.9-.3-.4-.4-1-.6-1.6-.8-.5-.2-1.1-.3-1.8-.3-.8 0-1.6.2-2.3.4-.7.3-1.3.7-1.8 1.2s-1 1.1-1.2 1.8c-.4.7-.4 1.5-.4 2.3 0 .8.2 1.6.4 2.3.4.7.8 1.3 1.3 1.8s1.1 1 1.9 1.2c.7.3 1.5.4 2.3.4.7 0 1.3-.1 1.9-.3.6-.2 1.1-.4 1.7-.7v-2.9h-.9c-.3 0-.5-.1-.7-.2-.2-.1-.4-.2-.5-.4-.2-.2-.3-.4-.4-.5-.1-.2-.1-.4-.1-.6v.1h4.9zm3-6.4c0-.2 0-.4.1-.6.1-.2.2-.4.4-.4l.4-.4c.2-.1.4-.1.6-.1s.4 0 .6.1c.2.1.4.2.4.4l.4.4c.1.2.1.4.1.6 0 .2 0 .4-.1.6-.1.2-.2.4-.4.4l-.4.4c-.2.1-.4.1-.6.1s-.4 0-.6-.1c-.2-.1-.4-.2-.4-.4l-.4-.4c-.1-.3-.1-.4-.1-.6zm2.6 2.9V59h-2.2V47.5h2.2zm6.2 8.6l.1.4.2.4.3.3c.1.1.2.1.4.1h.3c.4-.1.6-.1.8-.1.3 0 .5.1.8.3.3.2.4.4.6.6l.3.4c-.2.2-.4.3-.5.4-.3.1-.4.3-.7.4s-.5.2-.8.3c-.3.1-.5.1-.7.1-.4 0-.9-.1-1.2-.3-.4-.2-.7-.4-1-.6-.3-.3-.4-.6-.6-1-.2-.4-.2-.8-.2-1.2V50h-1.9v-1.3c0-.6.5-.9 1.7-.9h.3v-2.4c0-.3 0-.4.1-.7.1-.2.1-.4.2-.5.1-.2.2-.4.3-.4h1.7v4h3.2v2.1h-3.2l-.5 6.2z"/><path class="st5" d="M809.9 76.5v-51l44-25.5 44 25.5v51l-44 25.5z"/><path class="st1" d="M894 74.2l-40.1 23.3-40.2-23.3V27.8l40.2-23.3L894 27.8z"/><path class="st9" d="M844.4 51.4v6.3c-.4.4-.8.7-1.2.9-.4.3-.9.4-1.4.5s-1.1.3-1.6.3c-.5.1-1.1.1-1.7.1-1.1 0-2.2-.2-3.2-.6-1-.4-1.8-1-2.6-1.8-.7-.7-1.3-1.6-1.8-2.6s-.6-2-.6-3.2c0-.7.1-1.5.3-2.1.2-.6.4-1.3.8-1.9.4-.6.8-1.1 1.2-1.7.5-.5 1.1-.9 1.7-1.2.6-.4 1.2-.6 1.9-.8.7-.2 1.4-.3 2.1-.3.6 0 1.1.1 1.7.2.5.1 1.1.3 1.6.5.5.3 1 .5 1.4.8.4.4.9.7 1.2 1.1l-.4.4c-.2.2-.4.3-.5.4-.2.1-.4.2-.7.2-.4 0-.6-.1-.9-.3-.4-.4-1-.6-1.6-.8-.5-.2-1.1-.3-1.8-.3-.8 0-1.6.2-2.3.4s-1.3.7-1.8 1.2-1 1.1-1.2 1.8c-.4.7-.4 1.5-.4 2.3 0 .8.2 1.6.4 2.3.4.7.8 1.3 1.3 1.8s1.1 1 1.9 1.2c.7.3 1.5.4 2.3.4.7 0 1.3-.1 1.9-.3s1.1-.4 1.7-.7V53h-.9c-.3 0-.5-.1-.7-.2-.2-.1-.4-.2-.5-.4-.2-.2-.3-.4-.4-.5-.1-.2-.1-.4-.1-.6v-.4h4.8v.5zm10.9 8l-.2-.3-.1-.3-.1-.4V58c-.1.3-.4.5-.5.7-.3.2-.5.4-.8.5-.3.1-.6.3-1 .3-.4.1-.7.1-1.1.1-.6 0-1.2-.1-1.8-.4-.5-.3-1-.6-1.4-1.1-.4-.4-.7-1-.9-1.6-.2-.6-.4-1.3-.4-2.1v-6.6h2.2v6.6c0 1 .2 1.7.5 2.3.4.5.9.8 1.7.8.4 0 .9-.1 1.2-.2s.7-.3 1.1-.4c.3-.2.5-.4.7-.6.2-.3.3-.5.3-.8v-7.7h2.2v11.5l-1.6.1zm5.3-15.8h2.2v15.7h-2.2zm7.5 4.2l.2.3.1.3.1.4v.4c0-.2.1-.4.2-.5.1-.2.3-.3.4-.4l.6-.3c.2-.1.4-.2.6-.2.2-.1.4-.1.6-.1h.5c.8 0 1.6.2 2.3.4.7.4 1.3.7 1.8 1.3.5.5.9 1.1 1.2 1.8.3.7.4 1.5.4 2.3 0 .8-.2 1.6-.4 2.3-.3.7-.7 1.3-1.2 1.8s-1.1 1-1.8 1.3c-.7.4-1.5.4-2.3.4-.3 0-.5 0-.8-.1-.3-.1-.5-.1-.8-.2-.3-.1-.5-.2-.8-.4-.3-.2-.4-.4-.7-.5V63h-2.2V47.8h2zm3.3 9.6c.5 0 1.1-.1 1.5-.3.4-.2.8-.4 1.1-.8.4-.4.5-.7.7-1.2.2-.4.3-1 .3-1.5s-.1-1.1-.3-1.5c-.2-.4-.4-.9-.7-1.2s-.7-.6-1.1-.8-.9-.3-1.5-.3c-.5 0-1.1.1-1.7.4-.5.3-1 .5-1.4.9v5.1c.4.4.9.7 1.4.9.6.1 1.1.3 1.7.3z"/><path class="st6" d="M989.9 76.5v-51l44-25.5 44 25.5v51l-44 25.5z"/><path class="st1" d="M1074 74.2l-40.1 23.3-40.2-23.3V27.8l40.2-23.3 40.1 23.3z"/><path class="st9" d="M1013.4 43.5h2.1l6.9 15.7h-1.2c-.4 0-.6-.1-1-.3-.3-.2-.5-.4-.6-.7l-1.1-2.5h-8l-1.1 2.5c-.1.4-.4.5-.6.7-.3.2-.6.3-1 .3h-1.2l6.8-15.7zm.9 3.5l-2.9 6.6h6.2l-2.9-6.6c-.1-.3-.2-.5-.2-1 0 .2 0 .4-.1.5 0 .2 0 .4-.1.5zm12.2 9.4l.1.4.2.4.3.3c.1.1.2.1.4.1h.3c.4-.1.6-.1.8-.1.3 0 .5.1.8.3.3.2.4.4.6.6l.3.4c-.2.2-.4.3-.5.4-.3.1-.4.3-.7.4s-.5.2-.8.3c-.3.1-.5.1-.7.1-.4 0-.9-.1-1.2-.3-.4-.2-.7-.4-1-.6s-.4-.6-.6-1c-.2-.4-.2-.8-.2-1.2v-6.6h-1.9v-1.1c0-.6.5-.9 1.7-.9h.3v-2.4c0-.3 0-.4.1-.6.1-.2.1-.4.2-.5.1-.2.2-.4.3-.4h1.7v4h3.2v2.1h-3.2l-.5 5.9zm4.3-2.9c0-.8.2-1.6.4-2.3.4-.7.7-1.3 1.2-1.8s1.1-1 1.9-1.3c.7-.4 1.5-.4 2.3-.4.8 0 1.6.2 2.3.4.7.4 1.3.7 1.9 1.3.5.5 1 1.1 1.3 1.8.4.7.4 1.5.4 2.3 0 .8-.2 1.6-.4 2.3-.4.7-.7 1.3-1.3 1.8-.6.5-1.1 1-1.9 1.3-.7.4-1.5.4-2.3.4-.8 0-1.6-.2-2.3-.4-.7-.4-1.3-.7-1.9-1.3-.5-.5-1-1.1-1.2-1.8-.3-.8-.4-1.5-.4-2.3zm2.1 0c0 .5.1 1.1.3 1.5.2.4.4.9.8 1.2.4.4.7.6 1.2.8.4.2 1 .3 1.5.3s1.1-.1 1.5-.3c.4-.2.9-.4 1.2-.8.4-.4.6-.7.8-1.2.2-.4.3-1 .3-1.5s-.1-1.1-.3-1.5c-.2-.4-.4-.9-.8-1.2-.4-.4-.8-.6-1.2-.8-.4-.2-1-.3-1.5-.3s-1.1.1-1.5.3c-.4.2-.9.4-1.2.8-.4.4-.6.7-.8 1.2-.2.5-.3.9-.3 1.5zm20.4-3.7c.2-.4.4-.7.6-1.1.3-.3.6-.5.9-.7.4-.2.7-.4 1.1-.4s.8-.1 1.1-.1c.7 0 1.3.2 1.8.4.5.3.9.7 1.2 1.1.3.4.5 1.1.7 1.7s.2 1.2.2 1.9v6.5h-2.2v-6.4c0-.4 0-.6-.1-1.1-.1-.4-.2-.7-.3-1-.2-.3-.4-.5-.5-.8-.3-.2-.5-.3-1-.3-.4 0-.7.1-1.1.2-.4.1-.6.3-.9.4-.3.2-.4.4-.6.6-.2.3-.3.5-.3.8v7.6h-2.2v-6.6c0-.4 0-.6-.1-1.1-.1-.4-.2-.7-.3-1-.2-.3-.4-.5-.5-.8-.3-.2-.5-.3-1-.3-.4 0-.7.1-1.1.2-.4.1-.6.3-.9.4-.3.2-.4.4-.6.6-.2.3-.3.5-.3.8v7.6h-2.2V47.7h1.8l.2.3.1.3.1.4v.4c.2-.3.3-.5.5-.7.2-.2.4-.4.7-.4s.5-.3.9-.3c.3-.1.6-.1.9-.1.4 0 .9.1 1.2.2.4.1.6.3.9.4s.4.4.6.7c.5.3.7.5.7.9zm134.4 9.5h-2.2V43.5h5.6c.6 0 1.2.1 1.8.4.5.3 1.1.5 1.5 1 .4.4.7.9 1 1.5.3.5.4 1.1.4 1.8 0 .5-.1 1-.3 1.5-.2.4-.4.9-.7 1.2-.3.4-.6.7-1.1 1-.4.3-.8.5-1.3.6l5 6.8h-1.5c-.4 0-.8-.1-1.1-.3-.4-.2-.6-.4-.8-.7l-4.1-5.5h-2.4v6.6h.2zm0-13.6v4.8h3.5c.4 0 .6-.1 1-.2.3-.1.5-.3.8-.5.3-.3.4-.4.5-.8.1-.3.2-.6.2-1s-.1-.6-.2-1c-.1-.3-.3-.5-.5-.8-.3-.3-.4-.4-.8-.5-.3-.1-.6-.2-1-.2l-3.5.2zm22.1 6.8c0 .3-.1.5-.2.7-.1.2-.3.4-.4.5-.2.2-.4.3-.5.4-.2.1-.4.1-.5.1h-8c.1.4.2.9.4 1.2.3.4.5.7.9 1s.7.5 1.1.7c.4.2.9.3 1.3.3s.7 0 1-.1c.4-.1.6-.2.9-.4.2-.1.3-.2.4-.2.2 0 .3-.1.4-.1.3 0 .4.1.6.1.2.1.4.2.5.4l.4.4c-.5.6-1.2 1.1-1.9 1.4-.7.4-1.6.5-2.4.5s-1.6-.2-2.3-.4c-.7-.4-1.3-.7-1.9-1.3-.5-.5-1-1.1-1.2-1.8-.4-.7-.4-1.5-.4-2.3 0-.8.2-1.6.4-2.3.4-.7.7-1.3 1.2-1.8s1.1-1 1.9-1.3c.7-.4 1.5-.4 2.3-.4.7 0 1.3.1 1.9.4.6.3 1.1.5 1.7 1 .5.4 1 .9 1.3 1.4.4.5.6 1.1.8 1.8l.3.1zm-8.7-.4h6.4c-.2-.4-.4-.7-.5-1-.3-.3-.5-.5-.8-.7-.3-.2-.6-.4-1-.5-.4-.1-.8-.2-1.1-.2-.4 0-.9.1-1.2.2-.4.2-.8.4-1.1.5-.4.3-.6.5-.8.9-.3.4-.4.7-.5 1.1l.3-.3h.3zm11.4-2.7l.3-.4.4-.4c.2-.1.3-.3.4-.4.4-.3.9-.5 1.4-.6.5-.2 1.1-.3 1.7-.3.6 0 1.1.1 1.7.3.4.2.9.4 1.2.6.4.3.6.6.8 1s.4.8.5 1.2c.1.4.2.9.3 1.4 0 .5.1 1 .1 1.5V59h-1.8c-.1-.1-.2-.3-.3-.4-.1-.2-.1-.4-.1-.5V58c-.2.2-.4.4-.7.5-.3.2-.6.4-.9.4-.4.1-.6.2-1 .3s-.6.1-.9.1c-.6 0-1.1-.1-1.6-.3-.4-.2-.9-.4-1.2-.7s-.6-.7-.8-1.1c-.2-.4-.3-.9-.3-1.4 0-.5.1-1.1.4-1.6.2-.4.5-.9 1-1.1.4-.4 1-.6 1.7-.8.7-.2 1.4-.3 2.4-.3h1.3c.2 0 .4 0 .4.1h.3c0-.5-.1-1-.3-1.3-.2-.4-.4-.6-.5-.8-.2-.2-.4-.4-.7-.4s-.5-.1-.9-.1-.6 0-.9.1-.4.1-.5.2l-.4.2c-.2.1-.4.1-.6.1-.2 0-.4 0-.5-.1-.2-.1-.4-.2-.5-.3l-.9-.3zm3.1 7.9c.3 0 .5 0 .8-.1.3-.1.6-.1.9-.2s.6-.2.9-.4c.3-.1.6-.3.9-.4v-1.9h-2c-.4 0-.9 0-1.2.1-.4.1-.7.2-1.1.3-.3.1-.5.3-.7.5-.2.2-.3.4-.3.8 0 .3.1.4.2.6.1.2.2.4.4.4l.6.3c.2.1.3 0 .6 0zm13.6-7.6c-.5 0-1.1.1-1.5.3-.4.2-.9.4-1.2.8-.4.4-.6.8-.8 1.2-.2.4-.3 1-.3 1.5s.1 1.1.3 1.5c.2.4.4.9.8 1.2s.8.6 1.2.8c.4.2 1 .3 1.5.3.4 0 .6 0 1-.1s.6-.2.9-.4c.3-.2.5-.3.9-.3.3 0 .4.1.6.1.2.1.4.2.5.4l.4.4c-.5.6-1.2 1.1-1.9 1.4-.7.4-1.6.5-2.4.5-.8 0-1.6-.2-2.3-.4-.7-.4-1.3-.7-1.9-1.3-.5-.5-1-1.1-1.3-1.8s-.4-1.5-.4-2.3c0-.8.2-1.6.4-2.3s.7-1.3 1.3-1.8c.5-.5 1.1-1 1.9-1.3.7-.4 1.5-.4 2.3-.4.9 0 1.7.2 2.4.5.7.4 1.4.8 1.9 1.4l-.4.4c-.2.2-.4.3-.5.4-.2.1-.4.1-.7.1s-.5-.1-.8-.3c-.3-.2-.6-.3-.9-.4-.4 0-.6-.1-1-.1zm9 6.7l.1.4.2.4.3.3c.1.1.2.1.4.1h.3c.4-.1.6-.1.8-.1.3 0 .5.1.8.3.3.2.4.4.6.5l.3.4c-.2.1-.4.3-.5.4-.2.1-.4.3-.7.4s-.5.2-.8.3c-.3.1-.5.1-.7.1-.4 0-.9-.1-1.2-.3-.4-.2-.7-.4-1-.6s-.4-.6-.6-1c-.2-.4-.2-.8-.2-1.2v-6.6h-1.9v-1.1c0-.6.5-.9 1.7-.9h.3v-2.4c0-.3 0-.4.1-.7.1-.2.1-.4.2-.5.1-.2.2-.4.3-.4h1.7v4h3.2v2.1h-3.2l-.5 6.1z"/></svg>