<?xml version="1.0" encoding="utf-8"?>
<!-- Generator: Adobe Illustrator 20.1.0, SVG Export Plug-In . SVG Version: 6.00 Build 0)  -->
<svg version="1.1" id="Layer_1" xmlns="http://www.w3.org/2000/svg" xmlns:xlink="http://www.w3.org/1999/xlink" x="0px" y="0px"
	 width="800px" height="100px" viewBox="0 0 800 100" style="enable-background:new 0 0 800 100;" xml:space="preserve">
<style type="text/css">
	.st0{fill:#A1A1A1;}
	.st1{fill:#D1D1D1;}
	.st2{fill:#999999;}
	.st3{fill:#757575;}
	.st4{fill:#252D3D;}
	.st5{fill:#FFFFFF;}
	.st6{fill:#D9D8D7;}
	.st7{fill:#ED6C43;}
	.st8{fill:#3F4A5A;}
	.st9{fill:#56BFCE;}
	.st10{fill:#F0C418;}
	.st11{fill:#EDE21A;}
	.st12{fill:#FFFFFF;stroke:#999999;stroke-miterlimit:10;}
	.st13{fill:#2D4093;stroke:#D1D1D1;stroke-width:3;stroke-miterlimit:10;}
	.st14{fill:#109238;stroke:#D1D1D1;stroke-width:3;stroke-miterlimit:10;}
	.st15{fill:#D11227;stroke:#D1D1D1;stroke-width:3;stroke-miterlimit:10;}
	.st16{fill:#BFD11B;stroke:#D1D1D1;stroke-width:3;stroke-miterlimit:10;}
	.st17{fill:#89C4C9;}
	.st18{fill:#65C2C9;}
	.st19{fill:#02ACA5;}
	.st20{fill:#E1E1E1;}
	.st21{fill:#C8CFE2;}
	.st22{fill:#A7ADB8;}
	.st23{fill:#777E88;}
	.st24{fill:#F9CCCE;}
	.st25{fill:#5C5E6F;}
	.st26{fill:#9097AC;}
	.st27{fill:#EC6567;}
	.st28{fill:#EBEBEB;}
	.st29{fill:#C1C1C1;}
	.st30{fill:#313131;}
</style>
<rect x="600" class="st0" width="100" height="100"/>
<g>
	<rect y="0.1" class="st1" width="100" height="100"/>
	<polygon class="st2" points="60.4,82.3 39.6,82.3 42.2,69.4 57.8,69.4 	"/>
	<polygon class="st3" points="60.4,82.3 57.8,69.4 42.2,69.4 55.1,82.3 	"/>
	<rect x="34" y="82.3" class="st2" width="32" height="1.6"/>
	<path class="st4" d="M11.9,16.4c-1.1,0-1.9,0.9-1.9,1.9v49.1c0,1.1,0.9,1.9,1.9,1.9H88c1.1,0,1.9-0.9,1.9-1.9V18.3
		c0-1.1-0.9-1.9-1.9-1.9C88,16.4,11.9,16.4,11.9,16.4z"/>
	<rect x="14" y="20.4" class="st5" width="71.9" height="44.9"/>
	<g>
		<rect x="36.9" y="55.7" class="st6" width="44.9" height="0.9"/>
		<rect x="18.2" y="55.7" class="st6" width="15.2" height="0.9"/>
		<rect x="18.2" y="58.5" class="st6" width="63.6" height="0.9"/>
		<rect x="18.2" y="61.3" class="st6" width="31.8" height="0.9"/>
	</g>
	<rect x="19.5" y="23.6" class="st7" width="9.3" height="28.7"/>
	<rect x="32.1" y="39" class="st6" width="9.3" height="13.3"/>
	<rect x="44.7" y="28.2" class="st8" width="9.3" height="24.1"/>
	<rect x="57.3" y="47" class="st9" width="9.3" height="5.3"/>
	<g>
		<rect x="73.2" y="24.3" class="st6" width="4.6" height="1"/>
		<rect x="78.6" y="24.3" class="st6" width="1.9" height="1"/>
		<rect x="73.2" y="32.2" class="st6" width="7.3" height="1"/>
		<rect x="79.4" y="36.2" class="st6" width="1.2" height="1"/>
		<rect x="73.2" y="36.2" class="st6" width="5.5" height="1"/>
		<rect x="73.2" y="28.3" class="st6" width="1.4" height="1"/>
		<rect x="75.5" y="28.3" class="st6" width="2.1" height="1"/>
		<rect x="78.5" y="28.3" class="st6" width="2.1" height="1"/>
	</g>
	<circle class="st8" cx="70.6" cy="24.8" r="1.2"/>
	<circle class="st6" cx="70.6" cy="28.8" r="1.2"/>
	<circle class="st7" cx="70.6" cy="32.7" r="1.2"/>
	<circle class="st9" cx="70.6" cy="36.7" r="1.2"/>
</g>
<g>
	<rect x="100" class="st0" width="100" height="100"/>
	<g>
		<path class="st10" d="M150,10c-0.7,0-1.3,0.6-1.3,1.3v8c0,0.7,0.6,1.3,1.3,1.3s1.3-0.6,1.3-1.3v-8C151.3,10.6,150.7,10,150,10z"/>
		<path class="st10" d="M150,79.3c-0.7,0-1.3,0.6-1.3,1.3v8c0,0.7,0.6,1.3,1.3,1.3s1.3-0.6,1.3-1.3v-8
			C151.3,79.9,150.7,79.3,150,79.3z"/>
		<path class="st10" d="M188.7,48.7h-8c-0.7,0-1.3,0.6-1.3,1.3s0.6,1.3,1.3,1.3h8c0.7,0,1.3-0.6,1.3-1.3S189.4,48.7,188.7,48.7z"/>
		<path class="st10" d="M120.7,50c0-0.7-0.6-1.3-1.3-1.3h-8c-0.7,0-1.3,0.6-1.3,1.3s0.6,1.3,1.3,1.3h8
			C120.1,51.3,120.7,50.7,120.7,50z"/>
		<path class="st10" d="M171.7,29.6c0.3,0,0.7-0.1,0.9-0.4l7.6-7.6c0.5-0.5,0.5-1.4,0-1.9s-1.4-0.5-1.9,0l-7.6,7.6
			c-0.5,0.5-0.5,1.4,0,1.9C171,29.5,171.3,29.6,171.7,29.6z"/>
		<path class="st10" d="M127.4,70.7l-7.6,7.6c-0.5,0.5-0.5,1.4,0,1.9c0.3,0.3,0.6,0.4,0.9,0.4s0.7-0.1,0.9-0.4l7.6-7.6
			c0.5-0.5,0.5-1.4,0-1.9C128.7,70.2,127.9,70.2,127.4,70.7z"/>
		<path class="st10" d="M172.6,70.7c-0.5-0.5-1.4-0.5-1.9,0s-0.5,1.4,0,1.9l7.6,7.6c0.3,0.3,0.6,0.4,0.9,0.4c0.3,0,0.7-0.1,0.9-0.4
			c0.5-0.5,0.5-1.4,0-1.9L172.6,70.7z"/>
		<path class="st10" d="M121.6,19.7c-0.5-0.5-1.4-0.5-1.9,0s-0.5,1.4,0,1.9l7.6,7.6c0.3,0.3,0.6,0.4,0.9,0.4s0.7-0.1,0.9-0.4
			c0.5-0.5,0.5-1.4,0-1.9L121.6,19.7z"/>
		<path class="st10" d="M177,38.5c0.2,0.5,0.7,0.8,1.2,0.8c0.2,0,0.4,0,0.5-0.1l3.7-1.6c0.7-0.3,1-1.1,0.7-1.7
			c-0.3-0.7-1.1-1-1.7-0.7l-3.7,1.6C177,37.1,176.7,37.9,177,38.5z"/>
		<path class="st10" d="M123,61.5c-0.3-0.7-1.1-1-1.7-0.7l-3.7,1.6c-0.7,0.3-1,1.1-0.7,1.7c0.2,0.5,0.7,0.8,1.2,0.8
			c0.2,0,0.4,0,0.5-0.1l3.7-1.6C123,62.9,123.3,62.1,123,61.5z"/>
		<path class="st10" d="M182.6,61.8l-3.7-1.5c-0.7-0.3-1.5,0.1-1.7,0.7c-0.3,0.7,0.1,1.5,0.7,1.7l3.7,1.5c0.2,0.1,0.3,0.1,0.5,0.1
			c0.5,0,1-0.3,1.2-0.8C183.7,62.8,183.3,62,182.6,61.8z"/>
		<path class="st10" d="M117.4,38.3l3.7,1.5c0.2,0.1,0.3,0.1,0.5,0.1c0.5,0,1-0.3,1.2-0.8c0.3-0.7-0.1-1.5-0.7-1.7l-3.7-1.5
			c-0.7-0.3-1.5,0.1-1.7,0.7C116.3,37.2,116.7,38,117.4,38.3z"/>
		<path class="st10" d="M163.2,77.7c-0.3-0.7-1.1-1-1.7-0.7c-0.7,0.3-1,1.1-0.7,1.7l1.6,3.7c0.2,0.5,0.7,0.8,1.2,0.8
			c0.2,0,0.4,0,0.5-0.1c0.7-0.3,1-1.1,0.7-1.7L163.2,77.7z"/>
		<path class="st10" d="M138,23.1c0.2,0,0.4,0,0.5-0.1c0.7-0.3,1-1.1,0.7-1.7l-1.6-3.7c-0.3-0.7-1.1-1-1.7-0.7
			c-0.7,0.3-1,1.1-0.7,1.7l1.6,3.7C137,22.8,137.5,23.1,138,23.1z"/>
		<path class="st10" d="M139,77.2c-0.7-0.3-1.5,0.1-1.7,0.7l-1.5,3.7c-0.3,0.7,0.1,1.5,0.7,1.7c0.2,0.1,0.3,0.1,0.5,0.1
			c0.5,0,1-0.3,1.2-0.8l1.5-3.7C140,78.3,139.7,77.5,139,77.2z"/>
		<path class="st10" d="M161.5,22.9c0.5,0,1-0.3,1.2-0.8l1.5-3.7c0.3-0.7-0.1-1.5-0.7-1.7c-0.7-0.3-1.5,0.1-1.7,0.7l-1.5,3.7
			c-0.3,0.7,0.1,1.5,0.7,1.7C161.2,22.9,161.3,22.9,161.5,22.9z"/>
	</g>
	<circle class="st10" cx="150" cy="50" r="26.7"/>
	<circle class="st11" cx="150" cy="50" r="20"/>
	<g>
		<rect x="500" class="st1" width="100" height="100"/>
		<path class="st12" d="M550,10"/>
		<path class="st13" d="M550,10v18.8c-1.8,0-8.1,0.3-13.7,5c-7.2,6.1-7.5,14.8-7.5,16.2c-6.3,0-12.5,0-18.8,0
			c0-2.5,0.2-17.8,12.6-29.4C533.7,10.2,547.1,10,550,10z"/>
		<path class="st14" d="M590,50h-18.8c0-1.8-0.3-8.1-5-13.7c-6.1-7.2-14.8-7.5-16.2-7.5c0-6.3,0-12.5,0-18.8
			c2.5,0,17.8,0.2,29.4,12.6C589.8,33.7,590,47.1,590,50z"/>
		<path class="st15" d="M550,90V71.2c1.8,0,8.1-0.3,13.7-5c7.2-6.1,7.5-14.8,7.5-16.2c6.3,0,12.5,0,18.8,0c0,2.5-0.2,17.8-12.6,29.4
			C566.3,89.8,552.9,90,550,90z"/>
		<path class="st16" d="M510,50h18.8c0,1.8,0.3,8.1,5,13.7c6.1,7.2,14.8,7.5,16.2,7.5c0,6.3,0,12.5,0,18.8
			c-2.5,0-17.8-0.2-29.4-12.6C510.2,66.3,510,52.9,510,50z"/>
		<circle class="st1" cx="550" cy="50" r="21.4"/>
	</g>
</g>
<rect x="200" class="st1" width="100" height="100"/>
<path id="XMLID_243_" class="st17" d="M281.3,53.6c-0.6,1.8-1.4,3.5-2.4,5.2c-4.9,8.5-13.1,13.6-19.3,16.4c1.4,0.2,2.8,0.3,4.4,0.3
	c3.2,0,6.6-0.5,9.9-1.9C285,69,290,55.9,290,55.9S286.4,54.4,281.3,53.6z"/>
<path id="XMLID_244_" class="st17" d="M221.1,58.8c-1-1.7-1.8-3.4-2.4-5.2c-5,0.8-8.7,2.3-8.7,2.3s5,13.1,16.1,17.7
	c3.3,1.4,6.7,1.9,9.9,1.9c1.5,0,3-0.1,4.4-0.3C234.1,72.4,226,67.3,221.1,58.8z"/>
<path id="XMLID_245_" class="st18" d="M260.6,68.5c4.8-2.7,10.1-6.7,13.5-12.5c7.4-12.8,2.6-29.3,2.6-29.3s-7,1.7-13.9,6.4
	c2.2,4.5,4,9.8,4,15.7C266.9,56.5,263.8,63.4,260.6,68.5z"/>
<path id="XMLID_246_" class="st18" d="M239.4,68.5c-3.2-5.1-6.3-12-6.3-19.7c0-5.9,1.8-11.3,4-15.7c-6.9-4.6-13.9-6.4-13.9-6.4
	s-4.8,16.6,2.6,29.3C229.3,61.8,234.6,65.9,239.4,68.5z"/>
<path id="XMLID_247_" class="st19" d="M250,24.5c0,0-11.3,10.9-11.3,24.3S250,73.1,250,73.1s11.3-10.9,11.3-24.3S250,24.5,250,24.5z
	"/>
<g>
	<rect x="400" class="st0" width="100" height="100"/>
	<path class="st20" d="M450,26.6c-4.6,0-8.3-3.7-8.3-8.3s3.7-8.3,8.3-8.3s8.3,3.7,8.3,8.3S454.6,26.6,450,26.6z M450,12.8
		c-3,0-5.5,2.5-5.5,5.5s2.5,5.5,5.5,5.5s5.5-2.5,5.5-5.5S453,12.8,450,12.8z"/>
	<rect x="448.6" y="19.7" class="st21" width="2.8" height="8.3"/>
	<g>
		<circle class="st20" cx="450" cy="58.3" r="31.7"/>
		<path class="st22" d="M452.1,21H448c-0.8,0-1.4-0.6-1.4-1.4v-1.4c0-0.8,0.6-1.4,1.4-1.4h4.1c0.8,0,1.4,0.6,1.4,1.4v1.4
			C453.4,20.4,452.8,21,452.1,21z"/>
	</g>
	<circle class="st23" cx="450" cy="58.3" r="29"/>
	<circle class="st5" cx="450" cy="58.3" r="26.2"/>
	<path class="st24" d="M464.6,72.9c3.7-3.7,6.1-8.9,6.1-14.6c0-11.4-9.3-20.7-20.7-20.7v20.7L464.6,72.9z"/>
	<g>
		<path class="st25" d="M450,34.8L450,34.8c-0.8,0-1.4,0.6-1.4,1.4V39c0,0.8,0.6,1.4,1.4,1.4l0,0c0.8,0,1.4-0.6,1.4-1.4v-2.8
			C451.4,35.4,450.8,34.8,450,34.8z"/>
		<path class="st25" d="M450,76.2L450,76.2c-0.8,0-1.4,0.6-1.4,1.4v2.8c0,0.8,0.6,1.4,1.4,1.4l0,0c0.8,0,1.4-0.6,1.4-1.4v-2.8
			C451.4,76.8,450.8,76.2,450,76.2z"/>
		<path class="st25" d="M473.4,58.3L473.4,58.3c0-0.8-0.6-1.4-1.4-1.4h-2.8c-0.8,0-1.4,0.6-1.4,1.4l0,0c0,0.8,0.6,1.4,1.4,1.4h2.8
			C472.8,59.7,473.4,59,473.4,58.3z"/>
		<path class="st25" d="M432.1,58.3L432.1,58.3c0-0.8-0.6-1.4-1.4-1.4h-2.8c-0.8,0-1.4,0.6-1.4,1.4l0,0c0,0.8,0.6,1.4,1.4,1.4h2.8
			C431.5,59.7,432.1,59,432.1,58.3z"/>
	</g>
	<g>
		<path class="st26" d="M438.3,78.6L438.3,78.6c0.7,0.4,1.5,0.2,1.9-0.5l1.4-2.4c0.4-0.7,0.2-1.5-0.5-1.9l0,0
			c-0.7-0.4-1.5-0.2-1.9,0.5l-1.4,2.4C437.4,77.4,437.6,78.2,438.3,78.6z"/>
		<path class="st26" d="M459,42.7L459,42.7c0.7,0.4,1.5,0.2,1.9-0.5l1.4-2.4c0.4-0.7,0.2-1.5-0.5-1.9l0,0c-0.7-0.4-1.5-0.2-1.9,0.5
			l-1.4,2.4C458.1,41.5,458.3,42.4,459,42.7z"/>
		<path class="st26" d="M429.7,46.6L429.7,46.6c-0.4,0.7-0.2,1.5,0.5,1.9l2.4,1.4c0.7,0.4,1.5,0.2,1.9-0.5l0,0
			c0.4-0.7,0.2-1.5-0.5-1.9l-2.4-1.4C430.9,45.7,430.1,45.9,429.7,46.6z"/>
		<path class="st26" d="M465.5,67.2L465.5,67.2c-0.4,0.7-0.2,1.5,0.5,1.9l2.4,1.4c0.7,0.4,1.5,0.2,1.9-0.5l0,0
			c0.4-0.7,0.2-1.5-0.5-1.9l-2.4-1.4C466.8,66.4,465.9,66.6,465.5,67.2z"/>
		<path class="st26" d="M461.7,78.6L461.7,78.6c-0.7,0.4-1.5,0.2-1.9-0.5l-1.4-2.4c-0.4-0.7-0.2-1.5,0.5-1.9l0,0
			c0.7-0.4,1.5-0.2,1.9,0.5l1.4,2.4C462.6,77.4,462.4,78.2,461.7,78.6z"/>
		<path class="st26" d="M441,42.7L441,42.7c-0.7,0.4-1.5,0.2-1.9-0.5l-1.4-2.4c-0.4-0.7-0.2-1.5,0.5-1.9l0,0
			c0.7-0.4,1.5-0.2,1.9,0.5l1.4,2.4C441.9,41.5,441.7,42.4,441,42.7z"/>
		<path class="st26" d="M470.3,46.6L470.3,46.6c0.4,0.7,0.2,1.5-0.5,1.9l-2.4,1.4c-0.7,0.4-1.5,0.2-1.9-0.5l0,0
			c-0.4-0.7-0.2-1.5,0.5-1.9l2.4-1.4C469.1,45.7,469.9,45.9,470.3,46.6z"/>
		<path class="st26" d="M434.5,67.2L434.5,67.2c0.4,0.7,0.2,1.5-0.5,1.9l-2.4,1.4c-0.7,0.4-1.5,0.2-1.9-0.5l0,0
			c-0.4-0.7-0.2-1.5,0.5-1.9l2.4-1.4C433.2,66.4,434.1,66.6,434.5,67.2z"/>
	</g>
	<path class="st27" d="M465.2,74.8c-0.4,0-0.7-0.1-1-0.4l-17.9-17.9c-0.5-0.5-0.5-1.4,0-2c0.5-0.5,1.4-0.5,2,0l17.9,17.9
		c0.5,0.5,0.5,1.4,0,2C465.9,74.7,465.5,74.8,465.2,74.8z"/>
	<circle class="st21" cx="450" cy="58.3" r="2.8"/>
</g>
<rect x="614" y="14" class="st28" width="36" height="36"/>
<rect x="650" y="14" class="st29" width="36" height="36"/>
<rect x="614" y="50" class="st29" width="36" height="36"/>
<rect x="650" y="50" class="st30" width="36" height="36"/>
<path class="st28" d="M675.7,73.1h-15.4c-0.7,0-1.3-0.6-1.3-1.3s0.6-1.3,1.3-1.3h15.4c0.7,0,1.3,0.6,1.3,1.3S676.4,73.1,675.7,73.1z
	"/>
<path class="st28" d="M675.7,65.4h-15.4c-0.7,0-1.3-0.6-1.3-1.3c0-0.7,0.6-1.3,1.3-1.3h15.4c0.7,0,1.3,0.6,1.3,1.3
	C677,64.8,676.4,65.4,675.7,65.4z"/>
<path class="st30" d="M632,69.3c-0.4,0-0.6-0.1-0.9-0.4c-0.5-0.5-0.5-1.3,0-1.8l6.4-6.4c0.5-0.5,1.3-0.5,1.8,0s0.5,1.3,0,1.8
	l-6.4,6.4C632.6,69.2,632.4,69.3,632,69.3z"/>
<path class="st30" d="M625.6,75.7c-0.4,0-0.6-0.1-0.9-0.4c-0.5-0.5-0.5-1.3,0-1.8l6.4-6.4c0.5-0.5,1.3-0.5,1.8,0s0.5,1.3,0,1.8
	l-6.4,6.4C626.2,75.6,625.9,75.7,625.6,75.7z"/>
<path class="st30" d="M638.4,75.7c-0.4,0-0.6-0.1-0.9-0.4l-6.4-6.4c-0.5-0.5-0.5-1.3,0-1.8c0.5-0.5,1.3-0.5,1.8,0l6.4,6.4
	c0.5,0.5,0.5,1.3,0,1.8C639.1,75.6,638.8,75.7,638.4,75.7z"/>
<path class="st30" d="M632,69.3c-0.4,0-0.6-0.1-0.9-0.4l-6.4-6.4c-0.5-0.5-0.5-1.3,0-1.8c0.5-0.5,1.3-0.5,1.8,0l6.4,6.4
	c0.5,0.5,0.5,1.3,0,1.8C632.6,69.2,632.4,69.3,632,69.3z"/>
<path class="st30" d="M639.7,33.3h-15.4c-0.7,0-1.3-0.6-1.3-1.3c0-0.7,0.6-1.3,1.3-1.3h15.4c0.7,0,1.3,0.6,1.3,1.3
	C641,32.7,640.4,33.3,639.7,33.3z"/>
<path class="st30" d="M632,41c-0.7,0-1.3-0.6-1.3-1.3V24.3c0-0.7,0.6-1.3,1.3-1.3s1.3,0.6,1.3,1.3v15.4C633.3,40.4,632.7,41,632,41z
	"/>
<path class="st30" d="M675.7,33.3h-15.4c-0.7,0-1.3-0.6-1.3-1.3c0-0.7,0.6-1.3,1.3-1.3h15.4c0.7,0,1.3,0.6,1.3,1.3
	C677,32.7,676.4,33.3,675.7,33.3z"/>
<g>
	<rect x="700" class="st1" width="100" height="100"/>
	<g>
		<path id="Wikipedia" class="st30" d="M789.9,22.2c0,0-12.4,0-16.5,0l-1.2,0.2V24c0,0.2,0.6,0.3,0.7,0.5c0.1,0.1,0.6,0.2,0.7,0.2
			l1.5,0.1c1.7,0.1,2.2,0.4,2.9,1.1c0.6,0.6,0.8,1.7,0.2,3.3l-14.6,38.2l-0.6-0.2l-9.3-20.9c0.1-0.3,0.2-0.5,0.2-0.5l7.6-15.6
			c0.9-1.6,1.7-3.1,2.2-3.8c0.8-1.3,1.2-1.5,3.3-1.6c0.4,0,0.6-0.2,0.6-0.7v-1.6l-0.1-0.2c0,0-9.1,0-13.2,0v0.2V24
			c0,0.2-0.1,0.3,0,0.5c0.2,0.1,0.2,0.2,0.4,0.2l0.6,0.1c1.7,0.1,2.4,0.6,2.7,0.9c0.4,0.5,0.6,1.1-0.4,3.5L751.7,42l-5.1-12
			c-1.7-3.8-2.2-5,0.5-5.2l0.7-0.2c0.5,0,0.4-0.2,0.4-0.6v-1.7l-0.1-0.1c0,0-9.7,0-14.1,0l-0.1,0.2v1.7c0,0.4,0.4,0.5,1.1,0.6
			c2.4,0.4,2.4,0.6,4.8,5.9c0.4,0.8,1.4,3.2,1.4,3.2l5.5,11.9c0,0,0.6,1.5,1.6,3.9l-8,17.6L740,67c0,0-12.4-28.8-16-38.5
			c-0.4-1-0.5-1.7-0.5-2.2c0-1,0.8-1.5,2.4-1.6l2.4-0.1c0.5,0,1.3-0.2,1.3-0.6v-1.6l-0.7-0.2c0,0-15.2,0-18.3,0l-0.5,0.2v1.7
			c0,0.3,0.4,0.5,1.1,0.6c1.9,0.1,3.2,0.4,3.8,1s1.2,2,2.1,4.2c4.5,11.9,14.1,33.2,18.8,45.4c1.3,3.3,3,3.8,5.1-0.1
			c2.1-4.3,6.4-13.9,9.5-20.9c2.9,7,6.9,16.6,8.8,20.9c1.5,3.5,3.3,3.8,5,0.1c4.6-11.2,18.1-45.1,18.1-45.1c0.6-1.7,1.4-2.9,2.4-3.9
			c1-0.9,2.6-1.4,4.8-1.5c0.4,0,0.6-0.2,0.6-0.6v-1.6L789.9,22.2z"/>
	</g>
</g>
<g>
	<rect x="300" class="st0" width="100" height="100"/>
	<path class="st30" d="M340.4,89.4c-0.2,0.1-0.6,0.5-1.2,0.6s-1.1,0-1.3-0.1c-0.6-0.1-1.1-0.3-1.7-0.4c-0.2,0-0.3-0.2-0.1-0.4
		c0.5-0.9,1.1-1.8,1.8-2.8c0.7-1,1.5-1.9,2.2-2.7c0.5-0.6,1.1-1.4,2.2-2s2.1-1.3,3.7-1.5c0.7-0.1,1.2,0,1.5,0.1s0.6,0.2,0.7,0.3
		c0.2,0.2,0.6,0.4,1,0.6c0.5,0.2,0.9,0.2,1.2,0.3v6.4c-2.3,0.1-3.7-0.1-5.8,0.1C343.2,88,341.4,88.1,340.4,89.4z"/>
	<path class="st30" d="M360.4,89.4c0.2,0.1,0.6,0.5,1.2,0.6s1.1,0,1.3-0.1c0.6-0.1,1.1-0.3,1.7-0.4c0.2,0,0.3-0.2,0.1-0.4
		c-0.5-0.9-1.1-1.8-1.8-2.8c-0.8-1-1.5-1.9-2.2-2.7c-0.5-0.6-1.2-1.2-2.2-2s-1.7-1.4-3.7-1.5c-0.7-0.1-1.2,0.1-1.5,0.1
		c-0.3,0.1-0.6,0.2-0.8,0.3c-0.2,0.2-0.6,0.4-1.1,0.6s-0.9,0.2-1.2,0.3l-3.5,3.6l3.5,2.8c2.3,0.1,3.7-0.1,5.9,0.1
		C357.6,88,359.4,88.1,360.4,89.4z"/>
	<path class="st30" d="M323.2,77c-0.4-3-0.7-6.4-0.6-10.2c0.1-2.8,0.3-5.4,0.6-7.7c0-0.3,0-1.3,0.7-2.2c0.5-0.7,1.2-1.1,1.5-1.3
		c0.4-0.2,0.9-0.5,1.3-0.7c-0.1-0.3-0.2-0.6-0.3-1c-0.1-0.7,0-1.3,0-1.7c0-0.2,0.1-0.5,0.2-0.9c0.2-0.4,0.4-0.8,0.6-0.9
		c-0.5-0.6-0.7-1.2-0.9-1.6c-0.2-0.6-0.4-1-0.3-1.5c0.1-0.7,0.5-1.1,0.7-1.3c0.1-0.1,0.4-0.4,0.4-1s-0.3-1-0.4-1.1
		c0.5-0.6,1.1-1.3,1.6-2.3c0.6-1.2,0.9-2.1,1-2.3c0.5-1.5,0.3-1.9,0.6-2.7c0.3-0.7,0.9-1.6,2.5-2.5c-2.2-1.2-4.3-2.5-6.5-3.7
		c-0.8,0.3-1.5,0.5-1.9,0.6c-1.2,0.3-1.7,0.4-2.6,0.8c-0.5,0.2-1,0.5-1.2,0.7c-0.2,0.1-0.7,0.5-1,1.2c-0.3,0.5-0.3,1-0.3,1.2
		c-0.7,0.5-1.2,0.9-1.6,1.3c-0.7,0.6-1,1-1,1.5c0,0.4,0.2,0.6,0.4,1.4c0.1,0.5,0.1,0.9,0.1,1.2c-0.1,0.2-0.3,0.6-0.6,1
		c-0.3,0.4-0.4,0.4-0.6,0.6c-0.6,0.7-0.5,1.6-0.5,1.7c0,0.6,0.3,1.1,0.5,1.3c0.1,0.1,0.3,0.7,0.1,1.4c-0.1,0.3-0.3,0.5-0.4,0.6
		c0.1,0.3,0.3,0.6,0.3,1.1c0,0.3-0.1,0.3,0,0.6c0,0.2,0,0.4,0.3,1.2c0.1,0.2,0.2,0.6,0.4,0.9c-0.1,0.2-0.2,0.5-0.4,0.8
		c-0.3,0.4-0.5,0.6-0.7,0.7c0.1,0.4,0.4,0.8,0.7,1.3c0.3,0.3,0.5,0.6,0.8,0.8c0,0.1,0.2,0.3,0.1,0.6c-0.1,0.2-0.2,0.4-0.3,0.4
		c0.4,0.3,0.8,0.7,1.2,1.2c0.5,0.6,0.8,1.2,1,1.7c-0.2,0.3-0.5,0.9-0.5,1.7c-0.1,0.7,0.1,1.3,0.2,1.7c0.2,0.2,0.5,0.4,0.8,0.7
		c0.7,0.8,0.9,1.7,1,2.1c0.2,0.8,0.4,1.3,0.6,1.7c0.1,0.3,0.3,0.6,0.3,1c0,0.3-0.1,0.6-0.2,0.8c0.2,0.4,0.5,1.1,0.8,2
		c0.4,1.4,0.3,2.3,0.5,3.5C322,74.3,322.3,75.5,323.2,77z"/>
	<path class="st30" d="M332.2,34.2c1.1-0.4,3.3-1.1,5.5-1.1c2.5,0,4.4,0.6,5.6,1.1c0.5,0.2,1.2,0.6,2.1,1c1.5,0.8,1.9,1.2,2.9,1.6
		c0.6,0.2,1.5,0.5,2.6,0.5c1,0,2.2-0.2,3.5-0.5c0.7-0.2,1.3-0.4,1.9-0.6c0.8-0.2,1.6-0.5,2.6-0.6c1.6-0.3,3-0.3,4.2-0.3
		c1.8,0.1,3.5,0.1,5.3,0.2c0.2,0,0.4,0,0.6,0.1c0.3,0.1,0.5,0.2,0.6,0.3c0.5,0.3,0.7,0.6,0.8,0.6c0.3,0.3,0.4,0.7,0.5,0.9
		c0.4,0.9,0.8,1.9,1.2,3c0.7,2,1,3.8,1.3,5.4c3.2,0.1,6.5,0.1,9.7,0.2c0.1-0.4,0.3-0.9,0.5-1.3c0.4-0.9,0.8-1.7,1.1-2.5
		c0.1-0.2,0.3-0.6,0.3-1.1c0-0.9-0.4-1.6-0.5-1.8c0,0-0.4-0.4-0.3-1c0.1-0.5,0.6-0.7,0.6-0.8c0.2-0.2,0.2-0.3,0.3-0.5
		c0.2-0.5-0.1-1.1-0.5-1.6c-0.1-0.2-0.4-0.5-0.5-1c-0.2-0.8,0.1-1.4,0.2-1.6c0.1-0.9,0.2-2.2,0-3.8c-0.1-0.4-0.4-2.6-1.7-5
		c-0.6-1-1.2-1.9-2.6-3.8c-0.3-0.5-0.7-0.8-0.9-1.1c-1.6-1.8-3-3.2-4.2-4.2c-2-1.6-3-2.2-3.5-2.4c-1.4-0.7-2.6-0.9-3.5-1.1
		c-0.7-0.1-1.5-0.2-2.5-0.1c-0.7,0.1-1.4,0.2-1.9,0.3s-1.2,0.2-2.1,0.2c-0.8,0-1.5-0.2-2-0.4c-0.1-0.1-0.2-0.4-0.5-0.7
		c-0.3-0.2-0.4-0.4-0.9-0.1c-0.1,0-0.2,0.1-0.4,0.1c-0.3,0.1-0.5,0.2-0.5,0.2c-0.4,0.1-1.1-0.2-1.4-0.3c-0.2-0.2-0.6-0.5-1.2-0.7
		c-0.8-0.3-1.5-0.2-1.9-0.2c-1.2,0.3-2.6,0.7-3.9,1.1c-1.5,0.5-2.9,1-4.2,1.5c-0.2,0.1-0.3,0.2-0.5,0.3c-0.3,0.2-0.5,0.3-0.7,0.4
		c-1.5,0.7-3.3,1.6-5.2,2.8c-1.7,1.1-3.1,2.2-4.2,3.2c-0.5,0.5-1.1,1-1.6,1.5c-2.5,2.6-4,5.4-5,7.7c0,0.2,0,0.7-0.4,1.2
		c-0.2,0.3-0.8,0.9-1,1c-1.8,2.4-0.9,4.5,0,5.1C327,36.1,326.3,38,332.2,34.2z"/>
	<path class="st30" d="M373.4,45.7C373.4,45.7,373.3,45.8,373.4,45.7c0.1,1.7,0.2,2.8,0.2,3.3c0,0.1,0,0.3,0,0.5c0,0.3,0,0.6,0,0.8
		l0,0c0,0.4,0,0.9-0.1,1.5c-0.1,0.5-0.1,1-0.2,1.4l0,0c0,0,0,0.2,0,0.3c0.2,0.9,1.2,1.6,1.6,2.1c0.4,0.4,0.9,1.1,1.2,2.2
		c0.3,1.1,0.6,2.3,0.8,3.6c0.7,4.4,0.5,8.4-0.1,11.5c0,0.2-0.2,0.8,0.2,1.4c0.1,0.2,0.2,0.3,0.4,0.5l0,0c0.1,0.1,0.3,0.1,0.5,0.2
		c0.1,0,0.1,0,0.2,0.1c0.1,0,0.1,0,0.1-0.1s-0.1-0.3-0.1-0.4c-0.1-0.5,0.1-0.9,0.2-1.1l0,0c0-0.2,0.1-0.4,0.2-0.7
		c0.2-0.7,0.4-1.3,0.4-1.4c0.4-1.3,0.4-3,0.4-3.4c0-0.7-0.1-1.6-0.3-2.6l0,0c-0.1-1,0-1.8,0.1-2.3c0.2-0.7,0.4-1.3,0.6-1.8
		c0.1-0.3,0.2-0.5,0.3-0.6l0,0c0.3-0.4,0.7-0.8,1-1.2c0,0,0,0,0-0.1c-0.1-0.2-0.2-0.4-0.2-0.8c0-0.5,0.2-0.9,0.2-1.1l0,0l0,0
		c0.1-0.1,0.2-0.3,0.3-0.6c0.1-0.3,0.1-0.5,0.2-1.4c0-0.2,0-0.6,0.1-0.9c-0.1-0.5-0.1-1.3,0.2-2.3c0.2-0.7,0.5-1.2,0.7-1.6
		c0.1-0.1,0.3-0.3,0.5-0.6c0.2-0.4,0.2-0.9,0.2-1.4c0-0.2,0-0.6-0.1-1l0,0l0,0c-0.1-0.3-0.2-0.7-0.2-1.1c0-0.2,0.1-0.3,0.1-0.4
		c0,0,0.1-0.1,0.1-0.2c0,0-0.2-1.5-0.3-1.5l-4.5-5.5L373.4,45.7z"/>
	<path class="st30" d="M371.1,60.1c-0.3-0.6-1-1.9-2.5-2.9c-1.6-1-3.2-1.1-3.8-1.1c-0.5,0-1.6,0-2.7,0.6c-0.6,0.3-1,0.7-1.3,1
		c-0.2,0.3-0.6,0.7-1.3,1.1c-0.6,0.3-1.1,0.4-1.5,0.5s-0.9,0.1-1.5,0.1c-0.5,0-0.9,0-1.3-0.1c-0.1,0.5-0.1,1.1-0.2,1.6
		c-0.1,0.8-0.3,1.5-0.5,2.1c1.6-0.2,4.1-0.8,6.6-2.6c0.8-0.6,1.5-1.2,2.1-1.8c0.2-0.2,0.4-0.3,0.7-0.3c1.1,0,2.5,0.1,4.1,0.5
		C369.2,59.3,370.2,59.7,371.1,60.1z"/>
	<path class="st30" d="M329.9,60c0.3-0.6,1-1.7,2.5-2.6c1.6-1,3.2-1.1,3.8-1.1c0.5,0,1.6,0,2.7,0.6c0.6,0.3,1,0.7,1.3,1
		c0.2,0.3,0.6,0.7,1.3,1.1c0.6,0.3,1.1,0.4,1.5,0.5s0.9,0.1,1.5,0.1c0.5,0,0.9,0,1.3-0.1c0.1,0.5,0.1,1.1,0.2,1.6
		c0.1,0.8,0.3,1.5,0.5,2.1c-1.5-0.2-3.9-0.9-6.5-2.6c-0.8-0.5-1.5-1.2-2.1-1.8c0,0-0.1-0.1-0.3-0.2c-0.2-0.1-0.4-0.1-0.6-0.1
		c-0.4,0-0.6,0-0.8,0c-1.9,0.1-3.5,0.5-3.5,0.5C332,59.2,331,59.5,329.9,60z"/>
</g>
</svg>
