<svg id="Layer_1" xmlns="http://www.w3.org/2000/svg" width="800" height="100" viewBox="0 0 800 100"><style>.st0{fill:#a3d6d8}.st1{fill:#f2f2f2}.st2{fill:#d9d8d7}.st3{fill:#252d3d}.st4{fill:#fff}.st5{fill:#ed6c43}.st6{fill:#3f4a5a}.st7{fill:#56bfce}.st8{fill:#1b887f}.st9{fill:#f0c418}.st10{fill:#ede21a}.st11{fill:#fff}.st11,.st12,.st13,.st14,.st15{stroke:#999;stroke-miterlimit:10}.st12{fill:#2d4093}.st12,.st13,.st14,.st15{stroke-width:3}.st13{fill:#109238}.st14{fill:#d11227}.st15{fill:#bfd11b}.st16{fill:#999}.st17{fill:#a3d6d7}.st18{fill:#d0e9ec}.st18,.st19,.st20{stroke:#06302b;stroke-width:.5;stroke-miterlimit:10}.st19{fill:#65c2c9}.st20{fill:#02aca5}.st21{fill:#17887f}.st22{fill:#d8deec}.st23{fill:#c8cfe2}.st24{fill:#a7adb8}.st25{fill:#777e88}.st26{fill:#f9ccce}.st27{fill:#5c5e6f}.st28{fill:#9097ac}.st29{fill:#ec6567}.st30{fill:#14887f}.st31{fill:#556180}.st32{fill:#172944}.st33{fill:#a4d7d9}.st34{fill:#020203}.st35{fill:#178981}.st36{fill:#2b1919}</style><path class="st0" d="M0 0h100v100H0z"/><path class="st1" d="M60.4 82.2H39.6l2.6-12.9h15.6z"/><path class="st2" d="M60.4 82.2l-2.6-12.9H42.2l12.9 12.9z"/><path class="st1" d="M34 82.2h32v1.6H34z"/><path class="st3" d="M11.9 16.3c-1.1 0-1.9.9-1.9 1.9v49.1c0 1.1.9 1.9 1.9 1.9H88c1.1 0 1.9-.9 1.9-1.9V18.2c0-1.1-.9-1.9-1.9-1.9H11.9z"/><path class="st4" d="M14 20.3h71.9v44.9H14z"/><path class="st2" d="M36.9 55.6h44.9v.9H36.9zm-18.7 0h15.2v.9H18.2zm0 2.8h63.6v.9H18.2zm0 2.8H50v.9H18.2z"/><path class="st5" d="M19.5 23.5h9.3v28.7h-9.3z"/><path class="st2" d="M32.1 38.9h9.3v13.3h-9.3z"/><path class="st6" d="M44.7 28.1H54v24.1h-9.3z"/><path class="st7" d="M57.3 46.9h9.3v5.3h-9.3z"/><path class="st2" d="M73.2 24.2h4.6v1h-4.6zm5.4 0h1.9v1h-1.9zm-5.4 7.9h7.3v1h-7.3zm6.2 4h1.2v1h-1.2zm-6.2 0h5.5v1h-5.5zm0-7.9h1.4v1h-1.4zm2.3 0h2.1v1h-2.1zm3 0h2.1v1h-2.1z"/><circle class="st6" cx="70.6" cy="24.7" r="1.2"/><circle class="st2" cx="70.6" cy="28.7" r="1.2"/><circle class="st5" cx="70.6" cy="32.6" r="1.2"/><circle class="st7" cx="70.6" cy="36.6" r="1.2"/><path class="st8" d="M100 0h100v100H100z"/><path class="st9" d="M150 10c-.7 0-1.3.6-1.3 1.3v8c0 .7.6 1.3 1.3 1.3.7 0 1.3-.6 1.3-1.3v-8c0-.7-.6-1.3-1.3-1.3zm0 69.3c-.7 0-1.3.6-1.3 1.3v8c0 .7.6 1.3 1.3 1.3.7 0 1.3-.6 1.3-1.3v-8c0-.7-.6-1.3-1.3-1.3zm38.7-30.6h-8c-.7 0-1.3.6-1.3 1.3s.6 1.3 1.3 1.3h8c.7 0 1.3-.6 1.3-1.3s-.6-1.3-1.3-1.3zm-68 1.3c0-.7-.6-1.3-1.3-1.3h-8c-.7 0-1.3.6-1.3 1.3s.6 1.3 1.3 1.3h8c.7 0 1.3-.6 1.3-1.3zm51-20.4c.3 0 .7-.1.9-.4l7.6-7.6c.5-.5.5-1.4 0-1.9s-1.4-.5-1.9 0l-7.6 7.6c-.5.5-.5 1.4 0 1.9.3.3.6.4 1 .4zm-44.3 41.1l-7.6 7.6c-.5.5-.5 1.4 0 1.9.3.3.6.4.9.4.3 0 .7-.1.9-.4l7.6-7.6c.5-.5.5-1.4 0-1.9s-1.3-.5-1.8 0zm45.2 0c-.5-.5-1.4-.5-1.9 0s-.5 1.4 0 1.9l7.6 7.6c.3.3.6.4.9.4.3 0 .7-.1.9-.4.5-.5.5-1.4 0-1.9l-7.5-7.6zm-51-51c-.5-.5-1.4-.5-1.9 0s-.5 1.4 0 1.9l7.6 7.6c.3.3.6.4.9.4.3 0 .7-.1.9-.4.5-.5.5-1.4 0-1.9l-7.5-7.6zM177 38.5c.2.5.7.8 1.2.8.2 0 .4 0 .5-.1l3.7-1.6c.7-.3 1-1.1.7-1.7-.3-.7-1.1-1-1.7-.7l-3.7 1.6c-.7.3-1 1.1-.7 1.7zm-54 23c-.3-.7-1.1-1-1.7-.7l-3.7 1.6c-.7.3-1 1.1-.7 1.7.2.5.7.8 1.2.8.2 0 .4 0 .5-.1l3.7-1.6c.7-.3 1-1.1.7-1.7zm59.6.3l-3.7-1.5c-.7-.3-1.5.1-1.7.7-.3.7.1 1.5.7 1.7l3.7 1.5c.2.1.3.1.5.1.5 0 1-.3 1.2-.8.4-.7 0-1.5-.7-1.7zm-65.2-23.5l3.7 1.5c.2.1.3.1.5.1.5 0 1-.3 1.2-.8.3-.7-.1-1.5-.7-1.7l-3.7-1.5c-.7-.3-1.5.1-1.7.7-.4.6 0 1.4.7 1.7zm45.8 39.4c-.3-.7-1.1-1-1.7-.7-.7.3-1 1.1-.7 1.7l1.6 3.7c.2.5.7.8 1.2.8.2 0 .4 0 .5-.1.7-.3 1-1.1.7-1.7l-1.6-3.7zM138 23.1c.2 0 .4 0 .5-.1.7-.3 1-1.1.7-1.7l-1.6-3.7c-.3-.7-1.1-1-1.7-.7-.7.3-1 1.1-.7 1.7l1.6 3.7c.2.5.7.8 1.2.8zm1 54.1c-.7-.3-1.5.1-1.7.7l-1.5 3.7c-.3.7.1 1.5.7 1.7.2.1.3.1.5.1.5 0 1-.3 1.2-.8l1.5-3.7c.3-.6 0-1.4-.7-1.7zm22.5-54.3c.5 0 1-.3 1.2-.8l1.5-3.7c.3-.7-.1-1.5-.7-1.7-.7-.3-1.5.1-1.7.7l-1.5 3.7c-.3.7.1 1.5.7 1.7.2.1.3.1.5.1z"/><circle class="st9" cx="150" cy="50" r="26.7"/><circle class="st10" cx="150" cy="50" r="20"/><path class="st0" d="M500 0h100v100H500z"/><path class="st12" d="M550 10v18.8c-1.8 0-8.1.3-13.7 5-7.2 6.1-7.5 14.8-7.5 16.2H510c0-2.5.2-17.8 12.6-29.4C533.7 10.2 547.1 10 550 10z"/><path class="st13" d="M590 50h-18.8c0-1.8-.3-8.1-5-13.7-6.1-7.2-14.8-7.5-16.2-7.5V10c2.5 0 17.8.2 29.4 12.6C589.8 33.7 590 47.1 590 50z"/><path class="st14" d="M550 90V71.2c1.8 0 8.1-.3 13.7-5 7.2-6.1 7.5-14.8 7.5-16.2H590c0 2.5-.2 17.8-12.6 29.4C566.3 89.8 552.9 90 550 90z"/><path class="st15" d="M510 50h18.8c0 1.8.3 8.1 5 13.7 6.1 7.2 14.8 7.5 16.2 7.5V90c-2.5 0-17.8-.2-29.4-12.6C510.2 66.3 510 52.9 510 50z"/><circle class="st16" cx="550" cy="50" r="21.4"/><path class="st17" d="M200 0h100v100H200z"/><path id="XMLID_243_" class="st18" d="M281.3 53.6c-.6 1.8-1.4 3.5-2.4 5.2-4.9 8.5-13.1 13.6-19.3 16.4 1.4.2 2.8.3 4.4.3 3.2 0 6.6-.5 9.9-1.9C285 69 290 55.9 290 55.9s-3.6-1.5-8.7-2.3z"/><path id="XMLID_244_" class="st18" d="M221.1 58.8c-1-1.7-1.8-3.4-2.4-5.2-5 .8-8.7 2.3-8.7 2.3s5 13.1 16.1 17.7c3.3 1.4 6.7 1.9 9.9 1.9 1.5 0 3-.1 4.4-.3-6.3-2.8-14.4-7.9-19.3-16.4z"/><path id="XMLID_245_" class="st19" d="M260.6 68.5c4.8-2.7 10.1-6.7 13.5-12.5 7.4-12.8 2.6-29.3 2.6-29.3s-7 1.7-13.9 6.4c2.2 4.5 4 9.8 4 15.7.1 7.7-3 14.6-6.2 19.7z"/><path id="XMLID_246_" class="st19" d="M239.4 68.5c-3.2-5.1-6.3-12-6.3-19.7 0-5.9 1.8-11.3 4-15.7-6.9-4.6-13.9-6.4-13.9-6.4s-4.8 16.6 2.6 29.3c3.5 5.8 8.8 9.9 13.6 12.5z"/><path id="XMLID_247_" class="st20" d="M250 24.5s-11.3 10.9-11.3 24.3S250 73.1 250 73.1s11.3-10.9 11.3-24.3S250 24.5 250 24.5z"/><path class="st21" d="M400 0h100v100H400z"/><path class="st22" d="M450 26.6c-4.6 0-8.3-3.7-8.3-8.3s3.7-8.3 8.3-8.3 8.3 3.7 8.3 8.3-3.7 8.3-8.3 8.3zm0-13.8c-3 0-5.5 2.5-5.5 5.5s2.5 5.5 5.5 5.5 5.5-2.5 5.5-5.5-2.5-5.5-5.5-5.5z"/><path class="st23" d="M448.6 19.7h2.8V28h-2.8z"/><circle class="st24" cx="450" cy="58.3" r="31.7"/><path class="st24" d="M452.1 21H448c-.8 0-1.4-.6-1.4-1.4v-1.4c0-.8.6-1.4 1.4-1.4h4.1c.8 0 1.4.6 1.4 1.4v1.4c-.1.8-.7 1.4-1.4 1.4z"/><circle class="st25" cx="450" cy="58.3" r="29"/><circle class="st4" cx="450" cy="58.3" r="26.2"/><path class="st26" d="M464.6 72.9c3.7-3.7 6.1-8.9 6.1-14.6 0-11.4-9.3-20.7-20.7-20.7v20.7l14.6 14.6z"/><path class="st27" d="M450 34.8c-.8 0-1.4.6-1.4 1.4V39c0 .8.6 1.4 1.4 1.4.8 0 1.4-.6 1.4-1.4v-2.8c0-.8-.6-1.4-1.4-1.4zm0 41.4c-.8 0-1.4.6-1.4 1.4v2.8c0 .8.6 1.4 1.4 1.4.8 0 1.4-.6 1.4-1.4v-2.8c0-.8-.6-1.4-1.4-1.4zm23.4-17.9c0-.8-.6-1.4-1.4-1.4h-2.8c-.8 0-1.4.6-1.4 1.4 0 .8.6 1.4 1.4 1.4h2.8c.8 0 1.4-.7 1.4-1.4zm-41.3 0c0-.8-.6-1.4-1.4-1.4h-2.8c-.8 0-1.4.6-1.4 1.4 0 .8.6 1.4 1.4 1.4h2.8c.8 0 1.4-.7 1.4-1.4z"/><path class="st28" d="M438.3 78.6c.7.4 1.5.2 1.9-.5l1.4-2.4c.4-.7.2-1.5-.5-1.9-.7-.4-1.5-.2-1.9.5l-1.4 2.4c-.4.7-.2 1.5.5 1.9zM459 42.7c.7.4 1.5.2 1.9-.5l1.4-2.4c.4-.7.2-1.5-.5-1.9-.7-.4-1.5-.2-1.9.5l-1.4 2.4c-.4.7-.2 1.6.5 1.9zm-29.3 3.9c-.4.7-.2 1.5.5 1.9l2.4 1.4c.7.4 1.5.2 1.9-.5.4-.7.2-1.5-.5-1.9l-2.4-1.4c-.7-.4-1.5-.2-1.9.5zm35.8 20.6c-.4.7-.2 1.5.5 1.9l2.4 1.4c.7.4 1.5.2 1.9-.5.4-.7.2-1.5-.5-1.9l-2.4-1.4c-.6-.3-1.5-.1-1.9.5zm-3.8 11.4c-.7.4-1.5.2-1.9-.5l-1.4-2.4c-.4-.7-.2-1.5.5-1.9.7-.4 1.5-.2 1.9.5l1.4 2.4c.4.7.2 1.5-.5 1.9zM441 42.7c-.7.4-1.5.2-1.9-.5l-1.4-2.4c-.4-.7-.2-1.5.5-1.9.7-.4 1.5-.2 1.9.5l1.4 2.4c.4.7.2 1.6-.5 1.9zm29.3 3.9c.4.7.2 1.5-.5 1.9l-2.4 1.4c-.7.4-1.5.2-1.9-.5-.4-.7-.2-1.5.5-1.9l2.4-1.4c.7-.4 1.5-.2 1.9.5zm-35.8 20.6c.4.7.2 1.5-.5 1.9l-2.4 1.4c-.7.4-1.5.2-1.9-.5-.4-.7-.2-1.5.5-1.9l2.4-1.4c.6-.3 1.5-.1 1.9.5z"/><path class="st29" d="M465.2 74.8c-.4 0-.7-.1-1-.4l-17.9-17.9c-.5-.5-.5-1.4 0-2 .5-.5 1.4-.5 2 0l17.9 17.9c.5.5.5 1.4 0 2-.3.3-.7.4-1 .4z"/><circle class="st23" cx="450" cy="58.3" r="2.8"/><path class="st0" d="M600 0h50v50h-50z"/><path class="st30" d="M650 0h50v50h-50zm-50 50h50v50h-50z"/><path class="st31" d="M650 50h50v50h-50z"/><path class="st32" d="M685.7 82.1h-21.4c-1 0-1.8-.8-1.8-1.8s.8-1.8 1.8-1.8h21.4c1 0 1.8.8 1.8 1.8s-.8 1.8-1.8 1.8zm0-10.7h-21.4c-1 0-1.8-.8-1.8-1.8s.8-1.8 1.8-1.8h21.4c1 0 1.8.8 1.8 1.8s-.8 1.8-1.8 1.8zM625 76.8c-.5 0-.9-.2-1.3-.5-.7-.7-.7-1.8 0-2.5l8.9-8.9c.7-.7 1.8-.7 2.5 0s.7 1.8 0 2.5l-8.9 8.9c-.3.3-.7.5-1.2.5z"/><path class="st32" d="M616.1 85.7c-.5 0-.9-.2-1.3-.5-.7-.7-.7-1.8 0-2.5l8.9-8.9c.7-.7 1.8-.7 2.5 0s.7 1.8 0 2.5l-8.9 8.9c-.3.3-.8.5-1.2.5z"/><path class="st32" d="M633.9 85.7c-.5 0-.9-.2-1.3-.5l-8.9-8.9c-.7-.7-.7-1.8 0-2.5s1.8-.7 2.5 0l8.9 8.9c.7.7.7 1.8 0 2.5-.3.3-.7.5-1.2.5z"/><path class="st32" d="M625 76.8c-.5 0-.9-.2-1.3-.5l-8.9-8.9c-.7-.7-.7-1.8 0-2.5s1.8-.7 2.5 0l8.9 8.9c.7.7.7 1.8 0 2.5-.3.3-.7.5-1.2.5zm10.7-50h-21.4c-1 0-1.8-.8-1.8-1.8s.8-1.8 1.8-1.8h21.4c1 0 1.8.8 1.8 1.8s-.8 1.8-1.8 1.8z"/><path class="st32" d="M625 37.5c-1 0-1.8-.8-1.8-1.8V14.3c0-1 .8-1.8 1.8-1.8s1.8.8 1.8 1.8v21.4c0 1-.8 1.8-1.8 1.8zm60.7-10.7h-21.4c-1 0-1.8-.8-1.8-1.8s.8-1.8 1.8-1.8h21.4c1 0 1.8.8 1.8 1.8s-.8 1.8-1.8 1.8z"/><path class="st33" d="M700 0h100v100H700z"/><path id="Wikipedia" class="st34" d="M789.9 22.2h-16.5l-1.2.2V24c0 .2.6.3.7.5.1.1.6.2.7.2l1.5.1c1.7.1 2.2.4 2.9 1.1.6.6.8 1.7.2 3.3l-14.6 38.2-.6-.2-9.3-20.9c.1-.3.2-.5.2-.5l7.6-15.6c.9-1.6 1.7-3.1 2.2-3.8.8-1.3 1.2-1.5 3.3-1.6.4 0 .6-.2.6-.7v-1.6l-.1-.2h-13.2V24c0 .2-.1.3 0 .5.2.1.2.2.4.2l.6.1c1.7.1 2.4.6 2.7.9.4.5.6 1.1-.4 3.5L751.7 42l-5.1-12c-1.7-3.8-2.2-5 .5-5.2l.7-.2c.5 0 .4-.2.4-.6v-1.7l-.1-.1H734l-.1.2v1.7c0 .4.4.5 1.1.6 2.4.4 2.4.6 4.8 5.9.4.8 1.4 3.2 1.4 3.2l5.5 11.9s.6 1.5 1.6 3.9l-8 17.6-.3-.2s-12.4-28.8-16-38.5c-.4-1-.5-1.7-.5-2.2 0-1 .8-1.5 2.4-1.6l2.4-.1c.5 0 1.3-.2 1.3-.6v-1.6l-.7-.2h-18.3l-.5.2v1.7c0 .3.4.5 1.1.6 1.9.1 3.2.4 3.8 1 .6.6 1.2 2 2.1 4.2 4.5 11.9 14.1 33.2 18.8 45.4 1.3 3.3 3 3.8 5.1-.1 2.1-4.3 6.4-13.9 9.5-20.9 2.9 7 6.9 16.6 8.8 20.9 1.5 3.5 3.3 3.8 5 .1 4.6-11.2 18.1-45.1 18.1-45.1.6-1.7 1.4-2.9 2.4-3.9 1-.9 2.6-1.4 4.8-1.5.4 0 .6-.2.6-.6v-1.6l-.3-.4z"/><path class="st35" d="M300 0h100v100H300z"/><path class="st36" d="M340.4 89.4c-.2.1-.6.5-1.2.6-.6.1-1.1 0-1.3-.1-.6-.1-1.1-.3-1.7-.4-.2 0-.3-.2-.1-.4.5-.9 1.1-1.8 1.8-2.8.7-1 1.5-1.9 2.2-2.7.5-.6 1.1-1.4 2.2-2 1.1-.6 2.1-1.3 3.7-1.5.7-.1 1.2 0 1.5.1.3.1.6.2.7.3.2.2.6.4 1 .6.5.2.9.2 1.2.3v6.4c-2.3.1-3.7-.1-5.8.1-1.4.1-3.2.2-4.2 1.5z"/><path class="st36" d="M360.4 89.4c.2.1.6.5 1.2.6.6.1 1.1 0 1.3-.1.6-.1 1.1-.3 1.7-.4.2 0 .3-.2.1-.4-.5-.9-1.1-1.8-1.8-2.8-.8-1-1.5-1.9-2.2-2.7-.5-.6-1.2-1.2-2.2-2-1-.8-1.7-1.4-3.7-1.5-.7-.1-1.2.1-1.5.1-.3.1-.6.2-.8.3-.2.2-.6.4-1.1.6-.5.2-.9.2-1.2.3v6.4c2.3.1 3.7-.1 5.9.1 1.5.1 3.3.2 4.3 1.5zM323.2 77c-.4-3-.7-6.4-.6-10.2.1-2.8.3-5.4.6-7.7 0-.3 0-1.3.7-2.2.5-.7 1.2-1.1 1.5-1.3.4-.2.9-.5 1.3-.7-.1-.3-.2-.6-.3-1-.1-.7 0-1.3 0-1.7 0-.2.1-.5.2-.9.2-.4.4-.8.6-.9-.5-.6-.7-1.2-.9-1.6-.2-.6-.4-1-.3-1.5.1-.7.5-1.1.7-1.3.1-.1.4-.4.4-1s-.3-1-.4-1.1c.5-.6 1.1-1.3 1.6-2.3.6-1.2.9-2.1 1-2.3.5-1.5.3-1.9.6-2.7.3-.7.9-1.6 2.5-2.5-2.2-1.2-4.3-2.5-6.5-3.7-.8.3-1.5.5-1.9.6-1.2.3-1.7.4-2.6.8-.5.2-1 .5-1.2.7-.2.1-.7.5-1 1.2-.3.5-.3 1-.3 1.2-.7.5-1.2.9-1.6 1.3-.7.6-1 1-1 1.5 0 .4.2.6.4 1.4.1.5.1.9.1 1.2-.1.2-.3.6-.6 1s-.4.4-.6.6c-.6.7-.5 1.6-.5 1.7 0 .6.3 1.1.5 1.3.1.1.3.7.1 1.4-.1.3-.3.5-.4.6.1.3.3.6.3 1.1 0 .3-.1.3 0 .6 0 .2 0 .4.3 1.2.1.2.2.6.4.9-.1.2-.2.5-.4.8-.3.4-.5.6-.7.7.1.4.4.8.7 1.3.3.3.5.6.8.8 0 .1.2.3.1.6-.1.2-.2.4-.3.4.4.3.8.7 1.2 1.2.5.6.8 1.2 1 1.7-.2.3-.5.9-.5 1.7-.1.7.1 1.3.2 1.7.2.2.5.4.8.7.7.8.9 1.7 1 2.1.2.8.4 1.3.6 1.7.1.3.3.6.3 1 0 .3-.1.6-.2.8.2.4.5 1.1.8 2 .4 1.4.3 2.3.5 3.5-.2.9.1 2.1 1 3.6zm9.3-43c1.1-.4 3-.9 5.2-.9 2.5 0 4.4.6 5.6 1.1.5.2 1.2.6 2.1 1 1.5.8 1.9 1.2 2.9 1.6.6.2 1.5.5 2.6.5 1 0 2.2-.2 3.5-.5.7-.2 1.3-.4 1.9-.6.8-.2 1.6-.5 2.6-.6 1.6-.3 3-.3 4.2-.3 1.8.1 3.5.1 5.3.2.2 0 .4 0 .6.1.3.1.5.2.6.3.5.3.7.6.8.6.3.3.4.7.5.9.4.9.8 1.9 1.2 3 .7 2 1 3.8 1.3 5.4 3.2.1 6.5.1 9.7.2.1-.4.3-.9.5-1.3.4-.9.8-1.7 1.1-2.5.1-.2.3-.6.3-1.1 0-.9-.4-1.6-.5-1.8 0 0-.4-.4-.3-1 .1-.5.6-.7.6-.8.2-.2.2-.3.3-.5.2-.5-.1-1.1-.5-1.6-.1-.2-.4-.5-.5-1-.2-.8.1-1.4.2-1.6.1-.9.2-2.2 0-3.8-.1-.4-.4-2.6-1.7-5-.6-1-1.2-1.9-2.6-3.8-.3-.5-.7-.8-.9-1.1-1.6-1.8-3-3.2-4.2-4.2-2-1.6-3-2.2-3.5-2.4-1.4-.7-2.6-.9-3.5-1.1-.7-.1-1.5-.2-2.5-.1-.7.1-1.4.2-1.9.3-.5.1-1.2.2-2.1.2-.8 0-1.5-.2-2-.4-.1-.1-.2-.4-.5-.7-.3-.2-.4-.4-.9-.1-.1 0-.2.1-.4.1-.3.1-.5.2-.5.2-.4.1-1.1-.2-1.4-.3-.2-.2-.6-.5-1.2-.7-.8-.3-1.5-.2-1.9-.2-1.2.3-2.6.7-3.9 1.1-1.5.5-2.9 1-4.2 1.5-.2.1-.3.2-.5.3-.3.2-.5.3-.7.4-1.5.7-3.3 1.6-5.2 2.8-1.7 1.1-3.1 2.2-4.2 3.2-.5.5-1.1 1-1.6 1.5-2.5 2.6-4 5.4-5 7.7 0 .2 0 .7-.4 1.2-.2.3-.5.4-.7.5 2 1.7 4.1 2.9 6.3 4.1z"/><path class="st36" d="M373.4 45.7s-.1.1 0 0c.1 1.7.2 2.8.2 3.3v1.3c0 .4 0 .9-.1 1.5-.1.5-.1 1-.2 1.4v.3c.2.9 1.2 1.6 1.6 2.1.4.4.9 1.1 1.2 2.2.3 1.1.6 2.3.8 3.6.7 4.4.5 8.4-.1 11.5 0 .2-.2.8.2 1.4.1.2.2.3.4.5.1.1.3.1.5.2.1 0 .1 0 .2.1.1 0 .1 0 .1-.1s-.1-.3-.1-.4c-.1-.5.1-.9.2-1.1 0-.2.1-.4.2-.7.2-.7.4-1.3.4-1.4.4-1.3.4-3 .4-3.4 0-.7-.1-1.6-.3-2.6-.1-1 0-1.8.1-2.3.2-.7.4-1.3.6-1.8.1-.3.2-.5.3-.6.3-.4.7-.8 1-1.2v-.1c-.1-.2-.2-.4-.2-.8 0-.5.2-.9.2-1.1.1-.1.2-.3.3-.6.1-.3.1-.5.2-1.4 0-.2 0-.6.1-.9-.1-.5-.1-1.3.2-2.3.2-.7.5-1.2.7-1.6.1-.1.3-.3.5-.6.2-.4.2-.9.2-1.4 0-.2 0-.6-.1-1-.1-.3-.2-.7-.2-1.1v-.5h-.1l-9.4-.4zm-2.3 14.4c-.3-.6-1-1.9-2.5-2.9-1.6-1-3.2-1.1-3.8-1.1-.5 0-1.6 0-2.7.6-.6.3-1 .7-1.3 1-.2.3-.6.7-1.3 1.1-.6.3-1.1.4-1.5.5-.4.1-.9.1-1.5.1-.5 0-.9 0-1.3-.1-.1.5-.1 1.1-.2 1.6-.1.8-.3 1.5-.5 2.1 1.6-.2 4.1-.8 6.6-2.6.8-.6 1.5-1.2 2.1-1.8.2-.2.4-.3.7-.3 1.1 0 2.5.1 4.1.5 1.2.5 2.2.9 3.1 1.3zm-41.2-.1c.3-.6 1-1.7 2.5-2.6 1.6-1 3.2-1.1 3.8-1.1.5 0 1.6 0 2.7.6.6.3 1 .7 1.3 1 .2.3.6.7 1.3 1.1.6.3 1.1.4 1.5.5.4.1.9.1 1.5.1.5 0 .9 0 1.3-.1.1.5.1 1.1.2 1.6.1.8.3 1.5.5 2.1-1.5-.2-3.9-.9-6.5-2.6-.8-.5-1.5-1.2-2.1-1.8 0 0-.1-.1-.3-.2-.2-.1-.4-.1-.6-.1h-.8c-1.9.1-3.5.5-3.5.5-.7.2-1.7.5-2.8 1z"/><path class="st36" d="M337.6 58.7c-.2-.1-.4-.1-.6-.1h-.8"/></svg>