<?xml version="1.0" encoding="utf-8"?>
<!-- Generator: Adobe Illustrator 20.1.0, SVG Export Plug-In . SVG Version: 6.00 Build 0)  -->
<svg version="1.1" id="Layer_1" xmlns="http://www.w3.org/2000/svg" xmlns:xlink="http://www.w3.org/1999/xlink" x="0px" y="0px"
	 width="100px" height="100px" viewBox="0 0 100 100" style="enable-background:new 0 0 100 100;" xml:space="preserve">
<style type="text/css">
	.st0{fill:#0B3954;}
	.st1{fill:#FFD0A1;}
	.st2{fill:#C49AE9;}
	.st3{fill:#AE938D;}
	.st4{fill:#51565F;}
</style>
<g>
	<circle class="st0" cx="50" cy="50" r="50"/>
	<g transform="translate(1 1)">
		<path class="st1" d="M40.9,69.1L40.9,69.1c-1.5,7.7-6.1,10.4-6.1,10.4l-0.2,0.3l7.8,5.2v6.1c0,0,3.1,3.1,7.7,3.1s7.7-3.1,7.7-3.1
			V85l8-5.4l-0.3-0.5c0,0-4.6-2.5-6.1-10.1l-0.2-0.2C63,66,66,62,67,60.3c1.5-3.1,6.1-15.4,6.1-21.5c0,0-6.1-4.6-6.1-9.2v-6.1
			c-12.3,9.2-39.9,9.2-39.9,9.2v6.1c0,6.1,4.6,18.4,6.1,21.5C34.1,62.3,37,66.1,40.9,69.1z"/>
		<path class="st2" d="M73.1,82l-9.2,6.1L57.8,85l8-5.4l1.2-0.8L73.1,82z M42.4,85l-6.1,3.1L27.1,82l6.1-3.1l1.4,0.9L42.4,85z
			 M49.9,99c-0.7-2.2-0.6-3.5,0.1-4.2c0.7-0.8,1.4-0.3,3.5-1.1c0,0,0.7-0.3,4.3-2.5l0,0V85l6.1,3.1l9.2-6.1c1-0.1,2-0.1,3.1-0.1
			c3.6,0.1,6.6,0.8,9,1.6c-3.8,3.9-11.4,10.8-23.1,13.9C55.1,99.2,49.9,99,49.9,99z M49.9,99c0,0-20.4,1.8-36-14.3
			c1.3,1.3,4-1.8,7-2.3c2.4-0.4,4.5-0.5,6.1-0.4c3.1,2,6.1,4.1,9.2,6.1l6.1-3.1v6.1c0.7,0.7,1.8,1.7,3.3,2.2c2,0.7,3.2,0.1,4,1
			C50.3,94.9,50.8,96,49.9,99z"/>
		<path class="st3" d="M85.4,76.3l1.9,4.9c-0.4,0.5-0.8,0.9-1.2,1.4c-0.3,0.3-0.5,0.5-0.7,0.7c-0.3-0.1-0.8-0.2-1.3-0.3
			c-0.8,0-1.1,0.3-4.7-0.6h-6.1L67,79.4l-1.2,0.8l-0.3-0.5c0,0-4.6-2.5-6.1-10.1l-0.2-0.2c3.8-2.9,6.9-6.9,7.8-8.6
			c1.5-3.1,6.1-15.4,6.1-21.5c0,0-6.1-4.6-6.1-9.2V24c-12.3,9.2-39.9,9.2-39.9,9.2v6.1c0,6.1,4.6,18.4,6.1,21.5
			c0.9,1.8,3.8,5.7,7.7,8.6c-1.5,7.7-6.1,10.4-6.1,10.4l-0.2,0.3l-1.4-0.9l-6.1,3.1h-6.1c-3.8,0.9-4.5,1-6.6,2.7l-1.6-1.7l2.1-7.1
			c0,0,4.6-13.8,4.6-26.1V36.3c0-21.5,12.3-30.7,30.7-30.7c7.2,0,18.4,0,16.9,4.6c9.2-1.5,13.8,12.3,13.8,26.1v13.8
			C80.8,64.1,85.4,76.3,85.4,76.3"/>
	</g>
	<path class="st4" d="M14.5,85.2c2-1.2,4.4-2.2,7.2-2.9c0.5-0.2,0.8,0.2,0.9,0.6c0.2,0.5-0.2,0.8-0.6,0.9c-2.5,0.6-4.6,1.5-6.3,2.5
		C15.7,86.4,15,85.7,14.5,85.2z M51.1,96c-4.9,0-8.1-3.2-8.3-3.2c-0.2-0.2-0.2-0.3-0.2-0.6v-5.7l-8.4-5.7l-4.6,2.3l8.1,5.4
		c0.3,0.3,0.5,0.8,0.2,1.1c-0.3,0.3-0.8,0.5-1.1,0.2l-9.2-6.1l-0.2-0.2c0,0-0.2-0.2-0.2-0.3c0-0.2,0-0.2,0-0.3c0-0.2,0-0.2,0.2-0.3
		c0-0.2,0.2-0.2,0.2-0.2l0.2-0.2l6.1-3.1c0.3-0.2,0.6-0.2,0.8,0l9.2,6.1c0.2,0.2,0.3,0.3,0.3,0.6v5.8c0.8,0.6,3.4,2.6,6.9,2.6
		s6.1-2,6.9-2.6V86c0-0.3,0.2-0.5,0.3-0.6l9.2-6.1c0.2-0.2,0.5-0.2,0.8,0l6.1,3.1c0.3,0.2,0.5,0.6,0.3,1.1c0,0.2-0.2,0.3-0.3,0.3
		l-9.2,6.1c-0.3,0.3-0.8,0.2-1.1-0.2c-0.3-0.3-0.2-0.8,0.2-1.1l8.1-5.4L67.8,81l-8.4,5.7v5.7c0,0.2-0.2,0.5-0.2,0.6
		C59.2,92.8,56,96,51.1,96z M85.2,85.6c-1.5-0.7-3.2-1.4-5.1-1.8c-0.5-0.2-0.6-0.5-0.6-0.9c0.2-0.5,0.5-0.6,0.9-0.6
		c2.3,0.6,4.2,1.3,5.9,2.2L85.2,85.6z M15.8,77.6c-0.2,0-0.2,0-0.3,0C15,77.4,14.9,77,15,76.7c0-0.2,4.6-13.8,4.6-25.8V37.1
		c0-20.3,11.2-31.5,31.5-31.5c8.3,0,15.4,0.2,17.3,2.9c0.3,0.5,0.5,0.9,0.5,1.5c2.1-0.2,4.3,0.6,6.1,2.1c5.5,4.8,7.5,16,7.5,24.9
		v13.8c0,13.5,4.5,25.6,4.6,25.8c0.2,0.5,0,0.8-0.5,0.9c-0.5,0.2-0.8,0-0.9-0.5c0-0.2-4.6-12.6-4.6-26.4V36.9
		c0-10.7-2.8-20.1-7.1-23.6c-1.7-1.5-3.7-2-5.8-1.7c-0.3,0-0.5,0-0.8-0.3c-0.2-0.2-0.3-0.5-0.2-0.8c0.2-0.6,0-1.1-0.2-1.2
		C65.5,7,56.6,7,51.2,7c-13.7,0-29.9,5.2-29.9,29.9v13.8c0,12.3-4.6,26.2-4.6,26.4C16.4,77.4,16.1,77.6,15.8,77.6z M51.1,74.5
		c-8.4,0-16.3-10-17.5-12.7c-1.4-2.9-6.3-15.4-6.3-21.8v-6.1c0-0.5,0.3-0.8,0.8-0.8c0.3,0,27.5-0.2,39.5-9.1
		c0.3-0.3,0.8-0.2,1.1,0.2c0.3,0.3,0.2,0.8-0.2,1.1c-11.4,8.4-35,9.2-39.6,9.4V40c0,6,4.5,18,6,21.2C36.5,64.4,43.9,73,51.1,73
		s14.6-8.6,16.3-11.8c1.5-3.1,5.8-14.7,6-20.7c-1.2-1.1-6.1-5.2-6.1-9.5c0-0.5,0.3-0.8,0.8-0.8c0.5,0,0.8,0.3,0.8,0.8
		c0,4.1,5.8,8.6,5.8,8.6c0.2,0.2,0.3,0.3,0.3,0.6c0,6.4-4.8,18.9-6.3,21.8C67.4,64.5,59.5,74.5,51.1,74.5z M51.1,63.8
		c-3.4,0-5.1-1.7-5.2-1.7c-0.3-0.3-0.3-0.8,0-1.1c0.3-0.3,0.8-0.3,1.1,0l0,0c0,0,1.4,1.4,4,1.4c2.6,0,4-1.2,4-1.4
		c0.3-0.3,0.8-0.3,1.1,0c0.3,0.3,0.3,0.8,0,1.1C56.1,62.1,54.5,63.8,51.1,63.8z M74.1,59.2c-0.5,0-0.8-0.3-0.8-0.8v-3.1
		c0-0.5,0.3-0.8,0.8-0.8s0.8,0.3,0.8,0.8v3.1C74.9,58.9,74.6,59.2,74.1,59.2z M28.1,59.2c-0.5,0-0.8-0.3-0.8-0.8v-3.1
		c0-0.5,0.3-0.8,0.8-0.8s0.8,0.3,0.8,0.8v3.1C28.8,58.9,28.5,59.2,28.1,59.2z M58.8,46.9c-0.5,0-0.8-0.3-0.8-0.8V44
		c-1.2,0.3-1.5,1.1-1.7,1.1c-0.2,0.3-0.6,0.5-1.1,0.3c-0.3-0.2-0.5-0.6-0.3-1.1c0-0.2,1.1-2,3.7-2c2.6,0,3.7,1.8,3.7,2
		c0.2,0.3,0,0.8-0.3,1.1c-0.3,0.2-0.8,0-1.1-0.3c0,0-0.5-0.8-1.7-1.1v2.1C59.5,46.6,59.2,46.9,58.8,46.9z M43.4,46.9
		c-0.5,0-0.8-0.3-0.8-0.8V44C41.4,44.3,41.1,45,41,45c-0.2,0.3-0.6,0.5-1.1,0.3c-0.3-0.2-0.5-0.6-0.3-1.1c0-0.2,1.1-2,3.7-2
		c2.6,0,3.7,1.8,3.7,2c0.2,0.3,0,0.8-0.3,1.1c-0.3,0.2-0.8,0-1.1-0.3c0,0-0.5-0.8-1.7-1.1v2.1C44.2,46.6,43.9,46.9,43.4,46.9z"/>
</g>
</svg>
