<?xml version="1.0" encoding="utf-8"?>
<!-- Generator: Adobe Illustrator 20.1.0, SVG Export Plug-In . SVG Version: 6.00 Build 0)  -->
<svg version="1.1" id="Layer_1" xmlns="http://www.w3.org/2000/svg" xmlns:xlink="http://www.w3.org/1999/xlink" x="0px" y="0px"
	 width="100px" height="100px" viewBox="0 0 100 100" style="enable-background:new 0 0 100 100;" xml:space="preserve">
<style type="text/css">
	.st0{fill:#093953;}
	.st1{fill:#FCCFA2;}
	.st2{fill:#86D0F5;}
	.st3{fill:#AE948E;}
	.st4{fill:#525760;}
</style>
<g>
	<circle class="st0" cx="50" cy="50" r="50"/>
	<g transform="translate(1 1)">
		<path class="st1" d="M75.2,40.3v6.1c0,1.7-1.4,3.1-3.1,3.1c0,0-3.1,9.2-4.6,12.3c-0.9,1.8-3.5,6-7.8,8.9c-2.8,2-6.3,3.4-10.6,3.4
			s-7.8-1.4-10.6-3.4c-4.3-2.9-6.9-7.1-7.8-8.9c-1.5-3.1-4.6-12.3-4.6-12.3c-1.7,0-3.1-1.4-3.1-3.1v-6.1c0-1.7,1.4-3.1,3.1-3.1
			c0,0,0,3.1,3.1,3.1c1.5-3.1,3.1-6.1,3.1-9.2c9.2,0,24.6-4,27.6-9.2c0,6.1,6.1,12.3,6.1,12.3s3.1,3.1,6.1,3.1
			C73.9,37.3,75.2,38.6,75.2,40.3z M59.9,80.3L59.9,80.3c0,0,0,10.8-10.8,10.8S38.4,80.3,38.4,80.3V71l0.2-0.3
			c2.8,2,6.3,3.4,10.6,3.4s7.8-1.4,10.6-3.4l0.2,0.3V80.3z"/>
		<path class="st2" d="M49.1,91L49,99c-4.1,0.1-10.8-0.4-18.3-3.3c-8.7-3.4-14.3-8.5-17.3-11.6c1-0.7,2-1.5,3.3-1.9
			c3.2-1,9.4-1.9,21.7-1.9C38.4,80.3,38.4,91,49.1,91z M85.5,83.2c-2.7,3.1-7.7,7.8-15.2,11.3c-8.9,4.2-17,4.6-21.3,4.5
			c0-2.7,0.1-5.3,0.1-8c10.8,0,10.8-10.8,10.8-10.8c6.8,0.5,13.8,1.3,20.9,2.2C82.4,82.7,84,82.9,85.5,83.2z"/>
		<path class="st3" d="M72.2,28v9.2c-3.1,0-6.1-3.1-6.1-3.1s-6.1-6.1-6.1-12.3c-3.1,5.2-18.4,9.2-27.6,9.2c0,3.1-1.5,6.1-3.1,9.2
			c-3.1,0-3.1-3.1-3.1-3.1C23,34.2,23,31.1,23,31.1S23,6.5,49.1,6.5c5.5,0,9.2,1.5,7.7,4.6C72.2,11.1,72.2,28,72.2,28"/>
	</g>
	<path class="st4" d="M85.4,85.3c0,0-12.6-3.3-23.8-3.3c-0.3,2.6-1.8,10.8-11.5,10.8S38.9,84.6,38.6,82c-11,0-24.3,3-24.3,3l-1-1
		c0,0,12.1-3.3,25.1-3.4v-2.5c0-0.5,0.3-0.8,0.8-0.8c0.5,0,0.8,0.3,0.8,0.8v3.1c0,0.5,0.2,10,10,10s10-9.5,10-10v-3.1
		c0-0.5,0.3-0.8,0.8-0.8c0.5,0,0.8,0.3,0.8,0.8v2.3c11.7,0,25,3.7,25,3.7L85.4,85.3z M49.4,76c-10.1,0-16.7-8-19-12.7
		c-1.4-2.8-3.8-10-4.5-12c-1.8-0.3-3.2-1.8-3.2-3.8v-6.1c0-2.2,1.7-3.8,3.8-3.8c0.5,0,0.8,0.3,0.8,0.8c0,0.3,0.2,2,1.8,2.3
		c1.4-2.9,2.8-5.7,2.8-8.4c0-0.5,0.3-0.8,0.8-0.8c9.5,0,24.1-4.1,27-8.9c0.2-0.3,0.5-0.5,0.9-0.3c0.3,0.2,0.6,0.5,0.6,0.8
		c0,5.7,5.8,11.7,6,11.7c0.3,0.3,0.3,0.8,0,1.1c-0.3,0.3-0.8,0.3-1.1,0c-0.3-0.3-5.2-5.2-6.1-10.9c-4.9,4.8-18.1,7.8-26.3,8
		c-0.2,2.9-1.7,6-3.1,8.8c-0.2,0.3-0.5,0.5-0.6,0.5c-2.5,0-3.4-1.7-3.7-2.9c-0.9,0.3-1.7,1.2-1.7,2.2v6.1c0,1.2,1.1,2.3,2.3,2.3
		c0.3,0,0.6,0.2,0.8,0.5c0,0.2,3.1,9.2,4.6,12.1c0.3,0.5,6,11.8,17.8,11.8S67.6,62.7,68,62.2c1.5-2.9,4.6-12.1,4.6-12.1
		c0.2-0.3,0.5-0.5,0.8-0.5c1.2,0,2.3-1.1,2.3-2.3v-6.1c0-1.2-1.1-2.3-2.3-2.3c-0.5,0-0.8-0.3-0.8-0.8v-9.2c0-0.6-0.2-16.1-14.6-16.1
		c-0.3,0-0.5-0.2-0.6-0.3c-0.2-0.2-0.2-0.5,0-0.8c0.5-0.9,0.2-1.5,0.2-1.7c-0.8-1.2-3.4-1.8-7.1-1.8C25.4,8.1,25.1,31,25.1,32
		c0,0.5-0.3,0.8-0.8,0.8c-0.5,0-0.8-0.3-0.8-0.8c0-0.3,0.3-25.3,26.9-25.3c2.6,0,7.1,0.3,8.4,2.6c0.3,0.5,0.5,1.1,0.3,2
		C74.1,12,74.2,28.7,74.2,28.9v8.6c1.7,0.3,3.1,1.8,3.1,3.7v6.1c0,2-1.4,3.5-3.2,3.8c-0.6,2-3.1,9.2-4.5,12
		C66.1,68.1,59.5,76,49.4,76z M50.1,65.1c-3.4,0-5.1-1.7-5.2-1.7c-0.3-0.3-0.3-0.8,0-1.1s0.8-0.3,1.1,0l0,0c0,0,1.4,1.4,4,1.4
		s4-1.2,4-1.4c0.3-0.3,0.8-0.3,1.1,0c0.3,0.3,0.3,0.8,0,1.1C55.2,63.4,53.5,65.1,50.1,65.1z M57.8,46.7c-0.5,0-0.8-0.3-0.8-0.8v-0.8
		h-2.3c-0.5,0-0.8-0.3-0.8-0.8s0.3-0.8,0.8-0.8h6.1c0.5,0,0.8,0.3,0.8,0.8s-0.3,0.8-0.8,0.8h-2.3v0.8C58.6,46.4,58.3,46.7,57.8,46.7
		z M42.5,46.7c-0.5,0-0.8-0.3-0.8-0.8v-0.8h-2.3c-0.5,0-0.8-0.3-0.8-0.8s0.3-0.8,0.8-0.8h6.1c0.5,0,0.8,0.3,0.8,0.8
		s-0.3,0.8-0.8,0.8h-2.3v0.8C43.2,46.4,42.9,46.7,42.5,46.7z"/>
</g>
</svg>
