<?xml version="1.0" encoding="utf-8"?>
<!-- Generator: Adobe Illustrator 20.1.0, SVG Export Plug-In . SVG Version: 6.00 Build 0)  -->
<svg version="1.1" id="Layer_1" xmlns="http://www.w3.org/2000/svg" xmlns:xlink="http://www.w3.org/1999/xlink" x="0px" y="0px"
	 width="100px" height="100.1px" viewBox="0 0 100 100.1" style="enable-background:new 0 0 100 100.1;" xml:space="preserve">
<style type="text/css">
	.st0{fill:#0B3954;}
	.st1{fill:#FFD0A1;}
	.st2{fill:#ECF4F7;}
	.st3{fill:#FF7474;}
	.st4{fill:#51565F;}
</style>
<g>
	<circle class="st0" cx="50" cy="50" r="50"/>
	<g transform="translate(1 1)">
		<path class="st1" d="M72,40.7c0,6.1-4.6,18.4-6.1,21.5c-0.6,1.2-2.5,3.7-4.8,6c-1.2,1.1-2.5,2.1-3.8,3.2c-2.6,1.8-5.4,3.1-8.3,3.1
			c-3.1,0-6.1-1.5-8.9-3.5c-1.2-0.9-2.3-1.8-3.2-2.8c-2.3-2.3-4.1-4.8-4.8-6c-1.5-3.1-6.1-15.4-6.1-21.5v-6.1c0,0,27.6,0,39.9-9.2
			C65.9,37.7,72,40.7,72,40.7z M67.4,82.2l0.6,0.3c-2.1,4-8.3,13.5-19,13.5c-10.9,0-16.9-9.4-19-13.5l0.6-0.3c0,0,7.7-3.1,9.2-10.7
			l0.3-0.5c2.8,2,5.8,3.5,8.9,3.5c2.9,0,5.8-1.2,8.3-3.1h0.9C59.7,79.1,67.4,82.2,67.4,82.2z"/>
		<path class="st2" d="M35.2,79.1c0.9,0,1.5-0.6,1.5-1.5c0-0.9-0.6-1.5-1.5-1.5s-1.5,0.6-1.5,1.5C33.6,78.5,34.2,79.1,35.2,79.1z
			 M41.3,85.3c0.9,0,1.5-0.6,1.5-1.5s-0.6-1.5-1.5-1.5s-1.5,0.6-1.5,1.5S40.4,85.3,41.3,85.3z M49,88.3c0.9,0,1.5-0.6,1.5-1.5
			c0-0.9-0.6-1.5-1.5-1.5c-0.9,0-1.5,0.6-1.5,1.5C47.4,87.7,48,88.3,49,88.3z M56.6,85.3c0.9,0,1.5-0.6,1.5-1.5s-0.6-1.5-1.5-1.5
			c-0.9,0-1.5,0.6-1.5,1.5S55.7,85.3,56.6,85.3z M62.8,79.1c0.9,0,1.5-0.6,1.5-1.5c0-0.9-0.6-1.5-1.5-1.5c-0.9,0-1.5,0.6-1.5,1.5
			C61.3,78.5,61.9,79.1,62.8,79.1z"/>
		<path class="st3" d="M84.4,84.3c-3.3,3.3-9.6,8.7-19.1,11.9c-6.9,2.4-13,2.8-17.1,2.7c-0.8-0.7-1.5-2.3,0-3c1-0.5,6.5,0.1,8.1-0.9
			c3.5-2.2,5.6-4.5,7.8-6.8c1.5-1.6,2.1-2.4,2.6-3.3c0.9-1.5,0.6-1.9,1.3-2.6c0.2-0.2,0.9-1.8,0.9-1.8l0,0
			C80.8,82.5,81.5,83.5,84.4,84.3z M48.2,99c0,0.3-3.6-0.1-5.9-0.4c-2.7-0.4-6-1-10.2-2.4c-7.8-2.5-15.7-8.8-18.3-11.6
			c-0.9-1,2.4-3.4,15.2-3.9c0,0,0.1,0.2,0.2,0.5c0.3,0.7,0.6,1.1,0.7,1.3c6.8,9.7,9.5,11.8,9.5,11.8c1.9,1.4,5.7,0.7,8.7,1.7
			C49,96.3,48.2,98.8,48.2,99z"/>
		<path class="st2" d="M87.3,46.9c0,3.4-1.4,6.4-3.7,8.7c0.3,1.1,0.6,2.3,0.6,3.5c0,6.8-5.5,12.3-12.3,12.3c-1.1,0-7.7,0-10.7-3.1
			l-0.2-0.2c2.3-2.3,4.1-4.8,4.8-6c1.5-3.1,6.1-15.4,6.1-21.5c0,0-6.1-3.1-6.1-15.4c-12.3,9.2-39.9,9.2-39.9,9.2v6.1
			c0,6.1,4.6,18.4,6.1,21.5c0.6,1.2,2.5,3.7,4.8,6l-0.2,0.2c-3.1,3.1-9.7,3.1-10.7,3.1c-6.8,0-12.3-5.5-12.3-12.3
			c0-1.2,0.2-2.5,0.6-3.5c-2.3-2.3-3.7-5.4-3.7-8.7c0-4.1,2-7.8,5.2-10c-1.4-2-2.1-4.3-2.1-6.9c0-6,4.3-11.1,10.1-12.1
			C27.5,11.6,32.1,7,49.3,7c13.7,0,24.4,4.6,27,11.5c4.8,1.7,8.1,6.3,8.1,11.5c0,2.6-0.8,4.9-2.1,6.9C85.4,39.1,87.3,42.7,87.3,46.9
			"/>
	</g>
	<path class="st4" d="M70.4,82.6c-1.2,2.6-7.7,15.4-20.4,15.4S30.8,85.2,29.6,82.6c-4.7-0.2-10.8,1.1-14.7,3l-1-1.1
		c0,0,6.4-3.8,16.4-3.3c0.4,0,0.6,0.3,0.6,0.3c0.1,0.1,0.1,0.1,0.1,0.2c0,0.2,6.1,14.9,19.2,14.9c13.2,0,19.2-14.6,19.2-14.7
		c0-0.1,0.1-0.1,0.1-0.2c0,0,0.2-0.2,0.6-0.3c8.2-0.5,15.7,3.6,15.7,3.6c-0.1,0.1-1,1-1,1C81.1,84.2,76.2,82.2,70.4,82.6z M50,90.1
		c-1.2,0-2.3-1.1-2.3-2.3c0-1.2,1.1-2.3,2.3-2.3c1.2,0,2.3,1.1,2.3,2.3C52.3,89,51.2,90.1,50,90.1z M50,87c-0.5,0-0.8,0.3-0.8,0.8
		c0,0.5,0.3,0.8,0.8,0.8c0.5,0,0.8-0.3,0.8-0.8C50.7,87.3,50.4,87,50,87z M57.6,87c-1.2,0-2.3-1.1-2.3-2.3c0-1.2,1.1-2.3,2.3-2.3
		c1.2,0,2.3,1.1,2.3,2.3C59.9,86,58.9,87,57.6,87z M57.6,84c-0.5,0-0.8,0.3-0.8,0.8c0,0.5,0.3,0.8,0.8,0.8c0.5,0,0.8-0.3,0.8-0.8
		C58.4,84.3,58.1,84,57.6,84z M42.3,87C41.1,87,40,86,40,84.7c0-1.2,1.1-2.3,2.3-2.3c1.2,0,2.3,1.1,2.3,2.3C44.6,86,43.5,87,42.3,87
		z M42.3,84c-0.5,0-0.8,0.3-0.8,0.8c0,0.5,0.3,0.8,0.8,0.8c0.5,0,0.8-0.3,0.8-0.8C43.1,84.3,42.8,84,42.3,84z M63.8,80.9
		c-1.2,0-2.3-1.1-2.3-2.3c0-1.2,1.1-2.3,2.3-2.3s2.3,1.1,2.3,2.3C66.1,79.8,65,80.9,63.8,80.9z M63.8,77.8c-0.5,0-0.8,0.3-0.8,0.8
		s0.3,0.8,0.8,0.8s0.8-0.3,0.8-0.8S64.2,77.8,63.8,77.8z M36.2,80.9c-1.2,0-2.3-1.1-2.3-2.3c0-1.2,1.1-2.3,2.3-2.3s2.3,1.1,2.3,2.3
		C38.5,79.8,37.4,80.9,36.2,80.9z M36.2,77.8c-0.5,0-0.8,0.3-0.8,0.8s0.3,0.8,0.8,0.8s0.8-0.3,0.8-0.8S36.6,77.8,36.2,77.8z
		 M50,76.3c-8.4,0-16.3-10-17.5-12.7c-1.4-2.9-6.3-15.4-6.3-21.8v-6.1c0-0.5,0.3-0.8,0.8-0.8c0.3,0,27.5-0.2,39.5-9.1
		c0.3-0.2,0.6-0.2,0.8,0c0.2,0.2,0.5,0.5,0.5,0.6v6.1c0,4.1,5.8,8.6,5.8,8.6c0.2,0.2,0.3,0.3,0.3,0.6c0,6.4-4.8,18.9-6.3,21.8
		C66.2,66.3,58.4,76.3,50,76.3z M27.7,36.4v5.4c0,6,4.5,18,6,21.2c1.7,3.2,9.1,11.8,16.3,11.8s14.6-8.6,16.3-11.8
		c1.5-3.1,5.8-14.7,6-20.7c-1.2-1.1-6.1-5.2-6.1-9.5v-4.6C54.4,35.6,32.2,36.4,27.7,36.4z M73,73.2c-1.1,0-2.1-0.2-3.2-0.5
		c-0.5-0.2-0.6-0.5-0.6-0.9c0.2-0.5,0.5-0.6,0.9-0.6c0.9,0.3,1.8,0.3,2.9,0.3c6.3,0,11.5-5.2,11.5-11.5c0-1.1-0.2-2.3-0.5-3.4
		c-0.2-0.3,0-0.6,0.2-0.8c2.1-2.1,3.4-5.1,3.4-8.1c0-3.7-1.8-7.2-4.9-9.4c-0.3-0.3-0.5-0.8-0.2-1.1c1.2-1.8,2-4.1,2-6.4
		c0-4.8-3.1-9.2-7.5-10.7c-0.2,0-0.3-0.3-0.5-0.5C73.9,13,63.5,8.6,50.1,8.6c-17.2,0-21.2,4.6-24.7,10.6c-0.2,0.2-0.3,0.3-0.5,0.3
		c-5.5,0.9-9.4,5.8-9.4,11.4c0,2.3,0.6,4.6,2,6.4c0.3,0.3,0.2,0.8-0.2,1.1c-3.1,2.1-4.9,5.7-4.9,9.4c0,3.1,1.2,6,3.4,8.1
		c0.2,0.2,0.3,0.5,0.2,0.8c-0.3,1.1-0.5,2.1-0.5,3.4c0,6.3,5.2,11.5,11.5,11.5c0.9,0,2-0.2,2.9-0.3c0.5-0.2,0.8,0.2,0.9,0.6
		c0.2,0.5-0.2,0.8-0.6,0.9c-1.1,0.3-2.1,0.5-3.2,0.5c-7.2,0-13-5.8-13-13c0-1.1,0.2-2.3,0.5-3.4c-2.3-2.5-3.5-5.5-3.5-8.9
		c0-4,1.8-7.7,4.9-10.1c-1.2-2-1.8-4.3-1.8-6.8c0-6.1,4.3-11.5,10.3-12.7C28,12.1,32.6,7.2,50.3,7.2c13.8,0,24.6,4.6,27.6,11.7
		c4.9,2,8.3,6.8,8.3,12.1c0,2.3-0.6,4.6-1.8,6.8c3.1,2.5,4.9,6.3,4.9,10.1c0,3.4-1.2,6.4-3.5,8.9c0.3,1.1,0.5,2.3,0.5,3.4
		C86,67.4,80.2,73.2,73,73.2z M50,65.5c-3.4,0-5.1-1.7-5.2-1.7c-0.3-0.3-0.3-0.8,0-1.1c0.3-0.3,0.8-0.3,1.1,0l0,0c0,0,1.4,1.4,4,1.4
		c2.6,0,4-1.2,4-1.4c0.3-0.3,0.8-0.3,1.1,0c0.3,0.3,0.3,0.8,0,1.1C55,63.8,53.3,65.5,50,65.5z M73,60.9c-0.5,0-0.8-0.3-0.8-0.8v-3.1
		c0-0.5,0.3-0.8,0.8-0.8s0.8,0.3,0.8,0.8v3.1C73.8,60.6,73.5,60.9,73,60.9z M26.9,60.9c-0.5,0-0.8-0.3-0.8-0.8v-3.1
		c0-0.5,0.3-0.8,0.8-0.8c0.5,0,0.8,0.3,0.8,0.8v3.1C27.7,60.6,27.4,60.9,26.9,60.9z M57.6,48.6c-0.5,0-0.8-0.3-0.8-0.8v-2.1
		c-1.2,0.3-1.5,1.1-1.7,1.1c-0.2,0.3-0.6,0.5-1.1,0.3c-0.3-0.2-0.5-0.6-0.3-1.1c0-0.2,1.1-2,3.7-2c2.8,0,3.7,1.8,3.7,2
		c0.2,0.3,0,0.8-0.3,1.1c-0.3,0.2-0.8,0-1.1-0.3c0,0-0.5-0.8-1.7-1.1v2.1C58.4,48.3,58.1,48.6,57.6,48.6z M42.3,48.6
		c-0.5,0-0.8-0.3-0.8-0.8v-2.1c-1.2,0.3-1.5,1.1-1.7,1.1c-0.2,0.3-0.6,0.5-1.1,0.3c-0.3-0.2-0.5-0.6-0.3-1.1c0-0.2,1.1-2,3.7-2
		c2.8,0,3.7,1.8,3.7,2c0.2,0.3,0,0.8-0.3,1.1c-0.3,0.2-0.8,0-1.1-0.3c0,0-0.5-0.8-1.7-1.1v2.1C43.1,48.3,42.8,48.6,42.3,48.6z"/>
</g>
</svg>
