<?xml version="1.0" encoding="utf-8"?>
<!-- Generator: Adobe Illustrator 20.1.0, SVG Export Plug-In . SVG Version: 6.00 Build 0)  -->
<svg version="1.1" id="Layer_1" xmlns="http://www.w3.org/2000/svg" xmlns:xlink="http://www.w3.org/1999/xlink" x="0px" y="0px"
	 viewBox="0 0 40 42.8" style="enable-background:new 0 0 40 42.8;" xml:space="preserve">
<style type="text/css">
	.st0{fill:#3BB8BC;}
</style>
<g>
	<path class="st0" d="M11,27.3c-1.9,0-3.8-0.5-5.5-1.5c-5.3-3.1-7-9.9-4-15.1C3.4,7.3,7.1,5.2,11,5.2c1.9,0,3.8,0.5,5.5,1.5
		c5.3,3,7,9.8,4,15.1C18.6,25.2,15,27.3,11,27.3z M11,6.5c-3.5,0-6.7,1.9-8.4,4.8C-0.1,16,1.5,22,6.2,24.7C7.6,25.5,9.4,26,11,26
		c3.5,0,6.7-1.9,8.4-4.8c2.7-4.6,1.1-10.6-3.5-13.3C14.4,7,12.7,6.5,11,6.5z"/>
	<path class="st0" d="M29,37.7c-1.9,0-3.8-0.5-5.5-1.5c-2.6-1.5-4.4-3.9-5.1-6.7s-0.3-5.8,1.1-8.4c1.9-3.4,5.6-5.5,9.5-5.5
		c1.9,0,3.8,0.5,5.5,1.5c5.3,3,7,9.8,4,15.1C36.6,35.5,32.9,37.7,29,37.7z M29,16.9c-3.5,0-6.7,1.9-8.4,4.8c-1.3,2.3-1.7,4.8-1,7.4
		c0.7,2.6,2.3,4.6,4.6,5.9c1.5,0.8,3.2,1.3,4.8,1.3c3.5,0,6.7-1.9,8.4-4.8c2.7-4.6,1.1-10.6-3.5-13.3C32.4,17.3,30.7,16.9,29,16.9z"
		/>
	<path class="st0" d="M20,22.1c-6.1,0-11.1-5-11.1-11.1S13.9,0,20,0s11.1,5,11.1,11.1S26.1,22.1,20,22.1z M20,1.3
		c-5.4,0-9.7,4.4-9.7,9.7s4.4,9.7,9.7,9.7s9.7-4.4,9.7-9.7S25.4,1.3,20,1.3z"/>
	<path class="st0" d="M20,42.8c-6.1,0-11.1-5-11.1-11.1s5-11.1,11.1-11.1s11.1,5,11.1,11.1S26.1,42.8,20,42.8z M20,22
		c-5.4,0-9.7,4.4-9.7,9.7s4.4,9.7,9.7,9.7s9.7-4.4,9.7-9.7C29.7,26.5,25.4,22,20,22z"/>
	<path class="st0" d="M11,37.7c-3.9,0-7.6-2.1-9.5-5.5c-3-5.3-1.2-12,4-15.1c1.7-1,3.6-1.5,5.5-1.5c3.9,0,7.6,2.1,9.5,5.5
		c3,5.3,1.2,12-4,15.1C14.9,37.1,13,37.7,11,37.7z M11,16.9c-1.7,0-3.4,0.5-4.8,1.3C1.5,20.9,0,26.8,2.7,31.4c1.7,3,5,4.8,8.4,4.8
		c1.7,0,3.4-0.5,4.8-1.3c4.6-2.7,6.2-8.6,3.5-13.3C17.7,18.7,14.5,16.9,11,16.9z"/>
	<path class="st0" d="M29,27.3c-3.9,0-7.6-2.1-9.5-5.5c-1.5-2.6-1.9-5.5-1.1-8.4s2.6-5.3,5.1-6.7c1.7-1,3.6-1.5,5.5-1.5
		c3.9,0,7.6,2.1,9.5,5.5c1.5,2.6,1.9,5.5,1.1,8.4c-0.8,2.8-2.6,5.3-5.1,6.7C32.9,26.7,30.9,27.3,29,27.3z M29,6.5
		c-1.7,0-3.4,0.5-4.8,1.3c-2.3,1.3-3.9,3.4-4.6,5.9c-0.7,2.5-0.3,5.1,1,7.4c1.7,3,5,4.8,8.4,4.8c1.7,0,3.4-0.5,4.8-1.3
		c2.3-1.3,3.9-3.4,4.6-5.9c0.7-2.5,0.3-5.1-1-7.4C35.7,8.4,32.4,6.5,29,6.5z"/>
</g>
</svg>
