<?xml version="1.0" encoding="utf-8"?>
<!-- Generator: Adobe Illustrator 20.1.0, SVG Export Plug-In . SVG Version: 6.00 Build 0)  -->
<svg version="1.1" id="Layer_1" xmlns="http://www.w3.org/2000/svg" xmlns:xlink="http://www.w3.org/1999/xlink" x="0px" y="0px"
	 width="500.7px" height="77px" viewBox="0 0 500.7 77" style="enable-background:new 0 0 500.7 77;" xml:space="preserve">
<style type="text/css">
	.st0{fill:#CCE7E5;}
	.st1{fill:#E9C29C;}
	.st2{fill:#DBB595;}
	.st3{fill:#545555;}
	.st4{fill:#606161;}
	.st5{fill:#4A4A4A;}
	.st6{fill:#575757;}
	.st7{fill:#4FB9A3;stroke:#9C9B9B;stroke-miterlimit:10;}
	.st8{fill:#9ED4CD;stroke:#9C9B9B;stroke-miterlimit:10;}
	.st9{fill:#F6F7F7;stroke:#9C9B9B;stroke-width:0.5;stroke-miterlimit:10;}
	.st10{fill:#EEEDED;stroke:#9C9B9B;stroke-width:2;stroke-miterlimit:10;}
	.st11{fill:none;stroke:#9C9B9B;stroke-width:2;stroke-miterlimit:10;}
	.st12{fill:#E9EFEE;}
	.st13{fill:#9AA5A4;}
	.st14{fill:#FFFFFF;}
	.st15{fill:#B5BDBC;}
	.st16{fill:#B2BAB9;}
	.st17{fill:#4D5254;}
	.st18{fill:#30423F;}
	.st19{fill:#EAEAEA;}
	.st20{fill:#D6D7D7;}
	.st21{fill:#A8A8A8;}
	.st22{fill:#4FB9A3;}
	.st23{fill:#8DCDC4;}
	.st24{fill:#0A8D73;}
</style>
<g>
	<path class="st0" d="M38.5,0C17.2,0,0,17.2,0,38.5S17.2,77,38.5,77S77,59.8,77,38.5S59.8,0,38.5,0z"/>
	<path class="st1" d="M71.4,18.5c-1.8-3-4.1-5.7-6.6-8.1C63.3,9,61.7,7.7,60,6.5c-0.9-0.6-1.8-1.2-2.8-1.7L47.1,3.3
		c-0.2,0-0.6-0.7-1.4-2.6C43.4,0.2,41,0,38.5,0c-2.3,0-4.6,0.2-6.9,0.6c-0.7,1.9-1.3,2.7-1.5,2.7l-11,1.9c-0.7,0.4-1.4,0.9-2.1,1.3
		c-0.9,0.6-1.8,1.3-2.7,2c-3.5,2.8-6.4,6.2-8.7,10c1.9,1.7,3.6,3.2,4.7,4.1c1.6,4.3,9.6,27.1,7.2,48.2c6,4,13.3,6.3,21,6.3
		c7.8,0,15.1-2.3,21.2-6.4c-2.6-21.7,6.1-45.1,7.4-48.4C68.2,21.3,69.7,20,71.4,18.5z"/>
	<g>
		<path class="st2" d="M47.3,50.8c0,0-0.7-2.8-2-4.6c-0.2-0.2-1.7-1.9-2.6-0.7c-0.3,0.4,0.4,1.7,0.8,3.3c0.4,1.6,0.5,3.3,1,3.9
			c0.9,1.2,3.8,4.1,3.8,4.1l1.3-4L47.3,50.8z"/>
		<polygon class="st2" points="58.1,45.1 55.5,44.8 51.5,44.8 46.3,45.8 47.9,56.1 59.3,52.1 		"/>
		<path class="st2" d="M49.1,46.2l-1.7-9.4c-0.1-0.8-0.8-1.3-1.6-1.2c-0.7,0.1-1.2,0.9-1,1.7l1.7,9.4c0.1,0.8,0.8,1.3,1.6,1.2
			C48.7,47.7,49.2,47,49.1,46.2z"/>
		<path class="st2" d="M52.2,45.7l-2-11.7c-0.1-0.8-0.8-1.3-1.6-1.2c-0.7,0.1-1.2,0.9-1.1,1.7l2,11.7c0.1,0.8,0.8,1.3,1.6,1.2
			C51.8,47.2,52.3,46.5,52.2,45.7z"/>
		<path class="st2" d="M55.1,45.1l-1.5-9.9c-0.1-0.8-0.8-1.4-1.5-1.3c-0.7,0.1-1.2,0.9-1.1,1.7l1.5,9.9c0.1,0.8,0.8,1.4,1.5,1.3
			C54.8,46.7,55.3,45.9,55.1,45.1z"/>
		<path class="st2" d="M58.1,45l-0.7-5.1c-0.1-0.8-0.8-1.4-1.4-1.3c-0.7,0.1-1.1,0.8-1,1.6l0.7,5.1c0.1,0.8,0.8,1.4,1.4,1.3
			C57.7,46.5,58.2,45.8,58.1,45z"/>
		<path class="st2" d="M59.4,58c0.2,0,0.1-4.4-0.1-5.9l-0.2-1.4c-0.2-1.5-0.8-1.9-2.3-1.6l-7.6,1.3c-1.5,0.2-1.6,2.3-1.4,3.7
			l0.5,2.7c0.4,0.6,1.2,2.8,1.7,2.8l1.9,15.1c3.3-1.2,6.3-2.9,9.1-4.9L59.4,58z"/>
		<path class="st2" d="M27.8,50.4l-7.6-1.3c-1.4-0.2-2,0.2-2.3,1.6l-0.2,1.4c-0.2,1.4-0.3,5.8-0.1,5.9L16,69.8
			c2.8,2,5.8,3.7,9.1,4.9L27,59.6c0.4,0.1,1.3-2.1,1.7-2.8l0.5-2.7C29.5,52.7,29.3,50.7,27.8,50.4z"/>
		<path class="st2" d="M34.4,45.4c-0.9-1.1-2.5,0.5-2.6,0.7c-1.3,1.8-2,4.6-2,4.6l-2.2,2l1.3,4c0,0,2.9-2.9,3.8-4.1
			c0.4-0.6,0.6-2.3,1-3.9C33.9,47.2,34.7,45.8,34.4,45.4z"/>
		<polygon class="st2" points="25.5,44.8 21.5,44.8 18.9,45.1 17.7,52.1 29.1,56.1 30.7,45.8 		"/>
		<path class="st2" d="M31.3,35.6c-0.7-0.1-1.4,0.4-1.6,1.2L28,46.2c-0.1,0.8,0.3,1.6,1,1.7c0.7,0.1,1.4-0.4,1.6-1.2l1.7-9.4
			C32.4,36.5,32,35.7,31.3,35.6z"/>
		<path class="st2" d="M28.4,32.8c-0.7-0.1-1.5,0.4-1.6,1.2l-2,11.7c-0.1,0.8,0.4,1.6,1.1,1.7c0.7,0.1,1.5-0.4,1.6-1.2l2-11.7
			C29.7,33.7,29.2,32.9,28.4,32.8z"/>
		<path class="st2" d="M24.9,34c-0.7-0.1-1.4,0.4-1.5,1.3l-1.5,9.9c-0.1,0.8,0.4,1.5,1.1,1.7c0.7,0.1,1.4-0.4,1.5-1.3l1.5-9.9
			C26.1,34.9,25.7,34.1,24.9,34z"/>
		<path class="st2" d="M21.1,38.6c-0.7-0.1-1.3,0.5-1.4,1.3L18.9,45c-0.1,0.8,0.3,1.5,1,1.6s1.3-0.5,1.4-1.3l0.7-5.1
			C22.2,39.4,21.8,38.7,21.1,38.6z"/>
	</g>
</g>
<g>
	<path class="st0" d="M207.5,0C186.3,0,169,17.2,169,38.5S186.3,77,207.5,77c21.3,0,38.5-17.2,38.5-38.5C246.1,17.2,228.8,0,207.5,0
		z"/>
	<path class="st1" d="M246,35.9c-40.5,11.9-67.1,4.7-76.9,0.9c0,0.5,0,1.1,0,1.6C169,59.8,186.3,77,207.5,77
		c21.3,0,38.5-17.2,38.5-38.5C246.1,37.6,246,36.8,246,35.9z"/>
	<path class="st3" d="M215.9,41.5c-0.2-3.6-4-6.2-8.4-5.9c-4.5,0.3-8,2.3-7.9,5.9c0.2,3.6,3.9,4.4,8.4,4.1
		C212.4,45.3,216,45.1,215.9,41.5z"/>
	<path class="st4" d="M206.8,37c-3.4-0.9-6.4,2.5-6.5,5.3C200.2,45,210.3,37.9,206.8,37z"/>
	<path class="st5" d="M181.2,35c-4.2-0.5-7.7-0.1-7.9,3.1c-0.2,3.2,3.1,5.2,7.4,5.7c4.2,0.5,7.7,0.4,7.9-2.8
		C188.9,36.5,185.5,35.4,181.2,35z"/>
	<path class="st4" d="M180.8,36.1c-3-1.7-6.3,0.4-6.9,2.7C173.4,41.1,183.9,37.7,180.8,36.1z"/>
	<path class="st6" d="M242.1,36c-0.4-3.3-3.8-3.5-7.9-2.8c-4.1,0.7-7.2,2.4-6.7,6.6c0.4,3.3,3.7,3.2,7.8,2.4
		C239.4,41.5,242.5,39.3,242.1,36z"/>
	<path class="st4" d="M233.8,34.6c-3.2-0.4-5.7,2.9-5.6,5.4C228.3,42.6,237,35.1,233.8,34.6z"/>
</g>
<g>
	<path class="st0" d="M123.5,0C102.2,0,85,17.2,85,38.5S102.2,77,123.5,77S162,59.8,162,38.5S144.7,0,123.5,0z"/>
	<path class="st7" d="M97.8,27.3c-0.1-1.8,0.1-4.6,1.6-7.5c3.9-7.7,13.3-8.9,14.2-9c2.6-0.4,7.3-0.9,12.9,0.7
		c6.5,1.9,10.7,5.5,12.5,7.4c-5.1-1.2-16.4-3.2-28.9,1.5C104.9,22.4,100.8,25,97.8,27.3z"/>
	<path class="st8" d="M119.8,35.7c5.4-1,9.7-2.6,12.7-4c6.2-2.8,7.5-4.7,8-6.3c0.5-1.6,0.2-3.1-0.2-4.2c-2.2-1.3-5.6-2.9-10.1-3.7
		c-6.8-1.2-12.4,0.3-15.1,1.3c-11.1,3-18.5,7.6-18.3,11.8c0,0.7,0.3,1.5,1,2.4c2,1.2,5.2,2.6,9.3,3.3
		C112.7,37.4,117.3,36.5,119.8,35.7z"/>
	<polygon class="st9" points="96.9,39 98,37.2 115.2,37.2 122.6,45.3 129.8,47.9 144.2,48.9 147.4,50 150.4,51.7 148.2,52.7 
		142.4,54.8 126.9,56.9 113.2,53.2 102.5,44.6 	"/>
	<path class="st10" d="M151.5,53c0-0.6-0.6-1.1-1.2-0.8c-4.9,2.3-22.5,9.3-37.9,0.1C107,49,100.2,41.6,97.7,37.9
		c-0.4-0.6-0.9-0.5-1.2,0.1c-0.4,0.9-0.7,0.5-0.7,1.9c-0.2,1.5-1.8,11.4,4.9,18.9c5.7,6.4,13.9,7.4,15.5,7.5
		c1.5,0.1,6.3,0.1,6.8,0.1c2.6,0,5.6,0,6.7,0c0.8,0,17.2-0.6,21.1-9.8C151,55.8,151.4,54.7,151.5,53z"/>
	<path class="st11" d="M151.5,52.6c-0.6-0.7-1.7-1.7-3.2-2.5c-2.5-1.3-4.6-1.3-8.2-1.5c-2.2-0.1-5.4-0.3-9.4-0.6
		c-1.3-0.1-3.6-0.7-5.9-1.9c-3.9-2-6.4-5.2-7.9-7.9c-0.5-1-1.6-1.6-2.7-1.5c-4.8,0.1-8.4,0.2-10.6,0.2c-0.2,0-1.2,0.1-3.2,0.2
		c-2.5,0.2-3.3,0.3-4,0.9c-0.6,0.6-0.7,1.4-0.7,1.9"/>
	<g>
		<ellipse transform="matrix(0.981 -0.1941 0.1941 0.981 -2.9971 23.6137)" class="st11" cx="119" cy="27.1" rx="22.5" ry="8.7"/>
		<path class="st11" d="M141,22.7c-0.5-1.3-1.4-3.2-3.1-5c-0.5-0.6-2.7-2.9-7.3-4.8c-6.7-2.7-13.6-2.5-17.1-2
			c-1,0.1-10.2,1.6-14.7,9.9c-2.4,4.4-2.2,8.8-2,10.7"/>
	</g>
</g>
<g>
	<path class="st0" d="M292.7,0c-21.3,0-38.5,17.2-38.5,38.5S271.4,77,292.7,77s38.5-17.2,38.5-38.5S314,0,292.7,0z"/>
	<path class="st1" d="M331.1,35.9c-40.5,11.9-67.1,4.7-76.9,0.9c0,0.5,0,1.1,0,1.6c0,21.3,17.2,38.5,38.5,38.5s38.5-17.2,38.5-38.5
		C331.2,37.6,331.2,36.8,331.1,35.9z"/>
	<g>
		<path class="st2" d="M295.8,38.4c-2.7-0.6-5.6-1.7-14-3.4L268.4,8.7c-3.7,3-6.9,6.8-9.3,11c4.2,6.4,10,15.5,12.8,19.7
			c0.7,1.1,2.2,4.7,3.2,6c0.8,1,7.1,4.2,10.7,4.6l5.1-4.4l3.5-0.3c1.3,0.1,4.2,0.4,4.2,0.4l1.1-5C298.2,39.6,297.8,38.8,295.8,38.4z
			"/>
		<path class="st2" d="M300.2,48.4c-3.1-1.4-7.6-1.4-7.6-1.4l-3.8-2.7l-4,5.4c0,0,3.8,0.6,5.9,1.5c1.1,0.5,3.6,0.7,6.1,0.8
			s4.7,0.7,5.2,0.1C303.6,50.4,300.6,48.6,300.2,48.4z"/>
		<path class="st2" d="M313.3,44l-6.8-1.9l-9-2.7c-1.2,0.2-0.6,3.4-0.4,4.6c0.2,1.2,1.3,1.7,1.3,1.7l7.6,0.4l8.1,1
			c1.2-0.2,2.1-0.2,2.5-1.3C317.1,44.3,314.8,44,313.3,44z"/>
	</g>
</g>
<path class="st0" d="M377.4,0c-21.3,0-38.5,17.3-38.5,38.5S356.2,77,377.4,77s38.5-17.3,38.5-38.5S398.7,0,377.4,0z"/>
<path class="st12" d="M357.8,62.9c-0.6,0-0.6-0.8-0.6-1.4V15c0-0.5,0-0.8,0.6-0.8h38.8c0.5,0,1.1,0.3,1.1,0.8v46.5
	c0,0.5-0.5,1.4-1.1,1.4H357.8L357.8,62.9z"/>
<path class="st13" d="M395.9,16v45.1h-37V16H395.9 M396.6,12.4h-38.8c-1.6,0-2.5,1.1-2.5,2.6v46.5c0,1.5,0.8,3.2,2.5,3.2h38.8
	c1.5,0,2.8-1.6,2.8-3.2V15C399.5,13.5,398.1,12.4,396.6,12.4L396.6,12.4z"/>
<path class="st14" d="M396.6,14.2h-38.8c-0.6,0-0.6,0.3-0.6,0.8v46.5c0,0.4-0.1,0.5,0.2,0.8l40.1-47.9
	C397.1,14.2,396.9,14.2,396.6,14.2z"/>
<path class="st15" d="M398.6,13c-0.5-0.5-1.2-0.6-2-0.6h-38.8c-1.6,0-2.5,1.1-2.5,2.6v46.5c0,0.9,0.1,1.4,0.6,2.2l3-3.1V16h37v0.2
	L398.6,13z"/>
<g>
	<path class="st12" d="M367,25.9h21.3c0.7,0,1.4-0.6,1.4-1.4s-0.6-1.3-1.4-1.3H367c-0.7,0-1.4,0.6-1.4,1.4
		C365.6,25.3,366.3,25.9,367,25.9z"/>
	<path class="st12" d="M367,33.1h12.2c0.7,0,1.4-0.6,1.4-1.4s-0.5-1.4-1.2-1.4H367c-0.7,0-1.4,0.6-1.4,1.4
		C365.6,32.5,366.3,33.1,367,33.1z"/>
	<path class="st12" d="M388.2,37.6H367c-0.7,0-1.4,1.1-1.4,1.8s0.6,1.8,1.4,1.8h21.3c0.7,0,1.4-1.1,1.4-1.8
		C389.6,38.7,389.1,37.6,388.2,37.6z"/>
	<path class="st12" d="M379.4,45.8H367c-0.7,0-1.4,0.6-1.4,1.4c0,0.8,0.6,1.4,1.4,1.4h12.2c0.7,0,1.4-0.6,1.4-1.4
		C380.7,46.4,380,45.8,379.4,45.8z"/>
</g>
<g>
	<path class="st16" d="M366.5,25h21.3c0.7,0,1.4-0.6,1.4-1.4c0-0.7-0.5-1.4-1.4-1.4h-21.3c-0.7,0-1.4,0.6-1.4,1.4
		C365.2,24.3,365.8,25,366.5,25z"/>
	<path class="st16" d="M387.8,37.6h-21.3c-0.7,0-1.4,0.6-1.4,1.4c0,0.8,0.6,1.4,1.4,1.4h21.3c0.7,0,1.4-0.6,1.4-1.4
		C389.1,38.2,388.6,37.6,387.8,37.6z"/>
</g>
<g>
	<path class="st13" d="M378.9,44.8h-12.3c-0.7,0-1.4,0.6-1.4,1.4c0,0.8,0.6,1.4,1.4,1.4h12.2c0.7,0,1.4-0.6,1.4-1.4
		C380.2,45.4,379.6,44.8,378.9,44.8z"/>
	<path class="st13" d="M378.9,29.5h-12.3c-0.7,0-1.4,0.6-1.4,1.4s0.6,1.4,1.4,1.4h12.2c0.7,0,1.4-0.6,1.4-1.4S379.6,29.5,378.9,29.5
		z"/>
</g>
<g>
	<path class="st0" d="M462.2,0c-21.3,0-38.5,17.2-38.5,38.5S440.9,77,462.2,77s38.5-17.2,38.5-38.5S483.4,0,462.2,0z"/>
	<polygon class="st17" points="488.2,27.8 462.2,44.3 436.1,27.8 462.2,10.8 	"/>
	<polyline class="st18" points="462.2,10.8 488.2,27.8 462.2,44.3 	"/>
	<path class="st19" d="M447.2,16c-1.2,0-2.7,1.3-2.7,2.5v40.8c0,1.2,1.5,2,2.7,2h29.9c1.2,0,1.8-0.8,1.8-2V25.2l-9.2-9.1
		C469.7,16,447.2,16,447.2,16z"/>
	<path class="st20" d="M478.9,59.6V25.2l-9.2-9.1h-22.5c-1.2,0-2.7,1.3-2.7,2.5"/>
	<polygon class="st21" points="478.9,32.6 478.9,25.2 474.4,20.7 470.7,24.6 	"/>
	<path class="st14" d="M469.7,23v-7l9.2,9.2h-7.1C470.6,25.2,469.7,24.1,469.7,23z"/>
	<g>
		<path class="st21" d="M464.8,24.4c0,0.5-0.4,0.8-0.8,0.8h-12.8c-0.5,0-0.8-0.3-0.8-0.8l0,0c0-0.5,0.4-0.8,0.8-0.8H464
			C464.3,23.6,464.8,23.9,464.8,24.4L464.8,24.4z"/>
		<path class="st21" d="M474.1,31.1c0,0.5-0.4,0.8-0.8,0.8h-22.2c-0.5,0-0.8-0.3-0.8-0.8l0,0c0-0.5,0.4-0.8,0.8-0.8h22.1
			C473.7,30.3,474.1,30.6,474.1,31.1L474.1,31.1z"/>
		<path class="st21" d="M474.1,38.7c0,0.5-0.4,0.8-0.8,0.8h-22.2c-0.5,0-0.8-0.3-0.8-0.8l0,0c0-0.5,0.4-0.8,0.8-0.8h22.1
			C473.7,37.8,474.1,38.2,474.1,38.7L474.1,38.7z"/>
	</g>
	<polygon class="st22" points="488.2,27.8 488.2,27.8 462.2,44.4 436.1,27.8 436.1,27.8 436.1,27.8 436.1,61.3 488.2,61.3 	"/>
	<polygon class="st23" points="462.2,44.5 462.2,44.3 462.2,44.3 436.1,27.8 436.1,27.8 436.1,27.8 436.1,61.3 436.3,61.3 
		436.1,61.3 	"/>
	<polygon class="st24" points="488.2,61.3 462.2,44.5 436.1,61.3 436.3,61.3 488,61.3 	"/>
</g>
</svg>
