<?xml version="1.0" encoding="utf-8"?>
<!-- Generator: Adobe Illustrator 20.1.0, SVG Export Plug-In . SVG Version: 6.00 Build 0)  -->
<svg version="1.1" id="Layer_1" xmlns="http://www.w3.org/2000/svg" xmlns:xlink="http://www.w3.org/1999/xlink" x="0px" y="0px"
	 width="179.5px" height="159.5px" viewBox="0 0 179.5 159.5" style="enable-background:new 0 0 179.5 159.5;" xml:space="preserve"
	>
<style type="text/css">
	.st0{fill:#F4F4F4;stroke:#3BB8BC;stroke-miterlimit:10;}
	.st1{fill:#3BB8BC;}
</style>
<path class="st0" d="M145,144.5H34.5c-5.3,0-9.5-4.3-9.5-9.5V24.5c0-5.3,4.3-9.5,9.5-9.5H145c5.3,0,9.5,4.3,9.5,9.5V135
	C154.5,140.3,150.3,144.5,145,144.5z"/>
<g>
	<path class="st1" d="M77.5,52.6c2,0.3,3.8,0.8,5.4,1.6s3,1.8,4.2,3c1.2,1.2,2,2.7,2.7,4.3c0.6,1.7,0.9,3.6,0.9,5.7
		c0,1.5-0.2,3.1-0.7,4.8c-0.5,1.7-1.2,3.3-2.2,4.9c-1,1.6-2.4,3-4.1,4.4c-1.7,1.3-3.8,2.4-6.3,3.3c-1.9,0.7-4.1,1.1-6.4,1.4
		c-2.4,0.3-5.2,0.4-8.5,0.4H45.8V21h16.1c1.5,0,2.8,0,4,0.1s2.3,0.1,3.3,0.2s2,0.2,2.8,0.4c0.9,0.1,1.7,0.3,2.5,0.5
		c2,0.6,3.9,1.3,5.5,2.3c1.7,1,3.1,2.1,4.2,3.4c1.2,1.3,2.1,2.8,2.7,4.5c0.6,1.7,0.9,3.5,0.9,5.5c0,1.6-0.2,3.1-0.6,4.6
		c-0.4,1.5-1,2.8-1.8,4.1c-0.8,1.2-1.9,2.3-3.2,3.3s-2.9,1.8-4.8,2.4V52.6z M65.9,49.3c1.6,0,2.9-0.1,4.1-0.2
		c1.1-0.1,2.2-0.4,3.1-0.7c2.4-0.8,4.2-2.1,5.3-3.8c1.1-1.7,1.7-3.8,1.7-6.1c0-2.4-0.6-4.4-1.8-5.9c-1.2-1.5-3-2.7-5.5-3.4
		c-1.2-0.4-2.7-0.6-4.3-0.8c-1.6-0.1-3.5-0.2-5.8-0.2h-8.9v21.1H65.9z M53.8,56.5v22.7h9.6c2.3,0,4.4-0.1,6.3-0.3c2-0.2,3.6-0.5,5-1
		c1.5-0.5,2.8-1.1,3.8-1.9c1-0.8,1.9-1.6,2.5-2.5s1.1-1.9,1.4-3c0.3-1,0.4-2.1,0.4-3.2c0-1.2-0.1-2.4-0.4-3.5
		c-0.3-1.1-0.8-2.1-1.4-2.9c-0.7-0.9-1.5-1.6-2.6-2.3c-1.1-0.7-2.5-1.2-4.1-1.5c-1-0.2-2.1-0.4-3.3-0.5c-1.3-0.1-2.8-0.1-4.7-0.1
		H53.8z"/>
</g>
<g>
	<path class="st1" d="M112.4,79c-3.7,0-7.1,0.6-10.3,1.7c-3.2,1.2-5.9,2.9-8.3,5.2c-2.3,2.3-4.2,5.1-5.5,8.5c-1.4,3.4-2,7.4-2,11.9
		c0,4.5,0.6,8.4,1.9,11.7s3,6,5.3,8.2c2.3,2.2,5.1,3.8,8.3,4.8c3.2,1,6.9,1.6,10.8,1.6c1.1,0,2.2-0.1,3.5-0.2
		c1.2-0.1,2.4-0.3,3.7-0.5c1.2-0.2,2.4-0.5,3.6-0.7s2.2-0.6,3.1-0.9v7c-1.9,0.7-4.2,1.3-6.7,1.7c-2.5,0.4-5.1,0.6-7.8,0.6
		c-5.4,0-10.3-0.8-14.5-2.3s-7.7-3.7-10.6-6.5c-2.8-2.8-5-6.3-6.5-10.4s-2.2-8.7-2.2-13.9c0-5.1,0.8-9.7,2.3-14
		c1.5-4.3,3.8-7.9,6.7-11c2.9-3.1,6.4-5.4,10.6-7.2s8.8-2.6,14-2.6c1.4,0,2.7,0.1,4.1,0.2c1.3,0.1,2.6,0.3,3.8,0.5
		c1.2,0.2,2.4,0.5,3.4,0.8c1,0.3,1.9,0.6,2.7,0.9v7c-2-0.7-4.1-1.2-6.5-1.6S114.7,79,112.4,79z"/>
</g>
</svg>
